<?xml version="1.0" encoding="UTF-8" standalone="no"?><svg xmlns="http://www.w3.org/2000/svg" xmlns:xlink="http://www.w3.org/1999/xlink" contentScriptType="application/ecmascript" contentStyleType="text/css" height="785px" preserveAspectRatio="none" style="width:803px;height:785px;" version="1.1" viewBox="0 0 803 785" width="803px" zoomAndPan="magnify"><defs><filter height="1" id="bwy6wfefr5h8i0" width="1" x="0" y="0"><feFlood flood-color="#FF0000" result="flood"/><feComposite in="SourceGraphic" in2="flood" operator="over"/></filter><filter height="1" id="bwy6wfefr5h8i1" width="1" x="0" y="0"><feFlood flood-color="#008000" result="flood"/><feComposite in="SourceGraphic" in2="flood" operator="over"/></filter><filter height="1" id="bwy6wfefr5h8i2" width="1" x="0" y="0"><feFlood flood-color="#FF00FF" result="flood"/><feComposite in="SourceGraphic" in2="flood" operator="over"/></filter><filter height="1" id="bwy6wfefr5h8i3" width="1" x="0" y="0"><feFlood flood-color="#0000FF" result="flood"/><feComposite in="SourceGraphic" in2="flood" operator="over"/></filter><filter height="300%" id="fwy6wfefr5h8i" width="300%" x="-1" y="-1"><feGaussianBlur result="blurOut" stdDeviation="2.0"/><feColorMatrix in="blurOut" result="blurOut2" type="matrix" values="0 0 0 0 0 0 0 0 0 0 0 0 0 0 0 0 0 0 .4 0"/><feOffset dx="4.0" dy="4.0" in="blurOut2" result="blurOut3"/><feBlend in="SourceGraphic" in2="blurOut3" mode="normal"/></filter></defs><g><text fill="#000000" font-family="sans-serif" font-size="18" lengthAdjust="spacingAndGlyphs" textLength="181" x="310" y="16.708">Cover Service Hosting</text><rect fill="#FFFFFF" height="95.4844" rx="5" ry="5" style="stroke: #000000; stroke-width: 1.0;" width="98" x="694" y="28.9531"/><text fill="#000000" font-family="sans-serif" font-size="14" font-weight="bold" lengthAdjust="spacingAndGlyphs" textLength="0" x="704" y="48.9482"/><text fill="#000000" font-family="sans-serif" font-size="14" font-weight="bold" lengthAdjust="spacingAndGlyphs" textLength="33" x="716" y="48.9482">Type</text><text fill="#000000" filter="url(#bwy6wfefr5h8i0)" font-family="sans-serif" font-size="14" lengthAdjust="spacingAndGlyphs" textLength="0" x="712" y="65.2451"/><text fill="#000000" font-family="sans-serif" font-size="14" lengthAdjust="spacingAndGlyphs" textLength="66" x="716" y="65.2451">Developer</text><text fill="#000000" filter="url(#bwy6wfefr5h8i1)" font-family="sans-serif" font-size="14" lengthAdjust="spacingAndGlyphs" textLength="0" x="712" y="81.542"/><text fill="#000000" font-family="sans-serif" font-size="14" lengthAdjust="spacingAndGlyphs" textLength="51" x="716" y="81.542">External</text><text fill="#000000" filter="url(#bwy6wfefr5h8i2)" font-family="sans-serif" font-size="14" lengthAdjust="spacingAndGlyphs" textLength="0" x="712" y="97.8389"/><text fill="#000000" font-family="sans-serif" font-size="14" lengthAdjust="spacingAndGlyphs" textLength="28" x="716" y="97.8389">Drift</text><text fill="#000000" filter="url(#bwy6wfefr5h8i3)" font-family="sans-serif" font-size="14" lengthAdjust="spacingAndGlyphs" textLength="0" x="712" y="114.1357"/><text fill="#000000" font-family="sans-serif" font-size="14" lengthAdjust="spacingAndGlyphs" textLength="49" x="716" y="114.1357">Hosting</text><line style="stroke: #000000; stroke-width: 1.0;" x1="700" x2="786" y1="35.9531" y2="35.9531"/><line style="stroke: #000000; stroke-width: 1.0;" x1="700" x2="786" y1="52.25" y2="52.25"/><line style="stroke: #000000; stroke-width: 1.0;" x1="700" x2="786" y1="68.5469" y2="68.5469"/><line style="stroke: #000000; stroke-width: 1.0;" x1="700" x2="786" y1="84.8438" y2="84.8438"/><line style="stroke: #000000; stroke-width: 1.0;" x1="700" x2="786" y1="101.1406" y2="101.1406"/><line style="stroke: #000000; stroke-width: 1.0;" x1="700" x2="786" y1="117.4375" y2="117.4375"/><line style="stroke: #000000; stroke-width: 1.0;" x1="700" x2="700" y1="35.9531" y2="117.4375"/><line style="stroke: #000000; stroke-width: 1.0;" x1="712" x2="712" y1="35.9531" y2="117.4375"/><line style="stroke: #000000; stroke-width: 1.0;" x1="786" x2="786" y1="35.9531" y2="117.4375"/><!--cluster Front End--><polygon fill="#FFFFFF" filter="url(#fwy6wfefr5h8i)" points="407,149.9375,482,149.9375,489,172.2344,492,172.2344,492,220.9375,407,220.9375,407,149.9375" style="stroke: #000000; stroke-width: 1.5;"/><line style="stroke: #000000; stroke-width: 1.5;" x1="407" x2="489" y1="172.2344" y2="172.2344"/><text fill="#000000" font-family="sans-serif" font-size="14" font-weight="bold" lengthAdjust="spacingAndGlyphs" textLength="69" x="411" y="164.9326">Front End</text><!--cluster Server--><polygon fill="#FFFFFF" filter="url(#fwy6wfefr5h8i)" points="14,238.9375,24,228.9375,645,228.9375,645,763.4375,635,773.4375,14,773.4375,14,238.9375" style="stroke: #0000FF; stroke-width: 1.5;"/><line style="stroke: #0000FF; stroke-width: 1.5;" x1="635" x2="644" y1="238.9375" y2="229.9375"/><line style="stroke: #0000FF; stroke-width: 1.5;" x1="14" x2="635" y1="238.9375" y2="238.9375"/><line style="stroke: #0000FF; stroke-width: 1.5;" x1="635" x2="635" y1="238.9375" y2="773.4375"/><text fill="#000000" font-family="sans-serif" font-size="14" font-style="italic" lengthAdjust="spacingAndGlyphs" textLength="61" x="295" y="254.9326">«hosting»</text><text fill="#000000" font-family="sans-serif" font-size="14" font-weight="bold" lengthAdjust="spacingAndGlyphs" textLength="43" x="304" y="271.2295">Server</text><!--cluster Container--><polygon fill="#FFFFFF" filter="url(#fwy6wfefr5h8i)" points="22,286.9375,32,276.9375,637,276.9375,637,516.9375,627,526.9375,22,526.9375,22,286.9375" style="stroke: #FF0000; stroke-width: 1.5;"/><line style="stroke: #FF0000; stroke-width: 1.5;" x1="627" x2="636" y1="286.9375" y2="277.9375"/><line style="stroke: #FF0000; stroke-width: 1.5;" x1="22" x2="627" y1="286.9375" y2="286.9375"/><line style="stroke: #FF0000; stroke-width: 1.5;" x1="627" x2="627" y1="286.9375" y2="526.9375"/><text fill="#000000" font-family="sans-serif" font-size="14" font-style="italic" lengthAdjust="spacingAndGlyphs" textLength="78" x="286.5" y="302.9326">«developer»</text><text fill="#000000" font-family="sans-serif" font-size="14" font-weight="bold" lengthAdjust="spacingAndGlyphs" textLength="69" x="291" y="319.2295">Container</text><!--cluster CS--><polygon fill="#FFFFFF" filter="url(#fwy6wfefr5h8i)" points="57,334.9375,67,324.9375,629,324.9375,629,508.9375,619,518.9375,57,518.9375,57,334.9375" style="stroke: #FF0000; stroke-width: 1.5;"/><line style="stroke: #FF0000; stroke-width: 1.5;" x1="619" x2="628" y1="334.9375" y2="325.9375"/><line style="stroke: #FF0000; stroke-width: 1.5;" x1="57" x2="619" y1="334.9375" y2="334.9375"/><line style="stroke: #FF0000; stroke-width: 1.5;" x1="619" x2="619" y1="334.9375" y2="518.9375"/><text fill="#000000" font-family="sans-serif" font-size="14" font-weight="bold" lengthAdjust="spacingAndGlyphs" textLength="92" x="293" y="350.9326">Cover Service</text><!--cluster CoverDB--><path d="M208,544.9375 C208,534.9375 313.5,534.9375 313.5,534.9375 C313.5,534.9375 419,534.9375 419,544.9375 L419,626.9375 C419,636.9375 313.5,636.9375 313.5,636.9375 C313.5,636.9375 208,636.9375 208,626.9375 L208,544.9375 " fill="#FFFFFF" filter="url(#fwy6wfefr5h8i)" style="stroke: #FF00FF; stroke-width: 1.5;"/><path d="M208,544.9375 C208,554.9375 313.5,554.9375 313.5,554.9375 C313.5,554.9375 419,554.9375 419,544.9375 " fill="none" style="stroke: #FF00FF; stroke-width: 1.5;"/><text fill="#000000" font-family="sans-serif" font-size="14" font-style="italic" lengthAdjust="spacingAndGlyphs" textLength="40" x="293.5" y="569.9326">«drift»</text><text fill="#000000" font-family="sans-serif" font-size="14" font-weight="bold" lengthAdjust="spacingAndGlyphs" textLength="59" x="284" y="586.2295">CoverDB</text><!--cluster Cloudinary--><path d="M653,560.9375 C653,550.9375 714,550.9375 714,550.9375 C714,550.9375 775,550.9375 775,560.9375 L775,626.9375 C775,636.9375 714,636.9375 714,636.9375 C714,636.9375 653,636.9375 653,626.9375 L653,560.9375 " fill="#FFFFFF" filter="url(#fwy6wfefr5h8i)" style="stroke: #008000; stroke-width: 1.5;"/><path d="M653,560.9375 C653,570.9375 714,570.9375 714,570.9375 C714,570.9375 775,570.9375 775,560.9375 " fill="none" style="stroke: #008000; stroke-width: 1.5;"/><text fill="#000000" font-family="sans-serif" font-size="14" font-weight="bold" lengthAdjust="spacingAndGlyphs" textLength="75" x="676.5" y="585.9326">Cloudinary</text><!--entity GUI--><rect fill="#FEFECE" filter="url(#fwy6wfefr5h8i)" height="36.2969" style="stroke: #A80036; stroke-width: 1.5;" width="65" x="417.5" y="176.9375"/><rect fill="#FEFECE" height="5" style="stroke: #A80036; stroke-width: 1.5;" width="10" x="412.5" y="181.9375"/><rect fill="#FEFECE" height="5" style="stroke: #A80036; stroke-width: 1.5;" width="10" x="412.5" y="203.2344"/><text fill="#000000" font-family="sans-serif" font-size="14" lengthAdjust="spacingAndGlyphs" textLength="45" x="427.5" y="199.9326">Upload</text><!--entity FACTOR--><path d="M62,182.4375 C62,172.4375 97,172.4375 97,172.4375 C97,172.4375 132,172.4375 132,182.4375 L132,207.7344 C132,217.7344 97,217.7344 97,217.7344 C97,217.7344 62,217.7344 62,207.7344 L62,182.4375 " fill="#FFFFFF" filter="url(#fwy6wfefr5h8i)" style="stroke: #008000; stroke-width: 1.5;"/><path d="M62,182.4375 C62,192.4375 97,192.4375 97,192.4375 C97,192.4375 132,192.4375 132,182.4375 " fill="none" style="stroke: #008000; stroke-width: 1.5;"/><text fill="#000000" font-family="sans-serif" font-size="14" lengthAdjust="spacingAndGlyphs" textLength="50" x="72" y="209.4326">FACTOR</text><!--entity getCover--><rect fill="#FEFECE" filter="url(#fwy6wfefr5h8i)" height="36.2969" style="stroke: #A80036; stroke-width: 1.5;" width="76" x="412" y="474.9375"/><rect fill="#FEFECE" height="5" style="stroke: #A80036; stroke-width: 1.5;" width="10" x="407" y="479.9375"/><rect fill="#FEFECE" height="5" style="stroke: #A80036; stroke-width: 1.5;" width="10" x="407" y="501.2344"/><text fill="#000000" font-family="sans-serif" font-size="14" lengthAdjust="spacingAndGlyphs" textLength="56" x="422" y="497.9326">getCover</text><!--entity putCover--><rect fill="#FEFECE" filter="url(#fwy6wfefr5h8i)" height="36.2969" style="stroke: #A80036; stroke-width: 1.5;" width="77" x="299.5" y="474.9375"/><rect fill="#FEFECE" height="5" style="stroke: #A80036; stroke-width: 1.5;" width="10" x="294.5" y="479.9375"/><rect fill="#FEFECE" height="5" style="stroke: #A80036; stroke-width: 1.5;" width="10" x="294.5" y="501.2344"/><text fill="#000000" font-family="sans-serif" font-size="14" lengthAdjust="spacingAndGlyphs" textLength="57" x="309.5" y="497.9326">putCover</text><!--entity deleteCover--><rect fill="#FEFECE" filter="url(#fwy6wfefr5h8i)" height="36.2969" style="stroke: #A80036; stroke-width: 1.5;" width="97" x="523.5" y="474.9375"/><rect fill="#FEFECE" height="5" style="stroke: #A80036; stroke-width: 1.5;" width="10" x="518.5" y="479.9375"/><rect fill="#FEFECE" height="5" style="stroke: #A80036; stroke-width: 1.5;" width="10" x="518.5" y="501.2344"/><text fill="#000000" font-family="sans-serif" font-size="14" lengthAdjust="spacingAndGlyphs" textLength="77" x="533.5" y="497.9326">deleteCover</text><!--entity updateCover--><rect fill="#FEFECE" filter="url(#fwy6wfefr5h8i)" height="36.2969" style="stroke: #A80036; stroke-width: 1.5;" width="100" x="164" y="474.9375"/><rect fill="#FEFECE" height="5" style="stroke: #A80036; stroke-width: 1.5;" width="10" x="159" y="479.9375"/><rect fill="#FEFECE" height="5" style="stroke: #A80036; stroke-width: 1.5;" width="10" x="159" y="501.2344"/><text fill="#000000" font-family="sans-serif" font-size="14" lengthAdjust="spacingAndGlyphs" textLength="80" x="174" y="497.9326">updateCover</text><!--entity GET--><ellipse cx="450" cy="385.9375" fill="#FEFECE" filter="url(#fwy6wfefr5h8i)" rx="8" ry="8" style="stroke: #A80036; stroke-width: 2.0;"/><text fill="#000000" font-family="sans-serif" font-size="14" lengthAdjust="spacingAndGlyphs" textLength="61" x="419.5" y="415.9326">getCover/</text><!--entity PUT--><ellipse cx="338" cy="385.9375" fill="#FEFECE" filter="url(#fwy6wfefr5h8i)" rx="8" ry="8" style="stroke: #A80036; stroke-width: 2.0;"/><text fill="#000000" font-family="sans-serif" font-size="14" lengthAdjust="spacingAndGlyphs" textLength="62" x="307" y="415.9326">putCover/</text><!--entity DELETE--><ellipse cx="572" cy="385.9375" fill="#FEFECE" filter="url(#fwy6wfefr5h8i)" rx="8" ry="8" style="stroke: #A80036; stroke-width: 2.0;"/><text fill="#000000" font-family="sans-serif" font-size="14" lengthAdjust="spacingAndGlyphs" textLength="82" x="531" y="415.9326">deleteCover/</text><!--entity UPDATE--><ellipse cx="214" cy="385.9375" fill="#FEFECE" filter="url(#fwy6wfefr5h8i)" rx="8" ry="8" style="stroke: #A80036; stroke-width: 2.0;"/><text fill="#000000" font-family="sans-serif" font-size="14" lengthAdjust="spacingAndGlyphs" textLength="85" x="171.5" y="415.9326">updateCover/</text><!--entity GETS--><ellipse cx="97" cy="385.9375" fill="#FEFECE" filter="url(#fwy6wfefr5h8i)" rx="8" ry="8" style="stroke: #A80036; stroke-width: 2.0;"/><text fill="#000000" font-family="sans-serif" font-size="14" lengthAdjust="spacingAndGlyphs" textLength="49" x="72.5" y="415.9326">getStat/</text><!--entity CM--><polygon fill="#FFFFFF" filter="url(#fwy6wfefr5h8i)" points="21.5,589.4375,31.5,579.4375,180.5,579.4375,180.5,632.0313,170.5,642.0313,21.5,642.0313,21.5,589.4375" style="stroke: #FF00FF; stroke-width: 1.5;"/><line style="stroke: #FF00FF; stroke-width: 1.5;" x1="170.5" x2="179.5" y1="589.4375" y2="580.4375"/><line style="stroke: #FF00FF; stroke-width: 1.5;" x1="21.5" x2="170.5" y1="589.4375" y2="589.4375"/><line style="stroke: #FF00FF; stroke-width: 1.5;" x1="170.5" x2="170.5" y1="589.4375" y2="642.0313"/><text fill="#000000" font-family="sans-serif" font-size="14" font-style="italic" lengthAdjust="spacingAndGlyphs" textLength="40" x="76" y="612.4326">«drift»</text><text fill="#000000" font-family="sans-serif" font-size="14" lengthAdjust="spacingAndGlyphs" textLength="119" x="36.5" y="628.7295">Container Manager</text><!--entity Meta Data--><rect fill="#FEFECE" filter="url(#fwy6wfefr5h8i)" height="36.2969" style="stroke: #A80036; stroke-width: 1.5;" width="85" x="325.5" y="592.9375"/><rect fill="#FEFECE" height="5" style="stroke: #A80036; stroke-width: 1.5;" width="10" x="320.5" y="597.9375"/><rect fill="#FEFECE" height="5" style="stroke: #A80036; stroke-width: 1.5;" width="10" x="320.5" y="619.2344"/><text fill="#000000" font-family="sans-serif" font-size="14" lengthAdjust="spacingAndGlyphs" textLength="65" x="335.5" y="615.9326">Meta Data</text><!--entity Log Data--><rect fill="#FEFECE" filter="url(#fwy6wfefr5h8i)" height="36.2969" style="stroke: #A80036; stroke-width: 1.5;" width="75" x="215.5" y="592.9375"/><rect fill="#FEFECE" height="5" style="stroke: #A80036; stroke-width: 1.5;" width="10" x="210.5" y="597.9375"/><rect fill="#FEFECE" height="5" style="stroke: #A80036; stroke-width: 1.5;" width="10" x="210.5" y="619.2344"/><text fill="#000000" font-family="sans-serif" font-size="14" lengthAdjust="spacingAndGlyphs" textLength="55" x="225.5" y="615.9326">Log Data</text><!--entity OS--><polygon fill="#FFFFFF" filter="url(#fwy6wfefr5h8i)" points="61,712.4375,71,702.4375,141,702.4375,141,755.0313,131,765.0313,61,765.0313,61,712.4375" style="stroke: #FF00FF; stroke-width: 1.5;"/><line style="stroke: #FF00FF; stroke-width: 1.5;" x1="131" x2="140" y1="712.4375" y2="703.4375"/><line style="stroke: #FF00FF; stroke-width: 1.5;" x1="61" x2="131" y1="712.4375" y2="712.4375"/><line style="stroke: #FF00FF; stroke-width: 1.5;" x1="131" x2="131" y1="712.4375" y2="765.0313"/><text fill="#000000" font-family="sans-serif" font-size="14" font-style="italic" lengthAdjust="spacingAndGlyphs" textLength="40" x="76" y="735.4326">«drift»</text><text fill="#000000" font-family="sans-serif" font-size="14" lengthAdjust="spacingAndGlyphs" textLength="18" x="87" y="751.7295">OS</text><!--entity Stored covers--><rect fill="#FEFECE" filter="url(#fwy6wfefr5h8i)" height="36.2969" style="stroke: #A80036; stroke-width: 1.5;" width="107" x="660.5" y="592.9375"/><rect fill="#FEFECE" height="5" style="stroke: #A80036; stroke-width: 1.5;" width="10" x="655.5" y="597.9375"/><rect fill="#FEFECE" height="5" style="stroke: #A80036; stroke-width: 1.5;" width="10" x="655.5" y="619.2344"/><text fill="#000000" font-family="sans-serif" font-size="14" lengthAdjust="spacingAndGlyphs" textLength="87" x="670.5" y="615.9326">Stored covers</text><!--link Container to CM--><path d="M49,526.9375 C55.5966,545.3439 66.6299,564.0145 76.8403,579.0641 " fill="none" id="Container-CM" style="stroke: #A80036; stroke-width: 1.0;"/><!--link CM to OS--><path d="M101,642.6131 C101,660.9774 101,684.0232 101,702.3693 " fill="none" id="CM-OS" style="stroke: #A80036; stroke-width: 1.0;"/><!--link GUI to GET--><path d="M450,213.2514 C450,253.214 450,347.0357 450,376.7453 " fill="none" id="GUI-GET" style="stroke: #A80036; stroke-width: 1.0;"/><!--link GUI to PUT--><path d="M417.2217,210.2719 C409.1056,215.2987 401.0198,221.5341 395,228.9375 C356.7653,275.9599 342.9691,350.8471 339.1921,376.7597 " fill="none" id="GUI-PUT" style="stroke: #A80036; stroke-width: 1.0;"/><!--link GUI to DELETE--><path d="M482.5449,210.0281 C491.0009,215.116 499.5383,221.4433 506,228.9375 C546.3532,275.7388 564.8074,350.7659 570.2235,376.7373 " fill="none" id="GUI-DELETE" style="stroke: #A80036; stroke-width: 1.0; stroke-dasharray: 7.0,7.0;"/><!--link GET to getCover--><path d="M450,395.0603 C450,412.6476 450,451.544 450,474.6575 " fill="none" id="GET-getCover" style="stroke: #A80036; stroke-width: 1.0;"/><!--link PUT to putCover--><path d="M338,395.0603 C338,412.6476 338,451.544 338,474.6575 " fill="none" id="PUT-putCover" style="stroke: #A80036; stroke-width: 1.0;"/><!--link DELETE to deleteCover--><path d="M572,395.0603 C572,412.6476 572,451.544 572,474.6575 " fill="none" id="DELETE-deleteCover" style="stroke: #A80036; stroke-width: 1.0;"/><!--link UPDATE to updateCover--><path d="M214,395.0603 C214,412.6476 214,451.544 214,474.6575 " fill="none" id="UPDATE-updateCover" style="stroke: #A80036; stroke-width: 1.0;"/><!--link FACTOR to GETS--><path d="M97,217.5978 C97,259.6935 97,348.2768 97,376.8477 " fill="none" id="FACTOR-GETS" style="stroke: #A80036; stroke-width: 1.0;"/><!--link GETS to Log Data--><path d="M97.1561,395.0149 C98.1284,420.4835 104.663,492.9637 147,526.9375 C169.7013,545.1545 187.965,518.5202 212,534.9375 C231.9312,548.5517 243.0092,575.1016 248.4863,592.9317 " fill="none" id="GETS-Log Data" style="stroke: #A80036; stroke-width: 1.0;"/><!--link getCover to Meta Data--><path d="M437.3672,511.1164 C421.913,533.3554 395.9119,570.7716 380.5126,592.9316 " fill="none" id="getCover-Meta Data" style="stroke: #A80036; stroke-width: 1.0; stroke-dasharray: 7.0,7.0;"/><!--link putCover to Meta Data--><path d="M342.6218,511.1164 C348.2757,533.3554 357.7883,570.7716 363.4222,592.9316 " fill="none" id="putCover-Meta Data" style="stroke: #A80036; stroke-width: 1.0; stroke-dasharray: 7.0,7.0;"/><!--link deleteCover to Meta Data--><path d="M540.5721,511.1164 C502.1249,533.3554 437.4393,570.7716 399.1289,592.9316 " fill="none" id="deleteCover-Meta Data" style="stroke: #A80036; stroke-width: 1.0; stroke-dasharray: 7.0,7.0;"/><!--link updateCover to Meta Data--><path d="M247.3922,511.0081 C258.2555,516.5133 270.4829,522.3231 282,526.9375 C293.2229,531.434 298.025,528.1058 308,534.9375 C329.9141,549.946 347.6332,575.3783 357.988,592.6505 " fill="none" id="updateCover-Meta Data" style="stroke: #A80036; stroke-width: 1.0; stroke-dasharray: 7.0,7.0;"/><!--link getCover to Stored covers--><path d="M477.6977,510.9705 C486.5681,516.4133 496.5442,522.1967 506,526.9375 C557.8731,552.9447 619.8248,577.1338 662.5505,592.8109 " fill="none" id="getCover-Stored covers" style="stroke: #A80036; stroke-width: 1.0; stroke-dasharray: 7.0,7.0;"/><!--link putCover to Stored covers--><path d="M364.6946,511.0581 C373.9827,516.7596 384.6684,522.6736 395,526.9375 C408.5512,532.5301 412.8028,531.2833 427,534.9375 C508.4892,555.9121 602.7579,581.0417 660.3692,596.4976 " fill="none" id="putCover-Stored covers" style="stroke: #A80036; stroke-width: 1.0; stroke-dasharray: 7.0,7.0;"/><!--link deleteCover to Stored covers--><path d="M593.8763,511.1164 C620.6385,533.3554 665.6648,570.7716 692.3319,592.9316 " fill="none" id="deleteCover-Stored covers" style="stroke: #A80036; stroke-width: 1.0; stroke-dasharray: 7.0,7.0;"/><!--link updateCover to Stored covers--><path d="M243.4182,510.9391 C255.0218,517.1453 268.7322,523.4168 282,526.9375 C344.3834,543.4916 363.2513,524.8464 427,534.9375 C509.8559,548.0531 603.3581,575.2092 660.4822,593.2526 " fill="none" id="updateCover-Stored covers" style="stroke: #A80036; stroke-width: 1.0; stroke-dasharray: 7.0,7.0;"/><!--
@startuml

title Cover Service Hosting 

skinparam LegendBackgroundColor White

skinparam node {
	borderColor<<drift>> Magenta
	borderColor<<hosting>> Blue
	borderColor Red
	
}

skinparam database {
    borderColor Green
    borderColor<<drift>> Magenta
    borderColor<<hosting>> Blue
    borderThickness<<shared node>> 3
}


legend top right
|= |= Type |
|<back:Red>   </back>| Developer |
|<back:Green>   </back>| External |
|<back:Magenta>   </back>| Drift |
|<back:Blue>   </back>| Hosting |
endlegend

package "Front End" {
    component [Upload] as GUI
}

database "FACTOR" {
}

node "Server"  <<hosting>> {
    node "Container" <<developer>> {
        node "Cover Service" as CS {
            [getCover]
            [putCover]
            [deleteCover]
            [updateCover]
        
            interface "getCover/" as GET
            interface "putCover/" as PUT
            interface "deleteCover/" as DELETE
            interface "updateCover/" as UPDATE
            interface "getStat/" as GETS
        }   
    }   

    node "Container Manager" <<drift>> as CM {
    
    }

    database "CoverDB" <<drift>> {
        [Meta Data]
        [Log Data]
    }
    
    node "OS"  <<drift>> {
    
    }

} 

database "Cloudinary" {
    [Stored covers]
}



Container - - - CM
CM -down- OS

GUI - - GET
GUI - - PUT
GUI .. DELETE

GET - - [getCover]
PUT - - [putCover]
DELETE - - [deleteCover]
UPDATE - - [updateCover]
FACTOR - - GETS
GETS - - [Log Data]

[getCover] .. [Meta Data]
[putCover] .. [Meta Data]
[deleteCover] .. [Meta Data]
[updateCover] .. [Meta Data]

[getCover] .. [Stored covers]
[putCover] .. [Stored covers]
[deleteCover] .. [Stored covers]
[updateCover] .. [Stored covers]

@enduml

PlantUML version 1.2019.05(Sat Apr 20 16:45:36 GMT 2019)
(GPL source distribution)
Java Runtime: Java(TM) SE Runtime Environment
JVM: Java HotSpot(TM) 64-Bit Server VM
Java Version: 1.8.0_202-b08
Operating System: Linux
OS Version: 5.0.0-1020-azure
Default Encoding: ANSI_X3.4-1968
Language: en
Country: US
--></g></svg>