<?xml version="1.0" encoding="UTF-8" standalone="no"?><svg xmlns="http://www.w3.org/2000/svg" xmlns:xlink="http://www.w3.org/1999/xlink" contentScriptType="application/ecmascript" contentStyleType="text/css" height="801px" preserveAspectRatio="none" style="width:803px;height:801px;" version="1.1" viewBox="0 0 803 801" width="803px" zoomAndPan="magnify"><defs><filter height="1" id="bcvbiyqig2ct90" width="1" x="0" y="0"><feFlood flood-color="#FF0000" result="flood"/><feComposite in="SourceGraphic" in2="flood" operator="over"/></filter><filter height="1" id="bcvbiyqig2ct91" width="1" x="0" y="0"><feFlood flood-color="#008000" result="flood"/><feComposite in="SourceGraphic" in2="flood" operator="over"/></filter><filter height="1" id="bcvbiyqig2ct92" width="1" x="0" y="0"><feFlood flood-color="#FF00FF" result="flood"/><feComposite in="SourceGraphic" in2="flood" operator="over"/></filter><filter height="1" id="bcvbiyqig2ct93" width="1" x="0" y="0"><feFlood flood-color="#0000FF" result="flood"/><feComposite in="SourceGraphic" in2="flood" operator="over"/></filter><filter height="300%" id="fcvbiyqig2ct9" width="300%" x="-1" y="-1"><feGaussianBlur result="blurOut" stdDeviation="2.0"/><feColorMatrix in="blurOut" result="blurOut2" type="matrix" values="0 0 0 0 0 0 0 0 0 0 0 0 0 0 0 0 0 0 .4 0"/><feOffset dx="4.0" dy="4.0" in="blurOut2" result="blurOut3"/><feBlend in="SourceGraphic" in2="blurOut3" mode="normal"/></filter></defs><g><text fill="#000000" font-family="sans-serif" font-size="18" lengthAdjust="spacingAndGlyphs" textLength="181" x="310" y="16.708">Cover Service Hosting</text><rect fill="#FFFFFF" height="95.4844" rx="5" ry="5" style="stroke: #000000; stroke-width: 1.0;" width="98" x="694" y="28.9531"/><text fill="#000000" font-family="sans-serif" font-size="14" font-weight="bold" lengthAdjust="spacingAndGlyphs" textLength="0" x="704" y="48.9482"/><text fill="#000000" font-family="sans-serif" font-size="14" font-weight="bold" lengthAdjust="spacingAndGlyphs" textLength="33" x="716" y="48.9482">Type</text><text fill="#000000" filter="url(#bcvbiyqig2ct90)" font-family="sans-serif" font-size="14" lengthAdjust="spacingAndGlyphs" textLength="0" x="712" y="65.2451"/><text fill="#000000" font-family="sans-serif" font-size="14" lengthAdjust="spacingAndGlyphs" textLength="66" x="716" y="65.2451">Developer</text><text fill="#000000" filter="url(#bcvbiyqig2ct91)" font-family="sans-serif" font-size="14" lengthAdjust="spacingAndGlyphs" textLength="0" x="712" y="81.542"/><text fill="#000000" font-family="sans-serif" font-size="14" lengthAdjust="spacingAndGlyphs" textLength="51" x="716" y="81.542">External</text><text fill="#000000" filter="url(#bcvbiyqig2ct92)" font-family="sans-serif" font-size="14" lengthAdjust="spacingAndGlyphs" textLength="0" x="712" y="97.8389"/><text fill="#000000" font-family="sans-serif" font-size="14" lengthAdjust="spacingAndGlyphs" textLength="28" x="716" y="97.8389">Drift</text><text fill="#000000" filter="url(#bcvbiyqig2ct93)" font-family="sans-serif" font-size="14" lengthAdjust="spacingAndGlyphs" textLength="0" x="712" y="114.1357"/><text fill="#000000" font-family="sans-serif" font-size="14" lengthAdjust="spacingAndGlyphs" textLength="49" x="716" y="114.1357">Hosting</text><line style="stroke: #000000; stroke-width: 1.0;" x1="700" x2="786" y1="35.9531" y2="35.9531"/><line style="stroke: #000000; stroke-width: 1.0;" x1="700" x2="786" y1="52.25" y2="52.25"/><line style="stroke: #000000; stroke-width: 1.0;" x1="700" x2="786" y1="68.5469" y2="68.5469"/><line style="stroke: #000000; stroke-width: 1.0;" x1="700" x2="786" y1="84.8438" y2="84.8438"/><line style="stroke: #000000; stroke-width: 1.0;" x1="700" x2="786" y1="101.1406" y2="101.1406"/><line style="stroke: #000000; stroke-width: 1.0;" x1="700" x2="786" y1="117.4375" y2="117.4375"/><line style="stroke: #000000; stroke-width: 1.0;" x1="700" x2="700" y1="35.9531" y2="117.4375"/><line style="stroke: #000000; stroke-width: 1.0;" x1="712" x2="712" y1="35.9531" y2="117.4375"/><line style="stroke: #000000; stroke-width: 1.0;" x1="786" x2="786" y1="35.9531" y2="117.4375"/><!--MD5=[0ab5e50cb7c4d5dbbc1bea50a8b4b262]
cluster Front End--><polygon fill="#FFFFFF" filter="url(#fcvbiyqig2ct9)" points="403,149.9375,478,149.9375,485,172.2344,497,172.2344,497,236.9375,403,236.9375,403,149.9375" style="stroke: #FF0000; stroke-width: 1.5;"/><line style="stroke: #FF0000; stroke-width: 1.5;" x1="403" x2="485" y1="172.2344" y2="172.2344"/><text fill="#000000" font-family="sans-serif" font-size="14" font-weight="bold" lengthAdjust="spacingAndGlyphs" textLength="69" x="407" y="164.9326">Front End</text><text fill="#000000" font-family="sans-serif" font-size="14" font-style="italic" lengthAdjust="spacingAndGlyphs" textLength="78" x="415" y="187.2295">«developer»</text><!--MD5=[979da56a7f83e2393dc758167ae295d0]
cluster Server--><polygon fill="#FFFFFF" filter="url(#fcvbiyqig2ct9)" points="14,254.9375,24,244.9375,645,244.9375,645,779.4375,635,789.4375,14,789.4375,14,254.9375" style="stroke: #0000FF; stroke-width: 1.5;"/><line style="stroke: #0000FF; stroke-width: 1.5;" x1="635" x2="644" y1="254.9375" y2="245.9375"/><line style="stroke: #0000FF; stroke-width: 1.5;" x1="14" x2="635" y1="254.9375" y2="254.9375"/><line style="stroke: #0000FF; stroke-width: 1.5;" x1="635" x2="635" y1="254.9375" y2="789.4375"/><text fill="#000000" font-family="sans-serif" font-size="14" font-style="italic" lengthAdjust="spacingAndGlyphs" textLength="61" x="295" y="270.9326">«hosting»</text><text fill="#000000" font-family="sans-serif" font-size="14" font-weight="bold" lengthAdjust="spacingAndGlyphs" textLength="70" x="290.5" y="287.2295">Server HW</text><!--MD5=[8e1ca234e67c2d8bfc0f296ca0077fd7]
cluster Container--><polygon fill="#FFFFFF" filter="url(#fcvbiyqig2ct9)" points="22,302.9375,32,292.9375,637,292.9375,637,532.9375,627,542.9375,22,542.9375,22,302.9375" style="stroke: #FF0000; stroke-width: 1.5;"/><line style="stroke: #FF0000; stroke-width: 1.5;" x1="627" x2="636" y1="302.9375" y2="293.9375"/><line style="stroke: #FF0000; stroke-width: 1.5;" x1="22" x2="627" y1="302.9375" y2="302.9375"/><line style="stroke: #FF0000; stroke-width: 1.5;" x1="627" x2="627" y1="302.9375" y2="542.9375"/><text fill="#000000" font-family="sans-serif" font-size="14" font-style="italic" lengthAdjust="spacingAndGlyphs" textLength="78" x="286.5" y="318.9326">«developer»</text><text fill="#000000" font-family="sans-serif" font-size="14" font-weight="bold" lengthAdjust="spacingAndGlyphs" textLength="69" x="291" y="335.2295">Container</text><!--MD5=[77360c34c269fe663756fb03291e6d1e]
cluster CS--><polygon fill="#FFFFFF" filter="url(#fcvbiyqig2ct9)" points="57,350.9375,67,340.9375,629,340.9375,629,524.9375,619,534.9375,57,534.9375,57,350.9375" style="stroke: #FF0000; stroke-width: 1.5;"/><line style="stroke: #FF0000; stroke-width: 1.5;" x1="619" x2="628" y1="350.9375" y2="341.9375"/><line style="stroke: #FF0000; stroke-width: 1.5;" x1="57" x2="619" y1="350.9375" y2="350.9375"/><line style="stroke: #FF0000; stroke-width: 1.5;" x1="619" x2="619" y1="350.9375" y2="534.9375"/><text fill="#000000" font-family="sans-serif" font-size="14" font-weight="bold" lengthAdjust="spacingAndGlyphs" textLength="92" x="293" y="366.9326">Cover Service</text><!--MD5=[a2583fcde13cb9e984257faf1da30f89]
cluster CoverDB--><path d="M208,560.9375 C208,550.9375 313.5,550.9375 313.5,550.9375 C313.5,550.9375 419,550.9375 419,560.9375 L419,642.9375 C419,652.9375 313.5,652.9375 313.5,652.9375 C313.5,652.9375 208,652.9375 208,642.9375 L208,560.9375 " fill="#FFFFFF" filter="url(#fcvbiyqig2ct9)" style="stroke: #FF00FF; stroke-width: 1.5;"/><path d="M208,560.9375 C208,570.9375 313.5,570.9375 313.5,570.9375 C313.5,570.9375 419,570.9375 419,560.9375 " fill="none" style="stroke: #FF00FF; stroke-width: 1.5;"/><text fill="#000000" font-family="sans-serif" font-size="14" font-style="italic" lengthAdjust="spacingAndGlyphs" textLength="40" x="293.5" y="585.9326">«drift»</text><text fill="#000000" font-family="sans-serif" font-size="14" font-weight="bold" lengthAdjust="spacingAndGlyphs" textLength="59" x="284" y="602.2295">CoverDB</text><!--MD5=[9dd7e611ef0d9e7a574529335928ec55]
cluster Cloudinary--><path d="M653,576.9375 C653,566.9375 714,566.9375 714,566.9375 C714,566.9375 775,566.9375 775,576.9375 L775,642.9375 C775,652.9375 714,652.9375 714,652.9375 C714,652.9375 653,652.9375 653,642.9375 L653,576.9375 " fill="#FFFFFF" filter="url(#fcvbiyqig2ct9)" style="stroke: #008000; stroke-width: 1.5;"/><path d="M653,576.9375 C653,586.9375 714,586.9375 714,586.9375 C714,586.9375 775,586.9375 775,576.9375 " fill="none" style="stroke: #008000; stroke-width: 1.5;"/><text fill="#000000" font-family="sans-serif" font-size="14" font-weight="bold" lengthAdjust="spacingAndGlyphs" textLength="75" x="676.5" y="601.9326">Cloudinary</text><!--MD5=[beb5ad5244d3d849df9473931f7c2e5e]
entity GUI--><rect fill="#FEFECE" filter="url(#fcvbiyqig2ct9)" height="36.2969" style="stroke: #A80036; stroke-width: 1.5;" width="65" x="417.5" y="192.9375"/><rect fill="#FEFECE" height="5" style="stroke: #A80036; stroke-width: 1.5;" width="10" x="412.5" y="197.9375"/><rect fill="#FEFECE" height="5" style="stroke: #A80036; stroke-width: 1.5;" width="10" x="412.5" y="219.2344"/><text fill="#000000" font-family="sans-serif" font-size="14" lengthAdjust="spacingAndGlyphs" textLength="45" x="427.5" y="215.9326">Upload</text><!--MD5=[bd496dbcd62e556f213b4234d8f7f0e7]
entity FAKTOR--><path d="M62,198.4375 C62,188.4375 97,188.4375 97,188.4375 C97,188.4375 132,188.4375 132,198.4375 L132,223.7344 C132,233.7344 97,233.7344 97,233.7344 C97,233.7344 62,233.7344 62,223.7344 L62,198.4375 " fill="#FFFFFF" filter="url(#fcvbiyqig2ct9)" style="stroke: #008000; stroke-width: 1.5;"/><path d="M62,198.4375 C62,208.4375 97,208.4375 97,208.4375 C97,208.4375 132,208.4375 132,198.4375 " fill="none" style="stroke: #008000; stroke-width: 1.5;"/><text fill="#000000" font-family="sans-serif" font-size="14" lengthAdjust="spacingAndGlyphs" textLength="50" x="72" y="225.4326">FAKTOR</text><!--MD5=[5d08a60e4225d66f0917d0df70d42b33]
entity getCover--><rect fill="#FEFECE" filter="url(#fcvbiyqig2ct9)" height="36.2969" style="stroke: #A80036; stroke-width: 1.5;" width="76" x="412" y="490.9375"/><rect fill="#FEFECE" height="5" style="stroke: #A80036; stroke-width: 1.5;" width="10" x="407" y="495.9375"/><rect fill="#FEFECE" height="5" style="stroke: #A80036; stroke-width: 1.5;" width="10" x="407" y="517.2344"/><text fill="#000000" font-family="sans-serif" font-size="14" lengthAdjust="spacingAndGlyphs" textLength="56" x="422" y="513.9326">getCover</text><!--MD5=[f95a9a3562422a0be3b16dd7eabbd99b]
entity putCover--><rect fill="#FEFECE" filter="url(#fcvbiyqig2ct9)" height="36.2969" style="stroke: #A80036; stroke-width: 1.5;" width="77" x="299.5" y="490.9375"/><rect fill="#FEFECE" height="5" style="stroke: #A80036; stroke-width: 1.5;" width="10" x="294.5" y="495.9375"/><rect fill="#FEFECE" height="5" style="stroke: #A80036; stroke-width: 1.5;" width="10" x="294.5" y="517.2344"/><text fill="#000000" font-family="sans-serif" font-size="14" lengthAdjust="spacingAndGlyphs" textLength="57" x="309.5" y="513.9326">putCover</text><!--MD5=[85eb67a2c94268aa16f81ce6ca2440b0]
entity deleteCover--><rect fill="#FEFECE" filter="url(#fcvbiyqig2ct9)" height="36.2969" style="stroke: #A80036; stroke-width: 1.5;" width="97" x="523.5" y="490.9375"/><rect fill="#FEFECE" height="5" style="stroke: #A80036; stroke-width: 1.5;" width="10" x="518.5" y="495.9375"/><rect fill="#FEFECE" height="5" style="stroke: #A80036; stroke-width: 1.5;" width="10" x="518.5" y="517.2344"/><text fill="#000000" font-family="sans-serif" font-size="14" lengthAdjust="spacingAndGlyphs" textLength="77" x="533.5" y="513.9326">deleteCover</text><!--MD5=[69f614ef6f93efa60d56ba5ca805ee42]
entity updateCover--><rect fill="#FEFECE" filter="url(#fcvbiyqig2ct9)" height="36.2969" style="stroke: #A80036; stroke-width: 1.5;" width="100" x="164" y="490.9375"/><rect fill="#FEFECE" height="5" style="stroke: #A80036; stroke-width: 1.5;" width="10" x="159" y="495.9375"/><rect fill="#FEFECE" height="5" style="stroke: #A80036; stroke-width: 1.5;" width="10" x="159" y="517.2344"/><text fill="#000000" font-family="sans-serif" font-size="14" lengthAdjust="spacingAndGlyphs" textLength="80" x="174" y="513.9326">updateCover</text><!--MD5=[70fd517e0f0740f5d86c7b6ca14931ca]
entity GET--><ellipse cx="450" cy="401.9375" fill="#FEFECE" filter="url(#fcvbiyqig2ct9)" rx="8" ry="8" style="stroke: #A80036; stroke-width: 2.0;"/><text fill="#000000" font-family="sans-serif" font-size="14" lengthAdjust="spacingAndGlyphs" textLength="61" x="419.5" y="431.9326">getCover/</text><!--MD5=[d6ee9a073031c8a7c03de8f251f6bce5]
entity PUT--><ellipse cx="338" cy="401.9375" fill="#FEFECE" filter="url(#fcvbiyqig2ct9)" rx="8" ry="8" style="stroke: #A80036; stroke-width: 2.0;"/><text fill="#000000" font-family="sans-serif" font-size="14" lengthAdjust="spacingAndGlyphs" textLength="62" x="307" y="431.9326">putCover/</text><!--MD5=[97edb9438aa9702d71545ed86bbfc94e]
entity DELETE--><ellipse cx="572" cy="401.9375" fill="#FEFECE" filter="url(#fcvbiyqig2ct9)" rx="8" ry="8" style="stroke: #A80036; stroke-width: 2.0;"/><text fill="#000000" font-family="sans-serif" font-size="14" lengthAdjust="spacingAndGlyphs" textLength="82" x="531" y="431.9326">deleteCover/</text><!--MD5=[5a1fcb52ebeba526e25490b12f364f50]
entity UPDATE--><ellipse cx="214" cy="401.9375" fill="#FEFECE" filter="url(#fcvbiyqig2ct9)" rx="8" ry="8" style="stroke: #A80036; stroke-width: 2.0;"/><text fill="#000000" font-family="sans-serif" font-size="14" lengthAdjust="spacingAndGlyphs" textLength="85" x="171.5" y="431.9326">updateCover/</text><!--MD5=[8479602b8f860ae750808727e1c43628]
entity GETS--><ellipse cx="97" cy="401.9375" fill="#FEFECE" filter="url(#fcvbiyqig2ct9)" rx="8" ry="8" style="stroke: #A80036; stroke-width: 2.0;"/><text fill="#000000" font-family="sans-serif" font-size="14" lengthAdjust="spacingAndGlyphs" textLength="49" x="72.5" y="431.9326">getStat/</text><!--MD5=[99f3cfe8ce18ee9cb444babb539f6fb5]
entity CM--><polygon fill="#FFFFFF" filter="url(#fcvbiyqig2ct9)" points="21.5,605.4375,31.5,595.4375,180.5,595.4375,180.5,648.0313,170.5,658.0313,21.5,658.0313,21.5,605.4375" style="stroke: #FF00FF; stroke-width: 1.5;"/><line style="stroke: #FF00FF; stroke-width: 1.5;" x1="170.5" x2="179.5" y1="605.4375" y2="596.4375"/><line style="stroke: #FF00FF; stroke-width: 1.5;" x1="21.5" x2="170.5" y1="605.4375" y2="605.4375"/><line style="stroke: #FF00FF; stroke-width: 1.5;" x1="170.5" x2="170.5" y1="605.4375" y2="658.0313"/><text fill="#000000" font-family="sans-serif" font-size="14" font-style="italic" lengthAdjust="spacingAndGlyphs" textLength="40" x="76" y="628.4326">«drift»</text><text fill="#000000" font-family="sans-serif" font-size="14" lengthAdjust="spacingAndGlyphs" textLength="119" x="36.5" y="644.7295">Container Manager</text><!--MD5=[b18d4a9b0849dfa288ba71a951f1a08b]
entity Meta Data--><rect fill="#FEFECE" filter="url(#fcvbiyqig2ct9)" height="36.2969" style="stroke: #A80036; stroke-width: 1.5;" width="85" x="325.5" y="608.9375"/><rect fill="#FEFECE" height="5" style="stroke: #A80036; stroke-width: 1.5;" width="10" x="320.5" y="613.9375"/><rect fill="#FEFECE" height="5" style="stroke: #A80036; stroke-width: 1.5;" width="10" x="320.5" y="635.2344"/><text fill="#000000" font-family="sans-serif" font-size="14" lengthAdjust="spacingAndGlyphs" textLength="65" x="335.5" y="631.9326">Meta Data</text><!--MD5=[488dc088c8bbb31e8660b4ece84e61da]
entity Log Data--><rect fill="#FEFECE" filter="url(#fcvbiyqig2ct9)" height="36.2969" style="stroke: #A80036; stroke-width: 1.5;" width="75" x="215.5" y="608.9375"/><rect fill="#FEFECE" height="5" style="stroke: #A80036; stroke-width: 1.5;" width="10" x="210.5" y="613.9375"/><rect fill="#FEFECE" height="5" style="stroke: #A80036; stroke-width: 1.5;" width="10" x="210.5" y="635.2344"/><text fill="#000000" font-family="sans-serif" font-size="14" lengthAdjust="spacingAndGlyphs" textLength="55" x="225.5" y="631.9326">Log Data</text><!--MD5=[33c0991a8851763f97139b7ade4f6f84]
entity OS--><polygon fill="#FFFFFF" filter="url(#fcvbiyqig2ct9)" points="24,728.4375,34,718.4375,178,718.4375,178,771.0313,168,781.0313,24,781.0313,24,728.4375" style="stroke: #FF00FF; stroke-width: 1.5;"/><line style="stroke: #FF00FF; stroke-width: 1.5;" x1="168" x2="177" y1="728.4375" y2="719.4375"/><line style="stroke: #FF00FF; stroke-width: 1.5;" x1="24" x2="168" y1="728.4375" y2="728.4375"/><line style="stroke: #FF00FF; stroke-width: 1.5;" x1="168" x2="168" y1="728.4375" y2="781.0313"/><text fill="#000000" font-family="sans-serif" font-size="14" font-style="italic" lengthAdjust="spacingAndGlyphs" textLength="40" x="76" y="751.4326">«drift»</text><text fill="#000000" font-family="sans-serif" font-size="14" lengthAdjust="spacingAndGlyphs" textLength="114" x="39" y="767.7295">Operating System</text><!--MD5=[ebc896d426b39191d173ce545f04f7d2]
entity Stored covers--><rect fill="#FEFECE" filter="url(#fcvbiyqig2ct9)" height="36.2969" style="stroke: #A80036; stroke-width: 1.5;" width="107" x="660.5" y="608.9375"/><rect fill="#FEFECE" height="5" style="stroke: #A80036; stroke-width: 1.5;" width="10" x="655.5" y="613.9375"/><rect fill="#FEFECE" height="5" style="stroke: #A80036; stroke-width: 1.5;" width="10" x="655.5" y="635.2344"/><text fill="#000000" font-family="sans-serif" font-size="14" lengthAdjust="spacingAndGlyphs" textLength="87" x="670.5" y="631.9326">Stored covers</text><!--MD5=[5a35467ccbdaae3cf12c9d86a25b8833]
link Container to CM--><path d="M49,542.9375 C55.5966,561.3439 66.6299,580.0145 76.8403,595.0641 " fill="none" id="Container-CM" style="stroke: #A80036; stroke-width: 1.0;"/><!--MD5=[1f1e668c127ddc523c39b1c27aa8418b]
link CM to OS--><path d="M101,658.6131 C101,676.9774 101,700.0232 101,718.3693 " fill="none" id="CM-OS" style="stroke: #A80036; stroke-width: 1.0;"/><!--MD5=[9981ccd825d33d758706a327f609d4ee]
link GUI to GET--><path d="M450,229.2514 C450,269.214 450,363.0357 450,392.7453 " fill="none" id="GUI-GET" style="stroke: #A80036; stroke-width: 1.0;"/><!--MD5=[8bb080cda503f892ebf4473e237f753b]
link GUI to PUT--><path d="M417.2217,226.2719 C409.1056,231.2987 401.0198,237.5341 395,244.9375 C356.7653,291.9599 342.9691,366.8471 339.1921,392.7597 " fill="none" id="GUI-PUT" style="stroke: #A80036; stroke-width: 1.0;"/><!--MD5=[d2f1d33a065139d78014e0c9ea5aee33]
link GUI to DELETE--><path d="M482.5449,226.0281 C491.0009,231.116 499.5383,237.4433 506,244.9375 C546.3532,291.7388 564.8074,366.7659 570.2235,392.7373 " fill="none" id="GUI-DELETE" style="stroke: #A80036; stroke-width: 1.0; stroke-dasharray: 7.0,7.0;"/><!--MD5=[fef3b563dc5867685f24c42bd45fd5de]
link GET to getCover--><path d="M450,411.0603 C450,428.6476 450,467.544 450,490.6575 " fill="none" id="GET-getCover" style="stroke: #A80036; stroke-width: 1.0;"/><!--MD5=[c29c686d649a7be5d2ee9bac5b48cf8b]
link PUT to putCover--><path d="M338,411.0603 C338,428.6476 338,467.544 338,490.6575 " fill="none" id="PUT-putCover" style="stroke: #A80036; stroke-width: 1.0;"/><!--MD5=[4c034fd454f8e434a42faed49abf3502]
link DELETE to deleteCover--><path d="M572,411.0603 C572,428.6476 572,467.544 572,490.6575 " fill="none" id="DELETE-deleteCover" style="stroke: #A80036; stroke-width: 1.0;"/><!--MD5=[8089cf2644cade24f99771b334ca48c6]
link UPDATE to updateCover--><path d="M214,411.0603 C214,428.6476 214,467.544 214,490.6575 " fill="none" id="UPDATE-updateCover" style="stroke: #A80036; stroke-width: 1.0;"/><!--MD5=[cdacaa59f40bca530948aa1cba3f16f6]
link FAKTOR to GETS--><path d="M97,233.5978 C97,275.6935 97,364.2768 97,392.8477 " fill="none" id="FAKTOR-GETS" style="stroke: #A80036; stroke-width: 1.0;"/><!--MD5=[4531a6195dea9bb25d9311143f6550a1]
link GETS to Log Data--><path d="M97.1561,411.0149 C98.1284,436.4835 104.663,508.9637 147,542.9375 C169.7013,561.1545 187.965,534.5202 212,550.9375 C231.9312,564.5517 243.0092,591.1016 248.4863,608.9317 " fill="none" id="GETS-Log Data" style="stroke: #A80036; stroke-width: 1.0;"/><!--MD5=[c934ea359e918b72e8716c29aec0e310]
link getCover to Meta Data--><path d="M437.3672,527.1164 C421.913,549.3554 395.9119,586.7716 380.5126,608.9316 " fill="none" id="getCover-Meta Data" style="stroke: #A80036; stroke-width: 1.0; stroke-dasharray: 7.0,7.0;"/><!--MD5=[3a88899fbbf3c2b109641c99d93f62e5]
link putCover to Meta Data--><path d="M342.6218,527.1164 C348.2757,549.3554 357.7883,586.7716 363.4222,608.9316 " fill="none" id="putCover-Meta Data" style="stroke: #A80036; stroke-width: 1.0; stroke-dasharray: 7.0,7.0;"/><!--MD5=[90881e0d413bc3143386a73a123ccc03]
link deleteCover to Meta Data--><path d="M540.5721,527.1164 C502.1249,549.3554 437.4393,586.7716 399.1289,608.9316 " fill="none" id="deleteCover-Meta Data" style="stroke: #A80036; stroke-width: 1.0; stroke-dasharray: 7.0,7.0;"/><!--MD5=[b020815cbcc6d2f608de8c709025bd71]
link updateCover to Meta Data--><path d="M247.3922,527.0081 C258.2555,532.5133 270.4829,538.3231 282,542.9375 C293.2229,547.434 298.025,544.1058 308,550.9375 C329.9141,565.946 347.6332,591.3783 357.988,608.6505 " fill="none" id="updateCover-Meta Data" style="stroke: #A80036; stroke-width: 1.0; stroke-dasharray: 7.0,7.0;"/><!--MD5=[9f7c8decd0b8c1e89a747b12efabf4ac]
link getCover to Stored covers--><path d="M477.6977,526.9705 C486.5681,532.4133 496.5442,538.1967 506,542.9375 C557.8731,568.9447 619.8248,593.1338 662.5505,608.8109 " fill="none" id="getCover-Stored covers" style="stroke: #A80036; stroke-width: 1.0; stroke-dasharray: 7.0,7.0;"/><!--MD5=[9d7ba89f7a2173d943944e6d8affac0b]
link putCover to Stored covers--><path d="M364.6946,527.0581 C373.9827,532.7596 384.6684,538.6736 395,542.9375 C408.5512,548.5301 412.8028,547.2833 427,550.9375 C508.4892,571.9121 602.7579,597.0417 660.3692,612.4976 " fill="none" id="putCover-Stored covers" style="stroke: #A80036; stroke-width: 1.0; stroke-dasharray: 7.0,7.0;"/><!--MD5=[ed683b3d09aeb51860567f82c0f59011]
link deleteCover to Stored covers--><path d="M593.8763,527.1164 C620.6385,549.3554 665.6648,586.7716 692.3319,608.9316 " fill="none" id="deleteCover-Stored covers" style="stroke: #A80036; stroke-width: 1.0; stroke-dasharray: 7.0,7.0;"/><!--MD5=[511133c455ca77c0616dc917d3562746]
link updateCover to Stored covers--><path d="M243.4182,526.9391 C255.0218,533.1453 268.7322,539.4168 282,542.9375 C344.3834,559.4916 363.2513,540.8464 427,550.9375 C509.8559,564.0531 603.3581,591.2092 660.4822,609.2526 " fill="none" id="updateCover-Stored covers" style="stroke: #A80036; stroke-width: 1.0; stroke-dasharray: 7.0,7.0;"/><!--MD5=[57313a4988145205069b6caabbe2fcb4]
@startuml

title Cover Service Hosting

skinparam LegendBackgroundColor White

skinparam node {
	borderColor<<drift>> Magenta
	borderColor<<hosting>> Blue
	borderColor Red
	
}

skinparam package {
	borderColor<<developer>> Red
}

skinparam database {
    borderColor Green
    borderColor<<drift>> Magenta
    borderColor<<hosting>> Blue
    borderThickness<<shared node>> 3
}


legend top right
|= |= Type |
|<back:#FF0000>   </back>| Developer |
|<back:Green>   </back>| External |
|<back:Magenta>   </back>| Drift |
|<back:Blue>   </back>| Hosting |
endlegend

package "Front End" <<developer>> {
    component [Upload] as GUI
}

database "FAKTOR" {
}

node "Server HW"  <<hosting>> as Server {
    node "Container" <<developer>> {
        node "Cover Service" as CS {
            [getCover]
            [putCover]
            [deleteCover]
            [updateCover]
        
            interface "getCover/" as GET
            interface "putCover/" as PUT
            interface "deleteCover/" as DELETE
            interface "updateCover/" as UPDATE
            interface "getStat/" as GETS
        }   
    }   

    node "Container Manager" <<drift>> as CM {
    
    }

    database "CoverDB" <<drift>> {
        [Meta Data]
        [Log Data]
    }
    
    node "Operating System"  <<drift>> as OS {
    
    }

} 

database "Cloudinary" {
    [Stored covers]
}



Container - - - CM
CM -down- OS

GUI - - GET
GUI - - PUT
GUI .. DELETE

GET - - [getCover]
PUT - - [putCover]
DELETE - - [deleteCover]
UPDATE - - [updateCover]
FAKTOR - - GETS
GETS - - [Log Data]

[getCover] .. [Meta Data]
[putCover] .. [Meta Data]
[deleteCover] .. [Meta Data]
[updateCover] .. [Meta Data]

[getCover] .. [Stored covers]
[putCover] .. [Stored covers]
[deleteCover] .. [Stored covers]
[updateCover] .. [Stored covers]

@enduml

PlantUML version 1.2019.13(Tue Dec 10 17:18:29 GMT 2019)
(GPL source distribution)
Java Runtime: Java(TM) SE Runtime Environment
JVM: Java HotSpot(TM) 64-Bit Server VM
Java Version: 1.8.0_202-b08
Operating System: Linux
Default Encoding: ANSI_X3.4-1968
Language: en
Country: US
--></g></svg>