<?xml version="1.0" encoding="UTF-8" standalone="no"?><svg xmlns="http://www.w3.org/2000/svg" xmlns:xlink="http://www.w3.org/1999/xlink" contentScriptType="application/ecmascript" contentStyleType="text/css" height="264px" preserveAspectRatio="none" style="width:811px;height:264px;" version="1.1" viewBox="0 0 811 264" width="811px" zoomAndPan="magnify"><defs><filter height="300%" id="f1ed1d35m6a8p7" width="300%" x="-1" y="-1"><feGaussianBlur result="blurOut" stdDeviation="2.0"/><feColorMatrix in="blurOut" result="blurOut2" type="matrix" values="0 0 0 0 0 0 0 0 0 0 0 0 0 0 0 0 0 0 .4 0"/><feOffset dx="4.0" dy="4.0" in="blurOut2" result="blurOut3"/><feBlend in="SourceGraphic" in2="blurOut3" mode="normal"/></filter></defs><g><text fill="#000000" font-family="sans-serif" font-size="18" lengthAdjust="spacingAndGlyphs" textLength="178" x="323.5" y="16.708">Hosting - Fase 1.(one)</text><!--cluster cloud--><polygon fill="#FFFFFF" filter="url(#f1ed1d35m6a8p7)" points="14,46.9531,24,36.9531,510,36.9531,510,242.9531,500,252.9531,14,252.9531,14,46.9531" style="stroke: #000000; stroke-width: 1.5;"/><line style="stroke: #000000; stroke-width: 1.5;" x1="500" x2="509" y1="46.9531" y2="37.9531"/><line style="stroke: #000000; stroke-width: 1.5;" x1="14" x2="500" y1="46.9531" y2="46.9531"/><line style="stroke: #000000; stroke-width: 1.5;" x1="500" x2="500" y1="46.9531" y2="252.9531"/><text fill="#000000" font-family="sans-serif" font-size="14" font-weight="bold" lengthAdjust="spacingAndGlyphs" textLength="40" x="238" y="62.9482">Cloud</text><!--cluster Redmine--><polygon fill="#FFFFFF" filter="url(#f1ed1d35m6a8p7)" points="22,68.9531,89,68.9531,96,91.25,225,91.25,225,244.9531,22,244.9531,22,68.9531" style="stroke: #000000; stroke-width: 1.5;"/><line style="stroke: #000000; stroke-width: 1.5;" x1="22" x2="96" y1="91.25" y2="91.25"/><text fill="#000000" font-family="sans-serif" font-size="14" font-weight="bold" lengthAdjust="spacingAndGlyphs" textLength="61" x="26" y="83.9482">Redmine</text><!--cluster Docker--><polygon fill="#FFFFFF" filter="url(#f1ed1d35m6a8p7)" points="244,68.9531,298,68.9531,305,91.25,502,91.25,502,139.9531,244,139.9531,244,68.9531" style="stroke: #000000; stroke-width: 1.5;"/><line style="stroke: #000000; stroke-width: 1.5;" x1="244" x2="305" y1="91.25" y2="91.25"/><text fill="#000000" font-family="sans-serif" font-size="14" font-weight="bold" lengthAdjust="spacingAndGlyphs" textLength="48" x="248" y="83.9482">Docker</text><!--cluster Data Storage--><path d="M518,164.4531 C518,154.4531 658.5,154.4531 658.5,154.4531 C658.5,154.4531 799,154.4531 799,164.4531 L799,230.4531 C799,240.4531 658.5,240.4531 658.5,240.4531 C658.5,240.4531 518,240.4531 518,230.4531 L518,164.4531 " fill="#FFFFFF" filter="url(#f1ed1d35m6a8p7)" style="stroke: #000000; stroke-width: 1.5;"/><path d="M518,164.4531 C518,174.4531 658.5,174.4531 658.5,174.4531 C658.5,174.4531 799,174.4531 799,164.4531 " fill="none" style="stroke: #000000; stroke-width: 1.5;"/><text fill="#000000" font-family="sans-serif" font-size="14" font-weight="bold" lengthAdjust="spacingAndGlyphs" textLength="90" x="613.5" y="189.4482">Data Storage</text><!--entity IssueCms--><rect fill="#FEFECE" filter="url(#f1ed1d35m6a8p7)" height="36.2969" style="stroke: #A80036; stroke-width: 1.5;" width="103" x="113.5" y="95.9531"/><rect fill="#FEFECE" height="5" style="stroke: #A80036; stroke-width: 1.5;" width="10" x="108.5" y="100.9531"/><rect fill="#FEFECE" height="5" style="stroke: #A80036; stroke-width: 1.5;" width="10" x="108.5" y="122.25"/><text fill="#000000" font-family="sans-serif" font-size="14" lengthAdjust="spacingAndGlyphs" textLength="83" x="123.5" y="118.9482">Issue tracker</text><!--entity WikiCms--><rect fill="#FEFECE" filter="url(#f1ed1d35m6a8p7)" height="36.2969" style="stroke: #A80036; stroke-width: 1.5;" width="48" x="30" y="95.9531"/><rect fill="#FEFECE" height="5" style="stroke: #A80036; stroke-width: 1.5;" width="10" x="25" y="100.9531"/><rect fill="#FEFECE" height="5" style="stroke: #A80036; stroke-width: 1.5;" width="10" x="25" y="122.25"/><text fill="#000000" font-family="sans-serif" font-size="14" lengthAdjust="spacingAndGlyphs" textLength="28" x="40" y="118.9482">Wiki</text><!--entity dbRedmine--><path d="M42.5,201.9531 C42.5,191.9531 123,191.9531 123,191.9531 C123,191.9531 203.5,191.9531 203.5,201.9531 L203.5,227.25 C203.5,237.25 123,237.25 123,237.25 C123,237.25 42.5,237.25 42.5,227.25 L42.5,201.9531 " fill="#FFFFFF" filter="url(#f1ed1d35m6a8p7)" style="stroke: #000000; stroke-width: 1.5;"/><path d="M42.5,201.9531 C42.5,211.9531 123,211.9531 123,211.9531 C123,211.9531 203.5,211.9531 203.5,201.9531 " fill="none" style="stroke: #000000; stroke-width: 1.5;"/><text fill="#000000" font-family="sans-serif" font-size="14" lengthAdjust="spacingAndGlyphs" textLength="141" x="52.5" y="228.9482">Redmine Data Storage</text><!--entity FS--><rect fill="#FEFECE" filter="url(#f1ed1d35m6a8p7)" height="36.2969" style="stroke: #A80036; stroke-width: 1.5;" width="107" x="387.5" y="95.9531"/><rect fill="#FEFECE" height="5" style="stroke: #A80036; stroke-width: 1.5;" width="10" x="382.5" y="100.9531"/><rect fill="#FEFECE" height="5" style="stroke: #A80036; stroke-width: 1.5;" width="10" x="382.5" y="122.25"/><text fill="#000000" font-family="sans-serif" font-size="14" lengthAdjust="spacingAndGlyphs" textLength="87" x="397.5" y="118.9482">Follow search</text><!--entity LH--><rect fill="#FEFECE" filter="url(#f1ed1d35m6a8p7)" height="36.2969" style="stroke: #A80036; stroke-width: 1.5;" width="100" x="252" y="95.9531"/><rect fill="#FEFECE" height="5" style="stroke: #A80036; stroke-width: 1.5;" width="10" x="247" y="100.9531"/><rect fill="#FEFECE" height="5" style="stroke: #A80036; stroke-width: 1.5;" width="10" x="247" y="122.25"/><text fill="#000000" font-family="sans-serif" font-size="14" lengthAdjust="spacingAndGlyphs" textLength="80" x="262" y="118.9482">Loan History</text><!--entity tLH--><rect fill="#FEFECE" filter="url(#f1ed1d35m6a8p7)" height="36.2969" style="stroke: #A80036; stroke-width: 1.5;" width="112" x="526" y="196.4531"/><rect fill="#FEFECE" height="5" style="stroke: #A80036; stroke-width: 1.5;" width="10" x="521" y="201.4531"/><rect fill="#FEFECE" height="5" style="stroke: #A80036; stroke-width: 1.5;" width="10" x="521" y="222.75"/><text fill="#000000" font-family="sans-serif" font-size="14" lengthAdjust="spacingAndGlyphs" textLength="92" x="536" y="219.4482">Loan Histories</text><!--entity tFS--><rect fill="#FEFECE" filter="url(#f1ed1d35m6a8p7)" height="36.2969" style="stroke: #A80036; stroke-width: 1.5;" width="118" x="673" y="196.4531"/><rect fill="#FEFECE" height="5" style="stroke: #A80036; stroke-width: 1.5;" width="10" x="668" y="201.4531"/><rect fill="#FEFECE" height="5" style="stroke: #A80036; stroke-width: 1.5;" width="10" x="668" y="222.75"/><text fill="#000000" font-family="sans-serif" font-size="14" lengthAdjust="spacingAndGlyphs" textLength="98" x="683" y="219.4482">Saved searches</text><!--link IssueCms to dbRedmine--><path d="M157.2966,132.3863 C150.8892,147.7183 141.6763,169.7634 134.4123,187.1452 " fill="none" id="IssueCms-dbRedmine" style="stroke: #A80036; stroke-width: 1.0;"/><polygon fill="#A80036" points="132.4191,191.9146,139.5801,185.153,134.3471,187.3013,132.1988,182.0682,132.4191,191.9146" style="stroke: #A80036; stroke-width: 1.0;"/><!--link WikiCms to dbRedmine--><path d="M66.6557,132.3863 C77.2721,147.8494 92.5766,170.1407 104.5565,187.5898 " fill="none" id="WikiCms-dbRedmine" style="stroke: #A80036; stroke-width: 1.0;"/><polygon fill="#A80036" points="107.5258,191.9146,105.7292,182.231,104.6957,187.7927,99.134,186.7592,107.5258,191.9146" style="stroke: #A80036; stroke-width: 1.0;"/><!--link FS to tFS--><path d="M494.837,116.9325 C539.6773,121.064 604.3198,130.9239 656,154.4531 C676.4179,163.749 696.2014,179.6583 710.4633,192.7596 " fill="none" id="FS-tFS" style="stroke: #A80036; stroke-width: 1.0;"/><polygon fill="#A80036" points="714.3354,196.3726,710.4839,187.3081,710.6796,192.9616,705.0262,193.1573,714.3354,196.3726" style="stroke: #A80036; stroke-width: 1.0;"/><!--link LH to tLH--><path d="M348.7591,132.0236 C355.8635,134.7135 363.1177,137.4286 370,139.9531 C422.0183,159.0338 481.5701,179.8734 524.2855,194.6474 " fill="none" id="LH-tLH" style="stroke: #A80036; stroke-width: 1.0;"/><polygon fill="#A80036" points="529.1478,196.3281,521.9485,189.6073,524.4222,194.6946,519.3348,197.1683,529.1478,196.3281" style="stroke: #A80036; stroke-width: 1.0;"/><!--
@startuml

title Hosting - Fase 1.(one)

node "Cloud" as cloud {
    package "Redmine" {
        component [Issue tracker] as IssueCms
        component [Wiki] as WikiCms
        database "Redmine Data Storage" as dbRedmine {
        } 
    }
    package "Docker" {
        component [Follow search] as FS
        component [Loan History] as LH
    }
} 

database "Data Storage" {
    [Loan Histories] as tLH
    [Saved searches] as tFS
}


IssueCms - -> dbRedmine
WikiCms - -> dbRedmine

FS -down-> tFS
LH -down-> tLH

@enduml

PlantUML version 1.2019.05(Sat Apr 20 16:45:36 GMT 2019)
(GPL source distribution)
Java Runtime: Java(TM) SE Runtime Environment
JVM: Java HotSpot(TM) 64-Bit Server VM
Java Version: 1.8.0_202-b08
Operating System: Linux
OS Version: 5.0.0-1020-azure
Default Encoding: ANSI_X3.4-1968
Language: en
Country: US
--></g></svg>