<?xml version="1.0" encoding="UTF-8" standalone="no"?><svg xmlns="http://www.w3.org/2000/svg" xmlns:xlink="http://www.w3.org/1999/xlink" contentScriptType="application/ecmascript" contentStyleType="text/css" height="285px" preserveAspectRatio="none" style="width:300px;height:285px;" version="1.1" viewBox="0 0 300 285" width="300px" zoomAndPan="magnify"><defs><filter height="300%" id="f1j2viy3mfkbj7" width="300%" x="-1" y="-1"><feGaussianBlur result="blurOut" stdDeviation="2.0"/><feColorMatrix in="blurOut" result="blurOut2" type="matrix" values="0 0 0 0 0 0 0 0 0 0 0 0 0 0 0 0 0 0 .4 0"/><feOffset dx="4.0" dy="4.0" in="blurOut2" result="blurOut3"/><feBlend in="SourceGraphic" in2="blurOut3" mode="normal"/></filter></defs><g><text fill="#000000" font-family="sans-serif" font-size="18" lengthAdjust="spacingAndGlyphs" textLength="138" x="85" y="16.708">DDB list services</text><!--entity DDBCMS--><rect fill="#F8F8F8" filter="url(#f1j2viy3mfkbj7)" height="36.2969" style="stroke: #383838; stroke-width: 1.5;" width="80" x="49" y="28.9531"/><rect fill="#F8F8F8" height="5" style="stroke: #383838; stroke-width: 1.5;" width="10" x="44" y="33.9531"/><rect fill="#F8F8F8" height="5" style="stroke: #383838; stroke-width: 1.5;" width="10" x="44" y="55.25"/><text fill="#000000" font-family="sans-serif" font-size="14" lengthAdjust="spacingAndGlyphs" textLength="60" x="59" y="51.9482">DDB CMS</text><!--entity APP--><rect fill="#F8F8F8" filter="url(#f1j2viy3mfkbj7)" height="36.2969" style="stroke: #383838; stroke-width: 1.5;" width="78" x="164" y="28.9531"/><rect fill="#F8F8F8" height="5" style="stroke: #383838; stroke-width: 1.5;" width="10" x="159" y="33.9531"/><rect fill="#F8F8F8" height="5" style="stroke: #383838; stroke-width: 1.5;" width="10" x="159" y="55.25"/><text fill="#000000" font-family="sans-serif" font-size="14" lengthAdjust="spacingAndGlyphs" textLength="58" x="174" y="51.9482">DDB App</text><!--entity MatList--><rect fill="#F8F8F8" filter="url(#f1j2viy3mfkbj7)" height="52.5938" style="stroke: #383838; stroke-width: 1.5;" width="72" x="6" y="124.9531"/><rect fill="#F8F8F8" height="5" style="stroke: #383838; stroke-width: 1.5;" width="10" x="1" y="129.9531"/><rect fill="#F8F8F8" height="5" style="stroke: #383838; stroke-width: 1.5;" width="10" x="1" y="167.5469"/><text fill="#000000" font-family="sans-serif" font-size="14" lengthAdjust="spacingAndGlyphs" textLength="52" x="16" y="147.9482">Material</text><text fill="#000000" font-family="sans-serif" font-size="14" lengthAdjust="spacingAndGlyphs" textLength="23" x="16" y="164.2451">List</text><!--entity SubService--><rect fill="#F8F8F8" filter="url(#f1j2viy3mfkbj7)" height="36.2969" style="stroke: #383838; stroke-width: 1.5;" width="99" x="95.5" y="237.9531"/><rect fill="#F8F8F8" height="5" style="stroke: #383838; stroke-width: 1.5;" width="10" x="90.5" y="242.9531"/><rect fill="#F8F8F8" height="5" style="stroke: #383838; stroke-width: 1.5;" width="10" x="90.5" y="264.25"/><text fill="#000000" font-family="sans-serif" font-size="14" lengthAdjust="spacingAndGlyphs" textLength="79" x="105.5" y="260.9482">Subscription</text><!--entity Loans--><rect fill="#F8F8F8" filter="url(#f1j2viy3mfkbj7)" height="52.5938" style="stroke: #383838; stroke-width: 1.5;" width="64" x="113" y="124.9531"/><rect fill="#F8F8F8" height="5" style="stroke: #383838; stroke-width: 1.5;" width="10" x="108" y="129.9531"/><rect fill="#F8F8F8" height="5" style="stroke: #383838; stroke-width: 1.5;" width="10" x="108" y="167.5469"/><text fill="#000000" font-family="sans-serif" font-size="14" lengthAdjust="spacingAndGlyphs" textLength="30" x="123" y="147.9482">Loan</text><text fill="#000000" font-family="sans-serif" font-size="14" lengthAdjust="spacingAndGlyphs" textLength="44" x="123" y="164.2451">history</text><!--entity Searchs--><rect fill="#F8F8F8" filter="url(#f1j2viy3mfkbj7)" height="52.5938" style="stroke: #383838; stroke-width: 1.5;" width="77" x="212.5" y="124.9531"/><rect fill="#F8F8F8" height="5" style="stroke: #383838; stroke-width: 1.5;" width="10" x="207.5" y="129.9531"/><rect fill="#F8F8F8" height="5" style="stroke: #383838; stroke-width: 1.5;" width="10" x="207.5" y="167.5469"/><text fill="#000000" font-family="sans-serif" font-size="14" lengthAdjust="spacingAndGlyphs" textLength="37" x="222.5" y="147.9482">Folow</text><text fill="#000000" font-family="sans-serif" font-size="14" lengthAdjust="spacingAndGlyphs" textLength="57" x="222.5" y="164.2451">searches</text><!--link DDBCMS to Loans--><path d="M98.7545,65.1556 C106.901,80.3577 118.6973,102.3705 128.3368,120.3584 " fill="none" id="DDBCMS-Loans" style="stroke: #383838; stroke-width: 1.0;"/><polygon fill="#383838" points="130.7375,124.8383,130.0121,115.0162,128.3758,120.4312,122.9608,118.7949,130.7375,124.8383" style="stroke: #383838; stroke-width: 1.0;"/><!--link DDBCMS to MatList--><path d="M80.8132,65.1556 C74.0339,80.2288 64.243,101.9979 56.1912,119.9003 " fill="none" id="DDBCMS-MatList" style="stroke: #383838; stroke-width: 1.0;"/><polygon fill="#383838" points="53.9703,124.8383,61.31,118.2711,56.0212,120.2783,54.014,114.9896,53.9703,124.8383" style="stroke: #383838; stroke-width: 1.0;"/><!--link DDBCMS to Searchs--><path d="M117.2182,65.1556 C142.2585,81.3081 179.2186,105.1497 207.949,123.6825 " fill="none" id="DDBCMS-Searchs" style="stroke: #383838; stroke-width: 1.0;"/><polygon fill="#383838" points="212.4863,126.6094,207.0914,118.3695,208.2846,123.8991,202.755,125.0923,212.4863,126.6094" style="stroke: #383838; stroke-width: 1.0;"/><!--link APP to Loans--><path d="M192.8972,65.1556 C184.4597,80.3577 172.242,102.3705 162.2583,120.3584 " fill="none" id="APP-Loans" style="stroke: #383838; stroke-width: 1.0;"/><polygon fill="#383838" points="159.7718,124.8383,167.6368,118.9103,162.1983,120.4666,160.642,115.028,159.7718,124.8383" style="stroke: #383838; stroke-width: 1.0;"/><!--link APP to MatList--><path d="M174.9559,65.1556 C149.4716,81.6967 111.5642,106.3012 82.7392,125.0106 " fill="none" id="APP-MatList" style="stroke: #383838; stroke-width: 1.0;"/><polygon fill="#383838" points="78.1942,127.9606,87.9212,126.416,82.3882,125.2385,83.5657,119.7055,78.1942,127.9606" style="stroke: #383838; stroke-width: 1.0;"/><!--link APP to Searchs--><path d="M211.361,65.1556 C218.2845,80.2288 228.2837,101.9979 236.5068,119.9003 " fill="none" id="APP-Searchs" style="stroke: #383838; stroke-width: 1.0;"/><polygon fill="#383838" points="238.775,124.8383,238.653,114.9902,236.6879,120.2948,231.3833,118.3296,238.775,124.8383" style="stroke: #383838; stroke-width: 1.0;"/><!--link Loans to SubService--><path d="M145,178.0932 C145,194.9351 145,216.4934 145,232.6531 " fill="none" id="Loans-SubService" style="stroke: #383838; stroke-width: 1.0;"/><polygon fill="#383838" points="145,237.9118,149,228.9118,145,232.9118,141,228.9118,145,237.9118" style="stroke: #383838; stroke-width: 1.0;"/><!--link MatList to SubService--><path d="M68.2578,178.0932 C85.4353,195.5209 107.5905,217.9988 123.6767,234.3193 " fill="none" id="MatList-SubService" style="stroke: #383838; stroke-width: 1.0;"/><polygon fill="#383838" points="127.2176,237.9118,123.7486,228.6941,123.7077,234.3508,118.051,234.3099,127.2176,237.9118" style="stroke: #383838; stroke-width: 1.0;"/><!--link Searchs to SubService--><path d="M223.9775,178.0932 C206.2996,195.5209 183.4991,217.9988 166.9443,234.3193 " fill="none" id="Searchs-SubService" style="stroke: #383838; stroke-width: 1.0;"/><polygon fill="#383838" points="163.3003,237.9118,172.5176,234.4418,166.8609,234.4015,166.9011,228.7448,163.3003,237.9118" style="stroke: #383838; stroke-width: 1.0;"/><!--
@startuml
title DDB list services

skinparam monochrome true

[DDBCMS]     as "DDB CMS"
[APP]       as "DDB App"
[MatList]    as "Material\nList"
[SubService] as "Subscription"
[Loans]         as "Loan\nhistory"
[Searchs]        as "Folow\nsearches"


DDBCMS - -> Loans
DDBCMS - -> MatList
DDBCMS - -> Searchs

APP - -> Loans
APP - -> MatList
APP - -> Searchs

Loans - -> SubService
MatList - -> SubService
Searchs - -> SubService


@enduml

PlantUML version 1.2019.05(Sat Apr 20 16:45:36 GMT 2019)
(GPL source distribution)
Java Runtime: Java(TM) SE Runtime Environment
JVM: Java HotSpot(TM) 64-Bit Server VM
Java Version: 1.8.0_202-b08
Operating System: Linux
OS Version: 5.0.0-1023-azure
Default Encoding: ANSI_X3.4-1968
Language: en
Country: US
--></g></svg>