<?xml version="1.0" encoding="UTF-8" standalone="no"?><svg xmlns="http://www.w3.org/2000/svg" xmlns:xlink="http://www.w3.org/1999/xlink" contentScriptType="application/ecmascript" contentStyleType="text/css" height="1232px" preserveAspectRatio="none" style="width:472px;height:1232px;" version="1.1" viewBox="0 0 472 1232" width="472px" zoomAndPan="magnify"><defs><filter height="300%" id="f1islgz7un6hb6" width="300%" x="-1" y="-1"><feGaussianBlur result="blurOut" stdDeviation="2.0"/><feColorMatrix in="blurOut" result="blurOut2" type="matrix" values="0 0 0 0 0 0 0 0 0 0 0 0 0 0 0 0 0 0 .4 0"/><feOffset dx="4.0" dy="4.0" in="blurOut2" result="blurOut3"/><feBlend in="SourceGraphic" in2="blurOut3" mode="normal"/></filter></defs><g><text fill="#000000" font-family="sans-serif" font-size="14" font-weight="bold" lengthAdjust="spacingAndGlyphs" textLength="295" x="89.75" y="22.9951">Material List Service + Subscription Service</text><rect fill="#FFFFFF" filter="url(#f1islgz7un6hb6)" height="380.5938" style="stroke: #000000; stroke-width: 2.0;" width="418.5" x="33" y="114.8906"/><rect fill="#FFFFFF" filter="url(#f1islgz7un6hb6)" height="75.3984" style="stroke: #000000; stroke-width: 2.0;" width="236.5" x="205" y="226.4219"/><rect fill="#FFFFFF" filter="url(#f1islgz7un6hb6)" height="59.2656" style="stroke: #000000; stroke-width: 2.0;" width="122" x="205" y="357.9531"/><rect fill="#FFFFFF" filter="url(#f1islgz7un6hb6)" height="137.6641" style="stroke: #000000; stroke-width: 2.0;" width="270" x="23" y="509.4844"/><rect fill="#FFFFFF" filter="url(#f1islgz7un6hb6)" height="77.3984" style="stroke: #000000; stroke-width: 2.0;" width="250" x="33" y="562.75"/><rect fill="#FFFFFF" height="31.1328" style="stroke: none; stroke-width: 1.0;" width="250" x="33" y="609.0156"/><rect fill="#FFFFFF" filter="url(#f1islgz7un6hb6)" height="240.0625" style="stroke: #000000; stroke-width: 2.0;" width="356" x="13" y="661.1484"/><rect fill="#FFFFFF" filter="url(#f1islgz7un6hb6)" height="179.7969" style="stroke: #000000; stroke-width: 2.0;" width="336" x="23" y="714.4141"/><rect fill="#FFFFFF" filter="url(#f1islgz7un6hb6)" height="88.3984" style="stroke: #000000; stroke-width: 2.0;" width="316" x="33" y="738.5469"/><rect fill="#FFFFFF" height="31.1328" style="stroke: none; stroke-width: 1.0;" width="336" x="23" y="863.0781"/><rect fill="#FFFFFF" filter="url(#f1islgz7un6hb6)" height="227.0625" style="stroke: #000000; stroke-width: 2.0;" width="438.5" x="23" y="915.2109"/><rect fill="#FFFFFF" filter="url(#f1islgz7un6hb6)" height="166.7969" style="stroke: #000000; stroke-width: 2.0;" width="418.5" x="33" y="968.4766"/><rect fill="#FFFFFF" filter="url(#f1islgz7un6hb6)" height="75.3984" style="stroke: #000000; stroke-width: 2.0;" width="236.5" x="205" y="992.6094"/><rect fill="#FFFFFF" height="31.1328" style="stroke: none; stroke-width: 1.0;" width="418.5" x="33" y="1104.1406"/><line style="stroke: #383838; stroke-width: 1.0; stroke-dasharray: 5.0,5.0;" x1="76" x2="76" y1="97.8906" y2="1159.2734"/><line style="stroke: #383838; stroke-width: 1.0; stroke-dasharray: 5.0,5.0;" x1="244" x2="244" y1="97.8906" y2="1159.2734"/><line style="stroke: #383838; stroke-width: 1.0; stroke-dasharray: 5.0,5.0;" x1="388.5" x2="388.5" y1="97.8906" y2="1159.2734"/><text fill="#000000" font-family="sans-serif" font-size="14" lengthAdjust="spacingAndGlyphs" textLength="60" x="43" y="94.5889">DDB CMS</text><path d="M55.5,53.5938 L55.5,77.5938 M55.5,65.5938 L72.5,65.5938 " fill="none" filter="url(#f1islgz7un6hb6)" style="stroke: #383838; stroke-width: 2.0;"/><ellipse cx="84.5" cy="65.5938" fill="#F8F8F8" filter="url(#f1islgz7un6hb6)" rx="12" ry="12" style="stroke: #383838; stroke-width: 2.0;"/><text fill="#000000" font-family="sans-serif" font-size="14" lengthAdjust="spacingAndGlyphs" textLength="60" x="43" y="1171.2686">DDB CMS</text><path d="M55.5,1178.5703 L55.5,1202.5703 M55.5,1190.5703 L72.5,1190.5703 " fill="none" filter="url(#f1islgz7un6hb6)" style="stroke: #383838; stroke-width: 2.0;"/><ellipse cx="84.5" cy="1190.5703" fill="#F8F8F8" filter="url(#f1islgz7un6hb6)" rx="12" ry="12" style="stroke: #383838; stroke-width: 2.0;"/><text fill="#000000" font-family="sans-serif" font-size="14" lengthAdjust="spacingAndGlyphs" textLength="52" x="215" y="78.292">Material</text><text fill="#000000" font-family="sans-serif" font-size="14" lengthAdjust="spacingAndGlyphs" textLength="23" x="229.5" y="94.5889">List</text><path d="M223.5,37.2969 L223.5,61.2969 M223.5,49.2969 L240.5,49.2969 " fill="none" filter="url(#f1islgz7un6hb6)" style="stroke: #383838; stroke-width: 2.0;"/><ellipse cx="252.5" cy="49.2969" fill="#F8F8F8" filter="url(#f1islgz7un6hb6)" rx="12" ry="12" style="stroke: #383838; stroke-width: 2.0;"/><text fill="#000000" font-family="sans-serif" font-size="14" lengthAdjust="spacingAndGlyphs" textLength="52" x="215" y="1171.2686">Material</text><text fill="#000000" font-family="sans-serif" font-size="14" lengthAdjust="spacingAndGlyphs" textLength="23" x="229.5" y="1187.5654">List</text><path d="M223.5,1194.8672 L223.5,1218.8672 M223.5,1206.8672 L240.5,1206.8672 " fill="none" filter="url(#f1islgz7un6hb6)" style="stroke: #383838; stroke-width: 2.0;"/><ellipse cx="252.5" cy="1206.8672" fill="#F8F8F8" filter="url(#f1islgz7un6hb6)" rx="12" ry="12" style="stroke: #383838; stroke-width: 2.0;"/><text fill="#000000" font-family="sans-serif" font-size="14" lengthAdjust="spacingAndGlyphs" textLength="79" x="346.5" y="94.5889">Subscription</text><path d="M371,45.5938 C371,35.5938 389,35.5938 389,35.5938 C389,35.5938 407,35.5938 407,45.5938 L407,71.5938 C407,81.5938 389,81.5938 389,81.5938 C389,81.5938 371,81.5938 371,71.5938 L371,45.5938 " fill="#F8F8F8" filter="url(#f1islgz7un6hb6)" style="stroke: #000000; stroke-width: 1.5;"/><path d="M371,45.5938 C371,55.5938 389,55.5938 389,55.5938 C389,55.5938 407,55.5938 407,45.5938 " fill="none" style="stroke: #000000; stroke-width: 1.5;"/><text fill="#000000" font-family="sans-serif" font-size="14" lengthAdjust="spacingAndGlyphs" textLength="79" x="346.5" y="1171.2686">Subscription</text><path d="M371,1184.5703 C371,1174.5703 389,1174.5703 389,1174.5703 C389,1174.5703 407,1174.5703 407,1184.5703 L407,1210.5703 C407,1220.5703 389,1220.5703 389,1220.5703 C389,1220.5703 371,1220.5703 371,1210.5703 L371,1184.5703 " fill="#F8F8F8" filter="url(#f1islgz7un6hb6)" style="stroke: #000000; stroke-width: 1.5;"/><path d="M371,1184.5703 C371,1194.5703 389,1194.5703 389,1194.5703 C389,1194.5703 407,1194.5703 407,1184.5703 " fill="none" style="stroke: #000000; stroke-width: 1.5;"/><path d="M33,114.8906 L175,114.8906 L175,121.8906 L165,131.8906 L33,131.8906 L33,114.8906 " fill="#EEEEEE" style="stroke: #000000; stroke-width: 1.0;"/><rect fill="none" height="380.5938" style="stroke: #000000; stroke-width: 2.0;" width="418.5" x="33" y="114.8906"/><text fill="#000000" font-family="sans-serif" font-size="13" font-weight="bold" lengthAdjust="spacingAndGlyphs" textLength="97" x="48" y="127.9575">Add item to list</text><polygon fill="#383838" points="232,149.1563,242,153.1563,232,157.1563,236,153.1563" style="stroke: #383838; stroke-width: 1.0;"/><line style="stroke: #383838; stroke-width: 1.0;" x1="76" x2="238" y1="153.1563" y2="153.1563"/><text fill="#000000" font-family="sans-serif" font-size="13" lengthAdjust="spacingAndGlyphs" textLength="86" x="83" y="148.0903">Add item to list</text><polygon fill="#383838" points="377,178.2891,387,182.2891,377,186.2891,381,182.2891" style="stroke: #383838; stroke-width: 1.0;"/><line style="stroke: #383838; stroke-width: 1.0;" x1="244" x2="383" y1="182.2891" y2="182.2891"/><text fill="#000000" font-family="sans-serif" font-size="13" lengthAdjust="spacingAndGlyphs" textLength="84" x="251" y="177.2231">Has accepted?</text><polygon fill="#383838" points="255,207.4219,245,211.4219,255,215.4219,251,211.4219" style="stroke: #383838; stroke-width: 1.0;"/><line style="stroke: #383838; stroke-width: 1.0; stroke-dasharray: 2.0,2.0;" x1="249" x2="388" y1="211.4219" y2="211.4219"/><text fill="#000000" font-family="sans-serif" font-size="13" lengthAdjust="spacingAndGlyphs" textLength="70" x="261" y="206.356">TRUE/FALSE</text><path d="M205,226.4219 L268,226.4219 L268,233.4219 L258,243.4219 L205,243.4219 L205,226.4219 " fill="#EEEEEE" style="stroke: #000000; stroke-width: 1.0;"/><rect fill="none" height="75.3984" style="stroke: #000000; stroke-width: 2.0;" width="236.5" x="205" y="226.4219"/><text fill="#000000" font-family="sans-serif" font-size="13" font-weight="bold" lengthAdjust="spacingAndGlyphs" textLength="18" x="220" y="239.4888">alt</text><text fill="#000000" font-family="sans-serif" font-size="11" font-weight="bold" lengthAdjust="spacingAndGlyphs" textLength="138" x="283" y="238.6323">[FALSE: Not accepted yet]</text><polygon fill="#383838" points="377,260.6875,387,264.6875,377,268.6875,381,264.6875" style="stroke: #383838; stroke-width: 1.0;"/><line style="stroke: #383838; stroke-width: 1.0;" x1="244" x2="383" y1="264.6875" y2="264.6875"/><text fill="#000000" font-family="sans-serif" font-size="13" lengthAdjust="spacingAndGlyphs" textLength="114" x="251" y="259.6216">Create subscription</text><polygon fill="#383838" points="255,289.8203,245,293.8203,255,297.8203,251,293.8203" style="stroke: #383838; stroke-width: 1.0;"/><line style="stroke: #383838; stroke-width: 1.0; stroke-dasharray: 2.0,2.0;" x1="249" x2="388" y1="293.8203" y2="293.8203"/><text fill="#000000" font-family="sans-serif" font-size="13" lengthAdjust="spacingAndGlyphs" textLength="121" x="261" y="288.7544">Subscription created</text><line style="stroke: #383838; stroke-width: 1.0;" x1="244" x2="286" y1="329.9531" y2="329.9531"/><line style="stroke: #383838; stroke-width: 1.0;" x1="286" x2="286" y1="329.9531" y2="342.9531"/><line style="stroke: #383838; stroke-width: 1.0;" x1="245" x2="286" y1="342.9531" y2="342.9531"/><polygon fill="#383838" points="255,338.9531,245,342.9531,255,346.9531,251,342.9531" style="stroke: #383838; stroke-width: 1.0;"/><text fill="#000000" font-family="sans-serif" font-size="13" lengthAdjust="spacingAndGlyphs" textLength="110" x="251" y="324.8872">List does not exist?</text><path d="M205,357.9531 L268,357.9531 L268,364.9531 L258,374.9531 L205,374.9531 L205,357.9531 " fill="#EEEEEE" style="stroke: #000000; stroke-width: 1.0;"/><rect fill="none" height="59.2656" style="stroke: #000000; stroke-width: 2.0;" width="122" x="205" y="357.9531"/><text fill="#000000" font-family="sans-serif" font-size="13" font-weight="bold" lengthAdjust="spacingAndGlyphs" textLength="18" x="220" y="371.02">alt</text><text fill="#000000" font-family="sans-serif" font-size="11" font-weight="bold" lengthAdjust="spacingAndGlyphs" textLength="39" x="283" y="370.1636">[FALSE]</text><line style="stroke: #383838; stroke-width: 1.0;" x1="244" x2="286" y1="396.2188" y2="396.2188"/><line style="stroke: #383838; stroke-width: 1.0;" x1="286" x2="286" y1="396.2188" y2="409.2188"/><line style="stroke: #383838; stroke-width: 1.0;" x1="245" x2="286" y1="409.2188" y2="409.2188"/><polygon fill="#383838" points="255,405.2188,245,409.2188,255,413.2188,251,409.2188" style="stroke: #383838; stroke-width: 1.0;"/><text fill="#000000" font-family="sans-serif" font-size="13" lengthAdjust="spacingAndGlyphs" textLength="57" x="251" y="391.1528">Create list</text><line style="stroke: #383838; stroke-width: 1.0;" x1="244" x2="286" y1="445.3516" y2="445.3516"/><line style="stroke: #383838; stroke-width: 1.0;" x1="286" x2="286" y1="445.3516" y2="458.3516"/><line style="stroke: #383838; stroke-width: 1.0;" x1="245" x2="286" y1="458.3516" y2="458.3516"/><polygon fill="#383838" points="255,454.3516,245,458.3516,255,462.3516,251,458.3516" style="stroke: #383838; stroke-width: 1.0;"/><text fill="#000000" font-family="sans-serif" font-size="13" lengthAdjust="spacingAndGlyphs" textLength="86" x="251" y="440.2856">Add item to list</text><polygon fill="#383838" points="87,483.4844,77,487.4844,87,491.4844,83,487.4844" style="stroke: #383838; stroke-width: 1.0;"/><line style="stroke: #383838; stroke-width: 1.0; stroke-dasharray: 2.0,2.0;" x1="81" x2="243" y1="487.4844" y2="487.4844"/><text fill="#000000" font-family="sans-serif" font-size="13" lengthAdjust="spacingAndGlyphs" textLength="59" x="93" y="482.4185">Return list</text><path d="M23,509.4844 L114,509.4844 L114,516.4844 L104,526.4844 L23,526.4844 L23,509.4844 " fill="#EEEEEE" style="stroke: #000000; stroke-width: 1.0;"/><rect fill="none" height="137.6641" style="stroke: #000000; stroke-width: 2.0;" width="270" x="23" y="509.4844"/><text fill="#000000" font-family="sans-serif" font-size="13" font-weight="bold" lengthAdjust="spacingAndGlyphs" textLength="46" x="38" y="522.5513">Get list</text><polygon fill="#383838" points="232,543.75,242,547.75,232,551.75,236,547.75" style="stroke: #383838; stroke-width: 1.0;"/><line style="stroke: #383838; stroke-width: 1.0;" x1="76" x2="238" y1="547.75" y2="547.75"/><text fill="#000000" font-family="sans-serif" font-size="13" lengthAdjust="spacingAndGlyphs" textLength="39" x="83" y="542.6841">Get list</text><path d="M33,562.75 L96,562.75 L96,569.75 L86,579.75 L33,579.75 L33,562.75 " fill="#EEEEEE" style="stroke: #000000; stroke-width: 1.0;"/><rect fill="none" height="77.3984" style="stroke: #000000; stroke-width: 2.0;" width="250" x="33" y="562.75"/><text fill="#000000" font-family="sans-serif" font-size="13" font-weight="bold" lengthAdjust="spacingAndGlyphs" textLength="18" x="48" y="575.8169">alt</text><text fill="#000000" font-family="sans-serif" font-size="11" font-weight="bold" lengthAdjust="spacingAndGlyphs" textLength="61" x="111" y="574.9604">[List exists]</text><polygon fill="#383838" points="87,597.0156,77,601.0156,87,605.0156,83,601.0156" style="stroke: #383838; stroke-width: 1.0;"/><line style="stroke: #383838; stroke-width: 1.0; stroke-dasharray: 2.0,2.0;" x1="81" x2="243" y1="601.0156" y2="601.0156"/><text fill="#000000" font-family="sans-serif" font-size="13" lengthAdjust="spacingAndGlyphs" textLength="59" x="93" y="595.9497">Return list</text><line style="stroke: #000000; stroke-width: 1.0; stroke-dasharray: 2.0,2.0;" x1="33" x2="283" y1="610.0156" y2="610.0156"/><polygon fill="#383838" points="87,628.1484,77,632.1484,87,636.1484,83,632.1484" style="stroke: #383838; stroke-width: 1.0;"/><line style="stroke: #383838; stroke-width: 1.0; stroke-dasharray: 2.0,2.0;" x1="81" x2="243" y1="632.1484" y2="632.1484"/><text fill="#000000" font-family="sans-serif" font-size="13" lengthAdjust="spacingAndGlyphs" textLength="95" x="93" y="627.0825">Return List error</text><path d="M13,661.1484 L199,661.1484 L199,668.1484 L189,678.1484 L13,678.1484 L13,661.1484 " fill="#EEEEEE" style="stroke: #000000; stroke-width: 1.0;"/><rect fill="none" height="240.0625" style="stroke: #000000; stroke-width: 2.0;" width="356" x="13" y="661.1484"/><text fill="#000000" font-family="sans-serif" font-size="13" font-weight="bold" lengthAdjust="spacingAndGlyphs" textLength="141" x="28" y="674.2153">Remove item from list</text><polygon fill="#383838" points="232,695.4141,242,699.4141,232,703.4141,236,699.4141" style="stroke: #383838; stroke-width: 1.0;"/><line style="stroke: #383838; stroke-width: 1.0;" x1="76" x2="238" y1="699.4141" y2="699.4141"/><text fill="#000000" font-family="sans-serif" font-size="13" lengthAdjust="spacingAndGlyphs" textLength="144" x="83" y="694.3481">Remove item from list list</text><path d="M23,714.4141 L86,714.4141 L86,721.4141 L76,731.4141 L23,731.4141 L23,714.4141 " fill="#EEEEEE" style="stroke: #000000; stroke-width: 1.0;"/><rect fill="none" height="179.7969" style="stroke: #000000; stroke-width: 2.0;" width="336" x="23" y="714.4141"/><text fill="#000000" font-family="sans-serif" font-size="13" font-weight="bold" lengthAdjust="spacingAndGlyphs" textLength="18" x="38" y="727.481">alt</text><text fill="#000000" font-family="sans-serif" font-size="11" font-weight="bold" lengthAdjust="spacingAndGlyphs" textLength="61" x="101" y="726.6245">[List exists]</text><path d="M33,738.5469 L96,738.5469 L96,745.5469 L86,755.5469 L33,755.5469 L33,738.5469 " fill="#EEEEEE" style="stroke: #000000; stroke-width: 1.0;"/><rect fill="none" height="88.3984" style="stroke: #000000; stroke-width: 2.0;" width="316" x="33" y="738.5469"/><text fill="#000000" font-family="sans-serif" font-size="13" font-weight="bold" lengthAdjust="spacingAndGlyphs" textLength="18" x="48" y="751.6138">alt</text><text fill="#000000" font-family="sans-serif" font-size="11" font-weight="bold" lengthAdjust="spacingAndGlyphs" textLength="106" x="111" y="750.7573">[Item exists on List]</text><line style="stroke: #383838; stroke-width: 1.0;" x1="244" x2="286" y1="776.8125" y2="776.8125"/><line style="stroke: #383838; stroke-width: 1.0;" x1="286" x2="286" y1="776.8125" y2="789.8125"/><line style="stroke: #383838; stroke-width: 1.0;" x1="245" x2="286" y1="789.8125" y2="789.8125"/><polygon fill="#383838" points="255,785.8125,245,789.8125,255,793.8125,251,789.8125" style="stroke: #383838; stroke-width: 1.0;"/><text fill="#000000" font-family="sans-serif" font-size="13" lengthAdjust="spacingAndGlyphs" textLength="86" x="251" y="771.7466">Removing item</text><polygon fill="#383838" points="87,814.9453,77,818.9453,87,822.9453,83,818.9453" style="stroke: #383838; stroke-width: 1.0;"/><line style="stroke: #383838; stroke-width: 1.0; stroke-dasharray: 2.0,2.0;" x1="81" x2="243" y1="818.9453" y2="818.9453"/><text fill="#000000" font-family="sans-serif" font-size="13" lengthAdjust="spacingAndGlyphs" textLength="83" x="93" y="813.8794">Removed item</text><polygon fill="#383838" points="87,851.0781,77,855.0781,87,859.0781,83,855.0781" style="stroke: #383838; stroke-width: 1.0;"/><line style="stroke: #383838; stroke-width: 1.0; stroke-dasharray: 2.0,2.0;" x1="81" x2="243" y1="855.0781" y2="855.0781"/><text fill="#000000" font-family="sans-serif" font-size="13" lengthAdjust="spacingAndGlyphs" textLength="101" x="93" y="850.0122">Return item error</text><line style="stroke: #000000; stroke-width: 1.0; stroke-dasharray: 2.0,2.0;" x1="23" x2="359" y1="864.0781" y2="864.0781"/><polygon fill="#383838" points="87,882.2109,77,886.2109,87,890.2109,83,886.2109" style="stroke: #383838; stroke-width: 1.0;"/><line style="stroke: #383838; stroke-width: 1.0; stroke-dasharray: 2.0,2.0;" x1="81" x2="243" y1="886.2109" y2="886.2109"/><text fill="#000000" font-family="sans-serif" font-size="13" lengthAdjust="spacingAndGlyphs" textLength="95" x="93" y="881.145">Return List error</text><path d="M23,915.2109 L142,915.2109 L142,922.2109 L132,932.2109 L23,932.2109 L23,915.2109 " fill="#EEEEEE" style="stroke: #000000; stroke-width: 1.0;"/><rect fill="none" height="227.0625" style="stroke: #000000; stroke-width: 2.0;" width="438.5" x="23" y="915.2109"/><text fill="#000000" font-family="sans-serif" font-size="13" font-weight="bold" lengthAdjust="spacingAndGlyphs" textLength="74" x="38" y="928.2778">Remove list</text><polygon fill="#383838" points="232,949.4766,242,953.4766,232,957.4766,236,953.4766" style="stroke: #383838; stroke-width: 1.0;"/><line style="stroke: #383838; stroke-width: 1.0;" x1="76" x2="238" y1="953.4766" y2="953.4766"/><text fill="#000000" font-family="sans-serif" font-size="13" lengthAdjust="spacingAndGlyphs" textLength="66" x="83" y="948.4106">Remove list</text><path d="M33,968.4766 L96,968.4766 L96,975.4766 L86,985.4766 L33,985.4766 L33,968.4766 " fill="#EEEEEE" style="stroke: #000000; stroke-width: 1.0;"/><rect fill="none" height="166.7969" style="stroke: #000000; stroke-width: 2.0;" width="418.5" x="33" y="968.4766"/><text fill="#000000" font-family="sans-serif" font-size="13" font-weight="bold" lengthAdjust="spacingAndGlyphs" textLength="18" x="48" y="981.5435">alt</text><text fill="#000000" font-family="sans-serif" font-size="11" font-weight="bold" lengthAdjust="spacingAndGlyphs" textLength="61" x="111" y="980.687">[List exists]</text><path d="M205,992.6094 L354,992.6094 L354,999.6094 L344,1009.6094 L205,1009.6094 L205,992.6094 " fill="#EEEEEE" style="stroke: #000000; stroke-width: 1.0;"/><rect fill="none" height="75.3984" style="stroke: #000000; stroke-width: 2.0;" width="236.5" x="205" y="992.6094"/><text fill="#000000" font-family="sans-serif" font-size="13" font-weight="bold" lengthAdjust="spacingAndGlyphs" textLength="104" x="220" y="1005.6763">Remove accept?</text><polygon fill="#383838" points="377,1026.875,387,1030.875,377,1034.875,381,1030.875" style="stroke: #383838; stroke-width: 1.0;"/><line style="stroke: #383838; stroke-width: 1.0;" x1="244" x2="383" y1="1030.875" y2="1030.875"/><text fill="#000000" font-family="sans-serif" font-size="13" lengthAdjust="spacingAndGlyphs" textLength="88" x="251" y="1025.8091">Remove accept</text><polygon fill="#383838" points="255,1056.0078,245,1060.0078,255,1064.0078,251,1060.0078" style="stroke: #383838; stroke-width: 1.0;"/><line style="stroke: #383838; stroke-width: 1.0; stroke-dasharray: 2.0,2.0;" x1="249" x2="388" y1="1060.0078" y2="1060.0078"/><text fill="#000000" font-family="sans-serif" font-size="13" lengthAdjust="spacingAndGlyphs" textLength="94" x="261" y="1054.9419">Accept removed</text><polygon fill="#383838" points="87,1092.1406,77,1096.1406,87,1100.1406,83,1096.1406" style="stroke: #383838; stroke-width: 1.0;"/><line style="stroke: #383838; stroke-width: 1.0; stroke-dasharray: 2.0,2.0;" x1="81" x2="243" y1="1096.1406" y2="1096.1406"/><text fill="#000000" font-family="sans-serif" font-size="13" lengthAdjust="spacingAndGlyphs" textLength="74" x="93" y="1091.0747">Removed list</text><line style="stroke: #000000; stroke-width: 1.0; stroke-dasharray: 2.0,2.0;" x1="33" x2="451.5" y1="1105.1406" y2="1105.1406"/><polygon fill="#383838" points="87,1123.2734,77,1127.2734,87,1131.2734,83,1127.2734" style="stroke: #383838; stroke-width: 1.0;"/><line style="stroke: #383838; stroke-width: 1.0; stroke-dasharray: 2.0,2.0;" x1="81" x2="243" y1="1127.2734" y2="1127.2734"/><text fill="#000000" font-family="sans-serif" font-size="13" lengthAdjust="spacingAndGlyphs" textLength="95" x="93" y="1122.2075">Return List error</text><!--MD5=[554367316ca9f8e8121b196cecbc2a91]
@startuml
title Material List Service + Subscription Service


skinparam monochrome true

boundary DDBCMS     as "DDB CMS"
boundary MatList    as "Material\nList"
database SubService as "Subscription"

group Add item to list

    DDBCMS->MatList: Add item to list
    
    MatList->SubService: Has accepted?
    SubService- ->MatList: TRUE/FALSE
    alt FALSE: Not accepted yet
        MatList->SubService: Create subscription
        SubService- ->MatList: Subscription created
    end
    MatList->MatList: List does not exist?
    alt FALSE
    MatList->MatList: Create list
    end
    MatList->MatList: Add item to list
    MatList- ->DDBCMS: Return list


end

group Get list

    DDBCMS->MatList: Get list
    alt List exists
        MatList- ->DDBCMS: Return list
    else
        MatList- ->DDBCMS: Return List error
    end

end

group Remove item from list

    DDBCMS->MatList: Remove item from list list
    alt List exists
        alt Item exists on List
            MatList->MatList: Removing item
            MatList- ->DDBCMS: Removed item
        end
        MatList- ->DDBCMS: Return item error
    else
        MatList- ->DDBCMS: Return List error
    end

end


group Remove list

    DDBCMS->MatList: Remove list
    alt List exists
        group Remove accept?
            MatList->SubService: Remove accept
            SubService- ->MatList: Accept removed
        end
        MatList- ->DDBCMS: Removed list
    else
        MatList- ->DDBCMS: Return List error
    end

end


@enduml

PlantUML version 1.2019.13(Tue Dec 10 17:18:29 GMT 2019)
(GPL source distribution)
Java Runtime: Java(TM) SE Runtime Environment
JVM: Java HotSpot(TM) 64-Bit Server VM
Java Version: 1.8.0_202-b08
Operating System: Linux
Default Encoding: ANSI_X3.4-1968
Language: en
Country: US
--></g></svg>