<?xml version="1.0" encoding="UTF-8" standalone="no"?><svg xmlns="http://www.w3.org/2000/svg" xmlns:xlink="http://www.w3.org/1999/xlink" contentScriptType="application/ecmascript" contentStyleType="text/css" height="424px" preserveAspectRatio="none" style="width:404px;height:424px;" version="1.1" viewBox="0 0 404 424" width="404px" zoomAndPan="magnify"><defs><filter height="300%" id="f140hajxa38ty0" width="300%" x="-1" y="-1"><feGaussianBlur result="blurOut" stdDeviation="2.0"/><feColorMatrix in="blurOut" result="blurOut2" type="matrix" values="0 0 0 0 0 0 0 0 0 0 0 0 0 0 0 0 0 0 .4 0"/><feOffset dx="4.0" dy="4.0" in="blurOut2" result="blurOut3"/><feBlend in="SourceGraphic" in2="blurOut3" mode="normal"/></filter></defs><g><text fill="#000000" font-family="sans-serif" font-size="14" font-weight="bold" lengthAdjust="spacingAndGlyphs" textLength="121" x="142.5" y="22.9951">Material List flow</text><line style="stroke: #383838; stroke-width: 1.0; stroke-dasharray: 5.0,5.0;" x1="41" x2="41" y1="97.8906" y2="350.9531"/><line style="stroke: #383838; stroke-width: 1.0; stroke-dasharray: 5.0,5.0;" x1="134" x2="134" y1="97.8906" y2="350.9531"/><line style="stroke: #383838; stroke-width: 1.0; stroke-dasharray: 5.0,5.0;" x1="245" x2="245" y1="97.8906" y2="350.9531"/><line style="stroke: #383838; stroke-width: 1.0; stroke-dasharray: 5.0,5.0;" x1="357" x2="357" y1="97.8906" y2="350.9531"/><text fill="#000000" font-family="sans-serif" font-size="14" lengthAdjust="spacingAndGlyphs" textLength="60" x="8" y="94.5889">DDB CMS</text><path d="M20.5,53.5938 L20.5,77.5938 M20.5,65.5938 L37.5,65.5938 " fill="none" filter="url(#f140hajxa38ty0)" style="stroke: #383838; stroke-width: 2.0;"/><ellipse cx="49.5" cy="65.5938" fill="#F8F8F8" filter="url(#f140hajxa38ty0)" rx="12" ry="12" style="stroke: #383838; stroke-width: 2.0;"/><text fill="#000000" font-family="sans-serif" font-size="14" lengthAdjust="spacingAndGlyphs" textLength="60" x="8" y="362.9482">DDB CMS</text><path d="M20.5,370.25 L20.5,394.25 M20.5,382.25 L37.5,382.25 " fill="none" filter="url(#f140hajxa38ty0)" style="stroke: #383838; stroke-width: 2.0;"/><ellipse cx="49.5" cy="382.25" fill="#F8F8F8" filter="url(#f140hajxa38ty0)" rx="12" ry="12" style="stroke: #383838; stroke-width: 2.0;"/><text fill="#000000" font-family="sans-serif" font-size="14" lengthAdjust="spacingAndGlyphs" textLength="47" x="107.5" y="78.292">oAuth /</text><a href="https://auth.dbc.dk" target="_top" title="https://auth.dbc.dk" xlink:actuate="onRequest" xlink:href="https://auth.dbc.dk" xlink:show="new" xlink:title="https://auth.dbc.dk" xlink:type="simple"><text fill="#1C1C1C" font-family="sans-serif" font-size="14" lengthAdjust="spacingAndGlyphs" text-decoration="underline" textLength="74" x="94" y="94.5889">auth.dbc.dk</text></a><path d="M113.5,37.2969 L113.5,61.2969 M113.5,49.2969 L130.5,49.2969 " fill="none" filter="url(#f140hajxa38ty0)" style="stroke: #383838; stroke-width: 2.0;"/><ellipse cx="142.5" cy="49.2969" fill="#F8F8F8" filter="url(#f140hajxa38ty0)" rx="12" ry="12" style="stroke: #383838; stroke-width: 2.0;"/><text fill="#000000" font-family="sans-serif" font-size="14" lengthAdjust="spacingAndGlyphs" textLength="47" x="107.5" y="362.9482">oAuth /</text><a href="https://auth.dbc.dk" target="_top" title="https://auth.dbc.dk" xlink:actuate="onRequest" xlink:href="https://auth.dbc.dk" xlink:show="new" xlink:title="https://auth.dbc.dk" xlink:type="simple"><text fill="#1C1C1C" font-family="sans-serif" font-size="14" lengthAdjust="spacingAndGlyphs" text-decoration="underline" textLength="74" x="94" y="379.2451">auth.dbc.dk</text></a><path d="M113.5,386.5469 L113.5,410.5469 M113.5,398.5469 L130.5,398.5469 " fill="none" filter="url(#f140hajxa38ty0)" style="stroke: #383838; stroke-width: 2.0;"/><ellipse cx="142.5" cy="398.5469" fill="#F8F8F8" filter="url(#f140hajxa38ty0)" rx="12" ry="12" style="stroke: #383838; stroke-width: 2.0;"/><text fill="#000000" font-family="sans-serif" font-size="14" lengthAdjust="spacingAndGlyphs" textLength="116" x="184" y="78.292">Adgangsplatform /</text><a href="https://login.bib.dk/" target="_top" title="https://login.bib.dk/" xlink:actuate="onRequest" xlink:href="https://login.bib.dk/" xlink:show="new" xlink:title="https://login.bib.dk/" xlink:type="simple"><text fill="#1C1C1C" font-family="sans-serif" font-size="14" lengthAdjust="spacingAndGlyphs" text-decoration="underline" textLength="74" x="205" y="94.5889">login.bib.dk</text></a><path d="M224.5,37.2969 L224.5,61.2969 M224.5,49.2969 L241.5,49.2969 " fill="none" filter="url(#f140hajxa38ty0)" style="stroke: #383838; stroke-width: 2.0;"/><ellipse cx="253.5" cy="49.2969" fill="#F8F8F8" filter="url(#f140hajxa38ty0)" rx="12" ry="12" style="stroke: #383838; stroke-width: 2.0;"/><text fill="#000000" font-family="sans-serif" font-size="14" lengthAdjust="spacingAndGlyphs" textLength="116" x="184" y="362.9482">Adgangsplatform /</text><a href="https://login.bib.dk/" target="_top" title="https://login.bib.dk/" xlink:actuate="onRequest" xlink:href="https://login.bib.dk/" xlink:show="new" xlink:title="https://login.bib.dk/" xlink:type="simple"><text fill="#1C1C1C" font-family="sans-serif" font-size="14" lengthAdjust="spacingAndGlyphs" text-decoration="underline" textLength="74" x="205" y="379.2451">login.bib.dk</text></a><path d="M224.5,386.5469 L224.5,410.5469 M224.5,398.5469 L241.5,398.5469 " fill="none" filter="url(#f140hajxa38ty0)" style="stroke: #383838; stroke-width: 2.0;"/><ellipse cx="253.5" cy="398.5469" fill="#F8F8F8" filter="url(#f140hajxa38ty0)" rx="12" ry="12" style="stroke: #383838; stroke-width: 2.0;"/><text fill="#000000" font-family="sans-serif" font-size="14" lengthAdjust="spacingAndGlyphs" textLength="76" x="316" y="94.5889">Material list</text><path d="M339,45.5938 C339,35.5938 357,35.5938 357,35.5938 C357,35.5938 375,35.5938 375,45.5938 L375,71.5938 C375,81.5938 357,81.5938 357,81.5938 C357,81.5938 339,81.5938 339,71.5938 L339,45.5938 " fill="#F8F8F8" filter="url(#f140hajxa38ty0)" style="stroke: #000000; stroke-width: 1.5;"/><path d="M339,45.5938 C339,55.5938 357,55.5938 357,55.5938 C357,55.5938 375,55.5938 375,45.5938 " fill="none" style="stroke: #000000; stroke-width: 1.5;"/><text fill="#000000" font-family="sans-serif" font-size="14" lengthAdjust="spacingAndGlyphs" textLength="76" x="316" y="362.9482">Material list</text><path d="M339,376.25 C339,366.25 357,366.25 357,366.25 C357,366.25 375,366.25 375,376.25 L375,402.25 C375,412.25 357,412.25 357,412.25 C357,412.25 339,412.25 339,402.25 L339,376.25 " fill="#F8F8F8" filter="url(#f140hajxa38ty0)" style="stroke: #000000; stroke-width: 1.5;"/><path d="M339,376.25 C339,386.25 357,386.25 357,386.25 C357,386.25 375,386.25 375,376.25 " fill="none" style="stroke: #000000; stroke-width: 1.5;"/><polygon fill="#383838" points="122,125.0234,132,129.0234,122,133.0234,126,129.0234" style="stroke: #383838; stroke-width: 1.0;"/><line style="stroke: #383838; stroke-width: 1.0;" x1="41" x2="128" y1="129.0234" y2="129.0234"/><text fill="#000000" font-family="sans-serif" font-size="13" lengthAdjust="spacingAndGlyphs" textLength="49" x="48" y="123.9575">Client_id</text><polygon fill="#383838" points="52,154.1563,42,158.1563,52,162.1563,48,158.1563" style="stroke: #383838; stroke-width: 1.0;"/><line style="stroke: #383838; stroke-width: 1.0; stroke-dasharray: 2.0,2.0;" x1="46" x2="133" y1="158.1563" y2="158.1563"/><text fill="#000000" font-family="sans-serif" font-size="13" lengthAdjust="spacingAndGlyphs" textLength="69" x="58" y="153.0903">ClientToken</text><polygon fill="#383838" points="233,183.2891,243,187.2891,233,191.2891,237,187.2891" style="stroke: #383838; stroke-width: 1.0;"/><line style="stroke: #383838; stroke-width: 1.0;" x1="41" x2="239" y1="187.2891" y2="187.2891"/><text fill="#000000" font-family="sans-serif" font-size="13" lengthAdjust="spacingAndGlyphs" textLength="23" x="48" y="182.2231">CPR</text><polygon fill="#383838" points="52,212.4219,42,216.4219,52,220.4219,48,216.4219" style="stroke: #383838; stroke-width: 1.0;"/><line style="stroke: #383838; stroke-width: 1.0; stroke-dasharray: 2.0,2.0;" x1="46" x2="244" y1="216.4219" y2="216.4219"/><text fill="#000000" font-family="sans-serif" font-size="13" lengthAdjust="spacingAndGlyphs" textLength="108" x="58" y="211.356">UserToken + GUID</text><polygon fill="#383838" points="345,241.5547,355,245.5547,345,249.5547,349,245.5547" style="stroke: #383838; stroke-width: 1.0;"/><line style="stroke: #383838; stroke-width: 1.0;" x1="41" x2="351" y1="245.5547" y2="245.5547"/><text fill="#000000" font-family="sans-serif" font-size="13" lengthAdjust="spacingAndGlyphs" textLength="158" x="48" y="240.4888">UserToken + GUID (+ listId)</text><polygon fill="#383838" points="256,270.6875,246,274.6875,256,278.6875,252,274.6875" style="stroke: #383838; stroke-width: 1.0;"/><line style="stroke: #383838; stroke-width: 1.0;" x1="250" x2="356" y1="274.6875" y2="274.6875"/><text fill="#000000" font-family="sans-serif" font-size="13" lengthAdjust="spacingAndGlyphs" textLength="63" x="262" y="269.6216">UserToken</text><polygon fill="#383838" points="345,299.8203,355,303.8203,345,307.8203,349,303.8203" style="stroke: #383838; stroke-width: 1.0;"/><line style="stroke: #383838; stroke-width: 1.0; stroke-dasharray: 2.0,2.0;" x1="245" x2="351" y1="303.8203" y2="303.8203"/><text fill="#000000" font-family="sans-serif" font-size="13" lengthAdjust="spacingAndGlyphs" textLength="18" x="252" y="298.7544">OK</text><polygon fill="#383838" points="52,328.9531,42,332.9531,52,336.9531,48,332.9531" style="stroke: #383838; stroke-width: 1.0;"/><line style="stroke: #383838; stroke-width: 1.0; stroke-dasharray: 2.0,2.0;" x1="46" x2="356" y1="332.9531" y2="332.9531"/><text fill="#000000" font-family="sans-serif" font-size="13" lengthAdjust="spacingAndGlyphs" textLength="19" x="58" y="327.8872">List</text><!--MD5=[6e959879de6ee32a5dd05d151f89c1a9]
@startuml						
title   Material List flow
						
skinparam monochrome true						

boundary "DDB CMS"
boundary "oAuth /\n[[https://auth.dbc.dk auth.dbc.dk]]" as oAuth
boundary "Adgangsplatform /\n[[https://login.bib.dk/ login.bib.dk]]" as Adgangsplatform
database "Material list"


"DDB CMS" -> "oAuth" : Client_id
"oAuth" - -> "DDB CMS" : ClientToken

"DDB CMS" -> "Adgangsplatform" : CPR
"Adgangsplatform" - -> "DDB CMS": UserToken + GUID

"DDB CMS" -> "Material list" : UserToken + GUID (+ listId)
"Material list" -> "Adgangsplatform" : UserToken
"Adgangsplatform" - -> "Material list" : OK 
"Material list" - -> "DDB CMS" : List

@enduml

PlantUML version 1.2019.13(Tue Dec 10 17:18:29 GMT 2019)
(GPL source distribution)
Java Runtime: Java(TM) SE Runtime Environment
JVM: Java HotSpot(TM) 64-Bit Server VM
Java Version: 1.8.0_202-b08
Operating System: Linux
Default Encoding: ANSI_X3.4-1968
Language: en
Country: US
--></g></svg>