<?xml version="1.0" encoding="UTF-8" standalone="no"?><svg xmlns="http://www.w3.org/2000/svg" xmlns:xlink="http://www.w3.org/1999/xlink" contentScriptType="application/ecmascript" contentStyleType="text/css" height="355px" preserveAspectRatio="none" style="width:345px;height:355px;" version="1.1" viewBox="0 0 345 355" width="345px" zoomAndPan="magnify"><defs><filter height="300%" id="f1w7od6e02xz25" width="300%" x="-1" y="-1"><feGaussianBlur result="blurOut" stdDeviation="2.0"/><feColorMatrix in="blurOut" result="blurOut2" type="matrix" values="0 0 0 0 0 0 0 0 0 0 0 0 0 0 0 0 0 0 .4 0"/><feOffset dx="4.0" dy="4.0" in="blurOut2" result="blurOut3"/><feBlend in="SourceGraphic" in2="blurOut3" mode="normal"/></filter></defs><g><text fill="#000000" font-family="sans-serif" font-size="18" lengthAdjust="spacingAndGlyphs" textLength="289" x="32" y="16.708">Objects in Open Platform  /storage</text><!--MD5=[17737e49c286898813382e12d6080e03]
entity Service--><ellipse cx="128.5" cy="38.4531" fill="#FEFECE" filter="url(#f1w7od6e02xz25)" rx="8" ry="8" style="stroke: #A80036; stroke-width: 1.5;"/><path d="M128.5,46.4531 L128.5,73.4531 M115.5,54.4531 L141.5,54.4531 M128.5,73.4531 L115.5,88.4531 M128.5,73.4531 L141.5,88.4531 " fill="none" filter="url(#f1w7od6e02xz25)" style="stroke: #A80036; stroke-width: 1.5;"/><text fill="#000000" font-family="sans-serif" font-size="14" lengthAdjust="spacingAndGlyphs" textLength="46" x="105.5" y="106.9482">Service</text><ellipse cx="79.4711" cy="187.0473" fill="#FEFECE" filter="url(#f1w7od6e02xz25)" rx="73.4711" ry="17.0942" style="stroke: #A80036; stroke-width: 1.5;"/><text fill="#000000" font-family="sans-serif" font-size="14" lengthAdjust="spacingAndGlyphs" textLength="115" x="21.9711" y="191.6958">PUT a JSON object</text><!--MD5=[620bbab942aa5111a4dc21e1ab8c233d]
entity "/storage"--><ellipse cx="261.5" cy="273.4531" fill="#FEFECE" filter="url(#f1w7od6e02xz25)" rx="8" ry="8" style="stroke: #A80036; stroke-width: 1.5;"/><path d="M261.5,281.4531 L261.5,308.4531 M248.5,289.4531 L274.5,289.4531 M261.5,308.4531 L248.5,323.4531 M261.5,308.4531 L274.5,323.4531 " fill="none" filter="url(#f1w7od6e02xz25)" style="stroke: #A80036; stroke-width: 1.5;"/><text fill="#000000" font-family="sans-serif" font-size="14" lengthAdjust="spacingAndGlyphs" textLength="64" x="229.5" y="341.9482">"/storage"</text><ellipse cx="261.5637" cy="186.9659" fill="#FEFECE" filter="url(#f1w7od6e02xz25)" rx="73.0637" ry="17.0127" style="stroke: #A80036; stroke-width: 1.5;"/><text fill="#000000" font-family="sans-serif" font-size="14" lengthAdjust="spacingAndGlyphs" textLength="114" x="204.5637" y="191.6143">GET a JSON object</text><!--MD5=[26d67a3002bd09023e70231eda9154a3]
entity Service2--><ellipse cx="261.5" cy="38.4531" fill="#FEFECE" filter="url(#f1w7od6e02xz25)" rx="8" ry="8" style="stroke: #A80036; stroke-width: 1.5;"/><path d="M261.5,46.4531 L261.5,73.4531 M248.5,54.4531 L274.5,54.4531 M261.5,73.4531 L248.5,88.4531 M261.5,73.4531 L274.5,88.4531 " fill="none" filter="url(#f1w7od6e02xz25)" style="stroke: #A80036; stroke-width: 1.5;"/><text fill="#000000" font-family="sans-serif" font-size="14" lengthAdjust="spacingAndGlyphs" textLength="54" x="234.5" y="106.9482">Service2</text><!--MD5=[6a42fd61abf6bdbcc37a8f051ba979cf]
link Service to PUT a JSON object--><path d="M111.4997,110.2191 C103.8508,128.5608 95.1226,149.4907 88.7161,164.8534 " fill="none" id="Service-&gt;PUT a JSON object" style="stroke: #A80036; stroke-width: 1.0;"/><polygon fill="#A80036" points="86.6373,169.8381,93.7934,163.0712,88.5619,165.2234,86.4098,159.9919,86.6373,169.8381" style="stroke: #A80036; stroke-width: 1.0;"/><!--MD5=[736d449e1da54d7eb45214745b1aa963]
link PUT a JSON object to "/storage"--><path d="M104.4247,203.0446 C135.5772,223.1568 189.1446,257.7401 224.9406,280.8502 " fill="none" id="PUT a JSON object-&gt;&quot;/storage&quot;" style="stroke: #A80036; stroke-width: 1.0;"/><polygon fill="#A80036" points="229.2151,283.6098,223.8235,275.3678,225.0145,280.8979,219.4844,282.0888,229.2151,283.6098" style="stroke: #A80036; stroke-width: 1.0;"/><!--MD5=[d207563c1636eeadb9972ac0d6880f2d]
link Service to GET a JSON object--><path d="M151.6668,89.92 C176.2514,111.6395 214.8311,145.7231 239.1142,167.1762 " fill="none" id="Service-&gt;GET a JSON object" style="stroke: #A80036; stroke-width: 1.0;"/><polygon fill="#A80036" points="242.8844,170.507,238.7879,161.5505,239.1373,167.1966,233.4912,167.546,242.8844,170.507" style="stroke: #A80036; stroke-width: 1.0;"/><!--MD5=[906a620aeda3757379aa34f3e419bdc6]
link GET a JSON object to "/storage"--><path d="M252.1914,204.0386 C249.2564,218.2925 248.1987,239.2879 249.0184,258.4004 " fill="none" id="GET a JSON object-&gt;&quot;/storage&quot;" style="stroke: #A80036; stroke-width: 1.0;"/><polygon fill="#A80036" points="249.2994,263.734,252.8202,254.536,249.0363,258.741,244.8313,254.957,249.2994,263.734" style="stroke: #A80036; stroke-width: 1.0;"/><!--MD5=[906a620aeda3757379aa34f3e419bdc6]
link GET a JSON object to "/storage"--><path d="M271.3562,204.0386 C274.4639,218.2925 275.5837,239.2879 274.7158,258.4004 " fill="none" id="GET a JSON object-&gt;&quot;/storage&quot;-1" style="stroke: #A80036; stroke-width: 1.0;"/><polygon fill="#A80036" points="274.4182,263.734,278.9134,254.9709,274.6968,258.7418,270.9258,254.5251,274.4182,263.734" style="stroke: #A80036; stroke-width: 1.0;"/><!--MD5=[32524a7b3d7cd77f8fd8acc2bef85183]
link Service2 to GET a JSON object--><path d="M261.5,110.2191 C261.5,128.4013 261.5,149.1269 261.5,164.4514 " fill="none" id="Service2-&gt;GET a JSON object" style="stroke: #A80036; stroke-width: 1.0;"/><polygon fill="#A80036" points="261.5,169.8381,265.5,160.8381,261.5,164.8381,257.5,160.8381,261.5,169.8381" style="stroke: #A80036; stroke-width: 1.0;"/><!--MD5=[10269fda79f28dc996e18f594be2e7a3]
@startuml
title
    Objects in Open Platform  /storage
end title



:Service: - -> (PUT a JSON object)
(PUT a JSON object) - -> :"/storage":


:Service: - -> (GET a JSON object)
(GET a JSON object) - -> :"/storage":



:Service2: - -> (GET a JSON object)
(GET a JSON object) - -> :"/storage":


@enduml

PlantUML version 1.2019.13(Tue Dec 10 17:18:29 GMT 2019)
(GPL source distribution)
Java Runtime: Java(TM) SE Runtime Environment
JVM: Java HotSpot(TM) 64-Bit Server VM
Java Version: 1.8.0_202-b08
Operating System: Linux
Default Encoding: ANSI_X3.4-1968
Language: en
Country: US
--></g></svg>