<?xml version="1.0" encoding="UTF-8" standalone="no"?><svg xmlns="http://www.w3.org/2000/svg" xmlns:xlink="http://www.w3.org/1999/xlink" contentScriptType="application/ecmascript" contentStyleType="text/css" height="359px" preserveAspectRatio="none" style="width:345px;height:359px;" version="1.1" viewBox="0 0 345 359" width="345px" zoomAndPan="magnify"><defs><filter height="300%" id="f1w7od6e02xz25" width="300%" x="-1" y="-1"><feGaussianBlur result="blurOut" stdDeviation="2.0"/><feColorMatrix in="blurOut" result="blurOut2" type="matrix" values="0 0 0 0 0 0 0 0 0 0 0 0 0 0 0 0 0 0 .4 0"/><feOffset dx="4.0" dy="4.0" in="blurOut2" result="blurOut3"/><feBlend in="SourceGraphic" in2="blurOut3" mode="normal"/></filter></defs><g><text fill="#000000" font-family="sans-serif" font-size="18" lengthAdjust="spacingAndGlyphs" textLength="289" x="32" y="16.708">Objects in Open Platform  /storage</text><!--entity Service--><ellipse cx="128.5" cy="38.9531" fill="#FEFECE" filter="url(#f1w7od6e02xz25)" rx="8" ry="8" style="stroke: #A80036; stroke-width: 2.0;"/><path d="M128.5,46.9531 L128.5,73.9531 M115.5,54.9531 L141.5,54.9531 M128.5,73.9531 L115.5,88.9531 M128.5,73.9531 L141.5,88.9531 " fill="none" filter="url(#f1w7od6e02xz25)" style="stroke: #A80036; stroke-width: 2.0;"/><text fill="#000000" font-family="sans-serif" font-size="14" lengthAdjust="spacingAndGlyphs" textLength="46" x="105.5" y="108.9482">Service</text><ellipse cx="79.4711" cy="189.0473" fill="#FEFECE" filter="url(#f1w7od6e02xz25)" rx="73.4711" ry="17.0942" style="stroke: #A80036; stroke-width: 1.5;"/><text fill="#000000" font-family="sans-serif" font-size="14" lengthAdjust="spacingAndGlyphs" textLength="115" x="21.9711" y="193.6958">PUT a JSON object</text><!--entity "/storage"--><ellipse cx="261.5" cy="275.9531" fill="#FEFECE" filter="url(#f1w7od6e02xz25)" rx="8" ry="8" style="stroke: #A80036; stroke-width: 2.0;"/><path d="M261.5,283.9531 L261.5,310.9531 M248.5,291.9531 L274.5,291.9531 M261.5,310.9531 L248.5,325.9531 M261.5,310.9531 L274.5,325.9531 " fill="none" filter="url(#f1w7od6e02xz25)" style="stroke: #A80036; stroke-width: 2.0;"/><text fill="#000000" font-family="sans-serif" font-size="14" lengthAdjust="spacingAndGlyphs" textLength="64" x="229.5" y="345.9482">"/storage"</text><ellipse cx="261.5637" cy="188.9659" fill="#FEFECE" filter="url(#f1w7od6e02xz25)" rx="73.0637" ry="17.0127" style="stroke: #A80036; stroke-width: 1.5;"/><text fill="#000000" font-family="sans-serif" font-size="14" lengthAdjust="spacingAndGlyphs" textLength="114" x="204.5637" y="193.6143">GET a JSON object</text><!--entity Service2--><ellipse cx="261.5" cy="38.9531" fill="#FEFECE" filter="url(#f1w7od6e02xz25)" rx="8" ry="8" style="stroke: #A80036; stroke-width: 2.0;"/><path d="M261.5,46.9531 L261.5,73.9531 M248.5,54.9531 L274.5,54.9531 M261.5,73.9531 L248.5,88.9531 M261.5,73.9531 L274.5,88.9531 " fill="none" filter="url(#f1w7od6e02xz25)" style="stroke: #A80036; stroke-width: 2.0;"/><text fill="#000000" font-family="sans-serif" font-size="14" lengthAdjust="spacingAndGlyphs" textLength="54" x="234.5" y="108.9482">Service2</text><!--link Service to PUT a JSON object--><path d="M111.2244,112.2318 C103.5999,130.6708 94.9501,151.5891 88.6105,166.9206 " fill="none" id="Service-PUT a JSON object" style="stroke: #A80036; stroke-width: 1.0;"/><polygon fill="#A80036" points="86.5539,171.8941,93.6896,165.1057,88.4646,167.2736,86.2967,162.0486,86.5539,171.8941" style="stroke: #A80036; stroke-width: 1.0;"/><!--link PUT a JSON object to "/storage"--><path d="M104.4247,205.1816 C135.5772,225.4649 189.1446,260.3426 224.9406,283.6493 " fill="none" id="PUT a JSON object-&quot;/storage&quot;" style="stroke: #A80036; stroke-width: 1.0;"/><polygon fill="#A80036" points="229.2151,286.4325,223.8556,278.1696,225.025,283.7043,219.4904,284.8738,229.2151,286.4325" style="stroke: #A80036; stroke-width: 1.0;"/><!--link Service to GET a JSON object--><path d="M151.6668,91.0942 C176.2514,112.9985 214.8311,147.3722 239.1142,169.0079 " fill="none" id="Service-GET a JSON object" style="stroke: #A80036; stroke-width: 1.0;"/><polygon fill="#A80036" points="242.8844,172.367,238.8258,163.3933,239.1513,169.0408,233.5038,169.3663,242.8844,172.367" style="stroke: #A80036; stroke-width: 1.0;"/><!--link GET a JSON object to "/storage"--><path d="M252.2433,205.9313 C249.3028,220.146 248.2187,241.134 248.9909,260.3433 " fill="none" id="GET a JSON object-&quot;/storage&quot;" style="stroke: #A80036; stroke-width: 1.0;"/><polygon fill="#A80036" points="249.258,265.707,252.8054,256.5192,249.0093,260.7132,244.8153,256.9171,249.258,265.707" style="stroke: #A80036; stroke-width: 1.0;"/><!--link GET a JSON object to "/storage"--><path d="M271.3012,205.9313 C274.4146,220.146 275.5626,241.134 274.7449,260.3433 " fill="none" id="GET a JSON object-&quot;/storage&quot;-1" style="stroke: #A80036; stroke-width: 1.0;"/><polygon fill="#A80036" points="274.4622,265.707,278.9306,256.9301,274.7255,260.714,270.9417,256.5089,274.4622,265.707" style="stroke: #A80036; stroke-width: 1.0;"/><!--link Service2 to GET a JSON object--><path d="M261.5,112.2318 C261.5,130.5104 261.5,151.2255 261.5,166.5194 " fill="none" id="Service2-GET a JSON object" style="stroke: #A80036; stroke-width: 1.0;"/><polygon fill="#A80036" points="261.5,171.8941,265.5,162.8941,261.5,166.8941,257.5,162.8941,261.5,171.8941" style="stroke: #A80036; stroke-width: 1.0;"/><!--
@startuml
title
    Objects in Open Platform  /storage
end title



:Service: - -> (PUT a JSON object)
(PUT a JSON object) - -> :"/storage":


:Service: - -> (GET a JSON object)
(GET a JSON object) - -> :"/storage":



:Service2: - -> (GET a JSON object)
(GET a JSON object) - -> :"/storage":


@enduml

PlantUML version 1.2019.05(Sat Apr 20 16:45:36 GMT 2019)
(GPL source distribution)
Java Runtime: Java(TM) SE Runtime Environment
JVM: Java HotSpot(TM) 64-Bit Server VM
Java Version: 1.8.0_202-b08
Operating System: Linux
OS Version: 5.0.0-1020-azure
Default Encoding: ANSI_X3.4-1968
Language: en
Country: US
--></g></svg>