<?xml version="1.0" encoding="UTF-8" standalone="no"?><svg xmlns="http://www.w3.org/2000/svg" xmlns:xlink="http://www.w3.org/1999/xlink" contentScriptType="application/ecmascript" contentStyleType="text/css" height="489px" preserveAspectRatio="none" style="width:717px;height:489px;" version="1.1" viewBox="0 0 717 489" width="717px" zoomAndPan="magnify"><defs><filter height="300%" id="f1qrfxkh1hzsnj" width="300%" x="-1" y="-1"><feGaussianBlur result="blurOut" stdDeviation="2.0"/><feColorMatrix in="blurOut" result="blurOut2" type="matrix" values="0 0 0 0 0 0 0 0 0 0 0 0 0 0 0 0 0 0 .4 0"/><feOffset dx="4.0" dy="4.0" in="blurOut2" result="blurOut3"/><feBlend in="SourceGraphic" in2="blurOut3" mode="normal"/></filter></defs><g><text fill="#000000" font-family="sans-serif" font-size="18" lengthAdjust="spacingAndGlyphs" textLength="281" x="221" y="16.708">Push information channels (draft)</text><!--cluster FBS--><rect fill="#FFFFFF" filter="url(#f1qrfxkh1hzsnj)" height="71" style="stroke: #000000; stroke-width: 1.5;" width="283" x="256" y="182.9531"/><path d="M290,183.9531 L290,192.25 L280,202.25 L256,202.25 " fill="none" style="stroke: #000000; stroke-width: 1.5;"/><text fill="#000000" font-family="sans-serif" font-size="14" font-weight="bold" lengthAdjust="spacingAndGlyphs" textLength="24" x="259" y="196.9482">FBS</text><!--cluster DDBCMS--><rect fill="#FFFFFF" filter="url(#f1qrfxkh1hzsnj)" height="71" style="stroke: #000000; stroke-width: 1.5;" width="315" x="273" y="86.9531"/><path d="M345,87.9531 L345,96.25 L335,106.25 L273,106.25 " fill="none" style="stroke: #000000; stroke-width: 1.5;"/><text fill="#000000" font-family="sans-serif" font-size="14" font-weight="bold" lengthAdjust="spacingAndGlyphs" textLength="62" x="276" y="100.9482">DDB CMS</text><!--cluster Device--><polygon fill="#FFFFFF" filter="url(#f1qrfxkh1hzsnj)" points="14,288.9531,24,278.9531,172,278.9531,172,467.9531,162,477.9531,14,477.9531,14,288.9531" style="stroke: #000000; stroke-width: 1.5;"/><line style="stroke: #000000; stroke-width: 1.5;" x1="162" x2="171" y1="288.9531" y2="279.9531"/><line style="stroke: #000000; stroke-width: 1.5;" x1="14" x2="162" y1="288.9531" y2="288.9531"/><line style="stroke: #000000; stroke-width: 1.5;" x1="162" x2="162" y1="288.9531" y2="477.9531"/><text fill="#000000" font-family="sans-serif" font-size="14" font-weight="bold" lengthAdjust="spacingAndGlyphs" textLength="45" x="66.5" y="304.9482">Device</text><!--entity SMS--><rect fill="#F8F8F8" filter="url(#f1qrfxkh1hzsnj)" height="36.2969" style="stroke: #383838; stroke-width: 1.5;" width="46" x="390" y="209.9531"/><rect fill="#F8F8F8" height="5" style="stroke: #383838; stroke-width: 1.5;" width="10" x="385" y="214.9531"/><rect fill="#F8F8F8" height="5" style="stroke: #383838; stroke-width: 1.5;" width="10" x="385" y="236.25"/><text fill="#000000" font-family="sans-serif" font-size="14" lengthAdjust="spacingAndGlyphs" textLength="26" x="400" y="232.9482">SMS</text><!--entity EMAIL--><rect fill="#F8F8F8" filter="url(#f1qrfxkh1hzsnj)" height="36.2969" style="stroke: #383838; stroke-width: 1.5;" width="60" x="471" y="209.9531"/><rect fill="#F8F8F8" height="5" style="stroke: #383838; stroke-width: 1.5;" width="10" x="466" y="214.9531"/><rect fill="#F8F8F8" height="5" style="stroke: #383838; stroke-width: 1.5;" width="10" x="466" y="236.25"/><text fill="#000000" font-family="sans-serif" font-size="14" lengthAdjust="spacingAndGlyphs" textLength="40" x="481" y="232.9482">EMAIL</text><!--entity PUSH--><rect fill="#F8F8F8" filter="url(#f1qrfxkh1hzsnj)" height="36.2969" style="stroke: #383838; stroke-width: 1.5;" width="55" x="299.5" y="209.9531"/><rect fill="#F8F8F8" height="5" style="stroke: #383838; stroke-width: 1.5;" width="10" x="294.5" y="214.9531"/><rect fill="#F8F8F8" height="5" style="stroke: #383838; stroke-width: 1.5;" width="10" x="294.5" y="236.25"/><text fill="#000000" font-family="sans-serif" font-size="14" lengthAdjust="spacingAndGlyphs" textLength="35" x="309.5" y="232.9482">PUSH</text><!--entity SMSx--><rect fill="#F8F8F8" filter="url(#f1qrfxkh1hzsnj)" height="36.2969" style="stroke: #383838; stroke-width: 1.5;" width="58" x="384" y="113.9531"/><rect fill="#F8F8F8" height="5" style="stroke: #383838; stroke-width: 1.5;" width="10" x="379" y="118.9531"/><rect fill="#F8F8F8" height="5" style="stroke: #383838; stroke-width: 1.5;" width="10" x="379" y="140.25"/><text fill="#000000" font-family="sans-serif" font-size="14" lengthAdjust="spacingAndGlyphs" textLength="38" x="394" y="136.9482">☐ SMS</text><!--entity EMAILx--><rect fill="#F8F8F8" filter="url(#f1qrfxkh1hzsnj)" height="36.2969" style="stroke: #383838; stroke-width: 1.5;" width="68" x="477" y="113.9531"/><rect fill="#F8F8F8" height="5" style="stroke: #383838; stroke-width: 1.5;" width="10" x="472" y="118.9531"/><rect fill="#F8F8F8" height="5" style="stroke: #383838; stroke-width: 1.5;" width="10" x="472" y="140.25"/><text fill="#000000" font-family="sans-serif" font-size="14" lengthAdjust="spacingAndGlyphs" textLength="48" x="487" y="136.9482">☐ email</text><!--entity PUSHx--><rect fill="#F8F8F8" filter="url(#f1qrfxkh1hzsnj)" height="36.2969" style="stroke: #383838; stroke-width: 1.5;" width="67" x="281.5" y="113.9531"/><rect fill="#F8F8F8" height="5" style="stroke: #383838; stroke-width: 1.5;" width="10" x="276.5" y="118.9531"/><rect fill="#F8F8F8" height="5" style="stroke: #383838; stroke-width: 1.5;" width="10" x="276.5" y="140.25"/><text fill="#000000" font-family="sans-serif" font-size="14" lengthAdjust="spacingAndGlyphs" textLength="47" x="291.5" y="136.9482">☒ PUSH</text><!--entity PUSHserver--><rect fill="#FFFFFF" filter="url(#f1qrfxkh1hzsnj)" height="46.2969" style="stroke: #000000; stroke-width: 1.5;" width="119" x="198.5" y="305.9531"/><path d="M238.1667,306.9531 L238.1667,310.9531 L231.1667,317.9531 L198.5,317.9531 " fill="none" style="stroke: #000000; stroke-width: 1.5;"/><text fill="#000000" font-family="sans-serif" font-size="14" lengthAdjust="spacingAndGlyphs" textLength="79" x="213.5" y="338.9482">PUSH server</text><!--entity SMSgateway--><rect fill="#FFFFFF" filter="url(#f1qrfxkh1hzsnj)" height="46.2969" style="stroke: #000000; stroke-width: 1.5;" width="121" x="352.5" y="305.9531"/><path d="M392.8333,306.9531 L392.8333,310.9531 L385.8333,317.9531 L352.5,317.9531 " fill="none" style="stroke: #000000; stroke-width: 1.5;"/><text fill="#000000" font-family="sans-serif" font-size="14" lengthAdjust="spacingAndGlyphs" textLength="81" x="367.5" y="338.9482">SMS gateway</text><!--entity MAILserver--><rect fill="#FFFFFF" filter="url(#f1qrfxkh1hzsnj)" height="46.2969" style="stroke: #000000; stroke-width: 1.5;" width="111" x="508.5" y="305.9531"/><path d="M545.5,306.9531 L545.5,310.9531 L538.5,317.9531 L508.5,317.9531 " fill="none" style="stroke: #000000; stroke-width: 1.5;"/><text fill="#000000" font-family="sans-serif" font-size="14" lengthAdjust="spacingAndGlyphs" textLength="71" x="523.5" y="338.9482">Mail server</text><!--entity PUSHclient--><ellipse cx="121" cy="440.9531" fill="#F8F8F8" filter="url(#f1qrfxkh1hzsnj)" rx="8" ry="8" style="stroke: #383838; stroke-width: 2.0;"/><text fill="#000000" font-family="sans-serif" font-size="14" lengthAdjust="spacingAndGlyphs" textLength="71" x="85.5" y="470.9482">PUSHclient</text><!--entity App1--><rect fill="#F8F8F8" filter="url(#f1qrfxkh1hzsnj)" height="36.2969" style="stroke: #383838; stroke-width: 1.5;" width="53" x="110.5" y="310.9531"/><rect fill="#F8F8F8" height="5" style="stroke: #383838; stroke-width: 1.5;" width="10" x="105.5" y="315.9531"/><rect fill="#F8F8F8" height="5" style="stroke: #383838; stroke-width: 1.5;" width="10" x="105.5" y="337.25"/><text fill="#000000" font-family="sans-serif" font-size="14" lengthAdjust="spacingAndGlyphs" textLength="33" x="120.5" y="333.9482">App1</text><!--entity App2--><rect fill="#F8F8F8" filter="url(#f1qrfxkh1hzsnj)" height="36.2969" style="stroke: #383838; stroke-width: 1.5;" width="53" x="22.5" y="310.9531"/><rect fill="#F8F8F8" height="5" style="stroke: #383838; stroke-width: 1.5;" width="10" x="17.5" y="315.9531"/><rect fill="#F8F8F8" height="5" style="stroke: #383838; stroke-width: 1.5;" width="10" x="17.5" y="337.25"/><text fill="#000000" font-family="sans-serif" font-size="14" lengthAdjust="spacingAndGlyphs" textLength="33" x="32.5" y="333.9482">App2</text><path d="M455,28.9531 L455,54.0859 L705,54.0859 L705,38.9531 L695,28.9531 L455,28.9531 " fill="#ECECEC" filter="url(#f1qrfxkh1hzsnj)" style="stroke: #383838; stroke-width: 1.0;"/><path d="M695,28.9531 L695,38.9531 L705,38.9531 L695,28.9531 " fill="#ECECEC" style="stroke: #383838; stroke-width: 1.0;"/><text fill="#000000" font-family="sans-serif" font-size="13" lengthAdjust="spacingAndGlyphs" textLength="229" x="461" y="46.02">User checks "Recieve service messages"</text><path d="M29,215.4531 L29,240.5859 L229,240.5859 L229,225.4531 L219,215.4531 L29,215.4531 " fill="#ECECEC" filter="url(#f1qrfxkh1hzsnj)" style="stroke: #383838; stroke-width: 1.0;"/><path d="M219,215.4531 L219,225.4531 L229,225.4531 L219,215.4531 " fill="#ECECEC" style="stroke: #383838; stroke-width: 1.0;"/><text fill="#000000" font-family="sans-serif" font-size="13" lengthAdjust="spacingAndGlyphs" textLength="179" x="35" y="232.52">LMS sends messages on event.</text><!--entity Mobile--><ellipse cx="413" cy="440.9531" fill="#F8F8F8" filter="url(#f1qrfxkh1hzsnj)" rx="8" ry="8" style="stroke: #383838; stroke-width: 2.0;"/><text fill="#000000" font-family="sans-serif" font-size="14" lengthAdjust="spacingAndGlyphs" textLength="44" x="391" y="470.9482">Mobile</text><!--entity MailBox--><ellipse cx="564" cy="440.9531" fill="#F8F8F8" filter="url(#f1qrfxkh1hzsnj)" rx="8" ry="8" style="stroke: #383838; stroke-width: 2.0;"/><text fill="#000000" font-family="sans-serif" font-size="14" lengthAdjust="spacingAndGlyphs" textLength="51" x="538.5" y="470.9482">MailBox</text><!--link GMN144 to DDBCMS--><path d="M580,54.0367 C580,59.8649 580,67.2412 580,75.1198 C580,77.0895 580,79.0905 580,81.1066 C580,82.1146 580,83.1264 580,84.14 C580,84.6467 580,85.1539 580,85.6613 C580,85.915 580,86.1687 580,86.4225 C580,86.5493 580,86.6762 580,86.8031 " fill="none" id="GMN144-DDBCMS" style="stroke: #383838; stroke-width: 1.0; stroke-dasharray: 7.0,7.0;"/><!--link GMN147 to FBS--><path d="M229.1953,227.9531 C234.9055,227.9531 240.6156,227.9531 246.3258,227.9531 C249.1808,227.9531 252.0359,227.9531 254.891,227.9531 C255.2479,227.9531 255.6047,227.9531 255.9616,227.9531 " fill="none" id="GMN147-FBS" style="stroke: #383838; stroke-width: 1.0; stroke-dasharray: 7.0,7.0;"/><!--link SMSx to SMS--><path d="M413,150.01 C413,165.4657 413,187.8178 413,204.6262 " fill="none" id="SMSx-SMS" style="stroke: #383838; stroke-width: 1.0;"/><polygon fill="#383838" points="413,209.6508,417,200.6508,413,204.6508,409,200.6508,413,209.6508" style="stroke: #383838; stroke-width: 1.0;"/><!--link EMAILx to EMAIL--><path d="M509.1191,150.01 C507.5091,165.4657 505.1808,187.8178 503.4299,204.6262 " fill="none" id="EMAILx-EMAIL" style="stroke: #383838; stroke-width: 1.0;"/><polygon fill="#383838" points="502.9065,209.6508,507.8176,201.1138,503.4246,204.6777,499.8607,200.2848,502.9065,209.6508" style="stroke: #383838; stroke-width: 1.0;"/><!--link PUSHx to PUSH--><path d="M317.2571,150.01 C319.1891,165.4657 321.9831,187.8178 324.0841,204.6262 " fill="none" id="PUSHx-PUSH" style="stroke: #383838; stroke-width: 1.0;"/><polygon fill="#383838" points="324.7122,209.6508,327.5648,200.2241,324.0919,204.6895,319.6266,201.2166,324.7122,209.6508" style="stroke: #383838; stroke-width: 1.0;"/><!--link PUSH to PUSHserver--><path d="M314.6642,246.0099 C304.1581,261.3883 288.8965,283.7277 276.8582,301.349 " fill="none" id="PUSH-PUSHserver" style="stroke: #383838; stroke-width: 1.0;"/><polygon fill="#383838" points="273.8719,305.7203,282.2517,300.5454,276.6924,301.5918,275.646,296.0326,273.8719,305.7203" style="stroke: #383838; stroke-width: 1.0;"/><!--link SMS to SMSgateway--><path d="M413,246.0099 C413,261.1277 413,282.9725 413,300.449 " fill="none" id="SMS-SMSgateway" style="stroke: #383838; stroke-width: 1.0;"/><polygon fill="#383838" points="413,305.7203,417,296.7203,413,300.7203,409,296.7203,413,305.7203" style="stroke: #383838; stroke-width: 1.0;"/><!--link EMAIL to MAILserver--><path d="M512.2631,246.0099 C521.8556,261.3883 535.7901,283.7277 546.7816,301.349 " fill="none" id="EMAIL-MAILserver" style="stroke: #383838; stroke-width: 1.0;"/><polygon fill="#383838" points="549.5082,305.7203,548.1389,295.9671,546.862,301.478,541.3511,300.2011,549.5082,305.7203" style="stroke: #383838; stroke-width: 1.0;"/><!--link SMSgateway to Mobile--><path d="M413,352.1596 C413,374.4571 413,407.4643 413,426.3218 " fill="none" id="SMSgateway-Mobile" style="stroke: #383838; stroke-width: 1.0;"/><polygon fill="#383838" points="413,431.6924,417,422.6924,413,426.6924,409,422.6924,413,431.6924" style="stroke: #383838; stroke-width: 1.0;"/><!--link MAILserver to MailBox--><path d="M564,352.1596 C564,374.4571 564,407.4643 564,426.3218 " fill="none" id="MAILserver-MailBox" style="stroke: #383838; stroke-width: 1.0;"/><polygon fill="#383838" points="564,431.6924,568,422.6924,564,426.6924,560,422.6924,564,431.6924" style="stroke: #383838; stroke-width: 1.0;"/><!--link PUSHserver to PUSHclient--><path d="M229.6135,352.1596 C200.3697,376.0669 156.0657,412.2863 134.1831,430.1757 " fill="none" id="PUSHserver-PUSHclient" style="stroke: #383838; stroke-width: 1.0;"/><polygon fill="#383838" points="130.1167,433.5001,139.6163,430.9004,133.9877,430.3354,134.5527,424.7068,130.1167,433.5001" style="stroke: #383838; stroke-width: 1.0;"/><!--link App1 to PUSHclient--><path d="M134.3579,347.4476 C130.8963,371.6788 124.9578,413.2486 122.3242,431.6834 " fill="none" id="App1-PUSHclient" style="stroke: #383838; stroke-width: 1.0;"/><!--link App2 to PUSHclient--><path d="M60.8893,347.4476 C76.4665,371.6788 103.19,413.2486 115.0409,431.6834 " fill="none" id="App2-PUSHclient" style="stroke: #383838; stroke-width: 1.0;"/><!--
@startuml
title Push information channels (draft)

skinparam monochrome true


frame FBS as "FBS" {
	[SMS]
	[EMAIL]
	[PUSH]
  }

frame DDBCMS as "DDB CMS" {
	[SMSx] as "&#9744; SMS"
	[EMAILx] as "&#9744; email"
	[PUSHx] as "&#9746; PUSH"
  }

note top of DDBCMS: User checks "Recieve service messages"
note left of FBS: LMS sends messages on event.


frame PUSHserver as "PUSH server" {
}

frame SMSgateway as "SMS gateway" {
}

frame MAILserver as "Mail server" {
}

SMSx - -> SMS
EMAILx - -> EMAIL
PUSHx - -> PUSH

PUSH - -> PUSHserver
SMS - -> SMSgateway
EMAIL - -> MAILserver


SMSgateway - -> Mobile
MAILserver - -> MailBox


node "Device" {
  PUSHserver - -> PUSHclient
  [App1] - - PUSHclient
  [App2] - - PUSHclient
} 

@enduml

PlantUML version 1.2019.05(Sat Apr 20 16:45:36 GMT 2019)
(GPL source distribution)
Java Runtime: Java(TM) SE Runtime Environment
JVM: Java HotSpot(TM) 64-Bit Server VM
Java Version: 1.8.0_202-b08
Operating System: Linux
OS Version: 5.0.0-1020-azure
Default Encoding: ANSI_X3.4-1968
Language: en
Country: US
--></g></svg>