<?xml version="1.0" encoding="UTF-8" standalone="no"?><svg xmlns="http://www.w3.org/2000/svg" xmlns:xlink="http://www.w3.org/1999/xlink" contentScriptType="application/ecmascript" contentStyleType="text/css" height="264px" preserveAspectRatio="none" style="width:421px;height:264px;" version="1.1" viewBox="0 0 421 264" width="421px" zoomAndPan="magnify"><defs><filter height="300%" id="f163r9owh0xseo" width="300%" x="-1" y="-1"><feGaussianBlur result="blurOut" stdDeviation="2.0"/><feColorMatrix in="blurOut" result="blurOut2" type="matrix" values="0 0 0 0 0 0 0 0 0 0 0 0 0 0 0 0 0 0 .4 0"/><feOffset dx="4.0" dy="4.0" in="blurOut2" result="blurOut3"/><feBlend in="SourceGraphic" in2="blurOut3" mode="normal"/></filter></defs><g><text fill="#000000" font-family="Courier" font-size="18" lengthAdjust="spacingAndGlyphs" textLength="172" x="123" y="18.8613">Subscription Service</text><!--class Subscribtion--><rect fill="#FFFFFF" filter="url(#f163r9owh0xseo)" height="222.0879" id="Subscribtion" style="stroke: #A80036; stroke-width: 1.5;" width="404" x="6" y="31.7393"/><ellipse cx="169.25" cy="47.7393" fill="#ADD1B2" rx="11" ry="11" style="stroke: #A80036; stroke-width: 1.0;"/><path d="M169.1875,43.5674 Q168.4375,43.5674 167.875,43.8564 Q167.3125,44.1455 166.9219,44.6768 Q166.5313,45.208 166.3359,45.9814 Q166.1406,46.7549 166.1406,47.708 Q166.1406,48.6768 166.3203,49.4346 Q166.5,50.1924 166.8672,50.708 Q167.2344,51.2236 167.8125,51.4971 Q168.3906,51.7705 169.1875,51.7705 Q169.9219,51.7705 170.6641,51.5986 Q171.4063,51.4268 172.2813,51.1299 L172.2813,53.2861 Q171.875,53.4424 171.4844,53.5596 Q171.0938,53.6768 170.6875,53.7549 Q170.2813,53.833 169.8594,53.8721 Q169.4375,53.9111 168.9375,53.9111 Q167.5313,53.9111 166.5078,53.458 Q165.4844,53.0049 164.8125,52.1924 Q164.1406,51.3799 163.8125,50.2314 Q163.4844,49.083 163.4844,47.6924 Q163.4844,46.3174 163.8594,45.1611 Q164.2344,44.0049 164.9531,43.1768 Q165.6719,42.3486 166.7344,41.8877 Q167.7969,41.4268 169.1875,41.4268 Q170.0938,41.4268 171,41.6533 Q171.9063,41.8799 172.7344,42.2861 L171.9063,44.3799 Q171.2188,44.0518 170.5313,43.8096 Q169.8438,43.5674 169.1875,43.5674 Z "/><text fill="#000000" font-family="Courier" font-size="12" lengthAdjust="spacingAndGlyphs" textLength="69" x="189.75" y="52.4004">Subscribtion</text><line style="stroke: #A80036; stroke-width: 1.5;" x1="7" x2="409" y1="63.7393" y2="63.7393"/><text fill="#000000" font-family="Courier" font-size="11" lengthAdjust="spacingAndGlyphs" textLength="113" x="12" y="79.2656">GUID                : String</text><text fill="#000000" font-family="Courier" font-size="11" lengthAdjust="spacingAndGlyphs" textLength="119" x="12" y="93.7729">ServiceID           : String</text><text fill="#000000" font-family="Courier" font-size="11" lengthAdjust="spacingAndGlyphs" textLength="107" x="12" y="108.2803">Key                 : String</text><text fill="#000000" font-family="Courier" font-size="11" lengthAdjust="spacingAndGlyphs" textLength="116" x="12" y="122.7876">Agency              : String</text><text fill="#000000" font-family="Courier" font-size="11" lengthAdjust="spacingAndGlyphs" textLength="175" x="12" y="137.2949">CreateDate          : String ISO-8601</text><text fill="#000000" font-family="Courier" font-size="11" lengthAdjust="spacingAndGlyphs" textLength="189" x="12" y="151.8022">ModificationDate    : String ISO-8601</text><text fill="#000000" font-family="Courier" font-size="11" lengthAdjust="spacingAndGlyphs" textLength="122" x="12" y="166.3096">Active              : Boolean</text><text fill="#000000" font-family="Courier" font-size="11" lengthAdjust="spacingAndGlyphs" textLength="109" x="12" y="180.8169">Data                : String</text><line style="stroke: #A80036; stroke-width: 1.5;" x1="7" x2="409" y1="187.7979" y2="187.7979"/><ellipse cx="17" cy="200.5515" fill="#84BE84" rx="3" ry="3" style="stroke: #038048; stroke-width: 1.0;"/><text fill="#000000" font-family="Courier" font-size="11" lengthAdjust="spacingAndGlyphs" textLength="308" x="26" y="203.3242">getUserSubscription( $GUID, {$Service}, {$Key}, {$Agency}  )</text><ellipse cx="17" cy="215.0588" fill="#84BE84" rx="3" ry="3" style="stroke: #038048; stroke-width: 1.0;"/><text fill="#000000" font-family="Courier" font-size="11" lengthAdjust="spacingAndGlyphs" textLength="378" x="26" y="217.8315">putUserSubscription( $GUID, $Service, $Key, {$Agency}, $Active, {$Data} )</text><polygon fill="#4177AF" points="17,225.5662,13,231.5662,21,231.5662" style="stroke: #1963A0; stroke-width: 1.0;"/><text fill="#000000" font-family="Courier" font-size="11" lengthAdjust="spacingAndGlyphs" textLength="239" x="26" y="232.3389">createDate( $GUID, $Service, $Key, {$Agency} )</text><polygon fill="#4177AF" points="17,240.0735,13,246.0735,21,246.0735" style="stroke: #1963A0; stroke-width: 1.0;"/><text fill="#000000" font-family="Courier" font-size="11" lengthAdjust="spacingAndGlyphs" textLength="244" x="26" y="246.8462">modifyDate( $GUID, $Service, $Key, {$Agency} )</text><!--
@startuml
title
    Subscription Service  
end title

skinparam cardBorderColor none
skinparam cardBackgroundColor none
skinparam cardShadowing false
skinparam defaultFontName Courier
skinparam BackgroundColor White

skinparam class {
	BackgroundColor White
}

class Subscribtion {
	{field}	GUID                : String
	{field}	ServiceID           : String
	{field}	Key                 : String
	{field}	Agency              : String
	{field}	CreateDate          : String ISO-8601
	{field}	ModificationDate    : String ISO-8601
	{field}	Active              : Boolean
	{field}	Data                : String

	+{method}	getUserSubscription( $GUID, {$Service}, {$Key}, {$Agency}  )
	+{method}	putUserSubscription( $GUID, $Service, $Key, {$Agency}, $Active, {$Data} )
	~createDate( $GUID, $Service, $Key, {$Agency} )
	~modifyDate( $GUID, $Service, $Key, {$Agency} )

}

@enduml

PlantUML version 1.2019.05(Sat Apr 20 16:45:36 GMT 2019)
(GPL source distribution)
Java Runtime: Java(TM) SE Runtime Environment
JVM: Java HotSpot(TM) 64-Bit Server VM
Java Version: 1.8.0_202-b08
Operating System: Linux
OS Version: 5.0.0-1020-azure
Default Encoding: ANSI_X3.4-1968
Language: en
Country: US
--></g></svg>