<?xml version="1.0" encoding="UTF-8" standalone="no"?><svg xmlns="http://www.w3.org/2000/svg" xmlns:xlink="http://www.w3.org/1999/xlink" contentScriptType="application/ecmascript" contentStyleType="text/css" height="263px" preserveAspectRatio="none" style="width:422px;height:263px;" version="1.1" viewBox="0 0 422 263" width="422px" zoomAndPan="magnify"><defs><filter height="300%" id="f163r9owh0xseo" width="300%" x="-1" y="-1"><feGaussianBlur result="blurOut" stdDeviation="2.0"/><feColorMatrix in="blurOut" result="blurOut2" type="matrix" values="0 0 0 0 0 0 0 0 0 0 0 0 0 0 0 0 0 0 .4 0"/><feOffset dx="4.0" dy="4.0" in="blurOut2" result="blurOut3"/><feBlend in="SourceGraphic" in2="blurOut3" mode="normal"/></filter></defs><g><text fill="#000000" font-family="Courier" font-size="18" lengthAdjust="spacingAndGlyphs" textLength="172" x="118" y="18.8613">Subscription Service</text><!--MD5=[7c5bf5c450b23531535ad9b059262b4e]
class Subscribtion--><rect fill="#FFFFFF" filter="url(#f163r9owh0xseo)" height="222.0879" id="Subscribtion" style="stroke: #A80036; stroke-width: 1.5;" width="404" x="7" y="30.7393"/><ellipse cx="170.25" cy="46.7393" fill="#ADD1B2" rx="11" ry="11" style="stroke: #A80036; stroke-width: 1.0;"/><path d="M170.1875,42.5674 Q169.4375,42.5674 168.875,42.8564 Q168.3125,43.1455 167.9219,43.6768 Q167.5313,44.208 167.3359,44.9814 Q167.1406,45.7549 167.1406,46.708 Q167.1406,47.6768 167.3203,48.4346 Q167.5,49.1924 167.8672,49.708 Q168.2344,50.2236 168.8125,50.4971 Q169.3906,50.7705 170.1875,50.7705 Q170.9219,50.7705 171.6641,50.5986 Q172.4063,50.4268 173.2813,50.1299 L173.2813,52.2861 Q172.875,52.4424 172.4844,52.5596 Q172.0938,52.6768 171.6875,52.7549 Q171.2813,52.833 170.8594,52.8721 Q170.4375,52.9111 169.9375,52.9111 Q168.5313,52.9111 167.5078,52.458 Q166.4844,52.0049 165.8125,51.1924 Q165.1406,50.3799 164.8125,49.2314 Q164.4844,48.083 164.4844,46.6924 Q164.4844,45.3174 164.8594,44.1611 Q165.2344,43.0049 165.9531,42.1768 Q166.6719,41.3486 167.7344,40.8877 Q168.7969,40.4268 170.1875,40.4268 Q171.0938,40.4268 172,40.6533 Q172.9063,40.8799 173.7344,41.2861 L172.9063,43.3799 Q172.2188,43.0518 171.5313,42.8096 Q170.8438,42.5674 170.1875,42.5674 Z "/><text fill="#000000" font-family="Courier" font-size="12" lengthAdjust="spacingAndGlyphs" textLength="69" x="190.75" y="51.4004">Subscribtion</text><line style="stroke: #A80036; stroke-width: 1.5;" x1="8" x2="410" y1="62.7393" y2="62.7393"/><text fill="#000000" font-family="Courier" font-size="11" lengthAdjust="spacingAndGlyphs" textLength="113" x="13" y="78.2656">GUID                : String</text><text fill="#000000" font-family="Courier" font-size="11" lengthAdjust="spacingAndGlyphs" textLength="119" x="13" y="92.7729">ServiceID           : String</text><text fill="#000000" font-family="Courier" font-size="11" lengthAdjust="spacingAndGlyphs" textLength="107" x="13" y="107.2803">Key                 : String</text><text fill="#000000" font-family="Courier" font-size="11" lengthAdjust="spacingAndGlyphs" textLength="116" x="13" y="121.7876">Agency              : String</text><text fill="#000000" font-family="Courier" font-size="11" lengthAdjust="spacingAndGlyphs" textLength="175" x="13" y="136.2949">CreateDate          : String ISO-8601</text><text fill="#000000" font-family="Courier" font-size="11" lengthAdjust="spacingAndGlyphs" textLength="189" x="13" y="150.8022">ModificationDate    : String ISO-8601</text><text fill="#000000" font-family="Courier" font-size="11" lengthAdjust="spacingAndGlyphs" textLength="122" x="13" y="165.3096">Active              : Boolean</text><text fill="#000000" font-family="Courier" font-size="11" lengthAdjust="spacingAndGlyphs" textLength="109" x="13" y="179.8169">Data                : String</text><line style="stroke: #A80036; stroke-width: 1.5;" x1="8" x2="410" y1="186.7979" y2="186.7979"/><ellipse cx="18" cy="197.7979" fill="#84BE84" rx="3" ry="3" style="stroke: #038048; stroke-width: 1.0;"/><text fill="#000000" font-family="Courier" font-size="11" lengthAdjust="spacingAndGlyphs" textLength="308" x="27" y="202.3242">getUserSubscription( $GUID, {$Service}, {$Key}, {$Agency}  )</text><ellipse cx="18" cy="212.3052" fill="#84BE84" rx="3" ry="3" style="stroke: #038048; stroke-width: 1.0;"/><text fill="#000000" font-family="Courier" font-size="11" lengthAdjust="spacingAndGlyphs" textLength="378" x="27" y="216.8315">putUserSubscription( $GUID, $Service, $Key, {$Agency}, $Active, {$Data} )</text><polygon fill="#4177AF" points="18,222.8125,14,228.8125,22,228.8125" style="stroke: #1963A0; stroke-width: 1.0;"/><text fill="#000000" font-family="Courier" font-size="11" lengthAdjust="spacingAndGlyphs" textLength="239" x="27" y="231.3389">createDate( $GUID, $Service, $Key, {$Agency} )</text><polygon fill="#4177AF" points="18,237.3198,14,243.3198,22,243.3198" style="stroke: #1963A0; stroke-width: 1.0;"/><text fill="#000000" font-family="Courier" font-size="11" lengthAdjust="spacingAndGlyphs" textLength="244" x="27" y="245.8462">modifyDate( $GUID, $Service, $Key, {$Agency} )</text><!--MD5=[c8c3b1e139dcd1fc5b65c7f53b050934]
@startuml
title
    Subscription Service  
end title

skinparam cardBorderColor none
skinparam cardBackgroundColor none
skinparam cardShadowing false
skinparam defaultFontName Courier
skinparam BackgroundColor White

skinparam class {
	BackgroundColor White
}

class Subscribtion {
	{field}	GUID                : String
	{field}	ServiceID           : String
	{field}	Key                 : String
	{field}	Agency              : String
	{field}	CreateDate          : String ISO-8601
	{field}	ModificationDate    : String ISO-8601
	{field}	Active              : Boolean
	{field}	Data                : String

	+{method}	getUserSubscription( $GUID, {$Service}, {$Key}, {$Agency}  )
	+{method}	putUserSubscription( $GUID, $Service, $Key, {$Agency}, $Active, {$Data} )
	~createDate( $GUID, $Service, $Key, {$Agency} )
	~modifyDate( $GUID, $Service, $Key, {$Agency} )

}

@enduml

PlantUML version 1.2019.13(Tue Dec 10 17:18:29 GMT 2019)
(GPL source distribution)
Java Runtime: Java(TM) SE Runtime Environment
JVM: Java HotSpot(TM) 64-Bit Server VM
Java Version: 1.8.0_202-b08
Operating System: Linux
Default Encoding: ANSI_X3.4-1968
Language: en
Country: US
--></g></svg>