<?xml version="1.0" encoding="UTF-8" standalone="no"?><svg xmlns="http://www.w3.org/2000/svg" xmlns:xlink="http://www.w3.org/1999/xlink" contentScriptType="application/ecmascript" contentStyleType="text/css" height="332px" preserveAspectRatio="none" style="width:506px;height:332px;" version="1.1" viewBox="0 0 506 332" width="506px" zoomAndPan="magnify"><defs><filter height="300%" id="f1e4hy551eia1b" width="300%" x="-1" y="-1"><feGaussianBlur result="blurOut" stdDeviation="2.0"/><feColorMatrix in="blurOut" result="blurOut2" type="matrix" values="0 0 0 0 0 0 0 0 0 0 0 0 0 0 0 0 0 0 .4 0"/><feOffset dx="4.0" dy="4.0" in="blurOut2" result="blurOut3"/><feBlend in="SourceGraphic" in2="blurOut3" mode="normal"/></filter></defs><g><text fill="#000000" font-family="sans-serif" font-size="18" lengthAdjust="spacingAndGlyphs" textLength="162" x="176" y="16.708">User loan data flow</text><!--entity FBS--><rect fill="#F8F8F8" filter="url(#f1e4hy551eia1b)" height="36.2969" style="stroke: #383838; stroke-width: 1.5;" width="43" x="6" y="28.9531"/><rect fill="#F8F8F8" height="5" style="stroke: #383838; stroke-width: 1.5;" width="10" x="1" y="33.9531"/><rect fill="#F8F8F8" height="5" style="stroke: #383838; stroke-width: 1.5;" width="10" x="1" y="55.25"/><text fill="#000000" font-family="sans-serif" font-size="14" lengthAdjust="spacingAndGlyphs" textLength="23" x="16" y="51.9482">FBS</text><!--entity SP--><rect fill="#F8F8F8" filter="url(#f1e4hy551eia1b)" height="36.2969" style="stroke: #383838; stroke-width: 1.5;" width="120" x="167.5" y="28.9531"/><rect fill="#F8F8F8" height="5" style="stroke: #383838; stroke-width: 1.5;" width="10" x="162.5" y="33.9531"/><rect fill="#F8F8F8" height="5" style="stroke: #383838; stroke-width: 1.5;" width="10" x="162.5" y="55.25"/><text fill="#000000" font-family="sans-serif" font-size="14" lengthAdjust="spacingAndGlyphs" textLength="100" x="177.5" y="51.9482">Serviceplatform</text><!--entity DST--><rect fill="#F8F8F8" filter="url(#f1e4hy551eia1b)" height="36.2969" style="stroke: #383838; stroke-width: 1.5;" width="44" x="399.5" y="28.9531"/><rect fill="#F8F8F8" height="5" style="stroke: #383838; stroke-width: 1.5;" width="10" x="394.5" y="33.9531"/><rect fill="#F8F8F8" height="5" style="stroke: #383838; stroke-width: 1.5;" width="10" x="394.5" y="55.25"/><text fill="#000000" font-family="sans-serif" font-size="14" lengthAdjust="spacingAndGlyphs" textLength="24" x="409.5" y="51.9482">DST</text><!--entity Factor--><rect fill="#F8F8F8" filter="url(#f1e4hy551eia1b)" height="36.2969" style="stroke: #383838; stroke-width: 1.5;" width="59" x="392" y="156.9531"/><rect fill="#F8F8F8" height="5" style="stroke: #383838; stroke-width: 1.5;" width="10" x="387" y="161.9531"/><rect fill="#F8F8F8" height="5" style="stroke: #383838; stroke-width: 1.5;" width="10" x="387" y="183.25"/><text fill="#000000" font-family="sans-serif" font-size="14" lengthAdjust="spacingAndGlyphs" textLength="39" x="402" y="179.9482">Factor</text><!--entity LH--><rect fill="#F8F8F8" filter="url(#f1e4hy551eia1b)" height="36.2969" style="stroke: #383838; stroke-width: 1.5;" width="96" x="179.5" y="156.9531"/><rect fill="#F8F8F8" height="5" style="stroke: #383838; stroke-width: 1.5;" width="10" x="174.5" y="161.9531"/><rect fill="#F8F8F8" height="5" style="stroke: #383838; stroke-width: 1.5;" width="10" x="174.5" y="183.25"/><text fill="#000000" font-family="sans-serif" font-size="14" lengthAdjust="spacingAndGlyphs" textLength="76" x="189.5" y="179.9482">LoanHistory</text><!--entity CMS--><rect fill="#F8F8F8" filter="url(#f1e4hy551eia1b)" height="36.2969" style="stroke: #383838; stroke-width: 1.5;" width="47" x="149" y="284.9531"/><rect fill="#F8F8F8" height="5" style="stroke: #383838; stroke-width: 1.5;" width="10" x="144" y="289.9531"/><rect fill="#F8F8F8" height="5" style="stroke: #383838; stroke-width: 1.5;" width="10" x="144" y="311.25"/><text fill="#000000" font-family="sans-serif" font-size="14" lengthAdjust="spacingAndGlyphs" textLength="27" x="159" y="307.9482">CMS</text><!--entity APP--><rect fill="#F8F8F8" filter="url(#f1e4hy551eia1b)" height="36.2969" style="stroke: #383838; stroke-width: 1.5;" width="45" x="261" y="284.9531"/><rect fill="#F8F8F8" height="5" style="stroke: #383838; stroke-width: 1.5;" width="10" x="256" y="289.9531"/><rect fill="#F8F8F8" height="5" style="stroke: #383838; stroke-width: 1.5;" width="10" x="256" y="311.25"/><text fill="#000000" font-family="sans-serif" font-size="14" lengthAdjust="spacingAndGlyphs" textLength="25" x="271" y="307.9482">APP</text><!--link FBS to SP--><path d="M49.2027,59.4649 C55.6124,62.5346 62.7822,65.3872 69.75,66.9531 C99.922,73.7337 133.8938,70.7508 162.5628,65.2506 " fill="none" id="FBS-SP" style="stroke: #383838; stroke-width: 1.0;"/><polygon fill="#383838" points="167.4834,64.2722,157.876,62.1046,162.5794,65.2475,159.4365,69.9509,167.4834,64.2722" style="stroke: #383838; stroke-width: 1.0;"/><text fill="#000000" font-family="sans-serif" font-size="13" lengthAdjust="spacingAndGlyphs" textLength="75" x="70.75" y="63.02">Transactions</text><!--link FBS to SP--><path d="M49.2842,46.9531 C76.22,46.9531 123.2845,46.9531 162.2852,46.9531 " fill="none" id="FBS-SP-1" style="stroke: #383838; stroke-width: 1.0;"/><polygon fill="#383838" points="167.4871,46.9531,158.4871,42.9531,162.4871,46.9531,158.4871,50.9531,167.4871,46.9531" style="stroke: #383838; stroke-width: 1.0;"/><text fill="#000000" font-family="sans-serif" font-size="13" lengthAdjust="spacingAndGlyphs" textLength="82" x="67.25" y="40.02">Transactions2</text><!--link SP to DST--><path d="M287.5542,46.9531 C323.025,46.9531 366.2451,46.9531 393.818,46.9531 " fill="none" id="SP-DST" style="stroke: #383838; stroke-width: 1.0;"/><polygon fill="#383838" points="399.117,46.9531,390.117,42.9531,394.117,46.9531,390.117,50.9531,399.117,46.9531" style="stroke: #383838; stroke-width: 1.0;"/><text fill="#000000" font-family="sans-serif" font-size="13" lengthAdjust="spacingAndGlyphs" textLength="75" x="306" y="40.02">Transactions</text><!--link DST to Factor--><path d="M421.5,65.0209 C421.5,87.6673 421.5,126.531 421.5,151.4645 " fill="none" id="DST-Factor" style="stroke: #383838; stroke-width: 1.0;"/><polygon fill="#383838" points="421.5,156.5627,425.5,147.5627,421.5,151.5627,417.5,147.5627,421.5,156.5627" style="stroke: #383838; stroke-width: 1.0;"/><text fill="#000000" font-family="sans-serif" font-size="13" lengthAdjust="spacingAndGlyphs" textLength="71" x="423" y="108.02">Anonymous</text><text fill="#000000" font-family="sans-serif" font-size="13" lengthAdjust="spacingAndGlyphs" textLength="72" x="422.5" y="123.1528">transactions</text><!--link SP to LH--><path d="M227.5,65.0209 C227.5,87.6673 227.5,126.531 227.5,151.4645 " fill="none" id="SP-LH" style="stroke: #383838; stroke-width: 1.0;"/><polygon fill="#383838" points="227.5,156.5627,231.5,147.5627,227.5,151.5627,223.5,147.5627,227.5,156.5627" style="stroke: #383838; stroke-width: 1.0;"/><text fill="#000000" font-family="sans-serif" font-size="13" lengthAdjust="spacingAndGlyphs" textLength="82" x="228.5" y="115.52">Transactions2</text><!--link LH to CMS--><path d="M195.9469,193.0684 C185.5358,200.819 175.1753,210.8895 169.5,222.9531 C161.1354,240.733 162.9244,263.2732 166.2034,279.8936 " fill="none" id="LH-CMS" style="stroke: #383838; stroke-width: 1.0;"/><polygon fill="#383838" points="167.2592,284.8497,169.2961,275.2138,166.2174,279.9595,161.4717,276.8808,167.2592,284.8497" style="stroke: #383838; stroke-width: 1.0;"/><text fill="#000000" font-family="sans-serif" font-size="13" lengthAdjust="spacingAndGlyphs" textLength="59" x="175.5" y="236.02">Individual</text><text fill="#000000" font-family="sans-serif" font-size="13" lengthAdjust="spacingAndGlyphs" textLength="69" x="170.5" y="251.1528">loan history</text><!--link LH to APP--><path d="M235.4047,193.0209 C245.3539,215.7621 262.4578,254.8565 273.3603,279.7767 " fill="none" id="LH-APP" style="stroke: #383838; stroke-width: 1.0;"/><polygon fill="#383838" points="275.4542,284.5627,275.5113,274.714,273.45,279.982,268.1821,277.9207,275.4542,284.5627" style="stroke: #383838; stroke-width: 1.0;"/><text fill="#000000" font-family="sans-serif" font-size="13" lengthAdjust="spacingAndGlyphs" textLength="59" x="268.5" y="236.02">Individual</text><text fill="#000000" font-family="sans-serif" font-size="13" lengthAdjust="spacingAndGlyphs" textLength="69" x="263.5" y="251.1528">loan history</text><!--
@startuml
title User loan data flow

skinparam monochrome true

[FBS]
[Serviceplatform] as SP
[DST]
[Factor]
[LoanHistory] as LH
[CMS]
[APP]

FBS -> SP: Transactions
SP -> DST: Transactions
DST - -> Factor: Anonymous\ntransactions

FBS -> SP: Transactions2
SP - -> LH: Transactions2
LH - -> CMS: Individual\nloan history
LH - -> APP: Individual\nloan history

@enduml

PlantUML version 1.2019.05(Sat Apr 20 16:45:36 GMT 2019)
(GPL source distribution)
Java Runtime: Java(TM) SE Runtime Environment
JVM: Java HotSpot(TM) 64-Bit Server VM
Java Version: 1.8.0_202-b08
Operating System: Linux
OS Version: 5.0.0-1020-azure
Default Encoding: ANSI_X3.4-1968
Language: en
Country: US
--></g></svg>