<?xml version="1.0" encoding="UTF-8" standalone="no"?><svg xmlns="http://www.w3.org/2000/svg" xmlns:xlink="http://www.w3.org/1999/xlink" contentScriptType="application/ecmascript" contentStyleType="text/css" height="653px" preserveAspectRatio="none" style="width:948px;height:653px;" version="1.1" viewBox="0 0 948 653" width="948px" zoomAndPan="magnify"><defs><filter height="300%" id="fxxx7rd9tuftf" width="300%" x="-1" y="-1"><feGaussianBlur result="blurOut" stdDeviation="2.0"/><feColorMatrix in="blurOut" result="blurOut2" type="matrix" values="0 0 0 0 0 0 0 0 0 0 0 0 0 0 0 0 0 0 .4 0"/><feOffset dx="4.0" dy="4.0" in="blurOut2" result="blurOut3"/><feBlend in="SourceGraphic" in2="blurOut3" mode="normal"/></filter></defs><g><text fill="#000000" font-family="sans-serif" font-size="14" font-weight="bold" lengthAdjust="spacingAndGlyphs" textLength="232" x="353.75" y="22.9951">Cover Service - Sequence Diagram</text><line style="stroke: #A80036; stroke-width: 1.0; stroke-dasharray: 5.0,5.0;" x1="60" x2="60" y1="95.5938" y2="580.5859"/><line style="stroke: #A80036; stroke-width: 1.0; stroke-dasharray: 5.0,5.0;" x1="188" x2="188" y1="95.5938" y2="580.5859"/><line style="stroke: #A80036; stroke-width: 1.0; stroke-dasharray: 5.0,5.0;" x1="298" x2="298" y1="95.5938" y2="580.5859"/><line style="stroke: #A80036; stroke-width: 1.0; stroke-dasharray: 5.0,5.0;" x1="474.5" x2="474.5" y1="95.5938" y2="580.5859"/><line style="stroke: #A80036; stroke-width: 1.0; stroke-dasharray: 5.0,5.0;" x1="552.5" x2="552.5" y1="95.5938" y2="580.5859"/><line style="stroke: #A80036; stroke-width: 1.0; stroke-dasharray: 5.0,5.0;" x1="637.5" x2="637.5" y1="95.5938" y2="580.5859"/><line style="stroke: #A80036; stroke-width: 1.0; stroke-dasharray: 5.0,5.0;" x1="729.5" x2="729.5" y1="95.5938" y2="580.5859"/><line style="stroke: #A80036; stroke-width: 1.0; stroke-dasharray: 5.0,5.0;" x1="860.5" x2="860.5" y1="95.5938" y2="580.5859"/><text fill="#000000" font-family="sans-serif" font-size="14" lengthAdjust="spacingAndGlyphs" textLength="98" x="8" y="92.292">DDB CMS / App</text><path d="M39.5,51.2969 L39.5,75.2969 M39.5,63.2969 L56.5,63.2969 " fill="none" filter="url(#fxxx7rd9tuftf)" style="stroke: #A80036; stroke-width: 2.0;"/><ellipse cx="68.5" cy="63.2969" fill="#FEFECE" filter="url(#fxxx7rd9tuftf)" rx="12" ry="12" style="stroke: #A80036; stroke-width: 2.0;"/><text fill="#000000" font-family="sans-serif" font-size="14" lengthAdjust="spacingAndGlyphs" textLength="98" x="8" y="592.5811">DDB CMS / App</text><path d="M39.5,599.8828 L39.5,623.8828 M39.5,611.8828 L56.5,611.8828 " fill="none" filter="url(#fxxx7rd9tuftf)" style="stroke: #A80036; stroke-width: 2.0;"/><ellipse cx="68.5" cy="611.8828" fill="#FEFECE" filter="url(#fxxx7rd9tuftf)" rx="12" ry="12" style="stroke: #A80036; stroke-width: 2.0;"/><text fill="#000000" font-family="sans-serif" font-size="14" lengthAdjust="spacingAndGlyphs" textLength="86" x="142" y="92.292">Cover Service</text><ellipse cx="188" cy="63.2969" fill="#FEFECE" filter="url(#fxxx7rd9tuftf)" rx="12" ry="12" style="stroke: #A80036; stroke-width: 2.0;"/><line style="stroke: #A80036; stroke-width: 2.0;" x1="176" x2="200" y1="77.2969" y2="77.2969"/><text fill="#000000" font-family="sans-serif" font-size="14" lengthAdjust="spacingAndGlyphs" textLength="86" x="142" y="592.5811">Cover Service</text><ellipse cx="188" cy="611.8828" fill="#FEFECE" filter="url(#fxxx7rd9tuftf)" rx="12" ry="12" style="stroke: #A80036; stroke-width: 2.0;"/><line style="stroke: #A80036; stroke-width: 2.0;" x1="176" x2="200" y1="625.8828" y2="625.8828"/><text fill="#000000" font-family="sans-serif" font-size="14" lengthAdjust="spacingAndGlyphs" textLength="102" x="244" y="92.292">Reference Table</text><path d="M280,43.2969 C280,33.2969 298,33.2969 298,33.2969 C298,33.2969 316,33.2969 316,43.2969 L316,69.2969 C316,79.2969 298,79.2969 298,79.2969 C298,79.2969 280,79.2969 280,69.2969 L280,43.2969 " fill="#FEFECE" filter="url(#fxxx7rd9tuftf)" style="stroke: #000000; stroke-width: 1.5;"/><path d="M280,43.2969 C280,53.2969 298,53.2969 298,53.2969 C298,53.2969 316,53.2969 316,43.2969 " fill="none" style="stroke: #000000; stroke-width: 1.5;"/><text fill="#000000" font-family="sans-serif" font-size="14" lengthAdjust="spacingAndGlyphs" textLength="102" x="244" y="592.5811">Reference Table</text><path d="M280,605.8828 C280,595.8828 298,595.8828 298,595.8828 C298,595.8828 316,595.8828 316,605.8828 L316,631.8828 C316,641.8828 298,641.8828 298,641.8828 C298,641.8828 280,641.8828 280,631.8828 L280,605.8828 " fill="#FEFECE" filter="url(#fxxx7rd9tuftf)" style="stroke: #000000; stroke-width: 1.5;"/><path d="M280,605.8828 C280,615.8828 298,615.8828 298,615.8828 C298,615.8828 316,615.8828 316,605.8828 " fill="none" style="stroke: #000000; stroke-width: 1.5;"/><text fill="#000000" font-family="sans-serif" font-size="14" lengthAdjust="spacingAndGlyphs" textLength="45" x="449.5" y="92.292">Upload</text><ellipse cx="475" cy="63.2969" fill="#FEFECE" filter="url(#fxxx7rd9tuftf)" rx="12" ry="12" style="stroke: #A80036; stroke-width: 2.0;"/><polygon fill="#A80036" points="471,51.2969,477,46.2969,475,51.2969,477,56.2969,471,51.2969" style="stroke: #A80036; stroke-width: 1.0;"/><text fill="#000000" font-family="sans-serif" font-size="14" lengthAdjust="spacingAndGlyphs" textLength="45" x="449.5" y="592.5811">Upload</text><ellipse cx="475" cy="611.8828" fill="#FEFECE" filter="url(#fxxx7rd9tuftf)" rx="12" ry="12" style="stroke: #A80036; stroke-width: 2.0;"/><polygon fill="#A80036" points="471,599.8828,477,594.8828,475,599.8828,477,604.8828,471,599.8828" style="stroke: #A80036; stroke-width: 1.0;"/><text fill="#000000" font-family="sans-serif" font-size="14" lengthAdjust="spacingAndGlyphs" textLength="79" x="510.5" y="92.292">Source table</text><path d="M535,43.2969 C535,33.2969 553,33.2969 553,33.2969 C553,33.2969 571,33.2969 571,43.2969 L571,69.2969 C571,79.2969 553,79.2969 553,79.2969 C553,79.2969 535,79.2969 535,69.2969 L535,43.2969 " fill="#FEFECE" filter="url(#fxxx7rd9tuftf)" style="stroke: #000000; stroke-width: 1.5;"/><path d="M535,43.2969 C535,53.2969 553,53.2969 553,53.2969 C553,53.2969 571,53.2969 571,43.2969 " fill="none" style="stroke: #000000; stroke-width: 1.5;"/><text fill="#000000" font-family="sans-serif" font-size="14" lengthAdjust="spacingAndGlyphs" textLength="79" x="510.5" y="592.5811">Source table</text><path d="M535,605.8828 C535,595.8828 553,595.8828 553,595.8828 C553,595.8828 571,595.8828 571,605.8828 L571,631.8828 C571,641.8828 553,641.8828 553,641.8828 C553,641.8828 535,641.8828 535,631.8828 L535,605.8828 " fill="#FEFECE" filter="url(#fxxx7rd9tuftf)" style="stroke: #000000; stroke-width: 1.5;"/><path d="M535,605.8828 C535,615.8828 553,615.8828 553,615.8828 C553,615.8828 571,615.8828 571,605.8828 " fill="none" style="stroke: #000000; stroke-width: 1.5;"/><text fill="#000000" font-family="sans-serif" font-size="14" lengthAdjust="spacingAndGlyphs" textLength="59" x="605.5" y="92.292">Cover DB</text><path d="M620,43.2969 C620,33.2969 638,33.2969 638,33.2969 C638,33.2969 656,33.2969 656,43.2969 L656,69.2969 C656,79.2969 638,79.2969 638,79.2969 C638,79.2969 620,79.2969 620,69.2969 L620,43.2969 " fill="#FEFECE" filter="url(#fxxx7rd9tuftf)" style="stroke: #000000; stroke-width: 1.5;"/><path d="M620,43.2969 C620,53.2969 638,53.2969 638,53.2969 C638,53.2969 656,53.2969 656,43.2969 " fill="none" style="stroke: #000000; stroke-width: 1.5;"/><text fill="#000000" font-family="sans-serif" font-size="14" lengthAdjust="spacingAndGlyphs" textLength="59" x="605.5" y="592.5811">Cover DB</text><path d="M620,605.8828 C620,595.8828 638,595.8828 638,595.8828 C638,595.8828 656,595.8828 656,605.8828 L656,631.8828 C656,641.8828 638,641.8828 638,641.8828 C638,641.8828 620,641.8828 620,631.8828 L620,605.8828 " fill="#FEFECE" filter="url(#fxxx7rd9tuftf)" style="stroke: #000000; stroke-width: 1.5;"/><path d="M620,605.8828 C620,615.8828 638,615.8828 638,615.8828 C638,615.8828 656,615.8828 656,605.8828 " fill="none" style="stroke: #000000; stroke-width: 1.5;"/><text fill="#000000" font-family="sans-serif" font-size="14" lengthAdjust="spacingAndGlyphs" textLength="93" x="680.5" y="92.292">Vendor file list</text><path d="M712,43.2969 C712,33.2969 730,33.2969 730,33.2969 C730,33.2969 748,33.2969 748,43.2969 L748,69.2969 C748,79.2969 730,79.2969 730,79.2969 C730,79.2969 712,79.2969 712,69.2969 L712,43.2969 " fill="#FEFECE" filter="url(#fxxx7rd9tuftf)" style="stroke: #000000; stroke-width: 1.5;"/><path d="M712,43.2969 C712,53.2969 730,53.2969 730,53.2969 C730,53.2969 748,53.2969 748,43.2969 " fill="none" style="stroke: #000000; stroke-width: 1.5;"/><text fill="#000000" font-family="sans-serif" font-size="14" lengthAdjust="spacingAndGlyphs" textLength="93" x="680.5" y="592.5811">Vendor file list</text><path d="M712,605.8828 C712,595.8828 730,595.8828 730,595.8828 C730,595.8828 748,595.8828 748,605.8828 L748,631.8828 C748,641.8828 730,641.8828 730,641.8828 C730,641.8828 712,641.8828 712,631.8828 L712,605.8828 " fill="#FEFECE" filter="url(#fxxx7rd9tuftf)" style="stroke: #000000; stroke-width: 1.5;"/><path d="M712,605.8828 C712,615.8828 730,615.8828 730,615.8828 C730,615.8828 748,615.8828 748,605.8828 " fill="none" style="stroke: #000000; stroke-width: 1.5;"/><text fill="#000000" font-family="sans-serif" font-size="14" lengthAdjust="spacingAndGlyphs" textLength="136" x="789.5" y="92.292">OpenPlatform/Search</text><path d="M842.5,43.2969 C842.5,33.2969 860.5,33.2969 860.5,33.2969 C860.5,33.2969 878.5,33.2969 878.5,43.2969 L878.5,69.2969 C878.5,79.2969 860.5,79.2969 860.5,79.2969 C860.5,79.2969 842.5,79.2969 842.5,69.2969 L842.5,43.2969 " fill="#FEFECE" filter="url(#fxxx7rd9tuftf)" style="stroke: #000000; stroke-width: 1.5;"/><path d="M842.5,43.2969 C842.5,53.2969 860.5,53.2969 860.5,53.2969 C860.5,53.2969 878.5,53.2969 878.5,43.2969 " fill="none" style="stroke: #000000; stroke-width: 1.5;"/><text fill="#000000" font-family="sans-serif" font-size="14" lengthAdjust="spacingAndGlyphs" textLength="136" x="789.5" y="592.5811">OpenPlatform/Search</text><path d="M842.5,605.8828 C842.5,595.8828 860.5,595.8828 860.5,595.8828 C860.5,595.8828 878.5,595.8828 878.5,605.8828 L878.5,631.8828 C878.5,641.8828 860.5,641.8828 860.5,641.8828 C860.5,641.8828 842.5,641.8828 842.5,631.8828 L842.5,605.8828 " fill="#FEFECE" filter="url(#fxxx7rd9tuftf)" style="stroke: #000000; stroke-width: 1.5;"/><path d="M842.5,605.8828 C842.5,615.8828 860.5,615.8828 860.5,615.8828 C860.5,615.8828 878.5,615.8828 878.5,605.8828 " fill="none" style="stroke: #000000; stroke-width: 1.5;"/><rect fill="#EEEEEE" filter="url(#fxxx7rd9tuftf)" height="3" style="stroke: #EEEEEE; stroke-width: 1.0;" width="933.5" x="3" y="126.1602"/><line style="stroke: #000000; stroke-width: 1.0;" x1="3" x2="936.5" y1="126.1602" y2="126.1602"/><line style="stroke: #000000; stroke-width: 1.0;" x1="3" x2="936.5" y1="129.1602" y2="129.1602"/><rect fill="#EEEEEE" filter="url(#fxxx7rd9tuftf)" height="23.1328" style="stroke: #000000; stroke-width: 2.0;" width="108" x="415.75" y="115.5938"/><text fill="#000000" font-family="sans-serif" font-size="13" font-weight="bold" lengthAdjust="spacingAndGlyphs" textLength="91" x="421.75" y="131.6606">Client request</text><polygon fill="#A80036" points="176,165.8594,186,169.8594,176,173.8594,180,169.8594" style="stroke: #A80036; stroke-width: 1.0;"/><line style="stroke: #A80036; stroke-width: 1.0; stroke-dasharray: 2.0,2.0;" x1="60" x2="182" y1="169.8594" y2="169.8594"/><text fill="#000000" font-family="sans-serif" font-size="13" lengthAdjust="spacingAndGlyphs" textLength="104" x="67" y="164.7935">PID + acces_token</text><polygon fill="#A80036" points="286,194.9922,296,198.9922,286,202.9922,290,198.9922" style="stroke: #A80036; stroke-width: 1.0;"/><line style="stroke: #A80036; stroke-width: 1.0; stroke-dasharray: 2.0,2.0;" x1="188" x2="292" y1="198.9922" y2="198.9922"/><text fill="#000000" font-family="sans-serif" font-size="13" lengthAdjust="spacingAndGlyphs" textLength="59" x="195" y="193.9263">Key + type</text><polygon fill="#A80036" points="626,224.125,636,228.125,626,232.125,630,228.125" style="stroke: #A80036; stroke-width: 1.0;"/><line style="stroke: #A80036; stroke-width: 1.0; stroke-dasharray: 2.0,2.0;" x1="188" x2="632" y1="228.125" y2="228.125"/><text fill="#000000" font-family="sans-serif" font-size="13" lengthAdjust="spacingAndGlyphs" textLength="33" x="195" y="223.0591">REfID</text><polygon fill="#A80036" points="199,253.2578,189,257.2578,199,261.2578,195,257.2578" style="stroke: #A80036; stroke-width: 1.0;"/><line style="stroke: #A80036; stroke-width: 1.0; stroke-dasharray: 2.0,2.0;" x1="193" x2="637" y1="257.2578" y2="257.2578"/><text fill="#000000" font-family="sans-serif" font-size="13" lengthAdjust="spacingAndGlyphs" textLength="60" x="205" y="252.1919">URL / data</text><polygon fill="#A80036" points="286,282.3906,296,286.3906,286,290.3906,290,286.3906" style="stroke: #A80036; stroke-width: 1.0;"/><line style="stroke: #A80036; stroke-width: 1.0; stroke-dasharray: 2.0,2.0;" x1="188" x2="292" y1="286.3906" y2="286.3906"/><text fill="#000000" font-family="sans-serif" font-size="13" lengthAdjust="spacingAndGlyphs" textLength="59" x="195" y="281.3247">Key + type</text><polygon fill="#A80036" points="199,311.5234,189,315.5234,199,319.5234,195,315.5234" style="stroke: #A80036; stroke-width: 1.0;"/><line style="stroke: #A80036; stroke-width: 1.0; stroke-dasharray: 2.0,2.0;" x1="193" x2="297" y1="315.5234" y2="315.5234"/><text fill="#000000" font-family="sans-serif" font-size="13" lengthAdjust="spacingAndGlyphs" textLength="60" x="205" y="310.4575">URL / data</text><polygon fill="#A80036" points="71,340.6563,61,344.6563,71,348.6563,67,344.6563" style="stroke: #A80036; stroke-width: 1.0;"/><line style="stroke: #A80036; stroke-width: 1.0; stroke-dasharray: 2.0,2.0;" x1="65" x2="187" y1="344.6563" y2="344.6563"/><text fill="#000000" font-family="sans-serif" font-size="13" lengthAdjust="spacingAndGlyphs" textLength="23" x="77" y="339.5903">URL</text><rect fill="#EEEEEE" filter="url(#fxxx7rd9tuftf)" height="3" style="stroke: #EEEEEE; stroke-width: 1.0;" width="933.5" x="3" y="373.2227"/><line style="stroke: #000000; stroke-width: 1.0;" x1="3" x2="936.5" y1="373.2227" y2="373.2227"/><line style="stroke: #000000; stroke-width: 1.0;" x1="3" x2="936.5" y1="376.2227" y2="376.2227"/><rect fill="#EEEEEE" filter="url(#fxxx7rd9tuftf)" height="23.1328" style="stroke: #000000; stroke-width: 2.0;" width="102" x="418.75" y="362.6563"/><text fill="#000000" font-family="sans-serif" font-size="13" font-weight="bold" lengthAdjust="spacingAndGlyphs" textLength="85" x="424.75" y="378.7231">Batch Upload</text><polygon fill="#A80036" points="718,412.9219,728,416.9219,718,420.9219,722,416.9219" style="stroke: #A80036; stroke-width: 1.0;"/><line style="stroke: #A80036; stroke-width: 1.0;" x1="475" x2="724" y1="416.9219" y2="416.9219"/><text fill="#000000" font-family="sans-serif" font-size="13" lengthAdjust="spacingAndGlyphs" textLength="182" x="482" y="411.856">Update request (get increment)</text><polygon fill="#A80036" points="486,442.0547,476,446.0547,486,450.0547,482,446.0547" style="stroke: #A80036; stroke-width: 1.0;"/><line style="stroke: #A80036; stroke-width: 1.0; stroke-dasharray: 2.0,2.0;" x1="480" x2="729" y1="446.0547" y2="446.0547"/><text fill="#000000" font-family="sans-serif" font-size="13" lengthAdjust="spacingAndGlyphs" textLength="142" x="492" y="440.9888">New entries (ID + image)</text><polygon fill="#A80036" points="848.5,471.1875,858.5,475.1875,848.5,479.1875,852.5,475.1875" style="stroke: #A80036; stroke-width: 1.0;"/><line style="stroke: #A80036; stroke-width: 1.0;" x1="475" x2="854.5" y1="475.1875" y2="475.1875"/><text fill="#000000" font-family="sans-serif" font-size="13" lengthAdjust="spacingAndGlyphs" textLength="97" x="482" y="470.1216">ID (ISBN, ISSN ..)</text><polygon fill="#A80036" points="486,500.3203,476,504.3203,486,508.3203,482,504.3203" style="stroke: #A80036; stroke-width: 1.0;"/><line style="stroke: #A80036; stroke-width: 1.0; stroke-dasharray: 2.0,2.0;" x1="480" x2="859.5" y1="504.3203" y2="504.3203"/><text fill="#000000" font-family="sans-serif" font-size="13" lengthAdjust="spacingAndGlyphs" textLength="21" x="492" y="499.2544">PID</text><polygon fill="#A80036" points="309,529.4531,299,533.4531,309,537.4531,305,533.4531" style="stroke: #A80036; stroke-width: 1.0;"/><line style="stroke: #A80036; stroke-width: 1.0;" x1="303" x2="474" y1="533.4531" y2="533.4531"/><text fill="#000000" font-family="sans-serif" font-size="13" lengthAdjust="spacingAndGlyphs" textLength="153" x="315" y="528.3872">Reference data (ID + PID..)</text><polygon fill="#A80036" points="199,558.5859,189,562.5859,199,566.5859,195,562.5859" style="stroke: #A80036; stroke-width: 1.0;"/><line style="stroke: #A80036; stroke-width: 1.0;" x1="193" x2="474" y1="562.5859" y2="562.5859"/><text fill="#000000" font-family="sans-serif" font-size="13" lengthAdjust="spacingAndGlyphs" textLength="44" x="205" y="557.52">ID + file</text><!--
@startuml

title Cover Service - Sequence Diagram

boundary "DDB CMS / App" as CLIENT
entity "Cover Service" as COVER


database "Reference Table" as refMetaDB
control "Upload" as UPLOAD
database "Source table" as souMetaDB
database "Cover DB" as CoverDB

database "Vendor file list" as VENDORS
database "OpenPlatform/Search" as OPsearch

== Client request ==

CLIENT - -> COVER: PID + acces_token
COVER - -> refMetaDB: Key + type
COVER - -> CoverDB: REfID
COVER <- - CoverDB: URL / data
COVER - -> refMetaDB: Key + type
COVER <- - refMetaDB: URL / data
CLIENT <- - COVER: URL

== Batch Upload ==

UPLOAD -> VENDORS: Update request (get increment)
UPLOAD <- - VENDORS: New entries (ID + image)
UPLOAD -> OPsearch: ID (ISBN, ISSN ..)
UPLOAD <- - OPsearch: PID
UPLOAD -> refMetaDB: Reference data (ID + PID..)
UPLOAD -> COVER: ID + file

@enduml

PlantUML version 1.2019.05(Sat Apr 20 16:45:36 GMT 2019)
(GPL source distribution)
Java Runtime: Java(TM) SE Runtime Environment
JVM: Java HotSpot(TM) 64-Bit Server VM
Java Version: 1.8.0_202-b08
Operating System: Linux
OS Version: 5.0.0-1023-azure
Default Encoding: ANSI_X3.4-1968
Language: en
Country: US
--></g></svg>