<?xml version="1.0" encoding="UTF-8" standalone="no"?><svg xmlns="http://www.w3.org/2000/svg" xmlns:xlink="http://www.w3.org/1999/xlink" contentScriptType="application/ecmascript" contentStyleType="text/css" height="531px" preserveAspectRatio="none" style="width:735px;height:531px;" version="1.1" viewBox="0 0 735 531" width="735px" zoomAndPan="magnify"><defs><filter height="300%" id="f1hawg29ud76zt" width="300%" x="-1" y="-1"><feGaussianBlur result="blurOut" stdDeviation="2.0"/><feColorMatrix in="blurOut" result="blurOut2" type="matrix" values="0 0 0 0 0 0 0 0 0 0 0 0 0 0 0 0 0 0 .4 0"/><feOffset dx="4.0" dy="4.0" in="blurOut2" result="blurOut3"/><feBlend in="SourceGraphic" in2="blurOut3" mode="normal"/></filter></defs><g><text fill="#000000" font-family="sans-serif" font-size="18" lengthAdjust="spacingAndGlyphs" textLength="299" x="225" y="16.708">Cover Service - Component Diagram</text><!--cluster CMS--><polygon fill="#FFFFFF" filter="url(#f1hawg29ud76zt)" points="264,36.9531,332,36.9531,339,59.25,407,59.25,407,107.9531,264,107.9531,264,36.9531" style="stroke: #000000; stroke-width: 1.5;"/><line style="stroke: #000000; stroke-width: 1.5;" x1="264" x2="339" y1="59.25" y2="59.25"/><text fill="#000000" font-family="sans-serif" font-size="14" font-weight="bold" lengthAdjust="spacingAndGlyphs" textLength="62" x="268" y="51.9482">DDB CMS</text><!--cluster DBC--><polygon fill="#FFFFFF" filter="url(#f1hawg29ud76zt)" points="14,137.9531,24,127.9531,635,127.9531,635,415.9531,625,425.9531,14,425.9531,14,137.9531" style="stroke: #000000; stroke-width: 1.5;"/><line style="stroke: #000000; stroke-width: 1.5;" x1="625" x2="634" y1="137.9531" y2="128.9531"/><line style="stroke: #000000; stroke-width: 1.5;" x1="14" x2="625" y1="137.9531" y2="137.9531"/><line style="stroke: #000000; stroke-width: 1.5;" x1="625" x2="625" y1="137.9531" y2="425.9531"/><text fill="#000000" font-family="sans-serif" font-size="14" font-weight="bold" lengthAdjust="spacingAndGlyphs" textLength="28" x="306.5" y="153.9482">DBC</text><!--cluster Datawell--><path d="M22,245.9531 C22,235.9531 167.5,235.9531 167.5,235.9531 C167.5,235.9531 313,235.9531 313,245.9531 L313,311.9531 C313,321.9531 167.5,321.9531 167.5,321.9531 C167.5,321.9531 22,321.9531 22,311.9531 L22,245.9531 " fill="#FFFFFF" filter="url(#f1hawg29ud76zt)" style="stroke: #000000; stroke-width: 1.5;"/><path d="M22,245.9531 C22,255.9531 167.5,255.9531 167.5,255.9531 C167.5,255.9531 313,255.9531 313,245.9531 " fill="none" style="stroke: #000000; stroke-width: 1.5;"/><text fill="#000000" font-family="sans-serif" font-size="14" font-weight="bold" lengthAdjust="spacingAndGlyphs" textLength="60" x="137.5" y="270.9482">Datawell</text><!--cluster MoreInfo Raw Store--><path d="M326,341.9531 C326,331.9531 403,331.9531 403,331.9531 C403,331.9531 480,331.9531 480,341.9531 L480,407.9531 C480,417.9531 403,417.9531 403,417.9531 C403,417.9531 326,417.9531 326,407.9531 L326,341.9531 " fill="#FFFFFF" filter="url(#f1hawg29ud76zt)" style="stroke: #000000; stroke-width: 1.5;"/><path d="M326,341.9531 C326,351.9531 403,351.9531 403,351.9531 C403,351.9531 480,351.9531 480,341.9531 " fill="none" style="stroke: #000000; stroke-width: 1.5;"/><text fill="#000000" font-family="sans-serif" font-size="14" font-weight="bold" lengthAdjust="spacingAndGlyphs" textLength="138" x="334" y="366.9482">MoreInfo Raw Store</text><!--cluster PressReader--><path d="M423,443.9531 C423,433.9531 494,433.9531 494,433.9531 C494,433.9531 565,433.9531 565,443.9531 L565,509.9531 C565,519.9531 494,519.9531 494,519.9531 C494,519.9531 423,519.9531 423,509.9531 L423,443.9531 " fill="#FFFFFF" filter="url(#f1hawg29ud76zt)" style="stroke: #000000; stroke-width: 1.5;"/><path d="M423,443.9531 C423,453.9531 494,453.9531 494,453.9531 C494,453.9531 565,453.9531 565,443.9531 " fill="none" style="stroke: #000000; stroke-width: 1.5;"/><text fill="#000000" font-family="sans-serif" font-size="14" font-weight="bold" lengthAdjust="spacingAndGlyphs" textLength="85" x="451.5" y="468.9482">PressReader</text><!--cluster Bogportalen--><path d="M583,443.9531 C583,433.9531 653,433.9531 653,433.9531 C653,433.9531 723,433.9531 723,443.9531 L723,509.9531 C723,519.9531 653,519.9531 653,519.9531 C653,519.9531 583,519.9531 583,509.9531 L583,443.9531 " fill="#FFFFFF" filter="url(#f1hawg29ud76zt)" style="stroke: #000000; stroke-width: 1.5;"/><path d="M583,443.9531 C583,453.9531 653,453.9531 653,453.9531 C653,453.9531 723,453.9531 723,443.9531 " fill="none" style="stroke: #000000; stroke-width: 1.5;"/><text fill="#000000" font-family="sans-serif" font-size="14" font-weight="bold" lengthAdjust="spacingAndGlyphs" textLength="86" x="610" y="468.9482">Bogportalen</text><!--entity SHOW--><rect fill="#FEFECE" filter="url(#f1hawg29ud76zt)" height="36.2969" style="stroke: #A80036; stroke-width: 1.5;" width="92" x="307" y="63.9531"/><rect fill="#FEFECE" height="5" style="stroke: #A80036; stroke-width: 1.5;" width="10" x="302" y="68.9531"/><rect fill="#FEFECE" height="5" style="stroke: #A80036; stroke-width: 1.5;" width="10" x="302" y="90.25"/><text fill="#000000" font-family="sans-serif" font-size="14" lengthAdjust="spacingAndGlyphs" textLength="72" x="317" y="86.9482">Show cover</text><!--entity MORELOGIC--><rect fill="#FEFECE" filter="url(#f1hawg29ud76zt)" height="36.2969" style="stroke: #A80036; stroke-width: 1.5;" width="115" x="340.5" y="277.9531"/><rect fill="#FEFECE" height="5" style="stroke: #A80036; stroke-width: 1.5;" width="10" x="335.5" y="282.9531"/><rect fill="#FEFECE" height="5" style="stroke: #A80036; stroke-width: 1.5;" width="10" x="335.5" y="304.25"/><text fill="#000000" font-family="sans-serif" font-size="14" lengthAdjust="spacingAndGlyphs" textLength="95" x="350.5" y="300.9482">MoreInfo Logic</text><!--entity MOREINFO--><ellipse cx="404" cy="188.9531" fill="#FEFECE" filter="url(#f1hawg29ud76zt)" rx="8" ry="8" style="stroke: #A80036; stroke-width: 2.0;"/><text fill="#000000" font-family="sans-serif" font-size="14" lengthAdjust="spacingAndGlyphs" textLength="108" x="350" y="218.9482">MoreInfo Service</text><!--entity UFO--><ellipse cx="221" cy="188.9531" fill="#FEFECE" filter="url(#f1hawg29ud76zt)" rx="8" ry="8" style="stroke: #A80036; stroke-width: 2.0;"/><text fill="#000000" font-family="sans-serif" font-size="14" lengthAdjust="spacingAndGlyphs" textLength="157" x="142.5" y="218.9482">MoreInfo Upload Service</text><!--entity MOREMAPPING--><rect fill="#FEFECE" filter="url(#f1hawg29ud76zt)" height="36.2969" style="stroke: #A80036; stroke-width: 1.5;" width="136" x="491" y="277.9531"/><rect fill="#FEFECE" height="5" style="stroke: #A80036; stroke-width: 1.5;" width="10" x="486" y="282.9531"/><rect fill="#FEFECE" height="5" style="stroke: #A80036; stroke-width: 1.5;" width="10" x="486" y="304.25"/><text fill="#000000" font-family="sans-serif" font-size="14" lengthAdjust="spacingAndGlyphs" textLength="116" x="501" y="300.9482">MoreInfo Mapping</text><!--entity META--><rect fill="#FEFECE" filter="url(#f1hawg29ud76zt)" height="36.2969" style="stroke: #A80036; stroke-width: 1.5;" width="124" x="181" y="277.9531"/><rect fill="#FEFECE" height="5" style="stroke: #A80036; stroke-width: 1.5;" width="10" x="176" y="282.9531"/><rect fill="#FEFECE" height="5" style="stroke: #A80036; stroke-width: 1.5;" width="10" x="176" y="304.25"/><text fill="#000000" font-family="sans-serif" font-size="14" lengthAdjust="spacingAndGlyphs" textLength="104" x="191" y="300.9482">Stored Metadata</text><!--entity HASCOVER--><rect fill="#FEFECE" filter="url(#f1hawg29ud76zt)" height="36.2969" style="stroke: #A80036; stroke-width: 1.5;" width="116" x="30" y="277.9531"/><rect fill="#FEFECE" height="5" style="stroke: #A80036; stroke-width: 1.5;" width="10" x="25" y="282.9531"/><rect fill="#FEFECE" height="5" style="stroke: #A80036; stroke-width: 1.5;" width="10" x="25" y="304.25"/><text fill="#000000" font-family="sans-serif" font-size="14" lengthAdjust="spacingAndGlyphs" textLength="96" x="40" y="300.9482">HasCoverIndex</text><!--entity MOREIMAGE--><rect fill="#FEFECE" filter="url(#f1hawg29ud76zt)" height="36.2969" style="stroke: #A80036; stroke-width: 1.5;" width="111" x="342.5" y="373.9531"/><rect fill="#FEFECE" height="5" style="stroke: #A80036; stroke-width: 1.5;" width="10" x="337.5" y="378.9531"/><rect fill="#FEFECE" height="5" style="stroke: #A80036; stroke-width: 1.5;" width="10" x="337.5" y="400.25"/><text fill="#000000" font-family="sans-serif" font-size="14" lengthAdjust="spacingAndGlyphs" textLength="91" x="352.5" y="396.9482">Stored images</text><!--entity PRESSFTP--><rect fill="#FEFECE" filter="url(#f1hawg29ud76zt)" height="36.2969" style="stroke: #A80036; stroke-width: 1.5;" width="125" x="431.5" y="475.9531"/><rect fill="#FEFECE" height="5" style="stroke: #A80036; stroke-width: 1.5;" width="10" x="426.5" y="480.9531"/><rect fill="#FEFECE" height="5" style="stroke: #A80036; stroke-width: 1.5;" width="10" x="426.5" y="502.25"/><text fill="#000000" font-family="sans-serif" font-size="14" lengthAdjust="spacingAndGlyphs" textLength="105" x="441.5" y="498.9482">PressReader FTP</text><!--entity BOGFTP--><rect fill="#FEFECE" filter="url(#f1hawg29ud76zt)" height="36.2969" style="stroke: #A80036; stroke-width: 1.5;" width="123" x="591.5" y="475.9531"/><rect fill="#FEFECE" height="5" style="stroke: #A80036; stroke-width: 1.5;" width="10" x="586.5" y="480.9531"/><rect fill="#FEFECE" height="5" style="stroke: #A80036; stroke-width: 1.5;" width="10" x="586.5" y="502.25"/><text fill="#000000" font-family="sans-serif" font-size="14" lengthAdjust="spacingAndGlyphs" textLength="103" x="601.5" y="498.9482">Bogportalen FTP</text><!--link SHOW to META--><path d="M399.1628,90.5851 C436.6762,98.649 485.2361,111.8457 497,127.9531 C520.5916,160.2554 523.9027,188.3516 497,217.9531 C468.7732,249.0116 347.3787,218.9689 309,235.9531 C290.0068,244.3584 272.7988,260.4261 260.7189,273.8199 " fill="none" id="SHOW-META" style="stroke: #A80036; stroke-width: 1.0;"/><polygon fill="#A80036" points="257.1384,277.8793,266.0916,273.7756,260.4458,274.1295,260.0919,268.4837,257.1384,277.8793" style="stroke: #A80036; stroke-width: 1.0;"/><!--link SHOW to MOREINFO--><path d="M361.6515,100.1042 C371.7304,121.2503 388.1658,155.7323 397.3155,174.9287 " fill="none" id="SHOW-MOREINFO" style="stroke: #A80036; stroke-width: 1.0;"/><polygon fill="#A80036" points="399.6916,179.9139,399.4299,170.0685,397.5402,175.4004,392.2083,173.5108,399.6916,179.9139" style="stroke: #A80036; stroke-width: 1.0;"/><!--link CMS to HASCOVER--><path d="M263.7956,82.9734 C263.5234,83.0087 263.2453,83.045 262.9612,83.0823 C258.4162,83.6777 252.3566,84.5062 245.2464,85.5624 C231.026,87.6747 212.6031,90.6973 193.6889,94.5859 C155.8607,102.3631 116.0676,113.604 104,127.9531 C69.4903,168.9874 76.1427,237.2037 82.7427,272.7717 " fill="none" id="CMS-HASCOVER" style="stroke: #A80036; stroke-width: 1.0;"/><polygon fill="#A80036" points="83.7112,277.7754,85.9278,268.1792,82.7609,272.8666,78.0736,269.6997,83.7112,277.7754" style="stroke: #A80036; stroke-width: 1.0;"/><!--link MOREINFO to MORELOGIC--><path d="M403.4884,198.0759 C402.5022,215.6632 400.3211,254.5596 399.025,277.6731 " fill="none" id="MOREINFO-MORELOGIC" style="stroke: #A80036; stroke-width: 1.0;"/><!--link MORELOGIC to MOREIMAGE--><path d="M387.7784,314.01 C384.4233,331.0646 384.4073,356.5162 387.7304,373.6508 " fill="none" id="MORELOGIC-MOREIMAGE" style="stroke: #A80036; stroke-width: 1.0;"/><!--link MORELOGIC to MOREIMAGE--><path d="M408.8229,314.01 C412.3754,331.0646 412.3923,356.5162 408.8737,373.6508 " fill="none" id="MORELOGIC-MOREIMAGE-1" style="stroke: #A80036; stroke-width: 1.0;"/><!--link MOREMAPPING to PRESSFTP--><path d="M553.0015,314.2256 C540.6187,351.9454 512.3544,438.0428 499.984,475.7248 " fill="none" id="MOREMAPPING-PRESSFTP" style="stroke: #A80036; stroke-width: 1.0;"/><!--link MOREMAPPING to BOGFTP--><path d="M567.6748,314.2256 C585.5822,351.9454 626.4567,438.0428 644.3462,475.7248 " fill="none" id="MOREMAPPING-BOGFTP" style="stroke: #A80036; stroke-width: 1.0;"/><!--link MOREMAPPING to MOREIMAGE--><path d="M494.7641,314.0118 C482.0934,318.8908 469.2493,324.8392 458,331.9531 C440.1956,343.2125 423.5604,360.6146 412.3437,373.7837 " fill="none" id="MOREMAPPING-MOREIMAGE" style="stroke: #A80036; stroke-width: 1.0;"/><!--link MOREMAPPING to HASCOVER--><path d="M540.7803,277.8789 C521.5175,260.3156 489.2931,235.1335 455.5,226.9531 C425.8022,219.764 210.1978,219.764 180.5,226.9531 C151.3538,234.0086 124.6685,256.4018 107.5303,273.7853 " fill="none" id="MOREMAPPING-HASCOVER" style="stroke: #A80036; stroke-width: 1.0;"/><polygon fill="#A80036" points="103.8086,277.6346,112.94,273.9445,107.284,274.04,107.1886,268.3839,103.8086,277.6346" style="stroke: #A80036; stroke-width: 1.0;"/><!--link CMS to UFO--><path d="M263.8828,98.9834 C263.6498,99.4722 263.4131,99.9688 263.1729,100.4728 C262.6924,101.4807 262.198,102.5181 261.6909,103.582 C260.6767,105.7098 259.6121,107.9434 258.5086,110.2586 C256.3016,114.889 253.939,119.8457 251.5135,124.9346 C241.8113,145.2901 231.1011,167.7606 225.3043,179.9226 " fill="none" id="CMS-UFO" style="stroke: #A80036; stroke-width: 1.0;"/><!--link UFO to MORELOGIC--><path d="M230.1748,192.4616 C248.2105,199.5299 289.2859,216.4806 321,235.9531 C341.2191,248.3677 362.3522,265.1482 377.3525,277.8065 " fill="none" id="UFO-MORELOGIC" style="stroke: #A80036; stroke-width: 1.0;"/><!--
@startuml

title Cover Service - Component Diagram

package "DDB CMS" as CMS {
    component [Show cover] as SHOW
}


node "DBC" {
    [MoreInfo Logic] as MORELOGIC
    interface "MoreInfo Service"  as MOREINFO
    interface "MoreInfo Upload Service"  as UFO
    [MoreInfo Mapping] as MOREMAPPING

    database "Datawell" {
        [Stored Metadata] as META
        [HasCoverIndex] as HASCOVER
    }
    database "MoreInfo Raw Store" {
        [Stored images] as MOREIMAGE
    }
} 

database "PressReader" {
    [PressReader FTP] as PRESSFTP
}

database "Bogportalen" {
    [Bogportalen FTP] as BOGFTP
}

SHOW - -> META
SHOW - -> MOREINFO
CMS - -> HASCOVER
MOREINFO - - MORELOGIC
MORELOGIC - - MOREIMAGE
MOREMAPPING -down- - PRESSFTP
MOREMAPPING -down- - BOGFTP
MOREMAPPING - - MOREIMAGE
MOREMAPPING -> HASCOVER
CMS - - UFO
UFO - - MORELOGIC
MORELOGIC - - MOREIMAGE
@enduml

PlantUML version 1.2019.05(Sat Apr 20 16:45:36 GMT 2019)
(GPL source distribution)
Java Runtime: Java(TM) SE Runtime Environment
JVM: Java HotSpot(TM) 64-Bit Server VM
Java Version: 1.8.0_202-b08
Operating System: Linux
OS Version: 5.0.0-1023-azure
Default Encoding: ANSI_X3.4-1968
Language: en
Country: US
--></g></svg>