<?xml version="1.0" encoding="UTF-8" standalone="no"?><svg xmlns="http://www.w3.org/2000/svg" xmlns:xlink="http://www.w3.org/1999/xlink" contentScriptType="application/ecmascript" contentStyleType="text/css" height="335px" preserveAspectRatio="none" style="width:520px;height:335px;" version="1.1" viewBox="0 0 520 335" width="520px" zoomAndPan="magnify"><defs><filter height="300%" id="f17ss5f2vxdm7m" width="300%" x="-1" y="-1"><feGaussianBlur result="blurOut" stdDeviation="2.0"/><feColorMatrix in="blurOut" result="blurOut2" type="matrix" values="0 0 0 0 0 0 0 0 0 0 0 0 0 0 0 0 0 0 .4 0"/><feOffset dx="4.0" dy="4.0" in="blurOut2" result="blurOut3"/><feBlend in="SourceGraphic" in2="blurOut3" mode="normal"/></filter></defs><g><text fill="#000000" font-family="sans-serif" font-size="18" lengthAdjust="spacingAndGlyphs" textLength="219" x="157.5" y="16.708">Cover Service components</text><!--cluster Front End--><polygon fill="#FFFFFF" filter="url(#f17ss5f2vxdm7m)" points="14,43.9531,89,43.9531,96,66.25,110,66.25,110,131.9531,14,131.9531,14,43.9531" style="stroke: #000000; stroke-width: 1.5;"/><line style="stroke: #000000; stroke-width: 1.5;" x1="14" x2="96" y1="66.25" y2="66.25"/><text fill="#000000" font-family="sans-serif" font-size="14" font-weight="bold" lengthAdjust="spacingAndGlyphs" textLength="69" x="18" y="58.9482">Front End</text><!--cluster CoverService--><polygon fill="#FFFFFF" filter="url(#f17ss5f2vxdm7m)" points="118,57.4531,128,47.4531,374,47.4531,374,217.9531,364,227.9531,118,227.9531,118,57.4531" style="stroke: #000000; stroke-width: 1.5;"/><line style="stroke: #000000; stroke-width: 1.5;" x1="364" x2="373" y1="57.4531" y2="48.4531"/><line style="stroke: #000000; stroke-width: 1.5;" x1="118" x2="364" y1="57.4531" y2="57.4531"/><line style="stroke: #000000; stroke-width: 1.5;" x1="364" x2="364" y1="57.4531" y2="227.9531"/><text fill="#000000" font-family="sans-serif" font-size="14" font-weight="bold" lengthAdjust="spacingAndGlyphs" textLength="92" x="196" y="73.4482">Cover Service</text><!--cluster CoverDB--><path d="M382,47.4531 C382,37.4531 445,37.4531 445,37.4531 C445,37.4531 508,37.4531 508,47.4531 L508,113.4531 C508,123.4531 445,123.4531 445,123.4531 C445,123.4531 382,123.4531 382,113.4531 L382,47.4531 " fill="#FFFFFF" filter="url(#f17ss5f2vxdm7m)" style="stroke: #000000; stroke-width: 1.5;"/><path d="M382,47.4531 C382,57.4531 445,57.4531 445,57.4531 C445,57.4531 508,57.4531 508,47.4531 " fill="none" style="stroke: #000000; stroke-width: 1.5;"/><text fill="#000000" font-family="sans-serif" font-size="14" font-weight="bold" lengthAdjust="spacingAndGlyphs" textLength="59" x="415.5" y="72.4482">CoverDB</text><!--cluster Vendor Data--><path d="M263,247.9531 C263,237.9531 314.5,237.9531 314.5,237.9531 C314.5,237.9531 366,237.9531 366,247.9531 L366,313.9531 C366,323.9531 314.5,323.9531 314.5,323.9531 C314.5,323.9531 263,323.9531 263,313.9531 L263,247.9531 " fill="#FFFFFF" filter="url(#f17ss5f2vxdm7m)" style="stroke: #000000; stroke-width: 1.5;"/><path d="M263,247.9531 C263,257.9531 314.5,257.9531 314.5,257.9531 C314.5,257.9531 366,257.9531 366,247.9531 " fill="none" style="stroke: #000000; stroke-width: 1.5;"/><text fill="#000000" font-family="sans-serif" font-size="14" font-weight="bold" lengthAdjust="spacingAndGlyphs" textLength="87" x="271" y="272.9482">Vendor Data</text><!--entity CLIENT--><rect fill="#FEFECE" filter="url(#f17ss5f2vxdm7m)" height="52.5938" style="stroke: #A80036; stroke-width: 1.5;" width="80" x="22" y="70.9531"/><rect fill="#FEFECE" height="5" style="stroke: #A80036; stroke-width: 1.5;" width="10" x="17" y="75.9531"/><rect fill="#FEFECE" height="5" style="stroke: #A80036; stroke-width: 1.5;" width="10" x="17" y="113.5469"/><text fill="#000000" font-family="sans-serif" font-size="14" lengthAdjust="spacingAndGlyphs" textLength="60" x="32" y="93.9482">DDB CMS</text><text fill="#000000" font-family="sans-serif" font-size="14" lengthAdjust="spacingAndGlyphs" textLength="34" x="32" y="110.2451">/ APP</text><!--entity COVER--><ellipse cx="167" cy="97.4531" fill="#FEFECE" filter="url(#f17ss5f2vxdm7m)" rx="8" ry="8" style="stroke: #A80036; stroke-width: 2.0;"/><text fill="#000000" font-family="sans-serif" font-size="14" lengthAdjust="spacingAndGlyphs" textLength="42" x="146" y="127.4482">COVER</text><!--entity refMetaDB--><rect fill="#FEFECE" filter="url(#f17ss5f2vxdm7m)" height="36.2969" style="stroke: #A80036; stroke-width: 1.5;" width="122" x="232" y="79.4531"/><rect fill="#FEFECE" height="5" style="stroke: #A80036; stroke-width: 1.5;" width="10" x="227" y="84.4531"/><rect fill="#FEFECE" height="5" style="stroke: #A80036; stroke-width: 1.5;" width="10" x="227" y="105.75"/><text fill="#000000" font-family="sans-serif" font-size="14" lengthAdjust="spacingAndGlyphs" textLength="102" x="242" y="102.4482">Reference Table</text><!--entity souMetaDB--><rect fill="#FEFECE" filter="url(#f17ss5f2vxdm7m)" height="36.2969" style="stroke: #A80036; stroke-width: 1.5;" width="101" x="126.5" y="183.9531"/><rect fill="#FEFECE" height="5" style="stroke: #A80036; stroke-width: 1.5;" width="10" x="121.5" y="188.9531"/><rect fill="#FEFECE" height="5" style="stroke: #A80036; stroke-width: 1.5;" width="10" x="121.5" y="210.25"/><text fill="#000000" font-family="sans-serif" font-size="14" lengthAdjust="spacingAndGlyphs" textLength="81" x="136.5" y="206.9482">Source Table</text><!--entity UBAT--><rect fill="#FEFECE" filter="url(#f17ss5f2vxdm7m)" height="36.2969" style="stroke: #A80036; stroke-width: 1.5;" width="103" x="262.5" y="183.9531"/><rect fill="#FEFECE" height="5" style="stroke: #A80036; stroke-width: 1.5;" width="10" x="257.5" y="188.9531"/><rect fill="#FEFECE" height="5" style="stroke: #A80036; stroke-width: 1.5;" width="10" x="257.5" y="210.25"/><text fill="#000000" font-family="sans-serif" font-size="14" lengthAdjust="spacingAndGlyphs" textLength="83" x="272.5" y="206.9482">Batch upload</text><!--entity Stored images--><rect fill="#FEFECE" filter="url(#f17ss5f2vxdm7m)" height="36.2969" style="stroke: #A80036; stroke-width: 1.5;" width="111" x="389.5" y="79.4531"/><rect fill="#FEFECE" height="5" style="stroke: #A80036; stroke-width: 1.5;" width="10" x="384.5" y="84.4531"/><rect fill="#FEFECE" height="5" style="stroke: #A80036; stroke-width: 1.5;" width="10" x="384.5" y="105.75"/><text fill="#000000" font-family="sans-serif" font-size="14" lengthAdjust="spacingAndGlyphs" textLength="91" x="399.5" y="102.4482">Stored images</text><!--entity File list--><rect fill="#FEFECE" filter="url(#f17ss5f2vxdm7m)" height="36.2969" style="stroke: #A80036; stroke-width: 1.5;" width="67" x="280.5" y="279.9531"/><rect fill="#FEFECE" height="5" style="stroke: #A80036; stroke-width: 1.5;" width="10" x="275.5" y="284.9531"/><rect fill="#FEFECE" height="5" style="stroke: #A80036; stroke-width: 1.5;" width="10" x="275.5" y="306.25"/><text fill="#000000" font-family="sans-serif" font-size="14" lengthAdjust="spacingAndGlyphs" textLength="47" x="290.5" y="302.9482">File list</text><!--link CLIENT to COVER--><path d="M102.1953,97.4531 C119.0188,97.4531 135.8423,97.4531 152.6658,97.4531 " fill="none" id="CLIENT-COVER" style="stroke: #A80036; stroke-width: 1.0;"/><polygon fill="#A80036" points="157.8868,97.4531,148.8868,93.4531,152.8868,97.4531,148.8868,101.4531,157.8868,97.4531" style="stroke: #A80036; stroke-width: 1.0;"/><!--link COVER to refMetaDB--><path d="M176.3516,97.4531 C193.1445,97.4531 209.9374,97.4531 226.7302,97.4531 " fill="none" id="COVER-refMetaDB" style="stroke: #A80036; stroke-width: 1.0;"/><polygon fill="#A80036" points="231.9418,97.4531,222.9418,93.4531,226.9418,97.4531,222.9418,101.4531,231.9418,97.4531" style="stroke: #A80036; stroke-width: 1.0;"/><!--link refMetaDB to Stored images--><path d="M354.1563,110.4381 C364.1283,111.1301 374.1004,111.1247 384.0725,110.4221 " fill="none" id="refMetaDB-Stored images" style="stroke: #A80036; stroke-width: 1.0;"/><polygon fill="#A80036" points="389.2872,109.9912,379.9883,106.7462,384.3042,110.4031,380.6473,114.719,389.2872,109.9912" style="stroke: #A80036; stroke-width: 1.0;"/><!--link UBAT to File list--><path d="M314,220.01 C314,237.0646 314,262.5162 314,279.6508 " fill="none" id="UBAT-File list" style="stroke: #A80036; stroke-width: 1.0;"/><!--link souMetaDB to UBAT--><path d="M232.734,201.9531 C242.6046,201.9531 252.4753,201.9531 262.3459,201.9531 " fill="none" id="souMetaDB-UBAT" style="stroke: #A80036; stroke-width: 1.0;"/><polygon fill="#A80036" points="227.5723,201.9531,236.5723,205.9531,232.5723,201.9531,236.5723,197.9531,227.5723,201.9531" style="stroke: #A80036; stroke-width: 1.0;"/><!--link refMetaDB to UBAT--><path d="M297.6905,120.7941 C301.5014,139.7575 306.8021,166.135 310.3135,183.6086 " fill="none" id="refMetaDB-UBAT" style="stroke: #A80036; stroke-width: 1.0;"/><polygon fill="#A80036" points="296.6579,115.6556,294.5096,125.2673,297.643,120.5576,302.3527,123.6911,296.6579,115.6556" style="stroke: #A80036; stroke-width: 1.0;"/><!--link Stored images to UBAT--><path d="M418.1448,118.8758 C394.2417,137.9435 359.65,165.5377 336.9965,183.6086 " fill="none" id="Stored images-UBAT" style="stroke: #A80036; stroke-width: 1.0;"/><polygon fill="#A80036" points="422.1815,115.6556,412.6514,118.1411,418.2728,118.7736,417.6402,124.395,422.1815,115.6556" style="stroke: #A80036; stroke-width: 1.0;"/><!--
@startuml

title Cover Service components

package "Front End" {
    component [DDB CMS\n/ APP] as CLIENT
}

node "Cover Service" as CoverService {
    interface COVER
    [Reference Table] as refMetaDB
    [Source Table] as souMetaDB
    [Batch upload] as UBAT
} 

database "CoverDB" {
    [Stored images]
}

database "Vendor Data" {
    [File list]
}

CLIENT -> COVER
COVER -> refMetaDB
refMetaDB -> [Stored images]

UBAT -down- [File list]
UBAT -left-> [souMetaDB]
UBAT -up-> refMetaDB
UBAT -up-> [Stored images]

@enduml

PlantUML version 1.2019.05(Sat Apr 20 16:45:36 GMT 2019)
(GPL source distribution)
Java Runtime: Java(TM) SE Runtime Environment
JVM: Java HotSpot(TM) 64-Bit Server VM
Java Version: 1.8.0_202-b08
Operating System: Linux
OS Version: 5.0.0-1023-azure
Default Encoding: ANSI_X3.4-1968
Language: en
Country: US
--></g></svg>