<?xml version="1.0" encoding="UTF-8" standalone="no"?><svg xmlns="http://www.w3.org/2000/svg" xmlns:xlink="http://www.w3.org/1999/xlink" contentScriptType="application/ecmascript" contentStyleType="text/css" height="914px" preserveAspectRatio="none" style="width:809px;height:914px;" version="1.1" viewBox="0 0 809 914" width="809px" zoomAndPan="magnify"><defs><filter height="300%" id="fumwlj2i6rljc" width="300%" x="-1" y="-1"><feGaussianBlur result="blurOut" stdDeviation="2.0"/><feColorMatrix in="blurOut" result="blurOut2" type="matrix" values="0 0 0 0 0 0 0 0 0 0 0 0 0 0 0 0 0 0 .4 0"/><feOffset dx="4.0" dy="4.0" in="blurOut2" result="blurOut3"/><feBlend in="SourceGraphic" in2="blurOut3" mode="normal"/></filter></defs><g><!--MD5=[54a43826f2bc7a2afb45e06c05bb0c28]
cluster Systematic--><polygon fill="#FFFFFF" filter="url(#fumwlj2i6rljc)" points="564,24.5,647,24.5,654,46.7969,704,46.7969,704,180.5,564,180.5,564,24.5" style="stroke: #000000; stroke-width: 1.5;"/><line style="stroke: #000000; stroke-width: 1.5;" x1="564" x2="654" y1="46.7969" y2="46.7969"/><text fill="#000000" font-family="sans-serif" font-size="14" font-weight="bold" lengthAdjust="spacingAndGlyphs" textLength="77" x="568" y="39.4951">Systematic</text><!--MD5=[e6925c455560c697c15e9ff4ef0b1888]
cluster FBS--><polygon fill="#FFFFFF" filter="url(#fumwlj2i6rljc)" points="572,51.5,602,51.5,609,73.7969,696,73.7969,696,172.5,572,172.5,572,51.5" style="stroke: #000000; stroke-width: 1.5;"/><line style="stroke: #000000; stroke-width: 1.5;" x1="572" x2="609" y1="73.7969" y2="73.7969"/><text fill="#000000" font-family="sans-serif" font-size="14" font-weight="bold" lengthAdjust="spacingAndGlyphs" textLength="24" x="576" y="66.4951">FBS</text><!--MD5=[89e514b20f27c60f693f9807401696c1]
cluster FBS Låner--><path d="M580,88.5 C580,78.5 634,78.5 634,78.5 C634,78.5 688,78.5 688,88.5 L688,154.5 C688,164.5 634,164.5 634,164.5 C634,164.5 580,164.5 580,154.5 L580,88.5 " fill="#FFFFFF" filter="url(#fumwlj2i6rljc)" style="stroke: #000000; stroke-width: 1.5;"/><path d="M580,88.5 C580,98.5 634,98.5 634,98.5 C634,98.5 688,98.5 688,88.5 " fill="none" style="stroke: #000000; stroke-width: 1.5;"/><text fill="#000000" font-family="sans-serif" font-size="14" font-weight="bold" lengthAdjust="spacingAndGlyphs" textLength="67" x="600.5" y="113.4951">FBS Låner</text><!--MD5=[45088913701e19f431063d6e7365f801]
cluster Kombit--><polygon fill="#FFFFFF" filter="url(#fumwlj2i6rljc)" points="375,16,433,16,440,38.2969,538,38.2969,538,485,375,485,375,16" style="stroke: #000000; stroke-width: 1.5;"/><line style="stroke: #000000; stroke-width: 1.5;" x1="375" x2="440" y1="38.2969" y2="38.2969"/><text fill="#000000" font-family="sans-serif" font-size="14" font-weight="bold" lengthAdjust="spacingAndGlyphs" textLength="52" x="379" y="30.9951">Kombit</text><!--MD5=[8fd2fbd933d483a16485652ab14327c0]
cluster Service platformen--><polygon fill="#FFFFFF" filter="url(#fumwlj2i6rljc)" points="383,43,520,43,527,65.2969,530,65.2969,530,477,383,477,383,43" style="stroke: #000000; stroke-width: 1.5;"/><line style="stroke: #000000; stroke-width: 1.5;" x1="383" x2="527" y1="65.2969" y2="65.2969"/><text fill="#000000" font-family="sans-serif" font-size="14" font-weight="bold" lengthAdjust="spacingAndGlyphs" textLength="131" x="387" y="57.9951">Service platformen</text><!--MD5=[2930ce71795c8531db56933e56df1399]
cluster Dueslag--><path d="M402,80 C402,70 456,70 456,70 C456,70 510,70 510,80 L510,163 C510,173 456,173 456,173 C456,173 402,173 402,163 L402,80 " fill="#FFFFFF" filter="url(#fumwlj2i6rljc)" style="stroke: #000000; stroke-width: 1.5;"/><path d="M402,80 C402,90 456,90 456,90 C456,90 510,90 510,80 " fill="none" style="stroke: #000000; stroke-width: 1.5;"/><text fill="#000000" font-family="sans-serif" font-size="14" font-weight="bold" lengthAdjust="spacingAndGlyphs" textLength="54" x="429" y="104.9951">Dueslag</text><!--MD5=[12b9f78979f1fe26e296b9b54b0ede66]
cluster National infrastruktur--><polygon fill="#FFFFFF" filter="url(#fumwlj2i6rljc)" points="573,406,733,406,740,428.2969,743,428.2969,743,477,573,477,573,406" style="stroke: #000000; stroke-width: 1.5;"/><line style="stroke: #000000; stroke-width: 1.5;" x1="573" x2="740" y1="428.2969" y2="428.2969"/><text fill="#000000" font-family="sans-serif" font-size="14" font-weight="bold" lengthAdjust="spacingAndGlyphs" textLength="154" x="577" y="420.9951">National infrastruktur</text><!--MD5=[7ac19ec182473c035cd7b9f351c853b1]
cluster Danskernes Digitale Bibliotek--><polygon fill="#FFFFFF" filter="url(#fumwlj2i6rljc)" points="14,554,223,554,230,576.2969,787,576.2969,787,902,14,902,14,554" style="stroke: #000000; stroke-width: 1.5;"/><line style="stroke: #000000; stroke-width: 1.5;" x1="14" x2="230" y1="576.2969" y2="576.2969"/><text fill="#000000" font-family="sans-serif" font-size="14" font-weight="bold" lengthAdjust="spacingAndGlyphs" textLength="203" x="18" y="568.9951">Danskernes Digitale Bibliotek</text><!--MD5=[2ccb3c9fded5fa7cfed5c6ef31ec4a0b]
cluster Openplatform--><polygon fill="#FFFFFF" filter="url(#fumwlj2i6rljc)" points="22,596,127,596,134,618.2969,529,618.2969,529,684,22,684,22,596" style="stroke: #000000; stroke-width: 1.5;"/><line style="stroke: #000000; stroke-width: 1.5;" x1="22" x2="134" y1="618.2969" y2="618.2969"/><text fill="#000000" font-family="sans-serif" font-size="14" font-weight="bold" lengthAdjust="spacingAndGlyphs" textLength="99" x="26" y="610.9951">Openplatform</text><!--MD5=[6947db93a38e769aad5a37c40eef79fd]
cluster DDB CMS--><polygon fill="#FFFFFF" filter="url(#fumwlj2i6rljc)" points="173,823,241,823,248,845.2969,377,845.2969,377,894,173,894,173,823" style="stroke: #000000; stroke-width: 1.5;"/><line style="stroke: #000000; stroke-width: 1.5;" x1="173" x2="248" y1="845.2969" y2="845.2969"/><text fill="#000000" font-family="sans-serif" font-size="14" font-weight="bold" lengthAdjust="spacingAndGlyphs" textLength="62" x="177" y="837.9951">DDB CMS</text><!--MD5=[040a8e4ceb8ef2780e76ce7cbc882226]
cluster Faktor--><path d="M547,591 C547,581 663,581 663,581 C663,581 779,581 779,591 L779,674 C779,684 663,684 663,684 C663,684 547,684 547,674 L547,591 " fill="#FFFFFF" filter="url(#fumwlj2i6rljc)" style="stroke: #000000; stroke-width: 1.5;"/><path d="M547,591 C547,601 663,601 663,601 C663,601 779,601 779,591 " fill="none" style="stroke: #000000; stroke-width: 1.5;"/><text fill="#000000" font-family="sans-serif" font-size="14" font-weight="bold" lengthAdjust="spacingAndGlyphs" textLength="46" x="640" y="615.9951">Faktor</text><!--MD5=[da9ab98d3c2a74aa94b0f08d7f7f1b12]
entity Udlånsdata--><rect fill="#FEFECE" filter="url(#fumwlj2i6rljc)" height="36.2969" style="stroke: #A80036; stroke-width: 1.5;" width="91" x="588.5" y="120.5"/><rect fill="#FEFECE" height="5" style="stroke: #A80036; stroke-width: 1.5;" width="10" x="583.5" y="125.5"/><rect fill="#FEFECE" height="5" style="stroke: #A80036; stroke-width: 1.5;" width="10" x="583.5" y="146.7969"/><text fill="#000000" font-family="sans-serif" font-size="14" lengthAdjust="spacingAndGlyphs" textLength="71" x="598.5" y="143.4951">Udlånsdata</text><!--MD5=[e5fe8b05f9850d86fa8bfaef124063ad]
entity Data Wash WS--><rect fill="#FEFECE" filter="url(#fumwlj2i6rljc)" height="36.2969" style="stroke: #A80036; stroke-width: 1.5;" width="112" x="400" y="433"/><rect fill="#FEFECE" height="5" style="stroke: #A80036; stroke-width: 1.5;" width="10" x="395" y="438"/><rect fill="#FEFECE" height="5" style="stroke: #A80036; stroke-width: 1.5;" width="10" x="395" y="459.2969"/><text fill="#000000" font-family="sans-serif" font-size="14" lengthAdjust="spacingAndGlyphs" textLength="92" x="410" y="455.9951">Data Wash WS</text><!--MD5=[cd87a3de4c9a6ff8a61bad43e9dbd7c1]
entity Udlånsdata \n (Med CPR)--><rect fill="#FEFECE" filter="url(#fumwlj2i6rljc)" height="52.5938" style="stroke: #A80036; stroke-width: 1.5;" width="91" x="410.5" y="112"/><rect fill="#FEFECE" height="5" style="stroke: #A80036; stroke-width: 1.5;" width="10" x="405.5" y="117"/><rect fill="#FEFECE" height="5" style="stroke: #A80036; stroke-width: 1.5;" width="10" x="405.5" y="154.5938"/><text fill="#000000" font-family="sans-serif" font-size="14" lengthAdjust="spacingAndGlyphs" textLength="71" x="420.5" y="134.9951">Udlånsdata</text><text fill="#000000" font-family="sans-serif" font-size="14" lengthAdjust="spacingAndGlyphs" textLength="64" x="420.5" y="151.292">(Med CPR)</text><!--MD5=[c67fd5d583bbf4b86ac74818746ac032]
entity CULR WS--><rect fill="#FEFECE" filter="url(#fumwlj2i6rljc)" height="36.2969" style="stroke: #A80036; stroke-width: 1.5;" width="77" x="617.5" y="433"/><rect fill="#FEFECE" height="5" style="stroke: #A80036; stroke-width: 1.5;" width="10" x="612.5" y="438"/><rect fill="#FEFECE" height="5" style="stroke: #A80036; stroke-width: 1.5;" width="10" x="612.5" y="459.2969"/><text fill="#000000" font-family="sans-serif" font-size="14" lengthAdjust="spacingAndGlyphs" textLength="57" x="627.5" y="455.9951">CULR WS</text><!--MD5=[d0020a35c1b1dceb1bbb0faca913551d]
entity Loan History WS \n (GUID)--><rect fill="#FEFECE" filter="url(#fumwlj2i6rljc)" height="52.5938" style="stroke: #A80036; stroke-width: 1.5;" width="124" x="30" y="623"/><rect fill="#FEFECE" height="5" style="stroke: #A80036; stroke-width: 1.5;" width="10" x="25" y="628"/><rect fill="#FEFECE" height="5" style="stroke: #A80036; stroke-width: 1.5;" width="10" x="25" y="665.5938"/><text fill="#000000" font-family="sans-serif" font-size="14" lengthAdjust="spacingAndGlyphs" textLength="104" x="40" y="645.9951">Loan History WS</text><text fill="#000000" font-family="sans-serif" font-size="14" lengthAdjust="spacingAndGlyphs" textLength="43" x="40" y="662.292">(GUID)</text><!--MD5=[1965f9392532943755f427374fc7ecef]
entity PatronAccept WS \n (GUID)--><rect fill="#FEFECE" filter="url(#fumwlj2i6rljc)" height="52.5938" style="stroke: #A80036; stroke-width: 1.5;" width="129" x="391.5" y="623"/><rect fill="#FEFECE" height="5" style="stroke: #A80036; stroke-width: 1.5;" width="10" x="386.5" y="628"/><rect fill="#FEFECE" height="5" style="stroke: #A80036; stroke-width: 1.5;" width="10" x="386.5" y="665.5938"/><text fill="#000000" font-family="sans-serif" font-size="14" lengthAdjust="spacingAndGlyphs" textLength="109" x="401.5" y="645.9951">PatronAccept WS</text><text fill="#000000" font-family="sans-serif" font-size="14" lengthAdjust="spacingAndGlyphs" textLength="43" x="401.5" y="662.292">(GUID)</text><!--MD5=[6d200d1eff1ec33048a9717ec1f8ed3a]
entity Adgangsplatformen WS--><rect fill="#FEFECE" filter="url(#fumwlj2i6rljc)" height="36.2969" style="stroke: #A80036; stroke-width: 1.5;" width="167" x="189.5" y="631.5"/><rect fill="#FEFECE" height="5" style="stroke: #A80036; stroke-width: 1.5;" width="10" x="184.5" y="636.5"/><rect fill="#FEFECE" height="5" style="stroke: #A80036; stroke-width: 1.5;" width="10" x="184.5" y="657.7969"/><text fill="#000000" font-family="sans-serif" font-size="14" lengthAdjust="spacingAndGlyphs" textLength="147" x="199.5" y="654.4951">Adgangsplatformen WS</text><!--MD5=[cf06b98fed5de4ec32264c6002e2cc18]
entity DDB CMS Loan History list--><rect fill="#FEFECE" filter="url(#fumwlj2i6rljc)" height="36.2969" style="stroke: #A80036; stroke-width: 1.5;" width="188" x="181" y="850"/><rect fill="#FEFECE" height="5" style="stroke: #A80036; stroke-width: 1.5;" width="10" x="176" y="855"/><rect fill="#FEFECE" height="5" style="stroke: #A80036; stroke-width: 1.5;" width="10" x="176" y="876.2969"/><text fill="#000000" font-family="sans-serif" font-size="14" lengthAdjust="spacingAndGlyphs" textLength="168" x="191" y="872.9951">DDB CMS Loan History list</text><!--MD5=[53ae289992e5197788778311f76b8870]
entity Statistik rapporter \n (Uden CPR, med Persistent ID)--><rect fill="#FEFECE" filter="url(#fumwlj2i6rljc)" height="52.5938" style="stroke: #A80036; stroke-width: 1.5;" width="215" x="555.5" y="623"/><rect fill="#FEFECE" height="5" style="stroke: #A80036; stroke-width: 1.5;" width="10" x="550.5" y="628"/><rect fill="#FEFECE" height="5" style="stroke: #A80036; stroke-width: 1.5;" width="10" x="550.5" y="665.5938"/><text fill="#000000" font-family="sans-serif" font-size="14" lengthAdjust="spacingAndGlyphs" textLength="114" x="565.5" y="645.9951">Statistik rapporter</text><text fill="#000000" font-family="sans-serif" font-size="14" lengthAdjust="spacingAndGlyphs" textLength="195" x="565.5" y="662.292">(Uden CPR, med Persistent ID)</text><!--MD5=[cd07130f8c0e122cc44b5b952fe3c297]
reverse link Udlånsdata \n (Med CPR) to Udlånsdata--><path d="M506.8985,138.5 C532.5578,138.5 563.4256,138.5 588.3159,138.5 " fill="none" id="Udlånsdata \n (Med CPR)&lt;-Udlånsdata" style="stroke: #A80036; stroke-width: 1.0;"/><polygon fill="#A80036" points="501.8394,138.5,510.8394,142.5,506.8394,138.5,510.8394,134.5,501.8394,138.5" style="stroke: #A80036; stroke-width: 1.0;"/><text fill="#000000" font-family="sans-serif" font-size="13" lengthAdjust="spacingAndGlyphs" textLength="50" x="520" y="131.5669">TRIN A.1</text><!--MD5=[1e95389c5aa0d56acfbd6509462b85db]
link Udlånsdata \n (Med CPR) to Data Wash WS--><path d="M456,165.0711 C456,182.5309 456,205.875 456,226.5 C456,226.5 456,226.5 456,366.5 C456,387.2399 456,410.8432 456,427.8221 " fill="none" id="Udlånsdata \n (Med CPR)-&gt;Data Wash WS" style="stroke: #A80036; stroke-width: 1.0;"/><polygon fill="#A80036" points="456,432.8683,460,423.8683,456,427.8683,452,423.8683,456,432.8683" style="stroke: #A80036; stroke-width: 1.0;"/><text fill="#000000" font-family="sans-serif" font-size="13" lengthAdjust="spacingAndGlyphs" textLength="50" x="457" y="301.0669">TRIN A.2</text><!--MD5=[1383f612c2a1c66af6195c56020f671b]
link Data Wash WS to Statistik rapporter \n (Uden CPR, med Persistent ID)--><path d="M512.1627,468.3596 C553.9804,481.3813 604.1592,497.2531 606,499 C639.2806,530.5828 653.3188,583.5743 659.1069,617.5131 " fill="none" id="Data Wash WS-&gt;Statistik rapporter \n (Uden CPR, med Persistent ID)" style="stroke: #A80036; stroke-width: 1.0;"/><polygon fill="#A80036" points="659.9667,622.7903,662.4672,613.2641,659.1625,617.8554,654.5713,614.5508,659.9667,622.7903" style="stroke: #A80036; stroke-width: 1.0;"/><text fill="#000000" font-family="sans-serif" font-size="13" lengthAdjust="spacingAndGlyphs" textLength="50" x="665.5" y="512.0669">TRIN B.1</text><text fill="#000000" font-family="sans-serif" font-size="13" lengthAdjust="spacingAndGlyphs" textLength="102" x="641" y="527.1997">Send statistikdata</text><text fill="#000000" font-family="sans-serif" font-size="13" lengthAdjust="spacingAndGlyphs" textLength="103" x="642" y="542.3325">med Persistent id.</text><!--MD5=[4b64dc1fcfc6edcbaac4cabe093d7a9d]
reverse link PatronAccept WS \n (GUID) to DDB CMS Loan History list--><path d="M446.75,680.9348 C437.0621,709.9804 419.6529,753.1725 394,784 C370.7073,811.9913 335.9665,835.0705 310.0267,849.9071 " fill="none" id="PatronAccept WS \n (GUID)&lt;-DDB CMS Loan History list" style="stroke: #A80036; stroke-width: 1.0;"/><polygon fill="#A80036" points="448.3539,676.041,441.7497,683.3475,446.7966,680.7923,449.3518,685.8392,448.3539,676.041" style="stroke: #A80036; stroke-width: 1.0;"/><text fill="#000000" font-family="sans-serif" font-size="13" lengthAdjust="spacingAndGlyphs" textLength="53" x="459" y="757.5669">TRIN C.1:</text><text fill="#000000" font-family="sans-serif" font-size="13" lengthAdjust="spacingAndGlyphs" textLength="121" x="428" y="772.6997">Opret bruger accept.</text><!--MD5=[38d44d67fabbaad947eaeba62c90ade7]
link Data Wash WS to PatronAccept WS \n (GUID)--><path d="M456,469.3186 C456,503.0976 456,575.5758 456,617.5887 " fill="none" id="Data Wash WS-&gt;PatronAccept WS \n (GUID)" style="stroke: #A80036; stroke-width: 1.0;"/><polygon fill="#A80036" points="456,622.8067,460,613.8067,456,617.8067,452,613.8067,456,622.8067" style="stroke: #A80036; stroke-width: 1.0;"/><text fill="#000000" font-family="sans-serif" font-size="13" lengthAdjust="spacingAndGlyphs" textLength="53" x="499" y="512.0669">TRIN C.2:</text><text fill="#000000" font-family="sans-serif" font-size="13" lengthAdjust="spacingAndGlyphs" textLength="111" x="471.5" y="527.1997">Hent lånere (GUID)</text><text fill="#000000" font-family="sans-serif" font-size="13" lengthAdjust="spacingAndGlyphs" textLength="137" x="460" y="542.3325">der ønsker lånehistorik.</text><!--MD5=[1a81e7071bb3529582b69f9b13361ffd]
reverse link CULR WS to Data Wash WS--><path d="M611.8921,451 C582.5635,451 543.7859,451 512.2434,451 " fill="none" id="CULR WS&lt;-Data Wash WS" style="stroke: #A80036; stroke-width: 1.0;"/><polygon fill="#A80036" points="617.2546,451,608.2546,447,612.2546,451,608.2546,455,617.2546,451" style="stroke: #A80036; stroke-width: 1.0;"/><text fill="#000000" font-family="sans-serif" font-size="13" lengthAdjust="spacingAndGlyphs" textLength="53" x="536.75" y="414.0669">TRIN C.3:</text><text fill="#000000" font-family="sans-serif" font-size="13" lengthAdjust="spacingAndGlyphs" textLength="63" x="533.25" y="429.1997">Hent GUID</text><text fill="#000000" font-family="sans-serif" font-size="13" lengthAdjust="spacingAndGlyphs" textLength="64" x="534.25" y="444.3325">ud fra CPR.</text><!--MD5=[4892e1346340f380f94fdadd90834f58]
link Data Wash WS to Loan History WS \n (GUID)--><path d="M399.8088,460.7275 C338.6539,473.5818 240.4652,501.0701 172,554 C148.5167,572.1547 127.2205,598.2901 112.5152,618.632 " fill="none" id="Data Wash WS-&gt;Loan History WS \n (GUID)" style="stroke: #A80036; stroke-width: 1.0;"/><polygon fill="#A80036" points="109.4789,622.8799,117.9667,617.8841,112.3865,618.8122,111.4583,613.232,109.4789,622.8799" style="stroke: #A80036; stroke-width: 1.0;"/><text fill="#000000" font-family="sans-serif" font-size="13" lengthAdjust="spacingAndGlyphs" textLength="53" x="317" y="512.0669">TRIN C.4:</text><text fill="#000000" font-family="sans-serif" font-size="13" lengthAdjust="spacingAndGlyphs" textLength="101" x="294.5" y="527.1997">Send lånehistorik</text><text fill="#000000" font-family="sans-serif" font-size="13" lengthAdjust="spacingAndGlyphs" textLength="155" x="269" y="542.3325">for de pågældende lånere.</text><!--MD5=[81ea6f86eaf77b32d6bcfae4751d0df9]
reverse link Adgangsplatformen WS to DDB CMS Loan History list--><path d="M273.2137,672.8469 C273.6151,716.7025 274.4739,810.5193 274.8348,849.9523 " fill="none" id="Adgangsplatformen WS&lt;-DDB CMS Loan History list" style="stroke: #A80036; stroke-width: 1.0;"/><polygon fill="#A80036" points="273.1671,667.7534,269.2498,676.7897,273.213,672.7532,277.2495,676.7163,273.1671,667.7534" style="stroke: #A80036; stroke-width: 1.0;"/><text fill="#000000" font-family="sans-serif" font-size="13" lengthAdjust="spacingAndGlyphs" textLength="54" x="302" y="750.0669">TRIN D.1:</text><text fill="#000000" font-family="sans-serif" font-size="13" lengthAdjust="spacingAndGlyphs" textLength="103" x="279" y="765.1997">Autentificer låner,</text><text fill="#000000" font-family="sans-serif" font-size="13" lengthAdjust="spacingAndGlyphs" textLength="83" x="290.5" y="780.3325">og hent GUID.</text><!--MD5=[ba1855d3c8edd101a298dd4941b995d3]
reverse link Loan History WS \n (GUID) to DDB CMS Loan History list--><path d="M93.6623,681.4742 C96.6697,710.8298 105.0106,754.169 128,784 C151.8634,814.9652 190.6084,836.4283 222.3311,849.9046 " fill="none" id="Loan History WS \n (GUID)&lt;-DDB CMS Loan History list" style="stroke: #A80036; stroke-width: 1.0;"/><polygon fill="#A80036" points="93.1605,676.1619,90.0247,685.4982,93.6308,681.1397,97.9893,684.7458,93.1605,676.1619" style="stroke: #A80036; stroke-width: 1.0;"/><text fill="#000000" font-family="sans-serif" font-size="13" lengthAdjust="spacingAndGlyphs" textLength="54" x="168.5" y="750.0669">TRIN D.2:</text><text fill="#000000" font-family="sans-serif" font-size="13" lengthAdjust="spacingAndGlyphs" textLength="99" x="147.5" y="765.1997">Hent lånehistorik</text><text fill="#000000" font-family="sans-serif" font-size="13" lengthAdjust="spacingAndGlyphs" textLength="133" x="132" y="780.3325">for autentificeret låner.</text><!--MD5=[e48501434d46a2a1dbb2004048048271]
@startuml

package "Systematic" {
    package "FBS" {
      database "FBS Låner"{
        [Udlånsdata]
      }
    }
}

package "Kombit" {
    package "Service platformen" {
        database "Dueslag" {
            [Udlånsdata \n (Med CPR)]
        }
        [Data Wash WS]
    }
}

package "National infrastruktur" {
    [CULR WS]
}

package "Danskernes Digitale Bibliotek" {
    package "Openplatform" {
        [Loan History WS \n (GUID)]
        [PatronAccept WS \n (GUID)]
        [Adgangsplatformen WS]
}
    package "DDB CMS" {
        [DDB CMS Loan History list]
    }
    database "Faktor" {
        [Statistik rapporter \n (Uden CPR, med Persistent ID)]
    }
}

[Udlånsdata] -left-> [Udlånsdata \n (Med CPR)]: TRIN A.1
[Udlånsdata \n (Med CPR)] -down-> [Data Wash WS]: TRIN A.2

[Data Wash WS] -down-> [Statistik rapporter \n (Uden CPR, med Persistent ID)]: TRIN B.1 \n Send statistikdata \n med Persistent id.

[DDB CMS Loan History list] -up-> [PatronAccept WS \n (GUID)]: TRIN C.1: \n Opret bruger accept.
[Data Wash WS] -down-> [PatronAccept WS \n (GUID)]: TRIN C.2: \n Hent lånere (GUID) \n der ønsker lånehistorik.
[Data Wash WS] -left-> [CULR WS]: TRIN C.3: \n Hent GUID \n ud fra CPR.
[Data Wash WS] -down-> [Loan History WS \n (GUID)]: TRIN C.4: \n Send lånehistorik \n for de pågældende lånere.

[DDB CMS Loan History list] -up-> [Adgangsplatformen WS]: TRIN D.1: \n Autentificer låner, \n og hent GUID.
[DDB CMS Loan History list] -up-> [Loan History WS \n (GUID)]: TRIN D.2: \n Hent lånehistorik \n for autentificeret låner.

@enduml

PlantUML version 1.2019.13(Tue Dec 10 17:18:29 GMT 2019)
(GPL source distribution)
Java Runtime: Java(TM) SE Runtime Environment
JVM: Java HotSpot(TM) 64-Bit Server VM
Java Version: 1.8.0_202-b08
Operating System: Linux
Default Encoding: ANSI_X3.4-1968
Language: en
Country: US
--></g></svg>