<?xml version="1.0" encoding="UTF-8" standalone="no"?><svg xmlns="http://www.w3.org/2000/svg" xmlns:xlink="http://www.w3.org/1999/xlink" contentScriptType="application/ecmascript" contentStyleType="text/css" height="578px" preserveAspectRatio="none" style="width:524px;height:578px;" version="1.1" viewBox="0 0 524 578" width="524px" zoomAndPan="magnify"><defs><filter height="300%" id="f18p5xya3agl42" width="300%" x="-1" y="-1"><feGaussianBlur result="blurOut" stdDeviation="2.0"/><feColorMatrix in="blurOut" result="blurOut2" type="matrix" values="0 0 0 0 0 0 0 0 0 0 0 0 0 0 0 0 0 0 .4 0"/><feOffset dx="4.0" dy="4.0" in="blurOut2" result="blurOut3"/><feBlend in="SourceGraphic" in2="blurOut3" mode="normal"/></filter></defs><g><!--cluster Systematic--><polygon fill="#FFFFFF" filter="url(#f18p5xya3agl42)" points="115,16,198,16,205,38.2969,439,38.2969,439,189,115,189,115,16" style="stroke: #000000; stroke-width: 1.5;"/><line style="stroke: #000000; stroke-width: 1.5;" x1="115" x2="205" y1="38.2969" y2="38.2969"/><text fill="#000000" font-family="sans-serif" font-size="14" font-weight="bold" lengthAdjust="spacingAndGlyphs" textLength="77" x="119" y="30.9951">Systematic</text><!--cluster FBS--><polygon fill="#FFFFFF" filter="url(#f18p5xya3agl42)" points="123,43,153,43,160,65.2969,431,65.2969,431,181,123,181,123,43" style="stroke: #000000; stroke-width: 1.5;"/><line style="stroke: #000000; stroke-width: 1.5;" x1="123" x2="160" y1="65.2969" y2="65.2969"/><text fill="#000000" font-family="sans-serif" font-size="14" font-weight="bold" lengthAdjust="spacingAndGlyphs" textLength="24" x="127" y="57.9951">FBS</text><!--cluster FBS Låner--><path d="M315,88.5 C315,78.5 369,78.5 369,78.5 C369,78.5 423,78.5 423,88.5 L423,154.5 C423,164.5 369,164.5 369,164.5 C369,164.5 315,164.5 315,154.5 L315,88.5 " fill="#FFFFFF" filter="url(#f18p5xya3agl42)" style="stroke: #000000; stroke-width: 1.5;"/><path d="M315,88.5 C315,98.5 369,98.5 369,98.5 C369,98.5 423,98.5 423,88.5 " fill="none" style="stroke: #000000; stroke-width: 1.5;"/><text fill="#000000" font-family="sans-serif" font-size="14" font-weight="bold" lengthAdjust="spacingAndGlyphs" textLength="67" x="335.5" y="113.4951">FBS Låner</text><!--cluster FBS Statistik--><path d="M131,80 C131,70 188,70 188,70 C188,70 245,70 245,80 L245,163 C245,173 188,173 188,173 C188,173 131,173 131,163 L131,80 " fill="#FFFFFF" filter="url(#f18p5xya3agl42)" style="stroke: #000000; stroke-width: 1.5;"/><path d="M131,80 C131,90 188,90 188,90 C188,90 245,90 245,80 " fill="none" style="stroke: #000000; stroke-width: 1.5;"/><text fill="#000000" font-family="sans-serif" font-size="14" font-weight="bold" lengthAdjust="spacingAndGlyphs" textLength="87" x="144.5" y="104.9951">FBS Statistik</text><!--cluster Kombit--><polygon fill="#FFFFFF" filter="url(#f18p5xya3agl42)" points="77,222,135,222,142,244.2969,499,244.2969,499,395,77,395,77,222" style="stroke: #000000; stroke-width: 1.5;"/><line style="stroke: #000000; stroke-width: 1.5;" x1="77" x2="142" y1="244.2969" y2="244.2969"/><text fill="#000000" font-family="sans-serif" font-size="14" font-weight="bold" lengthAdjust="spacingAndGlyphs" textLength="52" x="81" y="236.9951">Kombit</text><!--cluster Service platformen--><polygon fill="#FFFFFF" filter="url(#f18p5xya3agl42)" points="85,249,222,249,229,271.2969,491,271.2969,491,387,85,387,85,249" style="stroke: #000000; stroke-width: 1.5;"/><line style="stroke: #000000; stroke-width: 1.5;" x1="85" x2="229" y1="271.2969" y2="271.2969"/><text fill="#000000" font-family="sans-serif" font-size="14" font-weight="bold" lengthAdjust="spacingAndGlyphs" textLength="131" x="89" y="263.9951">Service platformen</text><!--cluster Dueslag til FAKTOR --><path d="M93,286 C93,276 171,276 171,276 C171,276 249,276 249,286 L249,369 C249,379 171,379 171,379 C171,379 93,379 93,369 L93,286 " fill="#FFFFFF" filter="url(#f18p5xya3agl42)" style="stroke: #000000; stroke-width: 1.5;"/><path d="M93,286 C93,296 171,296 171,296 C171,296 249,296 249,286 " fill="none" style="stroke: #000000; stroke-width: 1.5;"/><text fill="#000000" font-family="sans-serif" font-size="14" font-weight="bold" lengthAdjust="spacingAndGlyphs" textLength="131" x="103.5" y="310.9951">Dueslag til FAKTOR</text><!--cluster Dueslag til Danmarks Statistik--><path d="M257,286 C257,276 370,276 370,276 C370,276 483,276 483,286 L483,369 C483,379 370,379 370,379 C370,379 257,379 257,369 L257,286 " fill="#FFFFFF" filter="url(#f18p5xya3agl42)" style="stroke: #000000; stroke-width: 1.5;"/><path d="M257,286 C257,296 370,296 370,296 C370,296 483,296 483,286 " fill="none" style="stroke: #000000; stroke-width: 1.5;"/><text fill="#000000" font-family="sans-serif" font-size="14" font-weight="bold" lengthAdjust="spacingAndGlyphs" textLength="210" x="265" y="310.9951">Dueslag til Danmarks Statistik</text><!--cluster Danmarks Statistik--><polygon fill="#FFFFFF" filter="url(#f18p5xya3agl42)" points="353,428,492,428,499,450.2969,502,450.2969,502,566,353,566,353,428" style="stroke: #000000; stroke-width: 1.5;"/><line style="stroke: #000000; stroke-width: 1.5;" x1="353" x2="499" y1="450.2969" y2="450.2969"/><text fill="#000000" font-family="sans-serif" font-size="14" font-weight="bold" lengthAdjust="spacingAndGlyphs" textLength="133" x="357" y="442.9951">Danmarks Statistik</text><!--cluster DST--><path d="M372,465 C372,455 426,455 426,455 C426,455 480,455 480,465 L480,548 C480,558 426,558 426,558 C426,558 372,558 372,548 L372,465 " fill="#FFFFFF" filter="url(#f18p5xya3agl42)" style="stroke: #000000; stroke-width: 1.5;"/><path d="M372,465 C372,475 426,475 426,475 C426,475 480,475 480,465 " fill="none" style="stroke: #000000; stroke-width: 1.5;"/><text fill="#000000" font-family="sans-serif" font-size="14" font-weight="bold" lengthAdjust="spacingAndGlyphs" textLength="25" x="413.5" y="489.9951">DST</text><!--cluster Danskernes Digitale Bibliotek--><polygon fill="#FFFFFF" filter="url(#f18p5xya3agl42)" points="14,428,223,428,230,450.2969,310,450.2969,310,566,14,566,14,428" style="stroke: #000000; stroke-width: 1.5;"/><line style="stroke: #000000; stroke-width: 1.5;" x1="14" x2="230" y1="450.2969" y2="450.2969"/><text fill="#000000" font-family="sans-serif" font-size="14" font-weight="bold" lengthAdjust="spacingAndGlyphs" textLength="203" x="18" y="442.9951">Danskernes Digitale Bibliotek</text><!--cluster Faktor--><path d="M22,465 C22,455 162,455 162,455 C162,455 302,455 302,465 L302,548 C302,558 162,558 162,558 C162,558 22,558 22,548 L22,465 " fill="#FFFFFF" filter="url(#f18p5xya3agl42)" style="stroke: #000000; stroke-width: 1.5;"/><path d="M22,465 C22,475 162,475 162,475 C162,475 302,475 302,465 " fill="none" style="stroke: #000000; stroke-width: 1.5;"/><text fill="#000000" font-family="sans-serif" font-size="14" font-weight="bold" lengthAdjust="spacingAndGlyphs" textLength="46" x="139" y="489.9951">Faktor</text><!--entity Udlånsdata--><rect fill="#FEFECE" filter="url(#f18p5xya3agl42)" height="36.2969" style="stroke: #A80036; stroke-width: 1.5;" width="91" x="323.5" y="120.5"/><rect fill="#FEFECE" height="5" style="stroke: #A80036; stroke-width: 1.5;" width="10" x="318.5" y="125.5"/><rect fill="#FEFECE" height="5" style="stroke: #A80036; stroke-width: 1.5;" width="10" x="318.5" y="146.7969"/><text fill="#000000" font-family="sans-serif" font-size="14" lengthAdjust="spacingAndGlyphs" textLength="71" x="333.5" y="143.4951">Udlånsdata</text><!--entity Statistikdata \n (Uden CPR)--><rect fill="#FEFECE" filter="url(#f18p5xya3agl42)" height="52.5938" style="stroke: #A80036; stroke-width: 1.5;" width="98" x="139" y="112"/><rect fill="#FEFECE" height="5" style="stroke: #A80036; stroke-width: 1.5;" width="10" x="134" y="117"/><rect fill="#FEFECE" height="5" style="stroke: #A80036; stroke-width: 1.5;" width="10" x="134" y="154.5938"/><text fill="#000000" font-family="sans-serif" font-size="14" lengthAdjust="spacingAndGlyphs" textLength="78" x="149" y="134.9951">Statistikdata</text><text fill="#000000" font-family="sans-serif" font-size="14" lengthAdjust="spacingAndGlyphs" textLength="70" x="149" y="151.292">(Uden CPR)</text><!--entity Statistik datadump \n (Uden CPR)--><rect fill="#FEFECE" filter="url(#f18p5xya3agl42)" height="52.5938" style="stroke: #A80036; stroke-width: 1.5;" width="139" x="101.5" y="318"/><rect fill="#FEFECE" height="5" style="stroke: #A80036; stroke-width: 1.5;" width="10" x="96.5" y="323"/><rect fill="#FEFECE" height="5" style="stroke: #A80036; stroke-width: 1.5;" width="10" x="96.5" y="360.5938"/><text fill="#000000" font-family="sans-serif" font-size="14" lengthAdjust="spacingAndGlyphs" textLength="119" x="111.5" y="340.9951">Statistik datadump</text><text fill="#000000" font-family="sans-serif" font-size="14" lengthAdjust="spacingAndGlyphs" textLength="70" x="111.5" y="357.292">(Uden CPR)</text><!--entity Udlånsdata datadump \n (Med CPR)--><rect fill="#FEFECE" filter="url(#f18p5xya3agl42)" height="52.5938" style="stroke: #A80036; stroke-width: 1.5;" width="159" x="295.5" y="318"/><rect fill="#FEFECE" height="5" style="stroke: #A80036; stroke-width: 1.5;" width="10" x="290.5" y="323"/><rect fill="#FEFECE" height="5" style="stroke: #A80036; stroke-width: 1.5;" width="10" x="290.5" y="360.5938"/><text fill="#000000" font-family="sans-serif" font-size="14" lengthAdjust="spacingAndGlyphs" textLength="139" x="305.5" y="340.9951">Udlånsdata datadump</text><text fill="#000000" font-family="sans-serif" font-size="14" lengthAdjust="spacingAndGlyphs" textLength="64" x="305.5" y="357.292">(Med CPR)</text><!--entity Udlånsdata \n (Med CPR)--><rect fill="#FEFECE" filter="url(#f18p5xya3agl42)" height="52.5938" style="stroke: #A80036; stroke-width: 1.5;" width="91" x="380.5" y="497"/><rect fill="#FEFECE" height="5" style="stroke: #A80036; stroke-width: 1.5;" width="10" x="375.5" y="502"/><rect fill="#FEFECE" height="5" style="stroke: #A80036; stroke-width: 1.5;" width="10" x="375.5" y="539.5938"/><text fill="#000000" font-family="sans-serif" font-size="14" lengthAdjust="spacingAndGlyphs" textLength="71" x="390.5" y="519.9951">Udlånsdata</text><text fill="#000000" font-family="sans-serif" font-size="14" lengthAdjust="spacingAndGlyphs" textLength="64" x="390.5" y="536.292">(Med CPR)</text><!--entity Statistik rapporter & Aggregerede data \n (Uden CPR)--><rect fill="#FEFECE" filter="url(#f18p5xya3agl42)" height="52.5938" style="stroke: #A80036; stroke-width: 1.5;" width="263" x="30.5" y="497"/><rect fill="#FEFECE" height="5" style="stroke: #A80036; stroke-width: 1.5;" width="10" x="25.5" y="502"/><rect fill="#FEFECE" height="5" style="stroke: #A80036; stroke-width: 1.5;" width="10" x="25.5" y="539.5938"/><text fill="#000000" font-family="sans-serif" font-size="14" lengthAdjust="spacingAndGlyphs" textLength="243" x="40.5" y="519.9951">Statistik rapporter &amp; Aggregerede data</text><text fill="#000000" font-family="sans-serif" font-size="14" lengthAdjust="spacingAndGlyphs" textLength="70" x="40.5" y="536.292">(Uden CPR)</text><!--link Statistikdata \n (Uden CPR) to Udlånsdata--><path d="M242.5514,138.5 C268.3389,138.5 298.7763,138.5 323.3261,138.5 " fill="none" id="Statistikdata \n (Uden CPR)-Udlånsdata" style="stroke: #A80036; stroke-width: 1.0;"/><polygon fill="#A80036" points="237.459,138.5,246.459,142.5,242.459,138.5,246.459,134.5,237.459,138.5" style="stroke: #A80036; stroke-width: 1.0;"/><text fill="#000000" font-family="sans-serif" font-size="13" lengthAdjust="spacingAndGlyphs" textLength="50" x="255.25" y="131.5669">TRIN A.1</text><!--link Statistikdata \n (Uden CPR) to Statistik datadump \n (Uden CPR)--><path d="M185.8123,165.0092 C182.697,202.7602 176.9898,271.9173 173.6423,312.481 " fill="none" id="Statistikdata \n (Uden CPR)-Statistik datadump \n (Uden CPR)" style="stroke: #A80036; stroke-width: 1.0;"/><polygon fill="#A80036" points="173.2062,317.7663,177.9329,309.1258,173.6175,312.7832,169.9601,308.4678,173.2062,317.7663" style="stroke: #A80036; stroke-width: 1.0;"/><text fill="#000000" font-family="sans-serif" font-size="13" lengthAdjust="spacingAndGlyphs" textLength="50" x="184" y="210.0669">TRIN A.2</text><!--link Statistik datadump \n (Uden CPR) to Statistik rapporter & Aggregerede data \n (Uden CPR)--><path d="M169.6526,371.2981 C168.0374,403.4222 165.3333,457.2043 163.6098,491.4836 " fill="none" id="Statistik datadump \n (Uden CPR)-Statistik rapporter &amp; Aggregerede data \n (Uden CPR)" style="stroke: #A80036; stroke-width: 1.0;"/><polygon fill="#A80036" points="163.3419,496.8114,167.7892,488.0238,163.5932,491.8177,159.7993,487.6217,163.3419,496.8114" style="stroke: #A80036; stroke-width: 1.0;"/><text fill="#000000" font-family="sans-serif" font-size="13" lengthAdjust="spacingAndGlyphs" textLength="50" x="169" y="416.0669">TRIN A.3</text><!--link Udlånsdata to Udlånsdata datadump \n (Med CPR)--><path d="M369.5325,156.7811 C370.5549,191.886 372.8044,269.1171 374.0764,312.7888 " fill="none" id="Udlånsdata-Udlånsdata datadump \n (Med CPR)" style="stroke: #A80036; stroke-width: 1.0;"/><polygon fill="#A80036" points="374.2265,317.9432,377.9625,308.8305,374.0808,312.9453,369.9659,309.0636,374.2265,317.9432" style="stroke: #A80036; stroke-width: 1.0;"/><text fill="#000000" font-family="sans-serif" font-size="13" lengthAdjust="spacingAndGlyphs" textLength="50" x="372" y="210.0669">TRIN B.1</text><!--link Udlånsdata datadump \n (Med CPR) to Udlånsdata \n (Med CPR)--><path d="M382.6352,371.2981 C391.8256,403.5544 407.2375,457.6473 416.9983,491.9058 " fill="none" id="Udlånsdata datadump \n (Med CPR)-Udlånsdata \n (Med CPR)" style="stroke: #A80036; stroke-width: 1.0;"/><polygon fill="#A80036" points="418.396,496.8114,419.777,487.0598,417.026,492.0027,412.0831,489.2518,418.396,496.8114" style="stroke: #A80036; stroke-width: 1.0;"/><text fill="#000000" font-family="sans-serif" font-size="13" lengthAdjust="spacingAndGlyphs" textLength="50" x="396" y="416.0669">TRIN B.2</text><!--link Statistik rapporter & Aggregerede data \n (Uden CPR) to Udlånsdata \n (Med CPR)--><path d="M298.7404,523.5 C328.2703,523.5 357.4836,523.5 380.4583,523.5 " fill="none" id="Statistik rapporter &amp; Aggregerede data \n (Uden CPR)-Udlånsdata \n (Med CPR)" style="stroke: #A80036; stroke-width: 1.0;"/><polygon fill="#A80036" points="293.6133,523.5,302.6133,527.5,298.6133,523.5,302.6133,519.5,293.6133,523.5" style="stroke: #A80036; stroke-width: 1.0;"/><text fill="#000000" font-family="sans-serif" font-size="13" lengthAdjust="spacingAndGlyphs" textLength="50" x="312" y="516.5669">TRIN B.3</text><!--
@startuml

package "Systematic" {
    package "FBS" {
      database "FBS Låner"{
        [Udlånsdata]
      }
      database "FBS Statistik"{
        [Statistikdata \n (Uden CPR)]
      }
    }
}

package "Kombit" {
    package "Service platformen" {
        database "Dueslag til FAKTOR " {
            [Statistik datadump \n (Uden CPR)]
        }
        database "Dueslag til Danmarks Statistik" {
            [Udlånsdata datadump \n (Med CPR)]
        }
    }
}

package "Danmarks Statistik" {
  database "DST" {
        [Udlånsdata \n (Med CPR)]
  }
}

package "Danskernes Digitale Bibliotek" {
  database "Faktor" {
        [Statistik rapporter & Aggregerede data \n (Uden CPR)]
  }
}
 
[Udlånsdata] -left-> [Statistikdata \n (Uden CPR)]: TRIN A.1
[Statistikdata \n (Uden CPR)] -down-> [Statistik datadump \n (Uden CPR)]: TRIN A.2
[Statistik datadump \n (Uden CPR)]-down-> [Statistik rapporter & Aggregerede data \n (Uden CPR)]: TRIN A.3


[Udlånsdata] -down-> [Udlånsdata datadump \n (Med CPR)]: TRIN B.1
[Udlånsdata datadump \n (Med CPR)] -down-> [Udlånsdata \n (Med CPR)]: TRIN B.2
[Udlånsdata \n (Med CPR)] -left-> [Statistik rapporter & Aggregerede data \n (Uden CPR)]: TRIN B.3

@enduml

PlantUML version 1.2019.05(Sat Apr 20 16:45:36 GMT 2019)
(GPL source distribution)
Java Runtime: Java(TM) SE Runtime Environment
JVM: Java HotSpot(TM) 64-Bit Server VM
Java Version: 1.8.0_202-b08
Operating System: Linux
OS Version: 5.0.0-1023-azure
Default Encoding: ANSI_X3.4-1968
Language: en
Country: US
--></g></svg>