<?xml version="1.0" encoding="UTF-8" standalone="no"?><svg xmlns="http://www.w3.org/2000/svg" xmlns:xlink="http://www.w3.org/1999/xlink" contentScriptType="application/ecmascript" contentStyleType="text/css" height="1004px" preserveAspectRatio="none" style="width:744px;height:1004px;" version="1.1" viewBox="0 0 744 1004" width="744px" zoomAndPan="magnify"><defs><filter height="300%" id="f1tia0l096p3f6" width="300%" x="-1" y="-1"><feGaussianBlur result="blurOut" stdDeviation="2.0"/><feColorMatrix in="blurOut" result="blurOut2" type="matrix" values="0 0 0 0 0 0 0 0 0 0 0 0 0 0 0 0 0 0 .4 0"/><feOffset dx="4.0" dy="4.0" in="blurOut2" result="blurOut3"/><feBlend in="SourceGraphic" in2="blurOut3" mode="normal"/></filter></defs><g><!--MD5=[54a43826f2bc7a2afb45e06c05bb0c28]
cluster Systematic--><polygon fill="#FFFFFF" filter="url(#f1tia0l096p3f6)" points="132,24.5,215,24.5,222,46.7969,272,46.7969,272,180.5,132,180.5,132,24.5" style="stroke: #000000; stroke-width: 1.5;"/><line style="stroke: #000000; stroke-width: 1.5;" x1="132" x2="222" y1="46.7969" y2="46.7969"/><text fill="#000000" font-family="sans-serif" font-size="14" font-weight="bold" lengthAdjust="spacingAndGlyphs" textLength="77" x="136" y="39.4951">Systematic</text><!--MD5=[e6925c455560c697c15e9ff4ef0b1888]
cluster FBS--><polygon fill="#FFFFFF" filter="url(#f1tia0l096p3f6)" points="140,51.5,170,51.5,177,73.7969,264,73.7969,264,172.5,140,172.5,140,51.5" style="stroke: #000000; stroke-width: 1.5;"/><line style="stroke: #000000; stroke-width: 1.5;" x1="140" x2="177" y1="73.7969" y2="73.7969"/><text fill="#000000" font-family="sans-serif" font-size="14" font-weight="bold" lengthAdjust="spacingAndGlyphs" textLength="24" x="144" y="66.4951">FBS</text><!--MD5=[89e514b20f27c60f693f9807401696c1]
cluster FBS Låner--><path d="M148,88.5 C148,78.5 202,78.5 202,78.5 C202,78.5 256,78.5 256,88.5 L256,154.5 C256,164.5 202,164.5 202,164.5 C202,164.5 148,164.5 148,154.5 L148,88.5 " fill="#FFFFFF" filter="url(#f1tia0l096p3f6)" style="stroke: #000000; stroke-width: 1.5;"/><path d="M148,88.5 C148,98.5 202,98.5 202,98.5 C202,98.5 256,98.5 256,88.5 " fill="none" style="stroke: #000000; stroke-width: 1.5;"/><text fill="#000000" font-family="sans-serif" font-size="14" font-weight="bold" lengthAdjust="spacingAndGlyphs" textLength="67" x="168.5" y="113.4951">FBS Låner</text><!--MD5=[45088913701e19f431063d6e7365f801]
cluster Kombit--><polygon fill="#FFFFFF" filter="url(#f1tia0l096p3f6)" points="287,16,345,16,352,38.2969,450,38.2969,450,189,287,189,287,16" style="stroke: #000000; stroke-width: 1.5;"/><line style="stroke: #000000; stroke-width: 1.5;" x1="287" x2="352" y1="38.2969" y2="38.2969"/><text fill="#000000" font-family="sans-serif" font-size="14" font-weight="bold" lengthAdjust="spacingAndGlyphs" textLength="52" x="291" y="30.9951">Kombit</text><!--MD5=[8fd2fbd933d483a16485652ab14327c0]
cluster Service platformen--><polygon fill="#FFFFFF" filter="url(#f1tia0l096p3f6)" points="295,43,432,43,439,65.2969,442,65.2969,442,181,295,181,295,43" style="stroke: #000000; stroke-width: 1.5;"/><line style="stroke: #000000; stroke-width: 1.5;" x1="295" x2="439" y1="65.2969" y2="65.2969"/><text fill="#000000" font-family="sans-serif" font-size="14" font-weight="bold" lengthAdjust="spacingAndGlyphs" textLength="131" x="299" y="57.9951">Service platformen</text><!--MD5=[2930ce71795c8531db56933e56df1399]
cluster Dueslag--><path d="M326,80 C326,70 380,70 380,70 C380,70 434,70 434,80 L434,163 C434,173 380,173 380,173 C380,173 326,173 326,163 L326,80 " fill="#FFFFFF" filter="url(#f1tia0l096p3f6)" style="stroke: #000000; stroke-width: 1.5;"/><path d="M326,80 C326,90 380,90 380,90 C380,90 434,90 434,80 " fill="none" style="stroke: #000000; stroke-width: 1.5;"/><text fill="#000000" font-family="sans-serif" font-size="14" font-weight="bold" lengthAdjust="spacingAndGlyphs" textLength="54" x="353" y="104.9951">Dueslag</text><!--MD5=[12b9f78979f1fe26e296b9b54b0ede66]
cluster National infrastruktur--><polygon fill="#FFFFFF" filter="url(#f1tia0l096p3f6)" points="458,93.5,618,93.5,625,115.7969,628,115.7969,628,164.5,458,164.5,458,93.5" style="stroke: #000000; stroke-width: 1.5;"/><line style="stroke: #000000; stroke-width: 1.5;" x1="458" x2="625" y1="115.7969" y2="115.7969"/><text fill="#000000" font-family="sans-serif" font-size="14" font-weight="bold" lengthAdjust="spacingAndGlyphs" textLength="154" x="462" y="108.4951">National infrastruktur</text><!--MD5=[7ac19ec182473c035cd7b9f351c853b1]
cluster Danskernes Digitale Bibliotek--><polygon fill="#FFFFFF" filter="url(#f1tia0l096p3f6)" points="14,252,223,252,230,274.2969,722,274.2969,722,992,14,992,14,252" style="stroke: #000000; stroke-width: 1.5;"/><line style="stroke: #000000; stroke-width: 1.5;" x1="14" x2="230" y1="274.2969" y2="274.2969"/><text fill="#000000" font-family="sans-serif" font-size="14" font-weight="bold" lengthAdjust="spacingAndGlyphs" textLength="203" x="18" y="266.9951">Danskernes Digitale Bibliotek</text><!--MD5=[2ccb3c9fded5fa7cfed5c6ef31ec4a0b]
cluster Openplatform--><polygon fill="#FFFFFF" filter="url(#f1tia0l096p3f6)" points="262,302.5,367,302.5,374,324.7969,712,324.7969,712,774,262,774,262,302.5" style="stroke: #000000; stroke-width: 1.5;"/><line style="stroke: #000000; stroke-width: 1.5;" x1="262" x2="374" y1="324.7969" y2="324.7969"/><text fill="#000000" font-family="sans-serif" font-size="14" font-weight="bold" lengthAdjust="spacingAndGlyphs" textLength="99" x="266" y="317.4951">Openplatform</text><!--MD5=[6947db93a38e769aad5a37c40eef79fd]
cluster DDB CMS--><polygon fill="#FFFFFF" filter="url(#f1tia0l096p3f6)" points="339,913,407,913,414,935.2969,543,935.2969,543,984,339,984,339,913" style="stroke: #000000; stroke-width: 1.5;"/><line style="stroke: #000000; stroke-width: 1.5;" x1="339" x2="414" y1="935.2969" y2="935.2969"/><text fill="#000000" font-family="sans-serif" font-size="14" font-weight="bold" lengthAdjust="spacingAndGlyphs" textLength="62" x="343" y="927.9951">DDB CMS</text><!--MD5=[040a8e4ceb8ef2780e76ce7cbc882226]
cluster Faktor--><path d="M22,289 C22,279 138,279 138,279 C138,279 254,279 254,289 L254,372 C254,382 138,382 138,382 C138,382 22,382 22,372 L22,289 " fill="#FFFFFF" filter="url(#f1tia0l096p3f6)" style="stroke: #000000; stroke-width: 1.5;"/><path d="M22,289 C22,299 138,299 138,299 C138,299 254,299 254,289 " fill="none" style="stroke: #000000; stroke-width: 1.5;"/><text fill="#000000" font-family="sans-serif" font-size="14" font-weight="bold" lengthAdjust="spacingAndGlyphs" textLength="46" x="115" y="313.9951">Faktor</text><!--MD5=[da9ab98d3c2a74aa94b0f08d7f7f1b12]
entity Udlånsdata--><rect fill="#FEFECE" filter="url(#f1tia0l096p3f6)" height="36.2969" style="stroke: #A80036; stroke-width: 1.5;" width="91" x="156.5" y="120.5"/><rect fill="#FEFECE" height="5" style="stroke: #A80036; stroke-width: 1.5;" width="10" x="151.5" y="125.5"/><rect fill="#FEFECE" height="5" style="stroke: #A80036; stroke-width: 1.5;" width="10" x="151.5" y="146.7969"/><text fill="#000000" font-family="sans-serif" font-size="14" lengthAdjust="spacingAndGlyphs" textLength="71" x="166.5" y="143.4951">Udlånsdata</text><!--MD5=[cd87a3de4c9a6ff8a61bad43e9dbd7c1]
entity Udlånsdata \n (Med CPR)--><rect fill="#FEFECE" filter="url(#f1tia0l096p3f6)" height="52.5938" style="stroke: #A80036; stroke-width: 1.5;" width="91" x="334.5" y="112"/><rect fill="#FEFECE" height="5" style="stroke: #A80036; stroke-width: 1.5;" width="10" x="329.5" y="117"/><rect fill="#FEFECE" height="5" style="stroke: #A80036; stroke-width: 1.5;" width="10" x="329.5" y="154.5938"/><text fill="#000000" font-family="sans-serif" font-size="14" lengthAdjust="spacingAndGlyphs" textLength="71" x="344.5" y="134.9951">Udlånsdata</text><text fill="#000000" font-family="sans-serif" font-size="14" lengthAdjust="spacingAndGlyphs" textLength="64" x="344.5" y="151.292">(Med CPR)</text><!--MD5=[c67fd5d583bbf4b86ac74818746ac032]
entity CULR WS--><rect fill="#FEFECE" filter="url(#f1tia0l096p3f6)" height="36.2969" style="stroke: #A80036; stroke-width: 1.5;" width="77" x="466.5" y="120.5"/><rect fill="#FEFECE" height="5" style="stroke: #A80036; stroke-width: 1.5;" width="10" x="461.5" y="125.5"/><rect fill="#FEFECE" height="5" style="stroke: #A80036; stroke-width: 1.5;" width="10" x="461.5" y="146.7969"/><text fill="#000000" font-family="sans-serif" font-size="14" lengthAdjust="spacingAndGlyphs" textLength="57" x="476.5" y="143.4951">CULR WS</text><!--MD5=[e5fe8b05f9850d86fa8bfaef124063ad]
entity Data Wash WS--><rect fill="#FEFECE" filter="url(#f1tia0l096p3f6)" height="36.2969" style="stroke: #A80036; stroke-width: 1.5;" width="112" x="390" y="329.5"/><rect fill="#FEFECE" height="5" style="stroke: #A80036; stroke-width: 1.5;" width="10" x="385" y="334.5"/><rect fill="#FEFECE" height="5" style="stroke: #A80036; stroke-width: 1.5;" width="10" x="385" y="355.7969"/><text fill="#000000" font-family="sans-serif" font-size="14" lengthAdjust="spacingAndGlyphs" textLength="92" x="400" y="352.4951">Data Wash WS</text><!--MD5=[d0020a35c1b1dceb1bbb0faca913551d]
entity Loan History WS \n (GUID)--><rect fill="#FEFECE" filter="url(#f1tia0l096p3f6)" height="52.5938" style="stroke: #A80036; stroke-width: 1.5;" width="124" x="270" y="713"/><rect fill="#FEFECE" height="5" style="stroke: #A80036; stroke-width: 1.5;" width="10" x="265" y="718"/><rect fill="#FEFECE" height="5" style="stroke: #A80036; stroke-width: 1.5;" width="10" x="265" y="755.5938"/><text fill="#000000" font-family="sans-serif" font-size="14" lengthAdjust="spacingAndGlyphs" textLength="104" x="280" y="735.9951">Loan History WS</text><text fill="#000000" font-family="sans-serif" font-size="14" lengthAdjust="spacingAndGlyphs" textLength="43" x="280" y="752.292">(GUID)</text><!--MD5=[1965f9392532943755f427374fc7ecef]
entity PatronAccept WS \n (GUID)--><rect fill="#FEFECE" filter="url(#f1tia0l096p3f6)" height="52.5938" style="stroke: #A80036; stroke-width: 1.5;" width="129" x="433.5" y="713"/><rect fill="#FEFECE" height="5" style="stroke: #A80036; stroke-width: 1.5;" width="10" x="428.5" y="718"/><rect fill="#FEFECE" height="5" style="stroke: #A80036; stroke-width: 1.5;" width="10" x="428.5" y="755.5938"/><text fill="#000000" font-family="sans-serif" font-size="14" lengthAdjust="spacingAndGlyphs" textLength="109" x="443.5" y="735.9951">PatronAccept WS</text><text fill="#000000" font-family="sans-serif" font-size="14" lengthAdjust="spacingAndGlyphs" textLength="43" x="443.5" y="752.292">(GUID)</text><!--MD5=[6d200d1eff1ec33048a9717ec1f8ed3a]
entity Adgangsplatformen WS--><rect fill="#FEFECE" filter="url(#f1tia0l096p3f6)" height="36.2969" style="stroke: #A80036; stroke-width: 1.5;" width="167" x="537.5" y="329.5"/><rect fill="#FEFECE" height="5" style="stroke: #A80036; stroke-width: 1.5;" width="10" x="532.5" y="334.5"/><rect fill="#FEFECE" height="5" style="stroke: #A80036; stroke-width: 1.5;" width="10" x="532.5" y="355.7969"/><text fill="#000000" font-family="sans-serif" font-size="14" lengthAdjust="spacingAndGlyphs" textLength="147" x="547.5" y="352.4951">Adgangsplatformen WS</text><!--MD5=[cf06b98fed5de4ec32264c6002e2cc18]
entity DDB CMS Loan History list--><rect fill="#FEFECE" filter="url(#f1tia0l096p3f6)" height="36.2969" style="stroke: #A80036; stroke-width: 1.5;" width="188" x="347" y="940"/><rect fill="#FEFECE" height="5" style="stroke: #A80036; stroke-width: 1.5;" width="10" x="342" y="945"/><rect fill="#FEFECE" height="5" style="stroke: #A80036; stroke-width: 1.5;" width="10" x="342" y="966.2969"/><text fill="#000000" font-family="sans-serif" font-size="14" lengthAdjust="spacingAndGlyphs" textLength="168" x="357" y="962.9951">DDB CMS Loan History list</text><!--MD5=[53ae289992e5197788778311f76b8870]
entity Statistik rapporter \n (Uden CPR, med Persistent ID)--><rect fill="#FEFECE" filter="url(#f1tia0l096p3f6)" height="52.5938" style="stroke: #A80036; stroke-width: 1.5;" width="215" x="30.5" y="321"/><rect fill="#FEFECE" height="5" style="stroke: #A80036; stroke-width: 1.5;" width="10" x="25.5" y="326"/><rect fill="#FEFECE" height="5" style="stroke: #A80036; stroke-width: 1.5;" width="10" x="25.5" y="363.5938"/><text fill="#000000" font-family="sans-serif" font-size="14" lengthAdjust="spacingAndGlyphs" textLength="114" x="40.5" y="343.9951">Statistik rapporter</text><text fill="#000000" font-family="sans-serif" font-size="14" lengthAdjust="spacingAndGlyphs" textLength="195" x="40.5" y="360.292">(Uden CPR, med Persistent ID)</text><!--MD5=[74dfbd4e14b4f5aa869f771da08b74d4]
link Udlånsdata to Udlånsdata \n (Med CPR)--><path d="M247.8394,138.5 C272.7545,138.5 303.6239,138.5 329.2615,138.5 " fill="none" id="Udlånsdata-&gt;Udlånsdata \n (Med CPR)" style="stroke: #A80036; stroke-width: 1.0;"/><polygon fill="#A80036" points="334.3159,138.5,325.3159,134.5,329.3159,138.5,325.3159,142.5,334.3159,138.5" style="stroke: #A80036; stroke-width: 1.0;"/><text fill="#000000" font-family="sans-serif" font-size="13" lengthAdjust="spacingAndGlyphs" textLength="50" x="266" y="131.5669">TRIN A.1</text><!--MD5=[1e95389c5aa0d56acfbd6509462b85db]
link Udlånsdata \n (Med CPR) to Data Wash WS--><path d="M388.4932,165.3952 C401.5545,206.7559 426.3498,285.2744 438.671,324.2916 " fill="none" id="Udlånsdata \n (Med CPR)-&gt;Data Wash WS" style="stroke: #A80036; stroke-width: 1.0;"/><polygon fill="#A80036" points="440.253,329.3012,441.3567,319.5144,438.7471,324.5333,433.7282,321.9238,440.253,329.3012" style="stroke: #A80036; stroke-width: 1.0;"/><text fill="#000000" font-family="sans-serif" font-size="13" lengthAdjust="spacingAndGlyphs" textLength="50" x="414" y="225.0669">TRIN A.2</text><!--MD5=[3ee5b717fe23f80701c80dc2399aadef]
reverse link Statistik rapporter \n (Uden CPR, med Persistent ID) to Data Wash WS--><path d="M250.8705,347.5 C298.1686,347.5 351.0521,347.5 389.8215,347.5 " fill="none" id="Statistik rapporter \n (Uden CPR, med Persistent ID)&lt;-Data Wash WS" style="stroke: #A80036; stroke-width: 1.0;"/><polygon fill="#A80036" points="245.7235,347.5,254.7235,351.5,250.7235,347.5,254.7235,343.5,245.7235,347.5" style="stroke: #A80036; stroke-width: 1.0;"/><text fill="#000000" font-family="sans-serif" font-size="13" lengthAdjust="spacingAndGlyphs" textLength="50" x="291.25" y="310.5669">TRIN B.1</text><text fill="#000000" font-family="sans-serif" font-size="13" lengthAdjust="spacingAndGlyphs" textLength="102" x="266.75" y="325.6997">Send statistikdata</text><text fill="#000000" font-family="sans-serif" font-size="13" lengthAdjust="spacingAndGlyphs" textLength="103" x="267.75" y="340.8325">med Persistent id.</text><!--MD5=[4b64dc1fcfc6edcbaac4cabe093d7a9d]
reverse link PatronAccept WS \n (GUID) to DDB CMS Loan History list--><path d="M486.1088,771.019 C480.1554,787.5343 473.1411,808.1882 468,827 C457.1646,866.6474 448.4054,914.0934 444.0312,939.6009 " fill="none" id="PatronAccept WS \n (GUID)&lt;-DDB CMS Loan History list" style="stroke: #A80036; stroke-width: 1.0;"/><polygon fill="#A80036" points="487.9191,766.033,481.0877,773.1275,486.2127,770.7328,488.6074,775.8578,487.9191,766.033" style="stroke: #A80036; stroke-width: 1.0;"/><text fill="#000000" font-family="sans-serif" font-size="13" lengthAdjust="spacingAndGlyphs" textLength="53" x="503" y="847.5669">TRIN C.1:</text><text fill="#000000" font-family="sans-serif" font-size="13" lengthAdjust="spacingAndGlyphs" textLength="121" x="472" y="862.6997">Opret bruger accept.</text><!--MD5=[38d44d67fabbaad947eaeba62c90ade7]
link Data Wash WS to PatronAccept WS \n (GUID)--><path d="M449.7764,365.8397 C455.4615,393.961 466.2682,449.4723 473,497 C483.6588,572.2536 491.6656,661.2576 495.4961,707.6902 " fill="none" id="Data Wash WS-&gt;PatronAccept WS \n (GUID)" style="stroke: #A80036; stroke-width: 1.0;"/><polygon fill="#A80036" points="495.9203,712.8658,499.1715,703.569,495.5117,707.8825,491.1982,704.2228,495.9203,712.8658" style="stroke: #A80036; stroke-width: 1.0;"/><text fill="#000000" font-family="sans-serif" font-size="13" lengthAdjust="spacingAndGlyphs" textLength="53" x="522" y="510.0669">TRIN C.2:</text><text fill="#000000" font-family="sans-serif" font-size="13" lengthAdjust="spacingAndGlyphs" textLength="111" x="494.5" y="525.1997">Hent lånere (GUID)</text><text fill="#000000" font-family="sans-serif" font-size="13" lengthAdjust="spacingAndGlyphs" textLength="137" x="483" y="540.3325">der ønsker lånehistorik.</text><!--MD5=[1a81e7071bb3529582b69f9b13361ffd]
reverse link CULR WS to Data Wash WS--><path d="M498.492,161.5539 C486.6728,203.4217 461.9114,291.1357 451.1628,329.2114 " fill="none" id="CULR WS&lt;-Data Wash WS" style="stroke: #A80036; stroke-width: 1.0;"/><polygon fill="#A80036" points="499.8673,156.6818,493.5724,164.2564,498.5088,161.4937,501.2714,166.4301,499.8673,156.6818" style="stroke: #A80036; stroke-width: 1.0;"/><text fill="#000000" font-family="sans-serif" font-size="13" lengthAdjust="spacingAndGlyphs" textLength="53" x="494.5" y="210.0669">TRIN C.3:</text><text fill="#000000" font-family="sans-serif" font-size="13" lengthAdjust="spacingAndGlyphs" textLength="63" x="491" y="225.1997">Hent GUID</text><text fill="#000000" font-family="sans-serif" font-size="13" lengthAdjust="spacingAndGlyphs" textLength="64" x="492" y="240.3325">ud fra CPR.</text><!--MD5=[4892e1346340f380f94fdadd90834f58]
link Data Wash WS to Loan History WS \n (GUID)--><path d="M389.8679,359.0658 C350.5476,370.8285 305,393.5152 305,435.5 C305,435.5 305,435.5 305,628.5 C305,655.7886 312.7998,685.809 320.0149,707.7415 " fill="none" id="Data Wash WS-&gt;Loan History WS \n (GUID)" style="stroke: #A80036; stroke-width: 1.0;"/><polygon fill="#A80036" points="321.6383,712.5743,322.5642,702.7691,320.0462,707.8346,314.9806,705.3165,321.6383,712.5743" style="stroke: #A80036; stroke-width: 1.0;"/><text fill="#000000" font-family="sans-serif" font-size="13" lengthAdjust="spacingAndGlyphs" textLength="53" x="357" y="510.0669">TRIN C.4:</text><text fill="#000000" font-family="sans-serif" font-size="13" lengthAdjust="spacingAndGlyphs" textLength="101" x="334.5" y="525.1997">Send lånehistorik</text><text fill="#000000" font-family="sans-serif" font-size="13" lengthAdjust="spacingAndGlyphs" textLength="155" x="309" y="540.3325">for de pågældende lånere.</text><!--MD5=[81ea6f86eaf77b32d6bcfae4751d0df9]
reverse link Adgangsplatformen WS to DDB CMS Loan History list--><path d="M622.6557,371.1318 C624.6292,400.5877 627.8097,452.4823 629,497 C629.5583,517.8814 630.9354,523.201 629,544 C623.1973,606.3614 603,619.8692 603,682.5 C603,682.5 603,682.5 603,850.5 C603,896.7429 556.6045,924.2786 513.4711,939.8861 " fill="none" id="Adgangsplatformen WS&lt;-DDB CMS Loan History list" style="stroke: #A80036; stroke-width: 1.0;"/><polygon fill="#A80036" points="622.302,365.8997,618.9185,375.1491,622.6394,370.8883,626.9003,374.6092,622.302,365.8997" style="stroke: #A80036; stroke-width: 1.0;"/><text fill="#000000" font-family="sans-serif" font-size="13" lengthAdjust="spacingAndGlyphs" textLength="54" x="643" y="618.0669">TRIN D.1:</text><text fill="#000000" font-family="sans-serif" font-size="13" lengthAdjust="spacingAndGlyphs" textLength="103" x="620" y="633.1997">Autentificer låner,</text><text fill="#000000" font-family="sans-serif" font-size="13" lengthAdjust="spacingAndGlyphs" textLength="83" x="631.5" y="648.3325">og hent GUID.</text><!--MD5=[ba1855d3c8edd101a298dd4941b995d3]
reverse link Loan History WS \n (GUID) to DDB CMS Loan History list--><path d="M316.1109,771.0047 C304.1165,799.5438 292.4575,841.9121 310,874 C327.1072,905.2915 361.4014,926.6466 390.6103,939.9929 " fill="none" id="Loan History WS \n (GUID)&lt;-DDB CMS Loan History list" style="stroke: #A80036; stroke-width: 1.0;"/><polygon fill="#A80036" points="318.1904,766.1952,310.9471,772.8686,316.2061,770.7846,318.2901,776.0436,318.1904,766.1952" style="stroke: #A80036; stroke-width: 1.0;"/><text fill="#000000" font-family="sans-serif" font-size="13" lengthAdjust="spacingAndGlyphs" textLength="54" x="350.5" y="840.0669">TRIN D.2:</text><text fill="#000000" font-family="sans-serif" font-size="13" lengthAdjust="spacingAndGlyphs" textLength="99" x="329.5" y="855.1997">Hent lånehistorik</text><text fill="#000000" font-family="sans-serif" font-size="13" lengthAdjust="spacingAndGlyphs" textLength="133" x="314" y="870.3325">for autentificeret låner.</text><!--MD5=[427bba598c8a3588e9726ce1f3787de9]
@startuml

package "Systematic" {
    package "FBS" {
      database "FBS Låner"{
        [Udlånsdata]
      }
    }
}

package "Kombit" {
    package "Service platformen" {
        database "Dueslag" {
            [Udlånsdata \n (Med CPR)]
        }
    }
}


package "National infrastruktur" {
    [CULR WS]
}

package "Danskernes Digitale Bibliotek" {
    package "Openplatform" {
        [Data Wash WS]
        [Loan History WS \n (GUID)]
        [PatronAccept WS \n (GUID)]
    }
    package "DDB CMS" {
        [DDB CMS Loan History list]
    }
    database "Faktor" {
        [Statistik rapporter \n (Uden CPR, med Persistent ID)]
    }
    package "Openplatform" {
        [Adgangsplatformen WS]
    }
}

[Udlånsdata] -right-> [Udlånsdata \n (Med CPR)]: TRIN A.1
[Udlånsdata \n (Med CPR)] -down-> [Data Wash WS]: TRIN A.2

[Data Wash WS] -left-> [Statistik rapporter \n (Uden CPR, med Persistent ID)]: TRIN B.1 \n Send statistikdata \n med Persistent id.

[DDB CMS Loan History list] -up-> [PatronAccept WS \n (GUID)]: TRIN C.1: \n Opret bruger accept.
[Data Wash WS] - -> [PatronAccept WS \n (GUID)]: TRIN C.2: \n Hent lånere (GUID) \n der ønsker lånehistorik.
[Data Wash WS] -up-> [CULR WS]: TRIN C.3: \n Hent GUID \n ud fra CPR.
[Data Wash WS] - -> [Loan History WS \n (GUID)]: TRIN C.4: \n Send lånehistorik \n for de pågældende lånere.

[DDB CMS Loan History list] -up-> [Adgangsplatformen WS]: TRIN D.1: \n Autentificer låner, \n og hent GUID.
[DDB CMS Loan History list] -up-> [Loan History WS \n (GUID)]: TRIN D.2: \n Hent lånehistorik \n for autentificeret låner.

@enduml

PlantUML version 1.2019.13(Tue Dec 10 17:18:29 GMT 2019)
(GPL source distribution)
Java Runtime: Java(TM) SE Runtime Environment
JVM: Java HotSpot(TM) 64-Bit Server VM
Java Version: 1.8.0_202-b08
Operating System: Linux
Default Encoding: ANSI_X3.4-1968
Language: en
Country: US
--></g></svg>