<?xml version="1.0" encoding="UTF-8" standalone="no"?><svg xmlns="http://www.w3.org/2000/svg" xmlns:xlink="http://www.w3.org/1999/xlink" contentScriptType="application/ecmascript" contentStyleType="text/css" height="610px" preserveAspectRatio="none" style="width:660px;height:610px;" version="1.1" viewBox="0 0 660 610" width="660px" zoomAndPan="magnify"><defs><filter height="300%" id="f1v1v7fye5s0fi" width="300%" x="-1" y="-1"><feGaussianBlur result="blurOut" stdDeviation="2.0"/><feColorMatrix in="blurOut" result="blurOut2" type="matrix" values="0 0 0 0 0 0 0 0 0 0 0 0 0 0 0 0 0 0 .4 0"/><feOffset dx="4.0" dy="4.0" in="blurOut2" result="blurOut3"/><feBlend in="SourceGraphic" in2="blurOut3" mode="normal"/></filter></defs><g><!--MD5=[54a43826f2bc7a2afb45e06c05bb0c28]
cluster Systematic--><polygon fill="#FFFFFF" filter="url(#f1v1v7fye5s0fi)" points="184,16,267,16,274,38.2969,554,38.2969,554,205,184,205,184,16" style="stroke: #000000; stroke-width: 1.5;"/><line style="stroke: #000000; stroke-width: 1.5;" x1="184" x2="274" y1="38.2969" y2="38.2969"/><text fill="#000000" font-family="sans-serif" font-size="14" font-weight="bold" lengthAdjust="spacingAndGlyphs" textLength="77" x="188" y="30.9951">Systematic</text><!--MD5=[e6925c455560c697c15e9ff4ef0b1888]
cluster FBS--><polygon fill="#FFFFFF" filter="url(#f1v1v7fye5s0fi)" points="192,43,222,43,229,65.2969,546,65.2969,546,197,192,197,192,43" style="stroke: #000000; stroke-width: 1.5;"/><line style="stroke: #000000; stroke-width: 1.5;" x1="192" x2="229" y1="65.2969" y2="65.2969"/><text fill="#000000" font-family="sans-serif" font-size="14" font-weight="bold" lengthAdjust="spacingAndGlyphs" textLength="24" x="196" y="57.9951">FBS</text><!--MD5=[89e514b20f27c60f693f9807401696c1]
cluster FBS Låner--><path d="M430,96.5 C430,86.5 484,86.5 484,86.5 C484,86.5 538,86.5 538,96.5 L538,162.5 C538,172.5 484,172.5 484,172.5 C484,172.5 430,172.5 430,162.5 L430,96.5 " fill="#FFFFFF" filter="url(#f1v1v7fye5s0fi)" style="stroke: #000000; stroke-width: 1.5;"/><path d="M430,96.5 C430,106.5 484,106.5 484,106.5 C484,106.5 538,106.5 538,96.5 " fill="none" style="stroke: #000000; stroke-width: 1.5;"/><text fill="#000000" font-family="sans-serif" font-size="14" font-weight="bold" lengthAdjust="spacingAndGlyphs" textLength="67" x="450.5" y="121.4951">FBS Låner</text><!--MD5=[5de65043c4ed11068da4c628e4acadba]
cluster FBS Statistik--><path d="M200,80 C200,70 280,70 280,70 C280,70 360,70 360,80 L360,179 C360,189 280,189 280,189 C280,189 200,189 200,179 L200,80 " fill="#FFFFFF" filter="url(#f1v1v7fye5s0fi)" style="stroke: #000000; stroke-width: 1.5;"/><path d="M200,80 C200,90 280,90 280,90 C280,90 360,90 360,80 " fill="none" style="stroke: #000000; stroke-width: 1.5;"/><text fill="#000000" font-family="sans-serif" font-size="14" font-weight="bold" lengthAdjust="spacingAndGlyphs" textLength="87" x="236.5" y="104.9951">FBS Statistik</text><!--MD5=[45088913701e19f431063d6e7365f801]
cluster Kombit--><polygon fill="#FFFFFF" filter="url(#f1v1v7fye5s0fi)" points="170,238,228,238,235,260.2969,596,260.2969,596,427,170,427,170,238" style="stroke: #000000; stroke-width: 1.5;"/><line style="stroke: #000000; stroke-width: 1.5;" x1="170" x2="235" y1="260.2969" y2="260.2969"/><text fill="#000000" font-family="sans-serif" font-size="14" font-weight="bold" lengthAdjust="spacingAndGlyphs" textLength="52" x="174" y="252.9951">Kombit</text><!--MD5=[8fd2fbd933d483a16485652ab14327c0]
cluster Service platformen--><polygon fill="#FFFFFF" filter="url(#f1v1v7fye5s0fi)" points="178,265,315,265,322,287.2969,588,287.2969,588,419,178,419,178,265" style="stroke: #000000; stroke-width: 1.5;"/><line style="stroke: #000000; stroke-width: 1.5;" x1="178" x2="322" y1="287.2969" y2="287.2969"/><text fill="#000000" font-family="sans-serif" font-size="14" font-weight="bold" lengthAdjust="spacingAndGlyphs" textLength="131" x="182" y="279.9951">Service platformen</text><!--MD5=[70f50a4cf4efd73234012c9a819b62fe]
cluster Dueslag til FAKTOR --><path d="M186,302 C186,292 266,292 266,292 C266,292 346,292 346,302 L346,401 C346,411 266,411 266,411 C266,411 186,411 186,401 L186,302 " fill="#FFFFFF" filter="url(#f1v1v7fye5s0fi)" style="stroke: #000000; stroke-width: 1.5;"/><path d="M186,302 C186,312 266,312 266,312 C266,312 346,312 346,302 " fill="none" style="stroke: #000000; stroke-width: 1.5;"/><text fill="#000000" font-family="sans-serif" font-size="14" font-weight="bold" lengthAdjust="spacingAndGlyphs" textLength="131" x="198.5" y="326.9951">Dueslag til FAKTOR</text><!--MD5=[8b634d9cde3f31cc4aada8fae1a12466]
cluster Dueslag til Danmarks Statistik--><path d="M354,310 C354,300 467,300 467,300 C467,300 580,300 580,310 L580,393 C580,403 467,403 467,403 C467,403 354,403 354,393 L354,310 " fill="#FFFFFF" filter="url(#f1v1v7fye5s0fi)" style="stroke: #000000; stroke-width: 1.5;"/><path d="M354,310 C354,320 467,320 467,320 C467,320 580,320 580,310 " fill="none" style="stroke: #000000; stroke-width: 1.5;"/><text fill="#000000" font-family="sans-serif" font-size="14" font-weight="bold" lengthAdjust="spacingAndGlyphs" textLength="210" x="362" y="334.9951">Dueslag til Danmarks Statistik</text><!--MD5=[9640466469e82f1b76013507daf3247f]
cluster Danmarks Statistik--><polygon fill="#FFFFFF" filter="url(#f1v1v7fye5s0fi)" points="434,460,573,460,580,482.2969,638,482.2969,638,598,434,598,434,460" style="stroke: #000000; stroke-width: 1.5;"/><line style="stroke: #000000; stroke-width: 1.5;" x1="434" x2="580" y1="482.2969" y2="482.2969"/><text fill="#000000" font-family="sans-serif" font-size="14" font-weight="bold" lengthAdjust="spacingAndGlyphs" textLength="133" x="438" y="474.9951">Danmarks Statistik</text><!--MD5=[40d3de615a5e4a215cf22dd8d0c1f058]
cluster DST--><path d="M442,497 C442,487 536,487 536,487 C536,487 630,487 630,497 L630,580 C630,590 536,590 536,590 C536,590 442,590 442,580 L442,497 " fill="#FFFFFF" filter="url(#f1v1v7fye5s0fi)" style="stroke: #000000; stroke-width: 1.5;"/><path d="M442,497 C442,507 536,507 536,507 C536,507 630,507 630,497 " fill="none" style="stroke: #000000; stroke-width: 1.5;"/><text fill="#000000" font-family="sans-serif" font-size="14" font-weight="bold" lengthAdjust="spacingAndGlyphs" textLength="25" x="523.5" y="521.9951">DST</text><!--MD5=[7ac19ec182473c035cd7b9f351c853b1]
cluster Danskernes Digitale Bibliotek--><polygon fill="#FFFFFF" filter="url(#f1v1v7fye5s0fi)" points="14,460,223,460,230,482.2969,380,482.2969,380,598,14,598,14,460" style="stroke: #000000; stroke-width: 1.5;"/><line style="stroke: #000000; stroke-width: 1.5;" x1="14" x2="230" y1="482.2969" y2="482.2969"/><text fill="#000000" font-family="sans-serif" font-size="14" font-weight="bold" lengthAdjust="spacingAndGlyphs" textLength="203" x="18" y="474.9951">Danskernes Digitale Bibliotek</text><!--MD5=[040a8e4ceb8ef2780e76ce7cbc882226]
cluster Faktor--><path d="M22,497 C22,487 197,487 197,487 C197,487 372,487 372,497 L372,580 C372,590 197,590 197,590 C197,590 22,590 22,580 L22,497 " fill="#FFFFFF" filter="url(#f1v1v7fye5s0fi)" style="stroke: #000000; stroke-width: 1.5;"/><path d="M22,497 C22,507 197,507 197,507 C197,507 372,507 372,497 " fill="none" style="stroke: #000000; stroke-width: 1.5;"/><text fill="#000000" font-family="sans-serif" font-size="14" font-weight="bold" lengthAdjust="spacingAndGlyphs" textLength="46" x="174" y="521.9951">Faktor</text><!--MD5=[da9ab98d3c2a74aa94b0f08d7f7f1b12]
entity Udlånsdata--><rect fill="#FEFECE" filter="url(#f1v1v7fye5s0fi)" height="36.2969" style="stroke: #A80036; stroke-width: 1.5;" width="91" x="438.5" y="128.5"/><rect fill="#FEFECE" height="5" style="stroke: #A80036; stroke-width: 1.5;" width="10" x="433.5" y="133.5"/><rect fill="#FEFECE" height="5" style="stroke: #A80036; stroke-width: 1.5;" width="10" x="433.5" y="154.7969"/><text fill="#000000" font-family="sans-serif" font-size="14" lengthAdjust="spacingAndGlyphs" textLength="71" x="448.5" y="151.4951">Udlånsdata</text><!--MD5=[d3cdc4b2e3ed4352fefdcc0299530482]
entity Statistikdata \n (Uden CPR) \n (Med Persistent ID)--><rect fill="#FEFECE" filter="url(#f1v1v7fye5s0fi)" height="68.8906" style="stroke: #A80036; stroke-width: 1.5;" width="144" x="208" y="112"/><rect fill="#FEFECE" height="5" style="stroke: #A80036; stroke-width: 1.5;" width="10" x="203" y="117"/><rect fill="#FEFECE" height="5" style="stroke: #A80036; stroke-width: 1.5;" width="10" x="203" y="170.8906"/><text fill="#000000" font-family="sans-serif" font-size="14" lengthAdjust="spacingAndGlyphs" textLength="78" x="218" y="134.9951">Statistikdata</text><text fill="#000000" font-family="sans-serif" font-size="14" lengthAdjust="spacingAndGlyphs" textLength="70" x="218" y="151.292">(Uden CPR)</text><text fill="#000000" font-family="sans-serif" font-size="14" lengthAdjust="spacingAndGlyphs" textLength="124" x="218" y="167.5889">(Med Persistent ID)</text><!--MD5=[043012266aebc53e90253db2f53b8753]
entity Statistik datadump \n (Uden CPR) \n (Med Persistent ID)--><rect fill="#FEFECE" filter="url(#f1v1v7fye5s0fi)" height="68.8906" style="stroke: #A80036; stroke-width: 1.5;" width="144" x="194" y="334"/><rect fill="#FEFECE" height="5" style="stroke: #A80036; stroke-width: 1.5;" width="10" x="189" y="339"/><rect fill="#FEFECE" height="5" style="stroke: #A80036; stroke-width: 1.5;" width="10" x="189" y="392.8906"/><text fill="#000000" font-family="sans-serif" font-size="14" lengthAdjust="spacingAndGlyphs" textLength="119" x="204" y="356.9951">Statistik datadump</text><text fill="#000000" font-family="sans-serif" font-size="14" lengthAdjust="spacingAndGlyphs" textLength="70" x="204" y="373.292">(Uden CPR)</text><text fill="#000000" font-family="sans-serif" font-size="14" lengthAdjust="spacingAndGlyphs" textLength="124" x="204" y="389.5889">(Med Persistent ID)</text><!--MD5=[6a84b633607fe43d2f71252c0a49fbd0]
entity Udlånsdata datadump \n (Med CPR)--><rect fill="#FEFECE" filter="url(#f1v1v7fye5s0fi)" height="52.5938" style="stroke: #A80036; stroke-width: 1.5;" width="159" x="411.5" y="342"/><rect fill="#FEFECE" height="5" style="stroke: #A80036; stroke-width: 1.5;" width="10" x="406.5" y="347"/><rect fill="#FEFECE" height="5" style="stroke: #A80036; stroke-width: 1.5;" width="10" x="406.5" y="384.5938"/><text fill="#000000" font-family="sans-serif" font-size="14" lengthAdjust="spacingAndGlyphs" textLength="139" x="421.5" y="364.9951">Udlånsdata datadump</text><text fill="#000000" font-family="sans-serif" font-size="14" lengthAdjust="spacingAndGlyphs" textLength="64" x="421.5" y="381.292">(Med CPR)</text><!--MD5=[b74ae57fd230c28aff092c83007e8fa4]
entity Udlånsdata \n (Aggregerede uden CPR)--><rect fill="#FEFECE" filter="url(#f1v1v7fye5s0fi)" height="52.5938" style="stroke: #A80036; stroke-width: 1.5;" width="172" x="450" y="529"/><rect fill="#FEFECE" height="5" style="stroke: #A80036; stroke-width: 1.5;" width="10" x="445" y="534"/><rect fill="#FEFECE" height="5" style="stroke: #A80036; stroke-width: 1.5;" width="10" x="445" y="571.5938"/><text fill="#000000" font-family="sans-serif" font-size="14" lengthAdjust="spacingAndGlyphs" textLength="71" x="460" y="551.9951">Udlånsdata</text><text fill="#000000" font-family="sans-serif" font-size="14" lengthAdjust="spacingAndGlyphs" textLength="152" x="460" y="568.292">(Aggregerede uden CPR)</text><!--MD5=[4c6550ad7d12bd1dd9c90f89657c42b7]
entity Statistik rapporter (Uden CPR, med Persistent ID) \n Aggregerede data (Uden CPR)--><rect fill="#FEFECE" filter="url(#f1v1v7fye5s0fi)" height="52.5938" style="stroke: #A80036; stroke-width: 1.5;" width="333" x="30.5" y="529"/><rect fill="#FEFECE" height="5" style="stroke: #A80036; stroke-width: 1.5;" width="10" x="25.5" y="534"/><rect fill="#FEFECE" height="5" style="stroke: #A80036; stroke-width: 1.5;" width="10" x="25.5" y="571.5938"/><text fill="#000000" font-family="sans-serif" font-size="14" lengthAdjust="spacingAndGlyphs" textLength="313" x="40.5" y="551.9951">Statistik rapporter (Uden CPR, med Persistent ID)</text><text fill="#000000" font-family="sans-serif" font-size="14" lengthAdjust="spacingAndGlyphs" textLength="185" x="40.5" y="568.292">Aggregerede data (Uden CPR)</text><!--MD5=[cd6e3b01a7d690a20d66748b01482da4]
reverse link Statistikdata \n (Uden CPR) \n (Med Persistent ID) to Udlånsdata--><path d="M357.2801,146.5 C384.6021,146.5 414.442,146.5 438.2988,146.5 " fill="none" id="Statistikdata \n (Uden CPR) \n (Med Persistent ID)&lt;-Udlånsdata" style="stroke: #A80036; stroke-width: 1.0;"/><polygon fill="#A80036" points="352.2099,146.5,361.2099,150.5,357.2099,146.5,361.2099,142.5,352.2099,146.5" style="stroke: #A80036; stroke-width: 1.0;"/><text fill="#000000" font-family="sans-serif" font-size="13" lengthAdjust="spacingAndGlyphs" textLength="50" x="370.25" y="139.5669">TRIN A.1</text><!--MD5=[e039dd82ffd212dd92d46703c7aa7388]
link Statistikdata \n (Uden CPR) \n (Med Persistent ID) to Statistik datadump \n (Uden CPR) \n (Med Persistent ID)--><path d="M277.8125,181.1875 C275.2925,221.1475 271.1597,286.6818 268.5107,328.6877 " fill="none" id="Statistikdata \n (Uden CPR) \n (Med Persistent ID)-&gt;Statistik datadump \n (Uden CPR) \n (Med Persistent ID)" style="stroke: #A80036; stroke-width: 1.0;"/><polygon fill="#A80036" points="268.1952,333.6905,272.754,324.9602,268.5101,328.7004,264.7699,324.4565,268.1952,333.6905" style="stroke: #A80036; stroke-width: 1.0;"/><text fill="#000000" font-family="sans-serif" font-size="13" lengthAdjust="spacingAndGlyphs" textLength="50" x="276" y="226.0669">TRIN A.2</text><!--MD5=[002902b0951aecbf662f0e7322b3c605]
link Statistik datadump \n (Uden CPR) \n (Med Persistent ID) to Statistik rapporter (Uden CPR, med Persistent ID) \n Aggregerede data (Uden CPR)--><path d="M253.1833,403.235 C240.405,437.8662 220.9526,490.5851 208.6142,524.0238 " fill="none" id="Statistik datadump \n (Uden CPR) \n (Med Persistent ID)-&gt;Statistik rapporter (Uden CPR, med Persistent ID) \n Aggregerede data (Uden CPR)" style="stroke: #A80036; stroke-width: 1.0;"/><polygon fill="#A80036" points="206.8471,528.813,213.7155,521.7543,208.5781,524.1222,206.2102,518.9848,206.8471,528.813" style="stroke: #A80036; stroke-width: 1.0;"/><text fill="#000000" font-family="sans-serif" font-size="13" lengthAdjust="spacingAndGlyphs" textLength="50" x="240" y="448.0669">TRIN A.3</text><!--MD5=[eb5bbafc991ab07c12b0fa9cfc1c031e]
link Udlånsdata to Udlånsdata datadump \n (Med CPR)--><path d="M484.5728,164.6672 C485.7613,202.3583 488.508,289.4696 489.997,336.6895 " fill="none" id="Udlånsdata-&gt;Udlånsdata datadump \n (Med CPR)" style="stroke: #A80036; stroke-width: 1.0;"/><polygon fill="#A80036" points="490.1633,341.9662,493.8774,332.8445,490.0056,336.9687,485.8814,333.0968,490.1633,341.9662" style="stroke: #A80036; stroke-width: 1.0;"/><text fill="#000000" font-family="sans-serif" font-size="13" lengthAdjust="spacingAndGlyphs" textLength="50" x="487" y="226.0669">TRIN B.1</text><!--MD5=[402469034e15221eaa7f5a8783271d0a]
link Udlånsdata datadump \n (Med CPR) to Udlånsdata \n (Aggregerede uden CPR)--><path d="M497.4474,395.2925 C505.6009,429.1749 519.6227,487.4432 528.3211,523.5901 " fill="none" id="Udlånsdata datadump \n (Med CPR)-&gt;Udlånsdata \n (Aggregerede uden CPR)" style="stroke: #A80036; stroke-width: 1.0;"/><polygon fill="#A80036" points="529.5646,528.7572,531.3479,519.0711,528.3948,523.896,523.5699,520.9429,529.5646,528.7572" style="stroke: #A80036; stroke-width: 1.0;"/><text fill="#000000" font-family="sans-serif" font-size="13" lengthAdjust="spacingAndGlyphs" textLength="50" x="511" y="448.0669">TRIN B.2</text><!--MD5=[f308b1410fe133685e58e08c285554c9]
reverse link Statistik rapporter (Uden CPR, med Persistent ID) \n Aggregerede data (Uden CPR) to Udlånsdata \n (Aggregerede uden CPR)--><path d="M368.7603,555.5 C396.8206,555.5 424.7983,555.5 449.6166,555.5 " fill="none" id="Statistik rapporter (Uden CPR, med Persistent ID) \n Aggregerede data (Uden CPR)&lt;-Udlånsdata \n (Aggregerede uden CPR)" style="stroke: #A80036; stroke-width: 1.0;"/><polygon fill="#A80036" points="363.5206,555.5,372.5206,559.5,368.5206,555.5,372.5206,551.5,363.5206,555.5" style="stroke: #A80036; stroke-width: 1.0;"/><text fill="#000000" font-family="sans-serif" font-size="13" lengthAdjust="spacingAndGlyphs" textLength="50" x="381.75" y="548.5669">TRIN B.3</text><!--MD5=[a5d1faf561225c68ceb1c6c0a12450ae]
@startuml

package "Systematic" {
    package "FBS" {
      database "FBS Låner"{
        [Udlånsdata]
      }
      database "FBS Statistik"{
        [Statistikdata \n (Uden CPR) \n (Med Persistent ID)]
      }
    }
}

package "Kombit" {
    package "Service platformen" {
        database "Dueslag til FAKTOR " {
            [Statistik datadump \n (Uden CPR) \n (Med Persistent ID)]
        }
        database "Dueslag til Danmarks Statistik" {
            [Udlånsdata datadump \n (Med CPR)]
        }
    }
}

package "Danmarks Statistik" {
  database "DST" {
        [Udlånsdata \n (Aggregerede uden CPR)]
  }
}

package "Danskernes Digitale Bibliotek" {
  database "Faktor" {
        [Statistik rapporter (Uden CPR, med Persistent ID) \n Aggregerede data (Uden CPR)]
  }
}
 
[Udlånsdata] -left-> [Statistikdata \n (Uden CPR) \n (Med Persistent ID)]: TRIN A.1
[Statistikdata \n (Uden CPR) \n (Med Persistent ID)] -down-> [Statistik datadump \n (Uden CPR) \n (Med Persistent ID)]: TRIN A.2
[Statistik datadump \n (Uden CPR) \n (Med Persistent ID)]-down-> [Statistik rapporter (Uden CPR, med Persistent ID) \n Aggregerede data (Uden CPR)]: TRIN A.3


[Udlånsdata] -down-> [Udlånsdata datadump \n (Med CPR)]: TRIN B.1
[Udlånsdata datadump \n (Med CPR)] -down-> [Udlånsdata \n (Aggregerede uden CPR)]: TRIN B.2
[Udlånsdata \n (Aggregerede uden CPR)] -left-> [Statistik rapporter (Uden CPR, med Persistent ID) \n Aggregerede data (Uden CPR)]: TRIN B.3

@enduml

PlantUML version 1.2019.13(Tue Dec 10 17:18:29 GMT 2019)
(GPL source distribution)
Java Runtime: Java(TM) SE Runtime Environment
JVM: Java HotSpot(TM) 64-Bit Server VM
Java Version: 1.8.0_202-b08
Operating System: Linux
Default Encoding: ANSI_X3.4-1968
Language: en
Country: US
--></g></svg>