<?xml version="1.0" encoding="UTF-8" standalone="no"?><svg xmlns="http://www.w3.org/2000/svg" xmlns:xlink="http://www.w3.org/1999/xlink" contentScriptType="application/ecmascript" contentStyleType="text/css" height="541px" preserveAspectRatio="none" style="width:894px;height:541px;" version="1.1" viewBox="0 0 894 541" width="894px" zoomAndPan="magnify"><defs><filter height="300%" id="f11ztjneusvj0g" width="300%" x="-1" y="-1"><feGaussianBlur result="blurOut" stdDeviation="2.0"/><feColorMatrix in="blurOut" result="blurOut2" type="matrix" values="0 0 0 0 0 0 0 0 0 0 0 0 0 0 0 0 0 0 .4 0"/><feOffset dx="4.0" dy="4.0" in="blurOut2" result="blurOut3"/><feBlend in="SourceGraphic" in2="blurOut3" mode="normal"/></filter></defs><g><text fill="#000000" font-family="sans-serif" font-size="18" lengthAdjust="spacingAndGlyphs" textLength="230" x="331" y="26.708">Vis poster afhængig af type</text><ellipse cx="505.25" cy="40.9531" fill="#000000" filter="url(#f11ztjneusvj0g)" rx="10" ry="10" style="stroke: none; stroke-width: 1.0;"/><rect fill="#F8F8F8" filter="url(#f11ztjneusvj0g)" height="33.9688" rx="12.5" ry="12.5" style="stroke: #383838; stroke-width: 1.5;" width="145" x="432.75" y="70.9531"/><text fill="#000000" font-family="sans-serif" font-size="12" lengthAdjust="spacingAndGlyphs" textLength="122" x="442.75" y="92.0918">Opensearch /work PID</text><polygon fill="#F8F8F8" filter="url(#f11ztjneusvj0g)" points="466.75,124.9219,543.75,124.9219,555.75,137.7266,543.75,150.5313,466.75,150.5313,454.75,137.7266,466.75,124.9219" style="stroke: #383838; stroke-width: 1.5;"/><text fill="#000000" font-family="sans-serif" font-size="11" lengthAdjust="spacingAndGlyphs" textLength="52" x="466.75" y="135.1323">Identifier =</text><text fill="#000000" font-family="sans-serif" font-size="11" lengthAdjust="spacingAndGlyphs" textLength="74" x="469.75" y="147.937">870970-*:faust</text><text fill="#000000" font-family="sans-serif" font-size="11" lengthAdjust="spacingAndGlyphs" textLength="10" x="441.75" y="135.1323">JA</text><text fill="#000000" font-family="sans-serif" font-size="11" lengthAdjust="spacingAndGlyphs" textLength="17" x="558.75" y="135.1323">NEJ</text><polygon fill="#F8F8F8" filter="url(#f11ztjneusvj0g)" points="32,185.5313,179,185.5313,191,197.5313,179,209.5313,32,209.5313,20,197.5313,32,185.5313" style="stroke: #383838; stroke-width: 1.5;"/><text fill="#000000" font-family="sans-serif" font-size="11" lengthAdjust="spacingAndGlyphs" textLength="10" x="112.5" y="219.7417">JA</text><text fill="#000000" font-family="sans-serif" font-size="11" lengthAdjust="spacingAndGlyphs" textLength="147" x="32" y="201.3394">Identifier = 870970-basis:faust</text><rect fill="#F8F8F8" filter="url(#f11ztjneusvj0g)" height="33.9688" rx="12.5" ry="12.5" style="stroke: #383838; stroke-width: 1.5;" width="76" x="67.5" y="242.3359"/><text fill="#000000" font-family="sans-serif" font-size="12" lengthAdjust="spacingAndGlyphs" textLength="53" x="77.5" y="263.4746">Basispost</text><polygon fill="#F8F8F8" filter="url(#f11ztjneusvj0g)" points="223,185.5313,381,185.5313,393,197.5313,381,209.5313,223,209.5313,211,197.5313,223,185.5313" style="stroke: #383838; stroke-width: 1.5;"/><text fill="#000000" font-family="sans-serif" font-size="11" lengthAdjust="spacingAndGlyphs" textLength="10" x="309" y="219.7417">JA</text><text fill="#000000" font-family="sans-serif" font-size="11" lengthAdjust="spacingAndGlyphs" textLength="158" x="223" y="201.3394">Identifier = 870960-katalog:faust</text><text fill="#000000" font-family="sans-serif" font-size="11" lengthAdjust="spacingAndGlyphs" textLength="17" x="396" y="194.937">NEJ</text><rect fill="#F8F8F8" filter="url(#f11ztjneusvj0g)" height="33.9688" rx="12.5" ry="12.5" style="stroke: #383838; stroke-width: 1.5;" width="98" x="253" y="242.3359"/><text fill="#000000" font-family="sans-serif" font-size="12" lengthAdjust="spacingAndGlyphs" textLength="75" x="263" y="263.4746">Påhængspost</text><rect fill="#F8F8F8" filter="url(#f11ztjneusvj0g)" height="33.9688" rx="12.5" ry="12.5" style="stroke: #383838; stroke-width: 1.5;" width="122" x="413" y="224.7324"/><text fill="#000000" font-family="sans-serif" font-size="12" lengthAdjust="spacingAndGlyphs" textLength="99" x="423" y="245.8711">Posten findes ikke</text><rect fill="#F8F8F8" filter="url(#f11ztjneusvj0g)" height="33.9688" rx="12.5" ry="12.5" style="stroke: #383838; stroke-width: 1.5;" width="64" x="442" y="293.7012"/><text fill="#000000" font-family="sans-serif" font-size="12" lengthAdjust="spacingAndGlyphs" textLength="41" x="452" y="314.8398">Vis ikke</text><ellipse cx="474" cy="373.6699" fill="#FFFFFF" filter="url(#f11ztjneusvj0g)" rx="11" ry="11" style="stroke: #000000; stroke-width: 1.0;"/><ellipse cx="474" cy="373.6699" fill="#000000" rx="6" ry="6" style="stroke: #7F7F7F; stroke-width: 1.0;"/><polygon fill="#F8F8F8" filter="url(#f11ztjneusvj0g)" points="666,160.5313,800,160.5313,812,172.5313,800,184.5313,666,184.5313,654,172.5313,666,160.5313" style="stroke: #383838; stroke-width: 1.5;"/><text fill="#000000" font-family="sans-serif" font-size="11" lengthAdjust="spacingAndGlyphs" textLength="134" x="666" y="176.3394">Identifier = 7*-katalog:faust</text><text fill="#000000" font-family="sans-serif" font-size="11" lengthAdjust="spacingAndGlyphs" textLength="10" x="641" y="169.937">JA</text><text fill="#000000" font-family="sans-serif" font-size="11" lengthAdjust="spacingAndGlyphs" textLength="17" x="815" y="169.937">NEJ</text><rect fill="#F8F8F8" filter="url(#f11ztjneusvj0g)" height="33.9688" rx="12.5" ry="12.5" style="stroke: #383838; stroke-width: 1.5;" width="119" x="584.5" y="194.5313"/><text fill="#000000" font-family="sans-serif" font-size="12" lengthAdjust="spacingAndGlyphs" textLength="96" x="594.5" y="215.6699">Lokal katalogpost</text><rect fill="#F8F8F8" filter="url(#f11ztjneusvj0g)" height="47.9375" rx="12.5" ry="12.5" style="stroke: #383838; stroke-width: 1.5;" width="158" x="565" y="263.5"/><text fill="#000000" font-family="sans-serif" font-size="12" lengthAdjust="spacingAndGlyphs" textLength="134" x="575" y="284.6387">Ny forespørgsel med PID</text><text fill="#000000" font-family="sans-serif" font-size="12" lengthAdjust="spacingAndGlyphs" textLength="132" x="578" y="298.6074">i primaryObjectIdentifier</text><rect fill="#F8F8F8" filter="url(#f11ztjneusvj0g)" height="33.9688" rx="12.5" ry="12.5" style="stroke: #383838; stroke-width: 1.5;" width="122" x="761" y="194.5313"/><text fill="#000000" font-family="sans-serif" font-size="12" lengthAdjust="spacingAndGlyphs" textLength="99" x="771" y="215.6699">Posten findes ikke</text><rect fill="#F8F8F8" filter="url(#f11ztjneusvj0g)" height="33.9688" rx="12.5" ry="12.5" style="stroke: #383838; stroke-width: 1.5;" width="64" x="790" y="263.5"/><text fill="#000000" font-family="sans-serif" font-size="12" lengthAdjust="spacingAndGlyphs" textLength="41" x="800" y="284.6387">Vis ikke</text><ellipse cx="822" cy="343.4688" fill="#FFFFFF" filter="url(#f11ztjneusvj0g)" rx="11" ry="11" style="stroke: #000000; stroke-width: 1.0;"/><ellipse cx="822" cy="343.4688" fill="#000000" rx="6" ry="6" style="stroke: #7F7F7F; stroke-width: 1.0;"/><polygon fill="#F8F8F8" filter="url(#f11ztjneusvj0g)" points="505.25,410.6699,517.25,422.6699,505.25,434.6699,493.25,422.6699,505.25,410.6699" style="stroke: #383838; stroke-width: 1.5;"/><rect fill="#F8F8F8" filter="url(#f11ztjneusvj0g)" height="33.9688" rx="12.5" ry="12.5" style="stroke: #383838; stroke-width: 1.5;" width="80" x="465.25" y="454.6699"/><text fill="#000000" font-family="sans-serif" font-size="12" lengthAdjust="spacingAndGlyphs" textLength="57" x="475.25" y="475.8086">Vis posten</text><ellipse cx="505.25" cy="519.6387" fill="#FFFFFF" filter="url(#f11ztjneusvj0g)" rx="11" ry="11" style="stroke: #000000; stroke-width: 1.0;"/><ellipse cx="505.25" cy="519.6387" fill="#000000" rx="6" ry="6" style="stroke: #7F7F7F; stroke-width: 1.0;"/><line style="stroke: #383838; stroke-width: 1.5;" x1="505.25" x2="505.25" y1="50.9531" y2="70.9531"/><polygon fill="#383838" points="501.25,60.9531,505.25,70.9531,509.25,60.9531,505.25,64.9531" style="stroke: #383838; stroke-width: 1.0;"/><line style="stroke: #383838; stroke-width: 1.5;" x1="474" x2="474" y1="258.7012" y2="293.7012"/><polygon fill="#383838" points="470,283.7012,474,293.7012,478,283.7012,474,287.7012" style="stroke: #383838; stroke-width: 1.0;"/><line style="stroke: #383838; stroke-width: 1.5;" x1="474" x2="474" y1="327.6699" y2="362.6699"/><polygon fill="#383838" points="470,352.6699,474,362.6699,478,352.6699,474,356.6699" style="stroke: #383838; stroke-width: 1.0;"/><line style="stroke: #383838; stroke-width: 1.5;" x1="105.5" x2="105.5" y1="209.5313" y2="242.3359"/><polygon fill="#383838" points="101.5,232.3359,105.5,242.3359,109.5,232.3359,105.5,236.3359" style="stroke: #383838; stroke-width: 1.0;"/><line style="stroke: #383838; stroke-width: 1.5;" x1="105.5" x2="105.5" y1="276.3047" y2="404.6699"/><polygon fill="#383838" points="101.5,394.6699,105.5,404.6699,109.5,394.6699,105.5,398.6699" style="stroke: #383838; stroke-width: 1.0;"/><line style="stroke: #383838; stroke-width: 1.5;" x1="302" x2="302" y1="209.5313" y2="242.3359"/><polygon fill="#383838" points="298,232.3359,302,242.3359,306,232.3359,302,236.3359" style="stroke: #383838; stroke-width: 1.0;"/><line style="stroke: #383838; stroke-width: 1.5;" x1="302" x2="302" y1="276.3047" y2="404.6699"/><polygon fill="#383838" points="298,394.6699,302,404.6699,306,394.6699,302,398.6699" style="stroke: #383838; stroke-width: 1.0;"/><line style="stroke: #383838; stroke-width: 1.5;" x1="191" x2="211" y1="197.5313" y2="197.5313"/><polygon fill="#383838" points="201,193.5313,211,197.5313,201,201.5313,205,197.5313" style="stroke: #383838; stroke-width: 1.0;"/><line style="stroke: #383838; stroke-width: 1.5;" x1="454.75" x2="105.5" y1="137.7266" y2="137.7266"/><line style="stroke: #383838; stroke-width: 1.5;" x1="105.5" x2="105.5" y1="137.7266" y2="185.5313"/><polygon fill="#383838" points="101.5,175.5313,105.5,185.5313,109.5,175.5313,105.5,179.5313" style="stroke: #383838; stroke-width: 1.0;"/><line style="stroke: #383838; stroke-width: 1.5;" x1="393" x2="474" y1="197.5313" y2="197.5313"/><line style="stroke: #383838; stroke-width: 1.5;" x1="474" x2="474" y1="197.5313" y2="224.7324"/><polygon fill="#383838" points="470,214.7324,474,224.7324,478,214.7324,474,218.7324" style="stroke: #383838; stroke-width: 1.0;"/><line style="stroke: #383838; stroke-width: 1.5;" x1="105.5" x2="302" y1="404.6699" y2="404.6699"/><line style="stroke: #383838; stroke-width: 1.5;" x1="644" x2="644" y1="228.5" y2="263.5"/><polygon fill="#383838" points="640,253.5,644,263.5,648,253.5,644,257.5" style="stroke: #383838; stroke-width: 1.0;"/><line style="stroke: #383838; stroke-width: 1.5;" x1="822" x2="822" y1="228.5" y2="263.5"/><polygon fill="#383838" points="818,253.5,822,263.5,826,253.5,822,257.5" style="stroke: #383838; stroke-width: 1.0;"/><line style="stroke: #383838; stroke-width: 1.5;" x1="822" x2="822" y1="297.4688" y2="332.4688"/><polygon fill="#383838" points="818,322.4688,822,332.4688,826,322.4688,822,326.4688" style="stroke: #383838; stroke-width: 1.0;"/><line style="stroke: #383838; stroke-width: 1.5;" x1="654" x2="644" y1="172.5313" y2="172.5313"/><line style="stroke: #383838; stroke-width: 1.5;" x1="644" x2="644" y1="172.5313" y2="194.5313"/><polygon fill="#383838" points="640,184.5313,644,194.5313,648,184.5313,644,188.5313" style="stroke: #383838; stroke-width: 1.0;"/><line style="stroke: #383838; stroke-width: 1.5;" x1="812" x2="822" y1="172.5313" y2="172.5313"/><line style="stroke: #383838; stroke-width: 1.5;" x1="822" x2="822" y1="172.5313" y2="194.5313"/><polygon fill="#383838" points="818,184.5313,822,194.5313,826,184.5313,822,188.5313" style="stroke: #383838; stroke-width: 1.0;"/><line style="stroke: #383838; stroke-width: 1.5;" x1="644" x2="644" y1="311.4375" y2="422.6699"/><line style="stroke: #383838; stroke-width: 1.5;" x1="644" x2="517.25" y1="422.6699" y2="422.6699"/><polygon fill="#383838" points="527.25,418.6699,517.25,422.6699,527.25,426.6699,523.25,422.6699" style="stroke: #383838; stroke-width: 1.0;"/><line style="stroke: #383838; stroke-width: 1.5;" x1="555.75" x2="733" y1="137.7266" y2="137.7266"/><line style="stroke: #383838; stroke-width: 1.5;" x1="733" x2="733" y1="137.7266" y2="160.5313"/><polygon fill="#383838" points="729,150.5313,733,160.5313,737,150.5313,733,154.5313" style="stroke: #383838; stroke-width: 1.0;"/><line style="stroke: #383838; stroke-width: 1.5;" x1="277.5" x2="277.5" y1="404.6699" y2="422.6699"/><line style="stroke: #383838; stroke-width: 1.5;" x1="277.5" x2="493.25" y1="422.6699" y2="422.6699"/><polygon fill="#383838" points="483.25,418.6699,493.25,422.6699,483.25,426.6699,487.25,422.6699" style="stroke: #383838; stroke-width: 1.0;"/><line style="stroke: #383838; stroke-width: 1.5;" x1="505.25" x2="505.25" y1="104.9219" y2="124.9219"/><polygon fill="#383838" points="501.25,114.9219,505.25,124.9219,509.25,114.9219,505.25,118.9219" style="stroke: #383838; stroke-width: 1.0;"/><line style="stroke: #383838; stroke-width: 1.5;" x1="505.25" x2="505.25" y1="434.6699" y2="454.6699"/><polygon fill="#383838" points="501.25,444.6699,505.25,454.6699,509.25,444.6699,505.25,448.6699" style="stroke: #383838; stroke-width: 1.0;"/><line style="stroke: #383838; stroke-width: 1.5;" x1="505.25" x2="505.25" y1="488.6387" y2="508.6387"/><polygon fill="#383838" points="501.25,498.6387,505.25,508.6387,509.25,498.6387,505.25,502.6387" style="stroke: #383838; stroke-width: 1.0;"/><!--MD5=[0f7bce65484d40744a29b366f7beab25]
@startuml
title Vis poster afhængig af type

skinparam monochrome true

start

:Opensearch /work PID ;

if (Identifier = \n 870970-*:faust) then ( JA )
    
    if (Identifier = 870970-basis:faust) then ( JA )
        :Basispost ;
    elseif (Identifier = 870960-katalog:faust) then ( JA )
        :Påhængspost ;
    else ( NEJ )
        :Posten findes ikke ;
        :Vis ikke ;
        stop
    endif

else ( NEJ )

    if (Identifier = 7*-katalog:faust) then ( JA )
        :Lokal katalogpost ;
        :Ny forespørgsel med PID \n i primaryObjectIdentifier ;
    else ( NEJ )
        :Posten findes ikke ;
        :Vis ikke ;
        stop
    endif
      
endif

:Vis posten ;
stop

@enduml

PlantUML version 1.2019.13(Tue Dec 10 17:18:29 GMT 2019)
(GPL source distribution)
Java Runtime: Java(TM) SE Runtime Environment
JVM: Java HotSpot(TM) 64-Bit Server VM
Java Version: 1.8.0_202-b08
Operating System: Linux
Default Encoding: ANSI_X3.4-1968
Language: en
Country: US
--></g></svg>