<?xml version="1.0" encoding="UTF-8" standalone="no"?><svg xmlns="http://www.w3.org/2000/svg" xmlns:xlink="http://www.w3.org/1999/xlink" contentScriptType="application/ecmascript" contentStyleType="text/css" height="777px" preserveAspectRatio="none" style="width:1280px;height:777px;" version="1.1" viewBox="0 0 1280 777" width="1280px" zoomAndPan="magnify"><defs><filter height="300%" id="f16r869njjxsxh" width="300%" x="-1" y="-1"><feGaussianBlur result="blurOut" stdDeviation="2.0"/><feColorMatrix in="blurOut" result="blurOut2" type="matrix" values="0 0 0 0 0 0 0 0 0 0 0 0 0 0 0 0 0 0 .4 0"/><feOffset dx="4.0" dy="4.0" in="blurOut2" result="blurOut3"/><feBlend in="SourceGraphic" in2="blurOut3" mode="normal"/></filter></defs><g><text fill="#000000" font-family="sans-serif" font-size="14" font-weight="bold" lengthAdjust="spacingAndGlyphs" textLength="279" x="501.25" y="22.9951">"Get cover request - Sequence Diagram"</text><rect fill="#FFFFFF" filter="url(#f16r869njjxsxh)" height="382.6641" style="stroke: #000000; stroke-width: 2.0;" width="1255.5" x="13" y="304.7891"/><rect fill="#FFFFFF" height="160.4688" style="stroke: none; stroke-width: 1.0;" width="1255.5" x="13" y="526.9844"/><line style="stroke: #A80036; stroke-width: 1.0; stroke-dasharray: 5.0,5.0;" x1="56" x2="56" y1="95.5938" y2="704.4531"/><line style="stroke: #A80036; stroke-width: 1.0; stroke-dasharray: 5.0,5.0;" x1="183.5" x2="183.5" y1="95.5938" y2="704.4531"/><line style="stroke: #A80036; stroke-width: 1.0; stroke-dasharray: 5.0,5.0;" x1="327.5" x2="327.5" y1="95.5938" y2="704.4531"/><line style="stroke: #A80036; stroke-width: 1.0; stroke-dasharray: 5.0,5.0;" x1="432.5" x2="432.5" y1="95.5938" y2="704.4531"/><line style="stroke: #A80036; stroke-width: 1.0; stroke-dasharray: 5.0,5.0;" x1="612" x2="612" y1="95.5938" y2="704.4531"/><line style="stroke: #A80036; stroke-width: 1.0; stroke-dasharray: 5.0,5.0;" x1="701" x2="701" y1="95.5938" y2="704.4531"/><line style="stroke: #A80036; stroke-width: 1.0; stroke-dasharray: 5.0,5.0;" x1="900.5" x2="900.5" y1="95.5938" y2="704.4531"/><line style="stroke: #A80036; stroke-width: 1.0; stroke-dasharray: 5.0,5.0;" x1="1053.5" x2="1053.5" y1="95.5938" y2="704.4531"/><line style="stroke: #A80036; stroke-width: 1.0; stroke-dasharray: 5.0,5.0;" x1="1206.5" x2="1206.5" y1="95.5938" y2="704.4531"/><text fill="#000000" font-family="sans-serif" font-size="14" lengthAdjust="spacingAndGlyphs" textLength="60" x="23" y="92.292">DDB CMS</text><path d="M35.5,51.2969 L35.5,75.2969 M35.5,63.2969 L52.5,63.2969 " fill="none" filter="url(#f16r869njjxsxh)" style="stroke: #A80036; stroke-width: 2.0;"/><ellipse cx="64.5" cy="63.2969" fill="#FEFECE" filter="url(#f16r869njjxsxh)" rx="12" ry="12" style="stroke: #A80036; stroke-width: 2.0;"/><text fill="#000000" font-family="sans-serif" font-size="14" lengthAdjust="spacingAndGlyphs" textLength="60" x="23" y="716.4482">DDB CMS</text><path d="M35.5,723.75 L35.5,747.75 M35.5,735.75 L52.5,735.75 " fill="none" filter="url(#f16r869njjxsxh)" style="stroke: #A80036; stroke-width: 2.0;"/><ellipse cx="64.5" cy="735.75" fill="#FEFECE" filter="url(#f16r869njjxsxh)" rx="12" ry="12" style="stroke: #A80036; stroke-width: 2.0;"/><text fill="#000000" font-family="sans-serif" font-size="14" lengthAdjust="spacingAndGlyphs" textLength="137" x="112.5" y="92.292">Open Platform /cover</text><path d="M163.5,51.2969 L163.5,75.2969 M163.5,63.2969 L180.5,63.2969 " fill="none" filter="url(#f16r869njjxsxh)" style="stroke: #A80036; stroke-width: 2.0;"/><ellipse cx="192.5" cy="63.2969" fill="#FEFECE" filter="url(#f16r869njjxsxh)" rx="12" ry="12" style="stroke: #A80036; stroke-width: 2.0;"/><text fill="#000000" font-family="sans-serif" font-size="14" lengthAdjust="spacingAndGlyphs" textLength="137" x="112.5" y="716.4482">Open Platform /cover</text><path d="M163.5,723.75 L163.5,747.75 M163.5,735.75 L180.5,735.75 " fill="none" filter="url(#f16r869njjxsxh)" style="stroke: #A80036; stroke-width: 2.0;"/><ellipse cx="192.5" cy="735.75" fill="#FEFECE" filter="url(#f16r869njjxsxh)" rx="12" ry="12" style="stroke: #A80036; stroke-width: 2.0;"/><text fill="#000000" font-family="sans-serif" font-size="14" lengthAdjust="spacingAndGlyphs" textLength="119" x="265.5" y="92.292">DDB Cover service</text><path d="M307.5,51.2969 L307.5,75.2969 M307.5,63.2969 L324.5,63.2969 " fill="none" filter="url(#f16r869njjxsxh)" style="stroke: #A80036; stroke-width: 2.0;"/><ellipse cx="336.5" cy="63.2969" fill="#FEFECE" filter="url(#f16r869njjxsxh)" rx="12" ry="12" style="stroke: #A80036; stroke-width: 2.0;"/><text fill="#000000" font-family="sans-serif" font-size="14" lengthAdjust="spacingAndGlyphs" textLength="119" x="265.5" y="716.4482">DDB Cover service</text><path d="M307.5,723.75 L307.5,747.75 M307.5,735.75 L324.5,735.75 " fill="none" filter="url(#f16r869njjxsxh)" style="stroke: #A80036; stroke-width: 2.0;"/><ellipse cx="336.5" cy="735.75" fill="#FEFECE" filter="url(#f16r869njjxsxh)" rx="12" ry="12" style="stroke: #A80036; stroke-width: 2.0;"/><text fill="#000000" font-family="sans-serif" font-size="14" lengthAdjust="spacingAndGlyphs" textLength="58" x="400.5" y="92.292">statistics</text><path d="M412,51.2969 L412,75.2969 M412,63.2969 L429,63.2969 " fill="none" filter="url(#f16r869njjxsxh)" style="stroke: #A80036; stroke-width: 2.0;"/><ellipse cx="441" cy="63.2969" fill="#FEFECE" filter="url(#f16r869njjxsxh)" rx="12" ry="12" style="stroke: #A80036; stroke-width: 2.0;"/><text fill="#000000" font-family="sans-serif" font-size="14" lengthAdjust="spacingAndGlyphs" textLength="58" x="400.5" y="716.4482">statistics</text><path d="M412,723.75 L412,747.75 M412,735.75 L429,735.75 " fill="none" filter="url(#f16r869njjxsxh)" style="stroke: #A80036; stroke-width: 2.0;"/><ellipse cx="441" cy="735.75" fill="#FEFECE" filter="url(#f16r869njjxsxh)" rx="12" ry="12" style="stroke: #A80036; stroke-width: 2.0;"/><text fill="#000000" font-family="sans-serif" font-size="14" lengthAdjust="spacingAndGlyphs" textLength="57" x="581" y="92.292">Faktor BI</text><path d="M592,51.2969 L592,75.2969 M592,63.2969 L609,63.2969 " fill="none" filter="url(#f16r869njjxsxh)" style="stroke: #A80036; stroke-width: 2.0;"/><ellipse cx="621" cy="63.2969" fill="#FEFECE" filter="url(#f16r869njjxsxh)" rx="12" ry="12" style="stroke: #A80036; stroke-width: 2.0;"/><text fill="#000000" font-family="sans-serif" font-size="14" lengthAdjust="spacingAndGlyphs" textLength="57" x="581" y="716.4482">Faktor BI</text><path d="M592,723.75 L592,747.75 M592,735.75 L609,735.75 " fill="none" filter="url(#f16r869njjxsxh)" style="stroke: #A80036; stroke-width: 2.0;"/><ellipse cx="621" cy="735.75" fill="#FEFECE" filter="url(#f16r869njjxsxh)" rx="12" ry="12" style="stroke: #A80036; stroke-width: 2.0;"/><text fill="#000000" font-family="sans-serif" font-size="14" lengthAdjust="spacingAndGlyphs" textLength="89" x="654" y="92.292">Search engine</text><path d="M681,51.2969 L681,75.2969 M681,63.2969 L698,63.2969 " fill="none" filter="url(#f16r869njjxsxh)" style="stroke: #A80036; stroke-width: 2.0;"/><ellipse cx="710" cy="63.2969" fill="#FEFECE" filter="url(#f16r869njjxsxh)" rx="12" ry="12" style="stroke: #A80036; stroke-width: 2.0;"/><text fill="#000000" font-family="sans-serif" font-size="14" lengthAdjust="spacingAndGlyphs" textLength="89" x="654" y="716.4482">Search engine</text><path d="M681,723.75 L681,747.75 M681,735.75 L698,735.75 " fill="none" filter="url(#f16r869njjxsxh)" style="stroke: #A80036; stroke-width: 2.0;"/><ellipse cx="710" cy="735.75" fill="#FEFECE" filter="url(#f16r869njjxsxh)" rx="12" ry="12" style="stroke: #A80036; stroke-width: 2.0;"/><text fill="#000000" font-family="sans-serif" font-size="14" lengthAdjust="spacingAndGlyphs" textLength="100" x="847.5" y="92.292">Reference table</text><path d="M882.5,43.2969 C882.5,33.2969 900.5,33.2969 900.5,33.2969 C900.5,33.2969 918.5,33.2969 918.5,43.2969 L918.5,69.2969 C918.5,79.2969 900.5,79.2969 900.5,79.2969 C900.5,79.2969 882.5,79.2969 882.5,69.2969 L882.5,43.2969 " fill="#FEFECE" filter="url(#f16r869njjxsxh)" style="stroke: #000000; stroke-width: 1.5;"/><path d="M882.5,43.2969 C882.5,53.2969 900.5,53.2969 900.5,53.2969 C900.5,53.2969 918.5,53.2969 918.5,43.2969 " fill="none" style="stroke: #000000; stroke-width: 1.5;"/><text fill="#000000" font-family="sans-serif" font-size="14" lengthAdjust="spacingAndGlyphs" textLength="100" x="847.5" y="716.4482">Reference table</text><path d="M882.5,729.75 C882.5,719.75 900.5,719.75 900.5,719.75 C900.5,719.75 918.5,719.75 918.5,729.75 L918.5,755.75 C918.5,765.75 900.5,765.75 900.5,765.75 C900.5,765.75 882.5,765.75 882.5,755.75 L882.5,729.75 " fill="#FEFECE" filter="url(#f16r869njjxsxh)" style="stroke: #000000; stroke-width: 1.5;"/><path d="M882.5,729.75 C882.5,739.75 900.5,739.75 900.5,739.75 C900.5,739.75 918.5,739.75 918.5,729.75 " fill="none" style="stroke: #000000; stroke-width: 1.5;"/><text fill="#000000" font-family="sans-serif" font-size="14" lengthAdjust="spacingAndGlyphs" textLength="175" x="963.5" y="92.292">Cloudinary cover repository</text><path d="M1036,43.2969 C1036,33.2969 1054,33.2969 1054,33.2969 C1054,33.2969 1072,33.2969 1072,43.2969 L1072,69.2969 C1072,79.2969 1054,79.2969 1054,79.2969 C1054,79.2969 1036,79.2969 1036,69.2969 L1036,43.2969 " fill="#FEFECE" filter="url(#f16r869njjxsxh)" style="stroke: #000000; stroke-width: 1.5;"/><path d="M1036,43.2969 C1036,53.2969 1054,53.2969 1054,53.2969 C1054,53.2969 1072,53.2969 1072,43.2969 " fill="none" style="stroke: #000000; stroke-width: 1.5;"/><text fill="#000000" font-family="sans-serif" font-size="14" lengthAdjust="spacingAndGlyphs" textLength="175" x="963.5" y="716.4482">Cloudinary cover repository</text><path d="M1036,729.75 C1036,719.75 1054,719.75 1054,719.75 C1054,719.75 1072,719.75 1072,729.75 L1072,755.75 C1072,765.75 1054,765.75 1054,765.75 C1054,765.75 1036,765.75 1036,755.75 L1036,729.75 " fill="#FEFECE" filter="url(#f16r869njjxsxh)" style="stroke: #000000; stroke-width: 1.5;"/><path d="M1036,729.75 C1036,739.75 1054,739.75 1054,739.75 C1054,739.75 1072,739.75 1072,729.75 " fill="none" style="stroke: #000000; stroke-width: 1.5;"/><rect fill="#FEFECE" filter="url(#f16r869njjxsxh)" height="30.2969" style="stroke: #A80036; stroke-width: 1.5;" width="100" x="1154.5" y="60.2969"/><text fill="#000000" font-family="sans-serif" font-size="14" lengthAdjust="spacingAndGlyphs" textLength="86" x="1161.5" y="80.292">openplatform</text><rect fill="#FEFECE" filter="url(#f16r869njjxsxh)" height="30.2969" style="stroke: #A80036; stroke-width: 1.5;" width="100" x="1154.5" y="703.4531"/><text fill="#000000" font-family="sans-serif" font-size="14" lengthAdjust="spacingAndGlyphs" textLength="86" x="1161.5" y="723.4482">openplatform</text><polygon fill="#A80036" points="1194.5,152.9922,1204.5,156.9922,1194.5,160.9922,1198.5,156.9922" style="stroke: #A80036; stroke-width: 1.0;"/><line style="stroke: #A80036; stroke-width: 1.0;" x1="56" x2="1200.5" y1="156.9922" y2="156.9922"/><text fill="#000000" font-family="sans-serif" font-size="13" lengthAdjust="spacingAndGlyphs" textLength="83" x="63" y="121.6606">Request cover</text><text fill="#000000" font-family="sans-serif" font-size="13" lengthAdjust="spacingAndGlyphs" textLength="106" x="66" y="136.7935">(material identifier</text><text fill="#000000" font-family="sans-serif" font-size="13" lengthAdjust="spacingAndGlyphs" textLength="86" x="66" y="151.9263">[Access token].</text><polygon fill="#A80036" points="195,212.3906,185,216.3906,195,220.3906,191,216.3906" style="stroke: #A80036; stroke-width: 1.0;"/><line style="stroke: #A80036; stroke-width: 1.0;" x1="189" x2="1205.5" y1="216.3906" y2="216.3906"/><text fill="#000000" font-family="sans-serif" font-size="13" lengthAdjust="spacingAndGlyphs" textLength="83" x="201" y="181.0591">Request cover</text><text fill="#000000" font-family="sans-serif" font-size="13" lengthAdjust="spacingAndGlyphs" textLength="106" x="204" y="196.1919">(material identifier</text><text fill="#000000" font-family="sans-serif" font-size="13" lengthAdjust="spacingAndGlyphs" textLength="86" x="204" y="211.3247">[Access token].</text><polygon fill="#A80036" points="689.5,256.6563,699.5,260.6563,689.5,264.6563,693.5,260.6563" style="stroke: #A80036; stroke-width: 1.0;"/><line style="stroke: #A80036; stroke-width: 1.0;" x1="184" x2="695.5" y1="260.6563" y2="260.6563"/><text fill="#000000" font-family="sans-serif" font-size="13" lengthAdjust="spacingAndGlyphs" textLength="83" x="191" y="240.4575">Request cover</text><text fill="#000000" font-family="sans-serif" font-size="13" lengthAdjust="spacingAndGlyphs" textLength="109" x="194" y="255.5903">(material identifier.</text><polygon fill="#A80036" points="888.5,285.7891,898.5,289.7891,888.5,293.7891,892.5,289.7891" style="stroke: #A80036; stroke-width: 1.0;"/><line style="stroke: #A80036; stroke-width: 1.0;" x1="701.5" x2="894.5" y1="289.7891" y2="289.7891"/><text fill="#000000" font-family="sans-serif" font-size="13" lengthAdjust="spacingAndGlyphs" textLength="124" x="708.5" y="284.7231">Request reference id.</text><path d="M13,304.7891 L76,304.7891 L76,311.7891 L66,321.7891 L13,321.7891 L13,304.7891 " fill="#EEEEEE" style="stroke: #000000; stroke-width: 1.0;"/><rect fill="none" height="382.6641" style="stroke: #000000; stroke-width: 2.0;" width="1255.5" x="13" y="304.7891"/><text fill="#000000" font-family="sans-serif" font-size="13" font-weight="bold" lengthAdjust="spacingAndGlyphs" textLength="18" x="28" y="317.856">alt</text><text fill="#000000" font-family="sans-serif" font-size="11" font-weight="bold" lengthAdjust="spacingAndGlyphs" textLength="116" x="91" y="316.9995">[REFERENCE ID FALSE]</text><polygon fill="#A80036" points="712.5,339.0547,702.5,343.0547,712.5,347.0547,708.5,343.0547" style="stroke: #A80036; stroke-width: 1.0;"/><line style="stroke: #A80036; stroke-width: 1.0; stroke-dasharray: 2.0,2.0;" x1="706.5" x2="899.5" y1="343.0547" y2="343.0547"/><text fill="#000000" font-family="sans-serif" font-size="13" lengthAdjust="spacingAndGlyphs" textLength="175" x="718.5" y="337.9888">Return reference id unknown.</text><polygon fill="#A80036" points="195,368.1875,185,372.1875,195,376.1875,191,372.1875" style="stroke: #A80036; stroke-width: 1.0;"/><line style="stroke: #A80036; stroke-width: 1.0; stroke-dasharray: 2.0,2.0;" x1="189" x2="700.5" y1="372.1875" y2="372.1875"/><text fill="#000000" font-family="sans-serif" font-size="13" lengthAdjust="spacingAndGlyphs" textLength="175" x="201" y="367.1216">Return reference id unknown.</text><polygon fill="#A80036" points="420.5,412.4531,430.5,416.4531,420.5,420.4531,424.5,416.4531" style="stroke: #A80036; stroke-width: 1.0;"/><line style="stroke: #A80036; stroke-width: 1.0;" x1="184" x2="426.5" y1="416.4531" y2="416.4531"/><text fill="#000000" font-family="sans-serif" font-size="13" lengthAdjust="spacingAndGlyphs" textLength="104" x="191" y="396.2544">Post date, agency,</text><text fill="#000000" font-family="sans-serif" font-size="13" lengthAdjust="spacingAndGlyphs" textLength="153" x="194" y="411.3872">client, material id and URL.</text><polygon fill="#A80036" points="600.5,456.7188,610.5,460.7188,600.5,464.7188,604.5,460.7188" style="stroke: #A80036; stroke-width: 1.0;"/><line style="stroke: #A80036; stroke-width: 1.0;" x1="432.5" x2="606.5" y1="460.7188" y2="460.7188"/><text fill="#000000" font-family="sans-serif" font-size="13" lengthAdjust="spacingAndGlyphs" textLength="104" x="439.5" y="440.52">Post date, agency,</text><text fill="#000000" font-family="sans-serif" font-size="13" lengthAdjust="spacingAndGlyphs" textLength="153" x="442.5" y="455.6528">client, material id and URL.</text><polygon fill="#A80036" points="1194.5,485.8516,1204.5,489.8516,1194.5,493.8516,1198.5,489.8516" style="stroke: #A80036; stroke-width: 1.0;"/><line style="stroke: #A80036; stroke-width: 1.0; stroke-dasharray: 2.0,2.0;" x1="184" x2="1200.5" y1="489.8516" y2="489.8516"/><text fill="#000000" font-family="sans-serif" font-size="13" lengthAdjust="spacingAndGlyphs" textLength="175" x="191" y="484.7856">Return reference id unknown.</text><polygon fill="#A80036" points="67,514.9844,57,518.9844,67,522.9844,63,518.9844" style="stroke: #A80036; stroke-width: 1.0;"/><line style="stroke: #A80036; stroke-width: 1.0; stroke-dasharray: 2.0,2.0;" x1="61" x2="1205.5" y1="518.9844" y2="518.9844"/><text fill="#000000" font-family="sans-serif" font-size="13" lengthAdjust="spacingAndGlyphs" textLength="175" x="73" y="513.9185">Return reference id unknown.</text><line style="stroke: #000000; stroke-width: 1.0; stroke-dasharray: 2.0,2.0;" x1="13" x2="1268.5" y1="527.9844" y2="527.9844"/><text fill="#000000" font-family="sans-serif" font-size="11" font-weight="bold" lengthAdjust="spacingAndGlyphs" textLength="112" x="18" y="538.1948">[REFERENCE ID TRUE]</text><polygon fill="#A80036" points="712.5,558.9219,702.5,562.9219,712.5,566.9219,708.5,562.9219" style="stroke: #A80036; stroke-width: 1.0;"/><line style="stroke: #A80036; stroke-width: 1.0; stroke-dasharray: 2.0,2.0;" x1="706.5" x2="899.5" y1="562.9219" y2="562.9219"/><text fill="#000000" font-family="sans-serif" font-size="13" lengthAdjust="spacingAndGlyphs" textLength="116" x="718.5" y="557.856">Return reference id.</text><polygon fill="#A80036" points="1042,588.0547,1052,592.0547,1042,596.0547,1046,592.0547" style="stroke: #A80036; stroke-width: 1.0;"/><line style="stroke: #A80036; stroke-width: 1.0;" x1="701.5" x2="1048" y1="592.0547" y2="592.0547"/><text fill="#000000" font-family="sans-serif" font-size="13" lengthAdjust="spacingAndGlyphs" textLength="193" x="708.5" y="586.9888">Request cover URL [reference id].</text><polygon fill="#A80036" points="712.5,617.1875,702.5,621.1875,712.5,625.1875,708.5,621.1875" style="stroke: #A80036; stroke-width: 1.0;"/><line style="stroke: #A80036; stroke-width: 1.0; stroke-dasharray: 2.0,2.0;" x1="706.5" x2="1053" y1="621.1875" y2="621.1875"/><text fill="#000000" font-family="sans-serif" font-size="13" lengthAdjust="spacingAndGlyphs" textLength="104" x="718.5" y="616.1216">Return cover URL.</text><polygon fill="#A80036" points="195,646.3203,185,650.3203,195,654.3203,191,650.3203" style="stroke: #A80036; stroke-width: 1.0;"/><line style="stroke: #A80036; stroke-width: 1.0; stroke-dasharray: 2.0,2.0;" x1="189" x2="700.5" y1="650.3203" y2="650.3203"/><text fill="#000000" font-family="sans-serif" font-size="13" lengthAdjust="spacingAndGlyphs" textLength="104" x="201" y="645.2544">Return cover URL.</text><polygon fill="#A80036" points="67,675.4531,57,679.4531,67,683.4531,63,679.4531" style="stroke: #A80036; stroke-width: 1.0;"/><line style="stroke: #A80036; stroke-width: 1.0; stroke-dasharray: 2.0,2.0;" x1="61" x2="183" y1="679.4531" y2="679.4531"/><text fill="#000000" font-family="sans-serif" font-size="13" lengthAdjust="spacingAndGlyphs" textLength="104" x="73" y="674.3872">Return cover URL.</text><!--MD5=[4ca24aa197676ef5a2475b97d58a64de]
@startuml

title "Get cover request - Sequence Diagram"

boundary "DDB CMS" as cms
boundary "Open Platform /cover" as OPcover
boundary "DDB Cover service" as cover
boundary "statistics" as statistics
boundary "Faktor BI" as factor 
boundary "Search engine" as search
database "Reference table" as reference
database "Cloudinary cover repository" as cloudinary

cms->openplatform: Request cover \n (material identifier \n [Access token].
openplatform->OPcover: Request cover \n (material identifier \n [Access token].
OPcover->search: Request cover \n (material identifier.
search->reference: Request reference id.

alt REFERENCE ID FALSE
    reference- ->search: Return reference id unknown.
    search- ->OPcover: Return reference id unknown.
    OPcover->statistics: Post date, agency, \n client, material id and URL.
    statistics->factor: Post date, agency, \n client, material id and URL.
    OPcover- ->openplatform: Return reference id unknown.
    openplatform- ->cms: Return reference id unknown.
else REFERENCE ID TRUE
    reference- ->search: Return reference id.
    search->cloudinary: Request cover URL [reference id].
    cloudinary- ->search: Return cover URL.
    search- ->OPcover: Return cover URL.
    OPcover- ->cms: Return cover URL.
end

@enduml

PlantUML version 1.2019.13(Tue Dec 10 17:18:29 GMT 2019)
(GPL source distribution)
Java Runtime: Java(TM) SE Runtime Environment
JVM: Java HotSpot(TM) 64-Bit Server VM
Java Version: 1.8.0_202-b08
Operating System: Linux
Default Encoding: ANSI_X3.4-1968
Language: en
Country: US
--></g></svg>