<?xml version="1.0" encoding="UTF-8" standalone="no"?><svg xmlns="http://www.w3.org/2000/svg" xmlns:xlink="http://www.w3.org/1999/xlink" contentScriptType="application/ecmascript" contentStyleType="text/css" height="703px" preserveAspectRatio="none" style="width:1736px;height:703px;" version="1.1" viewBox="0 0 1736 703" width="1736px" zoomAndPan="magnify"><defs><filter height="300%" id="f13xk1szbllpk1" width="300%" x="-1" y="-1"><feGaussianBlur result="blurOut" stdDeviation="2.0"/><feColorMatrix in="blurOut" result="blurOut2" type="matrix" values="0 0 0 0 0 0 0 0 0 0 0 0 0 0 0 0 0 0 .4 0"/><feOffset dx="4.0" dy="4.0" in="blurOut2" result="blurOut3"/><feBlend in="SourceGraphic" in2="blurOut3" mode="normal"/></filter></defs><g><text fill="#000000" font-family="sans-serif" font-size="14" font-weight="bold" lengthAdjust="spacingAndGlyphs" textLength="247" x="745.5" y="22.9951">"Import cover - Sequence Diagram"</text><line style="stroke: #A80036; stroke-width: 1.0; stroke-dasharray: 5.0,5.0;" x1="33" x2="33" y1="111.8906" y2="614.2813"/><line style="stroke: #A80036; stroke-width: 1.0; stroke-dasharray: 5.0,5.0;" x1="240.5" x2="240.5" y1="111.8906" y2="614.2813"/><line style="stroke: #A80036; stroke-width: 1.0; stroke-dasharray: 5.0,5.0;" x1="449" x2="449" y1="111.8906" y2="614.2813"/><line style="stroke: #A80036; stroke-width: 1.0; stroke-dasharray: 5.0,5.0;" x1="656.5" x2="656.5" y1="111.8906" y2="614.2813"/><line style="stroke: #A80036; stroke-width: 1.0; stroke-dasharray: 5.0,5.0;" x1="797.5" x2="797.5" y1="111.8906" y2="614.2813"/><line style="stroke: #A80036; stroke-width: 1.0; stroke-dasharray: 5.0,5.0;" x1="1009.5" x2="1009.5" y1="111.8906" y2="614.2813"/><line style="stroke: #A80036; stroke-width: 1.0; stroke-dasharray: 5.0,5.0;" x1="1124.5" x2="1124.5" y1="111.8906" y2="614.2813"/><line style="stroke: #A80036; stroke-width: 1.0; stroke-dasharray: 5.0,5.0;" x1="1267" x2="1267" y1="111.8906" y2="614.2813"/><line style="stroke: #A80036; stroke-width: 1.0; stroke-dasharray: 5.0,5.0;" x1="1397" x2="1397" y1="111.8906" y2="614.2813"/><line style="stroke: #A80036; stroke-width: 1.0; stroke-dasharray: 5.0,5.0;" x1="1528" x2="1528" y1="111.8906" y2="614.2813"/><line style="stroke: #A80036; stroke-width: 1.0; stroke-dasharray: 5.0,5.0;" x1="1673" x2="1673" y1="111.8906" y2="614.2813"/><text fill="#000000" font-family="sans-serif" font-size="14" lengthAdjust="spacingAndGlyphs" textLength="44" x="8" y="108.5889">Import</text><ellipse cx="33" cy="79.5938" fill="#FEFECE" filter="url(#f13xk1szbllpk1)" rx="12" ry="12" style="stroke: #A80036; stroke-width: 2.0;"/><polygon fill="#A80036" points="29,67.5938,35,62.5938,33,67.5938,35,72.5938,29,67.5938" style="stroke: #A80036; stroke-width: 1.0;"/><text fill="#000000" font-family="sans-serif" font-size="14" lengthAdjust="spacingAndGlyphs" textLength="44" x="8" y="626.2764">Import</text><ellipse cx="33" cy="645.5781" fill="#FEFECE" filter="url(#f13xk1szbllpk1)" rx="12" ry="12" style="stroke: #A80036; stroke-width: 2.0;"/><polygon fill="#A80036" points="29,633.5781,35,628.5781,33,633.5781,35,638.5781,29,633.5781" style="stroke: #A80036; stroke-width: 1.0;"/><rect fill="#FEFECE" filter="url(#f13xk1szbllpk1)" height="30.2969" style="stroke: #A80036; stroke-width: 1.5;" width="105" x="188.5" y="72.5938"/><rect fill="#FEFECE" filter="url(#f13xk1szbllpk1)" height="30.2969" style="stroke: #A80036; stroke-width: 1.5;" width="105" x="184.5" y="76.5938"/><text fill="#000000" font-family="sans-serif" font-size="14" lengthAdjust="spacingAndGlyphs" textLength="91" x="191.5" y="96.5889">Import scripts</text><rect fill="#FEFECE" filter="url(#f13xk1szbllpk1)" height="30.2969" style="stroke: #A80036; stroke-width: 1.5;" width="105" x="188.5" y="613.2813"/><rect fill="#FEFECE" filter="url(#f13xk1szbllpk1)" height="30.2969" style="stroke: #A80036; stroke-width: 1.5;" width="105" x="184.5" y="617.2813"/><text fill="#000000" font-family="sans-serif" font-size="14" lengthAdjust="spacingAndGlyphs" textLength="91" x="191.5" y="637.2764">Import scripts</text><rect fill="#FEFECE" filter="url(#f13xk1szbllpk1)" height="30.2969" style="stroke: #A80036; stroke-width: 1.5;" width="66" x="416" y="72.5938"/><rect fill="#FEFECE" filter="url(#f13xk1szbllpk1)" height="30.2969" style="stroke: #A80036; stroke-width: 1.5;" width="66" x="412" y="76.5938"/><text fill="#000000" font-family="sans-serif" font-size="14" lengthAdjust="spacingAndGlyphs" textLength="52" x="419" y="96.5889">Vendors</text><rect fill="#FEFECE" filter="url(#f13xk1szbllpk1)" height="30.2969" style="stroke: #A80036; stroke-width: 1.5;" width="66" x="416" y="613.2813"/><rect fill="#FEFECE" filter="url(#f13xk1szbllpk1)" height="30.2969" style="stroke: #A80036; stroke-width: 1.5;" width="66" x="412" y="617.2813"/><text fill="#000000" font-family="sans-serif" font-size="14" lengthAdjust="spacingAndGlyphs" textLength="52" x="419" y="637.2764">Vendors</text><text fill="#000000" font-family="sans-serif" font-size="14" lengthAdjust="spacingAndGlyphs" textLength="131" x="588.5" y="108.5889">Vendor cover source</text><path d="M639,59.5938 C639,49.5938 657,49.5938 657,49.5938 C657,49.5938 675,49.5938 675,59.5938 L675,85.5938 C675,95.5938 657,95.5938 657,95.5938 C657,95.5938 639,95.5938 639,85.5938 L639,59.5938 " fill="#FEFECE" filter="url(#f13xk1szbllpk1)" style="stroke: #000000; stroke-width: 1.5;"/><path d="M639,59.5938 C639,69.5938 657,69.5938 657,69.5938 C657,69.5938 675,69.5938 675,59.5938 " fill="none" style="stroke: #000000; stroke-width: 1.5;"/><text fill="#000000" font-family="sans-serif" font-size="14" lengthAdjust="spacingAndGlyphs" textLength="131" x="588.5" y="626.2764">Vendor cover source</text><path d="M639,639.5781 C639,629.5781 657,629.5781 657,629.5781 C657,629.5781 675,629.5781 675,639.5781 L675,665.5781 C675,675.5781 657,675.5781 657,675.5781 C657,675.5781 639,675.5781 639,665.5781 L639,639.5781 " fill="#FEFECE" filter="url(#f13xk1szbllpk1)" style="stroke: #000000; stroke-width: 1.5;"/><path d="M639,639.5781 C639,649.5781 657,649.5781 657,649.5781 C657,649.5781 675,649.5781 675,639.5781 " fill="none" style="stroke: #000000; stroke-width: 1.5;"/><text fill="#000000" font-family="sans-serif" font-size="14" lengthAdjust="spacingAndGlyphs" textLength="119" x="735.5" y="108.5889">DDB Cover service</text><path d="M777.5,67.5938 L777.5,91.5938 M777.5,79.5938 L794.5,79.5938 " fill="none" filter="url(#f13xk1szbllpk1)" style="stroke: #A80036; stroke-width: 2.0;"/><ellipse cx="806.5" cy="79.5938" fill="#FEFECE" filter="url(#f13xk1szbllpk1)" rx="12" ry="12" style="stroke: #A80036; stroke-width: 2.0;"/><text fill="#000000" font-family="sans-serif" font-size="14" lengthAdjust="spacingAndGlyphs" textLength="119" x="735.5" y="626.2764">DDB Cover service</text><path d="M777.5,633.5781 L777.5,657.5781 M777.5,645.5781 L794.5,645.5781 " fill="none" filter="url(#f13xk1szbllpk1)" style="stroke: #A80036; stroke-width: 2.0;"/><ellipse cx="806.5" cy="645.5781" fill="#FEFECE" filter="url(#f13xk1szbllpk1)" rx="12" ry="12" style="stroke: #A80036; stroke-width: 2.0;"/><text fill="#000000" font-family="sans-serif" font-size="14" lengthAdjust="spacingAndGlyphs" textLength="93" x="958.5" y="92.292">Open Platform</text><text fill="#000000" font-family="sans-serif" font-size="14" lengthAdjust="spacingAndGlyphs" textLength="47" x="985.5" y="108.5889">/search</text><path d="M989.5,51.2969 L989.5,75.2969 M989.5,63.2969 L1006.5,63.2969 " fill="none" filter="url(#f13xk1szbllpk1)" style="stroke: #A80036; stroke-width: 2.0;"/><ellipse cx="1018.5" cy="63.2969" fill="#FEFECE" filter="url(#f13xk1szbllpk1)" rx="12" ry="12" style="stroke: #A80036; stroke-width: 2.0;"/><text fill="#000000" font-family="sans-serif" font-size="14" lengthAdjust="spacingAndGlyphs" textLength="93" x="958.5" y="626.2764">Open Platform</text><text fill="#000000" font-family="sans-serif" font-size="14" lengthAdjust="spacingAndGlyphs" textLength="47" x="985.5" y="642.5732">/search</text><path d="M989.5,649.875 L989.5,673.875 M989.5,661.875 L1006.5,661.875 " fill="none" filter="url(#f13xk1szbllpk1)" style="stroke: #A80036; stroke-width: 2.0;"/><ellipse cx="1018.5" cy="661.875" fill="#FEFECE" filter="url(#f13xk1szbllpk1)" rx="12" ry="12" style="stroke: #A80036; stroke-width: 2.0;"/><text fill="#000000" font-family="sans-serif" font-size="14" lengthAdjust="spacingAndGlyphs" textLength="100" x="1071.5" y="108.5889">Reference table</text><path d="M1106.5,59.5938 C1106.5,49.5938 1124.5,49.5938 1124.5,49.5938 C1124.5,49.5938 1142.5,49.5938 1142.5,59.5938 L1142.5,85.5938 C1142.5,95.5938 1124.5,95.5938 1124.5,95.5938 C1124.5,95.5938 1106.5,95.5938 1106.5,85.5938 L1106.5,59.5938 " fill="#FEFECE" filter="url(#f13xk1szbllpk1)" style="stroke: #000000; stroke-width: 1.5;"/><path d="M1106.5,59.5938 C1106.5,69.5938 1124.5,69.5938 1124.5,69.5938 C1124.5,69.5938 1142.5,69.5938 1142.5,59.5938 " fill="none" style="stroke: #000000; stroke-width: 1.5;"/><text fill="#000000" font-family="sans-serif" font-size="14" lengthAdjust="spacingAndGlyphs" textLength="100" x="1071.5" y="626.2764">Reference table</text><path d="M1106.5,639.5781 C1106.5,629.5781 1124.5,629.5781 1124.5,629.5781 C1124.5,629.5781 1142.5,629.5781 1142.5,639.5781 L1142.5,665.5781 C1142.5,675.5781 1124.5,675.5781 1124.5,675.5781 C1124.5,675.5781 1106.5,675.5781 1106.5,665.5781 L1106.5,639.5781 " fill="#FEFECE" filter="url(#f13xk1szbllpk1)" style="stroke: #000000; stroke-width: 1.5;"/><path d="M1106.5,639.5781 C1106.5,649.5781 1124.5,649.5781 1124.5,649.5781 C1124.5,649.5781 1142.5,649.5781 1142.5,639.5781 " fill="none" style="stroke: #000000; stroke-width: 1.5;"/><text fill="#000000" font-family="sans-serif" font-size="14" lengthAdjust="spacingAndGlyphs" textLength="149" x="1190" y="108.5889">Rebuild reference table</text><path d="M1249.5,59.5938 C1249.5,49.5938 1267.5,49.5938 1267.5,49.5938 C1267.5,49.5938 1285.5,49.5938 1285.5,59.5938 L1285.5,85.5938 C1285.5,95.5938 1267.5,95.5938 1267.5,95.5938 C1267.5,95.5938 1249.5,95.5938 1249.5,85.5938 L1249.5,59.5938 " fill="#FEFECE" filter="url(#f13xk1szbllpk1)" style="stroke: #000000; stroke-width: 1.5;"/><path d="M1249.5,59.5938 C1249.5,69.5938 1267.5,69.5938 1267.5,69.5938 C1267.5,69.5938 1285.5,69.5938 1285.5,59.5938 " fill="none" style="stroke: #000000; stroke-width: 1.5;"/><text fill="#000000" font-family="sans-serif" font-size="14" lengthAdjust="spacingAndGlyphs" textLength="149" x="1190" y="626.2764">Rebuild reference table</text><path d="M1249.5,639.5781 C1249.5,629.5781 1267.5,629.5781 1267.5,629.5781 C1267.5,629.5781 1285.5,629.5781 1285.5,639.5781 L1285.5,665.5781 C1285.5,675.5781 1267.5,675.5781 1267.5,675.5781 C1267.5,675.5781 1249.5,675.5781 1249.5,665.5781 L1249.5,639.5781 " fill="#FEFECE" filter="url(#f13xk1szbllpk1)" style="stroke: #000000; stroke-width: 1.5;"/><path d="M1249.5,639.5781 C1249.5,649.5781 1267.5,649.5781 1267.5,649.5781 C1267.5,649.5781 1285.5,649.5781 1285.5,639.5781 " fill="none" style="stroke: #000000; stroke-width: 1.5;"/><text fill="#000000" font-family="sans-serif" font-size="14" lengthAdjust="spacingAndGlyphs" textLength="79" x="1355" y="108.5889">Source table</text><path d="M1379.5,59.5938 C1379.5,49.5938 1397.5,49.5938 1397.5,49.5938 C1397.5,49.5938 1415.5,49.5938 1415.5,59.5938 L1415.5,85.5938 C1415.5,95.5938 1397.5,95.5938 1397.5,95.5938 C1397.5,95.5938 1379.5,95.5938 1379.5,85.5938 L1379.5,59.5938 " fill="#FEFECE" filter="url(#f13xk1szbllpk1)" style="stroke: #000000; stroke-width: 1.5;"/><path d="M1379.5,59.5938 C1379.5,69.5938 1397.5,69.5938 1397.5,69.5938 C1397.5,69.5938 1415.5,69.5938 1415.5,59.5938 " fill="none" style="stroke: #000000; stroke-width: 1.5;"/><text fill="#000000" font-family="sans-serif" font-size="14" lengthAdjust="spacingAndGlyphs" textLength="79" x="1355" y="626.2764">Source table</text><path d="M1379.5,639.5781 C1379.5,629.5781 1397.5,629.5781 1397.5,629.5781 C1397.5,629.5781 1415.5,629.5781 1415.5,639.5781 L1415.5,665.5781 C1415.5,675.5781 1397.5,675.5781 1397.5,675.5781 C1397.5,675.5781 1379.5,675.5781 1379.5,665.5781 L1379.5,639.5781 " fill="#FEFECE" filter="url(#f13xk1szbllpk1)" style="stroke: #000000; stroke-width: 1.5;"/><path d="M1379.5,639.5781 C1379.5,649.5781 1397.5,649.5781 1397.5,649.5781 C1397.5,649.5781 1415.5,649.5781 1415.5,639.5781 " fill="none" style="stroke: #000000; stroke-width: 1.5;"/><text fill="#000000" font-family="sans-serif" font-size="14" lengthAdjust="spacingAndGlyphs" textLength="150" x="1450" y="108.5889">Material identifier table</text><path d="M1510,59.5938 C1510,49.5938 1528,49.5938 1528,49.5938 C1528,49.5938 1546,49.5938 1546,59.5938 L1546,85.5938 C1546,95.5938 1528,95.5938 1528,95.5938 C1528,95.5938 1510,95.5938 1510,85.5938 L1510,59.5938 " fill="#FEFECE" filter="url(#f13xk1szbllpk1)" style="stroke: #000000; stroke-width: 1.5;"/><path d="M1510,59.5938 C1510,69.5938 1528,69.5938 1528,69.5938 C1528,69.5938 1546,69.5938 1546,59.5938 " fill="none" style="stroke: #000000; stroke-width: 1.5;"/><text fill="#000000" font-family="sans-serif" font-size="14" lengthAdjust="spacingAndGlyphs" textLength="150" x="1450" y="626.2764">Material identifier table</text><path d="M1510,639.5781 C1510,629.5781 1528,629.5781 1528,629.5781 C1528,629.5781 1546,629.5781 1546,639.5781 L1546,665.5781 C1546,675.5781 1528,675.5781 1528,675.5781 C1528,675.5781 1510,675.5781 1510,665.5781 L1510,639.5781 " fill="#FEFECE" filter="url(#f13xk1szbllpk1)" style="stroke: #000000; stroke-width: 1.5;"/><path d="M1510,639.5781 C1510,649.5781 1528,649.5781 1528,649.5781 C1528,649.5781 1546,649.5781 1546,639.5781 " fill="none" style="stroke: #000000; stroke-width: 1.5;"/><text fill="#000000" font-family="sans-serif" font-size="14" lengthAdjust="spacingAndGlyphs" textLength="67" x="1634.5" y="92.292">Cloudinary</text><text fill="#000000" font-family="sans-serif" font-size="14" lengthAdjust="spacingAndGlyphs" textLength="104" x="1620" y="108.5889">cover repository</text><path d="M1655,43.2969 C1655,33.2969 1673,33.2969 1673,33.2969 C1673,33.2969 1691,33.2969 1691,43.2969 L1691,69.2969 C1691,79.2969 1673,79.2969 1673,79.2969 C1673,79.2969 1655,79.2969 1655,69.2969 L1655,43.2969 " fill="#FEFECE" filter="url(#f13xk1szbllpk1)" style="stroke: #000000; stroke-width: 1.5;"/><path d="M1655,43.2969 C1655,53.2969 1673,53.2969 1673,53.2969 C1673,53.2969 1691,53.2969 1691,43.2969 " fill="none" style="stroke: #000000; stroke-width: 1.5;"/><text fill="#000000" font-family="sans-serif" font-size="14" lengthAdjust="spacingAndGlyphs" textLength="67" x="1634.5" y="626.2764">Cloudinary</text><text fill="#000000" font-family="sans-serif" font-size="14" lengthAdjust="spacingAndGlyphs" textLength="104" x="1620" y="642.5732">cover repository</text><path d="M1655,655.875 C1655,645.875 1673,645.875 1673,645.875 C1673,645.875 1691,645.875 1691,655.875 L1691,681.875 C1691,691.875 1673,691.875 1673,691.875 C1673,691.875 1655,691.875 1655,681.875 L1655,655.875 " fill="#FEFECE" filter="url(#f13xk1szbllpk1)" style="stroke: #000000; stroke-width: 1.5;"/><path d="M1655,655.875 C1655,665.875 1673,665.875 1673,665.875 C1673,665.875 1691,665.875 1691,655.875 " fill="none" style="stroke: #000000; stroke-width: 1.5;"/><polygon fill="#A80036" points="229,154.1563,239,158.1563,229,162.1563,233,158.1563" style="stroke: #A80036; stroke-width: 1.0;"/><line style="stroke: #A80036; stroke-width: 1.0;" x1="33" x2="235" y1="158.1563" y2="158.1563"/><text fill="#000000" font-family="sans-serif" font-size="13" lengthAdjust="spacingAndGlyphs" textLength="107" x="40" y="137.9575">Run import scripts</text><text fill="#000000" font-family="sans-serif" font-size="13" lengthAdjust="spacingAndGlyphs" textLength="105" x="43" y="153.0903">to get new covers.</text><polygon fill="#A80036" points="437,183.2891,447,187.2891,437,191.2891,441,187.2891" style="stroke: #A80036; stroke-width: 1.0;"/><line style="stroke: #A80036; stroke-width: 1.0;" x1="241" x2="443" y1="187.2891" y2="187.2891"/><text fill="#000000" font-family="sans-serif" font-size="13" lengthAdjust="spacingAndGlyphs" textLength="120" x="248" y="182.2231">Request new covers.</text><polygon fill="#A80036" points="645,212.4219,655,216.4219,645,220.4219,649,216.4219" style="stroke: #A80036; stroke-width: 1.0;"/><line style="stroke: #A80036; stroke-width: 1.0;" x1="449" x2="651" y1="216.4219" y2="216.4219"/><text fill="#000000" font-family="sans-serif" font-size="13" lengthAdjust="spacingAndGlyphs" textLength="83" x="456" y="211.356">Collect covers.</text><polygon fill="#A80036" points="460,241.5547,450,245.5547,460,249.5547,456,245.5547" style="stroke: #A80036; stroke-width: 1.0;"/><line style="stroke: #A80036; stroke-width: 1.0; stroke-dasharray: 2.0,2.0;" x1="454" x2="656" y1="245.5547" y2="245.5547"/><text fill="#000000" font-family="sans-serif" font-size="13" lengthAdjust="spacingAndGlyphs" textLength="184" x="466" y="240.4888">Return cover images + cover ID.</text><polygon fill="#A80036" points="252,270.6875,242,274.6875,252,278.6875,248,274.6875" style="stroke: #A80036; stroke-width: 1.0;"/><line style="stroke: #A80036; stroke-width: 1.0; stroke-dasharray: 2.0,2.0;" x1="246" x2="448" y1="274.6875" y2="274.6875"/><text fill="#000000" font-family="sans-serif" font-size="13" lengthAdjust="spacingAndGlyphs" textLength="184" x="258" y="269.6216">Return cover images + cover ID.</text><polygon fill="#A80036" points="44,299.8203,34,303.8203,44,307.8203,40,303.8203" style="stroke: #A80036; stroke-width: 1.0;"/><line style="stroke: #A80036; stroke-width: 1.0; stroke-dasharray: 2.0,2.0;" x1="38" x2="240" y1="303.8203" y2="303.8203"/><text fill="#000000" font-family="sans-serif" font-size="13" lengthAdjust="spacingAndGlyphs" textLength="184" x="50" y="298.7544">Return cover images + cover ID.</text><polygon fill="#A80036" points="786,328.9531,796,332.9531,786,336.9531,790,332.9531" style="stroke: #A80036; stroke-width: 1.0;"/><line style="stroke: #A80036; stroke-width: 1.0;" x1="33" x2="792" y1="332.9531" y2="332.9531"/><text fill="#000000" font-family="sans-serif" font-size="13" lengthAdjust="spacingAndGlyphs" textLength="203" x="40" y="327.8872">Post new cover images + cover IDs.</text><polygon fill="#A80036" points="998,373.2188,1008,377.2188,998,381.2188,1002,377.2188" style="stroke: #A80036; stroke-width: 1.0;"/><line style="stroke: #A80036; stroke-width: 1.0;" x1="798" x2="1004" y1="377.2188" y2="377.2188"/><text fill="#000000" font-family="sans-serif" font-size="13" lengthAdjust="spacingAndGlyphs" textLength="185" x="805" y="357.02">Request material identifiers and</text><text fill="#000000" font-family="sans-serif" font-size="13" lengthAdjust="spacingAndGlyphs" textLength="167" x="808" y="372.1528">metadata (material identifier.</text><polygon fill="#A80036" points="809,417.4844,799,421.4844,809,425.4844,805,421.4844" style="stroke: #A80036; stroke-width: 1.0;"/><line style="stroke: #A80036; stroke-width: 1.0; stroke-dasharray: 2.0,2.0;" x1="803" x2="1009" y1="421.4844" y2="421.4844"/><text fill="#000000" font-family="sans-serif" font-size="13" lengthAdjust="spacingAndGlyphs" textLength="144" x="815" y="401.2856">Return material idenfiers</text><text fill="#000000" font-family="sans-serif" font-size="13" lengthAdjust="spacingAndGlyphs" textLength="84" x="818" y="416.4185">and metadata.</text><polygon fill="#A80036" points="1516,446.6172,1526,450.6172,1516,454.6172,1520,450.6172" style="stroke: #A80036; stroke-width: 1.0;"/><line style="stroke: #A80036; stroke-width: 1.0;" x1="798" x2="1522" y1="450.6172" y2="450.6172"/><text fill="#000000" font-family="sans-serif" font-size="13" lengthAdjust="spacingAndGlyphs" textLength="139" x="805" y="445.5513">Post material identifiers.</text><polygon fill="#A80036" points="1385.5,475.75,1395.5,479.75,1385.5,483.75,1389.5,479.75" style="stroke: #A80036; stroke-width: 1.0;"/><line style="stroke: #A80036; stroke-width: 1.0;" x1="798" x2="1391.5" y1="479.75" y2="479.75"/><text fill="#000000" font-family="sans-serif" font-size="13" lengthAdjust="spacingAndGlyphs" textLength="139" x="805" y="474.6841">Post material identifiers.</text><polygon fill="#A80036" points="1278.5,504.8828,1268.5,508.8828,1278.5,512.8828,1274.5,508.8828" style="stroke: #A80036; stroke-width: 1.0;"/><line style="stroke: #A80036; stroke-width: 1.0;" x1="1272.5" x2="1527" y1="508.8828" y2="508.8828"/><text fill="#000000" font-family="sans-serif" font-size="13" lengthAdjust="spacingAndGlyphs" textLength="79" x="1284.5" y="503.8169">Post keypairs.</text><polygon fill="#A80036" points="1278.5,534.0156,1268.5,538.0156,1278.5,542.0156,1274.5,538.0156" style="stroke: #A80036; stroke-width: 1.0;"/><line style="stroke: #A80036; stroke-width: 1.0;" x1="1272.5" x2="1396.5" y1="538.0156" y2="538.0156"/><text fill="#000000" font-family="sans-serif" font-size="13" lengthAdjust="spacingAndGlyphs" textLength="64" x="1284.5" y="532.9497">Post RefID.</text><polygon fill="#A80036" points="1135.5,563.1484,1125.5,567.1484,1135.5,571.1484,1131.5,567.1484" style="stroke: #A80036; stroke-width: 1.0;"/><line style="stroke: #A80036; stroke-width: 1.0;" x1="1129.5" x2="1266.5" y1="567.1484" y2="567.1484"/><text fill="#000000" font-family="sans-serif" font-size="13" lengthAdjust="spacingAndGlyphs" textLength="119" x="1141.5" y="562.0825">Post keypairs+RefID.</text><polygon fill="#A80036" points="1661,592.2813,1671,596.2813,1661,600.2813,1665,596.2813" style="stroke: #A80036; stroke-width: 1.0;"/><line style="stroke: #A80036; stroke-width: 1.0;" x1="798" x2="1667" y1="596.2813" y2="596.2813"/><text fill="#000000" font-family="sans-serif" font-size="13" lengthAdjust="spacingAndGlyphs" textLength="112" x="805" y="591.2153">Post image + RefID.</text><!--MD5=[0335e36efd51b0503b33214620728aed]
@startuml

title "Import cover - Sequence Diagram"

control "Import" as import
collections "Import scripts" as imports
collections "Vendors" as vendors
database "Vendor cover source" as vendorsource
boundary "DDB Cover service" as cover
boundary "Open Platform \n /search" as OPsearch
database "Reference table" as reference
database "Rebuild reference table" as rebuild
database "Source table" as source
database "Material identifier table" as identifiers
database "Cloudinary \n cover repository" as cloudinary

import->imports: Run import scripts \n to get new covers.
imports->vendors: Request new covers.
vendors->vendorsource: Collect covers.
vendorsource- ->vendors: Return cover images + cover ID.
vendors- ->imports: Return cover images + cover ID.
imports- ->import: Return cover images + cover ID.
import->cover: Post new cover images + cover IDs.
cover->OPsearch: Request material identifiers and \n metadata (material identifier.
OPsearch- ->cover: Return material idenfiers \n and metadata.
cover->identifiers: Post material identifiers.
cover->source: Post material identifiers.
identifiers->rebuild: Post keypairs.
source->rebuild: Post RefID.
rebuild->reference: Post keypairs+RefID.
cover->cloudinary: Post image + RefID.

@enduml

PlantUML version 1.2019.13(Tue Dec 10 17:18:29 GMT 2019)
(GPL source distribution)
Java Runtime: Java(TM) SE Runtime Environment
JVM: Java HotSpot(TM) 64-Bit Server VM
Java Version: 1.8.0_202-b08
Operating System: Linux
Default Encoding: ANSI_X3.4-1968
Language: en
Country: US
--></g></svg>