<?xml version="1.0" encoding="UTF-8" standalone="no"?><svg xmlns="http://www.w3.org/2000/svg" xmlns:xlink="http://www.w3.org/1999/xlink" contentScriptType="application/ecmascript" contentStyleType="text/css" height="556px" preserveAspectRatio="none" style="width:548px;height:556px;" version="1.1" viewBox="0 0 548 556" width="548px" zoomAndPan="magnify"><defs><filter height="300%" id="fg5f6e7qr22j7" width="300%" x="-1" y="-1"><feGaussianBlur result="blurOut" stdDeviation="2.0"/><feColorMatrix in="blurOut" result="blurOut2" type="matrix" values="0 0 0 0 0 0 0 0 0 0 0 0 0 0 0 0 0 0 .4 0"/><feOffset dx="4.0" dy="4.0" in="blurOut2" result="blurOut3"/><feBlend in="SourceGraphic" in2="blurOut3" mode="normal"/></filter></defs><g><text fill="#000000" font-family="sans-serif" font-size="18" lengthAdjust="spacingAndGlyphs" textLength="401" x="76.5" y="16.708">"DDB Cover service - Upload - Usecase diagram"</text><!--MD5=[98f2f8c0ebe28d5d2b5d84c79bc6e0c5]
cluster Upload materialeforside--><rect fill="#FFFFFF" filter="url(#fg5f6e7qr22j7)" height="490" style="stroke: #000000; stroke-width: 1.5;" width="184" x="195" y="36.9531"/><text fill="#000000" font-family="sans-serif" font-size="14" font-weight="bold" lengthAdjust="spacingAndGlyphs" textLength="168" x="203" y="51.9482">Upload materialeforside</text><ellipse cx="286.3406" cy="438.9768" fill="#FEFECE" filter="url(#fg5f6e7qr22j7)" rx="46.8406" ry="14.5236" style="stroke: #A80036; stroke-width: 1.5;"/><text fill="#000000" font-family="sans-serif" font-size="14" lengthAdjust="spacingAndGlyphs" textLength="62" x="255.3406" y="443.6252">1. Log ind</text><ellipse cx="286.4975" cy="79.8526" fill="#FEFECE" filter="url(#fg5f6e7qr22j7)" rx="67.4975" ry="15.8995" style="stroke: #A80036; stroke-width: 1.5;"/><text fill="#000000" font-family="sans-serif" font-size="14" lengthAdjust="spacingAndGlyphs" textLength="100" x="236.4975" y="84.5011">2. Hent billeder</text><ellipse cx="286.5616" cy="167.0655" fill="#FEFECE" filter="url(#fg5f6e7qr22j7)" rx="83.5616" ry="19.1123" style="stroke: #A80036; stroke-width: 1.5;"/><text fill="#000000" font-family="sans-serif" font-size="14" lengthAdjust="spacingAndGlyphs" textLength="139" x="217.0616" y="171.7139">3. Godkend opløsning</text><ellipse cx="286.3742" cy="503.728" fill="#FEFECE" filter="url(#fg5f6e7qr22j7)" rx="61.8742" ry="14.7748" style="stroke: #A80036; stroke-width: 1.5;"/><text fill="#000000" font-family="sans-serif" font-size="14" lengthAdjust="spacingAndGlyphs" textLength="85" x="243.8742" y="508.3764">4. Indtast pid</text><ellipse cx="286.6576" cy="237.8846" fill="#FEFECE" filter="url(#fg5f6e7qr22j7)" rx="72.6576" ry="16.9315" style="stroke: #A80036; stroke-width: 1.5;"/><text fill="#000000" font-family="sans-serif" font-size="14" lengthAdjust="spacingAndGlyphs" textLength="113" x="230.1576" y="242.5331">5. Verificer match</text><ellipse cx="286.3489" cy="371.7229" fill="#FEFECE" filter="url(#fg5f6e7qr22j7)" rx="71.8489" ry="16.7698" style="stroke: #A80036; stroke-width: 1.5;"/><text fill="#000000" font-family="sans-serif" font-size="14" lengthAdjust="spacingAndGlyphs" textLength="111" x="230.8489" y="376.3713">6. Hent metadata</text><ellipse cx="286.6335" cy="304.9768" fill="#FEFECE" filter="url(#fg5f6e7qr22j7)" rx="46.1335" ry="14.5236" style="stroke: #A80036; stroke-width: 1.5;"/><text fill="#000000" font-family="sans-serif" font-size="14" lengthAdjust="spacingAndGlyphs" textLength="61" x="256.1335" y="309.6252">7. Upload</text><!--MD5=[bf413b2096e2ccf7d613ce4badfec71d]
entity medarbejder--><ellipse cx="52" cy="265.4531" fill="#FEFECE" filter="url(#fg5f6e7qr22j7)" rx="8" ry="8" style="stroke: #A80036; stroke-width: 1.5;"/><path d="M52,273.4531 L52,300.4531 M39,281.4531 L65,281.4531 M52,300.4531 L39,315.4531 M52,300.4531 L65,315.4531 " fill="none" filter="url(#fg5f6e7qr22j7)" style="stroke: #A80036; stroke-width: 1.5;"/><text fill="#000000" font-family="sans-serif" font-size="14" lengthAdjust="spacingAndGlyphs" textLength="81" x="6" y="333.9482">Medarbejder</text><text fill="#000000" font-family="sans-serif" font-size="14" lengthAdjust="spacingAndGlyphs" textLength="92" x="6" y="350.2451">på et bibliotek</text><!--MD5=[1699970e44aa7c9e419075d78eb2b2fe]
entity cover--><ellipse cx="483.5" cy="195.75" fill="#FEFECE" filter="url(#fg5f6e7qr22j7)" rx="8" ry="8" style="stroke: #A80036; stroke-width: 1.5;"/><path d="M483.5,203.75 L483.5,230.75 M470.5,211.75 L496.5,211.75 M483.5,230.75 L470.5,245.75 M483.5,230.75 L496.5,245.75 " fill="none" filter="url(#fg5f6e7qr22j7)" style="stroke: #A80036; stroke-width: 1.5;"/><text fill="#000000" font-family="sans-serif" font-size="14" lengthAdjust="spacingAndGlyphs" textLength="98" x="434.5" y="264.2451">Platform /cover</text><text fill="#000000" font-family="sans-serif" font-size="14" font-style="italic" lengthAdjust="spacingAndGlyphs" textLength="84" x="441.5" y="182.9482">«application»</text><!--MD5=[311a50329dcd61d963fd5493378cd659]
entity search--><ellipse cx="483.5" cy="341.75" fill="#FEFECE" filter="url(#fg5f6e7qr22j7)" rx="8" ry="8" style="stroke: #A80036; stroke-width: 1.5;"/><path d="M483.5,349.75 L483.5,376.75 M470.5,357.75 L496.5,357.75 M483.5,376.75 L470.5,391.75 M483.5,376.75 L496.5,391.75 " fill="none" filter="url(#fg5f6e7qr22j7)" style="stroke: #A80036; stroke-width: 1.5;"/><text fill="#000000" font-family="sans-serif" font-size="14" lengthAdjust="spacingAndGlyphs" textLength="105" x="431" y="410.2451">Platform /search</text><text fill="#000000" font-family="sans-serif" font-size="14" font-style="italic" lengthAdjust="spacingAndGlyphs" textLength="84" x="441.5" y="328.9482">«application»</text><!--MD5=[73f004dd537da7fbb12eab7bd295d779]
entity computer--><ellipse cx="483.5" cy="56.75" fill="#FEFECE" filter="url(#fg5f6e7qr22j7)" rx="8" ry="8" style="stroke: #A80036; stroke-width: 1.5;"/><path d="M483.5,64.75 L483.5,91.75 M470.5,72.75 L496.5,72.75 M483.5,91.75 L470.5,106.75 M483.5,91.75 L496.5,106.75 " fill="none" filter="url(#fg5f6e7qr22j7)" style="stroke: #A80036; stroke-width: 1.5;"/><text fill="#000000" font-family="sans-serif" font-size="14" lengthAdjust="spacingAndGlyphs" textLength="101" x="433" y="125.2451">Medarbejder PC</text><text fill="#000000" font-family="sans-serif" font-size="14" font-style="italic" lengthAdjust="spacingAndGlyphs" textLength="56" x="455.5" y="43.9482">«device»</text><!--MD5=[2c4d6263d6a9c508a624946e4f5b83db]
entity login--><ellipse cx="483.5" cy="474.75" fill="#FEFECE" filter="url(#fg5f6e7qr22j7)" rx="8" ry="8" style="stroke: #A80036; stroke-width: 1.5;"/><path d="M483.5,482.75 L483.5,509.75 M470.5,490.75 L496.5,490.75 M483.5,509.75 L470.5,524.75 M483.5,509.75 L496.5,524.75 " fill="none" filter="url(#fg5f6e7qr22j7)" style="stroke: #A80036; stroke-width: 1.5;"/><text fill="#000000" font-family="sans-serif" font-size="14" lengthAdjust="spacingAndGlyphs" textLength="97" x="435" y="543.2451">DDB CMS /user</text><text fill="#000000" font-family="sans-serif" font-size="14" font-style="italic" lengthAdjust="spacingAndGlyphs" textLength="84" x="441.5" y="461.9482">«application»</text><!--MD5=[6799365375a0eb44264d00d13b7caeb0]
link medarbejder to 1. Log ind--><path d="M98.1427,342.9795 C125.1503,363.8952 160.6125,389.1375 195,406.9531 C211.1146,415.3018 229.8901,422.2953 246.2249,427.5939 " fill="none" id="medarbejder-&gt;1. Log ind" style="stroke: #A80036; stroke-width: 1.0;"/><polygon fill="#A80036" points="251.2103,429.1834,243.8507,422.6385,246.4466,427.6646,241.4205,430.2605,251.2103,429.1834" style="stroke: #A80036; stroke-width: 1.0;"/><!--MD5=[2f2dfcb52cade2fc05f4ab661d19f9b7]
reverse link 1. Log ind to login--><path d="M325.2945,450.5718 C356.7256,459.9851 401.1816,473.2994 434.9683,483.4182 " fill="none" id="1. Log ind&lt;-login" style="stroke: #A80036; stroke-width: 1.0;"/><polygon fill="#A80036" points="320.3655,449.0956,327.8395,455.5096,325.1553,450.5302,330.1348,447.846,320.3655,449.0956" style="stroke: #A80036; stroke-width: 1.0;"/><!--MD5=[5aa4bca9ef872e9ce7824144527874dd]
link medarbejder to 2. Hent billeder--><path d="M84.378,255.6679 C110.8886,217.964 151.0771,166.4189 195,129.9531 C211.1684,116.5297 231.4882,104.9989 248.8697,96.4045 " fill="none" id="medarbejder-&gt;2. Hent billeder" style="stroke: #A80036; stroke-width: 1.0;"/><polygon fill="#A80036" points="253.6884,94.0592,243.8455,94.4012,249.1926,96.2473,247.3465,101.5945,253.6884,94.0592" style="stroke: #A80036; stroke-width: 1.0;"/><!--MD5=[3c5958de63d1252567ffd72cc3fbbb12]
reverse link 3. Godkend opløsning to cover--><path d="M345.952,182.646 C374.136,190.0854 407.4091,198.8682 434.1699,205.9319 " fill="none" id="3. Godkend opløsning&lt;-cover" style="stroke: #A80036; stroke-width: 1.0;"/><polygon fill="#A80036" points="341.1139,181.3689,348.7949,187.5335,345.9483,182.6451,350.8367,179.7984,341.1139,181.3689" style="stroke: #A80036; stroke-width: 1.0;"/><!--MD5=[ed923004c1c80b76b505308ffc25aa33]
reverse link 2. Hent billeder to computer--><path d="M359.208,79.9531 C383.6917,79.9531 410.4624,79.9531 432.8676,79.9531 " fill="none" id="2. Hent billeder&lt;-computer" style="stroke: #A80036; stroke-width: 1.0;"/><polygon fill="#A80036" points="354.0206,79.9531,363.0206,83.9531,359.0206,79.9531,363.0206,75.9531,354.0206,79.9531" style="stroke: #A80036; stroke-width: 1.0;"/><!--MD5=[e57bffc56d62a11efafaaf2c1ce275fc]
link 3. Godkend opløsning to 2. Hent billeder--><path d="M286.5,147.645 C286.5,133.8236 286.5,115.2246 286.5,101.0197 " fill="none" id="3. Godkend opløsning-&gt;2. Hent billeder" style="stroke: #A80036; stroke-width: 1.0; stroke-dasharray: 7.0,7.0;"/><polygon fill="#A80036" points="286.5,96.0021,282.5,105.0021,286.5,101.0021,290.5,105.0021,286.5,96.0021" style="stroke: #A80036; stroke-width: 1.0;"/><text fill="#000000" font-family="sans-serif" font-size="13" lengthAdjust="spacingAndGlyphs" textLength="47" x="251.5" y="126.52">extends</text><!--MD5=[27ac77b31fa971fbaefddf75615bcd48]
link medarbejder to 4. Indtast pid--><path d="M83.0567,354.078 C108.8478,391.1355 148.7132,440.6105 195,470.9531 C208.1961,479.6036 223.9488,486.3356 238.6338,491.3972 " fill="none" id="medarbejder-&gt;4. Indtast pid" style="stroke: #A80036; stroke-width: 1.0;"/><polygon fill="#A80036" points="243.5677,493.05,236.3045,486.3983,238.8267,491.4617,233.7632,493.9839,243.5677,493.05" style="stroke: #A80036; stroke-width: 1.0;"/><!--MD5=[d1ba1e00d1ac3666d736c8aecb3e337d]
link medarbejder to 5. Verificer match--><path d="M98.0367,288.573 C107.8794,285.2483 118.2491,281.8775 128,278.9531 C161.7144,268.8418 199.9,258.9189 230.3419,251.3682 " fill="none" id="medarbejder-&gt;5. Verificer match" style="stroke: #A80036; stroke-width: 1.0;"/><polygon fill="#A80036" points="235.5451,250.082,225.8482,248.3589,230.6912,251.282,227.7681,256.1251,235.5451,250.082" style="stroke: #A80036; stroke-width: 1.0;"/><!--MD5=[f93c634b3fc9fbbe6cd526d1fea84086]
link 5. Verificer match to 6. Hent metadata--><path d="M238.2599,250.6641 C223.4654,256.016 207.7437,263.2993 195,272.9531 C149.8746,307.1373 125.2815,321.5365 150,350.4531 C165.8627,369.0099 190.6829,376.211 214.8328,378.1522 " fill="none" id="5. Verificer match-&gt;6. Hent metadata" style="stroke: #A80036; stroke-width: 1.0; stroke-dasharray: 7.0,7.0;"/><polygon fill="#A80036" points="219.9725,378.4888,211.2532,373.9091,214.9832,378.162,210.7303,381.8919,219.9725,378.4888" style="stroke: #A80036; stroke-width: 1.0;"/><text fill="#000000" font-family="sans-serif" font-size="13" lengthAdjust="spacingAndGlyphs" textLength="43" x="129" y="346.52">include</text><!--MD5=[3d184bf7c84ef3d3be7737acc7f84c7a]
reverse link 6. Hent metadata to search--><path d="M363.0194,369.2341 C385.7163,368.4276 410.054,367.5629 430.8719,366.8231 " fill="none" id="6. Hent metadata&lt;-search" style="stroke: #A80036; stroke-width: 1.0;"/><polygon fill="#A80036" points="357.9001,369.416,367.0366,373.0936,362.8969,369.2383,366.7522,365.0987,357.9001,369.416" style="stroke: #A80036; stroke-width: 1.0;"/><!--MD5=[3c878c157d31092659c567b75378c9e0]
link medarbejder to 7. Upload--><path d="M98.0499,304.9531 C137.3669,304.9531 193.8744,304.9531 234.7472,304.9531 " fill="none" id="medarbejder-&gt;7. Upload" style="stroke: #A80036; stroke-width: 1.0;"/><polygon fill="#A80036" points="240.155,304.9531,231.155,300.9531,235.155,304.9531,231.155,308.9531,240.155,304.9531" style="stroke: #A80036; stroke-width: 1.0;"/><!--MD5=[cb2b4e219659ec7152d9bbeac8748808]
reverse link 7. Upload to cover--><path d="M324.1472,292.7326 C341.1025,286.9207 361.2555,279.5818 379,271.9531 C397.4081,264.0392 417.1213,254.3689 434.41,245.4654 " fill="none" id="7. Upload&lt;-cover" style="stroke: #A80036; stroke-width: 1.0;"/><polygon fill="#A80036" points="318.9941,294.4859,328.8029,295.3737,323.7276,292.8754,326.226,287.8001,318.9941,294.4859" style="stroke: #A80036; stroke-width: 1.0;"/><!--MD5=[91f65a95967ab315ee7e8522e95423fd]
@startuml

title "DDB Cover service - Upload - Usecase diagram"

left to right direction
skinparam packageStyle rectangle

actor "Medarbejder \n på et bibliotek" as medarbejder
actor "Platform /cover" <<application>> as cover
actor "Platform /search" <<application>> as search
actor "Medarbejder PC" <<device>> as computer
actor "DDB CMS /user" <<application>> as login

rectangle "Upload materialeforside" {


    :medarbejder: - -> (1. Log ind)
    (1. Log ind) <- - :login:
   
    :medarbejder: - -> (2. Hent billeder)
    (3. Godkend opløsning) <- - :cover:
    (2. Hent billeder) <- - :computer:
    (3. Godkend opløsning) .> (2. Hent billeder) : extends
    :medarbejder: - -> (4. Indtast pid)
    
    :medarbejder: - -> (5. Verificer match)
    (5. Verificer match) .> (6. Hent metadata) : include
    (6. Hent metadata) <- - :search:

    :medarbejder: - -> (7. Upload)
    (7. Upload) <- - :cover:
}

@enduml

PlantUML version 1.2019.13(Tue Dec 10 17:18:29 GMT 2019)
(GPL source distribution)
Java Runtime: Java(TM) SE Runtime Environment
JVM: Java HotSpot(TM) 64-Bit Server VM
Java Version: 1.8.0_202-b08
Operating System: Linux
Default Encoding: ANSI_X3.4-1968
Language: en
Country: US
--></g></svg>