<?xml version="1.0" encoding="UTF-8" standalone="no"?><svg xmlns="http://www.w3.org/2000/svg" xmlns:xlink="http://www.w3.org/1999/xlink" contentScriptType="application/ecmascript" contentStyleType="text/css" height="553px" preserveAspectRatio="none" style="width:569px;height:553px;" version="1.1" viewBox="0 0 569 553" width="569px" zoomAndPan="magnify"><defs><filter height="300%" id="f1hh1ony3yz06k" width="300%" x="-1" y="-1"><feGaussianBlur result="blurOut" stdDeviation="2.0"/><feColorMatrix in="blurOut" result="blurOut2" type="matrix" values="0 0 0 0 0 0 0 0 0 0 0 0 0 0 0 0 0 0 .4 0"/><feOffset dx="4.0" dy="4.0" in="blurOut2" result="blurOut3"/><feBlend in="SourceGraphic" in2="blurOut3" mode="normal"/></filter></defs><g><text fill="#000000" font-family="sans-serif" font-size="18" lengthAdjust="spacingAndGlyphs" textLength="399" x="88" y="16.708">"DDB Cover service - Upload - usecase diagram"</text><!--MD5=[98f2f8c0ebe28d5d2b5d84c79bc6e0c5]
cluster Upload materialeforside--><rect fill="#FFFFFF" filter="url(#f1hh1ony3yz06k)" height="504" style="stroke: #000000; stroke-width: 1.5;" width="204" x="195" y="36.9531"/><text fill="#000000" font-family="sans-serif" font-size="14" font-weight="bold" lengthAdjust="spacingAndGlyphs" textLength="168" x="213" y="51.9482">Upload materialeforside</text><ellipse cx="296.8406" cy="432.9768" fill="#FEFECE" filter="url(#f1hh1ony3yz06k)" rx="46.8406" ry="14.5236" style="stroke: #A80036; stroke-width: 1.5;"/><text fill="#000000" font-family="sans-serif" font-size="14" lengthAdjust="spacingAndGlyphs" textLength="62" x="265.8406" y="437.6252">1. Log ind</text><ellipse cx="296.9975" cy="79.8526" fill="#FEFECE" filter="url(#f1hh1ony3yz06k)" rx="67.4975" ry="15.8995" style="stroke: #A80036; stroke-width: 1.5;"/><text fill="#000000" font-family="sans-serif" font-size="14" lengthAdjust="spacingAndGlyphs" textLength="100" x="246.9975" y="84.5011">3. Hent billeder</text><ellipse cx="296.7711" cy="165.7073" fill="#FEFECE" filter="url(#f1hh1ony3yz06k)" rx="76.7711" ry="17.7542" style="stroke: #A80036; stroke-width: 1.5;"/><text fill="#000000" font-family="sans-serif" font-size="14" lengthAdjust="spacingAndGlyphs" textLength="123" x="235.2711" y="170.3558">Godkend opløsning</text><ellipse cx="297.1848" cy="507.8065" fill="#FEFECE" filter="url(#f1hh1ony3yz06k)" rx="94.1848" ry="24.8534" style="stroke: #A80036; stroke-width: 1.5;"/><text fill="#000000" font-family="sans-serif" font-size="14" lengthAdjust="spacingAndGlyphs" textLength="136" x="229.1848" y="506.0438">2. Fremsøg materiale</text><text fill="#000000" font-family="sans-serif" font-size="14" lengthAdjust="spacingAndGlyphs" textLength="103" x="245.6848" y="522.3407">fx pid eller faust</text><ellipse cx="297.1576" cy="235.8846" fill="#FEFECE" filter="url(#f1hh1ony3yz06k)" rx="72.6576" ry="16.9315" style="stroke: #A80036; stroke-width: 1.5;"/><text fill="#000000" font-family="sans-serif" font-size="14" lengthAdjust="spacingAndGlyphs" textLength="113" x="240.6576" y="240.5331">4. Verificer match</text><ellipse cx="297.0794" cy="367.969" fill="#FEFECE" filter="url(#f1hh1ony3yz06k)" rx="65.5794" ry="15.5159" style="stroke: #A80036; stroke-width: 1.5;"/><text fill="#000000" font-family="sans-serif" font-size="14" lengthAdjust="spacingAndGlyphs" textLength="95" x="249.5794" y="372.6174">Hent metadata</text><ellipse cx="297.1335" cy="302.9768" fill="#FEFECE" filter="url(#f1hh1ony3yz06k)" rx="46.1335" ry="14.5236" style="stroke: #A80036; stroke-width: 1.5;"/><text fill="#000000" font-family="sans-serif" font-size="14" lengthAdjust="spacingAndGlyphs" textLength="61" x="266.6335" y="307.6252">5. Upload</text><!--MD5=[bf413b2096e2ccf7d613ce4badfec71d]
entity medarbejder--><ellipse cx="52" cy="263.4531" fill="#FEFECE" filter="url(#f1hh1ony3yz06k)" rx="8" ry="8" style="stroke: #A80036; stroke-width: 1.5;"/><path d="M52,271.4531 L52,298.4531 M39,279.4531 L65,279.4531 M52,298.4531 L39,313.4531 M52,298.4531 L65,313.4531 " fill="none" filter="url(#f1hh1ony3yz06k)" style="stroke: #A80036; stroke-width: 1.5;"/><text fill="#000000" font-family="sans-serif" font-size="14" lengthAdjust="spacingAndGlyphs" textLength="81" x="6" y="331.9482">Medarbejder</text><text fill="#000000" font-family="sans-serif" font-size="14" lengthAdjust="spacingAndGlyphs" textLength="92" x="6" y="348.2451">på et bibliotek</text><!--MD5=[1699970e44aa7c9e419075d78eb2b2fe]
entity cover--><ellipse cx="504.5" cy="194.75" fill="#FEFECE" filter="url(#f1hh1ony3yz06k)" rx="8" ry="8" style="stroke: #A80036; stroke-width: 1.5;"/><path d="M504.5,202.75 L504.5,229.75 M491.5,210.75 L517.5,210.75 M504.5,229.75 L491.5,244.75 M504.5,229.75 L517.5,244.75 " fill="none" filter="url(#f1hh1ony3yz06k)" style="stroke: #A80036; stroke-width: 1.5;"/><text fill="#000000" font-family="sans-serif" font-size="14" lengthAdjust="spacingAndGlyphs" textLength="98" x="455.5" y="263.2451">Platform /cover</text><text fill="#000000" font-family="sans-serif" font-size="14" font-style="italic" lengthAdjust="spacingAndGlyphs" textLength="84" x="462.5" y="181.9482">«application»</text><!--MD5=[311a50329dcd61d963fd5493378cd659]
entity search--><ellipse cx="504.5" cy="338.75" fill="#FEFECE" filter="url(#f1hh1ony3yz06k)" rx="8" ry="8" style="stroke: #A80036; stroke-width: 1.5;"/><path d="M504.5,346.75 L504.5,373.75 M491.5,354.75 L517.5,354.75 M504.5,373.75 L491.5,388.75 M504.5,373.75 L517.5,388.75 " fill="none" filter="url(#f1hh1ony3yz06k)" style="stroke: #A80036; stroke-width: 1.5;"/><text fill="#000000" font-family="sans-serif" font-size="14" lengthAdjust="spacingAndGlyphs" textLength="105" x="452" y="407.2451">Platform /search</text><text fill="#000000" font-family="sans-serif" font-size="14" font-style="italic" lengthAdjust="spacingAndGlyphs" textLength="84" x="462.5" y="325.9482">«application»</text><!--MD5=[73f004dd537da7fbb12eab7bd295d779]
entity computer--><ellipse cx="504.5" cy="56.75" fill="#FEFECE" filter="url(#f1hh1ony3yz06k)" rx="8" ry="8" style="stroke: #A80036; stroke-width: 1.5;"/><path d="M504.5,64.75 L504.5,91.75 M491.5,72.75 L517.5,72.75 M504.5,91.75 L491.5,106.75 M504.5,91.75 L517.5,106.75 " fill="none" filter="url(#f1hh1ony3yz06k)" style="stroke: #A80036; stroke-width: 1.5;"/><text fill="#000000" font-family="sans-serif" font-size="14" lengthAdjust="spacingAndGlyphs" textLength="101" x="454" y="125.2451">Medarbejder PC</text><text fill="#000000" font-family="sans-serif" font-size="14" font-style="italic" lengthAdjust="spacingAndGlyphs" textLength="56" x="476.5" y="43.9482">«device»</text><!--MD5=[2c4d6263d6a9c508a624946e4f5b83db]
entity login--><ellipse cx="504.5" cy="471.75" fill="#FEFECE" filter="url(#f1hh1ony3yz06k)" rx="8" ry="8" style="stroke: #A80036; stroke-width: 1.5;"/><path d="M504.5,479.75 L504.5,506.75 M491.5,487.75 L517.5,487.75 M504.5,506.75 L491.5,521.75 M504.5,506.75 L517.5,521.75 " fill="none" filter="url(#f1hh1ony3yz06k)" style="stroke: #A80036; stroke-width: 1.5;"/><text fill="#000000" font-family="sans-serif" font-size="14" lengthAdjust="spacingAndGlyphs" textLength="97" x="456" y="540.2451">DDB CMS /user</text><text fill="#000000" font-family="sans-serif" font-size="14" font-style="italic" lengthAdjust="spacingAndGlyphs" textLength="84" x="462.5" y="458.9482">«application»</text><!--MD5=[6799365375a0eb44264d00d13b7caeb0]
link medarbejder to 1. Log ind--><path d="M98.0908,339.9222 C125.0816,360.158 160.5444,384.4059 195,400.9531 C213.8096,409.9863 235.7711,417.2572 254.4882,422.5715 " fill="none" id="medarbejder-&gt;1. Log ind" style="stroke: #A80036; stroke-width: 1.0;"/><polygon fill="#A80036" points="259.676,424.0183,252.0815,417.7475,254.8598,422.675,249.9322,425.4533,259.676,424.0183" style="stroke: #A80036; stroke-width: 1.0;"/><!--MD5=[2f2dfcb52cade2fc05f4ab661d19f9b7]
reverse link 1. Log ind to login--><path d="M335.7007,444.5167 C369.706,454.6773 419.3392,469.5075 455.9896,480.4584 " fill="none" id="1. Log ind&lt;-login" style="stroke: #A80036; stroke-width: 1.0;"/><polygon fill="#A80036" points="330.8003,443.0525,338.2785,449.4617,335.591,444.484,340.5687,441.7965,330.8003,443.0525" style="stroke: #A80036; stroke-width: 1.0;"/><!--MD5=[e84ead6409f6d3238d1ea38738e81276]
link medarbejder to 3. Hent billeder--><path d="M84.0477,253.7092 C110.3784,216.1521 150.4862,165.0684 195,129.9531 C213.128,115.6526 236.0088,103.9746 255.5035,95.5113 " fill="none" id="medarbejder-&gt;3. Hent billeder" style="stroke: #A80036; stroke-width: 1.0;"/><polygon fill="#A80036" points="260.3819,93.4293,250.5341,93.2832,255.7832,95.392,253.6744,100.6411,260.3819,93.4293" style="stroke: #A80036; stroke-width: 1.0;"/><!--MD5=[5de1853a03fda3a92cb3ff01725b76e1]
reverse link Godkend opløsning to cover--><path d="M354.653,180.4011 C386.3553,188.3458 425.2655,198.0968 455.4902,205.6711 " fill="none" id="Godkend opløsning&lt;-cover" style="stroke: #A80036; stroke-width: 1.0;"/><polygon fill="#A80036" points="349.6293,179.1421,357.387,185.2099,354.4793,180.3576,359.3317,177.4499,349.6293,179.1421" style="stroke: #A80036; stroke-width: 1.0;"/><!--MD5=[c5218328fe45a6ae59c3556abc744f17]
reverse link 3. Hent billeder to computer--><path d="M369.7915,79.9531 C397.5077,79.9531 428.4688,79.9531 453.7133,79.9531 " fill="none" id="3. Hent billeder&lt;-computer" style="stroke: #A80036; stroke-width: 1.0;"/><polygon fill="#A80036" points="364.6561,79.9531,373.6561,83.9531,369.6561,79.9531,373.6561,75.9531,364.6561,79.9531" style="stroke: #A80036; stroke-width: 1.0;"/><!--MD5=[176a67f4b25675b000d64bf09312f515]
link Godkend opløsning to 3. Hent billeder--><path d="M297,147.7147 C297,134.1017 297,115.4661 297,101.1832 " fill="none" id="Godkend opløsning-&gt;3. Hent billeder" style="stroke: #A80036; stroke-width: 1.0; stroke-dasharray: 7.0,7.0;"/><polygon fill="#A80036" points="297,96.1354,293,105.1354,297,101.1354,301,105.1354,297,96.1354" style="stroke: #A80036; stroke-width: 1.0;"/><text fill="#000000" font-family="sans-serif" font-size="13" lengthAdjust="spacingAndGlyphs" textLength="47" x="262" y="126.52">extends</text><!--MD5=[5a9e1756214cc288b152199bc95f9837]
link medarbejder to 2. Fremsøg materiale \n fx pid eller faust --><path d="M85.1644,351.9935 C111.3764,387.5414 150.8188,434.5239 195,464.9531 C206.8405,473.1081 220.4716,480.169 233.8355,486.0789 " fill="none" id="medarbejder-&gt;2. Fremsøg materiale \n fx pid eller faust " style="stroke: #A80036; stroke-width: 1.0;"/><polygon fill="#A80036" points="238.7431,488.204,232.0739,480.9569,234.1549,486.217,228.8947,488.2981,238.7431,488.204" style="stroke: #A80036; stroke-width: 1.0;"/><!--MD5=[feead1b6684c973e0d781078dfd675c2]
link medarbejder to 4. Verificer match--><path d="M98.0032,286.4598 C107.8482,283.1427 118.2273,279.8037 128,276.9531 C164.453,266.3201 205.8793,256.2388 238.5935,248.7336 " fill="none" id="medarbejder-&gt;4. Verificer match" style="stroke: #A80036; stroke-width: 1.0;"/><polygon fill="#A80036" points="243.767,247.5515,234.1021,245.657,238.8926,248.6654,235.8843,253.456,243.767,247.5515" style="stroke: #A80036; stroke-width: 1.0;"/><!--MD5=[5f7f1888927161c29ab208c72be60576]
link 4. Verificer match to Hent metadata--><path d="M243.6698,247.5052 C227.0199,252.8132 209.2895,260.3633 195,270.9531 C151.5551,303.1498 127.6378,319.4043 152,347.4531 C172.3304,370.86 206.1938,376.6188 236.0841,376.2316 " fill="none" id="4. Verificer match-&gt;Hent metadata" style="stroke: #A80036; stroke-width: 1.0; stroke-dasharray: 7.0,7.0;"/><polygon fill="#A80036" points="241.2284,376.1049,232.1325,372.3281,236.2299,376.2282,232.3298,380.3256,241.2284,376.1049" style="stroke: #A80036; stroke-width: 1.0;"/><text fill="#000000" font-family="sans-serif" font-size="13" lengthAdjust="spacingAndGlyphs" textLength="43" x="129" y="343.52">include</text><!--MD5=[f531b07493633f7186bbef71c519388e]
reverse link Hent metadata to search--><path d="M367.2076,365.923 C394.876,365.1229 426.1108,364.2198 451.79,363.4772 " fill="none" id="Hent metadata&lt;-search" style="stroke: #A80036; stroke-width: 1.0;"/><polygon fill="#A80036" points="362.085,366.0711,371.1969,369.8092,367.0829,365.9266,370.9656,361.8126,362.085,366.0711" style="stroke: #A80036; stroke-width: 1.0;"/><!--MD5=[b03996bf0563a01e50a58bd2e7bbdcef]
link medarbejder to 5. Upload--><path d="M98.0826,302.9531 C140.0405,302.9531 201.9128,302.9531 245.4875,302.9531 " fill="none" id="medarbejder-&gt;5. Upload" style="stroke: #A80036; stroke-width: 1.0;"/><polygon fill="#A80036" points="250.7082,302.9531,241.7082,298.9531,245.7082,302.9531,241.7082,306.9531,250.7082,302.9531" style="stroke: #A80036; stroke-width: 1.0;"/><!--MD5=[d294c9d3ba0d79e8d320d3843f42a497]
reverse link 5. Upload to cover--><path d="M336.7112,291.5721 C355.7818,285.7364 378.8214,278.1398 399,269.9531 C417.7327,262.353 437.7546,252.8544 455.2669,244.0623 " fill="none" id="5. Upload&lt;-cover" style="stroke: #A80036; stroke-width: 1.0;"/><polygon fill="#A80036" points="331.4432,293.1704,341.2169,294.385,336.2278,291.7187,338.8941,286.7296,331.4432,293.1704" style="stroke: #A80036; stroke-width: 1.0;"/><!--MD5=[966b7e5ab16ea46d0949d226dbdbcbe2]
@startuml

title "DDB Cover service - Upload - usecase diagram"

left to right direction
skinparam packageStyle rectangle

actor "Medarbejder \n på et bibliotek" as medarbejder
actor "Platform /cover" <<application>> as cover
actor "Platform /search" <<application>> as search
actor "Medarbejder PC" <<device>> as computer
actor "DDB CMS /user" <<application>> as login

rectangle "Upload materialeforside" {


    :medarbejder: - -> (1. Log ind)
    (1. Log ind) <- - :login:
   
    :medarbejder: - -> (3. Hent billeder)
    (Godkend opløsning) <- - :cover:
    (3. Hent billeder) <- - :computer:
    (Godkend opløsning) .> (3. Hent billeder) : extends
    :medarbejder: - -> (2. Fremsøg materiale \n fx pid eller faust )
    
    :medarbejder: - -> (4. Verificer match)
    (4. Verificer match) .> (Hent metadata) : include
    (Hent metadata) <- - :search:

    :medarbejder: - -> (5. Upload)
    (5. Upload) <- - :cover:
}

@enduml

PlantUML version 1.2019.13(Tue Dec 10 17:18:29 GMT 2019)
(GPL source distribution)
Java Runtime: Java(TM) SE Runtime Environment
JVM: Java HotSpot(TM) 64-Bit Server VM
Java Version: 1.8.0_202-b08
Operating System: Linux
Default Encoding: ANSI_X3.4-1968
Language: en
Country: US
--></g></svg>