<?xml version="1.0" encoding="UTF-8" standalone="no"?><svg xmlns="http://www.w3.org/2000/svg" xmlns:xlink="http://www.w3.org/1999/xlink" contentScriptType="application/ecmascript" contentStyleType="text/css" height="883px" preserveAspectRatio="none" style="width:998px;height:883px;" version="1.1" viewBox="0 0 998 883" width="998px" zoomAndPan="magnify"><defs><filter height="300%" id="fhj7lfngxdryn" width="300%" x="-1" y="-1"><feGaussianBlur result="blurOut" stdDeviation="2.0"/><feColorMatrix in="blurOut" result="blurOut2" type="matrix" values="0 0 0 0 0 0 0 0 0 0 0 0 0 0 0 0 0 0 .4 0"/><feOffset dx="4.0" dy="4.0" in="blurOut2" result="blurOut3"/><feBlend in="SourceGraphic" in2="blurOut3" mode="normal"/></filter></defs><g><text fill="#000000" font-family="sans-serif" font-size="14" font-weight="bold" lengthAdjust="spacingAndGlyphs" textLength="382" x="303.75" y="22.9951">"DDB Cover service - Delete image - Sequence diagram"</text><line style="stroke: #A80036; stroke-width: 1.0; stroke-dasharray: 5.0,5.0;" x1="45" x2="45" y1="132.8906" y2="779.8125"/><line style="stroke: #A80036; stroke-width: 1.0; stroke-dasharray: 5.0,5.0;" x1="347" x2="347" y1="132.8906" y2="779.8125"/><line style="stroke: #A80036; stroke-width: 1.0; stroke-dasharray: 5.0,5.0;" x1="632.5" x2="632.5" y1="132.8906" y2="779.8125"/><line style="stroke: #A80036; stroke-width: 1.0; stroke-dasharray: 5.0,5.0;" x1="918.5" x2="918.5" y1="132.8906" y2="779.8125"/><text fill="#000000" font-family="sans-serif" font-size="14" lengthAdjust="spacingAndGlyphs" textLength="48" x="16" y="113.292">Library-</text><text fill="#000000" font-family="sans-serif" font-size="14" lengthAdjust="spacingAndGlyphs" textLength="64" x="12" y="129.5889">employee</text><ellipse cx="45" cy="43.2969" fill="#FEFECE" filter="url(#fhj7lfngxdryn)" rx="8" ry="8" style="stroke: #A80036; stroke-width: 2.0;"/><path d="M45,51.2969 L45,78.2969 M32,59.2969 L58,59.2969 M45,78.2969 L32,93.2969 M45,78.2969 L58,93.2969 " fill="none" filter="url(#fhj7lfngxdryn)" style="stroke: #A80036; stroke-width: 2.0;"/><text fill="#000000" font-family="sans-serif" font-size="14" lengthAdjust="spacingAndGlyphs" textLength="48" x="16" y="791.8076">Library-</text><text fill="#000000" font-family="sans-serif" font-size="14" lengthAdjust="spacingAndGlyphs" textLength="64" x="12" y="808.1045">employee</text><ellipse cx="45" cy="821.4063" fill="#FEFECE" filter="url(#fhj7lfngxdryn)" rx="8" ry="8" style="stroke: #A80036; stroke-width: 2.0;"/><path d="M45,829.4063 L45,856.4063 M32,837.4063 L58,837.4063 M45,856.4063 L32,871.4063 M45,856.4063 L58,871.4063 " fill="none" filter="url(#fhj7lfngxdryn)" style="stroke: #A80036; stroke-width: 2.0;"/><text fill="#000000" font-family="sans-serif" font-size="14" lengthAdjust="spacingAndGlyphs" textLength="45" x="319.5" y="113.292">Upload</text><text fill="#000000" font-family="sans-serif" font-size="14" lengthAdjust="spacingAndGlyphs" textLength="56" x="318" y="129.5889">interface</text><path d="M326.5,72.2969 L326.5,96.2969 M326.5,84.2969 L343.5,84.2969 " fill="none" filter="url(#fhj7lfngxdryn)" style="stroke: #A80036; stroke-width: 2.0;"/><ellipse cx="355.5" cy="84.2969" fill="#FEFECE" filter="url(#fhj7lfngxdryn)" rx="12" ry="12" style="stroke: #A80036; stroke-width: 2.0;"/><text fill="#000000" font-family="sans-serif" font-size="14" lengthAdjust="spacingAndGlyphs" textLength="45" x="319.5" y="791.8076">Upload</text><text fill="#000000" font-family="sans-serif" font-size="14" lengthAdjust="spacingAndGlyphs" textLength="56" x="318" y="808.1045">interface</text><path d="M326.5,815.4063 L326.5,839.4063 M326.5,827.4063 L343.5,827.4063 " fill="none" filter="url(#fhj7lfngxdryn)" style="stroke: #A80036; stroke-width: 2.0;"/><ellipse cx="355.5" cy="827.4063" fill="#FEFECE" filter="url(#fhj7lfngxdryn)" rx="12" ry="12" style="stroke: #A80036; stroke-width: 2.0;"/><text fill="#000000" font-family="sans-serif" font-size="14" lengthAdjust="spacingAndGlyphs" textLength="93" x="581.5" y="113.292">Open Platform</text><text fill="#000000" font-family="sans-serif" font-size="14" lengthAdjust="spacingAndGlyphs" textLength="40" x="612" y="129.5889">/cover</text><path d="M612.5,72.2969 L612.5,96.2969 M612.5,84.2969 L629.5,84.2969 " fill="none" filter="url(#fhj7lfngxdryn)" style="stroke: #A80036; stroke-width: 2.0;"/><ellipse cx="641.5" cy="84.2969" fill="#FEFECE" filter="url(#fhj7lfngxdryn)" rx="12" ry="12" style="stroke: #A80036; stroke-width: 2.0;"/><text fill="#000000" font-family="sans-serif" font-size="14" lengthAdjust="spacingAndGlyphs" textLength="93" x="581.5" y="791.8076">Open Platform</text><text fill="#000000" font-family="sans-serif" font-size="14" lengthAdjust="spacingAndGlyphs" textLength="40" x="612" y="808.1045">/cover</text><path d="M612.5,815.4063 L612.5,839.4063 M612.5,827.4063 L629.5,827.4063 " fill="none" filter="url(#fhj7lfngxdryn)" style="stroke: #A80036; stroke-width: 2.0;"/><ellipse cx="641.5" cy="827.4063" fill="#FEFECE" filter="url(#fhj7lfngxdryn)" rx="12" ry="12" style="stroke: #A80036; stroke-width: 2.0;"/><text fill="#000000" font-family="sans-serif" font-size="14" lengthAdjust="spacingAndGlyphs" textLength="119" x="856.5" y="129.5889">DDB Cover service</text><path d="M898.5,88.5938 L898.5,112.5938 M898.5,100.5938 L915.5,100.5938 " fill="none" filter="url(#fhj7lfngxdryn)" style="stroke: #A80036; stroke-width: 2.0;"/><ellipse cx="927.5" cy="100.5938" fill="#FEFECE" filter="url(#fhj7lfngxdryn)" rx="12" ry="12" style="stroke: #A80036; stroke-width: 2.0;"/><text fill="#000000" font-family="sans-serif" font-size="14" lengthAdjust="spacingAndGlyphs" textLength="119" x="856.5" y="791.8076">DDB Cover service</text><path d="M898.5,799.1094 L898.5,823.1094 M898.5,811.1094 L915.5,811.1094 " fill="none" filter="url(#fhj7lfngxdryn)" style="stroke: #A80036; stroke-width: 2.0;"/><ellipse cx="927.5" cy="811.1094" fill="#FEFECE" filter="url(#fhj7lfngxdryn)" rx="12" ry="12" style="stroke: #A80036; stroke-width: 2.0;"/><rect fill="#EEEEEE" filter="url(#fhj7lfngxdryn)" height="3" style="stroke: #EEEEEE; stroke-width: 1.0;" width="983.5" x="3" y="163.457"/><line style="stroke: #000000; stroke-width: 1.0;" x1="3" x2="986.5" y1="163.457" y2="163.457"/><line style="stroke: #000000; stroke-width: 1.0;" x1="3" x2="986.5" y1="166.457" y2="166.457"/><rect fill="#EEEEEE" filter="url(#fhj7lfngxdryn)" height="23.1328" style="stroke: #000000; stroke-width: 2.0;" width="54" x="467.75" y="152.8906"/><text fill="#000000" font-family="sans-serif" font-size="13" font-weight="bold" lengthAdjust="spacingAndGlyphs" textLength="37" x="473.75" y="168.9575">Log in</text><polygon fill="#A80036" points="335,203.1563,345,207.1563,335,211.1563,339,207.1563" style="stroke: #A80036; stroke-width: 1.0;"/><line style="stroke: #A80036; stroke-width: 1.0;" x1="45" x2="341" y1="207.1563" y2="207.1563"/><text fill="#000000" font-family="sans-serif" font-size="13" lengthAdjust="spacingAndGlyphs" textLength="46" x="52" y="202.0903">Log ind.</text><polygon fill="#A80036" points="56,232.2891,46,236.2891,56,240.2891,52,236.2891" style="stroke: #A80036; stroke-width: 1.0;"/><line style="stroke: #A80036; stroke-width: 1.0; stroke-dasharray: 2.0,2.0;" x1="50" x2="346" y1="236.2891" y2="236.2891"/><text fill="#000000" font-family="sans-serif" font-size="13" lengthAdjust="spacingAndGlyphs" textLength="68" x="62" y="231.2231">Logged ind.</text><rect fill="#EEEEEE" filter="url(#fhj7lfngxdryn)" height="3" style="stroke: #EEEEEE; stroke-width: 1.0;" width="983.5" x="3" y="264.8555"/><line style="stroke: #000000; stroke-width: 1.0;" x1="3" x2="986.5" y1="264.8555" y2="264.8555"/><line style="stroke: #000000; stroke-width: 1.0;" x1="3" x2="986.5" y1="267.8555" y2="267.8555"/><rect fill="#EEEEEE" filter="url(#fhj7lfngxdryn)" height="23.1328" style="stroke: #000000; stroke-width: 2.0;" width="397" x="296.25" y="254.2891"/><text fill="#000000" font-family="sans-serif" font-size="13" font-weight="bold" lengthAdjust="spacingAndGlyphs" textLength="380" x="302.25" y="270.356">Request list of images uploaded by employees at the library</text><polygon fill="#A80036" points="335,319.6875,345,323.6875,335,327.6875,339,323.6875" style="stroke: #A80036; stroke-width: 1.0;"/><line style="stroke: #A80036; stroke-width: 1.0;" x1="45" x2="341" y1="323.6875" y2="323.6875"/><text fill="#000000" font-family="sans-serif" font-size="13" lengthAdjust="spacingAndGlyphs" textLength="126" x="52" y="303.4888">Request list of images</text><text fill="#000000" font-family="sans-serif" font-size="13" lengthAdjust="spacingAndGlyphs" textLength="219" x="55" y="318.6216">the library employees have uploaded.</text><polygon fill="#A80036" points="621,363.9531,631,367.9531,621,371.9531,625,367.9531" style="stroke: #A80036; stroke-width: 1.0;"/><line style="stroke: #A80036; stroke-width: 1.0;" x1="347" x2="627" y1="367.9531" y2="367.9531"/><text fill="#000000" font-family="sans-serif" font-size="13" lengthAdjust="spacingAndGlyphs" textLength="126" x="354" y="347.7544">Request list of images</text><text fill="#000000" font-family="sans-serif" font-size="13" lengthAdjust="spacingAndGlyphs" textLength="219" x="357" y="362.8872">the library employees have uploaded.</text><polygon fill="#A80036" points="907,408.2188,917,412.2188,907,416.2188,911,412.2188" style="stroke: #A80036; stroke-width: 1.0;"/><line style="stroke: #A80036; stroke-width: 1.0;" x1="633" x2="913" y1="412.2188" y2="412.2188"/><text fill="#000000" font-family="sans-serif" font-size="13" lengthAdjust="spacingAndGlyphs" textLength="126" x="640" y="392.02">Request list of images</text><text fill="#000000" font-family="sans-serif" font-size="13" lengthAdjust="spacingAndGlyphs" textLength="219" x="643" y="407.1528">the library employees have uploaded.</text><polygon fill="#A80036" points="644,437.3516,634,441.3516,644,445.3516,640,441.3516" style="stroke: #A80036; stroke-width: 1.0;"/><line style="stroke: #A80036; stroke-width: 1.0; stroke-dasharray: 2.0,2.0;" x1="638" x2="918" y1="441.3516" y2="441.3516"/><text fill="#000000" font-family="sans-serif" font-size="13" lengthAdjust="spacingAndGlyphs" textLength="121" x="650" y="436.2856">Return list of images.</text><polygon fill="#A80036" points="358,466.4844,348,470.4844,358,474.4844,354,470.4844" style="stroke: #A80036; stroke-width: 1.0;"/><line style="stroke: #A80036; stroke-width: 1.0; stroke-dasharray: 2.0,2.0;" x1="352" x2="632" y1="470.4844" y2="470.4844"/><text fill="#000000" font-family="sans-serif" font-size="13" lengthAdjust="spacingAndGlyphs" textLength="121" x="364" y="465.4185">Return list of images.</text><polygon fill="#A80036" points="56,510.75,46,514.75,56,518.75,52,514.75" style="stroke: #A80036; stroke-width: 1.0;"/><line style="stroke: #A80036; stroke-width: 1.0; stroke-dasharray: 2.0,2.0;" x1="50" x2="346" y1="514.75" y2="514.75"/><text fill="#000000" font-family="sans-serif" font-size="13" lengthAdjust="spacingAndGlyphs" textLength="120" x="62" y="494.5513">Display list of images</text><text fill="#000000" font-family="sans-serif" font-size="13" lengthAdjust="spacingAndGlyphs" textLength="219" x="65" y="509.6841">the library employees have uploaded.</text><rect fill="#EEEEEE" filter="url(#fhj7lfngxdryn)" height="3" style="stroke: #EEEEEE; stroke-width: 1.0;" width="983.5" x="3" y="543.3164"/><line style="stroke: #000000; stroke-width: 1.0;" x1="3" x2="986.5" y1="543.3164" y2="543.3164"/><line style="stroke: #000000; stroke-width: 1.0;" x1="3" x2="986.5" y1="546.3164" y2="546.3164"/><rect fill="#EEEEEE" filter="url(#fhj7lfngxdryn)" height="23.1328" style="stroke: #000000; stroke-width: 2.0;" width="337" x="326.25" y="532.75"/><text fill="#000000" font-family="sans-serif" font-size="13" font-weight="bold" lengthAdjust="spacingAndGlyphs" textLength="320" x="332.25" y="548.8169">Delete image uploaded by employee at the library</text><polygon fill="#A80036" points="335,583.0156,345,587.0156,335,591.0156,339,587.0156" style="stroke: #A80036; stroke-width: 1.0;"/><line style="stroke: #A80036; stroke-width: 1.0;" x1="45" x2="341" y1="587.0156" y2="587.0156"/><text fill="#000000" font-family="sans-serif" font-size="13" lengthAdjust="spacingAndGlyphs" textLength="78" x="52" y="581.9497">Delete image.</text><polygon fill="#A80036" points="621,612.1484,631,616.1484,621,620.1484,625,616.1484" style="stroke: #A80036; stroke-width: 1.0;"/><line style="stroke: #A80036; stroke-width: 1.0;" x1="347" x2="627" y1="616.1484" y2="616.1484"/><text fill="#000000" font-family="sans-serif" font-size="13" lengthAdjust="spacingAndGlyphs" textLength="196" x="354" y="611.0825">Delete image and Datawell object.</text><polygon fill="#A80036" points="907,641.2813,917,645.2813,907,649.2813,911,645.2813" style="stroke: #A80036; stroke-width: 1.0;"/><line style="stroke: #A80036; stroke-width: 1.0;" x1="633" x2="913" y1="645.2813" y2="645.2813"/><text fill="#000000" font-family="sans-serif" font-size="13" lengthAdjust="spacingAndGlyphs" textLength="196" x="640" y="640.2153">Delete image and Datawell object.</text><polygon fill="#A80036" points="644,670.4141,634,674.4141,644,678.4141,640,674.4141" style="stroke: #A80036; stroke-width: 1.0;"/><line style="stroke: #A80036; stroke-width: 1.0; stroke-dasharray: 2.0,2.0;" x1="638" x2="918" y1="674.4141" y2="674.4141"/><text fill="#000000" font-family="sans-serif" font-size="13" lengthAdjust="spacingAndGlyphs" textLength="262" x="650" y="669.3481">Message: Image and Datawell object deleted.</text><polygon fill="#A80036" points="358,699.5469,348,703.5469,358,707.5469,354,703.5469" style="stroke: #A80036; stroke-width: 1.0;"/><line style="stroke: #A80036; stroke-width: 1.0; stroke-dasharray: 2.0,2.0;" x1="352" x2="632" y1="703.5469" y2="703.5469"/><text fill="#000000" font-family="sans-serif" font-size="13" lengthAdjust="spacingAndGlyphs" textLength="262" x="364" y="698.481">Message: Image and Datawell object deleted.</text><polygon fill="#A80036" points="56,728.6797,46,732.6797,56,736.6797,52,732.6797" style="stroke: #A80036; stroke-width: 1.0;"/><line style="stroke: #A80036; stroke-width: 1.0; stroke-dasharray: 2.0,2.0;" x1="50" x2="346" y1="732.6797" y2="732.6797"/><text fill="#000000" font-family="sans-serif" font-size="13" lengthAdjust="spacingAndGlyphs" textLength="262" x="62" y="727.6138">Message: Image and Datawell object deleted.</text><polygon fill="#A80036" points="56,757.8125,46,761.8125,56,765.8125,52,761.8125" style="stroke: #A80036; stroke-width: 1.0;"/><line style="stroke: #A80036; stroke-width: 1.0; stroke-dasharray: 2.0,2.0;" x1="50" x2="346" y1="761.8125" y2="761.8125"/><text fill="#000000" font-family="sans-serif" font-size="13" lengthAdjust="spacingAndGlyphs" textLength="278" x="62" y="756.7466">Display list of images without the deleted image.</text><!--MD5=[65ee78c441774a5c89fe740660efa124]
@startuml

title "DDB Cover service - Delete image - Sequence diagram"

actor "Library- \n employee" as employee
boundary "Upload \n interface" as upload
boundary "Open Platform \n /cover" as OPcover
boundary "DDB Cover service" as cover

== Log in ==

employee->upload: Log ind.
employee<- -upload: Logged ind.

== Request list of images uploaded by employees at the library ==
    employee->upload: Request list of images \n the library employees have uploaded.
        upload->OPcover:  Request list of images \n the library employees have uploaded.
            OPcover->cover:  Request list of images \n the library employees have uploaded.
            OPcover<- -cover:  Return list of images.
        upload<- -OPcover:  Return list of images.
    upload- ->employee: Display list of images \n the library employees have uploaded.

== Delete image uploaded by employee at the library ==            

    employee->upload: Delete image.
        upload->OPcover: Delete image and Datawell object.
            OPcover->cover: Delete image and Datawell object.
            OPcover<- -cover: Message: Image and Datawell object deleted.
        upload<- -OPcover: Message: Image and Datawell object deleted.
    employee<- -upload: Message: Image and Datawell object deleted.
    employee<- -upload: Display list of images without the deleted image.

@enduml

PlantUML version 1.2019.13(Tue Dec 10 17:18:29 GMT 2019)
(GPL source distribution)
Java Runtime: Java(TM) SE Runtime Environment
JVM: Java HotSpot(TM) 64-Bit Server VM
Java Version: 1.8.0_202-b08
Operating System: Linux
Default Encoding: ANSI_X3.4-1968
Language: en
Country: US
--></g></svg>