<?xml version="1.0" encoding="UTF-8" standalone="no"?><svg xmlns="http://www.w3.org/2000/svg" xmlns:xlink="http://www.w3.org/1999/xlink" contentScriptType="application/ecmascript" contentStyleType="text/css" height="1867px" preserveAspectRatio="none" style="width:1025px;height:1867px;" version="1.1" viewBox="0 0 1025 1867" width="1025px" zoomAndPan="magnify"><defs><filter height="300%" id="f1i28u7hrtu9k3" width="300%" x="-1" y="-1"><feGaussianBlur result="blurOut" stdDeviation="2.0"/><feColorMatrix in="blurOut" result="blurOut2" type="matrix" values="0 0 0 0 0 0 0 0 0 0 0 0 0 0 0 0 0 0 .4 0"/><feOffset dx="4.0" dy="4.0" in="blurOut2" result="blurOut3"/><feBlend in="SourceGraphic" in2="blurOut3" mode="normal"/></filter></defs><g><text fill="#000000" font-family="sans-serif" font-size="14" font-weight="bold" lengthAdjust="spacingAndGlyphs" textLength="340" x="338.25" y="37.6357">"DDB Cover service - Upload - Sequence diagram"</text><rect fill="#FFFFFF" filter="url(#f1i28u7hrtu9k3)" height="1016.8672" style="stroke: #000000; stroke-width: 2.0;" width="990.5" x="13" y="454.7266"/><rect fill="#FFFFFF" filter="url(#f1i28u7hrtu9k3)" height="224.6719" style="stroke: #000000; stroke-width: 2.0;" width="380.5" x="263" y="478.8594"/><rect fill="#FFFFFF" filter="url(#f1i28u7hrtu9k3)" height="105.3359" style="stroke: #000000; stroke-width: 2.0;" width="360.5" x="273" y="532.125"/><rect fill="#FFFFFF" height="59.0703" style="stroke: none; stroke-width: 1.0;" width="360.5" x="273" y="578.3906"/><rect fill="#FFFFFF" height="59.0703" style="stroke: none; stroke-width: 1.0;" width="380.5" x="263" y="644.4609"/><rect fill="#FFFFFF" filter="url(#f1i28u7hrtu9k3)" height="148.4688" style="stroke: #000000; stroke-width: 2.0;" width="336" x="23" y="760.6641"/><rect fill="#FFFFFF" height="102.2031" style="stroke: none; stroke-width: 1.0;" width="336" x="23" y="806.9297"/><rect fill="#FFFFFF" filter="url(#f1i28u7hrtu9k3)" height="263" style="stroke: #000000; stroke-width: 2.0;" width="505" x="23" y="1201.5938"/><rect fill="#FFFFFF" height="130.3359" style="stroke: none; stroke-width: 1.0;" width="505" x="23" y="1334.2578"/><line style="stroke: #A80036; stroke-width: 1.0; stroke-dasharray: 5.0,5.0;" x1="70" x2="70" y1="147.5313" y2="1763.7891"/><line style="stroke: #A80036; stroke-width: 1.0; stroke-dasharray: 5.0,5.0;" x1="151" x2="151" y1="147.5313" y2="1763.7891"/><line style="stroke: #A80036; stroke-width: 1.0; stroke-dasharray: 5.0,5.0;" x1="316" x2="316" y1="147.5313" y2="1763.7891"/><line style="stroke: #A80036; stroke-width: 1.0; stroke-dasharray: 5.0,5.0;" x1="571.5" x2="571.5" y1="147.5313" y2="1763.7891"/><line style="stroke: #A80036; stroke-width: 1.0; stroke-dasharray: 5.0,5.0;" x1="684.5" x2="684.5" y1="147.5313" y2="1763.7891"/><line style="stroke: #A80036; stroke-width: 1.0; stroke-dasharray: 5.0,5.0;" x1="930.5" x2="930.5" y1="147.5313" y2="1763.7891"/><text fill="#000000" font-family="sans-serif" font-size="14" lengthAdjust="spacingAndGlyphs" textLength="48" x="41" y="127.9326">Library-</text><text fill="#000000" font-family="sans-serif" font-size="14" lengthAdjust="spacingAndGlyphs" textLength="64" x="37" y="144.2295">employee</text><ellipse cx="70" cy="57.9375" fill="#FEFECE" filter="url(#f1i28u7hrtu9k3)" rx="8" ry="8" style="stroke: #A80036; stroke-width: 2.0;"/><path d="M70,65.9375 L70,92.9375 M57,73.9375 L83,73.9375 M70,92.9375 L57,107.9375 M70,92.9375 L83,107.9375 " fill="none" filter="url(#f1i28u7hrtu9k3)" style="stroke: #A80036; stroke-width: 2.0;"/><text fill="#000000" font-family="sans-serif" font-size="14" lengthAdjust="spacingAndGlyphs" textLength="48" x="41" y="1775.7842">Library-</text><text fill="#000000" font-family="sans-serif" font-size="14" lengthAdjust="spacingAndGlyphs" textLength="64" x="37" y="1792.0811">employee</text><ellipse cx="70" cy="1805.3828" fill="#FEFECE" filter="url(#f1i28u7hrtu9k3)" rx="8" ry="8" style="stroke: #A80036; stroke-width: 2.0;"/><path d="M70,1813.3828 L70,1840.3828 M57,1821.3828 L83,1821.3828 M70,1840.3828 L57,1855.3828 M70,1840.3828 L83,1855.3828 " fill="none" filter="url(#f1i28u7hrtu9k3)" style="stroke: #A80036; stroke-width: 2.0;"/><text fill="#000000" font-family="sans-serif" font-size="14" lengthAdjust="spacingAndGlyphs" textLength="62" x="117" y="144.2295">computer</text><path d="M130.5,103.2344 L130.5,127.2344 M130.5,115.2344 L147.5,115.2344 " fill="none" filter="url(#f1i28u7hrtu9k3)" style="stroke: #A80036; stroke-width: 2.0;"/><ellipse cx="159.5" cy="115.2344" fill="#FEFECE" filter="url(#f1i28u7hrtu9k3)" rx="12" ry="12" style="stroke: #A80036; stroke-width: 2.0;"/><text fill="#000000" font-family="sans-serif" font-size="14" lengthAdjust="spacingAndGlyphs" textLength="62" x="117" y="1775.7842">computer</text><path d="M130.5,1783.0859 L130.5,1807.0859 M130.5,1795.0859 L147.5,1795.0859 " fill="none" filter="url(#f1i28u7hrtu9k3)" style="stroke: #A80036; stroke-width: 2.0;"/><ellipse cx="159.5" cy="1795.0859" fill="#FEFECE" filter="url(#f1i28u7hrtu9k3)" rx="12" ry="12" style="stroke: #A80036; stroke-width: 2.0;"/><text fill="#000000" font-family="sans-serif" font-size="14" lengthAdjust="spacingAndGlyphs" textLength="45" x="288.5" y="127.9326">Upload</text><text fill="#000000" font-family="sans-serif" font-size="14" lengthAdjust="spacingAndGlyphs" textLength="56" x="287" y="144.2295">interface</text><path d="M295.5,86.9375 L295.5,110.9375 M295.5,98.9375 L312.5,98.9375 " fill="none" filter="url(#f1i28u7hrtu9k3)" style="stroke: #A80036; stroke-width: 2.0;"/><ellipse cx="324.5" cy="98.9375" fill="#FEFECE" filter="url(#f1i28u7hrtu9k3)" rx="12" ry="12" style="stroke: #A80036; stroke-width: 2.0;"/><text fill="#000000" font-family="sans-serif" font-size="14" lengthAdjust="spacingAndGlyphs" textLength="45" x="288.5" y="1775.7842">Upload</text><text fill="#000000" font-family="sans-serif" font-size="14" lengthAdjust="spacingAndGlyphs" textLength="56" x="287" y="1792.0811">interface</text><path d="M295.5,1799.3828 L295.5,1823.3828 M295.5,1811.3828 L312.5,1811.3828 " fill="none" filter="url(#f1i28u7hrtu9k3)" style="stroke: #A80036; stroke-width: 2.0;"/><ellipse cx="324.5" cy="1811.3828" fill="#FEFECE" filter="url(#f1i28u7hrtu9k3)" rx="12" ry="12" style="stroke: #A80036; stroke-width: 2.0;"/><text fill="#000000" font-family="sans-serif" font-size="14" lengthAdjust="spacingAndGlyphs" textLength="93" x="520.5" y="127.9326">Open Platform</text><text fill="#000000" font-family="sans-serif" font-size="14" lengthAdjust="spacingAndGlyphs" textLength="47" x="547.5" y="144.2295">/search</text><path d="M551.5,86.9375 L551.5,110.9375 M551.5,98.9375 L568.5,98.9375 " fill="none" filter="url(#f1i28u7hrtu9k3)" style="stroke: #A80036; stroke-width: 2.0;"/><ellipse cx="580.5" cy="98.9375" fill="#FEFECE" filter="url(#f1i28u7hrtu9k3)" rx="12" ry="12" style="stroke: #A80036; stroke-width: 2.0;"/><text fill="#000000" font-family="sans-serif" font-size="14" lengthAdjust="spacingAndGlyphs" textLength="93" x="520.5" y="1775.7842">Open Platform</text><text fill="#000000" font-family="sans-serif" font-size="14" lengthAdjust="spacingAndGlyphs" textLength="47" x="547.5" y="1792.0811">/search</text><path d="M551.5,1799.3828 L551.5,1823.3828 M551.5,1811.3828 L568.5,1811.3828 " fill="none" filter="url(#f1i28u7hrtu9k3)" style="stroke: #A80036; stroke-width: 2.0;"/><ellipse cx="580.5" cy="1811.3828" fill="#FEFECE" filter="url(#f1i28u7hrtu9k3)" rx="12" ry="12" style="stroke: #A80036; stroke-width: 2.0;"/><text fill="#000000" font-family="sans-serif" font-size="14" lengthAdjust="spacingAndGlyphs" textLength="93" x="633.5" y="127.9326">Open Platform</text><text fill="#000000" font-family="sans-serif" font-size="14" lengthAdjust="spacingAndGlyphs" textLength="40" x="664" y="144.2295">/cover</text><path d="M664.5,86.9375 L664.5,110.9375 M664.5,98.9375 L681.5,98.9375 " fill="none" filter="url(#f1i28u7hrtu9k3)" style="stroke: #A80036; stroke-width: 2.0;"/><ellipse cx="693.5" cy="98.9375" fill="#FEFECE" filter="url(#f1i28u7hrtu9k3)" rx="12" ry="12" style="stroke: #A80036; stroke-width: 2.0;"/><text fill="#000000" font-family="sans-serif" font-size="14" lengthAdjust="spacingAndGlyphs" textLength="93" x="633.5" y="1775.7842">Open Platform</text><text fill="#000000" font-family="sans-serif" font-size="14" lengthAdjust="spacingAndGlyphs" textLength="40" x="664" y="1792.0811">/cover</text><path d="M664.5,1799.3828 L664.5,1823.3828 M664.5,1811.3828 L681.5,1811.3828 " fill="none" filter="url(#f1i28u7hrtu9k3)" style="stroke: #A80036; stroke-width: 2.0;"/><ellipse cx="693.5" cy="1811.3828" fill="#FEFECE" filter="url(#f1i28u7hrtu9k3)" rx="12" ry="12" style="stroke: #A80036; stroke-width: 2.0;"/><text fill="#000000" font-family="sans-serif" font-size="14" lengthAdjust="spacingAndGlyphs" textLength="119" x="868.5" y="144.2295">DDB Cover service</text><path d="M910.5,103.2344 L910.5,127.2344 M910.5,115.2344 L927.5,115.2344 " fill="none" filter="url(#f1i28u7hrtu9k3)" style="stroke: #A80036; stroke-width: 2.0;"/><ellipse cx="939.5" cy="115.2344" fill="#FEFECE" filter="url(#f1i28u7hrtu9k3)" rx="12" ry="12" style="stroke: #A80036; stroke-width: 2.0;"/><text fill="#000000" font-family="sans-serif" font-size="14" lengthAdjust="spacingAndGlyphs" textLength="119" x="868.5" y="1775.7842">DDB Cover service</text><path d="M910.5,1783.0859 L910.5,1807.0859 M910.5,1795.0859 L927.5,1795.0859 " fill="none" filter="url(#f1i28u7hrtu9k3)" style="stroke: #A80036; stroke-width: 2.0;"/><ellipse cx="939.5" cy="1795.0859" fill="#FEFECE" filter="url(#f1i28u7hrtu9k3)" rx="12" ry="12" style="stroke: #A80036; stroke-width: 2.0;"/><rect fill="#EEEEEE" filter="url(#f1i28u7hrtu9k3)" height="3" style="stroke: #EEEEEE; stroke-width: 1.0;" width="1010.5" x="3" y="178.0977"/><line style="stroke: #000000; stroke-width: 1.0;" x1="3" x2="1013.5" y1="178.0977" y2="178.0977"/><line style="stroke: #000000; stroke-width: 1.0;" x1="3" x2="1013.5" y1="181.0977" y2="181.0977"/><rect fill="#EEEEEE" filter="url(#f1i28u7hrtu9k3)" height="23.1328" style="stroke: #000000; stroke-width: 2.0;" width="54" x="481.25" y="167.5313"/><text fill="#000000" font-family="sans-serif" font-size="13" font-weight="bold" lengthAdjust="spacingAndGlyphs" textLength="37" x="487.25" y="183.5981">Log in</text><polygon fill="#A80036" points="304,217.7969,314,221.7969,304,225.7969,308,221.7969" style="stroke: #A80036; stroke-width: 1.0;"/><line style="stroke: #A80036; stroke-width: 1.0;" x1="70" x2="310" y1="221.7969" y2="221.7969"/><text fill="#000000" font-family="sans-serif" font-size="13" lengthAdjust="spacingAndGlyphs" textLength="46" x="77" y="216.731">Log ind.</text><polygon fill="#A80036" points="81,246.9297,71,250.9297,81,254.9297,77,250.9297" style="stroke: #A80036; stroke-width: 1.0;"/><line style="stroke: #A80036; stroke-width: 1.0; stroke-dasharray: 2.0,2.0;" x1="75" x2="315" y1="250.9297" y2="250.9297"/><text fill="#000000" font-family="sans-serif" font-size="13" lengthAdjust="spacingAndGlyphs" textLength="68" x="87" y="245.8638">Logged ind.</text><rect fill="#EEEEEE" filter="url(#f1i28u7hrtu9k3)" height="3" style="stroke: #EEEEEE; stroke-width: 1.0;" width="1010.5" x="3" y="279.4961"/><line style="stroke: #000000; stroke-width: 1.0;" x1="3" x2="1013.5" y1="279.4961" y2="279.4961"/><line style="stroke: #000000; stroke-width: 1.0;" x1="3" x2="1013.5" y1="282.4961" y2="282.4961"/><rect fill="#EEEEEE" filter="url(#f1i28u7hrtu9k3)" height="23.1328" style="stroke: #000000; stroke-width: 2.0;" width="446" x="285.25" y="268.9297"/><text fill="#000000" font-family="sans-serif" font-size="13" font-weight="bold" lengthAdjust="spacingAndGlyphs" textLength="429" x="291.25" y="284.9966">Add images from computer with or without material ID in file-name</text><polygon fill="#A80036" points="304,334.3281,314,338.3281,304,342.3281,308,338.3281" style="stroke: #A80036; stroke-width: 1.0;"/><line style="stroke: #A80036; stroke-width: 1.0;" x1="70" x2="310" y1="338.3281" y2="338.3281"/><text fill="#000000" font-family="sans-serif" font-size="13" lengthAdjust="spacingAndGlyphs" textLength="182" x="77" y="318.1294">Choose image file(s) for upload</text><text fill="#000000" font-family="sans-serif" font-size="13" lengthAdjust="spacingAndGlyphs" textLength="162" x="80" y="333.2622">(pathfinder or drag'n'drop).</text><polygon fill="#A80036" points="162,363.4609,152,367.4609,162,371.4609,158,367.4609" style="stroke: #A80036; stroke-width: 1.0;"/><line style="stroke: #A80036; stroke-width: 1.0;" x1="156" x2="315" y1="367.4609" y2="367.4609"/><text fill="#000000" font-family="sans-serif" font-size="13" lengthAdjust="spacingAndGlyphs" textLength="57" x="168" y="362.395">Get file(s).</text><polygon fill="#A80036" points="304,392.5938,314,396.5938,304,400.5938,308,396.5938" style="stroke: #A80036; stroke-width: 1.0;"/><line style="stroke: #A80036; stroke-width: 1.0; stroke-dasharray: 2.0,2.0;" x1="151" x2="310" y1="396.5938" y2="396.5938"/><text fill="#000000" font-family="sans-serif" font-size="13" lengthAdjust="spacingAndGlyphs" textLength="77" x="158" y="391.5278">Return file(s).</text><rect fill="#EEEEEE" filter="url(#f1i28u7hrtu9k3)" height="3" style="stroke: #EEEEEE; stroke-width: 1.0;" width="1010.5" x="3" y="425.1602"/><line style="stroke: #000000; stroke-width: 1.0;" x1="3" x2="1013.5" y1="425.1602" y2="425.1602"/><line style="stroke: #000000; stroke-width: 1.0;" x1="3" x2="1013.5" y1="428.1602" y2="428.1602"/><rect fill="#EEEEEE" filter="url(#f1i28u7hrtu9k3)" height="23.1328" style="stroke: #000000; stroke-width: 2.0;" width="298" x="359.25" y="414.5938"/><text fill="#000000" font-family="sans-serif" font-size="13" font-weight="bold" lengthAdjust="spacingAndGlyphs" textLength="281" x="365.25" y="430.6606">Manually add Datawell identifiers to images</text><path d="M13,454.7266 L86,454.7266 L86,461.7266 L76,471.7266 L13,471.7266 L13,454.7266 " fill="#EEEEEE" style="stroke: #000000; stroke-width: 1.0;"/><rect fill="none" height="1016.8672" style="stroke: #000000; stroke-width: 2.0;" width="990.5" x="13" y="454.7266"/><text fill="#000000" font-family="sans-serif" font-size="13" font-weight="bold" lengthAdjust="spacingAndGlyphs" textLength="28" x="28" y="467.7935">loop</text><text fill="#000000" font-family="sans-serif" font-size="11" font-weight="bold" lengthAdjust="spacingAndGlyphs" textLength="152" x="101" y="466.937">[FOR EACH image on the list]</text><path d="M263,478.8594 L326,478.8594 L326,485.8594 L316,495.8594 L263,495.8594 L263,478.8594 " fill="#EEEEEE" style="stroke: #000000; stroke-width: 1.0;"/><rect fill="none" height="224.6719" style="stroke: #000000; stroke-width: 2.0;" width="380.5" x="263" y="478.8594"/><text fill="#000000" font-family="sans-serif" font-size="13" font-weight="bold" lengthAdjust="spacingAndGlyphs" textLength="18" x="278" y="491.9263">alt</text><text fill="#000000" font-family="sans-serif" font-size="11" font-weight="bold" lengthAdjust="spacingAndGlyphs" textLength="223" x="341" y="491.0698">[IF file-name IS a valid Datawell identifier]</text><polygon fill="#A80036" points="560,513.125,570,517.125,560,521.125,564,517.125" style="stroke: #A80036; stroke-width: 1.0;"/><line style="stroke: #A80036; stroke-width: 1.0;" x1="316" x2="566" y1="517.125" y2="517.125"/><text fill="#000000" font-family="sans-serif" font-size="13" lengthAdjust="spacingAndGlyphs" textLength="232" x="323" y="512.0591">Request Datawell Object for material ID.</text><path d="M273,532.125 L336,532.125 L336,539.125 L326,549.125 L273,549.125 L273,532.125 " fill="#EEEEEE" style="stroke: #000000; stroke-width: 1.0;"/><rect fill="none" height="105.3359" style="stroke: #000000; stroke-width: 2.0;" width="360.5" x="273" y="532.125"/><text fill="#000000" font-family="sans-serif" font-size="13" font-weight="bold" lengthAdjust="spacingAndGlyphs" textLength="18" x="288" y="545.1919">alt</text><text fill="#000000" font-family="sans-serif" font-size="11" font-weight="bold" lengthAdjust="spacingAndGlyphs" textLength="185" x="351" y="544.3354">[IF material ID EXISTS in Datawell?]</text><polygon fill="#A80036" points="327,566.3906,317,570.3906,327,574.3906,323,570.3906" style="stroke: #A80036; stroke-width: 1.0;"/><line style="stroke: #A80036; stroke-width: 1.0; stroke-dasharray: 2.0,2.0;" x1="321" x2="571" y1="570.3906" y2="570.3906"/><text fill="#000000" font-family="sans-serif" font-size="13" lengthAdjust="spacingAndGlyphs" textLength="135" x="333" y="565.3247">Return Datawell object.</text><line style="stroke: #000000; stroke-width: 1.0; stroke-dasharray: 2.0,2.0;" x1="273" x2="633.5" y1="579.3906" y2="579.3906"/><text fill="#000000" font-family="sans-serif" font-size="11" font-weight="bold" lengthAdjust="spacingAndGlyphs" textLength="239" x="278" y="589.6011">[ELSE material ID does NOT exist in Datawell]</text><polygon fill="#A80036" points="327,625.4609,317,629.4609,327,633.4609,323,629.4609" style="stroke: #A80036; stroke-width: 1.0;"/><line style="stroke: #A80036; stroke-width: 1.0; stroke-dasharray: 2.0,2.0;" x1="321" x2="571" y1="629.4609" y2="629.4609"/><text fill="#000000" font-family="sans-serif" font-size="13" lengthAdjust="spacingAndGlyphs" textLength="223" x="333" y="609.2622">Return unknown/missing/inaccessible</text><text fill="#000000" font-family="sans-serif" font-size="13" lengthAdjust="spacingAndGlyphs" textLength="122" x="336" y="624.395">record: {material ID}.</text><line style="stroke: #000000; stroke-width: 1.0; stroke-dasharray: 2.0,2.0;" x1="263" x2="643.5" y1="645.4609" y2="645.4609"/><text fill="#000000" font-family="sans-serif" font-size="11" font-weight="bold" lengthAdjust="spacingAndGlyphs" textLength="265" x="268" y="655.6714">[ELSE file-name is NOT a valid Datawell identifier.]</text><polygon fill="#A80036" points="327,691.5313,317,695.5313,327,699.5313,323,695.5313" style="stroke: #A80036; stroke-width: 1.0;"/><line style="stroke: #A80036; stroke-width: 1.0; stroke-dasharray: 2.0,2.0;" x1="321" x2="571" y1="695.5313" y2="695.5313"/><text fill="#000000" font-family="sans-serif" font-size="13" lengthAdjust="spacingAndGlyphs" textLength="223" x="333" y="675.3325">Return unknown/missing/inaccessible</text><text fill="#000000" font-family="sans-serif" font-size="13" lengthAdjust="spacingAndGlyphs" textLength="122" x="336" y="690.4653">record: {material ID}.</text><rect fill="#EEEEEE" filter="url(#f1i28u7hrtu9k3)" height="3" style="stroke: #EEEEEE; stroke-width: 1.0;" width="1010.5" x="3" y="731.0977"/><line style="stroke: #000000; stroke-width: 1.0;" x1="3" x2="1013.5" y1="731.0977" y2="731.0977"/><line style="stroke: #000000; stroke-width: 1.0;" x1="3" x2="1013.5" y1="734.0977" y2="734.0977"/><rect fill="#EEEEEE" filter="url(#f1i28u7hrtu9k3)" height="23.1328" style="stroke: #000000; stroke-width: 2.0;" width="353" x="331.75" y="720.5313"/><text fill="#000000" font-family="sans-serif" font-size="13" font-weight="bold" lengthAdjust="spacingAndGlyphs" textLength="336" x="337.75" y="736.5981">Display list of image with OR without Datawell object</text><path d="M23,760.6641 L86,760.6641 L86,767.6641 L76,777.6641 L23,777.6641 L23,760.6641 " fill="#EEEEEE" style="stroke: #000000; stroke-width: 1.0;"/><rect fill="none" height="148.4688" style="stroke: #000000; stroke-width: 2.0;" width="336" x="23" y="760.6641"/><text fill="#000000" font-family="sans-serif" font-size="13" font-weight="bold" lengthAdjust="spacingAndGlyphs" textLength="18" x="38" y="773.731">alt</text><text fill="#000000" font-family="sans-serif" font-size="11" font-weight="bold" lengthAdjust="spacingAndGlyphs" textLength="159" x="101" y="772.8745">[IF image has Datawell object]</text><polygon fill="#A80036" points="81,794.9297,71,798.9297,81,802.9297,77,798.9297" style="stroke: #A80036; stroke-width: 1.0;"/><line style="stroke: #A80036; stroke-width: 1.0; stroke-dasharray: 2.0,2.0;" x1="75" x2="315" y1="798.9297" y2="798.9297"/><text fill="#000000" font-family="sans-serif" font-size="13" lengthAdjust="spacingAndGlyphs" textLength="201" x="87" y="793.8638">Display image and Datawell object.</text><line style="stroke: #000000; stroke-width: 1.0; stroke-dasharray: 2.0,2.0;" x1="23" x2="359" y1="807.9297" y2="807.9297"/><text fill="#000000" font-family="sans-serif" font-size="11" font-weight="bold" lengthAdjust="spacingAndGlyphs" textLength="193" x="28" y="818.1401">[ELSE image has NO Datawell object]</text><polygon fill="#A80036" points="81,838.8672,71,842.8672,81,846.8672,77,842.8672" style="stroke: #A80036; stroke-width: 1.0;"/><line style="stroke: #A80036; stroke-width: 1.0; stroke-dasharray: 2.0,2.0;" x1="75" x2="315" y1="842.8672" y2="842.8672"/><text fill="#000000" font-family="sans-serif" font-size="13" lengthAdjust="spacingAndGlyphs" textLength="171" x="87" y="837.8013">Display image and input field.</text><polygon fill="#A80036" points="304,868,314,872,304,876,308,872" style="stroke: #A80036; stroke-width: 1.0;"/><line style="stroke: #A80036; stroke-width: 1.0;" x1="70" x2="310" y1="872" y2="872"/><text fill="#000000" font-family="sans-serif" font-size="13" lengthAdjust="spacingAndGlyphs" textLength="144" x="77" y="866.9341">Input Datawell identifier.</text><polygon fill="#A80036" points="81,897.1328,71,901.1328,81,905.1328,77,901.1328" style="stroke: #A80036; stroke-width: 1.0;"/><line style="stroke: #A80036; stroke-width: 1.0; stroke-dasharray: 2.0,2.0;" x1="75" x2="315" y1="901.1328" y2="901.1328"/><text fill="#000000" font-family="sans-serif" font-size="13" lengthAdjust="spacingAndGlyphs" textLength="207" x="87" y="896.0669">Display list of images and metadata.</text><rect fill="#EEEEEE" filter="url(#f1i28u7hrtu9k3)" height="3" style="stroke: #EEEEEE; stroke-width: 1.0;" width="1010.5" x="3" y="936.6992"/><line style="stroke: #000000; stroke-width: 1.0;" x1="3" x2="1013.5" y1="936.6992" y2="936.6992"/><line style="stroke: #000000; stroke-width: 1.0;" x1="3" x2="1013.5" y1="939.6992" y2="939.6992"/><rect fill="#EEEEEE" filter="url(#f1i28u7hrtu9k3)" height="23.1328" style="stroke: #000000; stroke-width: 2.0;" width="368" x="324.25" y="926.1328"/><text fill="#000000" font-family="sans-serif" font-size="13" font-weight="bold" lengthAdjust="spacingAndGlyphs" textLength="351" x="330.25" y="942.1997">Remove image/Datawell object OR just Datawell object</text><polygon fill="#A80036" points="304,991.5313,314,995.5313,304,999.5313,308,995.5313" style="stroke: #A80036; stroke-width: 1.0;"/><line style="stroke: #A80036; stroke-width: 1.0;" x1="70" x2="310" y1="995.5313" y2="995.5313"/><text fill="#000000" font-family="sans-serif" font-size="13" lengthAdjust="spacingAndGlyphs" textLength="126" x="77" y="975.3325">Request list of images</text><text fill="#000000" font-family="sans-serif" font-size="13" lengthAdjust="spacingAndGlyphs" textLength="219" x="80" y="990.4653">the library employees have uploaded.</text><polygon fill="#A80036" points="673,1035.7969,683,1039.7969,673,1043.7969,677,1039.7969" style="stroke: #A80036; stroke-width: 1.0;"/><line style="stroke: #A80036; stroke-width: 1.0;" x1="316" x2="679" y1="1039.7969" y2="1039.7969"/><text fill="#000000" font-family="sans-serif" font-size="13" lengthAdjust="spacingAndGlyphs" textLength="126" x="323" y="1019.5981">Request list of images</text><text fill="#000000" font-family="sans-serif" font-size="13" lengthAdjust="spacingAndGlyphs" textLength="219" x="326" y="1034.731">the library employees have uploaded.</text><polygon fill="#A80036" points="919,1080.0625,929,1084.0625,919,1088.0625,923,1084.0625" style="stroke: #A80036; stroke-width: 1.0;"/><line style="stroke: #A80036; stroke-width: 1.0;" x1="685" x2="925" y1="1084.0625" y2="1084.0625"/><text fill="#000000" font-family="sans-serif" font-size="13" lengthAdjust="spacingAndGlyphs" textLength="126" x="692" y="1063.8638">Request list of images</text><text fill="#000000" font-family="sans-serif" font-size="13" lengthAdjust="spacingAndGlyphs" textLength="219" x="695" y="1078.9966">the library employees have uploaded.</text><polygon fill="#A80036" points="696,1109.1953,686,1113.1953,696,1117.1953,692,1113.1953" style="stroke: #A80036; stroke-width: 1.0;"/><line style="stroke: #A80036; stroke-width: 1.0; stroke-dasharray: 2.0,2.0;" x1="690" x2="930" y1="1113.1953" y2="1113.1953"/><text fill="#000000" font-family="sans-serif" font-size="13" lengthAdjust="spacingAndGlyphs" textLength="121" x="702" y="1108.1294">Return list of images.</text><polygon fill="#A80036" points="327,1138.3281,317,1142.3281,327,1146.3281,323,1142.3281" style="stroke: #A80036; stroke-width: 1.0;"/><line style="stroke: #A80036; stroke-width: 1.0; stroke-dasharray: 2.0,2.0;" x1="321" x2="684" y1="1142.3281" y2="1142.3281"/><text fill="#000000" font-family="sans-serif" font-size="13" lengthAdjust="spacingAndGlyphs" textLength="121" x="333" y="1137.2622">Return list of images.</text><polygon fill="#A80036" points="81,1182.5938,71,1186.5938,81,1190.5938,77,1186.5938" style="stroke: #A80036; stroke-width: 1.0;"/><line style="stroke: #A80036; stroke-width: 1.0; stroke-dasharray: 2.0,2.0;" x1="75" x2="315" y1="1186.5938" y2="1186.5938"/><text fill="#000000" font-family="sans-serif" font-size="13" lengthAdjust="spacingAndGlyphs" textLength="120" x="87" y="1166.395">Display list of images</text><text fill="#000000" font-family="sans-serif" font-size="13" lengthAdjust="spacingAndGlyphs" textLength="219" x="90" y="1181.5278">the library employees have uploaded.</text><path d="M23,1201.5938 L86,1201.5938 L86,1208.5938 L76,1218.5938 L23,1218.5938 L23,1201.5938 " fill="#EEEEEE" style="stroke: #000000; stroke-width: 1.0;"/><rect fill="none" height="263" style="stroke: #000000; stroke-width: 2.0;" width="505" x="23" y="1201.5938"/><text fill="#000000" font-family="sans-serif" font-size="13" font-weight="bold" lengthAdjust="spacingAndGlyphs" textLength="18" x="38" y="1214.6606">alt</text><text fill="#000000" font-family="sans-serif" font-size="11" font-weight="bold" lengthAdjust="spacingAndGlyphs" textLength="147" x="101" y="1213.8042">[IF employee deletes image]</text><polygon fill="#A80036" points="304,1235.8594,314,1239.8594,304,1243.8594,308,1239.8594" style="stroke: #A80036; stroke-width: 1.0;"/><line style="stroke: #A80036; stroke-width: 1.0;" x1="70" x2="310" y1="1239.8594" y2="1239.8594"/><text fill="#000000" font-family="sans-serif" font-size="13" lengthAdjust="spacingAndGlyphs" textLength="88" x="77" y="1234.7935">Remove image.</text><line style="stroke: #A80036; stroke-width: 1.0;" x1="316" x2="358" y1="1268.9922" y2="1268.9922"/><line style="stroke: #A80036; stroke-width: 1.0;" x1="358" x2="358" y1="1268.9922" y2="1281.9922"/><line style="stroke: #A80036; stroke-width: 1.0;" x1="317" x2="358" y1="1281.9922" y2="1281.9922"/><polygon fill="#A80036" points="327,1277.9922,317,1281.9922,327,1285.9922,323,1281.9922" style="stroke: #A80036; stroke-width: 1.0;"/><text fill="#000000" font-family="sans-serif" font-size="13" lengthAdjust="spacingAndGlyphs" textLength="193" x="323" y="1263.9263">Delete mage and Datawell object.</text><polygon fill="#A80036" points="81,1322.2578,71,1326.2578,81,1330.2578,77,1326.2578" style="stroke: #A80036; stroke-width: 1.0;"/><line style="stroke: #A80036; stroke-width: 1.0; stroke-dasharray: 2.0,2.0;" x1="75" x2="315" y1="1326.2578" y2="1326.2578"/><text fill="#000000" font-family="sans-serif" font-size="13" lengthAdjust="spacingAndGlyphs" textLength="147" x="87" y="1306.0591">Display list without image</text><text fill="#000000" font-family="sans-serif" font-size="13" lengthAdjust="spacingAndGlyphs" textLength="118" x="90" y="1321.1919">and Datawell object.</text><line style="stroke: #000000; stroke-width: 1.0; stroke-dasharray: 2.0,2.0;" x1="23" x2="528" y1="1335.2578" y2="1335.2578"/><text fill="#000000" font-family="sans-serif" font-size="11" font-weight="bold" lengthAdjust="spacingAndGlyphs" textLength="213" x="28" y="1345.4683">[ELSE employee deletes Datawell object]</text><polygon fill="#A80036" points="304,1366.1953,314,1370.1953,304,1374.1953,308,1370.1953" style="stroke: #A80036; stroke-width: 1.0;"/><line style="stroke: #A80036; stroke-width: 1.0;" x1="70" x2="310" y1="1370.1953" y2="1370.1953"/><text fill="#000000" font-family="sans-serif" font-size="13" lengthAdjust="spacingAndGlyphs" textLength="142" x="77" y="1365.1294">Remove Datawell object.</text><line style="stroke: #A80036; stroke-width: 1.0;" x1="316" x2="358" y1="1399.3281" y2="1399.3281"/><line style="stroke: #A80036; stroke-width: 1.0;" x1="358" x2="358" y1="1399.3281" y2="1412.3281"/><line style="stroke: #A80036; stroke-width: 1.0;" x1="317" x2="358" y1="1412.3281" y2="1412.3281"/><polygon fill="#A80036" points="327,1408.3281,317,1412.3281,327,1416.3281,323,1412.3281" style="stroke: #A80036; stroke-width: 1.0;"/><text fill="#000000" font-family="sans-serif" font-size="13" lengthAdjust="spacingAndGlyphs" textLength="132" x="323" y="1394.2622">Delete Datawell object.</text><polygon fill="#A80036" points="81,1452.5938,71,1456.5938,81,1460.5938,77,1456.5938" style="stroke: #A80036; stroke-width: 1.0;"/><line style="stroke: #A80036; stroke-width: 1.0; stroke-dasharray: 2.0,2.0;" x1="75" x2="315" y1="1456.5938" y2="1456.5938"/><text fill="#000000" font-family="sans-serif" font-size="13" lengthAdjust="spacingAndGlyphs" textLength="128" x="87" y="1436.395">Display image without</text><text fill="#000000" font-family="sans-serif" font-size="13" lengthAdjust="spacingAndGlyphs" textLength="130" x="90" y="1451.5278">Datawell object on list.</text><rect fill="#EEEEEE" filter="url(#f1i28u7hrtu9k3)" height="3" style="stroke: #EEEEEE; stroke-width: 1.0;" width="1010.5" x="3" y="1499.1602"/><line style="stroke: #000000; stroke-width: 1.0;" x1="3" x2="1013.5" y1="1499.1602" y2="1499.1602"/><line style="stroke: #000000; stroke-width: 1.0;" x1="3" x2="1013.5" y1="1502.1602" y2="1502.1602"/><rect fill="#EEEEEE" filter="url(#f1i28u7hrtu9k3)" height="23.1328" style="stroke: #000000; stroke-width: 2.0;" width="253" x="381.75" y="1488.5938"/><text fill="#000000" font-family="sans-serif" font-size="13" font-weight="bold" lengthAdjust="spacingAndGlyphs" textLength="236" x="387.75" y="1504.6606">Upload image(s) to DDB Cover service</text><line style="stroke: #A80036; stroke-width: 1.0;" x1="316" x2="358" y1="1542.8594" y2="1542.8594"/><line style="stroke: #A80036; stroke-width: 1.0;" x1="358" x2="358" y1="1542.8594" y2="1555.8594"/><line style="stroke: #A80036; stroke-width: 1.0;" x1="317" x2="358" y1="1555.8594" y2="1555.8594"/><polygon fill="#A80036" points="327,1551.8594,317,1555.8594,327,1559.8594,323,1555.8594" style="stroke: #A80036; stroke-width: 1.0;"/><text fill="#000000" font-family="sans-serif" font-size="13" lengthAdjust="spacingAndGlyphs" textLength="230" x="323" y="1537.7935">Display copyright terms and checkmark.</text><polygon fill="#A80036" points="304,1596.125,314,1600.125,304,1604.125,308,1600.125" style="stroke: #A80036; stroke-width: 1.0;"/><line style="stroke: #A80036; stroke-width: 1.0;" x1="70" x2="310" y1="1600.125" y2="1600.125"/><text fill="#000000" font-family="sans-serif" font-size="13" lengthAdjust="spacingAndGlyphs" textLength="200" x="77" y="1579.9263">Upload list of images and Datawell</text><text fill="#000000" font-family="sans-serif" font-size="13" lengthAdjust="spacingAndGlyphs" textLength="169" x="80" y="1595.0591">objects to DDB Cover service.</text><polygon fill="#A80036" points="673,1625.2578,683,1629.2578,673,1633.2578,677,1629.2578" style="stroke: #A80036; stroke-width: 1.0;"/><line style="stroke: #A80036; stroke-width: 1.0;" x1="316" x2="679" y1="1629.2578" y2="1629.2578"/><text fill="#000000" font-family="sans-serif" font-size="13" lengthAdjust="spacingAndGlyphs" textLength="124" x="323" y="1624.1919">Upload list of images.</text><polygon fill="#A80036" points="919,1654.3906,929,1658.3906,919,1662.3906,923,1658.3906" style="stroke: #A80036; stroke-width: 1.0;"/><line style="stroke: #A80036; stroke-width: 1.0;" x1="685" x2="925" y1="1658.3906" y2="1658.3906"/><text fill="#000000" font-family="sans-serif" font-size="13" lengthAdjust="spacingAndGlyphs" textLength="124" x="692" y="1653.3247">Upload list of images.</text><polygon fill="#A80036" points="696,1683.5234,686,1687.5234,696,1691.5234,692,1687.5234" style="stroke: #A80036; stroke-width: 1.0;"/><line style="stroke: #A80036; stroke-width: 1.0; stroke-dasharray: 2.0,2.0;" x1="690" x2="930" y1="1687.5234" y2="1687.5234"/><text fill="#000000" font-family="sans-serif" font-size="13" lengthAdjust="spacingAndGlyphs" textLength="201" x="702" y="1682.4575">Return message images uploaded.</text><polygon fill="#A80036" points="327,1712.6563,317,1716.6563,327,1720.6563,323,1716.6563" style="stroke: #A80036; stroke-width: 1.0;"/><line style="stroke: #A80036; stroke-width: 1.0; stroke-dasharray: 2.0,2.0;" x1="321" x2="684" y1="1716.6563" y2="1716.6563"/><text fill="#000000" font-family="sans-serif" font-size="13" lengthAdjust="spacingAndGlyphs" textLength="201" x="333" y="1711.5903">Return message images uploaded.</text><polygon fill="#A80036" points="81,1741.7891,71,1745.7891,81,1749.7891,77,1745.7891" style="stroke: #A80036; stroke-width: 1.0;"/><line style="stroke: #A80036; stroke-width: 1.0; stroke-dasharray: 2.0,2.0;" x1="75" x2="315" y1="1745.7891" y2="1745.7891"/><text fill="#000000" font-family="sans-serif" font-size="13" lengthAdjust="spacingAndGlyphs" textLength="201" x="87" y="1740.7231">Return message images uploaded.</text><text fill="#888888" font-family="sans-serif" font-size="10" lengthAdjust="spacingAndGlyphs" textLength="276" x="737.5" y="12.2822">"list-services/docs/material_cover-upload_sequence_diagram.puml"</text><!--MD5=[ed6fedde018c5aaa2f7eeafae31fdce0]
@startuml
title "DDB Cover service - Upload - Sequence diagram"

header "list-services/docs/material_cover-upload_sequence_diagram.puml"


actor "Library- \n employee" as employee
boundary "computer"
boundary "Upload \n interface" as upload
boundary "Open Platform \n /search" as OPsearch
boundary "Open Platform \n /cover" as OPcover
boundary "DDB Cover service" as cover

== Log in ==

employee->upload: Log ind.
employee<- -upload: Logged ind.

== Add images from computer with or without material ID in file-name ==

employee->upload: Choose image file(s) for upload \n (pathfinder or drag'n'drop).
upload->computer: Get file(s).
computer- ->upload: Return file(s).

== Manually add Datawell identifiers to images ==

loop FOR EACH image on the list
    alt IF file-name IS a valid Datawell identifier
        upload->OPsearch: Request Datawell Object for material ID.
            alt IF material ID EXISTS in Datawell?
                OPsearch- ->upload: Return Datawell object.
            else ELSE material ID does NOT exist in Datawell
                OPsearch- ->upload: Return unknown/missing/inaccessible \n record: {material ID}.
            end
    else ELSE file-name is NOT a valid Datawell identifier.
        OPsearch- ->upload: Return unknown/missing/inaccessible \n record: {material ID}.
	end

== Display list of image with OR without Datawell object ==

    alt IF image has Datawell object
      upload- ->employee: Display image and Datawell object.
    else ELSE image has NO Datawell object
	    upload- ->employee: Display image and input field.
        employee->upload: Input Datawell identifier.
        upload- ->employee: Display list of images and metadata.
    end

== Remove image/Datawell object OR just Datawell object ==

    employee->upload: Request list of images \n the library employees have uploaded.
        upload->OPcover:  Request list of images \n the library employees have uploaded.
            OPcover->cover:  Request list of images \n the library employees have uploaded.
            OPcover<- -cover:  Return list of images.
        upload<- -OPcover:  Return list of images.
    upload- ->employee: Display list of images \n the library employees have uploaded.
	alt IF employee deletes image
        employee->upload: Remove image.
        upload->upload: Delete mage and Datawell object.
		upload- ->employee: Display list without image \n and Datawell object.
	else ELSE employee deletes Datawell object
        employee->upload: Remove Datawell object.
        upload->upload: Delete Datawell object.
    	upload- ->employee: Display image without \n Datawell object on list.                	
	end
end

== Upload image(s) to DDB Cover service ==

upload->upload: Display copyright terms and checkmark.
employee->upload: Upload list of images and Datawell \n objects to DDB Cover service.
    upload->OPcover:  Upload list of images.
        OPcover->cover:  Upload list of images.
        OPcover<- -cover:  Return message images uploaded.
    upload<- -OPcover:  Return message images uploaded.
upload- ->employee: Return message images uploaded.

@enduml

PlantUML version 1.2019.13(Tue Dec 10 17:18:29 GMT 2019)
(GPL source distribution)
Java Runtime: Java(TM) SE Runtime Environment
JVM: Java HotSpot(TM) 64-Bit Server VM
Java Version: 1.8.0_202-b08
Operating System: Linux
Default Encoding: ANSI_X3.4-1968
Language: en
Country: US
--></g></svg>