<?xml version="1.0" encoding="UTF-8" standalone="no"?><svg xmlns="http://www.w3.org/2000/svg" xmlns:xlink="http://www.w3.org/1999/xlink" contentScriptType="application/ecmascript" contentStyleType="text/css" height="898px" preserveAspectRatio="none" style="width:1127px;height:898px;" version="1.1" viewBox="0 0 1127 898" width="1127px" zoomAndPan="magnify"><defs><filter height="300%" id="f1merdmctmzmip" width="300%" x="-1" y="-1"><feGaussianBlur result="blurOut" stdDeviation="2.0"/><feColorMatrix in="blurOut" result="blurOut2" type="matrix" values="0 0 0 0 0 0 0 0 0 0 0 0 0 0 0 0 0 0 .4 0"/><feOffset dx="4.0" dy="4.0" in="blurOut2" result="blurOut3"/><feBlend in="SourceGraphic" in2="blurOut3" mode="normal"/></filter></defs><g><text fill="#000000" font-family="sans-serif" font-size="18" lengthAdjust="spacingAndGlyphs" textLength="264" x="438.5" y="16.708">MoreInfo - Component Diagram</text><!--MD5=[30130b3491998d52e01efa7d846e3401]
cluster CMS--><polygon fill="#FFFFFF" filter="url(#f1merdmctmzmip)" points="152,107.9531,220,107.9531,227,130.25,295,130.25,295,178.9531,152,178.9531,152,107.9531" style="stroke: #000000; stroke-width: 1.5;"/><line style="stroke: #000000; stroke-width: 1.5;" x1="152" x2="227" y1="130.25" y2="130.25"/><text fill="#000000" font-family="sans-serif" font-size="14" font-weight="bold" lengthAdjust="spacingAndGlyphs" textLength="62" x="156" y="122.9482">DDB CMS</text><!--MD5=[98548c167a10441f94d9356e068043d6]
cluster DBC--><polygon fill="#FFFFFF" filter="url(#f1merdmctmzmip)" points="157,235.9531,167,225.9531,807,225.9531,807,876.9531,797,886.9531,157,886.9531,157,235.9531" style="stroke: #000000; stroke-width: 1.5;"/><line style="stroke: #000000; stroke-width: 1.5;" x1="797" x2="806" y1="235.9531" y2="226.9531"/><line style="stroke: #000000; stroke-width: 1.5;" x1="157" x2="797" y1="235.9531" y2="235.9531"/><line style="stroke: #000000; stroke-width: 1.5;" x1="797" x2="797" y1="235.9531" y2="886.9531"/><text fill="#000000" font-family="sans-serif" font-size="14" font-weight="bold" lengthAdjust="spacingAndGlyphs" textLength="28" x="464" y="251.9482">DBC</text><!--MD5=[9c32f588e0d1bdc9ff84673f7a85a379]
cluster Datawell--><path d="M316,267.9531 C316,257.9531 410,257.9531 410,257.9531 C410,257.9531 504,257.9531 504,267.9531 L504,689.9531 C504,699.9531 410,699.9531 410,699.9531 C410,699.9531 316,699.9531 316,689.9531 L316,267.9531 " fill="#FFFFFF" filter="url(#f1merdmctmzmip)" style="stroke: #000000; stroke-width: 1.5;"/><path d="M316,267.9531 C316,277.9531 410,277.9531 410,277.9531 C410,277.9531 504,277.9531 504,267.9531 " fill="none" style="stroke: #000000; stroke-width: 1.5;"/><text fill="#000000" font-family="sans-serif" font-size="14" font-weight="bold" lengthAdjust="spacingAndGlyphs" textLength="60" x="380" y="292.9482">Datawell</text><!--MD5=[5f29d77a52fb9909885980626d49767e]
cluster MoreInfo Raw Store--><path d="M493,802.9531 C493,792.9531 570,792.9531 570,792.9531 C570,792.9531 647,792.9531 647,802.9531 L647,868.9531 C647,878.9531 570,878.9531 570,878.9531 C570,878.9531 493,878.9531 493,868.9531 L493,802.9531 " fill="#FFFFFF" filter="url(#f1merdmctmzmip)" style="stroke: #000000; stroke-width: 1.5;"/><path d="M493,802.9531 C493,812.9531 570,812.9531 570,812.9531 C570,812.9531 647,812.9531 647,802.9531 " fill="none" style="stroke: #000000; stroke-width: 1.5;"/><text fill="#000000" font-family="sans-serif" font-size="14" font-weight="bold" lengthAdjust="spacingAndGlyphs" textLength="138" x="501" y="827.9482">MoreInfo Raw Store</text><!--MD5=[bdb2591e30fe3bd3d51fbbfd163e1804]
cluster PressReader--><path d="M815,802.9531 C815,792.9531 886,792.9531 886,792.9531 C886,792.9531 957,792.9531 957,802.9531 L957,868.9531 C957,878.9531 886,878.9531 886,878.9531 C886,878.9531 815,878.9531 815,868.9531 L815,802.9531 " fill="#FFFFFF" filter="url(#f1merdmctmzmip)" style="stroke: #000000; stroke-width: 1.5;"/><path d="M815,802.9531 C815,812.9531 886,812.9531 886,812.9531 C886,812.9531 957,812.9531 957,802.9531 " fill="none" style="stroke: #000000; stroke-width: 1.5;"/><text fill="#000000" font-family="sans-serif" font-size="14" font-weight="bold" lengthAdjust="spacingAndGlyphs" textLength="85" x="843.5" y="827.9482">PressReader</text><!--MD5=[bc66476bd0356c411da4ca764846b572]
cluster Bogportalen--><path d="M975,802.9531 C975,792.9531 1045,792.9531 1045,792.9531 C1045,792.9531 1115,792.9531 1115,802.9531 L1115,868.9531 C1115,878.9531 1045,878.9531 1045,878.9531 C1045,878.9531 975,878.9531 975,868.9531 L975,802.9531 " fill="#FFFFFF" filter="url(#f1merdmctmzmip)" style="stroke: #000000; stroke-width: 1.5;"/><path d="M975,802.9531 C975,812.9531 1045,812.9531 1045,812.9531 C1045,812.9531 1115,812.9531 1115,802.9531 " fill="none" style="stroke: #000000; stroke-width: 1.5;"/><text fill="#000000" font-family="sans-serif" font-size="14" font-weight="bold" lengthAdjust="spacingAndGlyphs" textLength="86" x="1002" y="827.9482">Bogportalen</text><!--MD5=[d13aee152a2182b10f2cb38f5906e22c]
entity SHOW--><rect fill="#FEFECE" filter="url(#f1merdmctmzmip)" height="36.2969" style="stroke: #A80036; stroke-width: 1.5;" width="92" x="195" y="134.9531"/><rect fill="#FEFECE" height="5" style="stroke: #A80036; stroke-width: 1.5;" width="10" x="190" y="139.9531"/><rect fill="#FEFECE" height="5" style="stroke: #A80036; stroke-width: 1.5;" width="10" x="190" y="161.25"/><text fill="#000000" font-family="sans-serif" font-size="14" lengthAdjust="spacingAndGlyphs" textLength="72" x="205" y="157.9482">Show cover</text><!--MD5=[baacb41a61af0a5d25a1ef5345aefd72]
entity MORELOGIC--><rect fill="#FEFECE" filter="url(#f1merdmctmzmip)" height="36.2969" style="stroke: #A80036; stroke-width: 1.5;" width="115" x="512.5" y="655.9531"/><rect fill="#FEFECE" height="5" style="stroke: #A80036; stroke-width: 1.5;" width="10" x="507.5" y="660.9531"/><rect fill="#FEFECE" height="5" style="stroke: #A80036; stroke-width: 1.5;" width="10" x="507.5" y="682.25"/><text fill="#000000" font-family="sans-serif" font-size="14" lengthAdjust="spacingAndGlyphs" textLength="95" x="522.5" y="678.9482">MoreInfo Logic</text><!--MD5=[2fd3ca4fa753f63c60573fcb4026bae1]
entity MOREINFO--><ellipse cx="227" cy="503.9531" fill="#FEFECE" filter="url(#f1merdmctmzmip)" rx="8" ry="8" style="stroke: #A80036; stroke-width: 2.0;"/><text fill="#000000" font-family="sans-serif" font-size="14" lengthAdjust="spacingAndGlyphs" textLength="108" x="173" y="533.9482">MoreInfo Service</text><!--MD5=[ab3d26f6bbd15351c9727b05cb9f24af]
entity UFO--><ellipse cx="617" cy="503.9531" fill="#FEFECE" filter="url(#f1merdmctmzmip)" rx="8" ry="8" style="stroke: #A80036; stroke-width: 2.0;"/><text fill="#000000" font-family="sans-serif" font-size="14" lengthAdjust="spacingAndGlyphs" textLength="157" x="538.5" y="533.9482">MoreInfo Upload Service</text><!--MD5=[e0bd322125cc6f840cf6db14740746fd]
entity MOREMAPPING--><rect fill="#FEFECE" filter="url(#f1merdmctmzmip)" height="36.2969" style="stroke: #A80036; stroke-width: 1.5;" width="136" x="663" y="655.9531"/><rect fill="#FEFECE" height="5" style="stroke: #A80036; stroke-width: 1.5;" width="10" x="658" y="660.9531"/><rect fill="#FEFECE" height="5" style="stroke: #A80036; stroke-width: 1.5;" width="10" x="658" y="682.25"/><text fill="#000000" font-family="sans-serif" font-size="14" lengthAdjust="spacingAndGlyphs" textLength="116" x="673" y="678.9482">MoreInfo Mapping</text><!--MD5=[500cbb48f11672748bd232e43b6f5251]
entity META--><rect fill="#FEFECE" filter="url(#f1merdmctmzmip)" height="36.2969" style="stroke: #A80036; stroke-width: 1.5;" width="124" x="339" y="299.9531"/><rect fill="#FEFECE" height="5" style="stroke: #A80036; stroke-width: 1.5;" width="10" x="334" y="304.9531"/><rect fill="#FEFECE" height="5" style="stroke: #A80036; stroke-width: 1.5;" width="10" x="334" y="326.25"/><text fill="#000000" font-family="sans-serif" font-size="14" lengthAdjust="spacingAndGlyphs" textLength="104" x="349" y="322.9482">Stored Metadata</text><!--MD5=[9002ac4afb3675a7bb30bbda801afcef]
entity HASCOVER--><rect fill="#FEFECE" filter="url(#f1merdmctmzmip)" height="36.2969" style="stroke: #A80036; stroke-width: 1.5;" width="116" x="324" y="655.9531"/><rect fill="#FEFECE" height="5" style="stroke: #A80036; stroke-width: 1.5;" width="10" x="319" y="660.9531"/><rect fill="#FEFECE" height="5" style="stroke: #A80036; stroke-width: 1.5;" width="10" x="319" y="682.25"/><text fill="#000000" font-family="sans-serif" font-size="14" lengthAdjust="spacingAndGlyphs" textLength="96" x="334" y="678.9482">HasCoverIndex</text><!--MD5=[5dc41387ae3ce16666c7703a49041fcc]
entity MOREIMAGE--><rect fill="#FEFECE" filter="url(#f1merdmctmzmip)" height="36.2969" style="stroke: #A80036; stroke-width: 1.5;" width="111" x="514.5" y="834.9531"/><rect fill="#FEFECE" height="5" style="stroke: #A80036; stroke-width: 1.5;" width="10" x="509.5" y="839.9531"/><rect fill="#FEFECE" height="5" style="stroke: #A80036; stroke-width: 1.5;" width="10" x="509.5" y="861.25"/><text fill="#000000" font-family="sans-serif" font-size="14" lengthAdjust="spacingAndGlyphs" textLength="91" x="524.5" y="857.9482">Stored images</text><!--MD5=[c9fa2212f869e087a4d7b6a712b68645]
entity PRESSFTP--><rect fill="#FEFECE" filter="url(#f1merdmctmzmip)" height="36.2969" style="stroke: #A80036; stroke-width: 1.5;" width="125" x="823.5" y="834.9531"/><rect fill="#FEFECE" height="5" style="stroke: #A80036; stroke-width: 1.5;" width="10" x="818.5" y="839.9531"/><rect fill="#FEFECE" height="5" style="stroke: #A80036; stroke-width: 1.5;" width="10" x="818.5" y="861.25"/><text fill="#000000" font-family="sans-serif" font-size="14" lengthAdjust="spacingAndGlyphs" textLength="105" x="833.5" y="857.9482">PressReader FTP</text><!--MD5=[a63cd0859e8da9aa99bd602a0480778f]
entity BOGFTP--><rect fill="#FEFECE" filter="url(#f1merdmctmzmip)" height="36.2969" style="stroke: #A80036; stroke-width: 1.5;" width="123" x="983.5" y="834.9531"/><rect fill="#FEFECE" height="5" style="stroke: #A80036; stroke-width: 1.5;" width="10" x="978.5" y="839.9531"/><rect fill="#FEFECE" height="5" style="stroke: #A80036; stroke-width: 1.5;" width="10" x="978.5" y="861.25"/><text fill="#000000" font-family="sans-serif" font-size="14" lengthAdjust="spacingAndGlyphs" textLength="103" x="993.5" y="857.9482">Bogportalen FTP</text><path d="M6,28.9531 L6,69.2188 L314,69.2188 L314,38.9531 L304,28.9531 L6,28.9531 " fill="#FBFB77" filter="url(#f1merdmctmzmip)" style="stroke: #A80036; stroke-width: 1.0;"/><path d="M304,28.9531 L304,38.9531 L314,38.9531 L304,28.9531 " fill="#FBFB77" style="stroke: #A80036; stroke-width: 1.0;"/><text fill="#000000" font-family="sans-serif" font-size="13" lengthAdjust="spacingAndGlyphs" textLength="287" x="12" y="46.02">Replacing diagrams/CoverServiceArchitecture.svg</text><text fill="#000000" font-family="sans-serif" font-size="13" lengthAdjust="spacingAndGlyphs" textLength="284" x="12" y="61.1528">and diagrams/CoverServiceArchitecture.2018.svg</text><!--MD5=[88e59c534a7fbd0889eae20baff71e1b]
link GMN7 to CMS--><path d="M160,69.0053 C160,76.0884 160,84.4627 160,93.1339 C160,97.4694 160,101.8792 160,106.2389 C160,106.7839 160,107.3281 160,107.8712 " fill="none" id="GMN7-CMS" style="stroke: #A80036; stroke-width: 1.0; stroke-dasharray: 7.0,7.0;"/><!--MD5=[3b249c5e0c44fa2607b3ac94d912290b]
link SHOW to META--><path d="M268.6319,171.2052 C288.3304,184.9507 314.7941,204.9643 335,225.9531 C355.7863,247.5447 375.224,276.0511 387.5463,295.5768 " fill="none" id="SHOW-&gt;META" style="stroke: #A80036; stroke-width: 1.0;"/><polygon fill="#A80036" points="390.2176,299.8461,388.8346,290.0949,387.5654,295.6075,382.0528,294.3383,390.2176,299.8461" style="stroke: #A80036; stroke-width: 1.0;"/><text fill="#000000" font-family="sans-serif" font-size="13" lengthAdjust="spacingAndGlyphs" textLength="36" x="326" y="214.02">Query</text><!--MD5=[fada325a883e7db2551e94d998178125]
reverse link SHOW to META--><path d="M292.0214,160.1524 C319.0462,166.5276 350.7451,178.5034 371,200.9531 C396.0039,228.6664 400.7405,274.4057 401.3057,299.7053 " fill="none" id="SHOW&lt;-META" style="stroke: #A80036; stroke-width: 1.0; stroke-dasharray: 7.0,7.0;"/><polygon fill="#A80036" points="287.0334,159.026,294.9312,164.9103,291.9106,160.1275,296.6935,157.1069,287.0334,159.026" style="stroke: #A80036; stroke-width: 1.0;"/><text fill="#000000" font-family="sans-serif" font-size="13" lengthAdjust="spacingAndGlyphs" textLength="58" x="383" y="214.02">Meta data</text><!--MD5=[bbd31a00296112c4276f6536b09f4061]
link META to HASCOVER--><path d="M384.8818,336.1273 C373.0376,351.3892 359,374.3506 359,397.4531 C359,397.4531 359,397.4531 359,594.4531 C359,614.1149 365.572,635.4727 371.6899,651.0952 " fill="none" id="META-&gt;HASCOVER" style="stroke: #A80036; stroke-width: 1.0;"/><polygon fill="#A80036" points="373.5662,655.7512,373.9124,645.9085,371.6974,651.1136,366.4922,648.8986,373.5662,655.7512" style="stroke: #A80036; stroke-width: 1.0;"/><text fill="#000000" font-family="sans-serif" font-size="13" lengthAdjust="spacingAndGlyphs" textLength="14" x="360" y="508.52">ID</text><!--MD5=[f561dcd6db18e73f7e78ff53755559cb]
reverse link META to HASCOVER--><path d="M421.1248,340.0787 C432.7129,355.126 445,376.1125 445,397.4531 C445,397.4531 445,397.4531 445,594.4531 C445,619.636 425.3423,641.491 407.9882,655.8783 " fill="none" id="META&lt;-HASCOVER" style="stroke: #A80036; stroke-width: 1.0; stroke-dasharray: 7.0,7.0;"/><polygon fill="#A80036" points="417.8857,335.9967,420.3469,345.5331,420.9938,339.9133,426.6135,340.5602,417.8857,335.9967" style="stroke: #A80036; stroke-width: 1.0;"/><text fill="#000000" font-family="sans-serif" font-size="13" lengthAdjust="spacingAndGlyphs" textLength="49" x="446" y="508.52">Boolean</text><!--MD5=[83c873a67212b7cac292a58cb8fe9ae8]
link CMS to HASCOVER--><path d="M151.9533,156.1523 C151.8801,156.1833 151.8065,156.2145 151.7325,156.2459 C151.4364,156.3716 151.1337,156.5008 150.8247,156.6335 C150.2066,156.8989 149.5632,157.1783 148.8964,157.4716 C143.5614,159.8177 136.7234,163.052 129.3342,167.1148 C114.5559,175.2402 97.5728,186.6792 86,200.9531 C50.9126,244.2298 41,262.2395 41,317.9531 C41,317.9531 41,317.9531 41,594.4531 C41,650.8143 219.914,667.2373 318.5514,672.0088 " fill="none" id="CMS-&gt;HASCOVER" style="stroke: #A80036; stroke-width: 1.0;"/><polygon fill="#A80036" points="323.7675,672.2539,314.9653,667.8356,318.773,672.0191,314.5895,675.8268,323.7675,672.2539" style="stroke: #A80036; stroke-width: 1.0;"/><text fill="#000000" font-family="sans-serif" font-size="13" lengthAdjust="spacingAndGlyphs" textLength="14" x="42" y="441.02">ID</text><!--MD5=[f53a8b7c942fce6368727431a1850c42]
reverse link CMS to HASCOVER--><path d="M151.7963,169.4869 C151.6578,169.7819 151.518,170.0803 151.377,170.3822 C151.0951,170.9859 150.8082,171.6032 150.5168,172.2338 C145.8539,182.323 140.0199,195.8111 134.3138,211.333 C122.9014,242.3769 112,281.5564 112,317.9531 C112,317.9531 112,317.9531 112,594.4531 C112,638.2481 244.3738,659.6897 323.7464,668.6099 " fill="none" id="CMS&lt;-HASCOVER" style="stroke: #A80036; stroke-width: 1.0; stroke-dasharray: 7.0,7.0;"/><polygon fill="#A80036" points="151.7963,169.4869,144.3507,175.9338,149.6714,174.0129,151.5923,179.3336,151.7963,169.4869" style="stroke: #A80036; stroke-width: 1.0;"/><text fill="#000000" font-family="sans-serif" font-size="13" lengthAdjust="spacingAndGlyphs" textLength="49" x="113" y="441.02">Boolean</text><!--MD5=[525d1f8ecd46e0456074a65377396315]
link SHOW to MOREINFO--><path d="M240.267,171.3302 C237.7921,233.3799 229.7767,434.3382 227.568,489.7114 " fill="none" id="SHOW-&gt;MOREINFO" style="stroke: #A80036; stroke-width: 1.0;"/><polygon fill="#A80036" points="227.3615,494.8898,231.7173,486.0565,227.5609,489.8938,223.7237,485.7374,227.3615,494.8898" style="stroke: #A80036; stroke-width: 1.0;"/><!--MD5=[8cb4270e5657cbeefc05623bcc9f9dec]
link MOREINFO to MORELOGIC--><path d="M236.4531,512.1451 C251.0577,524.5174 280.3204,548.1957 308,563.9531 C376.9171,603.1861 462.5895,636.5205 516.8012,655.8947 " fill="none" id="MOREINFO-MORELOGIC" style="stroke: #A80036; stroke-width: 1.0;"/><!--MD5=[881c0932e65fa9d90b094c87ec1258b3]
link MORELOGIC to MOREIMAGE--><path d="M561.9241,692.1016 C555.6949,726.4096 555.692,800.4115 561.9153,834.7565 " fill="none" id="MORELOGIC-MOREIMAGE" style="stroke: #A80036; stroke-width: 1.0;"/><!--MD5=[881c0932e65fa9d90b094c87ec1258b3]
link MORELOGIC to MOREIMAGE--><path d="M578.551,692.1016 C585.1466,726.4096 585.1497,800.4115 578.5602,834.7565 " fill="none" id="MORELOGIC-MOREIMAGE-1" style="stroke: #A80036; stroke-width: 1.0;"/><!--MD5=[8f0c26a000bcca4ce9413ebfc00335f0]
reverse link MOREMAPPING to PRESSFTP--><path d="M750.3499,696.2991 C781.3771,732.1305 841.6648,801.7531 870.2432,834.7565 " fill="none" id="MOREMAPPING&lt;-PRESSFTP" style="stroke: #A80036; stroke-width: 1.0;"/><polygon fill="#A80036" points="746.7152,692.1016,749.5829,701.5237,749.9883,695.8814,755.6306,696.2868,746.7152,692.1016" style="stroke: #A80036; stroke-width: 1.0;"/><!--MD5=[b31283701cb6856287b4f96569623cb9]
reverse link MOREMAPPING to BOGFTP--><path d="M776.462,694.2103 C824.5541,716.2911 902.0356,753.7419 965,792.9531 C985.4845,805.7099 1007.3093,822.3025 1022.9798,834.8046 " fill="none" id="MOREMAPPING&lt;-BOGFTP" style="stroke: #A80036; stroke-width: 1.0;"/><polygon fill="#A80036" points="771.9011,692.1219,778.4186,699.5059,776.4471,694.2037,781.7493,692.2322,771.9011,692.1219" style="stroke: #A80036; stroke-width: 1.0;"/><!--MD5=[5555e52ff2dc44ed41d1a2b518baabca]
link MOREMAPPING to MOREIMAGE--><path d="M714.6765,692.1016 C684.9033,725.2035 621.894,795.2573 589.754,830.9906 " fill="none" id="MOREMAPPING-&gt;MOREIMAGE" style="stroke: #A80036; stroke-width: 1.0;"/><polygon fill="#A80036" points="586.3668,834.7565,595.3594,830.7399,589.7105,831.039,589.4114,825.3901,586.3668,834.7565" style="stroke: #A80036; stroke-width: 1.0;"/><!--MD5=[8b387c0aa2a64410a111ce012b13a62a]
link MOREMAPPING to HASCOVER--><path d="M701.4596,655.8403 C681.4064,644.6404 653.8423,631.319 627.5,625.4531 C555.4861,609.4169 532.5277,605.4976 461.5,625.4531 C442.316,630.8429 423.1768,642.2847 408.486,652.7018 " fill="none" id="MOREMAPPING-&gt;HASCOVER" style="stroke: #A80036; stroke-width: 1.0;"/><polygon fill="#A80036" points="404.0744,655.894,413.7106,653.8585,408.1251,652.9629,409.0208,647.3774,404.0744,655.894" style="stroke: #A80036; stroke-width: 1.0;"/><!--MD5=[d31b9fab718b8be32e4bcd7a5d766b7b]
link CMS to UFO--><path d="M178,178.9531 C241.5571,216.9972 450.8153,178.8705 508,225.9531 C597.2478,299.4346 613.7189,455.8452 616.4823,494.9487 " fill="none" id="CMS-UFO" style="stroke: #A80036; stroke-width: 1.0;"/><!--MD5=[8cc45c2e4fb2f8359de61abc39ba1977]
link UFO to MORELOGIC--><path d="M614.4731,513.093 C607.0178,540.0589 585.0128,619.6513 575.0284,655.7652 " fill="none" id="UFO-MORELOGIC" style="stroke: #A80036; stroke-width: 1.0;"/><!--MD5=[36a4ff43714804334c1db9578eebbd57]
@startuml

title MoreInfo - Component Diagram

note top of CMS : Replacing diagrams/CoverServiceArchitecture.svg\nand diagrams/CoverServiceArchitecture.2018.svg

package "DDB CMS" as CMS {
    component [Show cover] as SHOW
}

node "DBC" {
    [MoreInfo Logic] as MORELOGIC
    interface "MoreInfo Service"  as MOREINFO
    interface "MoreInfo Upload Service"  as UFO
    [MoreInfo Mapping] as MOREMAPPING

    database "Datawell" {
        [Stored Metadata] as META
        [HasCoverIndex] as HASCOVER
    }
    database "MoreInfo Raw Store" {
        [Stored images] as MOREIMAGE
    }
} 

database "PressReader" {
    [PressReader FTP] as PRESSFTP
}

database "Bogportalen" {
    [Bogportalen FTP] as BOGFTP
}

SHOW - -> META: Query
SHOW <.. META: Meta data

META - -> HASCOVER: ID
META <.. HASCOVER: Boolean

CMS - -> HASCOVER: ID
CMS <.. HASCOVER: Boolean



SHOW - -> MOREINFO
MOREINFO - - MORELOGIC
MORELOGIC - - MOREIMAGE
MOREMAPPING <-down- - PRESSFTP
MOREMAPPING <-down- - BOGFTP
MOREMAPPING - -> MOREIMAGE
MOREMAPPING -> HASCOVER
CMS - - UFO
UFO - - MORELOGIC
MORELOGIC - - MOREIMAGE
@enduml

PlantUML version 1.2019.13(Tue Dec 10 17:18:29 GMT 2019)
(GPL source distribution)
Java Runtime: Java(TM) SE Runtime Environment
JVM: Java HotSpot(TM) 64-Bit Server VM
Java Version: 1.8.0_202-b08
Operating System: Linux
Default Encoding: ANSI_X3.4-1968
Language: en
Country: US
--></g></svg>