<?xml version="1.0" encoding="UTF-8" standalone="no"?><svg xmlns="http://www.w3.org/2000/svg" xmlns:xlink="http://www.w3.org/1999/xlink" contentScriptType="application/ecmascript" contentStyleType="text/css" height="342px" preserveAspectRatio="none" style="width:324px;height:342px;" version="1.1" viewBox="0 0 324 342" width="324px" zoomAndPan="magnify"><defs><filter height="300%" id="f13elv9l49tcto" width="300%" x="-1" y="-1"><feGaussianBlur result="blurOut" stdDeviation="2.0"/><feColorMatrix in="blurOut" result="blurOut2" type="matrix" values="0 0 0 0 0 0 0 0 0 0 0 0 0 0 0 0 0 0 .4 0"/><feOffset dx="4.0" dy="4.0" in="blurOut2" result="blurOut3"/><feBlend in="SourceGraphic" in2="blurOut3" mode="normal"/></filter></defs><g><text fill="#000000" font-family="sans-serif" font-size="14" font-weight="bold" lengthAdjust="spacingAndGlyphs" textLength="300" x="12" y="22.9951">Subscription Service - Material list - Get list</text><rect fill="#FFFFFF" filter="url(#f13elv9l49tcto)" height="137.6641" style="stroke: #000000; stroke-width: 2.0;" width="199" x="27.5" y="114.8906"/><rect fill="#FFFFFF" filter="url(#f13elv9l49tcto)" height="77.3984" style="stroke: #000000; stroke-width: 2.0;" width="179" x="37.5" y="168.1563"/><rect fill="#FFFFFF" height="31.1328" style="stroke: none; stroke-width: 1.0;" width="179" x="37.5" y="214.4219"/><line style="stroke: #383838; stroke-width: 1.0; stroke-dasharray: 5.0,5.0;" x1="80.5" x2="80.5" y1="97.8906" y2="269.5547"/><line style="stroke: #383838; stroke-width: 1.0; stroke-dasharray: 5.0,5.0;" x1="177.5" x2="177.5" y1="97.8906" y2="269.5547"/><line style="stroke: #383838; stroke-width: 1.0; stroke-dasharray: 5.0,5.0;" x1="258.5" x2="258.5" y1="97.8906" y2="269.5547"/><text fill="#000000" font-family="sans-serif" font-size="14" lengthAdjust="spacingAndGlyphs" textLength="60" x="47.5" y="94.5889">DDB CMS</text><path d="M60,53.5938 L60,77.5938 M60,65.5938 L77,65.5938 " fill="none" filter="url(#f13elv9l49tcto)" style="stroke: #383838; stroke-width: 2.0;"/><ellipse cx="89" cy="65.5938" fill="#F8F8F8" filter="url(#f13elv9l49tcto)" rx="12" ry="12" style="stroke: #383838; stroke-width: 2.0;"/><text fill="#000000" font-family="sans-serif" font-size="14" lengthAdjust="spacingAndGlyphs" textLength="60" x="47.5" y="281.5498">DDB CMS</text><path d="M60,288.8516 L60,312.8516 M60,300.8516 L77,300.8516 " fill="none" filter="url(#f13elv9l49tcto)" style="stroke: #383838; stroke-width: 2.0;"/><ellipse cx="89" cy="300.8516" fill="#F8F8F8" filter="url(#f13elv9l49tcto)" rx="12" ry="12" style="stroke: #383838; stroke-width: 2.0;"/><text fill="#000000" font-family="sans-serif" font-size="14" lengthAdjust="spacingAndGlyphs" textLength="52" x="148.5" y="78.292">Material</text><text fill="#000000" font-family="sans-serif" font-size="14" lengthAdjust="spacingAndGlyphs" textLength="23" x="163" y="94.5889">List</text><path d="M157,37.2969 L157,61.2969 M157,49.2969 L174,49.2969 " fill="none" filter="url(#f13elv9l49tcto)" style="stroke: #383838; stroke-width: 2.0;"/><ellipse cx="186" cy="49.2969" fill="#F8F8F8" filter="url(#f13elv9l49tcto)" rx="12" ry="12" style="stroke: #383838; stroke-width: 2.0;"/><text fill="#000000" font-family="sans-serif" font-size="14" lengthAdjust="spacingAndGlyphs" textLength="52" x="148.5" y="281.5498">Material</text><text fill="#000000" font-family="sans-serif" font-size="14" lengthAdjust="spacingAndGlyphs" textLength="23" x="163" y="297.8467">List</text><path d="M157,305.1484 L157,329.1484 M157,317.1484 L174,317.1484 " fill="none" filter="url(#f13elv9l49tcto)" style="stroke: #383838; stroke-width: 2.0;"/><ellipse cx="186" cy="317.1484" fill="#F8F8F8" filter="url(#f13elv9l49tcto)" rx="12" ry="12" style="stroke: #383838; stroke-width: 2.0;"/><text fill="#000000" font-family="sans-serif" font-size="14" lengthAdjust="spacingAndGlyphs" textLength="79" x="216.5" y="94.5889">Subscription</text><path d="M241,45.5938 C241,35.5938 259,35.5938 259,35.5938 C259,35.5938 277,35.5938 277,45.5938 L277,71.5938 C277,81.5938 259,81.5938 259,81.5938 C259,81.5938 241,81.5938 241,71.5938 L241,45.5938 " fill="#F8F8F8" filter="url(#f13elv9l49tcto)" style="stroke: #000000; stroke-width: 1.5;"/><path d="M241,45.5938 C241,55.5938 259,55.5938 259,55.5938 C259,55.5938 277,55.5938 277,45.5938 " fill="none" style="stroke: #000000; stroke-width: 1.5;"/><text fill="#000000" font-family="sans-serif" font-size="14" lengthAdjust="spacingAndGlyphs" textLength="79" x="216.5" y="281.5498">Subscription</text><path d="M241,294.8516 C241,284.8516 259,284.8516 259,284.8516 C259,284.8516 277,284.8516 277,294.8516 L277,320.8516 C277,330.8516 259,330.8516 259,330.8516 C259,330.8516 241,330.8516 241,320.8516 L241,294.8516 " fill="#F8F8F8" filter="url(#f13elv9l49tcto)" style="stroke: #000000; stroke-width: 1.5;"/><path d="M241,294.8516 C241,304.8516 259,304.8516 259,304.8516 C259,304.8516 277,304.8516 277,294.8516 " fill="none" style="stroke: #000000; stroke-width: 1.5;"/><path d="M27.5,114.8906 L118.5,114.8906 L118.5,121.8906 L108.5,131.8906 L27.5,131.8906 L27.5,114.8906 " fill="#EEEEEE" style="stroke: #000000; stroke-width: 1.0;"/><rect fill="none" height="137.6641" style="stroke: #000000; stroke-width: 2.0;" width="199" x="27.5" y="114.8906"/><text fill="#000000" font-family="sans-serif" font-size="13" font-weight="bold" lengthAdjust="spacingAndGlyphs" textLength="46" x="42.5" y="127.9575">Get list</text><polygon fill="#383838" points="165.5,149.1563,175.5,153.1563,165.5,157.1563,169.5,153.1563" style="stroke: #383838; stroke-width: 1.0;"/><line style="stroke: #383838; stroke-width: 1.0;" x1="80.5" x2="171.5" y1="153.1563" y2="153.1563"/><text fill="#000000" font-family="sans-serif" font-size="13" lengthAdjust="spacingAndGlyphs" textLength="39" x="87.5" y="148.0903">Get list</text><path d="M37.5,168.1563 L100.5,168.1563 L100.5,175.1563 L90.5,185.1563 L37.5,185.1563 L37.5,168.1563 " fill="#EEEEEE" style="stroke: #000000; stroke-width: 1.0;"/><rect fill="none" height="77.3984" style="stroke: #000000; stroke-width: 2.0;" width="179" x="37.5" y="168.1563"/><text fill="#000000" font-family="sans-serif" font-size="13" font-weight="bold" lengthAdjust="spacingAndGlyphs" textLength="18" x="52.5" y="181.2231">alt</text><text fill="#000000" font-family="sans-serif" font-size="11" font-weight="bold" lengthAdjust="spacingAndGlyphs" textLength="61" x="115.5" y="180.3667">[List exists]</text><polygon fill="#383838" points="91.5,202.4219,81.5,206.4219,91.5,210.4219,87.5,206.4219" style="stroke: #383838; stroke-width: 1.0;"/><line style="stroke: #383838; stroke-width: 1.0; stroke-dasharray: 2.0,2.0;" x1="85.5" x2="176.5" y1="206.4219" y2="206.4219"/><text fill="#000000" font-family="sans-serif" font-size="13" lengthAdjust="spacingAndGlyphs" textLength="59" x="97.5" y="201.356">Return list</text><line style="stroke: #000000; stroke-width: 1.0; stroke-dasharray: 2.0,2.0;" x1="37.5" x2="216.5" y1="215.4219" y2="215.4219"/><polygon fill="#383838" points="91.5,233.5547,81.5,237.5547,91.5,241.5547,87.5,237.5547" style="stroke: #383838; stroke-width: 1.0;"/><line style="stroke: #383838; stroke-width: 1.0; stroke-dasharray: 2.0,2.0;" x1="85.5" x2="176.5" y1="237.5547" y2="237.5547"/><text fill="#000000" font-family="sans-serif" font-size="13" lengthAdjust="spacingAndGlyphs" textLength="73" x="97.5" y="232.4888">Return error</text><!--MD5=[eeb5880b88521aa899a11cd358a2a3d3]
@startuml
title Subscription Service - Material list - Get list

skinparam monochrome true

boundary DDBCMS     as "DDB CMS"
boundary MatList    as "Material\nList"
database SubService as "Subscription"

group Get list

    DDBCMS	->	MatList: Get list
    
    alt List exists
        DDBCMS	<- -	MatList: Return list
    else
        DDBCMS	<- -	MatList: Return error
    end

end


@enduml

PlantUML version 1.2019.13(Tue Dec 10 17:18:29 GMT 2019)
(GPL source distribution)
Java Runtime: Java(TM) SE Runtime Environment
JVM: Java HotSpot(TM) 64-Bit Server VM
Java Version: 1.8.0_202-b08
Operating System: Linux
Default Encoding: ANSI_X3.4-1968
Language: en
Country: US
--></g></svg>