<?xml version="1.0" encoding="UTF-8" standalone="no"?><svg xmlns="http://www.w3.org/2000/svg" xmlns:xlink="http://www.w3.org/1999/xlink" contentScriptType="application/ecmascript" contentStyleType="text/css" height="447px" preserveAspectRatio="none" style="width:392px;height:447px;" version="1.1" viewBox="0 0 392 447" width="392px" zoomAndPan="magnify"><defs><filter height="300%" id="f992akr2qmco9" width="300%" x="-1" y="-1"><feGaussianBlur result="blurOut" stdDeviation="2.0"/><feColorMatrix in="blurOut" result="blurOut2" type="matrix" values="0 0 0 0 0 0 0 0 0 0 0 0 0 0 0 0 0 0 .4 0"/><feOffset dx="4.0" dy="4.0" in="blurOut2" result="blurOut3"/><feBlend in="SourceGraphic" in2="blurOut3" mode="normal"/></filter></defs><g><text fill="#000000" font-family="sans-serif" font-size="14" font-weight="bold" lengthAdjust="spacingAndGlyphs" textLength="344" x="25.25" y="22.9951">Subscription Service - Material list - Remove Item</text><rect fill="#FFFFFF" filter="url(#f992akr2qmco9)" height="242.0625" style="stroke: #000000; stroke-width: 2.0;" width="356" x="13" y="114.8906"/><rect fill="#FFFFFF" filter="url(#f992akr2qmco9)" height="181.7969" style="stroke: #000000; stroke-width: 2.0;" width="336" x="23" y="168.1563"/><rect fill="#FFFFFF" filter="url(#f992akr2qmco9)" height="119.5313" style="stroke: #000000; stroke-width: 2.0;" width="316" x="33" y="192.2891"/><rect fill="#FFFFFF" height="31.1328" style="stroke: none; stroke-width: 1.0;" width="316" x="33" y="280.6875"/><rect fill="#FFFFFF" height="31.1328" style="stroke: none; stroke-width: 1.0;" width="336" x="23" y="318.8203"/><line style="stroke: #383838; stroke-width: 1.0; stroke-dasharray: 5.0,5.0;" x1="76" x2="76" y1="97.8906" y2="373.9531"/><line style="stroke: #383838; stroke-width: 1.0; stroke-dasharray: 5.0,5.0;" x1="244" x2="244" y1="97.8906" y2="373.9531"/><line style="stroke: #383838; stroke-width: 1.0; stroke-dasharray: 5.0,5.0;" x1="343.5" x2="343.5" y1="97.8906" y2="373.9531"/><text fill="#000000" font-family="sans-serif" font-size="14" lengthAdjust="spacingAndGlyphs" textLength="60" x="43" y="94.5889">DDB CMS</text><path d="M55.5,53.5938 L55.5,77.5938 M55.5,65.5938 L72.5,65.5938 " fill="none" filter="url(#f992akr2qmco9)" style="stroke: #383838; stroke-width: 2.0;"/><ellipse cx="84.5" cy="65.5938" fill="#F8F8F8" filter="url(#f992akr2qmco9)" rx="12" ry="12" style="stroke: #383838; stroke-width: 2.0;"/><text fill="#000000" font-family="sans-serif" font-size="14" lengthAdjust="spacingAndGlyphs" textLength="60" x="43" y="385.9482">DDB CMS</text><path d="M55.5,393.25 L55.5,417.25 M55.5,405.25 L72.5,405.25 " fill="none" filter="url(#f992akr2qmco9)" style="stroke: #383838; stroke-width: 2.0;"/><ellipse cx="84.5" cy="405.25" fill="#F8F8F8" filter="url(#f992akr2qmco9)" rx="12" ry="12" style="stroke: #383838; stroke-width: 2.0;"/><text fill="#000000" font-family="sans-serif" font-size="14" lengthAdjust="spacingAndGlyphs" textLength="52" x="215" y="78.292">Material</text><text fill="#000000" font-family="sans-serif" font-size="14" lengthAdjust="spacingAndGlyphs" textLength="23" x="229.5" y="94.5889">List</text><path d="M223.5,37.2969 L223.5,61.2969 M223.5,49.2969 L240.5,49.2969 " fill="none" filter="url(#f992akr2qmco9)" style="stroke: #383838; stroke-width: 2.0;"/><ellipse cx="252.5" cy="49.2969" fill="#F8F8F8" filter="url(#f992akr2qmco9)" rx="12" ry="12" style="stroke: #383838; stroke-width: 2.0;"/><text fill="#000000" font-family="sans-serif" font-size="14" lengthAdjust="spacingAndGlyphs" textLength="52" x="215" y="385.9482">Material</text><text fill="#000000" font-family="sans-serif" font-size="14" lengthAdjust="spacingAndGlyphs" textLength="23" x="229.5" y="402.2451">List</text><path d="M223.5,409.5469 L223.5,433.5469 M223.5,421.5469 L240.5,421.5469 " fill="none" filter="url(#f992akr2qmco9)" style="stroke: #383838; stroke-width: 2.0;"/><ellipse cx="252.5" cy="421.5469" fill="#F8F8F8" filter="url(#f992akr2qmco9)" rx="12" ry="12" style="stroke: #383838; stroke-width: 2.0;"/><text fill="#000000" font-family="sans-serif" font-size="14" lengthAdjust="spacingAndGlyphs" textLength="79" x="301.5" y="94.5889">Subscription</text><path d="M326,45.5938 C326,35.5938 344,35.5938 344,35.5938 C344,35.5938 362,35.5938 362,45.5938 L362,71.5938 C362,81.5938 344,81.5938 344,81.5938 C344,81.5938 326,81.5938 326,71.5938 L326,45.5938 " fill="#F8F8F8" filter="url(#f992akr2qmco9)" style="stroke: #000000; stroke-width: 1.5;"/><path d="M326,45.5938 C326,55.5938 344,55.5938 344,55.5938 C344,55.5938 362,55.5938 362,45.5938 " fill="none" style="stroke: #000000; stroke-width: 1.5;"/><text fill="#000000" font-family="sans-serif" font-size="14" lengthAdjust="spacingAndGlyphs" textLength="79" x="301.5" y="385.9482">Subscription</text><path d="M326,399.25 C326,389.25 344,389.25 344,389.25 C344,389.25 362,389.25 362,399.25 L362,425.25 C362,435.25 344,435.25 344,435.25 C344,435.25 326,435.25 326,425.25 L326,399.25 " fill="#F8F8F8" filter="url(#f992akr2qmco9)" style="stroke: #000000; stroke-width: 1.5;"/><path d="M326,399.25 C326,409.25 344,409.25 344,409.25 C344,409.25 362,409.25 362,399.25 " fill="none" style="stroke: #000000; stroke-width: 1.5;"/><path d="M13,114.8906 L199,114.8906 L199,121.8906 L189,131.8906 L13,131.8906 L13,114.8906 " fill="#EEEEEE" style="stroke: #000000; stroke-width: 1.0;"/><rect fill="none" height="242.0625" style="stroke: #000000; stroke-width: 2.0;" width="356" x="13" y="114.8906"/><text fill="#000000" font-family="sans-serif" font-size="13" font-weight="bold" lengthAdjust="spacingAndGlyphs" textLength="141" x="28" y="127.9575">Remove item from list</text><polygon fill="#383838" points="232,149.1563,242,153.1563,232,157.1563,236,153.1563" style="stroke: #383838; stroke-width: 1.0;"/><line style="stroke: #383838; stroke-width: 1.0;" x1="76" x2="238" y1="153.1563" y2="153.1563"/><text fill="#000000" font-family="sans-serif" font-size="13" lengthAdjust="spacingAndGlyphs" textLength="144" x="83" y="148.0903">Remove item from list list</text><path d="M23,168.1563 L86,168.1563 L86,175.1563 L76,185.1563 L23,185.1563 L23,168.1563 " fill="#EEEEEE" style="stroke: #000000; stroke-width: 1.0;"/><rect fill="none" height="181.7969" style="stroke: #000000; stroke-width: 2.0;" width="336" x="23" y="168.1563"/><text fill="#000000" font-family="sans-serif" font-size="13" font-weight="bold" lengthAdjust="spacingAndGlyphs" textLength="18" x="38" y="181.2231">alt</text><text fill="#000000" font-family="sans-serif" font-size="11" font-weight="bold" lengthAdjust="spacingAndGlyphs" textLength="61" x="101" y="180.3667">[List exists]</text><path d="M33,192.2891 L96,192.2891 L96,199.2891 L86,209.2891 L33,209.2891 L33,192.2891 " fill="#EEEEEE" style="stroke: #000000; stroke-width: 1.0;"/><rect fill="none" height="119.5313" style="stroke: #000000; stroke-width: 2.0;" width="316" x="33" y="192.2891"/><text fill="#000000" font-family="sans-serif" font-size="13" font-weight="bold" lengthAdjust="spacingAndGlyphs" textLength="18" x="48" y="205.356">alt</text><text fill="#000000" font-family="sans-serif" font-size="11" font-weight="bold" lengthAdjust="spacingAndGlyphs" textLength="106" x="111" y="204.4995">[Item exists on List]</text><line style="stroke: #383838; stroke-width: 1.0;" x1="244" x2="286" y1="230.5547" y2="230.5547"/><line style="stroke: #383838; stroke-width: 1.0;" x1="286" x2="286" y1="230.5547" y2="243.5547"/><line style="stroke: #383838; stroke-width: 1.0;" x1="245" x2="286" y1="243.5547" y2="243.5547"/><polygon fill="#383838" points="255,239.5547,245,243.5547,255,247.5547,251,243.5547" style="stroke: #383838; stroke-width: 1.0;"/><text fill="#000000" font-family="sans-serif" font-size="13" lengthAdjust="spacingAndGlyphs" textLength="86" x="251" y="225.4888">Removing item</text><polygon fill="#383838" points="87,268.6875,77,272.6875,87,276.6875,83,272.6875" style="stroke: #383838; stroke-width: 1.0;"/><line style="stroke: #383838; stroke-width: 1.0; stroke-dasharray: 2.0,2.0;" x1="81" x2="243" y1="272.6875" y2="272.6875"/><text fill="#000000" font-family="sans-serif" font-size="13" lengthAdjust="spacingAndGlyphs" textLength="83" x="93" y="267.6216">Removed item</text><line style="stroke: #000000; stroke-width: 1.0; stroke-dasharray: 2.0,2.0;" x1="33" x2="349" y1="281.6875" y2="281.6875"/><polygon fill="#383838" points="87,299.8203,77,303.8203,87,307.8203,83,303.8203" style="stroke: #383838; stroke-width: 1.0;"/><line style="stroke: #383838; stroke-width: 1.0; stroke-dasharray: 2.0,2.0;" x1="81" x2="243" y1="303.8203" y2="303.8203"/><text fill="#000000" font-family="sans-serif" font-size="13" lengthAdjust="spacingAndGlyphs" textLength="101" x="93" y="298.7544">Return item error</text><line style="stroke: #000000; stroke-width: 1.0; stroke-dasharray: 2.0,2.0;" x1="23" x2="359" y1="319.8203" y2="319.8203"/><polygon fill="#383838" points="87,337.9531,77,341.9531,87,345.9531,83,341.9531" style="stroke: #383838; stroke-width: 1.0;"/><line style="stroke: #383838; stroke-width: 1.0; stroke-dasharray: 2.0,2.0;" x1="81" x2="243" y1="341.9531" y2="341.9531"/><text fill="#000000" font-family="sans-serif" font-size="13" lengthAdjust="spacingAndGlyphs" textLength="95" x="93" y="336.8872">Return List error</text><!--MD5=[7a776d7fd7d4740b6006cb73e185a9b2]
@startuml
title Subscription Service - Material list - Remove Item

skinparam monochrome true

boundary DDBCMS     as "DDB CMS"
boundary MatList    as "Material\nList"
database SubService as "Subscription"

group Remove item from list

    DDBCMS	->	MatList: Remove item from list list
    alt List exists
        alt Item exists on List
            MatList	->	MatList: Removing item
            DDBCMS	<- -	MatList: Removed item
        else
            DDBCMS	<- -	MatList: Return item error
        end
    else
        DDBCMS	<- -	MatList: Return List error
    end
end


@enduml

PlantUML version 1.2019.13(Tue Dec 10 17:18:29 GMT 2019)
(GPL source distribution)
Java Runtime: Java(TM) SE Runtime Environment
JVM: Java HotSpot(TM) 64-Bit Server VM
Java Version: 1.8.0_202-b08
Operating System: Linux
Default Encoding: ANSI_X3.4-1968
Language: en
Country: US
--></g></svg>