<?xml version="1.0" encoding="UTF-8" standalone="no"?><svg xmlns="http://www.w3.org/2000/svg" xmlns:xlink="http://www.w3.org/1999/xlink" contentScriptType="application/ecmascript" contentStyleType="text/css" height="432px" preserveAspectRatio="none" style="width:386px;height:432px;" version="1.1" viewBox="0 0 386 432" width="386px" zoomAndPan="magnify"><defs><filter height="300%" id="f14dvsdpze8x78" width="300%" x="-1" y="-1"><feGaussianBlur result="blurOut" stdDeviation="2.0"/><feColorMatrix in="blurOut" result="blurOut2" type="matrix" values="0 0 0 0 0 0 0 0 0 0 0 0 0 0 0 0 0 0 .4 0"/><feOffset dx="4.0" dy="4.0" in="blurOut2" result="blurOut3"/><feBlend in="SourceGraphic" in2="blurOut3" mode="normal"/></filter></defs><g><text fill="#000000" font-family="sans-serif" font-size="14" font-weight="bold" lengthAdjust="spacingAndGlyphs" textLength="335" x="26.75" y="22.9951">Subscription Service - Material list - Remove List</text><rect fill="#FFFFFF" filter="url(#f14dvsdpze8x78)" height="227.0625" style="stroke: #000000; stroke-width: 2.0;" width="362.5" x="13" y="114.8906"/><rect fill="#FFFFFF" filter="url(#f14dvsdpze8x78)" height="166.7969" style="stroke: #000000; stroke-width: 2.0;" width="342.5" x="23" y="168.1563"/><rect fill="#FFFFFF" filter="url(#f14dvsdpze8x78)" height="75.3984" style="stroke: #000000; stroke-width: 2.0;" width="209.5" x="146" y="192.2891"/><rect fill="#FFFFFF" height="31.1328" style="stroke: none; stroke-width: 1.0;" width="342.5" x="23" y="303.8203"/><line style="stroke: #383838; stroke-width: 1.0; stroke-dasharray: 5.0,5.0;" x1="66" x2="66" y1="97.8906" y2="358.9531"/><line style="stroke: #383838; stroke-width: 1.0; stroke-dasharray: 5.0,5.0;" x1="185" x2="185" y1="97.8906" y2="358.9531"/><line style="stroke: #383838; stroke-width: 1.0; stroke-dasharray: 5.0,5.0;" x1="302.5" x2="302.5" y1="97.8906" y2="358.9531"/><text fill="#000000" font-family="sans-serif" font-size="14" lengthAdjust="spacingAndGlyphs" textLength="60" x="33" y="94.5889">DDB CMS</text><path d="M45.5,53.5938 L45.5,77.5938 M45.5,65.5938 L62.5,65.5938 " fill="none" filter="url(#f14dvsdpze8x78)" style="stroke: #383838; stroke-width: 2.0;"/><ellipse cx="74.5" cy="65.5938" fill="#F8F8F8" filter="url(#f14dvsdpze8x78)" rx="12" ry="12" style="stroke: #383838; stroke-width: 2.0;"/><text fill="#000000" font-family="sans-serif" font-size="14" lengthAdjust="spacingAndGlyphs" textLength="60" x="33" y="370.9482">DDB CMS</text><path d="M45.5,378.25 L45.5,402.25 M45.5,390.25 L62.5,390.25 " fill="none" filter="url(#f14dvsdpze8x78)" style="stroke: #383838; stroke-width: 2.0;"/><ellipse cx="74.5" cy="390.25" fill="#F8F8F8" filter="url(#f14dvsdpze8x78)" rx="12" ry="12" style="stroke: #383838; stroke-width: 2.0;"/><text fill="#000000" font-family="sans-serif" font-size="14" lengthAdjust="spacingAndGlyphs" textLength="52" x="156" y="78.292">Material</text><text fill="#000000" font-family="sans-serif" font-size="14" lengthAdjust="spacingAndGlyphs" textLength="23" x="170.5" y="94.5889">List</text><path d="M164.5,37.2969 L164.5,61.2969 M164.5,49.2969 L181.5,49.2969 " fill="none" filter="url(#f14dvsdpze8x78)" style="stroke: #383838; stroke-width: 2.0;"/><ellipse cx="193.5" cy="49.2969" fill="#F8F8F8" filter="url(#f14dvsdpze8x78)" rx="12" ry="12" style="stroke: #383838; stroke-width: 2.0;"/><text fill="#000000" font-family="sans-serif" font-size="14" lengthAdjust="spacingAndGlyphs" textLength="52" x="156" y="370.9482">Material</text><text fill="#000000" font-family="sans-serif" font-size="14" lengthAdjust="spacingAndGlyphs" textLength="23" x="170.5" y="387.2451">List</text><path d="M164.5,394.5469 L164.5,418.5469 M164.5,406.5469 L181.5,406.5469 " fill="none" filter="url(#f14dvsdpze8x78)" style="stroke: #383838; stroke-width: 2.0;"/><ellipse cx="193.5" cy="406.5469" fill="#F8F8F8" filter="url(#f14dvsdpze8x78)" rx="12" ry="12" style="stroke: #383838; stroke-width: 2.0;"/><text fill="#000000" font-family="sans-serif" font-size="14" lengthAdjust="spacingAndGlyphs" textLength="79" x="260.5" y="94.5889">Subscription</text><path d="M285,45.5938 C285,35.5938 303,35.5938 303,35.5938 C303,35.5938 321,35.5938 321,45.5938 L321,71.5938 C321,81.5938 303,81.5938 303,81.5938 C303,81.5938 285,81.5938 285,71.5938 L285,45.5938 " fill="#F8F8F8" filter="url(#f14dvsdpze8x78)" style="stroke: #000000; stroke-width: 1.5;"/><path d="M285,45.5938 C285,55.5938 303,55.5938 303,55.5938 C303,55.5938 321,55.5938 321,45.5938 " fill="none" style="stroke: #000000; stroke-width: 1.5;"/><text fill="#000000" font-family="sans-serif" font-size="14" lengthAdjust="spacingAndGlyphs" textLength="79" x="260.5" y="370.9482">Subscription</text><path d="M285,384.25 C285,374.25 303,374.25 303,374.25 C303,374.25 321,374.25 321,384.25 L321,410.25 C321,420.25 303,420.25 303,420.25 C303,420.25 285,420.25 285,410.25 L285,384.25 " fill="#F8F8F8" filter="url(#f14dvsdpze8x78)" style="stroke: #000000; stroke-width: 1.5;"/><path d="M285,384.25 C285,394.25 303,394.25 303,394.25 C303,394.25 321,394.25 321,384.25 " fill="none" style="stroke: #000000; stroke-width: 1.5;"/><path d="M13,114.8906 L132,114.8906 L132,121.8906 L122,131.8906 L13,131.8906 L13,114.8906 " fill="#EEEEEE" style="stroke: #000000; stroke-width: 1.0;"/><rect fill="none" height="227.0625" style="stroke: #000000; stroke-width: 2.0;" width="362.5" x="13" y="114.8906"/><text fill="#000000" font-family="sans-serif" font-size="13" font-weight="bold" lengthAdjust="spacingAndGlyphs" textLength="74" x="28" y="127.9575">Remove list</text><polygon fill="#383838" points="173,149.1563,183,153.1563,173,157.1563,177,153.1563" style="stroke: #383838; stroke-width: 1.0;"/><line style="stroke: #383838; stroke-width: 1.0;" x1="66" x2="179" y1="153.1563" y2="153.1563"/><text fill="#000000" font-family="sans-serif" font-size="13" lengthAdjust="spacingAndGlyphs" textLength="66" x="73" y="148.0903">Remove list</text><path d="M23,168.1563 L86,168.1563 L86,175.1563 L76,185.1563 L23,185.1563 L23,168.1563 " fill="#EEEEEE" style="stroke: #000000; stroke-width: 1.0;"/><rect fill="none" height="166.7969" style="stroke: #000000; stroke-width: 2.0;" width="342.5" x="23" y="168.1563"/><text fill="#000000" font-family="sans-serif" font-size="13" font-weight="bold" lengthAdjust="spacingAndGlyphs" textLength="18" x="38" y="181.2231">alt</text><text fill="#000000" font-family="sans-serif" font-size="11" font-weight="bold" lengthAdjust="spacingAndGlyphs" textLength="61" x="101" y="180.3667">[List exists]</text><path d="M146,192.2891 L295,192.2891 L295,199.2891 L285,209.2891 L146,209.2891 L146,192.2891 " fill="#EEEEEE" style="stroke: #000000; stroke-width: 1.0;"/><rect fill="none" height="75.3984" style="stroke: #000000; stroke-width: 2.0;" width="209.5" x="146" y="192.2891"/><text fill="#000000" font-family="sans-serif" font-size="13" font-weight="bold" lengthAdjust="spacingAndGlyphs" textLength="104" x="161" y="205.356">Remove accept?</text><polygon fill="#383838" points="291,226.5547,301,230.5547,291,234.5547,295,230.5547" style="stroke: #383838; stroke-width: 1.0;"/><line style="stroke: #383838; stroke-width: 1.0;" x1="185" x2="297" y1="230.5547" y2="230.5547"/><text fill="#000000" font-family="sans-serif" font-size="13" lengthAdjust="spacingAndGlyphs" textLength="88" x="192" y="225.4888">Remove accept</text><polygon fill="#383838" points="196,255.6875,186,259.6875,196,263.6875,192,259.6875" style="stroke: #383838; stroke-width: 1.0;"/><line style="stroke: #383838; stroke-width: 1.0; stroke-dasharray: 2.0,2.0;" x1="190" x2="302" y1="259.6875" y2="259.6875"/><text fill="#000000" font-family="sans-serif" font-size="13" lengthAdjust="spacingAndGlyphs" textLength="94" x="202" y="254.6216">Accept removed</text><polygon fill="#383838" points="77,291.8203,67,295.8203,77,299.8203,73,295.8203" style="stroke: #383838; stroke-width: 1.0;"/><line style="stroke: #383838; stroke-width: 1.0; stroke-dasharray: 2.0,2.0;" x1="71" x2="184" y1="295.8203" y2="295.8203"/><text fill="#000000" font-family="sans-serif" font-size="13" lengthAdjust="spacingAndGlyphs" textLength="74" x="83" y="290.7544">Removed list</text><line style="stroke: #000000; stroke-width: 1.0; stroke-dasharray: 2.0,2.0;" x1="23" x2="365.5" y1="304.8203" y2="304.8203"/><polygon fill="#383838" points="77,322.9531,67,326.9531,77,330.9531,73,326.9531" style="stroke: #383838; stroke-width: 1.0;"/><line style="stroke: #383838; stroke-width: 1.0; stroke-dasharray: 2.0,2.0;" x1="71" x2="184" y1="326.9531" y2="326.9531"/><text fill="#000000" font-family="sans-serif" font-size="13" lengthAdjust="spacingAndGlyphs" textLength="95" x="83" y="321.8872">Return List error</text><!--MD5=[fcaffab146d36ef268c309d39007389a]
@startuml
title Subscription Service - Material list - Remove List

skinparam monochrome true

boundary DDBCMS     as "DDB CMS"
boundary MatList    as "Material\nList"
database SubService as "Subscription"

group Remove list
    DDBCMS	->	MatList: Remove list
    alt List exists
        group Remove accept?
            MatList	->	SubService: Remove accept
            MatList	<- -	SubService: Accept removed
        end
        DDBCMS	<- -	MatList: Removed list
    else
        DDBCMS	<- -	MatList: Return List error
    end

end


@enduml

PlantUML version 1.2019.13(Tue Dec 10 17:18:29 GMT 2019)
(GPL source distribution)
Java Runtime: Java(TM) SE Runtime Environment
JVM: Java HotSpot(TM) 64-Bit Server VM
Java Version: 1.8.0_202-b08
Operating System: Linux
Default Encoding: ANSI_X3.4-1968
Language: en
Country: US
--></g></svg>