<?xml version="1.0" encoding="UTF-8" standalone="no"?><svg xmlns="http://www.w3.org/2000/svg" xmlns:xlink="http://www.w3.org/1999/xlink" contentScriptType="application/ecmascript" contentStyleType="text/css" height="556px" preserveAspectRatio="none" style="width:384px;height:556px;" version="1.1" viewBox="0 0 384 556" width="384px" zoomAndPan="magnify"><defs><filter height="300%" id="f1hnxyn2sqklfw" width="300%" x="-1" y="-1"><feGaussianBlur result="blurOut" stdDeviation="2.0"/><feColorMatrix in="blurOut" result="blurOut2" type="matrix" values="0 0 0 0 0 0 0 0 0 0 0 0 0 0 0 0 0 0 .4 0"/><feOffset dx="4.0" dy="4.0" in="blurOut2" result="blurOut3"/><feBlend in="SourceGraphic" in2="blurOut3" mode="normal"/></filter></defs><g><text fill="#000000" font-family="sans-serif" font-size="14" font-weight="bold" lengthAdjust="spacingAndGlyphs" textLength="313" x="36.75" y="22.9951">Subscription Service - Material list - Add item</text><rect fill="#FFFFFF" filter="url(#f1hnxyn2sqklfw)" height="351.4609" style="stroke: #000000; stroke-width: 2.0;" width="360.5" x="13" y="114.8906"/><rect fill="#FFFFFF" filter="url(#f1hnxyn2sqklfw)" height="75.3984" style="stroke: #000000; stroke-width: 2.0;" width="236.5" x="127" y="197.2891"/><rect fill="#FFFFFF" filter="url(#f1hnxyn2sqklfw)" height="59.2656" style="stroke: #000000; stroke-width: 2.0;" width="122" x="127" y="328.8203"/><line style="stroke: #383838; stroke-width: 1.0; stroke-dasharray: 5.0,5.0;" x1="56" x2="56" y1="97.8906" y2="483.3516"/><line style="stroke: #383838; stroke-width: 1.0; stroke-dasharray: 5.0,5.0;" x1="166" x2="166" y1="97.8906" y2="483.3516"/><line style="stroke: #383838; stroke-width: 1.0; stroke-dasharray: 5.0,5.0;" x1="310.5" x2="310.5" y1="97.8906" y2="483.3516"/><text fill="#000000" font-family="sans-serif" font-size="14" lengthAdjust="spacingAndGlyphs" textLength="60" x="23" y="94.5889">DDB CMS</text><path d="M35.5,53.5938 L35.5,77.5938 M35.5,65.5938 L52.5,65.5938 " fill="none" filter="url(#f1hnxyn2sqklfw)" style="stroke: #383838; stroke-width: 2.0;"/><ellipse cx="64.5" cy="65.5938" fill="#F8F8F8" filter="url(#f1hnxyn2sqklfw)" rx="12" ry="12" style="stroke: #383838; stroke-width: 2.0;"/><text fill="#000000" font-family="sans-serif" font-size="14" lengthAdjust="spacingAndGlyphs" textLength="60" x="23" y="495.3467">DDB CMS</text><path d="M35.5,502.6484 L35.5,526.6484 M35.5,514.6484 L52.5,514.6484 " fill="none" filter="url(#f1hnxyn2sqklfw)" style="stroke: #383838; stroke-width: 2.0;"/><ellipse cx="64.5" cy="514.6484" fill="#F8F8F8" filter="url(#f1hnxyn2sqklfw)" rx="12" ry="12" style="stroke: #383838; stroke-width: 2.0;"/><text fill="#000000" font-family="sans-serif" font-size="14" lengthAdjust="spacingAndGlyphs" textLength="52" x="137" y="78.292">Material</text><text fill="#000000" font-family="sans-serif" font-size="14" lengthAdjust="spacingAndGlyphs" textLength="23" x="151.5" y="94.5889">List</text><path d="M145.5,37.2969 L145.5,61.2969 M145.5,49.2969 L162.5,49.2969 " fill="none" filter="url(#f1hnxyn2sqklfw)" style="stroke: #383838; stroke-width: 2.0;"/><ellipse cx="174.5" cy="49.2969" fill="#F8F8F8" filter="url(#f1hnxyn2sqklfw)" rx="12" ry="12" style="stroke: #383838; stroke-width: 2.0;"/><text fill="#000000" font-family="sans-serif" font-size="14" lengthAdjust="spacingAndGlyphs" textLength="52" x="137" y="495.3467">Material</text><text fill="#000000" font-family="sans-serif" font-size="14" lengthAdjust="spacingAndGlyphs" textLength="23" x="151.5" y="511.6436">List</text><path d="M145.5,518.9453 L145.5,542.9453 M145.5,530.9453 L162.5,530.9453 " fill="none" filter="url(#f1hnxyn2sqklfw)" style="stroke: #383838; stroke-width: 2.0;"/><ellipse cx="174.5" cy="530.9453" fill="#F8F8F8" filter="url(#f1hnxyn2sqklfw)" rx="12" ry="12" style="stroke: #383838; stroke-width: 2.0;"/><text fill="#000000" font-family="sans-serif" font-size="14" lengthAdjust="spacingAndGlyphs" textLength="79" x="268.5" y="94.5889">Subscription</text><path d="M293,45.5938 C293,35.5938 311,35.5938 311,35.5938 C311,35.5938 329,35.5938 329,45.5938 L329,71.5938 C329,81.5938 311,81.5938 311,81.5938 C311,81.5938 293,81.5938 293,71.5938 L293,45.5938 " fill="#F8F8F8" filter="url(#f1hnxyn2sqklfw)" style="stroke: #000000; stroke-width: 1.5;"/><path d="M293,45.5938 C293,55.5938 311,55.5938 311,55.5938 C311,55.5938 329,55.5938 329,45.5938 " fill="none" style="stroke: #000000; stroke-width: 1.5;"/><text fill="#000000" font-family="sans-serif" font-size="14" lengthAdjust="spacingAndGlyphs" textLength="79" x="268.5" y="495.3467">Subscription</text><path d="M293,508.6484 C293,498.6484 311,498.6484 311,498.6484 C311,498.6484 329,498.6484 329,508.6484 L329,534.6484 C329,544.6484 311,544.6484 311,544.6484 C311,544.6484 293,544.6484 293,534.6484 L293,508.6484 " fill="#F8F8F8" filter="url(#f1hnxyn2sqklfw)" style="stroke: #000000; stroke-width: 1.5;"/><path d="M293,508.6484 C293,518.6484 311,518.6484 311,518.6484 C311,518.6484 329,518.6484 329,508.6484 " fill="none" style="stroke: #000000; stroke-width: 1.5;"/><path d="M13,114.8906 L155,114.8906 L155,121.8906 L145,131.8906 L13,131.8906 L13,114.8906 " fill="#EEEEEE" style="stroke: #000000; stroke-width: 1.0;"/><rect fill="none" height="351.4609" style="stroke: #000000; stroke-width: 2.0;" width="360.5" x="13" y="114.8906"/><text fill="#000000" font-family="sans-serif" font-size="13" font-weight="bold" lengthAdjust="spacingAndGlyphs" textLength="97" x="28" y="127.9575">Add item to list</text><polygon fill="#383838" points="154,149.1563,164,153.1563,154,157.1563,158,153.1563" style="stroke: #383838; stroke-width: 1.0;"/><line style="stroke: #383838; stroke-width: 1.0;" x1="56" x2="160" y1="153.1563" y2="153.1563"/><text fill="#000000" font-family="sans-serif" font-size="13" lengthAdjust="spacingAndGlyphs" textLength="86" x="63" y="148.0903">Add item to list</text><polygon fill="#383838" points="299,178.2891,309,182.2891,299,186.2891,303,182.2891" style="stroke: #383838; stroke-width: 1.0;"/><line style="stroke: #383838; stroke-width: 1.0;" x1="166" x2="305" y1="182.2891" y2="182.2891"/><text fill="#000000" font-family="sans-serif" font-size="13" lengthAdjust="spacingAndGlyphs" textLength="84" x="173" y="177.2231">Has accepted?</text><path d="M127,197.2891 L190,197.2891 L190,204.2891 L180,214.2891 L127,214.2891 L127,197.2891 " fill="#EEEEEE" style="stroke: #000000; stroke-width: 1.0;"/><rect fill="none" height="75.3984" style="stroke: #000000; stroke-width: 2.0;" width="236.5" x="127" y="197.2891"/><text fill="#000000" font-family="sans-serif" font-size="13" font-weight="bold" lengthAdjust="spacingAndGlyphs" textLength="18" x="142" y="210.356">alt</text><text fill="#000000" font-family="sans-serif" font-size="11" font-weight="bold" lengthAdjust="spacingAndGlyphs" textLength="138" x="205" y="209.4995">[FALSE: Not accepted yet]</text><polygon fill="#383838" points="299,231.5547,309,235.5547,299,239.5547,303,235.5547" style="stroke: #383838; stroke-width: 1.0;"/><line style="stroke: #383838; stroke-width: 1.0;" x1="166" x2="305" y1="235.5547" y2="235.5547"/><text fill="#000000" font-family="sans-serif" font-size="13" lengthAdjust="spacingAndGlyphs" textLength="114" x="173" y="230.4888">Create subscription</text><polygon fill="#383838" points="177,260.6875,167,264.6875,177,268.6875,173,264.6875" style="stroke: #383838; stroke-width: 1.0;"/><line style="stroke: #383838; stroke-width: 1.0; stroke-dasharray: 2.0,2.0;" x1="171" x2="310" y1="264.6875" y2="264.6875"/><text fill="#000000" font-family="sans-serif" font-size="13" lengthAdjust="spacingAndGlyphs" textLength="121" x="183" y="259.6216">Subscription created</text><line style="stroke: #383838; stroke-width: 1.0;" x1="166" x2="208" y1="300.8203" y2="300.8203"/><line style="stroke: #383838; stroke-width: 1.0;" x1="208" x2="208" y1="300.8203" y2="313.8203"/><line style="stroke: #383838; stroke-width: 1.0;" x1="167" x2="208" y1="313.8203" y2="313.8203"/><polygon fill="#383838" points="177,309.8203,167,313.8203,177,317.8203,173,313.8203" style="stroke: #383838; stroke-width: 1.0;"/><text fill="#000000" font-family="sans-serif" font-size="13" lengthAdjust="spacingAndGlyphs" textLength="61" x="173" y="295.7544">List exists?</text><path d="M127,328.8203 L190,328.8203 L190,335.8203 L180,345.8203 L127,345.8203 L127,328.8203 " fill="#EEEEEE" style="stroke: #000000; stroke-width: 1.0;"/><rect fill="none" height="59.2656" style="stroke: #000000; stroke-width: 2.0;" width="122" x="127" y="328.8203"/><text fill="#000000" font-family="sans-serif" font-size="13" font-weight="bold" lengthAdjust="spacingAndGlyphs" textLength="18" x="142" y="341.8872">alt</text><text fill="#000000" font-family="sans-serif" font-size="11" font-weight="bold" lengthAdjust="spacingAndGlyphs" textLength="39" x="205" y="341.0308">[FALSE]</text><line style="stroke: #383838; stroke-width: 1.0;" x1="166" x2="208" y1="367.0859" y2="367.0859"/><line style="stroke: #383838; stroke-width: 1.0;" x1="208" x2="208" y1="367.0859" y2="380.0859"/><line style="stroke: #383838; stroke-width: 1.0;" x1="167" x2="208" y1="380.0859" y2="380.0859"/><polygon fill="#383838" points="177,376.0859,167,380.0859,177,384.0859,173,380.0859" style="stroke: #383838; stroke-width: 1.0;"/><text fill="#000000" font-family="sans-serif" font-size="13" lengthAdjust="spacingAndGlyphs" textLength="57" x="173" y="362.02">Create list</text><line style="stroke: #383838; stroke-width: 1.0;" x1="166" x2="208" y1="416.2188" y2="416.2188"/><line style="stroke: #383838; stroke-width: 1.0;" x1="208" x2="208" y1="416.2188" y2="429.2188"/><line style="stroke: #383838; stroke-width: 1.0;" x1="167" x2="208" y1="429.2188" y2="429.2188"/><polygon fill="#383838" points="177,425.2188,167,429.2188,177,433.2188,173,429.2188" style="stroke: #383838; stroke-width: 1.0;"/><text fill="#000000" font-family="sans-serif" font-size="13" lengthAdjust="spacingAndGlyphs" textLength="86" x="173" y="411.1528">Add item to list</text><polygon fill="#383838" points="67,454.3516,57,458.3516,67,462.3516,63,458.3516" style="stroke: #383838; stroke-width: 1.0;"/><line style="stroke: #383838; stroke-width: 1.0; stroke-dasharray: 2.0,2.0;" x1="61" x2="165" y1="458.3516" y2="458.3516"/><text fill="#000000" font-family="sans-serif" font-size="13" lengthAdjust="spacingAndGlyphs" textLength="59" x="73" y="453.2856">Return list</text><!--MD5=[754c4324de60c4f4c49fb943ac9c3330]
@startuml
title Subscription Service - Material list - Add item

skinparam monochrome true

boundary DDBCMS     as "DDB CMS"
boundary MatList    as "Material\nList"
database SubService as "Subscription"

group Add item to list

    DDBCMS->MatList: Add item to list
    
    MatList->SubService: Has accepted?
    alt FALSE: Not accepted yet
        MatList	->	SubService: Create subscription
        MatList	<- -	SubService: Subscription created
    end
    MatList	->	MatList: List exists?
    alt FALSE
        MatList	->	MatList: Create list
    end
    MatList	->	MatList: Add item to list
    DDBCMS	<- -	MatList: Return list
end

@enduml

PlantUML version 1.2019.13(Tue Dec 10 17:18:29 GMT 2019)
(GPL source distribution)
Java Runtime: Java(TM) SE Runtime Environment
JVM: Java HotSpot(TM) 64-Bit Server VM
Java Version: 1.8.0_202-b08
Operating System: Linux
Default Encoding: ANSI_X3.4-1968
Language: en
Country: US
--></g></svg>