<?xml version="1.0" encoding="UTF-8" standalone="no"?><svg xmlns="http://www.w3.org/2000/svg" xmlns:xlink="http://www.w3.org/1999/xlink" contentScriptType="application/ecmascript" contentStyleType="text/css" height="1175px" preserveAspectRatio="none" style="width:944px;height:1175px;" version="1.1" viewBox="0 0 944 1175" width="944px" zoomAndPan="magnify"><defs><filter height="300%" id="f2ngep03k3rkn" width="300%" x="-1" y="-1"><feGaussianBlur result="blurOut" stdDeviation="2.0"/><feColorMatrix in="blurOut" result="blurOut2" type="matrix" values="0 0 0 0 0 0 0 0 0 0 0 0 0 0 0 0 0 0 .4 0"/><feOffset dx="4.0" dy="4.0" in="blurOut2" result="blurOut3"/><feBlend in="SourceGraphic" in2="blurOut3" mode="normal"/></filter></defs><g><text fill="#000000" font-family="sans-serif" font-size="14" font-weight="bold" lengthAdjust="spacingAndGlyphs" textLength="430" x="252.5" y="22.9951">User Data Flow (Open List -&gt; Material List)- Sequence Diagram</text><rect fill="#FFFFFF" filter="url(#f2ngep03k3rkn)" height="393.5313" style="stroke: #000000; stroke-width: 2.0;" width="579.5" x="34" y="675.3828"/><rect fill="#FFFFFF" height="347.2656" style="stroke: none; stroke-width: 1.0;" width="579.5" x="34" y="721.6484"/><rect fill="#FFFFFF" filter="url(#f2ngep03k3rkn)" height="133.6641" style="stroke: #000000; stroke-width: 2.0;" width="559.5" x="44" y="928.25"/><line style="stroke: #383838; stroke-width: 1.0; stroke-dasharray: 5.0,5.0;" x1="26" x2="26" y1="116.5938" y2="1085.9141"/><line style="stroke: #383838; stroke-width: 1.0; stroke-dasharray: 5.0,5.0;" x1="87" x2="87" y1="116.5938" y2="1085.9141"/><line style="stroke: #383838; stroke-width: 1.0; stroke-dasharray: 5.0,5.0;" x1="253" x2="253" y1="116.5938" y2="1085.9141"/><line style="stroke: #383838; stroke-width: 1.0; stroke-dasharray: 5.0,5.0;" x1="317" x2="317" y1="116.5938" y2="1085.9141"/><line style="stroke: #383838; stroke-width: 1.0; stroke-dasharray: 5.0,5.0;" x1="381" x2="381" y1="116.5938" y2="1085.9141"/><line style="stroke: #383838; stroke-width: 1.0; stroke-dasharray: 5.0,5.0;" x1="550.5" x2="550.5" y1="116.5938" y2="1085.9141"/><line style="stroke: #383838; stroke-width: 1.0; stroke-dasharray: 5.0,5.0;" x1="628.5" x2="628.5" y1="116.5938" y2="1085.9141"/><line style="stroke: #383838; stroke-width: 1.0; stroke-dasharray: 5.0,5.0;" x1="730.5" x2="730.5" y1="116.5938" y2="1085.9141"/><line style="stroke: #383838; stroke-width: 1.0; stroke-dasharray: 5.0,5.0;" x1="907" x2="907" y1="116.5938" y2="1085.9141"/><text fill="#000000" font-family="sans-serif" font-size="14" lengthAdjust="spacingAndGlyphs" textLength="30" x="8" y="113.292">User</text><ellipse cx="26" cy="43.2969" fill="#F8F8F8" filter="url(#f2ngep03k3rkn)" rx="8" ry="8" style="stroke: #383838; stroke-width: 2.0;"/><path d="M26,51.2969 L26,78.2969 M13,59.2969 L39,59.2969 M26,78.2969 L13,93.2969 M26,78.2969 L39,93.2969 " fill="none" filter="url(#f2ngep03k3rkn)" style="stroke: #383838; stroke-width: 2.0;"/><text fill="#000000" font-family="sans-serif" font-size="14" lengthAdjust="spacingAndGlyphs" textLength="30" x="8" y="1097.9092">User</text><ellipse cx="26" cy="1111.2109" fill="#F8F8F8" filter="url(#f2ngep03k3rkn)" rx="8" ry="8" style="stroke: #383838; stroke-width: 2.0;"/><path d="M26,1119.2109 L26,1146.2109 M13,1127.2109 L39,1127.2109 M26,1146.2109 L13,1161.2109 M26,1146.2109 L39,1161.2109 " fill="none" filter="url(#f2ngep03k3rkn)" style="stroke: #383838; stroke-width: 2.0;"/><text fill="#000000" font-family="sans-serif" font-size="14" lengthAdjust="spacingAndGlyphs" textLength="60" x="54" y="113.292">DDB CMS</text><path d="M66.5,72.2969 L66.5,96.2969 M66.5,84.2969 L83.5,84.2969 " fill="none" filter="url(#f2ngep03k3rkn)" style="stroke: #383838; stroke-width: 2.0;"/><ellipse cx="95.5" cy="84.2969" fill="#F8F8F8" filter="url(#f2ngep03k3rkn)" rx="12" ry="12" style="stroke: #383838; stroke-width: 2.0;"/><text fill="#000000" font-family="sans-serif" font-size="14" lengthAdjust="spacingAndGlyphs" textLength="60" x="54" y="1097.9092">DDB CMS</text><path d="M66.5,1105.2109 L66.5,1129.2109 M66.5,1117.2109 L83.5,1117.2109 " fill="none" filter="url(#f2ngep03k3rkn)" style="stroke: #383838; stroke-width: 2.0;"/><ellipse cx="95.5" cy="1117.2109" fill="#F8F8F8" filter="url(#f2ngep03k3rkn)" rx="12" ry="12" style="stroke: #383838; stroke-width: 2.0;"/><text fill="#000000" font-family="sans-serif" font-size="14" lengthAdjust="spacingAndGlyphs" textLength="45" x="227.5" y="96.9951">Access</text><text fill="#000000" font-family="sans-serif" font-size="14" lengthAdjust="spacingAndGlyphs" textLength="54" x="223" y="113.292">platform</text><path d="M232.5,56 L232.5,80 M232.5,68 L249.5,68 " fill="none" filter="url(#f2ngep03k3rkn)" style="stroke: #383838; stroke-width: 2.0;"/><ellipse cx="261.5" cy="68" fill="#F8F8F8" filter="url(#f2ngep03k3rkn)" rx="12" ry="12" style="stroke: #383838; stroke-width: 2.0;"/><text fill="#000000" font-family="sans-serif" font-size="14" lengthAdjust="spacingAndGlyphs" textLength="45" x="227.5" y="1097.9092">Access</text><text fill="#000000" font-family="sans-serif" font-size="14" lengthAdjust="spacingAndGlyphs" textLength="54" x="223" y="1114.2061">platform</text><path d="M232.5,1121.5078 L232.5,1145.5078 M232.5,1133.5078 L249.5,1133.5078 " fill="none" filter="url(#f2ngep03k3rkn)" style="stroke: #383838; stroke-width: 2.0;"/><ellipse cx="261.5" cy="1133.5078" fill="#F8F8F8" filter="url(#f2ngep03k3rkn)" rx="12" ry="12" style="stroke: #383838; stroke-width: 2.0;"/><text fill="#000000" font-family="sans-serif" font-size="14" lengthAdjust="spacingAndGlyphs" textLength="35" x="297" y="96.9951">Open</text><text fill="#000000" font-family="sans-serif" font-size="14" lengthAdjust="spacingAndGlyphs" textLength="23" x="303" y="113.292">List</text><path d="M297,56 L297,80 M297,68 L314,68 " fill="none" filter="url(#f2ngep03k3rkn)" style="stroke: #383838; stroke-width: 2.0;"/><ellipse cx="326" cy="68" fill="#F8F8F8" filter="url(#f2ngep03k3rkn)" rx="12" ry="12" style="stroke: #383838; stroke-width: 2.0;"/><text fill="#000000" font-family="sans-serif" font-size="14" lengthAdjust="spacingAndGlyphs" textLength="35" x="297" y="1097.9092">Open</text><text fill="#000000" font-family="sans-serif" font-size="14" lengthAdjust="spacingAndGlyphs" textLength="23" x="303" y="1114.2061">List</text><path d="M297,1121.5078 L297,1145.5078 M297,1133.5078 L314,1133.5078 " fill="none" filter="url(#f2ngep03k3rkn)" style="stroke: #383838; stroke-width: 2.0;"/><ellipse cx="326" cy="1133.5078" fill="#F8F8F8" filter="url(#f2ngep03k3rkn)" rx="12" ry="12" style="stroke: #383838; stroke-width: 2.0;"/><text fill="#000000" font-family="sans-serif" font-size="14" lengthAdjust="spacingAndGlyphs" textLength="52" x="352" y="96.9951">Material</text><text fill="#000000" font-family="sans-serif" font-size="14" lengthAdjust="spacingAndGlyphs" textLength="23" x="366.5" y="113.292">List</text><path d="M360.5,56 L360.5,80 M360.5,68 L377.5,68 " fill="none" filter="url(#f2ngep03k3rkn)" style="stroke: #383838; stroke-width: 2.0;"/><ellipse cx="389.5" cy="68" fill="#F8F8F8" filter="url(#f2ngep03k3rkn)" rx="12" ry="12" style="stroke: #383838; stroke-width: 2.0;"/><text fill="#000000" font-family="sans-serif" font-size="14" lengthAdjust="spacingAndGlyphs" textLength="52" x="352" y="1097.9092">Material</text><text fill="#000000" font-family="sans-serif" font-size="14" lengthAdjust="spacingAndGlyphs" textLength="23" x="366.5" y="1114.2061">List</text><path d="M360.5,1121.5078 L360.5,1145.5078 M360.5,1133.5078 L377.5,1133.5078 " fill="none" filter="url(#f2ngep03k3rkn)" style="stroke: #383838; stroke-width: 2.0;"/><ellipse cx="389.5" cy="1133.5078" fill="#F8F8F8" filter="url(#f2ngep03k3rkn)" rx="12" ry="12" style="stroke: #383838; stroke-width: 2.0;"/><text fill="#000000" font-family="sans-serif" font-size="14" lengthAdjust="spacingAndGlyphs" textLength="79" x="508.5" y="96.9951">Subscription</text><text fill="#000000" font-family="sans-serif" font-size="14" lengthAdjust="spacingAndGlyphs" textLength="46" x="525" y="113.292">Service</text><path d="M533,48 C533,38 551,38 551,38 C551,38 569,38 569,48 L569,74 C569,84 551,84 551,84 C551,84 533,84 533,74 L533,48 " fill="#F8F8F8" filter="url(#f2ngep03k3rkn)" style="stroke: #000000; stroke-width: 1.5;"/><path d="M533,48 C533,58 551,58 551,58 C551,58 569,58 569,48 " fill="none" style="stroke: #000000; stroke-width: 1.5;"/><text fill="#000000" font-family="sans-serif" font-size="14" lengthAdjust="spacingAndGlyphs" textLength="79" x="508.5" y="1097.9092">Subscription</text><text fill="#000000" font-family="sans-serif" font-size="14" lengthAdjust="spacingAndGlyphs" textLength="46" x="525" y="1114.2061">Service</text><path d="M533,1127.5078 C533,1117.5078 551,1117.5078 551,1117.5078 C551,1117.5078 569,1117.5078 569,1127.5078 L569,1153.5078 C569,1163.5078 551,1163.5078 551,1163.5078 C551,1163.5078 533,1163.5078 533,1153.5078 L533,1127.5078 " fill="#F8F8F8" filter="url(#f2ngep03k3rkn)" style="stroke: #000000; stroke-width: 1.5;"/><path d="M533,1127.5078 C533,1137.5078 551,1137.5078 551,1137.5078 C551,1137.5078 569,1137.5078 569,1127.5078 " fill="none" style="stroke: #000000; stroke-width: 1.5;"/><text fill="#000000" font-family="sans-serif" font-size="14" lengthAdjust="spacingAndGlyphs" textLength="44" x="603.5" y="113.292">Borchk</text><path d="M608,72.2969 L608,96.2969 M608,84.2969 L625,84.2969 " fill="none" filter="url(#f2ngep03k3rkn)" style="stroke: #383838; stroke-width: 2.0;"/><ellipse cx="637" cy="84.2969" fill="#F8F8F8" filter="url(#f2ngep03k3rkn)" rx="12" ry="12" style="stroke: #383838; stroke-width: 2.0;"/><text fill="#000000" font-family="sans-serif" font-size="14" lengthAdjust="spacingAndGlyphs" textLength="44" x="603.5" y="1097.9092">Borchk</text><path d="M608,1105.2109 L608,1129.2109 M608,1117.2109 L625,1117.2109 " fill="none" filter="url(#f2ngep03k3rkn)" style="stroke: #383838; stroke-width: 2.0;"/><ellipse cx="637" cy="1117.2109" fill="#F8F8F8" filter="url(#f2ngep03k3rkn)" rx="12" ry="12" style="stroke: #383838; stroke-width: 2.0;"/><text fill="#000000" font-family="sans-serif" font-size="14" lengthAdjust="spacingAndGlyphs" textLength="23" x="716" y="113.292">FBS</text><ellipse cx="730.5" cy="84.2969" fill="#F8F8F8" filter="url(#f2ngep03k3rkn)" rx="12" ry="12" style="stroke: #383838; stroke-width: 2.0;"/><line style="stroke: #383838; stroke-width: 2.0;" x1="718.5" x2="742.5" y1="98.2969" y2="98.2969"/><text fill="#000000" font-family="sans-serif" font-size="14" lengthAdjust="spacingAndGlyphs" textLength="23" x="716" y="1097.9092">FBS</text><ellipse cx="730.5" cy="1117.2109" fill="#F8F8F8" filter="url(#f2ngep03k3rkn)" rx="12" ry="12" style="stroke: #383838; stroke-width: 2.0;"/><line style="stroke: #383838; stroke-width: 2.0;" x1="718.5" x2="742.5" y1="1131.2109" y2="1131.2109"/><text fill="#000000" font-family="sans-serif" font-size="14" lengthAdjust="spacingAndGlyphs" textLength="33" x="888" y="113.292">CULR</text><path d="M889.5,64.2969 C889.5,54.2969 907.5,54.2969 907.5,54.2969 C907.5,54.2969 925.5,54.2969 925.5,64.2969 L925.5,90.2969 C925.5,100.2969 907.5,100.2969 907.5,100.2969 C907.5,100.2969 889.5,100.2969 889.5,90.2969 L889.5,64.2969 " fill="#F8F8F8" filter="url(#f2ngep03k3rkn)" style="stroke: #000000; stroke-width: 1.5;"/><path d="M889.5,64.2969 C889.5,74.2969 907.5,74.2969 907.5,74.2969 C907.5,74.2969 925.5,74.2969 925.5,64.2969 " fill="none" style="stroke: #000000; stroke-width: 1.5;"/><text fill="#000000" font-family="sans-serif" font-size="14" lengthAdjust="spacingAndGlyphs" textLength="33" x="888" y="1097.9092">CULR</text><path d="M889.5,1111.2109 C889.5,1101.2109 907.5,1101.2109 907.5,1101.2109 C907.5,1101.2109 925.5,1101.2109 925.5,1111.2109 L925.5,1137.2109 C925.5,1147.2109 907.5,1147.2109 907.5,1147.2109 C907.5,1147.2109 889.5,1147.2109 889.5,1137.2109 L889.5,1111.2109 " fill="#F8F8F8" filter="url(#f2ngep03k3rkn)" style="stroke: #000000; stroke-width: 1.5;"/><path d="M889.5,1111.2109 C889.5,1121.2109 907.5,1121.2109 907.5,1121.2109 C907.5,1121.2109 925.5,1121.2109 925.5,1111.2109 " fill="none" style="stroke: #000000; stroke-width: 1.5;"/><rect fill="#EEEEEE" filter="url(#f2ngep03k3rkn)" height="3" style="stroke: #EEEEEE; stroke-width: 1.0;" width="929" x="3" y="147.1602"/><line style="stroke: #000000; stroke-width: 1.0;" x1="3" x2="932" y1="147.1602" y2="147.1602"/><line style="stroke: #000000; stroke-width: 1.0;" x1="3" x2="932" y1="150.1602" y2="150.1602"/><rect fill="#EEEEEE" filter="url(#f2ngep03k3rkn)" height="23.1328" style="stroke: #000000; stroke-width: 2.0;" width="102" x="416.5" y="136.5938"/><text fill="#000000" font-family="sans-serif" font-size="13" font-weight="bold" lengthAdjust="spacingAndGlyphs" textLength="85" x="422.5" y="152.6606">User transfer</text><polygon fill="#383838" points="895.5,217.125,905.5,221.125,895.5,225.125,899.5,221.125" style="stroke: #383838; stroke-width: 1.0;"/><line style="stroke: #383838; stroke-width: 1.0;" x1="730.5" x2="901.5" y1="221.125" y2="221.125"/><text fill="#000000" font-family="sans-serif" font-size="13" font-weight="bold" lengthAdjust="spacingAndGlyphs" textLength="24" x="737.5" y="185.7935">CPR</text><text fill="#000000" font-family="sans-serif" font-size="13" lengthAdjust="spacingAndGlyphs" textLength="3" x="761.5" y="185.7935">,</text><text fill="#000000" font-family="sans-serif" font-size="13" font-weight="bold" lengthAdjust="spacingAndGlyphs" textLength="59" x="767.5" y="185.7935">PatronID</text><text fill="#000000" font-family="sans-serif" font-size="13" lengthAdjust="spacingAndGlyphs" textLength="0" x="829.5" y="185.7935"/><text fill="#000000" font-family="sans-serif" font-size="13" lengthAdjust="spacingAndGlyphs" textLength="150" x="737.5" y="200.9263">Local ID's: Borrower card,</text><text fill="#000000" font-family="sans-serif" font-size="13" lengthAdjust="spacingAndGlyphs" textLength="142" x="737.5" y="216.0591">Uni-login, Sundhedskort</text><rect fill="#EEEEEE" filter="url(#f2ngep03k3rkn)" height="3" style="stroke: #EEEEEE; stroke-width: 1.0;" width="929" x="3" y="249.6914"/><line style="stroke: #000000; stroke-width: 1.0;" x1="3" x2="932" y1="249.6914" y2="249.6914"/><line style="stroke: #000000; stroke-width: 1.0;" x1="3" x2="932" y1="252.6914" y2="252.6914"/><rect fill="#EEEEEE" filter="url(#f2ngep03k3rkn)" height="23.1328" style="stroke: #000000; stroke-width: 2.0;" width="51" x="442" y="239.125"/><text fill="#000000" font-family="sans-serif" font-size="13" font-weight="bold" lengthAdjust="spacingAndGlyphs" textLength="34" x="448" y="255.1919">Login</text><polygon fill="#383838" points="241,289.3906,251,293.3906,241,297.3906,245,293.3906" style="stroke: #383838; stroke-width: 1.0;"/><line style="stroke: #383838; stroke-width: 1.0;" x1="26" x2="247" y1="293.3906" y2="293.3906"/><text fill="#000000" font-family="sans-serif" font-size="13" lengthAdjust="spacingAndGlyphs" textLength="78" x="33" y="288.3247">User ID + PIN</text><polygon fill="#383838" points="616.5,318.5234,626.5,322.5234,616.5,326.5234,620.5,322.5234" style="stroke: #383838; stroke-width: 1.0;"/><line style="stroke: #383838; stroke-width: 1.0;" x1="253" x2="622.5" y1="322.5234" y2="322.5234"/><text fill="#000000" font-family="sans-serif" font-size="13" lengthAdjust="spacingAndGlyphs" textLength="78" x="260" y="317.4575">User ID + PIN</text><polygon fill="#383838" points="718.5,347.6563,728.5,351.6563,718.5,355.6563,722.5,351.6563" style="stroke: #383838; stroke-width: 1.0;"/><line style="stroke: #383838; stroke-width: 1.0;" x1="628.5" x2="724.5" y1="351.6563" y2="351.6563"/><text fill="#000000" font-family="sans-serif" font-size="13" lengthAdjust="spacingAndGlyphs" textLength="78" x="635.5" y="346.5903">User ID + PIN</text><polygon fill="#383838" points="639.5,376.7891,629.5,380.7891,639.5,384.7891,635.5,380.7891" style="stroke: #383838; stroke-width: 1.0;"/><line style="stroke: #383838; stroke-width: 1.0; stroke-dasharray: 2.0,2.0;" x1="633.5" x2="729.5" y1="380.7891" y2="380.7891"/><text fill="#000000" font-family="sans-serif" font-size="13" lengthAdjust="spacingAndGlyphs" textLength="18" x="645.5" y="375.7231">OK</text><polygon fill="#383838" points="264,405.9219,254,409.9219,264,413.9219,260,409.9219" style="stroke: #383838; stroke-width: 1.0;"/><line style="stroke: #383838; stroke-width: 1.0; stroke-dasharray: 2.0,2.0;" x1="258" x2="627.5" y1="409.9219" y2="409.9219"/><text fill="#000000" font-family="sans-serif" font-size="13" lengthAdjust="spacingAndGlyphs" textLength="18" x="270" y="404.856">OK</text><polygon fill="#383838" points="895.5,435.0547,905.5,439.0547,895.5,443.0547,899.5,439.0547" style="stroke: #383838; stroke-width: 1.0;"/><line style="stroke: #383838; stroke-width: 1.0;" x1="253" x2="901.5" y1="439.0547" y2="439.0547"/><text fill="#000000" font-family="sans-serif" font-size="13" lengthAdjust="spacingAndGlyphs" textLength="44" x="260" y="433.9888">User ID</text><polygon fill="#383838" points="264,509.5859,254,513.5859,264,517.5859,260,513.5859" style="stroke: #383838; stroke-width: 1.0;"/><line style="stroke: #383838; stroke-width: 1.0; stroke-dasharray: 2.0,2.0;" x1="258" x2="906.5" y1="513.5859" y2="513.5859"/><text fill="#000000" font-family="sans-serif" font-size="13" font-weight="bold" lengthAdjust="spacingAndGlyphs" textLength="24" x="270" y="463.1216">CPR</text><text fill="#000000" font-family="sans-serif" font-size="13" lengthAdjust="spacingAndGlyphs" textLength="3" x="294" y="463.1216">,</text><text fill="#000000" font-family="sans-serif" font-size="13" font-weight="bold" lengthAdjust="spacingAndGlyphs" textLength="59" x="300" y="463.1216">PatronID</text><text fill="#000000" font-family="sans-serif" font-size="13" lengthAdjust="spacingAndGlyphs" textLength="0" x="362" y="463.1216"/><text fill="#000000" font-family="sans-serif" font-size="13" lengthAdjust="spacingAndGlyphs" textLength="135" x="270" y="478.2544">Municipality, Local ID's:</text><text fill="#000000" font-family="sans-serif" font-size="13" lengthAdjust="spacingAndGlyphs" textLength="88" x="270" y="493.3872">Borrower card,</text><text fill="#000000" font-family="sans-serif" font-size="13" lengthAdjust="spacingAndGlyphs" textLength="142" x="270" y="508.52">Uni-login, Sundhedskort</text><polygon fill="#383838" points="98,584.1172,88,588.1172,98,592.1172,94,588.1172" style="stroke: #383838; stroke-width: 1.0;"/><line style="stroke: #383838; stroke-width: 1.0; stroke-dasharray: 2.0,2.0;" x1="92" x2="252" y1="588.1172" y2="588.1172"/><text fill="#000000" font-family="sans-serif" font-size="13" font-weight="bold" lengthAdjust="spacingAndGlyphs" textLength="24" x="104" y="537.6528">CPR</text><text fill="#000000" font-family="sans-serif" font-size="13" lengthAdjust="spacingAndGlyphs" textLength="3" x="128" y="537.6528">,</text><text fill="#000000" font-family="sans-serif" font-size="13" font-weight="bold" lengthAdjust="spacingAndGlyphs" textLength="59" x="134" y="537.6528">PatronID</text><text fill="#000000" font-family="sans-serif" font-size="13" lengthAdjust="spacingAndGlyphs" textLength="0" x="196" y="537.6528"/><text fill="#000000" font-family="sans-serif" font-size="13" lengthAdjust="spacingAndGlyphs" textLength="135" x="104" y="552.7856">Municipality, Local ID's:</text><text fill="#000000" font-family="sans-serif" font-size="13" lengthAdjust="spacingAndGlyphs" textLength="88" x="104" y="567.9185">Borrower card,</text><text fill="#000000" font-family="sans-serif" font-size="13" lengthAdjust="spacingAndGlyphs" textLength="142" x="104" y="583.0513">Uni-login, Sundhedskort</text><rect fill="#EEEEEE" filter="url(#f2ngep03k3rkn)" height="3" style="stroke: #EEEEEE; stroke-width: 1.0;" width="929" x="3" y="616.6836"/><line style="stroke: #000000; stroke-width: 1.0;" x1="3" x2="932" y1="616.6836" y2="616.6836"/><line style="stroke: #000000; stroke-width: 1.0;" x1="3" x2="932" y1="619.6836" y2="619.6836"/><rect fill="#EEEEEE" filter="url(#f2ngep03k3rkn)" height="23.1328" style="stroke: #000000; stroke-width: 2.0;" width="143" x="396" y="606.1172"/><text fill="#000000" font-family="sans-serif" font-size="13" font-weight="bold" lengthAdjust="spacingAndGlyphs" textLength="126" x="402" y="622.1841">Open List migration</text><polygon fill="#383838" points="369,656.3828,379,660.3828,369,664.3828,373,660.3828" style="stroke: #383838; stroke-width: 1.0;"/><line style="stroke: #383838; stroke-width: 1.0;" x1="87" x2="375" y1="660.3828" y2="660.3828"/><text fill="#000000" font-family="sans-serif" font-size="13" lengthAdjust="spacingAndGlyphs" textLength="32" x="94" y="655.3169">GUID</text><path d="M34,675.3828 L97,675.3828 L97,682.3828 L87,692.3828 L34,692.3828 L34,675.3828 " fill="#EEEEEE" style="stroke: #000000; stroke-width: 1.0;"/><rect fill="none" height="393.5313" style="stroke: #000000; stroke-width: 2.0;" width="579.5" x="34" y="675.3828"/><text fill="#000000" font-family="sans-serif" font-size="13" font-weight="bold" lengthAdjust="spacingAndGlyphs" textLength="18" x="49" y="688.4497">alt</text><text fill="#000000" font-family="sans-serif" font-size="11" font-weight="bold" lengthAdjust="spacingAndGlyphs" textLength="63" x="112" y="687.5933">[List found]</text><polygon fill="#383838" points="98,709.6484,88,713.6484,98,717.6484,94,713.6484" style="stroke: #383838; stroke-width: 1.0;"/><line style="stroke: #383838; stroke-width: 1.0; stroke-dasharray: 2.0,2.0;" x1="92" x2="380" y1="713.6484" y2="713.6484"/><text fill="#000000" font-family="sans-serif" font-size="13" lengthAdjust="spacingAndGlyphs" textLength="19" x="104" y="708.5825">List</text><line style="stroke: #000000; stroke-width: 1.0; stroke-dasharray: 2.0,2.0;" x1="34" x2="613.5" y1="722.6484" y2="722.6484"/><text fill="#000000" font-family="sans-serif" font-size="11" font-weight="bold" lengthAdjust="spacingAndGlyphs" textLength="78" x="39" y="732.8589">[No list found]</text><polygon fill="#383838" points="305.5,753.5859,315.5,757.5859,305.5,761.5859,309.5,757.5859" style="stroke: #383838; stroke-width: 1.0;"/><line style="stroke: #383838; stroke-width: 1.0;" x1="87" x2="311.5" y1="757.5859" y2="757.5859"/><text fill="#000000" font-family="sans-serif" font-size="13" font-weight="bold" lengthAdjust="spacingAndGlyphs" textLength="7" x="94" y="752.52">1</text><text fill="#000000" font-family="sans-serif" font-size="13" lengthAdjust="spacingAndGlyphs" textLength="23" x="105" y="752.52">CPR</text><polygon fill="#383838" points="98,782.7188,88,786.7188,98,790.7188,94,786.7188" style="stroke: #383838; stroke-width: 1.0;"/><line style="stroke: #383838; stroke-width: 1.0; stroke-dasharray: 2.0,2.0;" x1="92" x2="316.5" y1="786.7188" y2="786.7188"/><text fill="#000000" font-family="sans-serif" font-size="13" font-weight="bold" lengthAdjust="spacingAndGlyphs" textLength="7" x="104" y="781.6528">2</text><text fill="#000000" font-family="sans-serif" font-size="13" lengthAdjust="spacingAndGlyphs" textLength="72" x="115" y="781.6528">List or FALSE</text><polygon fill="#383838" points="305.5,811.8516,315.5,815.8516,305.5,819.8516,309.5,815.8516" style="stroke: #383838; stroke-width: 1.0;"/><line style="stroke: #383838; stroke-width: 1.0;" x1="87" x2="311.5" y1="815.8516" y2="815.8516"/><text fill="#000000" font-family="sans-serif" font-size="13" font-weight="bold" lengthAdjust="spacingAndGlyphs" textLength="7" x="94" y="810.7856">3</text><text fill="#000000" font-family="sans-serif" font-size="13" lengthAdjust="spacingAndGlyphs" textLength="85" x="105" y="810.7856">Borrower card</text><polygon fill="#383838" points="98,840.9844,88,844.9844,98,848.9844,94,844.9844" style="stroke: #383838; stroke-width: 1.0;"/><line style="stroke: #383838; stroke-width: 1.0; stroke-dasharray: 2.0,2.0;" x1="92" x2="316.5" y1="844.9844" y2="844.9844"/><text fill="#000000" font-family="sans-serif" font-size="13" font-weight="bold" lengthAdjust="spacingAndGlyphs" textLength="7" x="104" y="839.9185">4</text><text fill="#000000" font-family="sans-serif" font-size="13" lengthAdjust="spacingAndGlyphs" textLength="72" x="115" y="839.9185">List or FALSE</text><polygon fill="#383838" points="305.5,875.1172,315.5,879.1172,305.5,883.1172,309.5,879.1172" style="stroke: #383838; stroke-width: 1.0;"/><line style="stroke: #383838; stroke-width: 1.0;" x1="87" x2="311.5" y1="879.1172" y2="879.1172"/><text fill="#000000" font-family="sans-serif" font-size="13" font-weight="bold" lengthAdjust="spacingAndGlyphs" textLength="7" x="94" y="874.0513">5</text><text fill="#000000" font-family="sans-serif" font-size="13" lengthAdjust="spacingAndGlyphs" textLength="63" x="105" y="874.0513">User name</text><path d="M322,857.9844 L322,882.9844 L469,882.9844 L469,867.9844 L459,857.9844 L322,857.9844 " fill="#ECECEC" filter="url(#f2ngep03k3rkn)" style="stroke: #383838; stroke-width: 1.0;"/><path d="M459,857.9844 L459,867.9844 L469,867.9844 L459,857.9844 " fill="#ECECEC" style="stroke: #383838; stroke-width: 1.0;"/><text fill="#000000" font-family="sans-serif" font-size="13" lengthAdjust="spacingAndGlyphs" textLength="126" x="328" y="875.0513">User name (from FBS)</text><polygon fill="#383838" points="98,909.25,88,913.25,98,917.25,94,913.25" style="stroke: #383838; stroke-width: 1.0;"/><line style="stroke: #383838; stroke-width: 1.0; stroke-dasharray: 2.0,2.0;" x1="92" x2="316.5" y1="913.25" y2="913.25"/><text fill="#000000" font-family="sans-serif" font-size="13" font-weight="bold" lengthAdjust="spacingAndGlyphs" textLength="7" x="104" y="908.1841">6</text><text fill="#000000" font-family="sans-serif" font-size="13" lengthAdjust="spacingAndGlyphs" textLength="72" x="115" y="908.1841">List or FALSE</text><path d="M44,928.25 L107,928.25 L107,935.25 L97,945.25 L44,945.25 L44,928.25 " fill="#EEEEEE" style="stroke: #000000; stroke-width: 1.0;"/><rect fill="none" height="133.6641" style="stroke: #000000; stroke-width: 2.0;" width="559.5" x="44" y="928.25"/><text fill="#000000" font-family="sans-serif" font-size="13" font-weight="bold" lengthAdjust="spacingAndGlyphs" textLength="18" x="59" y="941.3169">alt</text><text fill="#000000" font-family="sans-serif" font-size="11" font-weight="bold" lengthAdjust="spacingAndGlyphs" textLength="100" x="122" y="940.4604">[List with content]</text><polygon fill="#383838" points="369,962.5156,379,966.5156,369,970.5156,373,966.5156" style="stroke: #383838; stroke-width: 1.0;"/><line style="stroke: #383838; stroke-width: 1.0;" x1="87" x2="375" y1="966.5156" y2="966.5156"/><text fill="#000000" font-family="sans-serif" font-size="13" lengthAdjust="spacingAndGlyphs" textLength="108" x="94" y="961.4497">GUID, merged lists</text><polygon fill="#383838" points="539,991.6484,549,995.6484,539,999.6484,543,995.6484" style="stroke: #383838; stroke-width: 1.0;"/><line style="stroke: #383838; stroke-width: 1.0;" x1="381" x2="545" y1="995.6484" y2="995.6484"/><text fill="#000000" font-family="sans-serif" font-size="13" lengthAdjust="spacingAndGlyphs" textLength="146" x="388" y="990.5825">Material List Subscription</text><polygon fill="#383838" points="392,1020.7813,382,1024.7813,392,1028.7813,388,1024.7813" style="stroke: #383838; stroke-width: 1.0;"/><line style="stroke: #383838; stroke-width: 1.0; stroke-dasharray: 2.0,2.0;" x1="386" x2="550" y1="1024.7813" y2="1024.7813"/><text fill="#000000" font-family="sans-serif" font-size="13" lengthAdjust="spacingAndGlyphs" textLength="18" x="398" y="1019.7153">OK</text><polygon fill="#383838" points="98,1049.9141,88,1053.9141,98,1057.9141,94,1053.9141" style="stroke: #383838; stroke-width: 1.0;"/><line style="stroke: #383838; stroke-width: 1.0; stroke-dasharray: 2.0,2.0;" x1="92" x2="380" y1="1053.9141" y2="1053.9141"/><text fill="#000000" font-family="sans-serif" font-size="13" lengthAdjust="spacingAndGlyphs" textLength="19" x="104" y="1048.8481">List</text><!--MD5=[e3ff64a308c056839cc749c1491886ed]
@startuml

title User Data Flow (Open List -> Material List)- Sequence Diagram

skinparam monochrome true

actor User
boundary "DDB CMS" as CMS
boundary "Access\nplatform" as AP
boundary "Open\nList" as B14
boundary "Material\nList" as ML
database "Subscription\nService" as SS
boundary Borchk as BORCHK
entity FBS
database CULR


== User transfer ==
FBS     ->  CULR: **CPR**, **PatronID** \nLocal ID's: Borrower card, \nUni-login, Sundhedskort

== Login ==
User    ->  AP: User ID + PIN
AP      ->  BORCHK: User ID + PIN
BORCHK  ->  FBS: User ID + PIN
BORCHK  <- - FBS: OK
AP      <- - BORCHK: OK
AP      ->  CULR: User ID
AP      <- - CULR: **CPR**, **PatronID** \nMunicipality, Local ID's: \nBorrower card, \nUni-login, Sundhedskort
AP      - -> CMS: **CPR**, **PatronID** \nMunicipality, Local ID's: \nBorrower card, \nUni-login, Sundhedskort

== Open List migration ==

CMS -> ML: GUID

alt List found
    CMS     <- - ML: List
else No list found
    autonumber
        CMS ->  B14: CPR
        CMS <- - B14: List or FALSE
        CMS ->  B14: Borrower card
        CMS <- - B14: List or FALSE
        CMS ->  B14: User name
note right
	User name (from FBS)
end note
    CMS     <- - B14: List or FALSE
    autonumber stop
    
    alt List with content
        CMS ->  ML: GUID, merged lists
        ML  ->  SS: Material List Subscription
        ML  <- - SS: OK
        CMS <- - ML: List
    end
end

@enduml

PlantUML version 1.2019.13(Tue Dec 10 17:18:29 GMT 2019)
(GPL source distribution)
Java Runtime: Java(TM) SE Runtime Environment
JVM: Java HotSpot(TM) 64-Bit Server VM
Java Version: 1.8.0_202-b08
Operating System: Linux
Default Encoding: ANSI_X3.4-1968
Language: en
Country: US
--></g></svg>