<?xml version="1.0" encoding="UTF-8" standalone="no"?><svg xmlns="http://www.w3.org/2000/svg" xmlns:xlink="http://www.w3.org/1999/xlink" contentScriptType="application/ecmascript" contentStyleType="text/css" height="1008px" preserveAspectRatio="none" style="width:1029px;height:1008px;" version="1.1" viewBox="0 0 1029 1008" width="1029px" zoomAndPan="magnify"><defs><filter height="300%" id="f1ke1zrh34jk2w" width="300%" x="-1" y="-1"><feGaussianBlur result="blurOut" stdDeviation="2.0"/><feColorMatrix in="blurOut" result="blurOut2" type="matrix" values="0 0 0 0 0 0 0 0 0 0 0 0 0 0 0 0 0 0 .4 0"/><feOffset dx="4.0" dy="4.0" in="blurOut2" result="blurOut3"/><feBlend in="SourceGraphic" in2="blurOut3" mode="normal"/></filter></defs><g><text fill="#000000" font-family="sans-serif" font-size="18" lengthAdjust="spacingAndGlyphs" textLength="421" x="307.5" y="16.708">Niveau 2 - Adgangsplatform - Component Diagram</text><!--MD5=[25b1a9b8618e5e1046b2ed88f5041f17]
cluster ADGANG--><polygon fill="#FFFFFF" filter="url(#f1ke1zrh34jk2w)" points="14,175.9531,24,165.9531,286,165.9531,286,685.9531,276,695.9531,14,695.9531,14,175.9531" style="stroke: #000000; stroke-width: 1.5;"/><line style="stroke: #000000; stroke-width: 1.5;" x1="276" x2="285" y1="175.9531" y2="166.9531"/><line style="stroke: #000000; stroke-width: 1.5;" x1="14" x2="276" y1="175.9531" y2="175.9531"/><line style="stroke: #000000; stroke-width: 1.5;" x1="276" x2="276" y1="175.9531" y2="695.9531"/><text fill="#000000" font-family="sans-serif" font-size="14" font-weight="bold" lengthAdjust="spacingAndGlyphs" textLength="120" x="86" y="191.9482">Adgangsplatform</text><!--MD5=[e6925c455560c697c15e9ff4ef0b1888]
cluster FBS--><polygon fill="#FFFFFF" filter="url(#f1ke1zrh34jk2w)" points="144,814.9531,154,804.9531,399,804.9531,399,870.9531,389,880.9531,144,880.9531,144,814.9531" style="stroke: #000000; stroke-width: 1.5;"/><line style="stroke: #000000; stroke-width: 1.5;" x1="389" x2="398" y1="814.9531" y2="805.9531"/><line style="stroke: #000000; stroke-width: 1.5;" x1="144" x2="389" y1="814.9531" y2="814.9531"/><line style="stroke: #000000; stroke-width: 1.5;" x1="389" x2="389" y1="814.9531" y2="880.9531"/><text fill="#000000" font-family="sans-serif" font-size="14" font-weight="bold" lengthAdjust="spacingAndGlyphs" textLength="24" x="255.5" y="830.9482">FBS</text><!--MD5=[7875bf3a67f468a953066d52bfdd3953]
cluster FFU--><polygon fill="#FFFFFF" filter="url(#f1ke1zrh34jk2w)" points="376,596.9531,386,586.9531,514,586.9531,514,652.9531,504,662.9531,376,662.9531,376,596.9531" style="stroke: #000000; stroke-width: 1.5;"/><line style="stroke: #000000; stroke-width: 1.5;" x1="504" x2="513" y1="596.9531" y2="587.9531"/><line style="stroke: #000000; stroke-width: 1.5;" x1="376" x2="504" y1="596.9531" y2="596.9531"/><line style="stroke: #000000; stroke-width: 1.5;" x1="504" x2="504" y1="596.9531" y2="662.9531"/><text fill="#000000" font-family="sans-serif" font-size="14" font-weight="bold" lengthAdjust="spacingAndGlyphs" textLength="26" x="428" y="612.9482">FFU</text><!--MD5=[acd913305339c393065b2af20631e449]
cluster NETS--><polygon fill="#FFFFFF" filter="url(#f1ke1zrh34jk2w)" points="604,382.9531,614,372.9531,916,372.9531,916,460.9531,906,470.9531,604,470.9531,604,382.9531" style="stroke: #000000; stroke-width: 1.5;"/><line style="stroke: #000000; stroke-width: 1.5;" x1="906" x2="915" y1="382.9531" y2="373.9531"/><line style="stroke: #000000; stroke-width: 1.5;" x1="604" x2="906" y1="382.9531" y2="382.9531"/><line style="stroke: #000000; stroke-width: 1.5;" x1="906" x2="906" y1="382.9531" y2="470.9531"/><text fill="#000000" font-family="sans-serif" font-size="14" font-weight="bold" lengthAdjust="spacingAndGlyphs" textLength="33" x="739.5" y="398.9482">NETS</text><!--MD5=[0fc03e1da33312419079eb0d8329ec19]
entity LOGIN--><ellipse cx="68" cy="226.9531" fill="#FEFECE" filter="url(#f1ke1zrh34jk2w)" rx="8" ry="8" style="stroke: #A80036; stroke-width: 2.0;"/><text fill="#000000" font-family="sans-serif" font-size="14" lengthAdjust="spacingAndGlyphs" textLength="74" x="31" y="256.9482">login.bib.dk</text><!--MD5=[0b6758c9fa508624fce07df9e4cc13a7]
entity oauthLOGIN--><ellipse cx="213" cy="226.9531" fill="#FEFECE" filter="url(#f1ke1zrh34jk2w)" rx="8" ry="8" style="stroke: #A80036; stroke-width: 2.0;"/><text fill="#000000" font-family="sans-serif" font-size="14" lengthAdjust="spacingAndGlyphs" textLength="114" x="156" y="256.9482">oauth.login.bib.dk</text><!--MD5=[abf762d4e9bb8645df830cbcd03e5f87]
entity CULR--><ellipse cx="82" cy="433.9531" fill="#FEFECE" filter="url(#f1ke1zrh34jk2w)" rx="8" ry="8" style="stroke: #A80036; stroke-width: 2.0;"/><text fill="#000000" font-family="sans-serif" font-size="14" lengthAdjust="spacingAndGlyphs" textLength="33" x="65.5" y="463.9482">CULR</text><!--MD5=[a45d15b46e3087ed63d44d77b8c4e822]
entity CULRdb--><path d="M22.5,595.9531 C22.5,585.9531 150,585.9531 150,585.9531 C150,585.9531 277.5,585.9531 277.5,595.9531 L277.5,678.1406 C277.5,688.1406 150,688.1406 150,688.1406 C150,688.1406 22.5,688.1406 22.5,678.1406 L22.5,595.9531 " fill="#FEFECE" filter="url(#f1ke1zrh34jk2w)" style="stroke: #000000; stroke-width: 1.5;"/><path d="M22.5,595.9531 C22.5,605.9531 150,605.9531 150,605.9531 C150,605.9531 277.5,605.9531 277.5,595.9531 " fill="none" style="stroke: #000000; stroke-width: 1.5;"/><text fill="#000000" font-family="sans-serif" font-size="14" lengthAdjust="spacingAndGlyphs" textLength="94" x="32.5" y="622.9482">CULR database</text><path d="M22.5,621.25 C22.5,631.25 150,631.25 150,631.25 C150,631.25 277.5,631.25 277.5,621.25 " fill="none" style="stroke: #000000; stroke-width: 1.0;"/><path d="M22.5,623.25 C22.5,633.25 150,633.25 150,633.25 C150,633.25 277.5,633.25 277.5,623.25 " fill="none" style="stroke: #000000; stroke-width: 1.0;"/><text fill="#000000" font-family="sans-serif" font-size="14" lengthAdjust="spacingAndGlyphs" textLength="0" x="42.5" y="643.2451"/><text fill="#000000" font-family="sans-serif" font-size="14" lengthAdjust="spacingAndGlyphs" textLength="223" x="38.5" y="659.542">GUID, CPR, UserId, Kommunekode</text><text fill="#000000" font-family="sans-serif" font-size="14" lengthAdjust="spacingAndGlyphs" textLength="0" x="42.5" y="675.8389"/><!--MD5=[0386b08d970599672cc800b789513a94]
entity BORCHK--><rect fill="#FEFECE" filter="url(#f1ke1zrh34jk2w)" height="36.2969" style="stroke: #A80036; stroke-width: 1.5;" width="119" x="158.5" y="415.9531"/><rect fill="#FEFECE" height="5" style="stroke: #A80036; stroke-width: 1.5;" width="10" x="153.5" y="420.9531"/><rect fill="#FEFECE" height="5" style="stroke: #A80036; stroke-width: 1.5;" width="10" x="153.5" y="442.25"/><text fill="#000000" font-family="sans-serif" font-size="14" lengthAdjust="spacingAndGlyphs" textLength="99" x="168.5" y="438.9482">Borrower check</text><!--MD5=[8f3f211bdd41ac51a4c6ee3c587d683f]
entity FBSA--><rect fill="#FEFECE" filter="url(#f1ke1zrh34jk2w)" height="36.2969" style="stroke: #A80036; stroke-width: 1.5;" width="83" x="152.5" y="836.9531"/><rect fill="#FEFECE" height="5" style="stroke: #A80036; stroke-width: 1.5;" width="10" x="147.5" y="841.9531"/><rect fill="#FEFECE" height="5" style="stroke: #A80036; stroke-width: 1.5;" width="10" x="147.5" y="863.25"/><text fill="#000000" font-family="sans-serif" font-size="14" lengthAdjust="spacingAndGlyphs" textLength="63" x="162.5" y="859.9482">FBSadmin</text><!--MD5=[3529456a0ccd0dabd7d87816c0184922]
entity FBSU--><rect fill="#FEFECE" filter="url(#f1ke1zrh34jk2w)" height="36.2969" style="stroke: #A80036; stroke-width: 1.5;" width="120" x="271" y="836.9531"/><rect fill="#FEFECE" height="5" style="stroke: #A80036; stroke-width: 1.5;" width="10" x="266" y="841.9531"/><rect fill="#FEFECE" height="5" style="stroke: #A80036; stroke-width: 1.5;" width="10" x="266" y="863.25"/><text fill="#000000" font-family="sans-serif" font-size="14" lengthAdjust="spacingAndGlyphs" textLength="100" x="281" y="859.9482">FBS Brugerlogin</text><!--MD5=[39a085b3b475b0fe4cf476956cced7f7]
entity FFUU--><rect fill="#FEFECE" filter="url(#f1ke1zrh34jk2w)" height="36.2969" style="stroke: #A80036; stroke-width: 1.5;" width="121" x="384.5" y="618.9531"/><rect fill="#FEFECE" height="5" style="stroke: #A80036; stroke-width: 1.5;" width="10" x="379.5" y="623.9531"/><rect fill="#FEFECE" height="5" style="stroke: #A80036; stroke-width: 1.5;" width="10" x="379.5" y="645.25"/><text fill="#000000" font-family="sans-serif" font-size="14" lengthAdjust="spacingAndGlyphs" textLength="101" x="394.5" y="641.9482">FFU Brugerlogin</text><!--MD5=[5e158b9447452044755385ed0ef52898]
entity NETSUA--><ellipse cx="793" cy="433.9531" fill="#FEFECE" filter="url(#f1ke1zrh34jk2w)" rx="8" ry="8" style="stroke: #A80036; stroke-width: 2.0;"/><text fill="#000000" font-family="sans-serif" font-size="14" lengthAdjust="spacingAndGlyphs" textLength="145" x="720.5" y="463.9482">NETS autentiker bruger</text><!--MD5=[2a32453e78c8b3184c27021fcd48a4c6]
entity NEMID--><rect fill="#FEFECE" filter="url(#f1ke1zrh34jk2w)" height="36.2969" style="stroke: #A80036; stroke-width: 1.5;" width="66" x="612" y="415.9531"/><rect fill="#FEFECE" height="5" style="stroke: #A80036; stroke-width: 1.5;" width="10" x="607" y="420.9531"/><rect fill="#FEFECE" height="5" style="stroke: #A80036; stroke-width: 1.5;" width="10" x="607" y="442.25"/><text fill="#000000" font-family="sans-serif" font-size="14" lengthAdjust="spacingAndGlyphs" textLength="46" x="622" y="438.9482">NemID</text><!--MD5=[47cd6a2b813fd440b2e7ef0e4bd8d255]
entity SERPLAT--><polygon fill="#FFFFFF" filter="url(#f1ke1zrh34jk2w)" points="259,959.9531,269,949.9531,403,949.9531,403,986.25,393,996.25,259,996.25,259,959.9531" style="stroke: #000000; stroke-width: 1.5;"/><line style="stroke: #000000; stroke-width: 1.5;" x1="393" x2="402" y1="959.9531" y2="950.9531"/><line style="stroke: #000000; stroke-width: 1.5;" x1="259" x2="393" y1="959.9531" y2="959.9531"/><line style="stroke: #000000; stroke-width: 1.5;" x1="393" x2="393" y1="959.9531" y2="996.25"/><text fill="#000000" font-family="sans-serif" font-size="14" lengthAdjust="spacingAndGlyphs" textLength="104" x="274" y="982.9482">Service platform</text><!--MD5=[e44d65e4c58fdb9888e645f9fe8cc7c6]
entity Bibliotek.dk--><rect fill="#FEFECE" filter="url(#f1ke1zrh34jk2w)" height="36.2969" style="stroke: #A80036; stroke-width: 1.5;" width="96" x="92" y="28.9531"/><rect fill="#FEFECE" height="5" style="stroke: #A80036; stroke-width: 1.5;" width="10" x="87" y="33.9531"/><rect fill="#FEFECE" height="5" style="stroke: #A80036; stroke-width: 1.5;" width="10" x="87" y="55.25"/><text fill="#000000" font-family="sans-serif" font-size="14" lengthAdjust="spacingAndGlyphs" textLength="76" x="102" y="51.9482">Bibliotek.dk</text><!--MD5=[3163d4e07764a68d1257ae20c301ff7f]
entity AUTH2--><rect fill="#FEFECE" filter="url(#f1ke1zrh34jk2w)" height="36.2969" style="stroke: #A80036; stroke-width: 1.5;" width="96" x="223" y="28.9531"/><rect fill="#FEFECE" height="5" style="stroke: #A80036; stroke-width: 1.5;" width="10" x="218" y="33.9531"/><rect fill="#FEFECE" height="5" style="stroke: #A80036; stroke-width: 1.5;" width="10" x="218" y="55.25"/><text fill="#000000" font-family="sans-serif" font-size="14" lengthAdjust="spacingAndGlyphs" textLength="76" x="233" y="51.9482">Auth.dbc.dk</text><!--MD5=[93ceaeff5ff54fa389f967de1986497d]
reverse link Bibliotek.dk to oauthLOGIN--><path d="M149.2893,69.8581 C165.4613,109.7344 198.1223,190.2684 209.2146,217.6193 " fill="none" id="Bibliotek.dk&lt;-oauthLOGIN" style="stroke: #A80036; stroke-width: 1.0;"/><polygon fill="#A80036" points="147.4014,65.203,147.077,75.0465,149.2805,69.8365,154.4905,72.04,147.4014,65.203" style="stroke: #A80036; stroke-width: 1.0;"/><!--MD5=[f78f08493cabb425068445eaced08fc4]
reverse link Bibliotek.dk to LOGIN--><path d="M130.838,69.8581 C114.8875,109.7344 82.6739,190.2684 71.7335,217.6193 " fill="none" id="Bibliotek.dk&lt;-LOGIN" style="stroke: #A80036; stroke-width: 1.0;"/><polygon fill="#A80036" points="132.7,65.203,125.6435,72.0736,130.843,69.8454,133.0712,75.0449,132.7,65.203" style="stroke: #A80036; stroke-width: 1.0;"/><!--MD5=[36bee76dbd95d7bcf270a24630cb105e]
link LOGIN to FBSU--><path d="M77.3365,232.326 C89.1944,238.9102 110.4682,249.9313 130,255.9531 C222.2896,284.4066 559,228.8768 559,325.4531 C559,325.4531 559,325.4531 559,757.4531 C559,793.0647 463.7784,823.3681 396.409,840.3514 " fill="none" id="LOGIN-&gt;FBSU" style="stroke: #A80036; stroke-width: 1.0;"/><polygon fill="#A80036" points="391.2026,841.6514,400.9036,843.3517,396.0536,840.44,398.9653,835.59,391.2026,841.6514" style="stroke: #A80036; stroke-width: 1.0;"/><!--MD5=[d6e958dc4f7c504a71e1942c08784180]
reverse link FBSU to SERPLAT--><path d="M331,878.1763 C331,898.8613 331,928.9724 331,949.6742 " fill="none" id="FBSU&lt;-SERPLAT" style="stroke: #A80036; stroke-width: 1.0; stroke-dasharray: 7.0,7.0;"/><polygon fill="#A80036" points="331,873.132,327,882.132,331,878.132,335,882.132,331,873.132" style="stroke: #A80036; stroke-width: 1.0;"/><text fill="#000000" font-family="sans-serif" font-size="13" lengthAdjust="spacingAndGlyphs" textLength="134" x="332" y="916.02">Hent bopælskommune</text><!--MD5=[847eab525735226984c88a24ccde2e04]
link LOGIN to BORCHK--><path d="M74.6389,236.1147 C96.8841,266.8131 169.2195,366.6361 201.8147,411.6174 " fill="none" id="LOGIN-&gt;BORCHK" style="stroke: #A80036; stroke-width: 1.0;"/><polygon fill="#A80036" points="204.842,415.7951,202.7998,406.1603,201.908,411.7464,196.3219,410.8547,204.842,415.7951" style="stroke: #A80036; stroke-width: 1.0;"/><!--MD5=[e7ac8752554df29504f7017c1300ceae]
link BORCHK to FBSU--><path d="M268.2215,451.9598 C298.401,466.3505 331,489.8935 331,524.4531 C331,524.4531 331,524.4531 331,757.4531 C331,782.7809 331,811.8097 331,831.5604 " fill="none" id="BORCHK-&gt;FBSU" style="stroke: #A80036; stroke-width: 1.0;"/><polygon fill="#A80036" points="331,836.6238,335,827.6238,331,831.6238,327,827.6238,331,836.6238" style="stroke: #A80036; stroke-width: 1.0;"/><!--MD5=[a83307eb419cdd2b3df39a70d01ba664]
link BORCHK to FFUU--><path d="M277.6231,450.1313 C304.0684,459.4745 334.272,473.3453 357,492.9531 C396.1669,526.743 423.1659,582.4175 436.1513,613.7187 " fill="none" id="BORCHK-&gt;FFUU" style="stroke: #A80036; stroke-width: 1.0;"/><polygon fill="#A80036" points="438.1147,618.526,438.4145,608.6817,436.224,613.8973,431.0085,611.7068,438.1147,618.526" style="stroke: #A80036; stroke-width: 1.0;"/><!--MD5=[ee6ba57949df233e9da19f5d352ff02e]
link LOGIN to CULR--><path d="M68.6196,236.1147 C70.8288,268.779 78.331,379.7045 81.026,419.5517 " fill="none" id="LOGIN-&gt;CULR" style="stroke: #A80036; stroke-width: 1.0;"/><polygon fill="#A80036" points="81.3875,424.8973,84.771,415.6479,81.0501,419.9087,76.7893,416.1878,81.3875,424.8973" style="stroke: #A80036; stroke-width: 1.0;"/><!--MD5=[63abe035aedfeaac0bb8270fe6b566c4]
link CULR to CULRdb--><path d="M85.0985,443.2031 C93.1116,467.1244 115.0198,532.527 131.176,580.758 " fill="none" id="CULR-&gt;CULRdb" style="stroke: #A80036; stroke-width: 1.0;"/><polygon fill="#A80036" points="132.8195,585.6641,133.7537,575.8597,131.2313,580.9231,126.1679,578.4007,132.8195,585.6641" style="stroke: #A80036; stroke-width: 1.0;"/><!--MD5=[989c338aacf6e987cd5e144122e9cce9]
reverse link CULRdb to FBSA--><path d="M161.3492,693.1833 C170.935,740.6767 184.0766,805.7869 190.3624,836.9307 " fill="none" id="CULRdb&lt;-FBSA" style="stroke: #A80036; stroke-width: 1.0; stroke-dasharray: 7.0,7.0;"/><polygon fill="#A80036" points="160.316,688.0644,158.1757,697.6779,161.3053,692.9656,166.0176,696.0951,160.316,688.0644" style="stroke: #A80036; stroke-width: 1.0;"/><text fill="#000000" font-family="sans-serif" font-size="13" lengthAdjust="spacingAndGlyphs" textLength="101" x="178" y="762.02">CPR, userId, Kmd</text><!--MD5=[197396db0e723fde1dec0aee6fa74c7e]
link LOGIN to NETS--><path d="M77.2514,232.627 C89.0216,239.5218 110.2048,250.8632 130,255.9531 C326.2768,306.421 385.309,251.3825 585,285.9531 C654.6588,298.0125 706.2296,294.703 752.8503,300.9084 C776.1606,304.0111 798.2334,309.4926 820.711,320.4632 C831.9497,325.9485 843.2897,332.8061 854.9361,341.4248 C860.7593,345.7342 866.6591,350.4838 872.6612,355.7223 C875.6623,358.3416 878.6889,361.0831 881.7443,363.9528 C883.272,365.3877 884.8069,366.8547 886.3494,368.3545 C887.1206,369.1044 887.8937,369.8625 888.6688,370.6289 C889.0564,371.0121 889.4444,371.3974 889.8329,371.7847 " fill="none" id="LOGIN-&gt;NETS" style="stroke: #A80036; stroke-width: 1.0;"/><polygon fill="#A80036" points="889.8329,371.7847,886.2837,362.5976,886.2921,368.2545,880.6353,368.2629,889.8329,371.7847" style="stroke: #A80036; stroke-width: 1.0;"/><text fill="#000000" font-family="sans-serif" font-size="13" lengthAdjust="spacingAndGlyphs" textLength="173" x="844" y="330.02">Autentificer bruger via NemID</text><!--MD5=[97f478765619098be9829316e7844293]
@startuml

title Niveau 2 - Adgangsplatform - Component Diagram

[Bibliotek.dk]
interface [Auth.dbc.dk] as AUTH2

node Adgangsplatform as ADGANG {
    interface login.bib.dk as LOGIN
    interface oauth.login.bib.dk as       oauthLOGIN
    interface CULR
    database CULRdb  [
        CULR database
        ===
        
        GUID, CPR, UserId, Kommunekode
        
    ]
    component "Borrower check" as BORCHK
}

node FBS {
    component FBSadmin as FBSA
    component "FBS Brugerlogin" as FBSU
}

node FFU {
    component "FFU Brugerlogin" as FFUU
}

node NETS {
    interface "NETS autentiker bruger" as NETSUA
    component "NemID" as NEMID
}

node "Service platform" as SERPLAT {
}

[Bibliotek.dk] <-d- - oauthLOGIN
[Bibliotek.dk] <-d- - LOGIN
LOGIN -down- -> FBSU
FBSU <.. SERPLAT: Hent bopælskommune
LOGIN - -> BORCHK
BORCHK -down- -> FBSU
BORCHK - -down-> FFUU

LOGIN - -> CULR
CULR - -> CULRdb

FBSA .up..> CULRdb: CPR, userId, Kmd

LOGIN -down- -> NETS : Autentificer bruger via NemID

@enduml

PlantUML version 1.2019.13(Tue Dec 10 17:18:29 GMT 2019)
(GPL source distribution)
Java Runtime: Java(TM) SE Runtime Environment
JVM: Java HotSpot(TM) 64-Bit Server VM
Java Version: 1.8.0_202-b08
Operating System: Linux
Default Encoding: ANSI_X3.4-1968
Language: en
Country: US
--></g></svg>