<?xml version="1.0" encoding="UTF-8" standalone="no"?><svg xmlns="http://www.w3.org/2000/svg" xmlns:xlink="http://www.w3.org/1999/xlink" contentScriptType="application/ecmascript" contentStyleType="text/css" height="528px" preserveAspectRatio="none" style="width:406px;height:528px;" version="1.1" viewBox="0 0 406 528" width="406px" zoomAndPan="magnify"><defs><filter height="300%" id="fd332ny9pazol" width="300%" x="-1" y="-1"><feGaussianBlur result="blurOut" stdDeviation="2.0"/><feColorMatrix in="blurOut" result="blurOut2" type="matrix" values="0 0 0 0 0 0 0 0 0 0 0 0 0 0 0 0 0 0 .4 0"/><feOffset dx="4.0" dy="4.0" in="blurOut2" result="blurOut3"/><feBlend in="SourceGraphic" in2="blurOut3" mode="normal"/></filter></defs><g><text fill="#000000" font-family="sans-serif" font-size="14" font-weight="bold" lengthAdjust="spacingAndGlyphs" textLength="331" x="33.25" y="22.9951">"Single Sign-on w patronId - Sequence Diagram"</text><line style="stroke: #A80036; stroke-width: 1.0; stroke-dasharray: 5.0,5.0;" x1="31" x2="31" y1="116.5938" y2="440.7891"/><line style="stroke: #A80036; stroke-width: 1.0; stroke-dasharray: 5.0,5.0;" x1="96" x2="96" y1="116.5938" y2="440.7891"/><line style="stroke: #A80036; stroke-width: 1.0; stroke-dasharray: 5.0,5.0;" x1="328.5" x2="328.5" y1="116.5938" y2="440.7891"/><line style="stroke: #A80036; stroke-width: 1.0; stroke-dasharray: 5.0,5.0;" x1="371.5" x2="371.5" y1="116.5938" y2="440.7891"/><text fill="#000000" font-family="sans-serif" font-size="14" lengthAdjust="spacingAndGlyphs" textLength="41" x="8" y="113.292">Patron</text><ellipse cx="31.5" cy="43.2969" fill="#FEFECE" filter="url(#fd332ny9pazol)" rx="8" ry="8" style="stroke: #A80036; stroke-width: 2.0;"/><path d="M31.5,51.2969 L31.5,78.2969 M18.5,59.2969 L44.5,59.2969 M31.5,78.2969 L18.5,93.2969 M31.5,78.2969 L44.5,93.2969 " fill="none" filter="url(#fd332ny9pazol)" style="stroke: #A80036; stroke-width: 2.0;"/><text fill="#000000" font-family="sans-serif" font-size="14" lengthAdjust="spacingAndGlyphs" textLength="41" x="8" y="452.7842">Patron</text><ellipse cx="31.5" cy="466.0859" fill="#FEFECE" filter="url(#fd332ny9pazol)" rx="8" ry="8" style="stroke: #A80036; stroke-width: 2.0;"/><path d="M31.5,474.0859 L31.5,501.0859 M18.5,482.0859 L44.5,482.0859 M31.5,501.0859 L18.5,516.0859 M31.5,501.0859 L44.5,516.0859 " fill="none" filter="url(#fd332ny9pazol)" style="stroke: #A80036; stroke-width: 2.0;"/><text fill="#000000" font-family="sans-serif" font-size="14" lengthAdjust="spacingAndGlyphs" textLength="57" x="65" y="113.292">CMS/App</text><path d="M76,72.2969 L76,96.2969 M76,84.2969 L93,84.2969 " fill="none" filter="url(#fd332ny9pazol)" style="stroke: #A80036; stroke-width: 2.0;"/><ellipse cx="105" cy="84.2969" fill="#FEFECE" filter="url(#fd332ny9pazol)" rx="12" ry="12" style="stroke: #A80036; stroke-width: 2.0;"/><text fill="#000000" font-family="sans-serif" font-size="14" lengthAdjust="spacingAndGlyphs" textLength="57" x="65" y="452.7842">CMS/App</text><path d="M76,460.0859 L76,484.0859 M76,472.0859 L93,472.0859 " fill="none" filter="url(#fd332ny9pazol)" style="stroke: #A80036; stroke-width: 2.0;"/><ellipse cx="105" cy="472.0859" fill="#FEFECE" filter="url(#fd332ny9pazol)" rx="12" ry="12" style="stroke: #A80036; stroke-width: 2.0;"/><text fill="#000000" font-family="sans-serif" font-size="14" lengthAdjust="spacingAndGlyphs" textLength="23" x="314" y="113.292">FBS</text><ellipse cx="328.5" cy="84.2969" fill="#FEFECE" filter="url(#fd332ny9pazol)" rx="12" ry="12" style="stroke: #A80036; stroke-width: 2.0;"/><polygon fill="#A80036" points="324.5,72.2969,330.5,67.2969,328.5,72.2969,330.5,77.2969,324.5,72.2969" style="stroke: #A80036; stroke-width: 1.0;"/><text fill="#000000" font-family="sans-serif" font-size="14" lengthAdjust="spacingAndGlyphs" textLength="23" x="314" y="452.7842">FBS</text><ellipse cx="328.5" cy="472.0859" fill="#FEFECE" filter="url(#fd332ny9pazol)" rx="12" ry="12" style="stroke: #A80036; stroke-width: 2.0;"/><polygon fill="#A80036" points="324.5,460.0859,330.5,455.0859,328.5,460.0859,330.5,465.0859,324.5,460.0859" style="stroke: #A80036; stroke-width: 1.0;"/><rect fill="#FEFECE" filter="url(#fd332ny9pazol)" height="30.2969" style="stroke: #A80036; stroke-width: 1.5;" width="31" x="354.5" y="81.2969"/><text fill="#000000" font-family="sans-serif" font-size="14" lengthAdjust="spacingAndGlyphs" textLength="17" x="361.5" y="101.292">AP</text><rect fill="#FEFECE" filter="url(#fd332ny9pazol)" height="30.2969" style="stroke: #A80036; stroke-width: 1.5;" width="31" x="354.5" y="439.7891"/><text fill="#000000" font-family="sans-serif" font-size="14" lengthAdjust="spacingAndGlyphs" textLength="17" x="361.5" y="459.7842">AP</text><rect fill="#EEEEEE" filter="url(#fd332ny9pazol)" height="3" style="stroke: #EEEEEE; stroke-width: 1.0;" width="391.5" x="3" y="147.1602"/><line style="stroke: #000000; stroke-width: 1.0;" x1="3" x2="394.5" y1="147.1602" y2="147.1602"/><line style="stroke: #000000; stroke-width: 1.0;" x1="3" x2="394.5" y1="150.1602" y2="150.1602"/><rect fill="#EEEEEE" filter="url(#fd332ny9pazol)" height="23.1328" style="stroke: #000000; stroke-width: 2.0;" width="51" x="173.25" y="136.5938"/><text fill="#000000" font-family="sans-serif" font-size="13" font-weight="bold" lengthAdjust="spacingAndGlyphs" textLength="34" x="179.25" y="152.6606">Login</text><polygon fill="#A80036" points="360,186.8594,370,190.8594,360,194.8594,364,190.8594" style="stroke: #A80036; stroke-width: 1.0;"/><line style="stroke: #A80036; stroke-width: 1.0;" x1="31.5" x2="366" y1="190.8594" y2="190.8594"/><text fill="#000000" font-family="sans-serif" font-size="13" lengthAdjust="spacingAndGlyphs" textLength="47" x="38.5" y="185.7935">CPR, Pin</text><polygon fill="#A80036" points="107.5,215.9922,97.5,219.9922,107.5,223.9922,103.5,219.9922" style="stroke: #A80036; stroke-width: 1.0;"/><line style="stroke: #A80036; stroke-width: 1.0; stroke-dasharray: 2.0,2.0;" x1="101.5" x2="371" y1="219.9922" y2="219.9922"/><text fill="#000000" font-family="sans-serif" font-size="13" lengthAdjust="spacingAndGlyphs" textLength="124" x="113.5" y="214.9263">GUID, patronId, Kmd</text><rect fill="#EEEEEE" filter="url(#fd332ny9pazol)" height="3" style="stroke: #EEEEEE; stroke-width: 1.0;" width="391.5" x="3" y="248.5586"/><line style="stroke: #000000; stroke-width: 1.0;" x1="3" x2="394.5" y1="248.5586" y2="248.5586"/><line style="stroke: #000000; stroke-width: 1.0;" x1="3" x2="394.5" y1="251.5586" y2="251.5586"/><rect fill="#EEEEEE" filter="url(#fd332ny9pazol)" height="23.1328" style="stroke: #000000; stroke-width: 2.0;" width="84" x="156.75" y="237.9922"/><text fill="#000000" font-family="sans-serif" font-size="13" font-weight="bold" lengthAdjust="spacingAndGlyphs" textLength="67" x="162.75" y="254.0591">Get Status</text><polygon fill="#A80036" points="316.5,288.2578,326.5,292.2578,316.5,296.2578,320.5,292.2578" style="stroke: #A80036; stroke-width: 1.0;"/><line style="stroke: #A80036; stroke-width: 1.0;" x1="96.5" x2="322.5" y1="292.2578" y2="292.2578"/><text fill="#000000" font-family="sans-serif" font-size="13" lengthAdjust="spacingAndGlyphs" textLength="117" x="103.5" y="287.1919">Get status: patronId</text><polygon fill="#A80036" points="107.5,317.3906,97.5,321.3906,107.5,325.3906,103.5,321.3906" style="stroke: #A80036; stroke-width: 1.0;"/><line style="stroke: #A80036; stroke-width: 1.0; stroke-dasharray: 2.0,2.0;" x1="101.5" x2="327.5" y1="321.3906" y2="321.3906"/><text fill="#000000" font-family="sans-serif" font-size="13" lengthAdjust="spacingAndGlyphs" textLength="208" x="113.5" y="316.3247">Loans, Reservations, Fees, Bookings</text><rect fill="#EEEEEE" filter="url(#fd332ny9pazol)" height="3" style="stroke: #EEEEEE; stroke-width: 1.0;" width="391.5" x="3" y="349.957"/><line style="stroke: #000000; stroke-width: 1.0;" x1="3" x2="394.5" y1="349.957" y2="349.957"/><line style="stroke: #000000; stroke-width: 1.0;" x1="3" x2="394.5" y1="352.957" y2="352.957"/><rect fill="#EEEEEE" filter="url(#fd332ny9pazol)" height="23.1328" style="stroke: #000000; stroke-width: 2.0;" width="55" x="171.25" y="339.3906"/><text fill="#000000" font-family="sans-serif" font-size="13" font-weight="bold" lengthAdjust="spacingAndGlyphs" textLength="38" x="177.25" y="355.4575">Order</text><polygon fill="#A80036" points="316.5,389.6563,326.5,393.6563,316.5,397.6563,320.5,393.6563" style="stroke: #A80036; stroke-width: 1.0;"/><line style="stroke: #A80036; stroke-width: 1.0;" x1="96.5" x2="322.5" y1="393.6563" y2="393.6563"/><text fill="#000000" font-family="sans-serif" font-size="13" lengthAdjust="spacingAndGlyphs" textLength="121" x="103.5" y="388.5903">Order: patronId, PID</text><polygon fill="#A80036" points="107.5,418.7891,97.5,422.7891,107.5,426.7891,103.5,422.7891" style="stroke: #A80036; stroke-width: 1.0;"/><line style="stroke: #A80036; stroke-width: 1.0; stroke-dasharray: 2.0,2.0;" x1="101.5" x2="327.5" y1="422.7891" y2="422.7891"/><text fill="#000000" font-family="sans-serif" font-size="13" lengthAdjust="spacingAndGlyphs" textLength="136" x="113.5" y="417.7231">ReservationId, OrderId</text><!--
@startuml

title "Single Sign-on w patronId - Sequence Diagram"

actor Patron
boundary "CMS/App" as Client
control "FBS" as FBS

== Login ==
Patron -> AP: CPR, Pin
Client <- - AP: GUID, patronId, Kmd

== Get Status ==
Client -> FBS: Get status: patronId
Client <- - FBS: Loans, Reservations, Fees, Bookings
== Order ==
Client -> FBS: Order: patronId, PID
Client <- - FBS: ReservationId, OrderId

@enduml

PlantUML version 1.2019.05(Sat Apr 20 16:45:36 GMT 2019)
(GPL source distribution)
Java Runtime: Java(TM) SE Runtime Environment
JVM: Java HotSpot(TM) 64-Bit Server VM
Java Version: 1.8.0_202-b08
Operating System: Linux
OS Version: 5.0.0-1020-azure
Default Encoding: ANSI_X3.4-1968
Language: en
Country: US
--></g></svg>