<?xml version="1.0" encoding="UTF-8" standalone="no"?><svg xmlns="http://www.w3.org/2000/svg" xmlns:xlink="http://www.w3.org/1999/xlink" contentScriptType="application/ecmascript" contentStyleType="text/css" height="1243px" preserveAspectRatio="none" style="width:472px;height:1243px;" version="1.1" viewBox="0 0 472 1243" width="472px" zoomAndPan="magnify"><defs><filter height="300%" id="f1kox1kfdepgg5" width="300%" x="-1" y="-1"><feGaussianBlur result="blurOut" stdDeviation="2.0"/><feColorMatrix in="blurOut" result="blurOut2" type="matrix" values="0 0 0 0 0 0 0 0 0 0 0 0 0 0 0 0 0 0 .4 0"/><feOffset dx="4.0" dy="4.0" in="blurOut2" result="blurOut3"/><feBlend in="SourceGraphic" in2="blurOut3" mode="normal"/></filter></defs><g><text fill="#000000" font-family="sans-serif" font-size="14" font-weight="bold" lengthAdjust="spacingAndGlyphs" textLength="236" x="119.25" y="22.9951">Subscription Service - Material list</text><rect fill="#FFFFFF" filter="url(#f1kox1kfdepgg5)" height="351.4609" style="stroke: #000000; stroke-width: 2.0;" width="418.5" x="33" y="114.8906"/><rect fill="#FFFFFF" filter="url(#f1kox1kfdepgg5)" height="75.3984" style="stroke: #000000; stroke-width: 2.0;" width="236.5" x="205" y="197.2891"/><rect fill="#FFFFFF" filter="url(#f1kox1kfdepgg5)" height="59.2656" style="stroke: #000000; stroke-width: 2.0;" width="122" x="205" y="328.8203"/><rect fill="#FFFFFF" filter="url(#f1kox1kfdepgg5)" height="150.4688" style="stroke: #000000; stroke-width: 2.0;" width="270" x="23" y="480.3516"/><rect fill="#FFFFFF" filter="url(#f1kox1kfdepgg5)" height="90.2031" style="stroke: #000000; stroke-width: 2.0;" width="250" x="33" y="533.6172"/><rect fill="#FFFFFF" height="43.9375" style="stroke: none; stroke-width: 1.0;" width="250" x="33" y="579.8828"/><rect fill="#FFFFFF" filter="url(#f1kox1kfdepgg5)" height="254.8672" style="stroke: #000000; stroke-width: 2.0;" width="356" x="13" y="644.8203"/><rect fill="#FFFFFF" filter="url(#f1kox1kfdepgg5)" height="194.6016" style="stroke: #000000; stroke-width: 2.0;" width="336" x="23" y="698.0859"/><rect fill="#FFFFFF" filter="url(#f1kox1kfdepgg5)" height="132.3359" style="stroke: #000000; stroke-width: 2.0;" width="316" x="33" y="722.2188"/><rect fill="#FFFFFF" height="43.9375" style="stroke: none; stroke-width: 1.0;" width="316" x="33" y="810.6172"/><rect fill="#FFFFFF" height="31.1328" style="stroke: none; stroke-width: 1.0;" width="336" x="23" y="861.5547"/><rect fill="#FFFFFF" filter="url(#f1kox1kfdepgg5)" height="239.8672" style="stroke: #000000; stroke-width: 2.0;" width="438.5" x="23" y="913.6875"/><rect fill="#FFFFFF" filter="url(#f1kox1kfdepgg5)" height="179.6016" style="stroke: #000000; stroke-width: 2.0;" width="418.5" x="33" y="966.9531"/><rect fill="#FFFFFF" filter="url(#f1kox1kfdepgg5)" height="75.3984" style="stroke: #000000; stroke-width: 2.0;" width="236.5" x="205" y="991.0859"/><rect fill="#FFFFFF" height="43.9375" style="stroke: none; stroke-width: 1.0;" width="418.5" x="33" y="1102.6172"/><line style="stroke: #383838; stroke-width: 1.0; stroke-dasharray: 5.0,5.0;" x1="76" x2="76" y1="97.8906" y2="1170.5547"/><line style="stroke: #383838; stroke-width: 1.0; stroke-dasharray: 5.0,5.0;" x1="244" x2="244" y1="97.8906" y2="1170.5547"/><line style="stroke: #383838; stroke-width: 1.0; stroke-dasharray: 5.0,5.0;" x1="388.5" x2="388.5" y1="97.8906" y2="1170.5547"/><text fill="#000000" font-family="sans-serif" font-size="14" lengthAdjust="spacingAndGlyphs" textLength="60" x="43" y="94.5889">DDB CMS</text><path d="M55.5,53.5938 L55.5,77.5938 M55.5,65.5938 L72.5,65.5938 " fill="none" filter="url(#f1kox1kfdepgg5)" style="stroke: #383838; stroke-width: 2.0;"/><ellipse cx="84.5" cy="65.5938" fill="#F8F8F8" filter="url(#f1kox1kfdepgg5)" rx="12" ry="12" style="stroke: #383838; stroke-width: 2.0;"/><text fill="#000000" font-family="sans-serif" font-size="14" lengthAdjust="spacingAndGlyphs" textLength="60" x="43" y="1182.5498">DDB CMS</text><path d="M55.5,1189.8516 L55.5,1213.8516 M55.5,1201.8516 L72.5,1201.8516 " fill="none" filter="url(#f1kox1kfdepgg5)" style="stroke: #383838; stroke-width: 2.0;"/><ellipse cx="84.5" cy="1201.8516" fill="#F8F8F8" filter="url(#f1kox1kfdepgg5)" rx="12" ry="12" style="stroke: #383838; stroke-width: 2.0;"/><text fill="#000000" font-family="sans-serif" font-size="14" lengthAdjust="spacingAndGlyphs" textLength="52" x="215" y="78.292">Material</text><text fill="#000000" font-family="sans-serif" font-size="14" lengthAdjust="spacingAndGlyphs" textLength="23" x="229.5" y="94.5889">List</text><path d="M223.5,37.2969 L223.5,61.2969 M223.5,49.2969 L240.5,49.2969 " fill="none" filter="url(#f1kox1kfdepgg5)" style="stroke: #383838; stroke-width: 2.0;"/><ellipse cx="252.5" cy="49.2969" fill="#F8F8F8" filter="url(#f1kox1kfdepgg5)" rx="12" ry="12" style="stroke: #383838; stroke-width: 2.0;"/><text fill="#000000" font-family="sans-serif" font-size="14" lengthAdjust="spacingAndGlyphs" textLength="52" x="215" y="1182.5498">Material</text><text fill="#000000" font-family="sans-serif" font-size="14" lengthAdjust="spacingAndGlyphs" textLength="23" x="229.5" y="1198.8467">List</text><path d="M223.5,1206.1484 L223.5,1230.1484 M223.5,1218.1484 L240.5,1218.1484 " fill="none" filter="url(#f1kox1kfdepgg5)" style="stroke: #383838; stroke-width: 2.0;"/><ellipse cx="252.5" cy="1218.1484" fill="#F8F8F8" filter="url(#f1kox1kfdepgg5)" rx="12" ry="12" style="stroke: #383838; stroke-width: 2.0;"/><text fill="#000000" font-family="sans-serif" font-size="14" lengthAdjust="spacingAndGlyphs" textLength="79" x="346.5" y="94.5889">Subscription</text><path d="M371,45.5938 C371,35.5938 389,35.5938 389,35.5938 C389,35.5938 407,35.5938 407,45.5938 L407,71.5938 C407,81.5938 389,81.5938 389,81.5938 C389,81.5938 371,81.5938 371,71.5938 L371,45.5938 " fill="#F8F8F8" filter="url(#f1kox1kfdepgg5)" style="stroke: #000000; stroke-width: 1.5;"/><path d="M371,45.5938 C371,55.5938 389,55.5938 389,55.5938 C389,55.5938 407,55.5938 407,45.5938 " fill="none" style="stroke: #000000; stroke-width: 1.5;"/><text fill="#000000" font-family="sans-serif" font-size="14" lengthAdjust="spacingAndGlyphs" textLength="79" x="346.5" y="1182.5498">Subscription</text><path d="M371,1195.8516 C371,1185.8516 389,1185.8516 389,1185.8516 C389,1185.8516 407,1185.8516 407,1195.8516 L407,1221.8516 C407,1231.8516 389,1231.8516 389,1231.8516 C389,1231.8516 371,1231.8516 371,1221.8516 L371,1195.8516 " fill="#F8F8F8" filter="url(#f1kox1kfdepgg5)" style="stroke: #000000; stroke-width: 1.5;"/><path d="M371,1195.8516 C371,1205.8516 389,1205.8516 389,1205.8516 C389,1205.8516 407,1205.8516 407,1195.8516 " fill="none" style="stroke: #000000; stroke-width: 1.5;"/><path d="M33,114.8906 L175,114.8906 L175,121.8906 L165,131.8906 L33,131.8906 L33,114.8906 " fill="#EEEEEE" style="stroke: #000000; stroke-width: 1.0;"/><rect fill="none" height="351.4609" style="stroke: #000000; stroke-width: 2.0;" width="418.5" x="33" y="114.8906"/><text fill="#000000" font-family="sans-serif" font-size="13" font-weight="bold" lengthAdjust="spacingAndGlyphs" textLength="97" x="48" y="127.9575">Add item to list</text><polygon fill="#383838" points="232,149.1563,242,153.1563,232,157.1563,236,153.1563" style="stroke: #383838; stroke-width: 1.0;"/><line style="stroke: #383838; stroke-width: 1.0;" x1="76" x2="238" y1="153.1563" y2="153.1563"/><text fill="#000000" font-family="sans-serif" font-size="13" lengthAdjust="spacingAndGlyphs" textLength="86" x="83" y="148.0903">Add item to list</text><polygon fill="#383838" points="377,178.2891,387,182.2891,377,186.2891,381,182.2891" style="stroke: #383838; stroke-width: 1.0;"/><line style="stroke: #383838; stroke-width: 1.0;" x1="244" x2="383" y1="182.2891" y2="182.2891"/><text fill="#000000" font-family="sans-serif" font-size="13" lengthAdjust="spacingAndGlyphs" textLength="84" x="251" y="177.2231">Has accepted?</text><path d="M205,197.2891 L268,197.2891 L268,204.2891 L258,214.2891 L205,214.2891 L205,197.2891 " fill="#EEEEEE" style="stroke: #000000; stroke-width: 1.0;"/><rect fill="none" height="75.3984" style="stroke: #000000; stroke-width: 2.0;" width="236.5" x="205" y="197.2891"/><text fill="#000000" font-family="sans-serif" font-size="13" font-weight="bold" lengthAdjust="spacingAndGlyphs" textLength="18" x="220" y="210.356">alt</text><text fill="#000000" font-family="sans-serif" font-size="11" font-weight="bold" lengthAdjust="spacingAndGlyphs" textLength="138" x="283" y="209.4995">[FALSE: Not accepted yet]</text><polygon fill="#383838" points="377,231.5547,387,235.5547,377,239.5547,381,235.5547" style="stroke: #383838; stroke-width: 1.0;"/><line style="stroke: #383838; stroke-width: 1.0;" x1="244" x2="383" y1="235.5547" y2="235.5547"/><text fill="#000000" font-family="sans-serif" font-size="13" lengthAdjust="spacingAndGlyphs" textLength="114" x="251" y="230.4888">Create subscription</text><polygon fill="#383838" points="255,260.6875,245,264.6875,255,268.6875,251,264.6875" style="stroke: #383838; stroke-width: 1.0;"/><line style="stroke: #383838; stroke-width: 1.0; stroke-dasharray: 2.0,2.0;" x1="249" x2="388" y1="264.6875" y2="264.6875"/><text fill="#000000" font-family="sans-serif" font-size="13" lengthAdjust="spacingAndGlyphs" textLength="121" x="261" y="259.6216">Subscription created</text><line style="stroke: #383838; stroke-width: 1.0;" x1="244" x2="286" y1="300.8203" y2="300.8203"/><line style="stroke: #383838; stroke-width: 1.0;" x1="286" x2="286" y1="300.8203" y2="313.8203"/><line style="stroke: #383838; stroke-width: 1.0;" x1="245" x2="286" y1="313.8203" y2="313.8203"/><polygon fill="#383838" points="255,309.8203,245,313.8203,255,317.8203,251,313.8203" style="stroke: #383838; stroke-width: 1.0;"/><text fill="#000000" font-family="sans-serif" font-size="13" lengthAdjust="spacingAndGlyphs" textLength="61" x="251" y="295.7544">List exists?</text><path d="M205,328.8203 L268,328.8203 L268,335.8203 L258,345.8203 L205,345.8203 L205,328.8203 " fill="#EEEEEE" style="stroke: #000000; stroke-width: 1.0;"/><rect fill="none" height="59.2656" style="stroke: #000000; stroke-width: 2.0;" width="122" x="205" y="328.8203"/><text fill="#000000" font-family="sans-serif" font-size="13" font-weight="bold" lengthAdjust="spacingAndGlyphs" textLength="18" x="220" y="341.8872">alt</text><text fill="#000000" font-family="sans-serif" font-size="11" font-weight="bold" lengthAdjust="spacingAndGlyphs" textLength="39" x="283" y="341.0308">[FALSE]</text><line style="stroke: #383838; stroke-width: 1.0;" x1="244" x2="286" y1="367.0859" y2="367.0859"/><line style="stroke: #383838; stroke-width: 1.0;" x1="286" x2="286" y1="367.0859" y2="380.0859"/><line style="stroke: #383838; stroke-width: 1.0;" x1="245" x2="286" y1="380.0859" y2="380.0859"/><polygon fill="#383838" points="255,376.0859,245,380.0859,255,384.0859,251,380.0859" style="stroke: #383838; stroke-width: 1.0;"/><text fill="#000000" font-family="sans-serif" font-size="13" lengthAdjust="spacingAndGlyphs" textLength="57" x="251" y="362.02">Create list</text><line style="stroke: #383838; stroke-width: 1.0;" x1="244" x2="286" y1="416.2188" y2="416.2188"/><line style="stroke: #383838; stroke-width: 1.0;" x1="286" x2="286" y1="416.2188" y2="429.2188"/><line style="stroke: #383838; stroke-width: 1.0;" x1="245" x2="286" y1="429.2188" y2="429.2188"/><polygon fill="#383838" points="255,425.2188,245,429.2188,255,433.2188,251,429.2188" style="stroke: #383838; stroke-width: 1.0;"/><text fill="#000000" font-family="sans-serif" font-size="13" lengthAdjust="spacingAndGlyphs" textLength="86" x="251" y="411.1528">Add item to list</text><polygon fill="#383838" points="87,454.3516,77,458.3516,87,462.3516,83,458.3516" style="stroke: #383838; stroke-width: 1.0;"/><line style="stroke: #383838; stroke-width: 1.0; stroke-dasharray: 2.0,2.0;" x1="81" x2="243" y1="458.3516" y2="458.3516"/><text fill="#000000" font-family="sans-serif" font-size="13" lengthAdjust="spacingAndGlyphs" textLength="59" x="93" y="453.2856">Return list</text><path d="M23,480.3516 L114,480.3516 L114,487.3516 L104,497.3516 L23,497.3516 L23,480.3516 " fill="#EEEEEE" style="stroke: #000000; stroke-width: 1.0;"/><rect fill="none" height="150.4688" style="stroke: #000000; stroke-width: 2.0;" width="270" x="23" y="480.3516"/><text fill="#000000" font-family="sans-serif" font-size="13" font-weight="bold" lengthAdjust="spacingAndGlyphs" textLength="46" x="38" y="493.4185">Get list</text><polygon fill="#383838" points="232,514.6172,242,518.6172,232,522.6172,236,518.6172" style="stroke: #383838; stroke-width: 1.0;"/><line style="stroke: #383838; stroke-width: 1.0;" x1="76" x2="238" y1="518.6172" y2="518.6172"/><text fill="#000000" font-family="sans-serif" font-size="13" lengthAdjust="spacingAndGlyphs" textLength="39" x="83" y="513.5513">Get list</text><path d="M33,533.6172 L96,533.6172 L96,540.6172 L86,550.6172 L33,550.6172 L33,533.6172 " fill="#EEEEEE" style="stroke: #000000; stroke-width: 1.0;"/><rect fill="none" height="90.2031" style="stroke: #000000; stroke-width: 2.0;" width="250" x="33" y="533.6172"/><text fill="#000000" font-family="sans-serif" font-size="13" font-weight="bold" lengthAdjust="spacingAndGlyphs" textLength="18" x="48" y="546.6841">alt</text><text fill="#000000" font-family="sans-serif" font-size="11" font-weight="bold" lengthAdjust="spacingAndGlyphs" textLength="61" x="111" y="545.8276">[List exists]</text><polygon fill="#383838" points="87,567.8828,77,571.8828,87,575.8828,83,571.8828" style="stroke: #383838; stroke-width: 1.0;"/><line style="stroke: #383838; stroke-width: 1.0; stroke-dasharray: 2.0,2.0;" x1="81" x2="243" y1="571.8828" y2="571.8828"/><text fill="#000000" font-family="sans-serif" font-size="13" lengthAdjust="spacingAndGlyphs" textLength="59" x="93" y="566.8169">Return list</text><line style="stroke: #000000; stroke-width: 1.0; stroke-dasharray: 2.0,2.0;" x1="33" x2="283" y1="580.8828" y2="580.8828"/><text fill="#000000" font-family="sans-serif" font-size="11" font-weight="bold" lengthAdjust="spacingAndGlyphs" textLength="42" x="38" y="591.0933">[No list]</text><polygon fill="#383838" points="87,611.8203,77,615.8203,87,619.8203,83,615.8203" style="stroke: #383838; stroke-width: 1.0;"/><line style="stroke: #383838; stroke-width: 1.0; stroke-dasharray: 2.0,2.0;" x1="81" x2="243" y1="615.8203" y2="615.8203"/><text fill="#000000" font-family="sans-serif" font-size="13" lengthAdjust="spacingAndGlyphs" textLength="73" x="93" y="610.7544">Return error</text><path d="M13,644.8203 L199,644.8203 L199,651.8203 L189,661.8203 L13,661.8203 L13,644.8203 " fill="#EEEEEE" style="stroke: #000000; stroke-width: 1.0;"/><rect fill="none" height="254.8672" style="stroke: #000000; stroke-width: 2.0;" width="356" x="13" y="644.8203"/><text fill="#000000" font-family="sans-serif" font-size="13" font-weight="bold" lengthAdjust="spacingAndGlyphs" textLength="141" x="28" y="657.8872">Remove item from list</text><polygon fill="#383838" points="232,679.0859,242,683.0859,232,687.0859,236,683.0859" style="stroke: #383838; stroke-width: 1.0;"/><line style="stroke: #383838; stroke-width: 1.0;" x1="76" x2="238" y1="683.0859" y2="683.0859"/><text fill="#000000" font-family="sans-serif" font-size="13" lengthAdjust="spacingAndGlyphs" textLength="144" x="83" y="678.02">Remove item from list list</text><path d="M23,698.0859 L86,698.0859 L86,705.0859 L76,715.0859 L23,715.0859 L23,698.0859 " fill="#EEEEEE" style="stroke: #000000; stroke-width: 1.0;"/><rect fill="none" height="194.6016" style="stroke: #000000; stroke-width: 2.0;" width="336" x="23" y="698.0859"/><text fill="#000000" font-family="sans-serif" font-size="13" font-weight="bold" lengthAdjust="spacingAndGlyphs" textLength="18" x="38" y="711.1528">alt</text><text fill="#000000" font-family="sans-serif" font-size="11" font-weight="bold" lengthAdjust="spacingAndGlyphs" textLength="61" x="101" y="710.2964">[List exists]</text><path d="M33,722.2188 L96,722.2188 L96,729.2188 L86,739.2188 L33,739.2188 L33,722.2188 " fill="#EEEEEE" style="stroke: #000000; stroke-width: 1.0;"/><rect fill="none" height="132.3359" style="stroke: #000000; stroke-width: 2.0;" width="316" x="33" y="722.2188"/><text fill="#000000" font-family="sans-serif" font-size="13" font-weight="bold" lengthAdjust="spacingAndGlyphs" textLength="18" x="48" y="735.2856">alt</text><text fill="#000000" font-family="sans-serif" font-size="11" font-weight="bold" lengthAdjust="spacingAndGlyphs" textLength="106" x="111" y="734.4292">[Item exists on List]</text><line style="stroke: #383838; stroke-width: 1.0;" x1="244" x2="286" y1="760.4844" y2="760.4844"/><line style="stroke: #383838; stroke-width: 1.0;" x1="286" x2="286" y1="760.4844" y2="773.4844"/><line style="stroke: #383838; stroke-width: 1.0;" x1="245" x2="286" y1="773.4844" y2="773.4844"/><polygon fill="#383838" points="255,769.4844,245,773.4844,255,777.4844,251,773.4844" style="stroke: #383838; stroke-width: 1.0;"/><text fill="#000000" font-family="sans-serif" font-size="13" lengthAdjust="spacingAndGlyphs" textLength="86" x="251" y="755.4185">Removing item</text><polygon fill="#383838" points="87,798.6172,77,802.6172,87,806.6172,83,802.6172" style="stroke: #383838; stroke-width: 1.0;"/><line style="stroke: #383838; stroke-width: 1.0; stroke-dasharray: 2.0,2.0;" x1="81" x2="243" y1="802.6172" y2="802.6172"/><text fill="#000000" font-family="sans-serif" font-size="13" lengthAdjust="spacingAndGlyphs" textLength="83" x="93" y="797.5513">Removed item</text><line style="stroke: #000000; stroke-width: 1.0; stroke-dasharray: 2.0,2.0;" x1="33" x2="349" y1="811.6172" y2="811.6172"/><text fill="#000000" font-family="sans-serif" font-size="11" font-weight="bold" lengthAdjust="spacingAndGlyphs" textLength="42" x="38" y="821.8276">[No list]</text><polygon fill="#383838" points="87,842.5547,77,846.5547,87,850.5547,83,846.5547" style="stroke: #383838; stroke-width: 1.0;"/><line style="stroke: #383838; stroke-width: 1.0; stroke-dasharray: 2.0,2.0;" x1="81" x2="243" y1="846.5547" y2="846.5547"/><text fill="#000000" font-family="sans-serif" font-size="13" lengthAdjust="spacingAndGlyphs" textLength="101" x="93" y="841.4888">Return item error</text><line style="stroke: #000000; stroke-width: 1.0; stroke-dasharray: 2.0,2.0;" x1="23" x2="359" y1="862.5547" y2="862.5547"/><polygon fill="#383838" points="87,880.6875,77,884.6875,87,888.6875,83,884.6875" style="stroke: #383838; stroke-width: 1.0;"/><line style="stroke: #383838; stroke-width: 1.0; stroke-dasharray: 2.0,2.0;" x1="81" x2="243" y1="884.6875" y2="884.6875"/><text fill="#000000" font-family="sans-serif" font-size="13" lengthAdjust="spacingAndGlyphs" textLength="95" x="93" y="879.6216">Return List error</text><path d="M23,913.6875 L142,913.6875 L142,920.6875 L132,930.6875 L23,930.6875 L23,913.6875 " fill="#EEEEEE" style="stroke: #000000; stroke-width: 1.0;"/><rect fill="none" height="239.8672" style="stroke: #000000; stroke-width: 2.0;" width="438.5" x="23" y="913.6875"/><text fill="#000000" font-family="sans-serif" font-size="13" font-weight="bold" lengthAdjust="spacingAndGlyphs" textLength="74" x="38" y="926.7544">Remove list</text><polygon fill="#383838" points="232,947.9531,242,951.9531,232,955.9531,236,951.9531" style="stroke: #383838; stroke-width: 1.0;"/><line style="stroke: #383838; stroke-width: 1.0;" x1="76" x2="238" y1="951.9531" y2="951.9531"/><text fill="#000000" font-family="sans-serif" font-size="13" lengthAdjust="spacingAndGlyphs" textLength="66" x="83" y="946.8872">Remove list</text><path d="M33,966.9531 L96,966.9531 L96,973.9531 L86,983.9531 L33,983.9531 L33,966.9531 " fill="#EEEEEE" style="stroke: #000000; stroke-width: 1.0;"/><rect fill="none" height="179.6016" style="stroke: #000000; stroke-width: 2.0;" width="418.5" x="33" y="966.9531"/><text fill="#000000" font-family="sans-serif" font-size="13" font-weight="bold" lengthAdjust="spacingAndGlyphs" textLength="18" x="48" y="980.02">alt</text><text fill="#000000" font-family="sans-serif" font-size="11" font-weight="bold" lengthAdjust="spacingAndGlyphs" textLength="61" x="111" y="979.1636">[List exists]</text><path d="M205,991.0859 L354,991.0859 L354,998.0859 L344,1008.0859 L205,1008.0859 L205,991.0859 " fill="#EEEEEE" style="stroke: #000000; stroke-width: 1.0;"/><rect fill="none" height="75.3984" style="stroke: #000000; stroke-width: 2.0;" width="236.5" x="205" y="991.0859"/><text fill="#000000" font-family="sans-serif" font-size="13" font-weight="bold" lengthAdjust="spacingAndGlyphs" textLength="104" x="220" y="1004.1528">Remove accept?</text><polygon fill="#383838" points="377,1025.3516,387,1029.3516,377,1033.3516,381,1029.3516" style="stroke: #383838; stroke-width: 1.0;"/><line style="stroke: #383838; stroke-width: 1.0;" x1="244" x2="383" y1="1029.3516" y2="1029.3516"/><text fill="#000000" font-family="sans-serif" font-size="13" lengthAdjust="spacingAndGlyphs" textLength="88" x="251" y="1024.2856">Remove accept</text><polygon fill="#383838" points="255,1054.4844,245,1058.4844,255,1062.4844,251,1058.4844" style="stroke: #383838; stroke-width: 1.0;"/><line style="stroke: #383838; stroke-width: 1.0; stroke-dasharray: 2.0,2.0;" x1="249" x2="388" y1="1058.4844" y2="1058.4844"/><text fill="#000000" font-family="sans-serif" font-size="13" lengthAdjust="spacingAndGlyphs" textLength="94" x="261" y="1053.4185">Accept removed</text><polygon fill="#383838" points="87,1090.6172,77,1094.6172,87,1098.6172,83,1094.6172" style="stroke: #383838; stroke-width: 1.0;"/><line style="stroke: #383838; stroke-width: 1.0; stroke-dasharray: 2.0,2.0;" x1="81" x2="243" y1="1094.6172" y2="1094.6172"/><text fill="#000000" font-family="sans-serif" font-size="13" lengthAdjust="spacingAndGlyphs" textLength="74" x="93" y="1089.5513">Removed list</text><line style="stroke: #000000; stroke-width: 1.0; stroke-dasharray: 2.0,2.0;" x1="33" x2="451.5" y1="1103.6172" y2="1103.6172"/><text fill="#000000" font-family="sans-serif" font-size="11" font-weight="bold" lengthAdjust="spacingAndGlyphs" textLength="42" x="38" y="1113.8276">[No list]</text><polygon fill="#383838" points="87,1134.5547,77,1138.5547,87,1142.5547,83,1138.5547" style="stroke: #383838; stroke-width: 1.0;"/><line style="stroke: #383838; stroke-width: 1.0; stroke-dasharray: 2.0,2.0;" x1="81" x2="243" y1="1138.5547" y2="1138.5547"/><text fill="#000000" font-family="sans-serif" font-size="13" lengthAdjust="spacingAndGlyphs" textLength="95" x="93" y="1133.4888">Return List error</text><!--MD5=[ff0b16e9639b9fd88260a318ff27c006]
@startuml
title Subscription Service - Material list

skinparam monochrome true

boundary DDBCMS     as "DDB CMS"
boundary MatList    as "Material\nList"
database SubService as "Subscription"

group Add item to list

    DDBCMS->MatList: Add item to list
    
    MatList->SubService: Has accepted?
    alt FALSE: Not accepted yet
        MatList	->	SubService: Create subscription
        MatList	<- -	SubService: Subscription created
    end
    MatList	->	MatList: List exists?
    alt FALSE
        MatList	->	MatList: Create list
    end
    MatList	->	MatList: Add item to list
    DDBCMS	<- -	MatList: Return list
end

group Get list

    DDBCMS	->	MatList: Get list
    alt List exists
        DDBCMS	<- -	MatList: Return list
    else No list
        DDBCMS	<- -	MatList: Return error
    end

end

group Remove item from list

    DDBCMS	->	MatList: Remove item from list list
    alt List exists
        alt Item exists on List
            MatList	->	MatList: Removing item
            DDBCMS	<- -	MatList: Removed item
        else No list
            DDBCMS	<- -	MatList: Return item error
        end
    else
        DDBCMS	<- -	MatList: Return List error
    end
end


group Remove list
    DDBCMS	->	MatList: Remove list
    alt List exists
        group Remove accept?
            MatList	->	SubService: Remove accept
            MatList	<- -	SubService: Accept removed
        end
        DDBCMS	<- -	MatList: Removed list
    else No list
        DDBCMS	<- -	MatList: Return List error
    end

end

@enduml

PlantUML version 1.2019.13(Tue Dec 10 17:18:29 GMT 2019)
(GPL source distribution)
Java Runtime: Java(TM) SE Runtime Environment
JVM: Java HotSpot(TM) 64-Bit Server VM
Java Version: 1.8.0_202-b08
Operating System: Linux
Default Encoding: ANSI_X3.4-1968
Language: en
Country: US
--></g></svg>