<?xml version="1.0" encoding="UTF-8" standalone="no"?><svg xmlns="http://www.w3.org/2000/svg" xmlns:xlink="http://www.w3.org/1999/xlink" contentScriptType="application/ecmascript" contentStyleType="text/css" height="215px" preserveAspectRatio="none" style="width:405px;height:215px;" version="1.1" viewBox="0 0 405 215" width="405px" zoomAndPan="magnify"><defs><filter height="300%" id="f1xeiirg4x1g4" width="300%" x="-1" y="-1"><feGaussianBlur result="blurOut" stdDeviation="2.0"/><feColorMatrix in="blurOut" result="blurOut2" type="matrix" values="0 0 0 0 0 0 0 0 0 0 0 0 0 0 0 0 0 0 .4 0"/><feOffset dx="4.0" dy="4.0" in="blurOut2" result="blurOut3"/><feBlend in="SourceGraphic" in2="blurOut3" mode="normal"/></filter></defs><g><text fill="#000000" font-family="sans-serif" font-size="18" lengthAdjust="spacingAndGlyphs" textLength="131" x="136" y="26.708">Dummy include</text><ellipse cx="338.5" cy="40.9531" fill="#000000" filter="url(#f1xeiirg4x1g4)" rx="10" ry="10" style="stroke: none; stroke-width: 1.0;"/><path d="M10,67.8047 L10,108.0703 A0,0 0 0 0 10,108.0703 L271,108.0703 A0,0 0 0 0 271,108.0703 L271,91.9375 L291,87.9375 L271,83.9375 L271,77.8047 L261,67.8047 L10,67.8047 A0,0 0 0 0 10,67.8047 " fill="#FBFB77" filter="url(#f1xeiirg4x1g4)" style="stroke: #A80036; stroke-width: 1.0;"/><path d="M261,67.8047 L261,77.8047 L271,77.8047 L261,67.8047 " fill="#FBFB77" style="stroke: #A80036; stroke-width: 1.0;"/><text fill="#000000" font-family="sans-serif" font-size="13" lengthAdjust="spacingAndGlyphs" textLength="240" x="16" y="84.8716">This is a simple test of includes on Github</text><text fill="#000000" font-family="sans-serif" font-size="13" lengthAdjust="spacingAndGlyphs" textLength="133" x="16" y="100.0044">Plain and simple: Don't</text><rect fill="#FEFECE" filter="url(#f1xeiirg4x1g4)" height="33.9688" rx="12.5" ry="12.5" style="stroke: #A80036; stroke-width: 1.5;" width="95" x="291" y="70.9531"/><text fill="#000000" font-family="sans-serif" font-size="12" lengthAdjust="spacingAndGlyphs" textLength="75" x="301" y="92.0918">Eat Hot Wings</text><rect fill="#FEFECE" filter="url(#f1xeiirg4x1g4)" height="33.9688" rx="12.5" ry="12.5" style="stroke: #A80036; stroke-width: 1.5;" width="111" x="283" y="128.0703"/><text fill="#000000" font-family="sans-serif" font-size="12" lengthAdjust="spacingAndGlyphs" textLength="91" x="293" y="149.209">Drink Homebrew</text><ellipse cx="338.5" cy="193.0391" fill="#FFFFFF" filter="url(#f1xeiirg4x1g4)" rx="11" ry="11" style="stroke: #000000; stroke-width: 1.0;"/><ellipse cx="338.5" cy="193.0391" fill="#000000" rx="6" ry="6" style="stroke: #7F7F7F; stroke-width: 1.0;"/><line style="stroke: #A80036; stroke-width: 1.5;" x1="338.5" x2="338.5" y1="50.9531" y2="70.9531"/><polygon fill="#A80036" points="334.5,60.9531,338.5,70.9531,342.5,60.9531,338.5,64.9531" style="stroke: #A80036; stroke-width: 1.0;"/><line style="stroke: #A80036; stroke-width: 1.5;" x1="338.5" x2="338.5" y1="104.9219" y2="128.0703"/><polygon fill="#A80036" points="334.5,118.0703,338.5,128.0703,342.5,118.0703,338.5,122.0703" style="stroke: #A80036; stroke-width: 1.0;"/><line style="stroke: #A80036; stroke-width: 1.5;" x1="338.5" x2="338.5" y1="162.0391" y2="182.0391"/><polygon fill="#A80036" points="334.5,172.0391,338.5,182.0391,342.5,172.0391,338.5,176.0391" style="stroke: #A80036; stroke-width: 1.0;"/><!--
@startuml
title Dummy include

start

:Eat Hot Wings;

note left
    This is a simple test of includes on Github
    Plain and simple: Don't
end note

:Drink Homebrew;

stop
@enduml

PlantUML version 1.2019.05(Sat Apr 20 16:45:36 GMT 2019)
(GPL source distribution)
Java Runtime: Java(TM) SE Runtime Environment
JVM: Java HotSpot(TM) 64-Bit Server VM
Java Version: 1.8.0_202-b08
Operating System: Linux
OS Version: 5.0.0-1023-azure
Default Encoding: ANSI_X3.4-1968
Language: en
Country: US
--></g></svg>