<?xml version="1.0" encoding="UTF-8" standalone="no"?><svg xmlns="http://www.w3.org/2000/svg" xmlns:xlink="http://www.w3.org/1999/xlink" contentScriptType="application/ecmascript" contentStyleType="text/css" height="477px" preserveAspectRatio="none" style="width:1309px;height:477px;" version="1.1" viewBox="0 0 1309 477" width="1309px" zoomAndPan="magnify"><defs><filter height="300%" id="f1vakr0gesznsw" width="300%" x="-1" y="-1"><feGaussianBlur result="blurOut" stdDeviation="2.0"/><feColorMatrix in="blurOut" result="blurOut2" type="matrix" values="0 0 0 0 0 0 0 0 0 0 0 0 0 0 0 0 0 0 .4 0"/><feOffset dx="4.0" dy="4.0" in="blurOut2" result="blurOut3"/><feBlend in="SourceGraphic" in2="blurOut3" mode="normal"/></filter></defs><g><text fill="#000000" font-family="sans-serif" font-size="18" lengthAdjust="spacingAndGlyphs" textLength="95" x="606.25" y="26.708">Bestil flow</text><ellipse cx="218.8125" cy="40.9531" fill="#000000" filter="url(#f1vakr0gesznsw)" rx="10" ry="10" style="stroke: none; stroke-width: 1.0;"/><rect fill="#FEFECE" filter="url(#f1vakr0gesznsw)" height="33.9688" rx="12.5" ry="12.5" style="stroke: #A80036; stroke-width: 1.5;" width="334" x="51.8125" y="70.9531"/><text fill="#000000" font-family="sans-serif" font-size="12" lengthAdjust="spacingAndGlyphs" textLength="314" x="61.8125" y="92.0918">Låner åbner visning med materiale der kan bestilles</text><polygon fill="#FEFECE" filter="url(#f1vakr0gesznsw)" points="167.3125,124.9219,270.3125,124.9219,282.3125,137.7266,270.3125,150.5313,167.3125,150.5313,155.3125,137.7266,167.3125,124.9219" style="stroke: #A80036; stroke-width: 1.5;"/><text fill="#000000" font-family="sans-serif" font-size="11" lengthAdjust="spacingAndGlyphs" textLength="82" x="167.3125" y="135.1323">Har materialet</text><text fill="#000000" font-family="sans-serif" font-size="11" lengthAdjust="spacingAndGlyphs" textLength="99" x="171.3125" y="147.937">lokal beholdning?</text><text fill="#000000" font-family="sans-serif" font-size="11" lengthAdjust="spacingAndGlyphs" textLength="11" x="144.3125" y="135.1323">JA</text><text fill="#000000" font-family="sans-serif" font-size="11" lengthAdjust="spacingAndGlyphs" textLength="18" x="282.3125" y="135.1323">NEJ</text><rect fill="#FEFECE" filter="url(#f1vakr0gesznsw)" height="61.9063" rx="12.5" ry="12.5" style="stroke: #A80036; stroke-width: 1.5;" width="88" x="11" y="160.5313"/><text fill="#000000" font-family="sans-serif" font-size="12" lengthAdjust="spacingAndGlyphs" textLength="18" x="21" y="181.6699">Vis</text><text fill="#000000" font-family="sans-serif" font-size="12" lengthAdjust="spacingAndGlyphs" textLength="60" x="25" y="195.6387">"Reservér</text><text fill="#000000" font-family="sans-serif" font-size="12" lengthAdjust="spacingAndGlyphs" textLength="29" x="25" y="209.6074">knap</text><ellipse cx="55" cy="268.4375" fill="#FFFFFF" filter="url(#f1vakr0gesznsw)" rx="11" ry="11" style="stroke: #000000; stroke-width: 1.0;"/><ellipse cx="55" cy="268.4375" fill="#000000" rx="6" ry="6" style="stroke: #7F7F7F; stroke-width: 1.0;"/><polygon fill="#FEFECE" filter="url(#f1vakr0gesznsw)" points="337.125,160.5313,428.125,160.5313,440.125,173.3359,428.125,186.1406,337.125,186.1406,325.125,173.3359,337.125,160.5313" style="stroke: #A80036; stroke-width: 1.5;"/><text fill="#000000" font-family="sans-serif" font-size="11" lengthAdjust="spacingAndGlyphs" textLength="82" x="337.125" y="170.7417">Har materialet</text><text fill="#000000" font-family="sans-serif" font-size="11" lengthAdjust="spacingAndGlyphs" textLength="87" x="341.125" y="183.5464">online adgang?</text><text fill="#000000" font-family="sans-serif" font-size="11" lengthAdjust="spacingAndGlyphs" textLength="11" x="314.125" y="170.7417">JA</text><text fill="#000000" font-family="sans-serif" font-size="11" lengthAdjust="spacingAndGlyphs" textLength="18" x="440.125" y="170.7417">NEJ</text><rect fill="#FEFECE" filter="url(#f1vakr0gesznsw)" height="61.9063" rx="12.5" ry="12.5" style="stroke: #A80036; stroke-width: 1.5;" width="94" x="129" y="196.1406"/><text fill="#000000" font-family="sans-serif" font-size="12" lengthAdjust="spacingAndGlyphs" textLength="18" x="139" y="217.2793">Vis</text><text fill="#000000" font-family="sans-serif" font-size="12" lengthAdjust="spacingAndGlyphs" textLength="66" x="143" y="231.248">"Se online"</text><text fill="#000000" font-family="sans-serif" font-size="12" lengthAdjust="spacingAndGlyphs" textLength="29" x="143" y="245.2168">knap</text><ellipse cx="176" cy="304.0469" fill="#FFFFFF" filter="url(#f1vakr0gesznsw)" rx="11" ry="11" style="stroke: #000000; stroke-width: 1.0;"/><ellipse cx="176" cy="304.0469" fill="#000000" rx="6" ry="6" style="stroke: #7F7F7F; stroke-width: 1.0;"/><polygon fill="#FEFECE" filter="url(#f1vakr0gesznsw)" points="544.75,196.1406,633.75,196.1406,645.75,208.9453,633.75,221.75,544.75,221.75,532.75,208.9453,544.75,196.1406" style="stroke: #A80036; stroke-width: 1.5;"/><text fill="#000000" font-family="sans-serif" font-size="11" lengthAdjust="spacingAndGlyphs" textLength="74" x="544.75" y="206.3511">Er materialet</text><text fill="#000000" font-family="sans-serif" font-size="11" lengthAdjust="spacingAndGlyphs" textLength="85" x="548.75" y="219.1558">et periodikum?</text><text fill="#000000" font-family="sans-serif" font-size="11" lengthAdjust="spacingAndGlyphs" textLength="11" x="521.75" y="206.3511">JA</text><text fill="#000000" font-family="sans-serif" font-size="11" lengthAdjust="spacingAndGlyphs" textLength="18" x="645.75" y="206.3511">NEJ</text><rect fill="#FEFECE" filter="url(#f1vakr0gesznsw)" height="61.9063" rx="12.5" ry="12.5" style="stroke: #A80036; stroke-width: 1.5;" width="152" x="253" y="231.75"/><text fill="#000000" font-family="sans-serif" font-size="12" lengthAdjust="spacingAndGlyphs" textLength="18" x="263" y="252.8887">Vis</text><text fill="#000000" font-family="sans-serif" font-size="12" lengthAdjust="spacingAndGlyphs" textLength="124" x="267" y="266.8574">"Bestil i bibliotek.dk"</text><text fill="#000000" font-family="sans-serif" font-size="12" lengthAdjust="spacingAndGlyphs" textLength="29" x="267" y="280.8262">knap</text><ellipse cx="329" cy="339.6563" fill="#FFFFFF" filter="url(#f1vakr0gesznsw)" rx="11" ry="11" style="stroke: #000000; stroke-width: 1.0;"/><ellipse cx="329" cy="339.6563" fill="#000000" rx="6" ry="6" style="stroke: #7F7F7F; stroke-width: 1.0;"/><polygon fill="#FEFECE" filter="url(#f1vakr0gesznsw)" points="781.5,231.75,917.5,231.75,929.5,250.957,917.5,270.1641,781.5,270.1641,769.5,250.957,781.5,231.75" style="stroke: #A80036; stroke-width: 1.5;"/><text fill="#000000" font-family="sans-serif" font-size="11" lengthAdjust="spacingAndGlyphs" textLength="74" x="781.5" y="241.9604">Er materialet</text><text fill="#000000" font-family="sans-serif" font-size="11" lengthAdjust="spacingAndGlyphs" textLength="47" x="785.5" y="254.7651">matchet</text><text fill="#000000" font-family="sans-serif" font-size="11" lengthAdjust="spacingAndGlyphs" textLength="132" x="785.5" y="267.5698">med andre materialer?</text><text fill="#000000" font-family="sans-serif" font-size="11" lengthAdjust="spacingAndGlyphs" textLength="11" x="758.5" y="248.3628">JA</text><text fill="#000000" font-family="sans-serif" font-size="11" lengthAdjust="spacingAndGlyphs" textLength="18" x="929.5" y="248.3628">NEJ</text><polygon fill="#FEFECE" filter="url(#f1vakr0gesznsw)" points="538.5,280.1641,703.5,280.1641,715.5,305.7734,703.5,331.3828,538.5,331.3828,526.5,305.7734,538.5,280.1641" style="stroke: #A80036; stroke-width: 1.5;"/><text fill="#000000" font-family="sans-serif" font-size="11" lengthAdjust="spacingAndGlyphs" textLength="121" x="538.5" y="290.3745">Giver availability tjek</text><text fill="#000000" font-family="sans-serif" font-size="11" lengthAdjust="spacingAndGlyphs" textLength="69" x="542.5" y="303.1792">positivt svar</text><text fill="#000000" font-family="sans-serif" font-size="11" lengthAdjust="spacingAndGlyphs" textLength="72" x="542.5" y="315.9839">på mindst ét</text><text fill="#000000" font-family="sans-serif" font-size="11" lengthAdjust="spacingAndGlyphs" textLength="161" x="542.5" y="328.7886">af de matchede materialer?</text><text fill="#000000" font-family="sans-serif" font-size="11" lengthAdjust="spacingAndGlyphs" textLength="11" x="515.5" y="303.1792">JA</text><text fill="#000000" font-family="sans-serif" font-size="11" lengthAdjust="spacingAndGlyphs" textLength="18" x="715.5" y="303.1792">NEJ</text><rect fill="#FEFECE" filter="url(#f1vakr0gesznsw)" height="61.9063" rx="12.5" ry="12.5" style="stroke: #A80036; stroke-width: 1.5;" width="143" x="445" y="341.3828"/><text fill="#000000" font-family="sans-serif" font-size="12" lengthAdjust="spacingAndGlyphs" textLength="60" x="455" y="362.5215">Vis "Bestil</text><text fill="#000000" font-family="sans-serif" font-size="12" lengthAdjust="spacingAndGlyphs" textLength="115" x="459" y="376.4902">fra andet bibliotek"</text><text fill="#000000" font-family="sans-serif" font-size="12" lengthAdjust="spacingAndGlyphs" textLength="29" x="459" y="390.459">knap</text><ellipse cx="516.5" cy="449.2891" fill="#FFFFFF" filter="url(#f1vakr0gesznsw)" rx="11" ry="11" style="stroke: #000000; stroke-width: 1.0;"/><ellipse cx="516.5" cy="449.2891" fill="#000000" rx="6" ry="6" style="stroke: #7F7F7F; stroke-width: 1.0;"/><rect fill="#FEFECE" filter="url(#f1vakr0gesznsw)" height="61.9063" rx="12.5" ry="12.5" style="stroke: #A80036; stroke-width: 1.5;" width="202" x="624.5" y="341.3828"/><text fill="#000000" font-family="sans-serif" font-size="12" lengthAdjust="spacingAndGlyphs" textLength="18" x="634.5" y="362.5215">Vis</text><text fill="#000000" font-family="sans-serif" font-size="12" lengthAdjust="spacingAndGlyphs" textLength="178" x="634.5" y="376.4902">"Materialet kan ikke bestilles"</text><text fill="#000000" font-family="sans-serif" font-size="12" lengthAdjust="spacingAndGlyphs" textLength="29" x="638.5" y="390.459">label</text><ellipse cx="725.5" cy="449.2891" fill="#FFFFFF" filter="url(#f1vakr0gesznsw)" rx="11" ry="11" style="stroke: #000000; stroke-width: 1.0;"/><ellipse cx="725.5" cy="449.2891" fill="#000000" rx="6" ry="6" style="stroke: #7F7F7F; stroke-width: 1.0;"/><polygon fill="#FEFECE" filter="url(#f1vakr0gesznsw)" points="1015.5,280.1641,1140.5,280.1641,1152.5,292.9688,1140.5,305.7734,1015.5,305.7734,1003.5,292.9688,1015.5,280.1641" style="stroke: #A80036; stroke-width: 1.5;"/><text fill="#000000" font-family="sans-serif" font-size="11" lengthAdjust="spacingAndGlyphs" textLength="121" x="1015.5" y="290.3745">Giver availability tjek</text><text fill="#000000" font-family="sans-serif" font-size="11" lengthAdjust="spacingAndGlyphs" textLength="75" x="1019.5" y="303.1792">positivt svar?</text><text fill="#000000" font-family="sans-serif" font-size="11" lengthAdjust="spacingAndGlyphs" textLength="11" x="992.5" y="290.3745">JA</text><text fill="#000000" font-family="sans-serif" font-size="11" lengthAdjust="spacingAndGlyphs" textLength="19" x="1152.5" y="290.3745">Nej</text><rect fill="#FEFECE" filter="url(#f1vakr0gesznsw)" height="61.9063" rx="12.5" ry="12.5" style="stroke: #A80036; stroke-width: 1.5;" width="200" x="866.5" y="315.7734"/><text fill="#000000" font-family="sans-serif" font-size="12" lengthAdjust="spacingAndGlyphs" textLength="18" x="876.5" y="336.9121">Vis</text><text fill="#000000" font-family="sans-serif" font-size="12" lengthAdjust="spacingAndGlyphs" textLength="172" x="880.5" y="350.8809">"Bestil på et andet bibliotek"</text><text fill="#000000" font-family="sans-serif" font-size="12" lengthAdjust="spacingAndGlyphs" textLength="29" x="880.5" y="364.8496">knap</text><ellipse cx="966.5" cy="423.6797" fill="#FFFFFF" filter="url(#f1vakr0gesznsw)" rx="11" ry="11" style="stroke: #000000; stroke-width: 1.0;"/><ellipse cx="966.5" cy="423.6797" fill="#000000" rx="6" ry="6" style="stroke: #7F7F7F; stroke-width: 1.0;"/><rect fill="#FEFECE" filter="url(#f1vakr0gesznsw)" height="61.9063" rx="12.5" ry="12.5" style="stroke: #A80036; stroke-width: 1.5;" width="206" x="1086.5" y="315.7734"/><text fill="#000000" font-family="sans-serif" font-size="12" lengthAdjust="spacingAndGlyphs" textLength="18" x="1096.5" y="336.9121">Vis</text><text fill="#000000" font-family="sans-serif" font-size="12" lengthAdjust="spacingAndGlyphs" textLength="178" x="1100.5" y="350.8809">"Materialet kan ikke bestilles"</text><text fill="#000000" font-family="sans-serif" font-size="12" lengthAdjust="spacingAndGlyphs" textLength="29" x="1100.5" y="364.8496">label</text><ellipse cx="1189.5" cy="423.6797" fill="#FFFFFF" filter="url(#f1vakr0gesznsw)" rx="11" ry="11" style="stroke: #000000; stroke-width: 1.0;"/><ellipse cx="1189.5" cy="423.6797" fill="#000000" rx="6" ry="6" style="stroke: #7F7F7F; stroke-width: 1.0;"/><line style="stroke: #A80036; stroke-width: 1.5;" x1="218.8125" x2="218.8125" y1="50.9531" y2="70.9531"/><polygon fill="#A80036" points="214.8125,60.9531,218.8125,70.9531,222.8125,60.9531,218.8125,64.9531" style="stroke: #A80036; stroke-width: 1.0;"/><line style="stroke: #A80036; stroke-width: 1.5;" x1="55" x2="55" y1="222.4375" y2="257.4375"/><polygon fill="#A80036" points="51,247.4375,55,257.4375,59,247.4375,55,251.4375" style="stroke: #A80036; stroke-width: 1.0;"/><line style="stroke: #A80036; stroke-width: 1.5;" x1="176" x2="176" y1="258.0469" y2="293.0469"/><polygon fill="#A80036" points="172,283.0469,176,293.0469,180,283.0469,176,287.0469" style="stroke: #A80036; stroke-width: 1.0;"/><line style="stroke: #A80036; stroke-width: 1.5;" x1="329" x2="329" y1="293.6563" y2="328.6563"/><polygon fill="#A80036" points="325,318.6563,329,328.6563,333,318.6563,329,322.6563" style="stroke: #A80036; stroke-width: 1.0;"/><line style="stroke: #A80036; stroke-width: 1.5;" x1="516.5" x2="516.5" y1="403.2891" y2="438.2891"/><polygon fill="#A80036" points="512.5,428.2891,516.5,438.2891,520.5,428.2891,516.5,432.2891" style="stroke: #A80036; stroke-width: 1.0;"/><line style="stroke: #A80036; stroke-width: 1.5;" x1="725.5" x2="725.5" y1="403.2891" y2="438.2891"/><polygon fill="#A80036" points="721.5,428.2891,725.5,438.2891,729.5,428.2891,725.5,432.2891" style="stroke: #A80036; stroke-width: 1.0;"/><line style="stroke: #A80036; stroke-width: 1.5;" x1="526.5" x2="516.5" y1="305.7734" y2="305.7734"/><line style="stroke: #A80036; stroke-width: 1.5;" x1="516.5" x2="516.5" y1="305.7734" y2="341.3828"/><polygon fill="#A80036" points="512.5,331.3828,516.5,341.3828,520.5,331.3828,516.5,335.3828" style="stroke: #A80036; stroke-width: 1.0;"/><line style="stroke: #A80036; stroke-width: 1.5;" x1="715.5" x2="725.5" y1="305.7734" y2="305.7734"/><line style="stroke: #A80036; stroke-width: 1.5;" x1="725.5" x2="725.5" y1="305.7734" y2="341.3828"/><polygon fill="#A80036" points="721.5,331.3828,725.5,341.3828,729.5,331.3828,725.5,335.3828" style="stroke: #A80036; stroke-width: 1.0;"/><line style="stroke: #A80036; stroke-width: 1.5;" x1="966.5" x2="966.5" y1="377.6797" y2="412.6797"/><polygon fill="#A80036" points="962.5,402.6797,966.5,412.6797,970.5,402.6797,966.5,406.6797" style="stroke: #A80036; stroke-width: 1.0;"/><line style="stroke: #A80036; stroke-width: 1.5;" x1="1189.5" x2="1189.5" y1="377.6797" y2="412.6797"/><polygon fill="#A80036" points="1185.5,402.6797,1189.5,412.6797,1193.5,402.6797,1189.5,406.6797" style="stroke: #A80036; stroke-width: 1.0;"/><line style="stroke: #A80036; stroke-width: 1.5;" x1="1003.5" x2="966.5" y1="292.9688" y2="292.9688"/><line style="stroke: #A80036; stroke-width: 1.5;" x1="966.5" x2="966.5" y1="292.9688" y2="315.7734"/><polygon fill="#A80036" points="962.5,305.7734,966.5,315.7734,970.5,305.7734,966.5,309.7734" style="stroke: #A80036; stroke-width: 1.0;"/><line style="stroke: #A80036; stroke-width: 1.5;" x1="1152.5" x2="1189.5" y1="292.9688" y2="292.9688"/><line style="stroke: #A80036; stroke-width: 1.5;" x1="1189.5" x2="1189.5" y1="292.9688" y2="315.7734"/><polygon fill="#A80036" points="1185.5,305.7734,1189.5,315.7734,1193.5,305.7734,1189.5,309.7734" style="stroke: #A80036; stroke-width: 1.0;"/><line style="stroke: #A80036; stroke-width: 1.5;" x1="769.5" x2="621" y1="250.957" y2="250.957"/><line style="stroke: #A80036; stroke-width: 1.5;" x1="621" x2="621" y1="250.957" y2="280.1641"/><polygon fill="#A80036" points="617,270.1641,621,280.1641,625,270.1641,621,274.1641" style="stroke: #A80036; stroke-width: 1.0;"/><line style="stroke: #A80036; stroke-width: 1.5;" x1="929.5" x2="1078" y1="250.957" y2="250.957"/><line style="stroke: #A80036; stroke-width: 1.5;" x1="1078" x2="1078" y1="250.957" y2="280.1641"/><polygon fill="#A80036" points="1074,270.1641,1078,280.1641,1082,270.1641,1078,274.1641" style="stroke: #A80036; stroke-width: 1.0;"/><line style="stroke: #A80036; stroke-width: 1.5;" x1="532.75" x2="329" y1="208.9453" y2="208.9453"/><line style="stroke: #A80036; stroke-width: 1.5;" x1="329" x2="329" y1="208.9453" y2="231.75"/><polygon fill="#A80036" points="325,221.75,329,231.75,333,221.75,329,225.75" style="stroke: #A80036; stroke-width: 1.0;"/><line style="stroke: #A80036; stroke-width: 1.5;" x1="645.75" x2="849.5" y1="208.9453" y2="208.9453"/><line style="stroke: #A80036; stroke-width: 1.5;" x1="849.5" x2="849.5" y1="208.9453" y2="231.75"/><polygon fill="#A80036" points="845.5,221.75,849.5,231.75,853.5,221.75,849.5,225.75" style="stroke: #A80036; stroke-width: 1.0;"/><line style="stroke: #A80036; stroke-width: 1.5;" x1="325.125" x2="176" y1="173.3359" y2="173.3359"/><line style="stroke: #A80036; stroke-width: 1.5;" x1="176" x2="176" y1="173.3359" y2="196.1406"/><polygon fill="#A80036" points="172,186.1406,176,196.1406,180,186.1406,176,190.1406" style="stroke: #A80036; stroke-width: 1.0;"/><line style="stroke: #A80036; stroke-width: 1.5;" x1="440.125" x2="589.25" y1="173.3359" y2="173.3359"/><line style="stroke: #A80036; stroke-width: 1.5;" x1="589.25" x2="589.25" y1="173.3359" y2="196.1406"/><polygon fill="#A80036" points="585.25,186.1406,589.25,196.1406,593.25,186.1406,589.25,190.1406" style="stroke: #A80036; stroke-width: 1.0;"/><line style="stroke: #A80036; stroke-width: 1.5;" x1="155.3125" x2="55" y1="137.7266" y2="137.7266"/><line style="stroke: #A80036; stroke-width: 1.5;" x1="55" x2="55" y1="137.7266" y2="160.5313"/><polygon fill="#A80036" points="51,150.5313,55,160.5313,59,150.5313,55,154.5313" style="stroke: #A80036; stroke-width: 1.0;"/><line style="stroke: #A80036; stroke-width: 1.5;" x1="282.3125" x2="382.625" y1="137.7266" y2="137.7266"/><line style="stroke: #A80036; stroke-width: 1.5;" x1="382.625" x2="382.625" y1="137.7266" y2="160.5313"/><polygon fill="#A80036" points="378.625,150.5313,382.625,160.5313,386.625,150.5313,382.625,154.5313" style="stroke: #A80036; stroke-width: 1.0;"/><line style="stroke: #A80036; stroke-width: 1.5;" x1="218.8125" x2="218.8125" y1="104.9219" y2="124.9219"/><polygon fill="#A80036" points="214.8125,114.9219,218.8125,124.9219,222.8125,114.9219,218.8125,118.9219" style="stroke: #A80036; stroke-width: 1.0;"/><!--MD5=[4d62196864a1fe012567d97d6d0f75f6]
@startuml
start

Title Bestil flow

:Låner åbner visning med materiale der kan bestilles;

if (Har materialet \n lokal beholdning?) then (JA)
    :Vis \n "Reservér \n knap;
    stop
else (NEJ)

    if (Har materialet \n online adgang?) then (JA)
        :Vis \n "Se online" \n knap;
        stop
    else (NEJ)
        if (Er materialet \n et periodikum?) then (JA)
            :Vis \n "Bestil i bibliotek.dk" \n knap;
            stop    
        else (NEJ)
            if (Er materialet \n matchet \n med andre materialer?) then (JA)
                 if (Giver availability tjek \n positivt svar \n på mindst ét \n af de matchede materialer?) then (JA)
                    :Vis "Bestil \n fra andet bibliotek" \n knap;
                    stop
                else (NEJ)
                    :Vis  \n"Materialet kan ikke bestilles" \n label;
                    stop
                endif                
            else (NEJ)
                if (Giver availability tjek \n positivt svar?) then (JA)
                    :Vis \n "Bestil på et andet bibliotek" \n knap;
                    stop
                else (Nej)
                    :Vis \n "Materialet kan ikke bestilles" \n label;
                    stop
                endif
            endif            
        endif    
    endif
endif
@enduml

PlantUML version 1.2020.20beta4(Unknown compile time)
(GPL source distribution)
Java Runtime: Java(TM) SE Runtime Environment
JVM: Java HotSpot(TM) 64-Bit Server VM
Default Encoding: UTF-8
Language: en
Country: US
--></g></svg>