<?xml version="1.0" encoding="UTF-8" standalone="no"?><svg xmlns="http://www.w3.org/2000/svg" xmlns:xlink="http://www.w3.org/1999/xlink" contentScriptType="application/ecmascript" contentStyleType="text/css" height="370px" preserveAspectRatio="none" style="width:1056px;height:370px;" version="1.1" viewBox="0 0 1056 370" width="1056px" zoomAndPan="magnify"><defs><filter height="300%" id="f6jyzswvy7qf8" width="300%" x="-1" y="-1"><feGaussianBlur result="blurOut" stdDeviation="2.0"/><feColorMatrix in="blurOut" result="blurOut2" type="matrix" values="0 0 0 0 0 0 0 0 0 0 0 0 0 0 0 0 0 0 .4 0"/><feOffset dx="4.0" dy="4.0" in="blurOut2" result="blurOut3"/><feBlend in="SourceGraphic" in2="blurOut3" mode="normal"/></filter></defs><g><!--MD5=[7779577c77d2cc9c6cb6bb9cabae43a5]
cluster Den Åbne Platform--><polygon fill="#FFFFFF" filter="url(#f6jyzswvy7qf8)" points="16,6,173,6,180,28.2969,1039,28.2969,1039,363,16,363,16,6" style="stroke:#000000;stroke-width:1.5;"/><line style="stroke:#000000;stroke-width:1.5;" x1="16" x2="180" y1="28.2969" y2="28.2969"/><text fill="#000000" font-family="sans-serif" font-size="14" font-weight="bold" lengthAdjust="spacing" textLength="151" x="20" y="20.9951">Den Åbne Platform</text><!--MD5=[ff70e4322b05e68cf66d2ff13f5b48e6]
entity Order--><rect fill="#FFFFFF" filter="url(#f6jyzswvy7qf8)" height="46.2969" style="stroke:#A80036;stroke-width:1.5;" width="81" x="637.5" y="65"/><rect fill="#FFFFFF" height="10" style="stroke:#A80036;stroke-width:1.5;" width="15" x="698.5" y="70"/><rect fill="#FFFFFF" height="2" style="stroke:#A80036;stroke-width:1.5;" width="4" x="696.5" y="72"/><rect fill="#FFFFFF" height="2" style="stroke:#A80036;stroke-width:1.5;" width="4" x="696.5" y="76"/><text fill="#000000" font-family="sans-serif" font-size="14" lengthAdjust="spacing" textLength="41" x="652.5" y="97.9951">Order</text><!--MD5=[c8d383119faf1d72bda409bfd0b9f60c]
entity Cms--><rect fill="#FFFFFF" filter="url(#f6jyzswvy7qf8)" height="46.2969" style="stroke:#A80036;stroke-width:1.5;" width="71" x="753.5" y="65"/><rect fill="#FFFFFF" height="10" style="stroke:#A80036;stroke-width:1.5;" width="15" x="804.5" y="70"/><rect fill="#FFFFFF" height="2" style="stroke:#A80036;stroke-width:1.5;" width="4" x="802.5" y="72"/><rect fill="#FFFFFF" height="2" style="stroke:#A80036;stroke-width:1.5;" width="4" x="802.5" y="76"/><text fill="#000000" font-family="sans-serif" font-size="14" lengthAdjust="spacing" textLength="31" x="768.5" y="97.9951">Cms</text><!--MD5=[f08d99a5d954cab98c847de775e5956b]
entity Search--><rect fill="#FFFFFF" filter="url(#f6jyzswvy7qf8)" height="46.2969" style="stroke:#A80036;stroke-width:1.5;" width="89" x="859.5" y="65"/><rect fill="#FFFFFF" height="10" style="stroke:#A80036;stroke-width:1.5;" width="15" x="928.5" y="70"/><rect fill="#FFFFFF" height="2" style="stroke:#A80036;stroke-width:1.5;" width="4" x="926.5" y="72"/><rect fill="#FFFFFF" height="2" style="stroke:#A80036;stroke-width:1.5;" width="4" x="926.5" y="76"/><text fill="#000000" font-family="sans-serif" font-size="14" lengthAdjust="spacing" textLength="49" x="874.5" y="97.9951">Search</text><!--MD5=[6126e67867b1a7b3c90009f1feb276ea]
entity Libraries--><rect fill="#FFFFFF" filter="url(#f6jyzswvy7qf8)" height="46.2969" style="stroke:#A80036;stroke-width:1.5;" width="102" x="609" y="171"/><rect fill="#FFFFFF" height="10" style="stroke:#A80036;stroke-width:1.5;" width="15" x="691" y="176"/><rect fill="#FFFFFF" height="2" style="stroke:#A80036;stroke-width:1.5;" width="4" x="689" y="178"/><rect fill="#FFFFFF" height="2" style="stroke:#A80036;stroke-width:1.5;" width="4" x="689" y="182"/><text fill="#000000" font-family="sans-serif" font-size="14" lengthAdjust="spacing" textLength="62" x="624" y="203.9951">Libraries</text><!--MD5=[4415c38513aca6a532c5412a3906f631]
entity Recommend--><rect fill="#FFFFFF" filter="url(#f6jyzswvy7qf8)" height="46.2969" style="stroke:#A80036;stroke-width:1.5;" width="131" x="746.5" y="171"/><rect fill="#FFFFFF" height="10" style="stroke:#A80036;stroke-width:1.5;" width="15" x="857.5" y="176"/><rect fill="#FFFFFF" height="2" style="stroke:#A80036;stroke-width:1.5;" width="4" x="855.5" y="178"/><rect fill="#FFFFFF" height="2" style="stroke:#A80036;stroke-width:1.5;" width="4" x="855.5" y="182"/><text fill="#000000" font-family="sans-serif" font-size="14" lengthAdjust="spacing" textLength="91" x="761.5" y="203.9951">Recommend</text><!--MD5=[e88f9f5b1775d132f0566dd3f47ca5e5]
entity Status--><rect fill="#FFFFFF" filter="url(#f6jyzswvy7qf8)" height="46.2969" style="stroke:#A80036;stroke-width:1.5;" width="86" x="913" y="171"/><rect fill="#FFFFFF" height="10" style="stroke:#A80036;stroke-width:1.5;" width="15" x="979" y="176"/><rect fill="#FFFFFF" height="2" style="stroke:#A80036;stroke-width:1.5;" width="4" x="977" y="178"/><rect fill="#FFFFFF" height="2" style="stroke:#A80036;stroke-width:1.5;" width="4" x="977" y="182"/><text fill="#000000" font-family="sans-serif" font-size="14" lengthAdjust="spacing" textLength="46" x="928" y="203.9951">Status</text><!--MD5=[8473cdca1c9c9124914955fa0ebc54bd]
entity Suggest--><rect fill="#FFFFFF" filter="url(#f6jyzswvy7qf8)" height="46.2969" style="stroke:#A80036;stroke-width:1.5;" width="98" x="611" y="277"/><rect fill="#FFFFFF" height="10" style="stroke:#A80036;stroke-width:1.5;" width="15" x="689" y="282"/><rect fill="#FFFFFF" height="2" style="stroke:#A80036;stroke-width:1.5;" width="4" x="687" y="284"/><rect fill="#FFFFFF" height="2" style="stroke:#A80036;stroke-width:1.5;" width="4" x="687" y="288"/><text fill="#000000" font-family="sans-serif" font-size="14" lengthAdjust="spacing" textLength="58" x="626" y="309.9951">Suggest</text><!--MD5=[2eef12bda7fe2e9725eb371c174353d4]
entity Beta/workpresentation--><rect fill="#F0E68C" filter="url(#f6jyzswvy7qf8)" height="46.2969" style="stroke:#A80036;stroke-width:1.5;" width="208" x="394" y="65"/><rect fill="#F0E68C" height="10" style="stroke:#A80036;stroke-width:1.5;" width="15" x="582" y="70"/><rect fill="#F0E68C" height="2" style="stroke:#A80036;stroke-width:1.5;" width="4" x="580" y="72"/><rect fill="#F0E68C" height="2" style="stroke:#A80036;stroke-width:1.5;" width="4" x="580" y="76"/><text fill="#000000" font-family="sans-serif" font-size="14" lengthAdjust="spacing" textLength="168" x="409" y="97.9951">Beta/workpresentation</text><!--MD5=[94bc62b86229173cd44c724aea09b9be]
entity Community--><rect fill="#D3D3D3" filter="url(#f6jyzswvy7qf8)" height="46.2969" style="stroke:#A80036;stroke-width:1.5;" width="123" x="179.5" y="65"/><rect fill="#D3D3D3" height="10" style="stroke:#A80036;stroke-width:1.5;" width="15" x="282.5" y="70"/><rect fill="#D3D3D3" height="2" style="stroke:#A80036;stroke-width:1.5;" width="4" x="280.5" y="72"/><rect fill="#D3D3D3" height="2" style="stroke:#A80036;stroke-width:1.5;" width="4" x="280.5" y="76"/><text fill="#000000" font-family="sans-serif" font-size="14" lengthAdjust="spacing" textLength="83" x="194.5" y="97.9951">Community</text><path d="M460.5,181.5 L460.5,206.6328 A0,0 0 0 0 460.5,206.6328 L573.5,206.6328 A0,0 0 0 0 573.5,206.6328 L573.5,191.5 L563.5,181.5 L518.862,181.5 L502.029,111.056 L510.862,181.5 L460.5,181.5 A0,0 0 0 0 460.5,181.5 " fill="#FBFB77" filter="url(#f6jyzswvy7qf8)" style="stroke:#A80036;stroke-width:1.0;"/><path d="M563.5,181.5 L563.5,191.5 L573.5,191.5 L563.5,181.5 " fill="#FBFB77" style="stroke:#A80036;stroke-width:1.0;"/><text fill="#000000" font-family="sans-serif" font-size="13" lengthAdjust="spacing" textLength="92" x="466.5" y="198.5669">Currently Beta</text><path d="M56.5,181.5 L56.5,206.6328 A0,0 0 0 0 56.5,206.6328 L425.5,206.6328 A0,0 0 0 0 425.5,206.6328 L425.5,191.5 L415.5,181.5 L245,181.5 L241,111.056 L237,181.5 L56.5,181.5 A0,0 0 0 0 56.5,181.5 " fill="#FBFB77" filter="url(#f6jyzswvy7qf8)" style="stroke:#A80036;stroke-width:1.0;"/><path d="M415.5,181.5 L415.5,191.5 L425.5,191.5 L415.5,181.5 " fill="#FBFB77" style="stroke:#A80036;stroke-width:1.0;"/><text fill="#000000" font-family="sans-serif" font-size="13" lengthAdjust="spacing" textLength="348" x="62.5" y="198.5669">Alpha and not documented. Avoid using this end-point</text><!--MD5=[7d473d82d6a0873db1f697db9998bec8]
link Order to Cms--><!--MD5=[7a7d1c5d728970c9484bd4454a74121a]
link Cms to Search--><!--MD5=[b4dcc823f6fe148036596cd3fe7d8c23]
link Order to Libraries--><!--MD5=[900c77dd7b6b2abfce15d670eb440f00]
link Libraries to Recommend--><!--MD5=[8a63317c05c3348de547918ec766b39f]
link Recommend to Status--><!--MD5=[2b162d4f60c847005cf9c8e9435c0bfd]
link Libraries to Suggest--><!--MD5=[24cdb20780548f0a8be67240ddb0c4fd]
@startuml
'header SayHello
'footer Page %page% of %lastpage%

skinparam component {
    backgroundColor [Biblio] LightGray
}

package "Den Åbne Platform" {
    together {
      [Order]
      [Cms]
      [Search]
      [Libraries]
      [Recommend]
      [Status]
      [Suggest]
      [Beta/workpresentation] #Khaki
      [Community] #LightGray
      note bottom of [Beta/workpresentation]: Currently Beta
      note bottom of [Community]: Alpha and not documented. Avoid using this end-point
    }
}
@enduml

@startuml

skinparam component {
    backgroundColor [Biblio] LightGray
}

package "Den Åbne Platform" {
    together {
      [Order]
      [Cms]
      [Search]
      [Libraries]
      [Recommend]
      [Status]
      [Suggest]
      [Beta/workpresentation] #Khaki
      [Community] #LightGray
      note bottom of [Beta/workpresentation]: Currently Beta
      note bottom of [Community]: Alpha and not documented. Avoid using this end-point
    }
}
@enduml

PlantUML version 1.2021.01beta3(Unknown compile time)
(GPL source distribution)
Java Runtime: Java(TM) SE Runtime Environment
JVM: Java HotSpot(TM) 64-Bit Server VM
Default Encoding: UTF-8
Language: en
Country: US
--></g></svg>