<?xml version="1.0" encoding="UTF-8" standalone="no"?><svg xmlns="http://www.w3.org/2000/svg" xmlns:xlink="http://www.w3.org/1999/xlink" contentScriptType="application/ecmascript" contentStyleType="text/css" height="676px" preserveAspectRatio="none" style="width:778px;height:676px;" version="1.1" viewBox="0 0 778 676" width="778px" zoomAndPan="magnify"><defs><filter height="300%" id="f1w0a2u42iex2z" width="300%" x="-1" y="-1"><feGaussianBlur result="blurOut" stdDeviation="2.0"/><feColorMatrix in="blurOut" result="blurOut2" type="matrix" values="0 0 0 0 0 0 0 0 0 0 0 0 0 0 0 0 0 0 .4 0"/><feOffset dx="4.0" dy="4.0" in="blurOut2" result="blurOut3"/><feBlend in="SourceGraphic" in2="blurOut3" mode="normal"/></filter></defs><g><text fill="#000000" font-family="sans-serif" font-size="18" lengthAdjust="spacingAndGlyphs" textLength="473" x="149.25" y="28.708">Sequence diagram - Search field and autocomplete</text><rect fill="#FFFFFF" filter="url(#f1w0a2u42iex2z)" height="90.2031" style="stroke: #000000; stroke-width: 2.0;" width="420" x="10" y="358.1797"/><rect fill="#FFFFFF" height="43.9375" style="stroke: none; stroke-width: 1.0;" width="420" x="10" y="404.4453"/><line style="stroke: #A80036; stroke-width: 1.0; stroke-dasharray: 5.0,5.0;" x1="47" x2="47" y1="123.25" y2="591.9141"/><line style="stroke: #A80036; stroke-width: 1.0; stroke-dasharray: 5.0,5.0;" x1="308.5" x2="308.5" y1="123.25" y2="591.9141"/><line style="stroke: #A80036; stroke-width: 1.0; stroke-dasharray: 5.0,5.0;" x1="489.5" x2="489.5" y1="123.25" y2="591.9141"/><line style="stroke: #A80036; stroke-width: 1.0; stroke-dasharray: 5.0,5.0;" x1="704.5" x2="704.5" y1="123.25" y2="591.9141"/><text fill="#000000" font-family="sans-serif" font-size="14" lengthAdjust="spacingAndGlyphs" textLength="48" x="20" y="119.9482">Patron</text><ellipse cx="47" cy="49.9531" fill="#FEFECE" filter="url(#f1w0a2u42iex2z)" rx="8" ry="8" style="stroke: #A80036; stroke-width: 2.0;"/><path d="M47,57.9531 L47,84.9531 M34,65.9531 L60,65.9531 M47,84.9531 L34,99.9531 M47,84.9531 L60,99.9531 " fill="none" filter="url(#f1w0a2u42iex2z)" style="stroke: #A80036; stroke-width: 2.0;"/><text fill="#000000" font-family="sans-serif" font-size="14" lengthAdjust="spacingAndGlyphs" textLength="48" x="20" y="603.9092">Patron</text><ellipse cx="47" cy="617.2109" fill="#FEFECE" filter="url(#f1w0a2u42iex2z)" rx="8" ry="8" style="stroke: #A80036; stroke-width: 2.0;"/><path d="M47,625.2109 L47,652.2109 M34,633.2109 L60,633.2109 M47,652.2109 L34,667.2109 M47,652.2109 L60,667.2109 " fill="none" filter="url(#f1w0a2u42iex2z)" style="stroke: #A80036; stroke-width: 2.0;"/><rect fill="#FEFECE" filter="url(#f1w0a2u42iex2z)" height="30.2969" style="stroke: #A80036; stroke-width: 1.5;" width="81" x="266.5" y="87.9531"/><text fill="#000000" font-family="sans-serif" font-size="14" lengthAdjust="spacingAndGlyphs" textLength="67" x="273.5" y="107.9482">DDB CMS</text><rect fill="#FEFECE" filter="url(#f1w0a2u42iex2z)" height="30.2969" style="stroke: #A80036; stroke-width: 1.5;" width="81" x="266.5" y="590.9141"/><text fill="#000000" font-family="sans-serif" font-size="14" lengthAdjust="spacingAndGlyphs" textLength="67" x="273.5" y="610.9092">DDB CMS</text><text fill="#000000" font-family="sans-serif" font-size="14" lengthAdjust="spacingAndGlyphs" textLength="141" x="416.5" y="119.9482">Opensearch service</text><path d="M472,70.9531 C472,60.9531 490,60.9531 490,60.9531 C490,60.9531 508,60.9531 508,70.9531 L508,96.9531 C508,106.9531 490,106.9531 490,106.9531 C490,106.9531 472,106.9531 472,96.9531 L472,70.9531 " fill="#FEFECE" filter="url(#f1w0a2u42iex2z)" style="stroke: #000000; stroke-width: 1.5;"/><path d="M472,70.9531 C472,80.9531 490,80.9531 490,80.9531 C490,80.9531 508,80.9531 508,70.9531 " fill="none" style="stroke: #000000; stroke-width: 1.5;"/><text fill="#000000" font-family="sans-serif" font-size="14" lengthAdjust="spacingAndGlyphs" textLength="141" x="416.5" y="603.9092">Opensearch service</text><path d="M472,617.2109 C472,607.2109 490,607.2109 490,607.2109 C490,607.2109 508,607.2109 508,617.2109 L508,643.2109 C508,653.2109 490,653.2109 490,653.2109 C490,653.2109 472,653.2109 472,643.2109 L472,617.2109 " fill="#FEFECE" filter="url(#f1w0a2u42iex2z)" style="stroke: #000000; stroke-width: 1.5;"/><path d="M472,617.2109 C472,627.2109 490,627.2109 490,627.2109 C490,627.2109 508,627.2109 508,617.2109 " fill="none" style="stroke: #000000; stroke-width: 1.5;"/><text fill="#000000" font-family="sans-serif" font-size="14" lengthAdjust="spacingAndGlyphs" textLength="117" x="643.5" y="119.9482">Ortograf service</text><path d="M687,70.9531 C687,60.9531 705,60.9531 705,60.9531 C705,60.9531 723,60.9531 723,70.9531 L723,96.9531 C723,106.9531 705,106.9531 705,106.9531 C705,106.9531 687,106.9531 687,96.9531 L687,70.9531 " fill="#FEFECE" filter="url(#f1w0a2u42iex2z)" style="stroke: #000000; stroke-width: 1.5;"/><path d="M687,70.9531 C687,80.9531 705,80.9531 705,80.9531 C705,80.9531 723,80.9531 723,70.9531 " fill="none" style="stroke: #000000; stroke-width: 1.5;"/><text fill="#000000" font-family="sans-serif" font-size="14" lengthAdjust="spacingAndGlyphs" textLength="117" x="643.5" y="603.9092">Ortograf service</text><path d="M687,617.2109 C687,607.2109 705,607.2109 705,607.2109 C705,607.2109 723,607.2109 723,617.2109 L723,643.2109 C723,653.2109 705,653.2109 705,653.2109 C705,653.2109 687,653.2109 687,643.2109 L687,617.2109 " fill="#FEFECE" filter="url(#f1w0a2u42iex2z)" style="stroke: #000000; stroke-width: 1.5;"/><path d="M687,617.2109 C687,627.2109 705,627.2109 705,627.2109 C705,627.2109 723,627.2109 723,617.2109 " fill="none" style="stroke: #000000; stroke-width: 1.5;"/><rect fill="#EEEEEE" filter="url(#f1w0a2u42iex2z)" height="3" style="stroke: #EEEEEE; stroke-width: 1.0;" width="771.5" x="0" y="153.8164"/><line style="stroke: #000000; stroke-width: 1.0;" x1="0" x2="771.5" y1="153.8164" y2="153.8164"/><line style="stroke: #000000; stroke-width: 1.0;" x1="0" x2="771.5" y1="156.8164" y2="156.8164"/><rect fill="#EEEEEE" filter="url(#f1w0a2u42iex2z)" height="23.1328" style="stroke: #000000; stroke-width: 2.0;" width="199" x="286.25" y="143.25"/><text fill="#000000" font-family="sans-serif" font-size="13" font-weight="bold" lengthAdjust="spacingAndGlyphs" textLength="180" x="292.25" y="159.3169">Perform a search query</text><polygon fill="#A80036" points="297,193.5156,307,197.5156,297,201.5156,301,197.5156" style="stroke: #A80036; stroke-width: 1.0;"/><line style="stroke: #A80036; stroke-width: 1.0;" x1="47" x2="303" y1="197.5156" y2="197.5156"/><text fill="#000000" font-family="sans-serif" font-size="13" font-weight="bold" lengthAdjust="spacingAndGlyphs" textLength="9" x="54" y="192.4497">1</text><text fill="#000000" font-family="sans-serif" font-size="13" lengthAdjust="spacingAndGlyphs" textLength="175" x="67" y="192.4497">Enter cursor in search field.</text><polygon fill="#A80036" points="58,222.6484,48,226.6484,58,230.6484,54,226.6484" style="stroke: #A80036; stroke-width: 1.0;"/><line style="stroke: #A80036; stroke-width: 1.0;" x1="52" x2="308" y1="226.6484" y2="226.6484"/><text fill="#000000" font-family="sans-serif" font-size="13" font-weight="bold" lengthAdjust="spacingAndGlyphs" textLength="9" x="64" y="221.5825">2</text><text fill="#000000" font-family="sans-serif" font-size="13" lengthAdjust="spacingAndGlyphs" textLength="122" x="77" y="221.5825">Search field active.</text><polygon fill="#A80036" points="297,251.7813,307,255.7813,297,259.7813,301,255.7813" style="stroke: #A80036; stroke-width: 1.0;"/><line style="stroke: #A80036; stroke-width: 1.0;" x1="47" x2="303" y1="255.7813" y2="255.7813"/><text fill="#000000" font-family="sans-serif" font-size="13" font-weight="bold" lengthAdjust="spacingAndGlyphs" textLength="8" x="54" y="250.7153">3</text><text fill="#000000" font-family="sans-serif" font-size="13" lengthAdjust="spacingAndGlyphs" textLength="119" x="66" y="250.7153">Enter query string.</text><polygon fill="#A80036" points="693,280.9141,703,284.9141,693,288.9141,697,284.9141" style="stroke: #A80036; stroke-width: 1.0;"/><line style="stroke: #A80036; stroke-width: 1.0;" x1="309" x2="699" y1="284.9141" y2="284.9141"/><text fill="#000000" font-family="sans-serif" font-size="13" font-weight="bold" lengthAdjust="spacingAndGlyphs" textLength="9" x="316" y="279.8481">4</text><text fill="#000000" font-family="sans-serif" font-size="13" lengthAdjust="spacingAndGlyphs" textLength="359" x="329" y="279.8481">Request autocomplete suggestions for the query string.</text><polygon fill="#A80036" points="320,310.0469,310,314.0469,320,318.0469,316,314.0469" style="stroke: #A80036; stroke-width: 1.0;"/><line style="stroke: #A80036; stroke-width: 1.0;" x1="314" x2="704" y1="314.0469" y2="314.0469"/><text fill="#000000" font-family="sans-serif" font-size="13" font-weight="bold" lengthAdjust="spacingAndGlyphs" textLength="9" x="326" y="308.981">5</text><text fill="#000000" font-family="sans-serif" font-size="13" lengthAdjust="spacingAndGlyphs" textLength="221" x="339" y="308.981">Return autocomplete suggestions.</text><polygon fill="#A80036" points="58,339.1797,48,343.1797,58,347.1797,54,343.1797" style="stroke: #A80036; stroke-width: 1.0;"/><line style="stroke: #A80036; stroke-width: 1.0;" x1="52" x2="308" y1="343.1797" y2="343.1797"/><text fill="#000000" font-family="sans-serif" font-size="13" font-weight="bold" lengthAdjust="spacingAndGlyphs" textLength="9" x="64" y="338.1138">6</text><text fill="#000000" font-family="sans-serif" font-size="13" lengthAdjust="spacingAndGlyphs" textLength="225" x="77" y="338.1138">Display autocomplete suggestions.</text><path d="M10,358.1797 L425,358.1797 L425,365.1797 L415,375.1797 L10,375.1797 L10,358.1797 " fill="#EEEEEE" style="stroke: #000000; stroke-width: 1.0;"/><rect fill="none" height="90.2031" style="stroke: #000000; stroke-width: 2.0;" width="420" x="10" y="358.1797"/><text fill="#000000" font-family="sans-serif" font-size="13" font-weight="bold" lengthAdjust="spacingAndGlyphs" textLength="370" x="25" y="371.2466">IF Patron chooses an autocomplete suggestions</text><polygon fill="#A80036" points="297,392.4453,307,396.4453,297,400.4453,301,396.4453" style="stroke: #A80036; stroke-width: 1.0;"/><line style="stroke: #A80036; stroke-width: 1.0;" x1="47" x2="303" y1="396.4453" y2="396.4453"/><text fill="#000000" font-family="sans-serif" font-size="13" font-weight="bold" lengthAdjust="spacingAndGlyphs" textLength="9" x="54" y="391.3794">7</text><text fill="#000000" font-family="sans-serif" font-size="13" lengthAdjust="spacingAndGlyphs" textLength="200" x="67" y="391.3794">Click autocomplete suggestion.</text><line style="stroke: #000000; stroke-width: 1.0; stroke-dasharray: 2.0,2.0;" x1="10" x2="430" y1="405.4453" y2="405.4453"/><text fill="#000000" font-family="sans-serif" font-size="11" font-weight="bold" lengthAdjust="spacingAndGlyphs" textLength="336" x="15" y="415.6558">[Else change query string and click search button.]</text><polygon fill="#A80036" points="297,436.3828,307,440.3828,297,444.3828,301,440.3828" style="stroke: #A80036; stroke-width: 1.0;"/><line style="stroke: #A80036; stroke-width: 1.0;" x1="47" x2="303" y1="440.3828" y2="440.3828"/><text fill="#000000" font-family="sans-serif" font-size="13" font-weight="bold" lengthAdjust="spacingAndGlyphs" textLength="9" x="54" y="435.3169">8</text><text fill="#000000" font-family="sans-serif" font-size="13" lengthAdjust="spacingAndGlyphs" textLength="126" x="67" y="435.3169">Click search button.</text><polygon fill="#A80036" points="478,472.5156,488,476.5156,478,480.5156,482,476.5156" style="stroke: #A80036; stroke-width: 1.0;"/><line style="stroke: #A80036; stroke-width: 1.0;" x1="309" x2="484" y1="476.5156" y2="476.5156"/><text fill="#000000" font-family="sans-serif" font-size="13" font-weight="bold" lengthAdjust="spacingAndGlyphs" textLength="9" x="316" y="471.4497">9</text><text fill="#000000" font-family="sans-serif" font-size="13" lengthAdjust="spacingAndGlyphs" textLength="144" x="329" y="471.4497">Request search result.</text><path d="M37,489.5156 L37,514.5156 L481,514.5156 L481,499.5156 L471,489.5156 L37,489.5156 " fill="#FBFB77" filter="url(#f1w0a2u42iex2z)" style="stroke: #A80036; stroke-width: 1.0;"/><path d="M471,489.5156 L471,499.5156 L481,499.5156 L471,489.5156 " fill="#FBFB77" style="stroke: #A80036; stroke-width: 1.0;"/><text fill="#000000" font-family="sans-serif" font-size="13" lengthAdjust="spacingAndGlyphs" textLength="423" x="43" y="506.5825">Search query should be validated and URL encoded appropriately.</text><polygon fill="#A80036" points="320,540.7813,310,544.7813,320,548.7813,316,544.7813" style="stroke: #A80036; stroke-width: 1.0;"/><line style="stroke: #A80036; stroke-width: 1.0;" x1="314" x2="489" y1="544.7813" y2="544.7813"/><text fill="#000000" font-family="sans-serif" font-size="13" font-weight="bold" lengthAdjust="spacingAndGlyphs" textLength="19" x="326" y="539.7153">10</text><text fill="#000000" font-family="sans-serif" font-size="13" lengthAdjust="spacingAndGlyphs" textLength="134" x="349" y="539.7153">Return search result.</text><polygon fill="#A80036" points="58,569.9141,48,573.9141,58,577.9141,54,573.9141" style="stroke: #A80036; stroke-width: 1.0;"/><line style="stroke: #A80036; stroke-width: 1.0;" x1="52" x2="308" y1="573.9141" y2="573.9141"/><text fill="#000000" font-family="sans-serif" font-size="13" font-weight="bold" lengthAdjust="spacingAndGlyphs" textLength="18" x="64" y="568.8481">11</text><text fill="#000000" font-family="sans-serif" font-size="13" lengthAdjust="spacingAndGlyphs" textLength="138" x="86" y="568.8481">Display search result.</text><!--MD5=[d854330cd2055aed4f5d88cd655fd72c]
@startuml
autonumber
title Sequence diagram - Search field and autocomplete

    actor "Patron"
    participant "DDB CMS"
    database "Opensearch service"
    database "Ortograf service"

    == Perform a search query ==
    "Patron"->"DDB CMS": Enter cursor in search field.
    "DDB CMS"->"Patron": Search field active.
    "Patron"->"DDB CMS": Enter query string.
    "DDB CMS"->"Ortograf service": Request autocomplete suggestions for the query string.
    "Ortograf service"->"DDB CMS": Return autocomplete suggestions.
    "DDB CMS"->"Patron": Display autocomplete suggestions.
    group IF Patron chooses an autocomplete suggestions
        "Patron"->"DDB CMS": Click autocomplete suggestion.
        Else Else change query string and click search button.
            "Patron"->"DDB CMS": Click search button.
    end
    "DDB CMS"->"Opensearch service": Request search result.
    note left of "Opensearch service"
        Search query should be validated and URL encoded appropriately.
    end note
    "Opensearch service"->"DDB CMS": Return search result.
    "DDB CMS"->"Patron": Display search result.
@enduml

PlantUML version 1.2020.20beta4(Unknown compile time)
(GPL source distribution)
Java Runtime: Java(TM) SE Runtime Environment
JVM: Java HotSpot(TM) 64-Bit Server VM
Default Encoding: UTF-8
Language: en
Country: US
--></g></svg>