<?xml version="1.0" encoding="UTF-8" standalone="no"?><svg xmlns="http://www.w3.org/2000/svg" xmlns:xlink="http://www.w3.org/1999/xlink" contentScriptType="application/ecmascript" contentStyleType="text/css" height="533px" preserveAspectRatio="none" style="width:287px;height:533px;" version="1.1" viewBox="0 0 287 533" width="287px" zoomAndPan="magnify"><defs><filter height="300%" id="f10dv3e6g6un5z" width="300%" x="-1" y="-1"><feGaussianBlur result="blurOut" stdDeviation="2.0"/><feColorMatrix in="blurOut" result="blurOut2" type="matrix" values="0 0 0 0 0 0 0 0 0 0 0 0 0 0 0 0 0 0 .4 0"/><feOffset dx="4.0" dy="4.0" in="blurOut2" result="blurOut3"/><feBlend in="SourceGraphic" in2="blurOut3" mode="normal"/></filter></defs><g><text fill="#000000" font-family="sans-serif" font-size="18" lengthAdjust="spacingAndGlyphs" textLength="84" x="100.75" y="26.708">Shelfmark</text><ellipse cx="134.5" cy="40.9531" fill="#000000" filter="url(#f10dv3e6g6un5z)" rx="10" ry="10" style="stroke: none; stroke-width: 1.0;"/><rect fill="#F8F8F8" filter="url(#f10dv3e6g6un5z)" height="33.9688" rx="12.5" ry="12.5" style="stroke: #383838; stroke-width: 1.5;" width="102" x="83.5" y="70.9531"/><text fill="#000000" font-family="sans-serif" font-size="12" lengthAdjust="spacingAndGlyphs" textLength="82" x="93.5" y="92.0918">field_dk5 = 652</text><rect fill="#F8F8F8" filter="url(#f10dv3e6g6un5z)" height="33.9688" rx="12.5" ry="12.5" style="stroke: #383838; stroke-width: 1.5;" width="102" x="83.5" y="173.3242"/><text fill="#000000" font-family="sans-serif" font-size="12" lengthAdjust="spacingAndGlyphs" textLength="82" x="93.5" y="194.4629">field_dk5 = 654</text><polygon fill="#F8F8F8" filter="url(#f10dv3e6g6un5z)" points="80,124.9219,189,124.9219,201,136.9219,189,148.9219,80,148.9219,68,136.9219,80,124.9219" style="stroke: #383838; stroke-width: 1.5;"/><text fill="#000000" font-family="sans-serif" font-size="11" lengthAdjust="spacingAndGlyphs" textLength="12" x="138.5" y="159.1323">no</text><text fill="#000000" font-family="sans-serif" font-size="11" lengthAdjust="spacingAndGlyphs" textLength="106" x="80" y="140.73">exists "652 *m || *o"</text><polygon fill="#F8F8F8" filter="url(#f10dv3e6g6un5z)" points="134.5,227.293,146.5,239.293,134.5,251.293,122.5,239.293,134.5,227.293" style="stroke: #383838; stroke-width: 1.5;"/><polygon fill="#F8F8F8" filter="url(#f10dv3e6g6un5z)" points="32,327.0034,87,327.0034,99,339.0034,87,351.0034,32,351.0034,20,339.0034,32,327.0034" style="stroke: #383838; stroke-width: 1.5;"/><text fill="#000000" font-family="sans-serif" font-size="11" lengthAdjust="spacingAndGlyphs" textLength="17" x="63.5" y="361.2139">yes</text><text fill="#000000" font-family="sans-serif" font-size="11" lengthAdjust="spacingAndGlyphs" textLength="52" x="32" y="342.8115">exists *m"</text><rect fill="#F8F8F8" filter="url(#f10dv3e6g6un5z)" height="33.9688" rx="12.5" ry="12.5" style="stroke: #383838; stroke-width: 1.5;" width="84" x="17.5" y="382.7139"/><text fill="#000000" font-family="sans-serif" font-size="12" lengthAdjust="spacingAndGlyphs" textLength="64" x="27.5" y="403.8525">prefix .= *m</text><polygon fill="#F8F8F8" filter="url(#f10dv3e6g6un5z)" points="138.5,327.0034,184.5,327.0034,196.5,339.0034,184.5,351.0034,138.5,351.0034,126.5,339.0034,138.5,327.0034" style="stroke: #383838; stroke-width: 1.5;"/><text fill="#000000" font-family="sans-serif" font-size="11" lengthAdjust="spacingAndGlyphs" textLength="17" x="165.5" y="361.2139">yes</text><text fill="#000000" font-family="sans-serif" font-size="11" lengthAdjust="spacingAndGlyphs" textLength="43" x="138.5" y="342.8115">exists *o</text><text fill="#000000" font-family="sans-serif" font-size="11" lengthAdjust="spacingAndGlyphs" textLength="12" x="196.5" y="336.4092">no</text><rect fill="#F8F8F8" filter="url(#f10dv3e6g6un5z)" height="33.9688" rx="12.5" ry="12.5" style="stroke: #383838; stroke-width: 1.5;" width="80" x="121.5" y="382.7139"/><text fill="#000000" font-family="sans-serif" font-size="12" lengthAdjust="spacingAndGlyphs" textLength="60" x="131.5" y="403.8525">prefix .= *o</text><polygon fill="#F8F8F8" filter="url(#f10dv3e6g6un5z)" points="71.5,271.293,197.5,271.293,209.5,283.293,197.5,295.293,71.5,295.293,59.5,283.293,71.5,271.293" style="stroke: #383838; stroke-width: 1.5;"/><text fill="#000000" font-family="sans-serif" font-size="11" lengthAdjust="spacingAndGlyphs" textLength="112" x="138.5" y="305.5034">yes : Non-fiction = DK5</text><text fill="#000000" font-family="sans-serif" font-size="11" lengthAdjust="spacingAndGlyphs" textLength="123" x="74.5" y="287.1011">Neither *m nor *o == 'sk'</text><polygon fill="#F8F8F8" filter="url(#f10dv3e6g6un5z)" points="134.5,456.6826,146.5,468.6826,134.5,480.6826,122.5,468.6826,134.5,456.6826" style="stroke: #383838; stroke-width: 1.5;"/><ellipse cx="134.5" cy="511.6826" fill="#FFFFFF" filter="url(#f10dv3e6g6un5z)" rx="11" ry="11" style="stroke: #000000; stroke-width: 1.0;"/><ellipse cx="134.5" cy="511.6826" fill="#000000" rx="6" ry="6" style="stroke: #7F7F7F; stroke-width: 1.0;"/><line style="stroke: #383838; stroke-width: 1.5;" x1="134.5" x2="134.5" y1="50.9531" y2="70.9531"/><polygon fill="#383838" points="130.5,60.9531,134.5,70.9531,138.5,60.9531,134.5,64.9531" style="stroke: #383838; stroke-width: 1.0;"/><line style="stroke: #383838; stroke-width: 1.5;" x1="134.5" x2="134.5" y1="148.9219" y2="173.3242"/><polygon fill="#383838" points="130.5,163.3242,134.5,173.3242,138.5,163.3242,134.5,167.3242" style="stroke: #383838; stroke-width: 1.0;"/><line style="stroke: #383838; stroke-width: 1.5;" x1="201" x2="213" y1="136.9219" y2="136.9219"/><polygon fill="#383838" points="209,180.3086,213,190.3086,217,180.3086,213,184.3086" style="stroke: #383838; stroke-width: 1.5;"/><line style="stroke: #383838; stroke-width: 1.5;" x1="213" x2="213" y1="136.9219" y2="239.293"/><line style="stroke: #383838; stroke-width: 1.5;" x1="213" x2="146.5" y1="239.293" y2="239.293"/><polygon fill="#383838" points="156.5,235.293,146.5,239.293,156.5,243.293,152.5,239.293" style="stroke: #383838; stroke-width: 1.0;"/><line style="stroke: #383838; stroke-width: 1.5;" x1="134.5" x2="134.5" y1="207.293" y2="227.293"/><polygon fill="#383838" points="130.5,217.293,134.5,227.293,138.5,217.293,134.5,221.293" style="stroke: #383838; stroke-width: 1.0;"/><line style="stroke: #383838; stroke-width: 1.5;" x1="134.5" x2="134.5" y1="104.9219" y2="124.9219"/><polygon fill="#383838" points="130.5,114.9219,134.5,124.9219,138.5,114.9219,134.5,118.9219" style="stroke: #383838; stroke-width: 1.0;"/><line style="stroke: #383838; stroke-width: 1.5;" x1="59.5" x2="59.5" y1="351.0034" y2="382.7139"/><polygon fill="#383838" points="55.5,372.7139,59.5,382.7139,63.5,372.7139,59.5,376.7139" style="stroke: #383838; stroke-width: 1.0;"/><line style="stroke: #383838; stroke-width: 1.5;" x1="59.5" x2="59.5" y1="416.6826" y2="436.6826"/><polygon fill="#383838" points="55.5,426.6826,59.5,436.6826,63.5,426.6826,59.5,430.6826" style="stroke: #383838; stroke-width: 1.0;"/><line style="stroke: #383838; stroke-width: 1.5;" x1="161.5" x2="161.5" y1="351.0034" y2="382.7139"/><polygon fill="#383838" points="157.5,372.7139,161.5,382.7139,165.5,372.7139,161.5,376.7139" style="stroke: #383838; stroke-width: 1.0;"/><line style="stroke: #383838; stroke-width: 1.5;" x1="161.5" x2="161.5" y1="416.6826" y2="436.6826"/><polygon fill="#383838" points="157.5,426.6826,161.5,436.6826,165.5,426.6826,161.5,430.6826" style="stroke: #383838; stroke-width: 1.0;"/><line style="stroke: #383838; stroke-width: 1.5;" x1="99" x2="126.5" y1="339.0034" y2="339.0034"/><polygon fill="#383838" points="116.5,335.0034,126.5,339.0034,116.5,343.0034,120.5,339.0034" style="stroke: #383838; stroke-width: 1.0;"/><line style="stroke: #383838; stroke-width: 1.5;" x1="134.5" x2="134.5" y1="295.293" y2="312.0034"/><line style="stroke: #383838; stroke-width: 1.5;" x1="134.5" x2="59.5" y1="312.0034" y2="312.0034"/><line style="stroke: #383838; stroke-width: 1.5;" x1="59.5" x2="59.5" y1="312.0034" y2="327.0034"/><polygon fill="#383838" points="55.5,317.0034,59.5,327.0034,63.5,317.0034,59.5,321.0034" style="stroke: #383838; stroke-width: 1.0;"/><line style="stroke: #383838; stroke-width: 1.5;" x1="196.5" x2="236.5" y1="339.0034" y2="339.0034"/><line style="stroke: #383838; stroke-width: 1.5;" x1="236.5" x2="236.5" y1="339.0034" y2="436.6826"/><polygon fill="#383838" points="232.5,426.6826,236.5,436.6826,240.5,426.6826,236.5,430.6826" style="stroke: #383838; stroke-width: 1.0;"/><line style="stroke: #383838; stroke-width: 1.5;" x1="59.5" x2="236.5" y1="436.6826" y2="436.6826"/><line style="stroke: #383838; stroke-width: 1.5;" x1="209.5" x2="261.5" y1="283.293" y2="283.293"/><polygon fill="#383838" points="257.5,386.2959,261.5,396.2959,265.5,386.2959,261.5,390.2959" style="stroke: #383838; stroke-width: 1.5;"/><line style="stroke: #383838; stroke-width: 1.5;" x1="261.5" x2="261.5" y1="283.293" y2="468.6826"/><line style="stroke: #383838; stroke-width: 1.5;" x1="261.5" x2="146.5" y1="468.6826" y2="468.6826"/><polygon fill="#383838" points="156.5,464.6826,146.5,468.6826,156.5,472.6826,152.5,468.6826" style="stroke: #383838; stroke-width: 1.0;"/><line style="stroke: #383838; stroke-width: 1.5;" x1="134.5" x2="134.5" y1="436.6826" y2="456.6826"/><polygon fill="#383838" points="130.5,446.6826,134.5,456.6826,138.5,446.6826,134.5,450.6826" style="stroke: #383838; stroke-width: 1.0;"/><line style="stroke: #383838; stroke-width: 1.5;" x1="134.5" x2="134.5" y1="251.293" y2="271.293"/><polygon fill="#383838" points="130.5,261.293,134.5,271.293,138.5,261.293,134.5,265.293" style="stroke: #383838; stroke-width: 1.0;"/><line style="stroke: #383838; stroke-width: 1.5;" x1="134.5" x2="134.5" y1="480.6826" y2="500.6826"/><polygon fill="#383838" points="130.5,490.6826,134.5,500.6826,138.5,490.6826,134.5,494.6826" style="stroke: #383838; stroke-width: 1.0;"/><!--
@startuml
title Shelfmark

skinparam monochrome true

start
:field_dk5 = 652;
if (exists "652 *m || *o" ) then (no)
    :field_dk5 = 654;
endif



if ( Neither *m nor *o == 'sk') then (yes : Non-fiction = DK5)
    if (exists *m" ) then (yes)
        :prefix .= *m;
    elseif (exists *o ) then (yes)
        :prefix .= *o;
    else (no)
    endif

endif

stop
@enduml

PlantUML version 1.2019.05(Sat Apr 20 16:45:36 GMT 2019)
(GPL source distribution)
Java Runtime: Java(TM) SE Runtime Environment
JVM: Java HotSpot(TM) 64-Bit Server VM
Java Version: 1.8.0_202-b08
Operating System: Linux
OS Version: 5.0.0-1023-azure
Default Encoding: ANSI_X3.4-1968
Language: en
Country: US
--></g></svg>