<?xml version="1.0" encoding="UTF-8" standalone="no"?><svg xmlns="http://www.w3.org/2000/svg" xmlns:xlink="http://www.w3.org/1999/xlink" contentScriptType="application/ecmascript" contentStyleType="text/css" height="304px" preserveAspectRatio="none" style="width:191px;height:304px;" version="1.1" viewBox="0 0 191 304" width="191px" zoomAndPan="magnify"><defs><filter height="300%" id="f1tlk7ef9hgq1n" width="300%" x="-1" y="-1"><feGaussianBlur result="blurOut" stdDeviation="2.0"/><feColorMatrix in="blurOut" result="blurOut2" type="matrix" values="0 0 0 0 0 0 0 0 0 0 0 0 0 0 0 0 0 0 .4 0"/><feOffset dx="4.0" dy="4.0" in="blurOut2" result="blurOut3"/><feBlend in="SourceGraphic" in2="blurOut3" mode="normal"/></filter></defs><g><text fill="#000000" font-family="sans-serif" font-size="18" lengthAdjust="spacingAndGlyphs" textLength="84" x="52.5" y="26.708">Shelfmark</text><ellipse cx="86.5" cy="40.9531" fill="#000000" filter="url(#f1tlk7ef9hgq1n)" rx="10" ry="10" style="stroke: none; stroke-width: 1.0;"/><rect fill="#F8F8F8" filter="url(#f1tlk7ef9hgq1n)" height="33.9688" rx="12.5" ry="12.5" style="stroke: #383838; stroke-width: 1.5;" width="102" x="35.5" y="70.9531"/><text fill="#000000" font-family="sans-serif" font-size="12" lengthAdjust="spacingAndGlyphs" textLength="82" x="45.5" y="92.0918">field_dk5 = 652</text><rect fill="#F8F8F8" filter="url(#f1tlk7ef9hgq1n)" height="33.9688" rx="12.5" ry="12.5" style="stroke: #383838; stroke-width: 1.5;" width="102" x="35.5" y="173.3242"/><text fill="#000000" font-family="sans-serif" font-size="12" lengthAdjust="spacingAndGlyphs" textLength="82" x="45.5" y="194.4629">field_dk5 = 654</text><polygon fill="#F8F8F8" filter="url(#f1tlk7ef9hgq1n)" points="32,124.9219,141,124.9219,153,136.9219,141,148.9219,32,148.9219,20,136.9219,32,124.9219" style="stroke: #383838; stroke-width: 1.5;"/><text fill="#000000" font-family="sans-serif" font-size="11" lengthAdjust="spacingAndGlyphs" textLength="12" x="90.5" y="159.1323">no</text><text fill="#000000" font-family="sans-serif" font-size="11" lengthAdjust="spacingAndGlyphs" textLength="106" x="32" y="140.73">exists "652 *m || *o"</text><polygon fill="#F8F8F8" filter="url(#f1tlk7ef9hgq1n)" points="86.5,227.293,98.5,239.293,86.5,251.293,74.5,239.293,86.5,227.293" style="stroke: #383838; stroke-width: 1.5;"/><ellipse cx="86.5" cy="282.293" fill="#FFFFFF" filter="url(#f1tlk7ef9hgq1n)" rx="11" ry="11" style="stroke: #000000; stroke-width: 1.0;"/><ellipse cx="86.5" cy="282.293" fill="#000000" rx="6" ry="6" style="stroke: #7F7F7F; stroke-width: 1.0;"/><line style="stroke: #383838; stroke-width: 1.5;" x1="86.5" x2="86.5" y1="50.9531" y2="70.9531"/><polygon fill="#383838" points="82.5,60.9531,86.5,70.9531,90.5,60.9531,86.5,64.9531" style="stroke: #383838; stroke-width: 1.0;"/><line style="stroke: #383838; stroke-width: 1.5;" x1="86.5" x2="86.5" y1="148.9219" y2="173.3242"/><polygon fill="#383838" points="82.5,163.3242,86.5,173.3242,90.5,163.3242,86.5,167.3242" style="stroke: #383838; stroke-width: 1.0;"/><line style="stroke: #383838; stroke-width: 1.5;" x1="153" x2="165" y1="136.9219" y2="136.9219"/><polygon fill="#383838" points="161,180.3086,165,190.3086,169,180.3086,165,184.3086" style="stroke: #383838; stroke-width: 1.5;"/><line style="stroke: #383838; stroke-width: 1.5;" x1="165" x2="165" y1="136.9219" y2="239.293"/><line style="stroke: #383838; stroke-width: 1.5;" x1="165" x2="98.5" y1="239.293" y2="239.293"/><polygon fill="#383838" points="108.5,235.293,98.5,239.293,108.5,243.293,104.5,239.293" style="stroke: #383838; stroke-width: 1.0;"/><line style="stroke: #383838; stroke-width: 1.5;" x1="86.5" x2="86.5" y1="207.293" y2="227.293"/><polygon fill="#383838" points="82.5,217.293,86.5,227.293,90.5,217.293,86.5,221.293" style="stroke: #383838; stroke-width: 1.0;"/><line style="stroke: #383838; stroke-width: 1.5;" x1="86.5" x2="86.5" y1="104.9219" y2="124.9219"/><polygon fill="#383838" points="82.5,114.9219,86.5,124.9219,90.5,114.9219,86.5,118.9219" style="stroke: #383838; stroke-width: 1.0;"/><line style="stroke: #383838; stroke-width: 1.5;" x1="86.5" x2="86.5" y1="251.293" y2="271.293"/><polygon fill="#383838" points="82.5,261.293,86.5,271.293,90.5,261.293,86.5,265.293" style="stroke: #383838; stroke-width: 1.0;"/><!--
@startuml
title Shelfmark

skinparam monochrome true

start
:field_dk5 = 652;
if (exists "652 *m || *o" ) then (no)
    :field_dk5 = 654;
endif



stop
@enduml

PlantUML version 1.2019.05(Sat Apr 20 16:45:36 GMT 2019)
(GPL source distribution)
Java Runtime: Java(TM) SE Runtime Environment
JVM: Java HotSpot(TM) 64-Bit Server VM
Java Version: 1.8.0_202-b08
Operating System: Linux
OS Version: 5.0.0-1023-azure
Default Encoding: ANSI_X3.4-1968
Language: en
Country: US
--></g></svg>