<?xml version="1.0" encoding="UTF-8" standalone="no"?><svg xmlns="http://www.w3.org/2000/svg" xmlns:xlink="http://www.w3.org/1999/xlink" contentScriptType="application/ecmascript" contentStyleType="text/css" height="1345px" preserveAspectRatio="none" style="width:837px;height:1345px;" version="1.1" viewBox="0 0 837 1345" width="837px" zoomAndPan="magnify"><defs><filter height="300%" id="f1m5wiv7abakc1" width="300%" x="-1" y="-1"><feGaussianBlur result="blurOut" stdDeviation="2.0"/><feColorMatrix in="blurOut" result="blurOut2" type="matrix" values="0 0 0 0 0 0 0 0 0 0 0 0 0 0 0 0 0 0 .4 0"/><feOffset dx="4.0" dy="4.0" in="blurOut2" result="blurOut3"/><feBlend in="SourceGraphic" in2="blurOut3" mode="normal"/></filter></defs><g><text fill="#000000" font-family="sans-serif" font-size="18" lengthAdjust="spacingAndGlyphs" textLength="84" x="375.75" y="26.708">Shelfmark</text><ellipse cx="395.75" cy="40.9531" fill="#000000" filter="url(#f1m5wiv7abakc1)" rx="10" ry="10" style="stroke: none; stroke-width: 1.0;"/><rect fill="#F8F8F8" filter="url(#f1m5wiv7abakc1)" height="33.9688" rx="12.5" ry="12.5" style="stroke: #383838; stroke-width: 1.5;" width="102" x="344.75" y="70.9531"/><text fill="#000000" font-family="sans-serif" font-size="12" lengthAdjust="spacingAndGlyphs" textLength="82" x="354.75" y="92.0918">field_dk5 = 652</text><rect fill="#F8F8F8" filter="url(#f1m5wiv7abakc1)" height="33.9688" rx="12.5" ry="12.5" style="stroke: #383838; stroke-width: 1.5;" width="102" x="344.75" y="173.3242"/><text fill="#000000" font-family="sans-serif" font-size="12" lengthAdjust="spacingAndGlyphs" textLength="82" x="354.75" y="194.4629">field_dk5 = 654</text><polygon fill="#F8F8F8" filter="url(#f1m5wiv7abakc1)" points="341.25,124.9219,450.25,124.9219,462.25,136.9219,450.25,148.9219,341.25,148.9219,329.25,136.9219,341.25,124.9219" style="stroke: #383838; stroke-width: 1.5;"/><text fill="#000000" font-family="sans-serif" font-size="11" lengthAdjust="spacingAndGlyphs" textLength="12" x="399.75" y="159.1323">no</text><text fill="#000000" font-family="sans-serif" font-size="11" lengthAdjust="spacingAndGlyphs" textLength="106" x="341.25" y="140.73">exists "652 *m || *o"</text><polygon fill="#F8F8F8" filter="url(#f1m5wiv7abakc1)" points="395.75,227.293,407.75,239.293,395.75,251.293,383.75,239.293,395.75,227.293" style="stroke: #383838; stroke-width: 1.5;"/><polygon fill="#F8F8F8" filter="url(#f1m5wiv7abakc1)" points="330.75,271.293,460.75,271.293,472.75,283.293,460.75,295.293,330.75,295.293,318.75,283.293,330.75,271.293" style="stroke: #383838; stroke-width: 1.5;"/><text fill="#000000" font-family="sans-serif" font-size="11" lengthAdjust="spacingAndGlyphs" textLength="127" x="333.75" y="287.1011">Neither *m nor *o == "sk"</text><text fill="#000000" font-family="sans-serif" font-size="11" lengthAdjust="spacingAndGlyphs" textLength="112" x="206.75" y="280.6987">yes : Non-fiction = DK5</text><text fill="#000000" font-family="sans-serif" font-size="11" lengthAdjust="spacingAndGlyphs" textLength="73" x="472.75" y="280.6987">no : Fiction = sk</text><polygon fill="#F8F8F8" filter="url(#f1m5wiv7abakc1)" points="126,330.293,181,330.293,193,342.293,181,354.293,126,354.293,114,342.293,126,330.293" style="stroke: #383838; stroke-width: 1.5;"/><text fill="#000000" font-family="sans-serif" font-size="11" lengthAdjust="spacingAndGlyphs" textLength="17" x="157.5" y="364.5034">yes</text><text fill="#000000" font-family="sans-serif" font-size="11" lengthAdjust="spacingAndGlyphs" textLength="52" x="126" y="346.1011">exists *m"</text><rect fill="#F8F8F8" filter="url(#f1m5wiv7abakc1)" height="33.9688" rx="12.5" ry="12.5" style="stroke: #383838; stroke-width: 1.5;" width="84" x="111.5" y="387.0977"/><text fill="#000000" font-family="sans-serif" font-size="12" lengthAdjust="spacingAndGlyphs" textLength="64" x="121.5" y="408.2363">prefix .= *m</text><polygon fill="#F8F8F8" filter="url(#f1m5wiv7abakc1)" points="232,330.293,278,330.293,290,342.293,278,354.293,232,354.293,220,342.293,232,330.293" style="stroke: #383838; stroke-width: 1.5;"/><text fill="#000000" font-family="sans-serif" font-size="11" lengthAdjust="spacingAndGlyphs" textLength="17" x="259" y="364.5034">yes</text><text fill="#000000" font-family="sans-serif" font-size="11" lengthAdjust="spacingAndGlyphs" textLength="43" x="232" y="346.1011">exists *o</text><text fill="#000000" font-family="sans-serif" font-size="11" lengthAdjust="spacingAndGlyphs" textLength="12" x="290" y="339.6987">no</text><rect fill="#F8F8F8" filter="url(#f1m5wiv7abakc1)" height="33.9688" rx="12.5" ry="12.5" style="stroke: #383838; stroke-width: 1.5;" width="80" x="215" y="387.0977"/><text fill="#000000" font-family="sans-serif" font-size="12" lengthAdjust="spacingAndGlyphs" textLength="60" x="225" y="408.2363">prefix .= *o</text><polygon fill="#F8F8F8" filter="url(#f1m5wiv7abakc1)" points="68.5,551.6641,117.5,551.6641,129.5,563.6641,117.5,575.6641,68.5,575.6641,56.5,563.6641,68.5,551.6641" style="stroke: #383838; stroke-width: 1.5;"/><text fill="#000000" font-family="sans-serif" font-size="11" lengthAdjust="spacingAndGlyphs" textLength="17" x="97" y="585.8745">yes</text><text fill="#000000" font-family="sans-serif" font-size="11" lengthAdjust="spacingAndGlyphs" textLength="43" x="71.5" y="567.4722">exists *b</text><rect fill="#F8F8F8" filter="url(#f1m5wiv7abakc1)" height="33.9688" rx="12.5" ry="12.5" style="stroke: #383838; stroke-width: 1.5;" width="166" x="10" y="608.4688"/><text fill="#000000" font-family="sans-serif" font-size="12" lengthAdjust="spacingAndGlyphs" textLength="146" x="20" y="629.6074">prefix .= " " . *b description</text><polygon fill="#F8F8F8" filter="url(#f1m5wiv7abakc1)" points="265.5,551.6641,314.5,551.6641,326.5,563.6641,314.5,575.6641,265.5,575.6641,253.5,563.6641,265.5,551.6641" style="stroke: #383838; stroke-width: 1.5;"/><text fill="#000000" font-family="sans-serif" font-size="11" lengthAdjust="spacingAndGlyphs" textLength="17" x="294" y="585.8745">yes</text><text fill="#000000" font-family="sans-serif" font-size="11" lengthAdjust="spacingAndGlyphs" textLength="43" x="268.5" y="567.4722">exists *a</text><rect fill="#F8F8F8" filter="url(#f1m5wiv7abakc1)" height="33.9688" rx="12.5" ry="12.5" style="stroke: #383838; stroke-width: 1.5;" width="144" x="218" y="608.4688"/><text fill="#000000" font-family="sans-serif" font-size="12" lengthAdjust="spacingAndGlyphs" textLength="124" x="228" y="629.6074">prefix .= *a description</text><rect fill="#F8F8F8" filter="url(#f1m5wiv7abakc1)" height="33.9688" rx="12.5" ry="12.5" style="stroke: #383838; stroke-width: 1.5;" width="169" x="205.5" y="710.8398"/><text fill="#000000" font-family="sans-serif" font-size="12" lengthAdjust="spacingAndGlyphs" textLength="149" x="215.5" y="731.9785">prefix .= ", " . *h description</text><polygon fill="#F8F8F8" filter="url(#f1m5wiv7abakc1)" points="265.5,662.4375,314.5,662.4375,326.5,674.4375,314.5,686.4375,265.5,686.4375,253.5,674.4375,265.5,662.4375" style="stroke: #383838; stroke-width: 1.5;"/><text fill="#000000" font-family="sans-serif" font-size="11" lengthAdjust="spacingAndGlyphs" textLength="17" x="294" y="696.6479">yes</text><text fill="#000000" font-family="sans-serif" font-size="11" lengthAdjust="spacingAndGlyphs" textLength="43" x="268.5" y="678.2456">exists *h</text><polygon fill="#F8F8F8" filter="url(#f1m5wiv7abakc1)" points="290,764.8086,302,776.8086,290,788.8086,278,776.8086,290,764.8086" style="stroke: #383838; stroke-width: 1.5;"/><path d="M703.5,433.4336 L703.5,473.6992 L825.5,473.6992 L825.5,443.4336 L815.5,433.4336 L703.5,433.4336 " fill="#ECECEC" filter="url(#f1m5wiv7abakc1)" style="stroke: #383838; stroke-width: 1.0;"/><path d="M815.5,433.4336 L815.5,443.4336 L825.5,443.4336 L815.5,433.4336 " fill="#ECECEC" style="stroke: #383838; stroke-width: 1.0;"/><text fill="#000000" font-family="sans-serif" font-size="13" lengthAdjust="spacingAndGlyphs" textLength="84" x="709.5" y="450.5005">Prefix is empty</text><text fill="#000000" font-family="sans-serif" font-size="13" lengthAdjust="spacingAndGlyphs" textLength="101" x="709.5" y="465.6333">and "sk" ignored!</text><rect fill="#F8F8F8" filter="url(#f1m5wiv7abakc1)" height="33.9688" rx="12.5" ry="12.5" style="stroke: #383838; stroke-width: 1.5;" width="174" x="476.5" y="353.6953"/><text fill="#000000" font-family="sans-serif" font-size="12" lengthAdjust="spacingAndGlyphs" textLength="154" x="486.5" y="374.834">prefix .= " " . Expanded value</text><rect fill="#F8F8F8" filter="url(#f1m5wiv7abakc1)" height="33.9688" rx="12.5" ry="12.5" style="stroke: #383838; stroke-width: 1.5;" width="152" x="487.5" y="471.0664"/><text fill="#000000" font-family="sans-serif" font-size="12" lengthAdjust="spacingAndGlyphs" textLength="132" x="497.5" y="492.2051">prefix .= Expanded value</text><polygon fill="#F8F8F8" filter="url(#f1m5wiv7abakc1)" points="534.5,422.6641,592.5,422.6641,604.5,434.6641,592.5,446.6641,534.5,446.6641,522.5,434.6641,534.5,422.6641" style="stroke: #383838; stroke-width: 1.5;"/><text fill="#000000" font-family="sans-serif" font-size="11" lengthAdjust="spacingAndGlyphs" textLength="17" x="567.5" y="456.8745">yes</text><text fill="#000000" font-family="sans-serif" font-size="11" lengthAdjust="spacingAndGlyphs" textLength="55" x="534.5" y="438.4722">exists 039b</text><polygon fill="#F8F8F8" filter="url(#f1m5wiv7abakc1)" points="563.5,525.0352,575.5,537.0352,563.5,549.0352,551.5,537.0352,563.5,525.0352" style="stroke: #383838; stroke-width: 1.5;"/><polygon fill="#F8F8F8" filter="url(#f1m5wiv7abakc1)" points="510,305.293,617,305.293,629,317.293,617,329.293,510,329.293,498,317.293,510,305.293" style="stroke: #383838; stroke-width: 1.5;"/><text fill="#000000" font-family="sans-serif" font-size="11" lengthAdjust="spacingAndGlyphs" textLength="17" x="567.5" y="339.5034">yes</text><text fill="#000000" font-family="sans-serif" font-size="11" lengthAdjust="spacingAndGlyphs" textLength="101" x="513" y="321.1011">exists "039a "Music"</text><text fill="#000000" font-family="sans-serif" font-size="11" lengthAdjust="spacingAndGlyphs" textLength="68" x="629" y="314.6987">no: Prefix = ""</text><polygon fill="#F8F8F8" filter="url(#f1m5wiv7abakc1)" points="563.5,573.4375,575.5,585.4375,563.5,597.4375,551.5,585.4375,563.5,573.4375" style="stroke: #383838; stroke-width: 1.5;"/><polygon fill="#F8F8F8" filter="url(#f1m5wiv7abakc1)" points="395.75,814.8086,407.75,826.8086,395.75,838.8086,383.75,826.8086,395.75,814.8086" style="stroke: #383838; stroke-width: 1.5;"/><rect fill="#F8F8F8" filter="url(#f1m5wiv7abakc1)" height="33.9688" rx="12.5" ry="12.5" style="stroke: #383838; stroke-width: 1.5;" width="180" x="305.75" y="858.8086"/><text fill="#000000" font-family="sans-serif" font-size="12" lengthAdjust="spacingAndGlyphs" textLength="160" x="315.75" y="879.9473">prefix done. Builing shelfmark</text><polygon fill="#F8F8F8" filter="url(#f1m5wiv7abakc1)" points="103.75,912.7773,164.75,912.7773,176.75,924.7773,164.75,936.7773,103.75,936.7773,91.75,924.7773,103.75,912.7773" style="stroke: #383838; stroke-width: 1.5;"/><text fill="#000000" font-family="sans-serif" font-size="11" lengthAdjust="spacingAndGlyphs" textLength="17" x="138.25" y="946.9878">yes</text><text fill="#000000" font-family="sans-serif" font-size="11" lengthAdjust="spacingAndGlyphs" textLength="55" x="106.75" y="928.5854">exists 100a</text><rect fill="#F8F8F8" filter="url(#f1m5wiv7abakc1)" height="33.9688" rx="12.5" ry="12.5" style="stroke: #383838; stroke-width: 1.5;" width="118" x="75.25" y="969.582"/><text fill="#000000" font-family="sans-serif" font-size="12" lengthAdjust="spacingAndGlyphs" textLength="95" x="85.25" y="990.7207">shelfmark = 100a</text><polygon fill="#F8F8F8" filter="url(#f1m5wiv7abakc1)" points="241.25,912.7773,302.25,912.7773,314.25,924.7773,302.25,936.7773,241.25,936.7773,229.25,924.7773,241.25,912.7773" style="stroke: #383838; stroke-width: 1.5;"/><text fill="#000000" font-family="sans-serif" font-size="11" lengthAdjust="spacingAndGlyphs" textLength="17" x="275.75" y="946.9878">yes</text><text fill="#000000" font-family="sans-serif" font-size="11" lengthAdjust="spacingAndGlyphs" textLength="55" x="244.25" y="928.5854">exists 110a</text><rect fill="#F8F8F8" filter="url(#f1m5wiv7abakc1)" height="33.9688" rx="12.5" ry="12.5" style="stroke: #383838; stroke-width: 1.5;" width="118" x="212.75" y="969.582"/><text fill="#000000" font-family="sans-serif" font-size="12" lengthAdjust="spacingAndGlyphs" textLength="95" x="222.75" y="990.7207">shelfmark = 110a</text><polygon fill="#F8F8F8" filter="url(#f1m5wiv7abakc1)" points="380.25,912.7773,436.25,912.7773,448.25,924.7773,436.25,936.7773,380.25,936.7773,368.25,924.7773,380.25,912.7773" style="stroke: #383838; stroke-width: 1.5;"/><text fill="#000000" font-family="sans-serif" font-size="11" lengthAdjust="spacingAndGlyphs" textLength="17" x="412.25" y="946.9878">yes</text><text fill="#000000" font-family="sans-serif" font-size="11" lengthAdjust="spacingAndGlyphs" textLength="53" x="383.25" y="928.5854">exists 239t</text><rect fill="#F8F8F8" filter="url(#f1m5wiv7abakc1)" height="33.9688" rx="12.5" ry="12.5" style="stroke: #383838; stroke-width: 1.5;" width="115" x="350.75" y="969.582"/><text fill="#000000" font-family="sans-serif" font-size="12" lengthAdjust="spacingAndGlyphs" textLength="92" x="360.75" y="990.7207">shelfmark = 239t</text><polygon fill="#F8F8F8" filter="url(#f1m5wiv7abakc1)" points="514.25,912.7773,575.25,912.7773,587.25,924.7773,575.25,936.7773,514.25,936.7773,502.25,924.7773,514.25,912.7773" style="stroke: #383838; stroke-width: 1.5;"/><text fill="#000000" font-family="sans-serif" font-size="11" lengthAdjust="spacingAndGlyphs" textLength="17" x="548.75" y="946.9878">yes</text><text fill="#000000" font-family="sans-serif" font-size="11" lengthAdjust="spacingAndGlyphs" textLength="55" x="517.25" y="928.5854">exists 245a</text><text fill="#000000" font-family="sans-serif" font-size="11" lengthAdjust="spacingAndGlyphs" textLength="36" x="587.25" y="922.1831">nothing</text><rect fill="#F8F8F8" filter="url(#f1m5wiv7abakc1)" height="33.9688" rx="12.5" ry="12.5" style="stroke: #383838; stroke-width: 1.5;" width="118" x="485.75" y="969.582"/><text fill="#000000" font-family="sans-serif" font-size="12" lengthAdjust="spacingAndGlyphs" textLength="95" x="495.75" y="990.7207">shelfmark = 245a</text><rect fill="#F8F8F8" filter="url(#f1m5wiv7abakc1)" height="33.9688" rx="12.5" ry="12.5" style="stroke: #383838; stroke-width: 1.5;" width="93" x="623.75" y="966.1797"/><text fill="#000000" font-family="sans-serif" font-size="12" lengthAdjust="spacingAndGlyphs" textLength="73" x="633.75" y="987.3184">No shelfmark</text><rect fill="#F8F8F8" filter="url(#f1m5wiv7abakc1)" height="33.9688" rx="12.5" ry="12.5" style="stroke: #383838; stroke-width: 1.5;" width="162" x="314.75" y="1091.9531"/><text fill="#000000" font-family="sans-serif" font-size="12" lengthAdjust="spacingAndGlyphs" textLength="142" x="324.75" y="1113.0918">Alphabetise shelfmark "¤"</text><rect fill="#F8F8F8" filter="url(#f1m5wiv7abakc1)" height="33.9688" rx="12.5" ry="12.5" style="stroke: #383838; stroke-width: 1.5;" width="176" x="307.75" y="1160.9219"/><text fill="#000000" font-family="sans-serif" font-size="12" lengthAdjust="spacingAndGlyphs" textLength="156" x="317.75" y="1182.0605">Uppercase first on shelfmark</text><polygon fill="#F8F8F8" filter="url(#f1m5wiv7abakc1)" points="354.75,1043.5508,436.75,1043.5508,448.75,1055.5508,436.75,1067.5508,354.75,1067.5508,342.75,1055.5508,354.75,1043.5508" style="stroke: #383838; stroke-width: 1.5;"/><text fill="#000000" font-family="sans-serif" font-size="11" lengthAdjust="spacingAndGlyphs" textLength="17" x="399.75" y="1077.7612">yes</text><text fill="#000000" font-family="sans-serif" font-size="11" lengthAdjust="spacingAndGlyphs" textLength="79" x="354.75" y="1059.3589">exists shelfmark</text><polygon fill="#F8F8F8" filter="url(#f1m5wiv7abakc1)" points="395.75,1214.8906,407.75,1226.8906,395.75,1238.8906,383.75,1226.8906,395.75,1214.8906" style="stroke: #383838; stroke-width: 1.5;"/><rect fill="#F8F8F8" filter="url(#f1m5wiv7abakc1)" height="33.9688" rx="12.5" ry="12.5" style="stroke: #383838; stroke-width: 1.5;" width="171" x="310.25" y="1258.8906"/><text fill="#000000" font-family="sans-serif" font-size="12" lengthAdjust="spacingAndGlyphs" textLength="151" x="320.25" y="1280.0293">holding = prefix . shelf_mark</text><ellipse cx="395.75" cy="1323.8594" fill="#FFFFFF" filter="url(#f1m5wiv7abakc1)" rx="11" ry="11" style="stroke: #000000; stroke-width: 1.0;"/><ellipse cx="395.75" cy="1323.8594" fill="#000000" rx="6" ry="6" style="stroke: #7F7F7F; stroke-width: 1.0;"/><line style="stroke: #383838; stroke-width: 1.5;" x1="395.75" x2="395.75" y1="50.9531" y2="70.9531"/><polygon fill="#383838" points="391.75,60.9531,395.75,70.9531,399.75,60.9531,395.75,64.9531" style="stroke: #383838; stroke-width: 1.0;"/><line style="stroke: #383838; stroke-width: 1.5;" x1="395.75" x2="395.75" y1="148.9219" y2="173.3242"/><polygon fill="#383838" points="391.75,163.3242,395.75,173.3242,399.75,163.3242,395.75,167.3242" style="stroke: #383838; stroke-width: 1.0;"/><line style="stroke: #383838; stroke-width: 1.5;" x1="462.25" x2="474.25" y1="136.9219" y2="136.9219"/><polygon fill="#383838" points="470.25,180.3086,474.25,190.3086,478.25,180.3086,474.25,184.3086" style="stroke: #383838; stroke-width: 1.5;"/><line style="stroke: #383838; stroke-width: 1.5;" x1="474.25" x2="474.25" y1="136.9219" y2="239.293"/><line style="stroke: #383838; stroke-width: 1.5;" x1="474.25" x2="407.75" y1="239.293" y2="239.293"/><polygon fill="#383838" points="417.75,235.293,407.75,239.293,417.75,243.293,413.75,239.293" style="stroke: #383838; stroke-width: 1.0;"/><line style="stroke: #383838; stroke-width: 1.5;" x1="395.75" x2="395.75" y1="207.293" y2="227.293"/><polygon fill="#383838" points="391.75,217.293,395.75,227.293,399.75,217.293,395.75,221.293" style="stroke: #383838; stroke-width: 1.0;"/><line style="stroke: #383838; stroke-width: 1.5;" x1="395.75" x2="395.75" y1="104.9219" y2="124.9219"/><polygon fill="#383838" points="391.75,114.9219,395.75,124.9219,399.75,114.9219,395.75,118.9219" style="stroke: #383838; stroke-width: 1.0;"/><line style="stroke: #383838; stroke-width: 1.5;" x1="153.5" x2="153.5" y1="354.293" y2="387.0977"/><polygon fill="#383838" points="149.5,377.0977,153.5,387.0977,157.5,377.0977,153.5,381.0977" style="stroke: #383838; stroke-width: 1.0;"/><line style="stroke: #383838; stroke-width: 1.5;" x1="153.5" x2="153.5" y1="421.0664" y2="496.0664"/><polygon fill="#383838" points="149.5,486.0664,153.5,496.0664,157.5,486.0664,153.5,490.0664" style="stroke: #383838; stroke-width: 1.0;"/><line style="stroke: #383838; stroke-width: 1.5;" x1="255" x2="255" y1="354.293" y2="387.0977"/><polygon fill="#383838" points="251,377.0977,255,387.0977,259,377.0977,255,381.0977" style="stroke: #383838; stroke-width: 1.0;"/><line style="stroke: #383838; stroke-width: 1.5;" x1="255" x2="255" y1="421.0664" y2="496.0664"/><polygon fill="#383838" points="251,486.0664,255,496.0664,259,486.0664,255,490.0664" style="stroke: #383838; stroke-width: 1.0;"/><line style="stroke: #383838; stroke-width: 1.5;" x1="193" x2="220" y1="342.293" y2="342.293"/><polygon fill="#383838" points="210,338.293,220,342.293,210,346.293,214,342.293" style="stroke: #383838; stroke-width: 1.0;"/><line style="stroke: #383838; stroke-width: 1.5;" x1="318.75" x2="153.5" y1="283.293" y2="283.293"/><line style="stroke: #383838; stroke-width: 1.5;" x1="153.5" x2="153.5" y1="283.293" y2="330.293"/><polygon fill="#383838" points="149.5,320.293,153.5,330.293,157.5,320.293,153.5,324.293" style="stroke: #383838; stroke-width: 1.0;"/><line style="stroke: #383838; stroke-width: 1.5;" x1="290" x2="330" y1="342.293" y2="342.293"/><line style="stroke: #383838; stroke-width: 1.5;" x1="330" x2="330" y1="342.293" y2="496.0664"/><polygon fill="#383838" points="326,486.0664,330,496.0664,334,486.0664,330,490.0664" style="stroke: #383838; stroke-width: 1.0;"/><line style="stroke: #383838; stroke-width: 1.5;" x1="153.5" x2="330" y1="496.0664" y2="496.0664"/><line style="stroke: #383838; stroke-width: 1.5;" x1="290" x2="290" y1="686.4375" y2="710.8398"/><polygon fill="#383838" points="286,700.8398,290,710.8398,294,700.8398,290,704.8398" style="stroke: #383838; stroke-width: 1.0;"/><line style="stroke: #383838; stroke-width: 1.5;" x1="326.5" x2="384.5" y1="674.4375" y2="674.4375"/><polygon fill="#383838" points="380.5,717.8242,384.5,727.8242,388.5,717.8242,384.5,721.8242" style="stroke: #383838; stroke-width: 1.5;"/><line style="stroke: #383838; stroke-width: 1.5;" x1="384.5" x2="384.5" y1="674.4375" y2="776.8086"/><line style="stroke: #383838; stroke-width: 1.5;" x1="384.5" x2="302" y1="776.8086" y2="776.8086"/><polygon fill="#383838" points="312,772.8086,302,776.8086,312,780.8086,308,776.8086" style="stroke: #383838; stroke-width: 1.0;"/><line style="stroke: #383838; stroke-width: 1.5;" x1="290" x2="290" y1="744.8086" y2="764.8086"/><polygon fill="#383838" points="286,754.8086,290,764.8086,294,754.8086,290,758.8086" style="stroke: #383838; stroke-width: 1.0;"/><line style="stroke: #383838; stroke-width: 1.5;" x1="290" x2="290" y1="642.4375" y2="662.4375"/><polygon fill="#383838" points="286,652.4375,290,662.4375,294,652.4375,290,656.4375" style="stroke: #383838; stroke-width: 1.0;"/><line style="stroke: #383838; stroke-width: 1.5;" x1="93" x2="93" y1="575.6641" y2="608.4688"/><polygon fill="#383838" points="89,598.4688,93,608.4688,97,598.4688,93,602.4688" style="stroke: #383838; stroke-width: 1.0;"/><line style="stroke: #383838; stroke-width: 1.5;" x1="93" x2="93" y1="642.4375" y2="808.8086"/><polygon fill="#383838" points="89,798.8086,93,808.8086,97,798.8086,93,802.8086" style="stroke: #383838; stroke-width: 1.0;"/><line style="stroke: #383838; stroke-width: 1.5;" x1="290" x2="290" y1="575.6641" y2="608.4688"/><polygon fill="#383838" points="286,598.4688,290,608.4688,294,598.4688,290,602.4688" style="stroke: #383838; stroke-width: 1.0;"/><line style="stroke: #383838; stroke-width: 1.5;" x1="290" x2="290" y1="788.8086" y2="808.8086"/><polygon fill="#383838" points="286,798.8086,290,808.8086,294,798.8086,290,802.8086" style="stroke: #383838; stroke-width: 1.0;"/><line style="stroke: #383838; stroke-width: 1.5;" x1="129.5" x2="253.5" y1="563.6641" y2="563.6641"/><polygon fill="#383838" points="243.5,559.6641,253.5,563.6641,243.5,567.6641,247.5,563.6641" style="stroke: #383838; stroke-width: 1.0;"/><line style="stroke: #383838; stroke-width: 1.5;" x1="228" x2="228" y1="496.0664" y2="526.6641"/><line style="stroke: #383838; stroke-width: 1.5;" x1="228" x2="93" y1="526.6641" y2="526.6641"/><line style="stroke: #383838; stroke-width: 1.5;" x1="93" x2="93" y1="526.6641" y2="551.6641"/><polygon fill="#383838" points="89,541.6641,93,551.6641,97,541.6641,93,545.6641" style="stroke: #383838; stroke-width: 1.0;"/><line style="stroke: #383838; stroke-width: 1.5;" x1="326.5" x2="431.5" y1="563.6641" y2="563.6641"/><line style="stroke: #383838; stroke-width: 1.5;" x1="431.5" x2="431.5" y1="563.6641" y2="808.8086"/><polygon fill="#383838" points="427.5,798.8086,431.5,808.8086,435.5,798.8086,431.5,802.8086" style="stroke: #383838; stroke-width: 1.0;"/><line style="stroke: #383838; stroke-width: 1.5;" x1="93" x2="431.5" y1="808.8086" y2="808.8086"/><line style="stroke: #383838; stroke-width: 1.5;" x1="563.5" x2="563.5" y1="446.6641" y2="471.0664"/><polygon fill="#383838" points="559.5,461.0664,563.5,471.0664,567.5,461.0664,563.5,465.0664" style="stroke: #383838; stroke-width: 1.0;"/><line style="stroke: #383838; stroke-width: 1.5;" x1="604.5" x2="649.5" y1="434.6641" y2="434.6641"/><polygon fill="#383838" points="645.5,478.0508,649.5,488.0508,653.5,478.0508,649.5,482.0508" style="stroke: #383838; stroke-width: 1.5;"/><line style="stroke: #383838; stroke-width: 1.5;" x1="649.5" x2="649.5" y1="434.6641" y2="537.0352"/><line style="stroke: #383838; stroke-width: 1.5;" x1="649.5" x2="575.5" y1="537.0352" y2="537.0352"/><polygon fill="#383838" points="585.5,533.0352,575.5,537.0352,585.5,541.0352,581.5,537.0352" style="stroke: #383838; stroke-width: 1.0;"/><line style="stroke: #383838; stroke-width: 1.5;" x1="563.5" x2="563.5" y1="505.0352" y2="525.0352"/><polygon fill="#383838" points="559.5,515.0352,563.5,525.0352,567.5,515.0352,563.5,519.0352" style="stroke: #383838; stroke-width: 1.0;"/><line style="stroke: #383838; stroke-width: 1.5;" x1="563.5" x2="563.5" y1="387.6641" y2="422.6641"/><polygon fill="#383838" points="559.5,412.6641,563.5,422.6641,567.5,412.6641,563.5,416.6641" style="stroke: #383838; stroke-width: 1.0;"/><line style="stroke: #383838; stroke-width: 1.5;" x1="563.5" x2="563.5" y1="329.293" y2="353.6953"/><polygon fill="#383838" points="559.5,343.6953,563.5,353.6953,567.5,343.6953,563.5,347.6953" style="stroke: #383838; stroke-width: 1.0;"/><line style="stroke: #383838; stroke-width: 1.5;" x1="629" x2="671.5" y1="317.293" y2="317.293"/><polygon fill="#383838" points="667.5,443.5664,671.5,453.5664,675.5,443.5664,671.5,447.5664" style="stroke: #383838; stroke-width: 1.5;"/><line style="stroke: #383838; stroke-width: 1.5;" x1="671.5" x2="671.5" y1="317.293" y2="585.4375"/><line style="stroke: #383838; stroke-width: 1.5;" x1="671.5" x2="575.5" y1="585.4375" y2="585.4375"/><polygon fill="#383838" points="585.5,581.4375,575.5,585.4375,585.5,589.4375,581.5,585.4375" style="stroke: #383838; stroke-width: 1.0;"/><line style="stroke: #383838; stroke-width: 1.5;" x1="563.5" x2="563.5" y1="549.0352" y2="573.4375"/><polygon fill="#383838" points="559.5,563.4375,563.5,573.4375,567.5,563.4375,563.5,567.4375" style="stroke: #383838; stroke-width: 1.0;"/><line style="stroke: #383838; stroke-width: 1.5;" x1="472.75" x2="563.5" y1="283.293" y2="283.293"/><line style="stroke: #383838; stroke-width: 1.5;" x1="563.5" x2="563.5" y1="283.293" y2="305.293"/><polygon fill="#383838" points="559.5,295.293,563.5,305.293,567.5,295.293,563.5,299.293" style="stroke: #383838; stroke-width: 1.0;"/><line style="stroke: #383838; stroke-width: 1.5;" x1="228" x2="228" y1="808.8086" y2="826.8086"/><line style="stroke: #383838; stroke-width: 1.5;" x1="228" x2="383.75" y1="826.8086" y2="826.8086"/><polygon fill="#383838" points="373.75,822.8086,383.75,826.8086,373.75,830.8086,377.75,826.8086" style="stroke: #383838; stroke-width: 1.0;"/><line style="stroke: #383838; stroke-width: 1.5;" x1="563.5" x2="563.5" y1="597.4375" y2="826.8086"/><line style="stroke: #383838; stroke-width: 1.5;" x1="563.5" x2="407.75" y1="826.8086" y2="826.8086"/><polygon fill="#383838" points="417.75,822.8086,407.75,826.8086,417.75,830.8086,413.75,826.8086" style="stroke: #383838; stroke-width: 1.0;"/><line style="stroke: #383838; stroke-width: 1.5;" x1="395.75" x2="395.75" y1="251.293" y2="271.293"/><polygon fill="#383838" points="391.75,261.293,395.75,271.293,399.75,261.293,395.75,265.293" style="stroke: #383838; stroke-width: 1.0;"/><line style="stroke: #383838; stroke-width: 1.5;" x1="395.75" x2="395.75" y1="838.8086" y2="858.8086"/><polygon fill="#383838" points="391.75,848.8086,395.75,858.8086,399.75,848.8086,395.75,852.8086" style="stroke: #383838; stroke-width: 1.0;"/><line style="stroke: #383838; stroke-width: 1.5;" x1="134.25" x2="134.25" y1="936.7773" y2="969.582"/><polygon fill="#383838" points="130.25,959.582,134.25,969.582,138.25,959.582,134.25,963.582" style="stroke: #383838; stroke-width: 1.0;"/><line style="stroke: #383838; stroke-width: 1.5;" x1="134.25" x2="134.25" y1="1003.5508" y2="1023.5508"/><polygon fill="#383838" points="130.25,1013.5508,134.25,1023.5508,138.25,1013.5508,134.25,1017.5508" style="stroke: #383838; stroke-width: 1.0;"/><line style="stroke: #383838; stroke-width: 1.5;" x1="271.75" x2="271.75" y1="936.7773" y2="969.582"/><polygon fill="#383838" points="267.75,959.582,271.75,969.582,275.75,959.582,271.75,963.582" style="stroke: #383838; stroke-width: 1.0;"/><line style="stroke: #383838; stroke-width: 1.5;" x1="271.75" x2="271.75" y1="1003.5508" y2="1023.5508"/><polygon fill="#383838" points="267.75,1013.5508,271.75,1023.5508,275.75,1013.5508,271.75,1017.5508" style="stroke: #383838; stroke-width: 1.0;"/><line style="stroke: #383838; stroke-width: 1.5;" x1="408.25" x2="408.25" y1="936.7773" y2="969.582"/><polygon fill="#383838" points="404.25,959.582,408.25,969.582,412.25,959.582,408.25,963.582" style="stroke: #383838; stroke-width: 1.0;"/><line style="stroke: #383838; stroke-width: 1.5;" x1="408.25" x2="408.25" y1="1003.5508" y2="1023.5508"/><polygon fill="#383838" points="404.25,1013.5508,408.25,1023.5508,412.25,1013.5508,408.25,1017.5508" style="stroke: #383838; stroke-width: 1.0;"/><line style="stroke: #383838; stroke-width: 1.5;" x1="544.75" x2="544.75" y1="936.7773" y2="969.582"/><polygon fill="#383838" points="540.75,959.582,544.75,969.582,548.75,959.582,544.75,963.582" style="stroke: #383838; stroke-width: 1.0;"/><line style="stroke: #383838; stroke-width: 1.5;" x1="544.75" x2="544.75" y1="1003.5508" y2="1023.5508"/><polygon fill="#383838" points="540.75,1013.5508,544.75,1023.5508,548.75,1013.5508,544.75,1017.5508" style="stroke: #383838; stroke-width: 1.0;"/><line style="stroke: #383838; stroke-width: 1.5;" x1="176.75" x2="229.25" y1="924.7773" y2="924.7773"/><polygon fill="#383838" points="219.25,920.7773,229.25,924.7773,219.25,928.7773,223.25,924.7773" style="stroke: #383838; stroke-width: 1.0;"/><line style="stroke: #383838; stroke-width: 1.5;" x1="314.25" x2="368.25" y1="924.7773" y2="924.7773"/><polygon fill="#383838" points="358.25,920.7773,368.25,924.7773,358.25,928.7773,362.25,924.7773" style="stroke: #383838; stroke-width: 1.0;"/><line style="stroke: #383838; stroke-width: 1.5;" x1="448.25" x2="502.25" y1="924.7773" y2="924.7773"/><polygon fill="#383838" points="492.25,920.7773,502.25,924.7773,492.25,928.7773,496.25,924.7773" style="stroke: #383838; stroke-width: 1.0;"/><line style="stroke: #383838; stroke-width: 1.5;" x1="395.75" x2="395.75" y1="892.7773" y2="897.7773"/><line style="stroke: #383838; stroke-width: 1.5;" x1="395.75" x2="134.25" y1="897.7773" y2="897.7773"/><line style="stroke: #383838; stroke-width: 1.5;" x1="134.25" x2="134.25" y1="897.7773" y2="912.7773"/><polygon fill="#383838" points="130.25,902.7773,134.25,912.7773,138.25,902.7773,134.25,906.7773" style="stroke: #383838; stroke-width: 1.0;"/><line style="stroke: #383838; stroke-width: 1.5;" x1="587.25" x2="670.25" y1="924.7773" y2="924.7773"/><line style="stroke: #383838; stroke-width: 1.5;" x1="670.25" x2="670.25" y1="924.7773" y2="966.1797"/><polygon fill="#383838" points="666.25,956.1797,670.25,966.1797,674.25,956.1797,670.25,960.1797" style="stroke: #383838; stroke-width: 1.0;"/><line style="stroke: #383838; stroke-width: 1.5;" x1="670.25" x2="670.25" y1="1000.1484" y2="1023.5508"/><polygon fill="#383838" points="666.25,1013.5508,670.25,1023.5508,674.25,1013.5508,670.25,1017.5508" style="stroke: #383838; stroke-width: 1.0;"/><line style="stroke: #383838; stroke-width: 1.5;" x1="134.25" x2="670.25" y1="1023.5508" y2="1023.5508"/><line style="stroke: #383838; stroke-width: 1.5;" x1="395.75" x2="395.75" y1="1125.9219" y2="1160.9219"/><polygon fill="#383838" points="391.75,1150.9219,395.75,1160.9219,399.75,1150.9219,395.75,1154.9219" style="stroke: #383838; stroke-width: 1.0;"/><line style="stroke: #383838; stroke-width: 1.5;" x1="395.75" x2="395.75" y1="1067.5508" y2="1091.9531"/><polygon fill="#383838" points="391.75,1081.9531,395.75,1091.9531,399.75,1081.9531,395.75,1085.9531" style="stroke: #383838; stroke-width: 1.0;"/><line style="stroke: #383838; stroke-width: 1.5;" x1="448.75" x2="493.75" y1="1055.5508" y2="1055.5508"/><polygon fill="#383838" points="489.75,1133.4219,493.75,1143.4219,497.75,1133.4219,493.75,1137.4219" style="stroke: #383838; stroke-width: 1.5;"/><line style="stroke: #383838; stroke-width: 1.5;" x1="493.75" x2="493.75" y1="1055.5508" y2="1226.8906"/><line style="stroke: #383838; stroke-width: 1.5;" x1="493.75" x2="407.75" y1="1226.8906" y2="1226.8906"/><polygon fill="#383838" points="417.75,1222.8906,407.75,1226.8906,417.75,1230.8906,413.75,1226.8906" style="stroke: #383838; stroke-width: 1.0;"/><line style="stroke: #383838; stroke-width: 1.5;" x1="395.75" x2="395.75" y1="1194.8906" y2="1214.8906"/><polygon fill="#383838" points="391.75,1204.8906,395.75,1214.8906,399.75,1204.8906,395.75,1208.8906" style="stroke: #383838; stroke-width: 1.0;"/><line style="stroke: #383838; stroke-width: 1.5;" x1="395.75" x2="395.75" y1="1023.5508" y2="1043.5508"/><polygon fill="#383838" points="391.75,1033.5508,395.75,1043.5508,399.75,1033.5508,395.75,1037.5508" style="stroke: #383838; stroke-width: 1.0;"/><line style="stroke: #383838; stroke-width: 1.5;" x1="395.75" x2="395.75" y1="1238.8906" y2="1258.8906"/><polygon fill="#383838" points="391.75,1248.8906,395.75,1258.8906,399.75,1248.8906,395.75,1252.8906" style="stroke: #383838; stroke-width: 1.0;"/><line style="stroke: #383838; stroke-width: 1.5;" x1="395.75" x2="395.75" y1="1292.8594" y2="1312.8594"/><polygon fill="#383838" points="391.75,1302.8594,395.75,1312.8594,399.75,1302.8594,395.75,1306.8594" style="stroke: #383838; stroke-width: 1.0;"/><!--
@startuml
title Shelfmark

skinparam monochrome true

start
:field_dk5 = 652;
if (exists "652 *m || *o" ) then (no)
    :field_dk5 = 654;
endif



if ( Neither *m nor *o == "sk") then (yes : Non-fiction = DK5)
    if (exists *m" ) then (yes)
        :prefix .= *m;
    elseif (exists *o ) then (yes)
        :prefix .= *o;
    else (no)
    endif
    
    if ( exists *b ) then (yes)
        :prefix .= " " . *b description;
    elseif ( exists *a ) then (yes)
            :prefix .= *a description;
        if ( exists *h ) then (yes)
            :prefix .= ", " . *h description;
        endif
    endif

else (no : Fiction = sk)
    if ( exists "039a "Music" ) then (yes)
        :prefix .= " " . Expanded value;
        if (exists 039b ) then (yes)
            :prefix .= Expanded value;
        endif
    else (no: Prefix = "")
        note right: Prefix is empty\nand "sk" ignored!
    endif
endif

:prefix done. Builing shelfmark;

if ( exists 100a ) then (yes)
    :shelfmark = 100a ;
elseif ( exists 110a ) then (yes)
    :shelfmark = 110a ;
elseif ( exists 239t) then (yes)
    :shelfmark = 239t ;
elseif ( exists 245a ) then (yes)
    :shelfmark = 245a ;
else (nothing)
  :No shelfmark;
endif


if (exists shelfmark ) then (yes)
    :Alphabetise shelfmark "<U+00A4>";
    :Uppercase first on shelfmark;
endif

:holding = prefix . shelf_mark;

stop

@enduml

PlantUML version 1.2019.05(Sat Apr 20 16:45:36 GMT 2019)
(GPL source distribution)
Java Runtime: Java(TM) SE Runtime Environment
JVM: Java HotSpot(TM) 64-Bit Server VM
Java Version: 1.8.0_202-b08
Operating System: Linux
OS Version: 5.0.0-1023-azure
Default Encoding: ANSI_X3.4-1968
Language: en
Country: US
--></g></svg>