<?xml version="1.0" encoding="UTF-8" standalone="no"?><svg xmlns="http://www.w3.org/2000/svg" xmlns:xlink="http://www.w3.org/1999/xlink" contentScriptType="application/ecmascript" contentStyleType="text/css" height="810px" preserveAspectRatio="none" style="width:447px;height:810px;" version="1.1" viewBox="0 0 447 810" width="447px" zoomAndPan="magnify"><defs><filter height="300%" id="fy62e8xceqy0x" width="300%" x="-1" y="-1"><feGaussianBlur result="blurOut" stdDeviation="2.0"/><feColorMatrix in="blurOut" result="blurOut2" type="matrix" values="0 0 0 0 0 0 0 0 0 0 0 0 0 0 0 0 0 0 .4 0"/><feOffset dx="4.0" dy="4.0" in="blurOut2" result="blurOut3"/><feBlend in="SourceGraphic" in2="blurOut3" mode="normal"/></filter></defs><g><text fill="#000000" font-family="sans-serif" font-size="18" lengthAdjust="spacingAndGlyphs" textLength="84" x="180.5" y="26.708">Shelfmark</text><ellipse cx="228.5" cy="40.9531" fill="#000000" filter="url(#fy62e8xceqy0x)" rx="10" ry="10" style="stroke: none; stroke-width: 1.0;"/><rect fill="#F8F8F8" filter="url(#fy62e8xceqy0x)" height="33.9688" rx="12.5" ry="12.5" style="stroke: #383838; stroke-width: 1.5;" width="102" x="177.5" y="70.9531"/><text fill="#000000" font-family="sans-serif" font-size="12" lengthAdjust="spacingAndGlyphs" textLength="82" x="187.5" y="92.0918">field_dk5 = 652</text><rect fill="#F8F8F8" filter="url(#fy62e8xceqy0x)" height="33.9688" rx="12.5" ry="12.5" style="stroke: #383838; stroke-width: 1.5;" width="102" x="177.5" y="173.3242"/><text fill="#000000" font-family="sans-serif" font-size="12" lengthAdjust="spacingAndGlyphs" textLength="82" x="187.5" y="194.4629">field_dk5 = 654</text><polygon fill="#F8F8F8" filter="url(#fy62e8xceqy0x)" points="174,124.9219,283,124.9219,295,136.9219,283,148.9219,174,148.9219,162,136.9219,174,124.9219" style="stroke: #383838; stroke-width: 1.5;"/><text fill="#000000" font-family="sans-serif" font-size="11" lengthAdjust="spacingAndGlyphs" textLength="12" x="232.5" y="159.1323">no</text><text fill="#000000" font-family="sans-serif" font-size="11" lengthAdjust="spacingAndGlyphs" textLength="106" x="174" y="140.73">exists "652 *m || *o"</text><polygon fill="#F8F8F8" filter="url(#fy62e8xceqy0x)" points="228.5,227.293,240.5,239.293,228.5,251.293,216.5,239.293,228.5,227.293" style="stroke: #383838; stroke-width: 1.5;"/><polygon fill="#F8F8F8" filter="url(#fy62e8xceqy0x)" points="126,327.0034,181,327.0034,193,339.0034,181,351.0034,126,351.0034,114,339.0034,126,327.0034" style="stroke: #383838; stroke-width: 1.5;"/><text fill="#000000" font-family="sans-serif" font-size="11" lengthAdjust="spacingAndGlyphs" textLength="17" x="157.5" y="361.2139">yes</text><text fill="#000000" font-family="sans-serif" font-size="11" lengthAdjust="spacingAndGlyphs" textLength="52" x="126" y="342.8115">exists *m"</text><rect fill="#F8F8F8" filter="url(#fy62e8xceqy0x)" height="33.9688" rx="12.5" ry="12.5" style="stroke: #383838; stroke-width: 1.5;" width="84" x="111.5" y="382.7139"/><text fill="#000000" font-family="sans-serif" font-size="12" lengthAdjust="spacingAndGlyphs" textLength="64" x="121.5" y="403.8525">prefix .= *m</text><polygon fill="#F8F8F8" filter="url(#fy62e8xceqy0x)" points="232.5,327.0034,278.5,327.0034,290.5,339.0034,278.5,351.0034,232.5,351.0034,220.5,339.0034,232.5,327.0034" style="stroke: #383838; stroke-width: 1.5;"/><text fill="#000000" font-family="sans-serif" font-size="11" lengthAdjust="spacingAndGlyphs" textLength="17" x="259.5" y="361.2139">yes</text><text fill="#000000" font-family="sans-serif" font-size="11" lengthAdjust="spacingAndGlyphs" textLength="43" x="232.5" y="342.8115">exists *o</text><text fill="#000000" font-family="sans-serif" font-size="11" lengthAdjust="spacingAndGlyphs" textLength="12" x="290.5" y="336.4092">no</text><rect fill="#F8F8F8" filter="url(#fy62e8xceqy0x)" height="33.9688" rx="12.5" ry="12.5" style="stroke: #383838; stroke-width: 1.5;" width="80" x="215.5" y="382.7139"/><text fill="#000000" font-family="sans-serif" font-size="12" lengthAdjust="spacingAndGlyphs" textLength="60" x="225.5" y="403.8525">prefix .= *o</text><polygon fill="#F8F8F8" filter="url(#fy62e8xceqy0x)" points="68.5,456.6826,117.5,456.6826,129.5,468.6826,117.5,480.6826,68.5,480.6826,56.5,468.6826,68.5,456.6826" style="stroke: #383838; stroke-width: 1.5;"/><text fill="#000000" font-family="sans-serif" font-size="11" lengthAdjust="spacingAndGlyphs" textLength="17" x="97" y="490.8931">yes</text><text fill="#000000" font-family="sans-serif" font-size="11" lengthAdjust="spacingAndGlyphs" textLength="43" x="71.5" y="472.4907">exists *b</text><rect fill="#F8F8F8" filter="url(#fy62e8xceqy0x)" height="33.9688" rx="12.5" ry="12.5" style="stroke: #383838; stroke-width: 1.5;" width="166" x="10" y="513.4873"/><text fill="#000000" font-family="sans-serif" font-size="12" lengthAdjust="spacingAndGlyphs" textLength="146" x="20" y="534.626">prefix .= " " . *b description</text><polygon fill="#F8F8F8" filter="url(#fy62e8xceqy0x)" points="266,456.6826,315,456.6826,327,468.6826,315,480.6826,266,480.6826,254,468.6826,266,456.6826" style="stroke: #383838; stroke-width: 1.5;"/><text fill="#000000" font-family="sans-serif" font-size="11" lengthAdjust="spacingAndGlyphs" textLength="17" x="294.5" y="490.8931">yes</text><text fill="#000000" font-family="sans-serif" font-size="11" lengthAdjust="spacingAndGlyphs" textLength="43" x="269" y="472.4907">exists *a</text><rect fill="#F8F8F8" filter="url(#fy62e8xceqy0x)" height="33.9688" rx="12.5" ry="12.5" style="stroke: #383838; stroke-width: 1.5;" width="144" x="218.5" y="513.4873"/><text fill="#000000" font-family="sans-serif" font-size="12" lengthAdjust="spacingAndGlyphs" textLength="124" x="228.5" y="534.626">prefix .= *a description</text><rect fill="#F8F8F8" filter="url(#fy62e8xceqy0x)" height="33.9688" rx="12.5" ry="12.5" style="stroke: #383838; stroke-width: 1.5;" width="169" x="206" y="615.8584"/><text fill="#000000" font-family="sans-serif" font-size="12" lengthAdjust="spacingAndGlyphs" textLength="149" x="216" y="636.9971">prefix .= ", " . *h description</text><polygon fill="#F8F8F8" filter="url(#fy62e8xceqy0x)" points="266,567.4561,315,567.4561,327,579.4561,315,591.4561,266,591.4561,254,579.4561,266,567.4561" style="stroke: #383838; stroke-width: 1.5;"/><text fill="#000000" font-family="sans-serif" font-size="11" lengthAdjust="spacingAndGlyphs" textLength="17" x="294.5" y="601.6665">yes</text><text fill="#000000" font-family="sans-serif" font-size="11" lengthAdjust="spacingAndGlyphs" textLength="43" x="269" y="583.2642">exists *h</text><polygon fill="#F8F8F8" filter="url(#fy62e8xceqy0x)" points="290.5,669.8271,302.5,681.8271,290.5,693.8271,278.5,681.8271,290.5,669.8271" style="stroke: #383838; stroke-width: 1.5;"/><polygon fill="#F8F8F8" filter="url(#fy62e8xceqy0x)" points="165.5,271.293,291.5,271.293,303.5,283.293,291.5,295.293,165.5,295.293,153.5,283.293,165.5,271.293" style="stroke: #383838; stroke-width: 1.5;"/><text fill="#000000" font-family="sans-serif" font-size="11" lengthAdjust="spacingAndGlyphs" textLength="112" x="232.5" y="305.5034">yes : Non-fiction = DK5</text><text fill="#000000" font-family="sans-serif" font-size="11" lengthAdjust="spacingAndGlyphs" textLength="123" x="168.5" y="287.1011">Neither *m nor *o == 'sk'</text><polygon fill="#F8F8F8" filter="url(#fy62e8xceqy0x)" points="228.5,733.8271,240.5,745.8271,228.5,757.8271,216.5,745.8271,228.5,733.8271" style="stroke: #383838; stroke-width: 1.5;"/><ellipse cx="228.5" cy="788.8271" fill="#FFFFFF" filter="url(#fy62e8xceqy0x)" rx="11" ry="11" style="stroke: #000000; stroke-width: 1.0;"/><ellipse cx="228.5" cy="788.8271" fill="#000000" rx="6" ry="6" style="stroke: #7F7F7F; stroke-width: 1.0;"/><line style="stroke: #383838; stroke-width: 1.5;" x1="228.5" x2="228.5" y1="50.9531" y2="70.9531"/><polygon fill="#383838" points="224.5,60.9531,228.5,70.9531,232.5,60.9531,228.5,64.9531" style="stroke: #383838; stroke-width: 1.0;"/><line style="stroke: #383838; stroke-width: 1.5;" x1="228.5" x2="228.5" y1="148.9219" y2="173.3242"/><polygon fill="#383838" points="224.5,163.3242,228.5,173.3242,232.5,163.3242,228.5,167.3242" style="stroke: #383838; stroke-width: 1.0;"/><line style="stroke: #383838; stroke-width: 1.5;" x1="295" x2="307" y1="136.9219" y2="136.9219"/><polygon fill="#383838" points="303,180.3086,307,190.3086,311,180.3086,307,184.3086" style="stroke: #383838; stroke-width: 1.5;"/><line style="stroke: #383838; stroke-width: 1.5;" x1="307" x2="307" y1="136.9219" y2="239.293"/><line style="stroke: #383838; stroke-width: 1.5;" x1="307" x2="240.5" y1="239.293" y2="239.293"/><polygon fill="#383838" points="250.5,235.293,240.5,239.293,250.5,243.293,246.5,239.293" style="stroke: #383838; stroke-width: 1.0;"/><line style="stroke: #383838; stroke-width: 1.5;" x1="228.5" x2="228.5" y1="207.293" y2="227.293"/><polygon fill="#383838" points="224.5,217.293,228.5,227.293,232.5,217.293,228.5,221.293" style="stroke: #383838; stroke-width: 1.0;"/><line style="stroke: #383838; stroke-width: 1.5;" x1="228.5" x2="228.5" y1="104.9219" y2="124.9219"/><polygon fill="#383838" points="224.5,114.9219,228.5,124.9219,232.5,114.9219,228.5,118.9219" style="stroke: #383838; stroke-width: 1.0;"/><line style="stroke: #383838; stroke-width: 1.5;" x1="153.5" x2="153.5" y1="351.0034" y2="382.7139"/><polygon fill="#383838" points="149.5,372.7139,153.5,382.7139,157.5,372.7139,153.5,376.7139" style="stroke: #383838; stroke-width: 1.0;"/><line style="stroke: #383838; stroke-width: 1.5;" x1="153.5" x2="153.5" y1="416.6826" y2="436.6826"/><polygon fill="#383838" points="149.5,426.6826,153.5,436.6826,157.5,426.6826,153.5,430.6826" style="stroke: #383838; stroke-width: 1.0;"/><line style="stroke: #383838; stroke-width: 1.5;" x1="255.5" x2="255.5" y1="351.0034" y2="382.7139"/><polygon fill="#383838" points="251.5,372.7139,255.5,382.7139,259.5,372.7139,255.5,376.7139" style="stroke: #383838; stroke-width: 1.0;"/><line style="stroke: #383838; stroke-width: 1.5;" x1="255.5" x2="255.5" y1="416.6826" y2="436.6826"/><polygon fill="#383838" points="251.5,426.6826,255.5,436.6826,259.5,426.6826,255.5,430.6826" style="stroke: #383838; stroke-width: 1.0;"/><line style="stroke: #383838; stroke-width: 1.5;" x1="193" x2="220.5" y1="339.0034" y2="339.0034"/><polygon fill="#383838" points="210.5,335.0034,220.5,339.0034,210.5,343.0034,214.5,339.0034" style="stroke: #383838; stroke-width: 1.0;"/><line style="stroke: #383838; stroke-width: 1.5;" x1="228.5" x2="228.5" y1="295.293" y2="312.0034"/><line style="stroke: #383838; stroke-width: 1.5;" x1="228.5" x2="153.5" y1="312.0034" y2="312.0034"/><line style="stroke: #383838; stroke-width: 1.5;" x1="153.5" x2="153.5" y1="312.0034" y2="327.0034"/><polygon fill="#383838" points="149.5,317.0034,153.5,327.0034,157.5,317.0034,153.5,321.0034" style="stroke: #383838; stroke-width: 1.0;"/><line style="stroke: #383838; stroke-width: 1.5;" x1="290.5" x2="330.5" y1="339.0034" y2="339.0034"/><line style="stroke: #383838; stroke-width: 1.5;" x1="330.5" x2="330.5" y1="339.0034" y2="436.6826"/><polygon fill="#383838" points="326.5,426.6826,330.5,436.6826,334.5,426.6826,330.5,430.6826" style="stroke: #383838; stroke-width: 1.0;"/><line style="stroke: #383838; stroke-width: 1.5;" x1="153.5" x2="330.5" y1="436.6826" y2="436.6826"/><line style="stroke: #383838; stroke-width: 1.5;" x1="290.5" x2="290.5" y1="591.4561" y2="615.8584"/><polygon fill="#383838" points="286.5,605.8584,290.5,615.8584,294.5,605.8584,290.5,609.8584" style="stroke: #383838; stroke-width: 1.0;"/><line style="stroke: #383838; stroke-width: 1.5;" x1="327" x2="385" y1="579.4561" y2="579.4561"/><polygon fill="#383838" points="381,622.8428,385,632.8428,389,622.8428,385,626.8428" style="stroke: #383838; stroke-width: 1.5;"/><line style="stroke: #383838; stroke-width: 1.5;" x1="385" x2="385" y1="579.4561" y2="681.8271"/><line style="stroke: #383838; stroke-width: 1.5;" x1="385" x2="302.5" y1="681.8271" y2="681.8271"/><polygon fill="#383838" points="312.5,677.8271,302.5,681.8271,312.5,685.8271,308.5,681.8271" style="stroke: #383838; stroke-width: 1.0;"/><line style="stroke: #383838; stroke-width: 1.5;" x1="290.5" x2="290.5" y1="649.8271" y2="669.8271"/><polygon fill="#383838" points="286.5,659.8271,290.5,669.8271,294.5,659.8271,290.5,663.8271" style="stroke: #383838; stroke-width: 1.0;"/><line style="stroke: #383838; stroke-width: 1.5;" x1="290.5" x2="290.5" y1="547.4561" y2="567.4561"/><polygon fill="#383838" points="286.5,557.4561,290.5,567.4561,294.5,557.4561,290.5,561.4561" style="stroke: #383838; stroke-width: 1.0;"/><line style="stroke: #383838; stroke-width: 1.5;" x1="93" x2="93" y1="480.6826" y2="513.4873"/><polygon fill="#383838" points="89,503.4873,93,513.4873,97,503.4873,93,507.4873" style="stroke: #383838; stroke-width: 1.0;"/><line style="stroke: #383838; stroke-width: 1.5;" x1="93" x2="93" y1="547.4561" y2="713.8271"/><polygon fill="#383838" points="89,703.8271,93,713.8271,97,703.8271,93,707.8271" style="stroke: #383838; stroke-width: 1.0;"/><line style="stroke: #383838; stroke-width: 1.5;" x1="290.5" x2="290.5" y1="480.6826" y2="513.4873"/><polygon fill="#383838" points="286.5,503.4873,290.5,513.4873,294.5,503.4873,290.5,507.4873" style="stroke: #383838; stroke-width: 1.0;"/><line style="stroke: #383838; stroke-width: 1.5;" x1="290.5" x2="290.5" y1="693.8271" y2="713.8271"/><polygon fill="#383838" points="286.5,703.8271,290.5,713.8271,294.5,703.8271,290.5,707.8271" style="stroke: #383838; stroke-width: 1.0;"/><line style="stroke: #383838; stroke-width: 1.5;" x1="129.5" x2="254" y1="468.6826" y2="468.6826"/><polygon fill="#383838" points="244,464.6826,254,468.6826,244,472.6826,248,468.6826" style="stroke: #383838; stroke-width: 1.0;"/><line style="stroke: #383838; stroke-width: 1.5;" x1="228.5" x2="228.5" y1="436.6826" y2="441.6826"/><line style="stroke: #383838; stroke-width: 1.5;" x1="228.5" x2="93" y1="441.6826" y2="441.6826"/><line style="stroke: #383838; stroke-width: 1.5;" x1="93" x2="93" y1="441.6826" y2="456.6826"/><polygon fill="#383838" points="89,446.6826,93,456.6826,97,446.6826,93,450.6826" style="stroke: #383838; stroke-width: 1.0;"/><line style="stroke: #383838; stroke-width: 1.5;" x1="327" x2="403" y1="468.6826" y2="468.6826"/><line style="stroke: #383838; stroke-width: 1.5;" x1="403" x2="403" y1="468.6826" y2="713.8271"/><polygon fill="#383838" points="399,703.8271,403,713.8271,407,703.8271,403,707.8271" style="stroke: #383838; stroke-width: 1.0;"/><line style="stroke: #383838; stroke-width: 1.5;" x1="93" x2="403" y1="713.8271" y2="713.8271"/><line style="stroke: #383838; stroke-width: 1.5;" x1="303.5" x2="421" y1="283.293" y2="283.293"/><polygon fill="#383838" points="417,487.0693,421,497.0693,425,487.0693,421,491.0693" style="stroke: #383838; stroke-width: 1.5;"/><line style="stroke: #383838; stroke-width: 1.5;" x1="421" x2="421" y1="283.293" y2="745.8271"/><line style="stroke: #383838; stroke-width: 1.5;" x1="421" x2="240.5" y1="745.8271" y2="745.8271"/><polygon fill="#383838" points="250.5,741.8271,240.5,745.8271,250.5,749.8271,246.5,745.8271" style="stroke: #383838; stroke-width: 1.0;"/><line style="stroke: #383838; stroke-width: 1.5;" x1="228.5" x2="228.5" y1="713.8271" y2="733.8271"/><polygon fill="#383838" points="224.5,723.8271,228.5,733.8271,232.5,723.8271,228.5,727.8271" style="stroke: #383838; stroke-width: 1.0;"/><line style="stroke: #383838; stroke-width: 1.5;" x1="228.5" x2="228.5" y1="251.293" y2="271.293"/><polygon fill="#383838" points="224.5,261.293,228.5,271.293,232.5,261.293,228.5,265.293" style="stroke: #383838; stroke-width: 1.0;"/><line style="stroke: #383838; stroke-width: 1.5;" x1="228.5" x2="228.5" y1="757.8271" y2="777.8271"/><polygon fill="#383838" points="224.5,767.8271,228.5,777.8271,232.5,767.8271,228.5,771.8271" style="stroke: #383838; stroke-width: 1.0;"/><!--
@startuml
title Shelfmark

skinparam monochrome true

start
:field_dk5 = 652;
if (exists "652 *m || *o" ) then (no)
    :field_dk5 = 654;
endif



if ( Neither *m nor *o == 'sk') then (yes : Non-fiction = DK5)
    if (exists *m" ) then (yes)
        :prefix .= *m;
    elseif (exists *o ) then (yes)
        :prefix .= *o;
    else (no)
    endif
    if ( exists *b ) then (yes)
        :prefix .= " " . *b description;
    elseif ( exists *a ) then (yes)
            :prefix .= *a description;
        if ( exists *h ) then (yes)
            :prefix .= ", " . *h description;
        endif
    endif

endif

stop
@enduml

PlantUML version 1.2019.05(Sat Apr 20 16:45:36 GMT 2019)
(GPL source distribution)
Java Runtime: Java(TM) SE Runtime Environment
JVM: Java HotSpot(TM) 64-Bit Server VM
Java Version: 1.8.0_202-b08
Operating System: Linux
OS Version: 5.0.0-1023-azure
Default Encoding: ANSI_X3.4-1968
Language: en
Country: US
--></g></svg>