<?xml version="1.0" encoding="UTF-8" standalone="no"?><svg xmlns="http://www.w3.org/2000/svg" xmlns:xlink="http://www.w3.org/1999/xlink" contentScriptType="application/ecmascript" contentStyleType="text/css" height="609px" preserveAspectRatio="none" style="width:520px;height:609px;" version="1.1" viewBox="0 0 520 609" width="520px" zoomAndPan="magnify"><defs><filter height="300%" id="f1nwlx0ebx4omk" width="300%" x="-1" y="-1"><feGaussianBlur result="blurOut" stdDeviation="2.0"/><feColorMatrix in="blurOut" result="blurOut2" type="matrix" values="0 0 0 0 0 0 0 0 0 0 0 0 0 0 0 0 0 0 .4 0"/><feOffset dx="4.0" dy="4.0" in="blurOut2" result="blurOut3"/><feBlend in="SourceGraphic" in2="blurOut3" mode="normal"/></filter></defs><g><text fill="#000000" font-family="sans-serif" font-size="14" font-weight="bold" lengthAdjust="spacingAndGlyphs" textLength="328" x="95.25" y="22.9951">Patron adds query to "Follow Searches service"</text><line style="stroke: #383838; stroke-width: 1.0; stroke-dasharray: 5.0,5.0;" x1="31" x2="31" y1="116.5938" y2="522.5859"/><line style="stroke: #383838; stroke-width: 1.0; stroke-dasharray: 5.0,5.0;" x1="189.5" x2="189.5" y1="116.5938" y2="522.5859"/><line style="stroke: #383838; stroke-width: 1.0; stroke-dasharray: 5.0,5.0;" x1="359.5" x2="359.5" y1="116.5938" y2="522.5859"/><text fill="#000000" font-family="sans-serif" font-size="14" lengthAdjust="spacingAndGlyphs" textLength="41" x="8" y="113.292">Patron</text><ellipse cx="31.5" cy="43.2969" fill="#F8F8F8" filter="url(#f1nwlx0ebx4omk)" rx="8" ry="8" style="stroke: #383838; stroke-width: 2.0;"/><path d="M31.5,51.2969 L31.5,78.2969 M18.5,59.2969 L44.5,59.2969 M31.5,78.2969 L18.5,93.2969 M31.5,78.2969 L44.5,93.2969 " fill="none" filter="url(#f1nwlx0ebx4omk)" style="stroke: #383838; stroke-width: 2.0;"/><text fill="#000000" font-family="sans-serif" font-size="14" lengthAdjust="spacingAndGlyphs" textLength="41" x="8" y="534.5811">Patron</text><ellipse cx="31.5" cy="547.8828" fill="#F8F8F8" filter="url(#f1nwlx0ebx4omk)" rx="8" ry="8" style="stroke: #383838; stroke-width: 2.0;"/><path d="M31.5,555.8828 L31.5,582.8828 M18.5,563.8828 L44.5,563.8828 M31.5,582.8828 L18.5,597.8828 M31.5,582.8828 L44.5,597.8828 " fill="none" filter="url(#f1nwlx0ebx4omk)" style="stroke: #383838; stroke-width: 2.0;"/><text fill="#000000" font-family="sans-serif" font-size="14" lengthAdjust="spacingAndGlyphs" textLength="60" x="156.5" y="113.292">DDB CMS</text><path d="M169,72.2969 L169,96.2969 M169,84.2969 L186,84.2969 " fill="none" filter="url(#f1nwlx0ebx4omk)" style="stroke: #383838; stroke-width: 2.0;"/><ellipse cx="198" cy="84.2969" fill="#F8F8F8" filter="url(#f1nwlx0ebx4omk)" rx="12" ry="12" style="stroke: #383838; stroke-width: 2.0;"/><text fill="#000000" font-family="sans-serif" font-size="14" lengthAdjust="spacingAndGlyphs" textLength="60" x="156.5" y="534.5811">DDB CMS</text><path d="M169,541.8828 L169,565.8828 M169,553.8828 L186,553.8828 " fill="none" filter="url(#f1nwlx0ebx4omk)" style="stroke: #383838; stroke-width: 2.0;"/><ellipse cx="198" cy="553.8828" fill="#F8F8F8" filter="url(#f1nwlx0ebx4omk)" rx="12" ry="12" style="stroke: #383838; stroke-width: 2.0;"/><text fill="#000000" font-family="sans-serif" font-size="14" lengthAdjust="spacingAndGlyphs" textLength="152" x="280.5" y="113.292">Follow Searches service</text><ellipse cx="359.5" cy="84.2969" fill="#F8F8F8" filter="url(#f1nwlx0ebx4omk)" rx="12" ry="12" style="stroke: #383838; stroke-width: 2.0;"/><polygon fill="#383838" points="355.5,72.2969,361.5,67.2969,359.5,72.2969,361.5,77.2969,355.5,72.2969" style="stroke: #383838; stroke-width: 1.0;"/><text fill="#000000" font-family="sans-serif" font-size="14" lengthAdjust="spacingAndGlyphs" textLength="152" x="280.5" y="534.5811">Follow Searches service</text><ellipse cx="359.5" cy="553.8828" fill="#F8F8F8" filter="url(#f1nwlx0ebx4omk)" rx="12" ry="12" style="stroke: #383838; stroke-width: 2.0;"/><polygon fill="#383838" points="355.5,541.8828,361.5,536.8828,359.5,541.8828,361.5,546.8828,355.5,541.8828" style="stroke: #383838; stroke-width: 1.0;"/><path d="M36,131.5938 L36,171.5938 L166,171.5938 L166,141.5938 L156,131.5938 L36,131.5938 " fill="#ECECEC" filter="url(#f1nwlx0ebx4omk)" style="stroke: #383838; stroke-width: 1.0;"/><path d="M156,131.5938 L156,141.5938 L166,141.5938 L156,131.5938 " fill="#ECECEC" style="stroke: #383838; stroke-width: 1.0;"/><text fill="#000000" font-family="sans-serif" font-size="13" lengthAdjust="spacingAndGlyphs" textLength="109" x="42" y="148.6606">Patron is identified</text><text fill="#000000" font-family="sans-serif" font-size="13" lengthAdjust="spacingAndGlyphs" textLength="49" x="42" y="163.7935">by GUID</text><path d="M53,185.8594 L53,225.8594 L180,225.8594 L180,195.8594 L170,185.8594 L53,185.8594 " fill="#ECECEC" filter="url(#f1nwlx0ebx4omk)" style="stroke: #383838; stroke-width: 1.0;"/><path d="M170,185.8594 L170,195.8594 L180,195.8594 L170,185.8594 " fill="#ECECEC" style="stroke: #383838; stroke-width: 1.0;"/><text fill="#000000" font-family="sans-serif" font-size="13" lengthAdjust="spacingAndGlyphs" textLength="106" x="59" y="202.9263">Prerequisite Client</text><text fill="#000000" font-family="sans-serif" font-size="13" lengthAdjust="spacingAndGlyphs" textLength="96" x="59" y="218.0591">is authenticated.</text><polygon fill="#383838" points="177.5,252.2578,187.5,256.2578,177.5,260.2578,181.5,256.2578" style="stroke: #383838; stroke-width: 1.0;"/><line style="stroke: #383838; stroke-width: 1.0;" x1="31.5" x2="183.5" y1="256.2578" y2="256.2578"/><text fill="#000000" font-family="sans-serif" font-size="13" lengthAdjust="spacingAndGlyphs" textLength="134" x="38.5" y="251.1919">Click "Save query" icon.</text><polygon fill="#383838" points="42.5,311.6563,32.5,315.6563,42.5,319.6563,38.5,315.6563" style="stroke: #383838; stroke-width: 1.0;"/><line style="stroke: #383838; stroke-width: 1.0;" x1="36.5" x2="188.5" y1="315.6563" y2="315.6563"/><text fill="#000000" font-family="sans-serif" font-size="13" lengthAdjust="spacingAndGlyphs" textLength="132" x="48.5" y="280.3247">Display modal window</text><text fill="#000000" font-family="sans-serif" font-size="13" lengthAdjust="spacingAndGlyphs" textLength="114" x="48.5" y="295.4575">and prompt user to</text><text fill="#000000" font-family="sans-serif" font-size="13" lengthAdjust="spacingAndGlyphs" textLength="110" x="51.5" y="310.5903">enter title of query.</text><polygon fill="#383838" points="177.5,355.9219,187.5,359.9219,177.5,363.9219,181.5,359.9219" style="stroke: #383838; stroke-width: 1.0;"/><line style="stroke: #383838; stroke-width: 1.0;" x1="31.5" x2="183.5" y1="359.9219" y2="359.9219"/><text fill="#000000" font-family="sans-serif" font-size="13" lengthAdjust="spacingAndGlyphs" textLength="107" x="38.5" y="339.7231">Enter title of query</text><text fill="#000000" font-family="sans-serif" font-size="13" lengthAdjust="spacingAndGlyphs" textLength="134" x="38.5" y="354.856">and click [Save] button.</text><polygon fill="#383838" points="347.5,400.1875,357.5,404.1875,347.5,408.1875,351.5,404.1875" style="stroke: #383838; stroke-width: 1.0;"/><line style="stroke: #383838; stroke-width: 1.0;" x1="189.5" x2="353.5" y1="404.1875" y2="404.1875"/><text fill="#000000" font-family="sans-serif" font-size="13" lengthAdjust="spacingAndGlyphs" textLength="62" x="196.5" y="383.9888">Post query</text><text fill="#000000" font-family="sans-serif" font-size="13" lengthAdjust="spacingAndGlyphs" textLength="102" x="199.5" y="399.1216">and title of query.</text><line style="stroke: #383838; stroke-width: 1.0;" x1="359.5" x2="401.5" y1="433.3203" y2="433.3203"/><line style="stroke: #383838; stroke-width: 1.0;" x1="401.5" x2="401.5" y1="433.3203" y2="446.3203"/><line style="stroke: #383838; stroke-width: 1.0;" x1="360.5" x2="401.5" y1="446.3203" y2="446.3203"/><polygon fill="#383838" points="370.5,442.3203,360.5,446.3203,370.5,450.3203,366.5,446.3203" style="stroke: #383838; stroke-width: 1.0;"/><text fill="#000000" font-family="sans-serif" font-size="13" lengthAdjust="spacingAndGlyphs" textLength="142" x="366.5" y="428.2544">Set dateLastSeen = NOW</text><polygon fill="#383838" points="200.5,471.4531,190.5,475.4531,200.5,479.4531,196.5,475.4531" style="stroke: #383838; stroke-width: 1.0;"/><line style="stroke: #383838; stroke-width: 1.0; stroke-dasharray: 2.0,2.0;" x1="194.5" x2="358.5" y1="475.4531" y2="475.4531"/><text fill="#000000" font-family="sans-serif" font-size="13" lengthAdjust="spacingAndGlyphs" textLength="40" x="206.5" y="470.3872">Return</text><text fill="#000000" font-family="sans-serif" font-size="13" font-weight="bold" lengthAdjust="spacingAndGlyphs" textLength="103" x="249.5" y="470.3872">enhanced query</text><polygon fill="#383838" points="42.5,500.5859,32.5,504.5859,42.5,508.5859,38.5,504.5859" style="stroke: #383838; stroke-width: 1.0;"/><line style="stroke: #383838; stroke-width: 1.0; stroke-dasharray: 2.0,2.0;" x1="36.5" x2="188.5" y1="504.5859" y2="504.5859"/><text fill="#000000" font-family="sans-serif" font-size="13" lengthAdjust="spacingAndGlyphs" textLength="122" x="48.5" y="499.52">Close modal window</text><!--MD5=[f046a96bea611306d5f732f40efb110f]
@startuml
Title Patron adds query to "Follow Searches service"

skinparam monochrome true

actor       Patron
    note right of Patron
        Patron is identified
        by GUID
    end note
boundary    DDBCMS      as "DDB CMS"
    note left of DDBCMS
        Prerequisite Client
        is authenticated.
    end note
control     Follow      as "Follow Searches service"

Patron -> DDBCMS: Click "Save query" icon.
Patron <- DDBCMS: Display modal window\nand prompt user to\n enter title of query.
Patron -> DDBCMS: Enter title of query\nand click [Save] button.

DDBCMS -> Follow: Post query\n and title of query.
Follow -> Follow: Set dateLastSeen = NOW

DDBCMS <- - Follow: Return **enhanced query**
Patron <- - DDBCMS: Close modal window

@enduml

PlantUML version 1.2019.13(Tue Dec 10 17:18:29 GMT 2019)
(GPL source distribution)
Java Runtime: Java(TM) SE Runtime Environment
JVM: Java HotSpot(TM) 64-Bit Server VM
Java Version: 1.8.0_202-b08
Operating System: Linux
Default Encoding: ANSI_X3.4-1968
Language: en
Country: US
--></g></svg>