<?xml version="1.0" encoding="UTF-8" standalone="no"?><svg xmlns="http://www.w3.org/2000/svg" xmlns:xlink="http://www.w3.org/1999/xlink" contentScriptType="application/ecmascript" contentStyleType="text/css" height="304px" preserveAspectRatio="none" style="width:707px;height:304px;" version="1.1" viewBox="0 0 707 304" width="707px" zoomAndPan="magnify"><defs><filter height="300%" id="fr3ksofz3kzoh" width="300%" x="-1" y="-1"><feGaussianBlur result="blurOut" stdDeviation="2.0"/><feColorMatrix in="blurOut" result="blurOut2" type="matrix" values="0 0 0 0 0 0 0 0 0 0 0 0 0 0 0 0 0 0 .4 0"/><feOffset dx="4.0" dy="4.0" in="blurOut2" result="blurOut3"/><feBlend in="SourceGraphic" in2="blurOut3" mode="normal"/></filter></defs><g><text fill="#000000" font-family="sans-serif" font-size="14" font-weight="bold" lengthAdjust="spacingAndGlyphs" textLength="315" x="197.25" y="22.9951">Client requests queryList on behalf of patron</text><rect fill="#FFFFFF" filter="url(#fr3ksofz3kzoh)" height="75.3984" style="stroke: #000000; stroke-width: 2.0;" width="418.5" x="278" y="127.7266"/><line style="stroke: #383838; stroke-width: 1.0; stroke-dasharray: 5.0,5.0;" x1="41" x2="41" y1="81.5938" y2="249.2578"/><line style="stroke: #383838; stroke-width: 1.0; stroke-dasharray: 5.0,5.0;" x1="367" x2="367" y1="81.5938" y2="249.2578"/><line style="stroke: #383838; stroke-width: 1.0; stroke-dasharray: 5.0,5.0;" x1="613.5" x2="613.5" y1="81.5938" y2="249.2578"/><text fill="#000000" font-family="sans-serif" font-size="14" lengthAdjust="spacingAndGlyphs" textLength="60" x="8" y="78.292">DDB CMS</text><path d="M20.5,37.2969 L20.5,61.2969 M20.5,49.2969 L37.5,49.2969 " fill="none" filter="url(#fr3ksofz3kzoh)" style="stroke: #383838; stroke-width: 2.0;"/><ellipse cx="49.5" cy="49.2969" fill="#F8F8F8" filter="url(#fr3ksofz3kzoh)" rx="12" ry="12" style="stroke: #383838; stroke-width: 2.0;"/><text fill="#000000" font-family="sans-serif" font-size="14" lengthAdjust="spacingAndGlyphs" textLength="60" x="8" y="261.2529">DDB CMS</text><path d="M20.5,268.5547 L20.5,292.5547 M20.5,280.5547 L37.5,280.5547 " fill="none" filter="url(#fr3ksofz3kzoh)" style="stroke: #383838; stroke-width: 2.0;"/><ellipse cx="49.5" cy="280.5547" fill="#F8F8F8" filter="url(#fr3ksofz3kzoh)" rx="12" ry="12" style="stroke: #383838; stroke-width: 2.0;"/><text fill="#000000" font-family="sans-serif" font-size="14" lengthAdjust="spacingAndGlyphs" textLength="152" x="288" y="78.292">Follow Searches service</text><ellipse cx="367" cy="49.2969" fill="#F8F8F8" filter="url(#fr3ksofz3kzoh)" rx="12" ry="12" style="stroke: #383838; stroke-width: 2.0;"/><polygon fill="#383838" points="363,37.2969,369,32.2969,367,37.2969,369,42.2969,363,37.2969" style="stroke: #383838; stroke-width: 1.0;"/><text fill="#000000" font-family="sans-serif" font-size="14" lengthAdjust="spacingAndGlyphs" textLength="152" x="288" y="261.2529">Follow Searches service</text><ellipse cx="367" cy="280.5547" fill="#F8F8F8" filter="url(#fr3ksofz3kzoh)" rx="12" ry="12" style="stroke: #383838; stroke-width: 2.0;"/><polygon fill="#383838" points="363,268.5547,369,263.5547,367,268.5547,369,273.5547,363,268.5547" style="stroke: #383838; stroke-width: 1.0;"/><text fill="#000000" font-family="sans-serif" font-size="14" lengthAdjust="spacingAndGlyphs" textLength="139" x="541.5" y="78.292">Open Platform /seach</text><path d="M593.5,37.2969 L593.5,61.2969 M593.5,49.2969 L610.5,49.2969 " fill="none" filter="url(#fr3ksofz3kzoh)" style="stroke: #383838; stroke-width: 2.0;"/><ellipse cx="622.5" cy="49.2969" fill="#F8F8F8" filter="url(#fr3ksofz3kzoh)" rx="12" ry="12" style="stroke: #383838; stroke-width: 2.0;"/><text fill="#000000" font-family="sans-serif" font-size="14" lengthAdjust="spacingAndGlyphs" textLength="139" x="541.5" y="261.2529">Open Platform /seach</text><path d="M593.5,268.5547 L593.5,292.5547 M593.5,280.5547 L610.5,280.5547 " fill="none" filter="url(#fr3ksofz3kzoh)" style="stroke: #383838; stroke-width: 2.0;"/><ellipse cx="622.5" cy="280.5547" fill="#F8F8F8" filter="url(#fr3ksofz3kzoh)" rx="12" ry="12" style="stroke: #383838; stroke-width: 2.0;"/><polygon fill="#383838" points="355,108.7266,365,112.7266,355,116.7266,359,112.7266" style="stroke: #383838; stroke-width: 1.0;"/><line style="stroke: #383838; stroke-width: 1.0;" x1="41" x2="361" y1="112.7266" y2="112.7266"/><text fill="#000000" font-family="sans-serif" font-size="13" lengthAdjust="spacingAndGlyphs" textLength="156" x="48" y="107.6606">Request query list by GUID</text><path d="M278,127.7266 L351,127.7266 L351,134.7266 L341,144.7266 L278,144.7266 L278,127.7266 " fill="#EEEEEE" style="stroke: #000000; stroke-width: 1.0;"/><rect fill="none" height="75.3984" style="stroke: #000000; stroke-width: 2.0;" width="418.5" x="278" y="127.7266"/><text fill="#000000" font-family="sans-serif" font-size="13" font-weight="bold" lengthAdjust="spacingAndGlyphs" textLength="28" x="293" y="140.7935">loop</text><text fill="#000000" font-family="sans-serif" font-size="11" font-weight="bold" lengthAdjust="spacingAndGlyphs" textLength="124" x="366" y="139.937">[FOREACH query in list]</text><polygon fill="#383838" points="602,161.9922,612,165.9922,602,169.9922,606,165.9922" style="stroke: #383838; stroke-width: 1.0;"/><line style="stroke: #383838; stroke-width: 1.0;" x1="367" x2="608" y1="165.9922" y2="165.9922"/><text fill="#000000" font-family="sans-serif" font-size="13" lengthAdjust="spacingAndGlyphs" textLength="117" x="374" y="160.9263">Request hitCount of</text><text fill="#000000" font-family="sans-serif" font-size="13" font-weight="bold" lengthAdjust="spacingAndGlyphs" textLength="103" x="494" y="160.9263">enhanced query</text><polygon fill="#383838" points="378,191.125,368,195.125,378,199.125,374,195.125" style="stroke: #383838; stroke-width: 1.0;"/><line style="stroke: #383838; stroke-width: 1.0; stroke-dasharray: 2.0,2.0;" x1="372" x2="613" y1="195.125" y2="195.125"/><text fill="#000000" font-family="sans-serif" font-size="13" lengthAdjust="spacingAndGlyphs" textLength="94" x="384" y="190.0591">Return hitCount</text><polygon fill="#383838" points="52,227.2578,42,231.2578,52,235.2578,48,231.2578" style="stroke: #383838; stroke-width: 1.0;"/><line style="stroke: #383838; stroke-width: 1.0; stroke-dasharray: 2.0,2.0;" x1="46" x2="366" y1="231.2578" y2="231.2578"/><text fill="#000000" font-family="sans-serif" font-size="13" lengthAdjust="spacingAndGlyphs" textLength="99" x="58" y="226.1919">Return queryList,</text><text fill="#000000" font-family="sans-serif" font-size="13" font-weight="bold" lengthAdjust="spacingAndGlyphs" textLength="114" x="160" y="226.1919">enhanced queries</text><text fill="#000000" font-family="sans-serif" font-size="13" lengthAdjust="spacingAndGlyphs" textLength="83" x="277" y="226.1919">and hitCounts</text><!--MD5=[01cc79c2d489d890087dffc9a28ec0f5]
@startuml
Title Client requests queryList on behalf of patron

skinparam monochrome true

boundary    DDBCMS      as "DDB CMS"
control     Follow      as "Follow Searches service"
boundary    OPsearch    as "Open Platform /seach"

DDBCMS -> Follow: Request query list by GUID
    loop FOREACH query in list
        Follow ->  OPsearch: Request hitCount of **enhanced query**
        Follow <- - OPsearch: Return hitCount
    end
DDBCMS <- - Follow: Return queryList, **enhanced queries** and hitCounts

@enduml

PlantUML version 1.2019.13(Tue Dec 10 17:18:29 GMT 2019)
(GPL source distribution)
Java Runtime: Java(TM) SE Runtime Environment
JVM: Java HotSpot(TM) 64-Bit Server VM
Java Version: 1.8.0_202-b08
Operating System: Linux
Default Encoding: ANSI_X3.4-1968
Language: en
Country: US
--></g></svg>